<svg width="123" height="188" viewBox="0 0 123 188" fill="none" xmlns="http://www.w3.org/2000/svg">
<g clip-path="url(#clip0_43_64)">
<path fill-rule="evenodd" clip-rule="evenodd" d="M85.0098 75.6234C86.979 75.6679 86.1346 57.1516 84.8196 53.7395C84.6355 53.048 84.4834 52.1032 84.514 51.2547C86.1404 51.4185 85.9653 50.2967 85.8813 48.944C85.9089 47.8698 85.983 45.6536 84.3518 46.5165C79.4612 36.6495 84.7491 11.1432 71.8724 8.74087C70.3208 8.36109 68.7171 7.96811 67.4108 6.88395C66.0284 4.3089 65.3244 3.98002 63.0339 3.81344C62.6097 1.49392 61.8169 -0.984011 59.4544 -1.8866C57.2913 -2.74078 54.7738 -2.80892 52.5183 -2.35308C50.6514 -1.73944 50.4807 1.75754 50.066 3.48168C47.5516 2.80977 44.4529 1.39657 43.0993 4.60018C42.4437 4.40268 41.8361 4.53087 41.1699 4.75067C35.586 5.65738 30.1684 8.20306 28.0973 13.5148C26.818 16.7022 27.7259 20.172 28.2057 23.4732C28.6532 27.0679 27.4732 30.3981 26.9263 33.8557C26.1119 38.6169 25.9646 42.436 26.4961 45.9748C25.0913 46.2968 24.9878 47.5844 25.5561 48.9318C25.723 49.3878 25.8911 49.8684 26.2601 50.1262C27.0108 50.6024 27.981 50.0536 28.7969 49.9696C28.9666 51.8709 29.2952 53.7365 29.8389 55.8567C29.6814 56.4914 29.5008 57.2002 29.3386 57.8375L29.2839 57.7776C27.4213 65.64 21.8818 73.2772 23.6035 81.6331C23.7047 81.9115 23.8968 81.8535 24.0443 81.8487C24.899 82.1761 25.684 81.9683 26.5459 82.0017C28.5902 82.0032 30.5653 82.267 32.3975 82.4967C32.7324 84.7016 33.8213 88.3113 35.7632 89.152C35.7959 89.1633 36.3715 89.0423 36.4196 89.0388C31.2501 110.163 21.9489 129.695 18.2542 151.245C18.2323 151.508 18.6569 151.368 18.7962 151.4C18.7772 151.998 19.1606 152.142 19.6974 152.355C19.0056 153.812 18.3824 155.268 17.6938 156.729C17.3744 157.452 16.854 158.167 16.7592 158.94C15.9968 159.431 15.4832 160.391 15.4968 161.287C13.4409 162.163 13.9997 166.488 13.5307 168.63C13.0564 171.822 10.8004 174.051 9.25357 176.667C8.93834 177.193 8.60266 177.881 8.58777 178.541C7.62884 178.994 7.27128 179.983 7.33473 181.649C7.33131 183.598 7.87682 184.34 9.34773 184.387C13.343 184.79 18.0052 184.626 22.0237 184.168C25.0298 183.783 27.6936 184.103 27.0215 180.462C26.8832 179.581 27.1489 178.395 26.6313 177.681C26.3122 175.558 26.4979 173.418 27.186 171.321C27.6043 169.555 28.311 165.907 28.0181 163.537C27.8827 162.441 25.6623 161.838 25.2714 161.784C25.3957 160.959 25.341 159.517 24.9005 158.944C25.7095 158.83 25.9128 158.615 26.0813 157.709C26.4839 156.243 26.5375 154.651 27.5346 153.415C29.3279 153.438 31.1151 152.98 32.9074 152.924L32.9967 152.716C34.0567 152.703 35.1109 152.514 36.1171 152.144C36.3402 152.25 36.6257 152.342 36.7511 152.001L37.3496 150.115C44.3172 127.77 52.0404 105.37 59.5709 83.1887C60.0105 82.1102 60.5391 80.9641 61.2266 80.003C61.4595 93.575 64.2807 107.133 64.523 120.698C64.8503 130.03 64.7661 139.264 65.6371 148.63C65.8613 150.612 66.0997 150.546 66.3932 150.424C66.5109 150.443 66.7877 150.502 66.9079 150.528C66.7115 152.497 66.4856 155.695 65.6474 157.709C63.7948 157.997 64.1266 159.43 64.5375 160.617C64.0955 160.998 64.1583 161.885 64.2895 162.375C62.5464 162.377 62.1663 163.806 62.2862 164.708C62.452 166.216 62.3593 168.562 63.3577 169.85C63.9457 171.492 64.9028 173.042 65.2766 174.811C65.5116 176.113 65.4209 178.009 65.6474 179.301C65.0774 179.566 65.3189 179.982 65.2228 180.787C64.7293 184.472 66.4663 183.845 69.5374 184.099C71.3782 184.509 85.3922 185.324 84.7866 182.872C84.8899 181.874 84.4292 181.436 84.2319 180.453C84.1433 180.192 82.3974 177.173 81.356 176.03C77.8633 172.723 78.0158 168.283 78.1264 163.169C77.921 161.782 76.8629 160.455 75.5128 160.604C75.9004 159.124 75.1819 157.837 73.6803 157.409C73.8303 155.732 73.9883 153.455 74.5373 152.005L74.0202 151.474L74.7124 151.558L74.9422 150.974L75.1929 151.613C76.3813 151.613 77.7222 151.348 78.8606 151.223C79.0425 151.233 78.9613 150.984 78.9912 150.888C80.0662 150.664 80.184 150.088 79.994 148.717C80.2444 126.445 80.1357 104.382 79.7934 82.0687C81.4735 82.1442 83.1119 81.5266 84.763 81.1151C85.3496 81.4861 85.5158 80.1649 85.4472 79.8797C85.3541 78.4035 85.1728 76.9636 85.0098 75.6234Z" fill="white"/>
<path fill-rule="evenodd" clip-rule="evenodd" d="M50.5058 0.375977C50.7555 0.574653 50.7294 1.12542 50.754 1.43374L50.7557 1.45393C50.8343 2.38524 50.728 3.32085 50.5026 4.22506L50.4835 4.30034C50.3701 4.74401 50.2696 5.29861 49.9163 5.6095C49.5337 5.94616 48.9259 5.72823 48.912 5.18535C48.9051 4.93305 48.9886 4.69012 49.0944 4.45344C48.3531 4.74167 47.6118 5.02678 46.8675 5.30486C46.3919 9.26734 51.8851 14.1187 55.0655 15.8171C59.6969 18.4005 63.5938 14.4434 64.1866 9.79163C64.2863 9.17376 64.353 8.53871 64.366 7.91225C64.3767 7.3889 64.271 6.65855 64.619 6.21096C64.3725 6.2051 64.1536 6.24002 63.9122 6.27814L63.9237 6.29834C64.0606 6.5447 64.2539 7.15792 63.8209 7.20455C62.8861 7.10543 62.4512 5.45398 62.2233 4.66192C62.0751 4.12271 61.8708 1.88471 62.3231 1.62109C62.4593 2.15264 62.4057 2.72989 62.5714 3.26301C62.9486 3.41611 63.6668 3.45751 63.8332 3.4857C65.7759 3.50836 66.8773 4.9136 67.6647 6.55856C69.9729 8.46763 73.2908 8.13955 75.7833 9.7118C83.4105 15.2831 80.9196 36.972 84.7186 46.199C85.4792 45.8818 86.2545 46.5168 86.3561 47.2918C86.4611 47.8878 86.4297 48.5259 86.4381 49.1297L86.4417 49.2051C86.5038 50.4401 86.7157 51.8281 85.0605 51.8551C85.0631 52.5445 85.1919 53.2119 85.3572 53.8774C86.2737 57.9058 86.6737 62.0551 86.764 66.1848L86.7685 66.4882C86.7983 68.6588 86.8247 75.3738 85.5864 76.1683L85.6441 76.6413C85.7874 77.8242 85.9225 79.0101 85.998 80.199C86.1168 80.8161 85.7124 82.2947 84.8872 81.9033C83.374 82.2804 81.8815 82.8369 80.3091 82.8399C80.6901 95.6124 80.5007 108.398 80.557 121.176C80.4356 130.595 80.9409 140.091 80.4992 149.474L80.5152 149.607C80.64 150.66 80.6775 151.576 79.469 151.937C79.4516 152.195 79.2547 152.333 79.0212 152.363C78.3588 152.453 77.6965 152.538 77.0334 152.62C76.4156 152.666 75.7548 152.821 75.1391 152.747C75.1986 152.808 75.037 152.817 75.0195 152.773C74.4582 154.192 74.2953 155.739 74.1563 157.254C75.5187 157.777 76.2623 158.954 76.0399 160.43C77.4145 160.486 78.4185 162.025 78.611 163.322C78.7345 164.217 78.6356 165.106 78.5958 166.003C78.4055 169.067 78.8525 172.369 80.8158 174.813L80.8977 174.911C82.1603 176.407 83.7611 177.778 84.3054 179.733C84.4564 179.805 84.5806 179.942 84.635 180.157L84.9878 181.552L85.1632 182.249C85.2917 182.758 85.4059 183.278 85.337 183.805L85.3297 183.856C84.9861 187.19 71.4194 185.583 68.7717 185.343C67.7072 185.175 66.5394 185.267 65.5811 184.699C64.4055 183.917 64.2585 182.331 64.4603 181.032L64.4771 180.911C64.5588 180.33 64.6784 179.721 65.2254 179.396C65.0412 178.192 65.1125 176.961 64.8935 175.762C64.5627 174.066 63.562 172.594 63.0513 170.965C62.3061 170.13 62.281 168.829 62.1252 167.761C62.0071 166.725 61.9105 165.683 61.8708 164.641C61.7626 163.263 62.3559 162.127 63.7933 161.947C63.7266 161.686 63.9092 161.461 64.0908 161.293C63.6622 159.76 63.544 157.654 65.4032 157.131C66.1073 155.371 66.3121 153.465 66.4995 151.588C66.4772 151.583 66.455 151.579 66.4328 151.576C65.5067 151.964 65.314 150.123 65.2522 149.402C64.3755 140.063 64.4562 130.669 64.127 121.301L64.0948 120.624C63.8061 114.451 63.6344 108.224 62.575 102.134C61.5089 95.3467 61.2302 88.4483 60.8657 81.5893C60.4365 82.2613 60.2057 83.0331 59.8583 83.7491C55.351 97.0931 50.7263 110.397 46.2703 123.759C43.0406 133.433 39.955 143.159 36.8602 152.878C36.7023 153.376 36.2047 153.479 35.8406 153.32C34.9137 153.644 33.9409 153.828 32.962 153.86C32.903 153.996 32.7818 154.096 32.6048 154.077C32.0812 154.019 31.4786 154.184 30.955 154.245C29.757 154.365 28.594 154.55 27.3849 154.567C26.636 155.521 26.5888 156.815 26.2435 157.951C26.0448 158.53 26.076 159.828 25.3895 159.991C25.6355 160.373 25.6677 160.832 25.6279 161.304C25.8414 161.353 26.0579 161.446 26.2588 161.54C26.4544 161.64 26.7128 161.632 26.8476 161.832C30.682 162.533 27.8799 169.87 27.2134 172.296C26.5592 174.28 26.3544 176.352 26.6529 178.424C27.1092 179.059 26.9563 180.003 27.0262 180.756C27.063 181.428 27.1304 182.11 27.1244 182.782C27.0499 185.576 23.627 185.122 21.696 185.484C20.4901 185.625 19.2789 185.724 18.0676 185.8C14.9957 185.993 11.9065 186.007 8.84083 185.708C6.86146 185.645 6.43584 184.344 6.43898 182.564L6.43596 182.491C6.39136 181.283 6.58464 179.824 7.72305 179.196C7.77978 178.558 8.10106 177.913 8.42909 177.356C9.95448 174.771 12.2447 172.507 12.6952 169.405C13.137 167.375 12.6364 162.906 14.6846 161.847C14.732 160.933 15.2894 160.001 15.9794 159.507C16.1125 158.746 16.6143 158.046 16.9246 157.346C17.5577 156.01 18.1433 154.652 18.773 153.315C18.4433 153.175 18.0929 152.916 18.0469 152.549C17.7303 152.553 17.4175 152.347 17.4559 151.958C17.5677 150.831 17.8124 149.723 18.0435 148.615L18.0723 148.477C22.1839 128.449 30.6744 109.72 35.642 89.9489C34.9736 90.0707 34.3488 89.3005 33.9793 88.7991C32.7857 87.1796 32.0807 85.2201 31.7707 83.232L31.2096 83.1619C29.3386 82.9304 27.4583 82.7277 25.5716 82.7822L25.1169 82.7975C24.6117 82.8131 24.1057 82.809 23.6255 82.6258C23.2905 82.6571 22.9417 82.4759 22.859 82.097C21.4615 75.0792 24.8964 68.4191 27.3566 62.0776C27.9361 60.5185 28.3486 58.9367 28.7419 57.3222C28.7549 57.2698 28.8361 57.2808 28.8338 57.3347C28.7572 59.1297 28.3156 60.9395 27.8671 62.6697C26.3943 68.5363 23.3261 74.2894 24.0763 80.5004C26.4081 78.6498 29.1775 77.3644 32.0865 76.8205C32.2544 76.0855 32.4399 75.3559 32.5795 74.6162C32.4422 73.4789 32.3487 72.3361 32.2291 71.1933C31.8719 67.7751 31.3261 64.3655 30.5986 61.0074C29.47 57.6285 28.4847 54.2038 28.1324 50.6412L28.0683 50.6539C27.2858 50.814 26.4237 51.1614 25.6977 50.6592C25.2369 50.3374 25.0376 49.8039 24.8514 49.2914C24.3197 48.0491 24.2213 46.4161 25.726 45.8967C25.1651 41.9468 25.5296 37.8233 26.2074 33.9104C26.7504 30.4805 27.9413 27.1014 27.4955 23.5902C27.0005 20.2161 26.0777 16.6822 27.4118 13.3794C29.6042 7.86733 35.1563 5.25213 40.6166 4.41047L40.705 4.38428C41.3805 4.18275 41.9956 3.97031 42.6994 4.12302C44.3595 1.01876 47.0518 2.28129 49.6809 2.97321C49.8584 2.44681 50.0063 1.9083 50.1455 1.37027C50.2321 1.09617 50.2035 0.463775 50.5058 0.375977ZM65.7229 180.902L65.716 181.037C65.6465 182.491 65.7248 183.736 67.513 183.727C68.7434 183.859 69.974 183.988 71.2065 184.1L71.6687 184.141C75.3265 184.47 79.0283 184.631 82.6791 184.137L82.8312 184.116C83.1363 184.073 83.7013 184.081 83.9429 183.854C84.234 183.459 83.897 182.706 83.8263 182.248C78.1298 182.181 72.4258 181.969 66.7256 182.042C66.1261 182.046 65.8555 181.529 65.9107 181.059C65.8432 181.013 65.7796 180.96 65.7229 180.902ZM7.88633 180.173C7.60629 181.166 7.67529 182.104 7.83352 183.098C7.91263 184.138 8.40395 184.205 9.29305 184.23C12.7639 184.552 16.26 184.485 19.7319 184.214C21.5927 184.012 23.505 184.019 25.3312 183.605C26.2025 183.216 25.6995 181.992 25.7291 181.242C21.6278 183.905 15.4251 183.567 10.9528 182.026L10.8811 181.995C9.82316 181.547 8.4707 181.265 7.88633 180.173ZM14.68 162.252C14.1894 162.81 14.1986 164.44 14.1764 164.892C14.1234 165.983 14.1319 167.077 14.085 168.168C14.1195 172.763 11.4863 175.055 9.53078 178.75C8.99592 179.647 9.77402 179.774 10.4069 180.065C14.5053 181.987 19.3531 182.281 23.6346 180.809C25.7868 180.179 25.3169 178.719 25.1342 176.934C24.9543 173.286 26.8591 169.999 27.4226 166.47L27.443 166.346C27.6115 165.288 27.8792 162.693 26.258 163.255C25.9016 163.476 25.5666 163.199 25.5244 162.86C25.482 162.867 25.4384 162.871 25.3964 162.871C25.207 164.051 25.0108 165.229 24.8222 166.408C24.9809 166.51 25.1296 166.625 25.2614 166.756C25.4217 166.916 25.3097 167.252 25.0683 167.232C24.9441 167.221 24.8214 167.202 24.6995 167.178C24.6029 168.204 22.9871 167.628 23.4538 166.807C21.1305 165.998 18.571 166.062 16.2117 166.682L16.2019 166.687C16.0193 166.76 14.706 167.025 15.1285 167.232C15.3045 167.253 14.9036 167.485 14.8333 167.126C14.8106 166.675 15.8314 166.454 16.1442 166.267C15.3554 165.129 14.8164 163.655 14.68 162.252ZM74.1992 158.649C72.0107 157.455 69.3211 157.898 66.9471 158.11L66.8475 158.121C66.2433 158.187 65.4014 158.227 65.1241 158.854C64.7226 159.859 65.3881 162.106 65.5972 163.224L65.6919 163.614C65.8565 164.297 66.0089 164.975 66.0656 165.681C66.0671 165.704 66.0449 165.721 66.0242 165.721C65.1926 164.826 64.8189 163.621 64.4305 162.473C64.2648 162.568 64.103 162.671 63.9505 162.785C63.3546 164.849 63.1551 167.046 63.6269 169.152L63.6438 169.226C64.2268 171.828 66.0417 173.955 66.2143 176.675C66.3296 177.774 66.3038 178.9 66.6175 179.968C66.796 180.007 66.9516 180.14 67.0215 180.307L68.0447 180.308C72.9899 180.317 77.9366 180.362 82.8787 180.567C82.7193 179.166 81.4927 177.924 80.6288 176.963C77.9778 174.227 76.8312 170.297 77.268 166.509C77.4977 164.614 78.5471 161.637 75.9801 160.937C75.7927 162.481 75.5392 164.02 75.399 165.571C75.8835 165.806 75.8536 166.427 75.2617 166.415C74.9961 167.316 74.1054 166.952 74.2016 166.102C70.9437 164.889 69.0746 164.483 65.9007 166.31C65.8119 166.297 66.1446 165.938 66.1867 165.874C67.1896 164.784 68.7301 164.272 70.1754 164.253C71.608 164.253 72.9552 164.797 74.3066 165.218C74.5098 163.755 74.6466 162.283 74.8075 160.814L74.8424 160.5C74.9268 159.729 74.8961 159.092 74.1992 158.649ZM21.8432 177.544C22.32 177.437 22.7585 177.274 23.243 177.385C24.9479 178.675 17.9815 179.039 17.3884 178.948C15.8784 178.903 14.3678 178.71 12.9146 178.28L12.8028 178.246C12.6112 178.192 11.2273 177.799 11.4964 177.621C13.4619 177.797 15.386 178.16 17.3884 178.066C18.3873 178.045 19.39 177.974 20.3782 177.822C20.8696 177.746 21.3587 177.654 21.8432 177.544ZM67.9008 175.945C67.5887 175.474 69.1104 176.1 69.3083 176.105C70.5685 176.418 71.8508 176.656 73.1452 176.754C74.013 176.821 74.89 176.835 75.7593 176.792C76.4031 176.769 77.0399 176.673 77.6796 176.607L77.7026 176.606C78.0828 176.593 78.8443 176.83 78.3749 177.286C77.6451 177.857 76.5651 177.683 75.6903 177.767C73.0336 177.758 70.2205 177.327 67.9008 175.945ZM17.9558 172.518C18.7217 172.378 22.9372 172.333 22.517 173.637C22.415 173.884 22.182 173.966 21.9367 173.927C19.3276 173.288 16.5133 172.953 13.9126 173.835C13.8705 173.85 13.8413 173.78 13.8827 173.762C15.1614 173.116 16.5296 172.664 17.9558 172.518ZM72.6745 171.243C73.3627 171.191 74.0551 171.209 74.7437 171.261L74.9677 171.279C75.2765 171.303 75.5944 171.332 75.8904 171.423L75.9456 171.44C76.3237 171.563 77.1758 172.218 76.529 172.533C75.8344 172.76 75.2472 172.49 74.5772 172.317C72.7095 171.871 70.7463 172.022 68.8959 172.478L69.1565 172.562C69.1726 172.55 69.1933 172.578 69.178 172.591C68.9909 172.756 68.7341 172.697 68.6015 172.492C68.5785 172.457 68.5931 172.401 68.6299 172.382C69.884 171.718 71.267 171.351 72.6745 171.243ZM14.5052 171.077C16.6145 170.136 19.0582 170.032 21.3203 170.305L21.4814 170.325C22.1871 170.408 23.1075 170.447 23.5113 171.109C23.6508 171.339 23.5067 171.602 23.2813 171.685C22.6174 171.929 21.837 171.439 21.1992 171.257C19.3134 170.737 17.2991 170.682 15.3814 171.042C15.3949 171.113 15.0773 171.082 15.0081 171.107C14.9214 171.103 14.3461 171.294 14.5052 171.077ZM67.6954 169.608C69.5355 168.706 71.6629 168.491 73.6496 168.956L73.7322 168.98C74.6124 169.229 76.0296 169.523 76.345 170.462C76.4132 170.674 76.2653 170.96 76.0437 171.003C75.2932 171.147 74.6117 170.595 73.9325 170.329C71.9342 169.573 69.6721 169.391 67.6057 169.948C67.5919 170.03 67.5781 170.112 67.5635 170.194C67.5988 170.17 67.6356 170.222 67.6072 170.251C67.2774 170.484 66.9344 169.897 67.6954 169.608ZM19.2467 168.022C20.7355 167.922 22.2369 168.113 23.6743 168.509L23.9446 168.584C24.3374 168.695 24.8463 168.87 24.9034 169.298C24.9257 169.468 24.8835 169.585 24.7463 169.691C24.2459 170.068 23.1576 169.277 22.5355 169.184C20.2768 168.5 17.8524 168.51 15.5644 169.034L15.4865 169.052L15.5417 169.448C15.5959 169.637 15.093 169.191 15.2841 168.987C16.4919 168.367 17.9012 168.134 19.2467 168.022ZM69.099 167.314C70.294 167.097 71.5266 167.056 72.7348 167.165L72.8775 167.178C73.599 167.243 75.9366 167.336 75.3837 168.566C75.2909 168.771 75.0218 168.798 74.8478 168.709C74.2636 168.41 73.625 168.302 72.9803 168.204C70.704 167.885 68.3783 168.016 66.156 168.634C66.2043 168.71 66.1046 168.801 66.0103 168.819C65.7758 168.863 65.7758 168.581 65.8762 168.431C65.9959 168.253 66.2342 168.188 66.4182 168.11C67.274 167.734 68.1815 167.48 69.099 167.314ZM23.8409 160.474L23.7048 160.441C21.4245 159.901 16.3688 158.931 15.8452 162.097C15.6594 163.492 16.2724 164.852 16.2271 166.233C18.5917 165.264 21.2065 165.274 23.6632 165.915C23.8808 164.481 24.0885 163.046 24.3109 161.614L24.3468 161.442C24.4457 160.959 24.4794 160.581 23.8409 160.474ZM18.7622 161.051C19.2591 160.621 20.0877 160.627 20.5752 161.096C21.0209 161.19 21.3354 161.667 21.3426 162.076C22.0203 163.277 21.203 164.936 19.909 165.236C16.9873 165.857 15.681 161.811 18.7622 161.051ZM69.3842 159.134C71.8289 158.694 72.7169 161.821 70.7105 163.089C67.8761 164.522 65.9874 160.016 69.3842 159.134ZM19.9719 152.19C20.0078 152.429 19.8913 152.599 19.7519 152.761C19.2506 154.832 18.4963 156.759 17.7525 158.745C20.1722 158.34 22.4583 158.693 24.5992 159.356C24.6248 158.75 24.8987 158.122 25.089 157.55C25.4595 156.466 25.9073 155.409 26.4239 154.388L26.4888 154.261C26.6743 153.898 26.8529 153.518 27.0722 153.171C24.704 152.845 22.3359 152.551 19.9719 152.19ZM67.6655 151.749L67.6024 152.037C67.3306 153.287 67.0726 154.549 66.6681 155.764L66.6626 155.789C66.6006 156.096 66.4614 157.515 66.3737 156.513C66.3063 156.664 66.2342 156.813 66.1575 156.96L66.5759 156.909C68.8138 156.642 71.1576 156.41 73.3575 156.978C73.135 155.239 73.4625 153.579 73.9409 151.935C71.8444 151.886 69.7665 151.902 67.6655 151.749ZM27.9637 153.91C27.8871 153.982 27.8119 154.056 27.7406 154.134C27.8372 154.109 27.9339 154.085 28.0235 154.063C28.0198 154.006 27.9799 153.963 27.9637 153.91ZM75.2081 152.315L75.1623 152.423C75.1548 152.441 75.1473 152.459 75.1399 152.477C75.1751 152.456 75.2143 152.436 75.2564 152.418C75.2372 152.386 75.2211 152.353 75.2081 152.315ZM36.9115 49.4484C36.6969 49.5531 36.473 49.5797 36.1771 49.5922C33.7729 49.6927 31.3763 49.9734 29.0155 50.4522C29.1458 52.3777 29.7269 54.243 30.2799 56.0786L30.3945 56.4809C32.2629 63.0581 33.8938 69.9311 33.5653 76.8104C33.5837 76.8174 33.6013 76.8268 33.6182 76.8354C33.5884 76.9197 33.567 77.006 33.537 77.0895L33.5178 77.1392L33.4056 77.4201C33.3436 77.5761 33.2833 77.7326 33.2311 77.893C33.1393 77.9264 33.0265 77.9508 32.9191 77.9664C32.3736 81.6086 32.8922 85.6923 35.35 88.5405C34.33 86.3896 33.9383 83.7147 34.3588 81.3659C34.587 81.6151 34.6033 82.1897 34.6907 82.5626C34.9306 83.8374 35.0991 85.1303 35.4595 86.3784L35.4986 86.5036C35.9027 87.7819 36.579 89.4302 37.7511 90.0903C37.9721 90.1571 38.3141 90.0739 38.4187 90.3472C38.4792 90.5912 38.3665 90.8928 38.1181 90.9688L38.1006 90.9737C37.3868 91.1776 36.7812 90.6355 36.3236 90.0637L36.3007 90.3623C36.2568 90.9276 36.1954 91.4703 35.8697 91.9353C35.8314 92.097 35.7938 92.2594 35.7549 92.4212C34.8733 97.9046 33.5472 103.573 31.1329 108.522L30.8521 109.376C26.2622 123.314 21.5086 137.243 18.7422 151.704C21.6489 151.396 24.5799 151.545 27.4808 151.836C30.2162 152.122 33.1096 152.884 35.7302 151.667C42.8302 129.802 50.1542 108.002 58.181 86.4697C59.1485 83.0523 60.9656 79.7564 61.8645 76.2527L61.9208 76.0676C62.132 75.3652 62.2312 74.9095 62.0761 74.1249L62.0695 74.0291C62.0375 73.538 62.0263 72.7932 62.5821 72.6572C62.6764 72.6337 62.7998 72.6517 62.865 72.7337C63.2087 73.1782 62.887 73.7439 62.986 74.26C63.2746 76.2341 62.5018 78.0953 61.5985 79.7974C61.6576 79.8693 61.6982 79.9575 61.7051 80.0544C61.7841 81.1034 61.7741 82.1634 61.8194 83.2148C61.948 86.2378 62.135 89.2581 62.372 92.2743C63.1144 97.7985 64.1668 103.265 64.7386 108.814C66.0405 121.737 65.8064 134.759 66.7517 147.708C66.7593 148.846 67.1134 150.028 66.7547 151.132C66.9809 150.982 67.3022 151.015 67.5006 151.197C71.3545 150.928 75.2142 151.06 79.0672 150.829C79.071 150.654 79.084 150.491 79.0909 150.365C78.9831 150.106 79.1621 149.819 79.1569 149.545C78.6867 146.857 79.0738 143.969 78.9768 141.222C78.9813 138.621 78.9943 136.022 79.012 133.421C79.1577 117.172 78.9618 100.919 79.2565 84.6716C79.2795 83.8725 79.3156 83.0758 79.3669 82.279C79.1548 82.0411 79.2962 81.7036 79.2965 81.4175L79.3089 81.1634C79.3734 79.879 79.4467 78.6993 78.9499 77.4337C78.9614 77.283 78.996 77.1416 79.0741 77.026C76.7501 75.9274 74.3238 75.0954 71.9247 74.1905C71.5199 74.2913 71.0132 74.0374 70.9281 73.5984C70.0243 68.9226 69.3121 64.2171 68.6965 59.4952C64.6682 62.162 59.7565 62.5837 55.1821 63.664L54.3163 63.8903C52.1813 64.4513 49.9417 65.1042 48.3179 66.6331C48.1537 69.0467 49.3733 76.0018 45.7083 75.82C44.5077 76.1895 43.2735 76.486 42.0447 76.6456C43.4754 79.3833 46.0851 83.031 44.0218 86.0628C43.7225 86.3825 43.3202 86.0582 43.0467 85.8597C43.0806 87.6322 43.1276 89.3955 43.1295 91.1666C43.1295 91.4025 42.888 91.6158 42.655 91.5353C41.3334 91.076 41.17 89.481 40.9654 88.2773C40.7821 87.2024 40.5982 86.1276 40.4172 85.052C40.3019 86.9822 40.7626 88.9688 40.3874 90.8768C40.0272 91.9679 38.9081 91.6429 38.5727 90.7282L38.5627 90.7003C37.8993 88.8455 37.5762 86.8649 37.442 84.9005L37.4349 84.7855C37.3963 84.1893 37.3334 83.5587 37.4797 82.9812C37.7764 83.5436 37.7025 84.4614 37.8407 85.1418C38.0722 86.596 38.3853 88.0401 38.8251 89.4443L38.8365 89.4937C39.0353 90.3174 39.8138 91.9219 39.8048 89.9059C39.8346 88.8817 39.7472 87.8605 39.692 86.8384L39.6844 86.6924C39.6123 85.2965 39.62 83.8874 40.0355 82.5415C40.1413 82.197 40.7162 82.1322 40.786 82.5415C41.0651 84.1787 41.3318 85.8175 41.5986 87.4563C41.7931 88.4572 41.785 89.5863 42.3759 90.4496C42.3828 88.5648 42.2792 86.6854 42.1896 84.8028L42.1717 84.7446C42.099 84.5046 42.0203 84.1841 42.1873 83.9764C42.2525 83.5468 42.875 83.596 42.9279 84.0459C42.9394 84.1397 42.9478 84.235 42.957 84.3295C43.1632 84.5904 43.3549 84.8567 43.5986 85.0809C45.2264 81.7298 39.9007 75.9423 39.1654 72.158C37 64.7885 38.245 57.0616 38.8748 49.557C38.2235 49.4793 37.5668 49.4585 36.9115 49.4484ZM18.6763 151.961C18.6516 152.053 18.6327 152.155 18.5881 152.239C18.6234 152.246 18.6594 152.253 18.6955 152.261C18.7392 152.172 18.7852 152.085 18.835 152C18.7821 151.987 18.7292 151.975 18.6763 151.961ZM45.7099 117.446C45.7781 117.434 45.8057 117.53 45.739 117.551C43.4952 118.304 41.604 119.703 39.7128 121.092C39.4444 121.289 39.1938 120.878 39.3816 120.656C40.1725 119.722 41.1412 119.077 42.2196 118.535L42.2832 118.503C43.362 117.955 44.5192 117.606 45.7099 117.446ZM67.1971 116.047C67.171 115.996 67.24 115.957 67.2714 116.002C67.7713 116.712 68.4329 117.373 69.0898 117.931C69.7552 118.497 70.4812 118.943 71.1934 119.439C71.5775 119.707 71.2478 120.276 70.8308 120.071C70.0197 119.674 69.2915 119.017 68.6958 118.333C68.0817 117.628 67.6272 116.873 67.1971 116.047ZM53.2655 91.433C50.7891 95.6284 47.1325 99.8534 44.4036 104.156C42.5607 106.914 40.8937 109.79 38.8741 112.424C38.47 112.979 37.6912 112.516 37.9679 111.884C38.7361 110.136 39.5924 108.457 40.6234 106.855L40.9559 106.357C44.5464 100.993 48.3518 95.6179 53.2655 91.433ZM63.5825 85.0301C63.5611 84.9602 63.6627 84.9293 63.6901 84.9913L63.6929 84.9988C65.552 90.1388 68.4181 94.8117 70.9258 99.6317C71.1198 100.026 70.6031 100.502 70.2941 100.128C68.5241 97.9882 67.2829 95.4706 66.1822 92.9225C65.0214 90.3968 64.3093 87.7067 63.5825 85.0301ZM67.9023 7.03427C69.0407 9.33858 69.8763 11.7772 70.4551 14.287C70.6335 15.0618 69.6029 15.5374 69.1866 14.8585L69.1741 14.8376C68.6621 13.9762 67.8991 13.2175 66.9333 12.9208C66.2753 15.7029 66.596 18.643 66.9379 21.4522C67.5441 25.3661 68.0266 29.2966 68.0987 33.2627L68.1022 33.4752C68.3135 47.0196 70.2872 60.503 72.4491 73.764C75.9051 74.324 79.069 75.9032 82.2547 77.2916C82.8082 77.5095 83.374 77.6993 83.9536 77.8305C82.353 62.796 76.2658 48.6962 74.3848 33.7166C73.8876 29.8207 73.8644 25.8646 74.5511 21.9912C74.5627 21.917 74.6669 21.942 74.6715 22.0076C74.7469 23.5987 75.0167 25.169 75.1767 26.7514C75.2855 25.8476 75.537 24.9321 75.74 24.0659C75.9885 23.2184 76.0803 21.8579 76.8081 21.3054L76.854 21.1452C76.8732 21.0765 76.9743 21.1054 76.9583 21.1741C76.9506 21.207 76.9429 21.239 76.936 21.2718C77.4035 21.3972 76.9668 21.9563 76.8509 22.224C76.1006 24.2543 75.8774 26.4521 75.3652 28.5448C76.1063 35.0778 77.4411 41.5279 79.0848 47.8776C80.5952 47.4756 82.1105 47.0887 83.6246 46.6958C80.2473 35.5907 82.2221 23.1973 77.1621 12.5936C75.2663 9.03503 70.5975 9.51847 67.9023 7.03427ZM42.2425 5.00413C41.5342 4.96585 40.7944 5.35407 40.1144 5.48764C39.2129 5.66418 38.316 5.804 37.4344 6.07513C32.9218 7.32438 28.5681 10.7361 27.7506 15.6516C27.1887 19.0268 28.5801 22.3154 28.5312 25.6812C28.3844 29.0158 27.2956 32.2208 26.8713 35.5218C26.3609 38.8974 26.1853 42.4305 26.6229 45.8225C30.6711 44.6627 34.8987 44.5901 39.0497 45.189C38.7035 40.0479 39.1578 34.8814 39.4091 29.7438C39.5901 26.4444 39.8998 23.1301 39.7901 19.8244C39.7879 19.7509 39.9059 19.733 39.9173 19.8064C41.1622 26.558 40.432 33.4119 40.3062 40.221C40.2263 41.9414 40.4373 43.6781 40.3521 45.3889C42.2393 45.7993 42.1711 48.0217 41.594 49.4866C41.4917 49.8392 41.1444 49.778 40.8634 49.7351C40.5589 50.0583 39.8324 49.6366 39.4183 49.6367C39.0942 58.0885 37.1252 67.1161 41.1601 75.0156C42.847 75.025 44.4708 74.4372 46.1103 74.1038L46.1997 74.0858L46.202 74.085C46.443 73.7681 46.5609 73.2589 46.5931 72.886C46.8222 66.3772 46.1051 59.8535 46.5247 53.3439C47.0385 46.1186 48.6344 38.9373 47.8962 31.6631C47.3859 25.1617 45.9848 18.7781 45.3095 12.2962L45.2752 11.9608C45.2331 11.5612 45.2173 11.1196 45.0215 10.8149C43.8822 11.8633 42.9262 13.11 42.2418 14.5127C41.8628 15.1902 40.8477 14.8887 40.832 14.1237C40.6861 12.7579 40.6645 11.3869 40.8123 10.0207L40.8258 9.90021C41.0091 8.19009 41.5208 6.55786 42.2425 5.00413ZM84.5967 51.9113C83.1294 51.9897 81.6603 52.1541 80.1903 52.1347L80.3383 52.6955C82.1177 59.4245 84.0125 66.1415 85.1295 73.0266L85.1701 72.381C85.2105 71.7353 85.2491 71.0892 85.2744 70.4419C85.5913 64.2542 85.1073 58.0746 84.5967 51.9113ZM80.3037 51.9176L80.1297 51.909L80.1404 51.9473C80.1762 51.94 80.2127 51.9334 80.2491 51.927L80.3037 51.9176ZM85.0858 47.373C85.0583 47.3644 85.0114 47.3644 84.9593 47.3668C84.8842 47.5417 84.7324 47.6862 84.5561 47.7339L83.0852 48.1354C81.8593 48.4698 80.6326 48.8028 79.4045 49.1266C79.6107 49.9296 79.8201 50.7326 80.0316 51.5348C81.7066 50.9884 83.5612 51.1124 85.2691 50.7607C85.2481 49.8338 85.198 48.9022 85.1824 47.9737C85.1786 47.8221 85.2092 47.5784 85.1326 47.4425C85.0843 47.3558 85.1326 47.3878 85.0858 47.373ZM28.8186 50.4928L28.7725 50.503C28.7878 50.5451 28.8016 50.5873 28.8147 50.6303C28.8155 50.5842 28.8162 50.5389 28.8186 50.4928ZM39.7235 46.0326C36.5676 45.5674 33.3583 45.2926 30.1754 45.6091C28.7357 45.8065 27.2742 46.0171 25.8632 46.2865C25.3726 47.0495 25.9154 48.9063 26.5263 49.4937C26.7096 49.564 27.0246 49.4273 27.2002 49.3875C28.5174 49.0862 29.8475 48.8435 31.1842 48.654C31.2241 48.7048 31.2824 48.7376 31.3544 48.7306L31.6616 48.7018C33.5052 48.5317 35.3652 48.4069 37.2129 48.5134L37.2266 48.5244C38.4732 48.6165 39.7155 48.8155 40.9569 48.9595C41.447 47.6613 41.3625 46.1717 39.7235 46.0326ZM62.6856 3.6934C62.8076 4.11177 62.9541 4.51835 63.1364 4.91352C63.3266 4.86017 63.589 4.90297 63.7289 5.02444L63.7884 5.01353C63.952 4.98205 64.1485 4.93391 64.1996 4.92836C66.4545 4.61216 66.2827 7.66885 66.2909 9.20501C66.3047 9.97519 66.3201 10.7462 66.3431 11.5163C66.9883 11.2936 67.8512 11.694 68.4152 12.0483C67.9736 10.5587 67.4546 9.09331 66.8759 7.6537L66.7442 7.31698C66.2938 6.1739 65.7897 5.02264 64.8367 4.22691C64.1001 4.03171 63.3866 3.99625 62.6856 3.6934ZM46.337 2.9265C44.2412 2.16904 43.4111 3.8904 42.8297 5.60716C42.1444 7.50841 41.9573 9.60182 42.0716 11.6476L42.1421 11.553C42.9133 10.5114 44.025 8.79198 45.4308 9.06831C45.4171 8.27797 45.4453 7.40975 45.5949 6.58903C45.5075 6.05942 45.4853 5.52436 45.5459 4.98929C45.5779 4.31838 46.2991 4.42016 46.7739 4.32533C47.1848 4.04803 47.6824 3.93633 48.1822 4.13161C48.5594 4.08084 48.9365 4.03241 49.3137 3.98398C49.3716 3.8551 49.4183 3.72559 49.467 3.59342C48.4231 3.37478 47.3795 3.14943 46.337 2.9265Z" fill="black"/>
</g>
<defs>
<clipPath id="clip0_43_64">
<rect width="123" height="188" fill="white"/>
</clipPath>
</defs>
</svg>
