<svg width="125" height="190" viewBox="0 0 125 190" fill="none" xmlns="http://www.w3.org/2000/svg">
<g clip-path="url(#clip0_43_32)">
<path fill-rule="evenodd" clip-rule="evenodd" d="M28.9555 45.6724C31.4607 51.2444 34.5578 56.1709 38.2255 61.0909C37.9684 49.4654 37.7469 37.7776 37.3678 26.0454C35.0451 30.5788 32.5704 34.6814 29.2666 39.182C26.6765 41.9513 27.8842 43.1007 28.9555 45.6724ZM20.7428 181.683C20.4525 181.272 20.6243 180.749 21.0258 180.483C20.1709 178.639 22.7471 177.215 24.0151 175.827C26.8973 172.699 31.4377 168.215 31.8419 164.265C33.2163 155.304 34.0019 146.311 36.2029 137.455C37.5106 131.83 41.1411 127.316 42.7633 121.791C45.5843 107.188 41.94 92.5436 42.5701 77.795C34.6195 77.0147 35.6492 78.0068 36.5008 71.3906C35.9686 71.0211 35.4502 70.6296 34.9657 70.2353C33.6964 70.9129 32.198 72.574 30.8003 72.4862C30.3579 72.3826 30.039 71.8278 29.7355 71.3512C27.491 67.8103 25.4045 64.3488 23.3618 60.7803C12.0656 42.9605 14.6207 38.9254 25.1574 21.8434C29.5949 15.2462 35.0454 5.64621 43.499 4.98007C44.5195 4.9809 45.5955 4.92649 46.4746 4.28436C46.4808 3.26178 47.0031 2.93187 48.328 2.74498C49.0741 2.6683 49.6595 2.23305 50.3878 2.41066C50.9074 0.675046 50.8032 -0.720694 51.367 -2.43799C53.2984 -5.36878 59.564 -3.90654 61.8584 -2.98739C64.7096 -1.99552 61.9974 2.44372 63.8583 4.47094C64.2639 4.69757 64.6862 4.80618 65.2268 4.80595C67.5321 4.29249 68.6555 7.06178 69.7452 8.88844C72.8645 9.27323 75.2022 9.73653 76.6372 10.8615C77.9533 11.8555 78.9207 13.4543 80.207 16.7607C82.9005 22.6574 84.6666 28.5138 85.4468 34.1632C86.1257 37.9914 88.0119 41.3045 89.526 44.7816C93.2431 53.8351 94.8477 59.8316 93.9579 67.8002C93.0142 67.631 92.0628 67.2878 91.0694 67.1597L90.6679 68.1102C90.6424 68.0911 90.6319 68.0699 90.6302 68.0639C89.4645 76.0398 92.6622 92.2808 82.2299 90.1438C81.3094 98.9212 78.3736 106.724 74.8411 114.063C73.4125 116.825 71.9758 119.743 71.9997 122.985L72.5375 122.997C72.6289 122.999 72.6582 123.018 72.6585 123.018C72.7609 123.043 72.642 123.842 72.5273 124.294C70.8397 130.259 69.3802 136.223 68.0699 142.26C67.7933 143.074 67.6739 145.264 67.0337 145.635C67.0616 145.934 66.1788 146.52 66.1106 146.501C66.2644 147.653 65.7071 148.169 65.7259 149.338C65.7229 149.311 66.5088 149.351 66.4745 149.328C66.9438 149.328 67.4754 150.324 67.4819 151C67.5247 151.813 66.8374 152.578 66.5971 153.377C66.2246 155.128 66.2827 156.904 66.117 158.667C67.6812 159.022 67.3302 160.686 65.9585 160.767C65.9585 160.767 65.7087 163.092 65.758 164.25C66.699 164.363 67.1171 165.202 67.4279 165.853C68.5853 165.866 69.6686 166.393 70.7434 166.942C73.2487 168.17 75.7091 169.457 77.9407 170.76C79.9096 172.07 84.2013 173.51 81.973 176.264C82.0068 176.335 81.4949 177.614 80.8042 177.497C77.397 177.828 64.4403 175.013 61.4428 174.389C60.4254 174.147 55.9735 173.567 57.8223 172.063C57.1333 170.138 57.103 166.485 59.1812 166.039C59.3831 164.231 60.9049 163.596 62.4229 164.265C62.4133 162.964 62.4944 161.837 62.508 160.536C61.7774 160.439 60.9684 160.168 60.7572 159.614C60.557 159.308 60.6346 158.266 61.3869 158.258C61.409 158.257 61.9525 158.283 61.9744 158.282C61.8873 156.176 62.0709 154.389 61.7557 152.279C61.5867 151.579 61.0337 151.465 60.6718 151.104C60.3321 150.056 61.3768 149.21 62.2707 149.033C62.4982 147.968 62.0177 146.84 62.2707 145.794C61.6878 145.775 61.2328 145.745 60.8542 145.391C60.6899 145.23 60.4208 145.279 60.2117 145.264C60.009 143.065 58.6375 141.186 58.3333 139.07C57.9047 136.566 58.7125 133.952 59.0018 131.4C59.2362 129.277 58.8626 127.104 58.676 125.019C50.9951 137.283 40.6234 149.101 38.7665 164.03C38.5688 165.179 38.4489 166.465 39.5081 167.59L39.5536 167.603C39.8229 168.144 39.9921 169.175 40.1853 169.733C41.1856 170.524 40.2674 172.042 39.5448 172.726C39.3257 172.976 39.1388 173.266 38.9387 173.528C35.1642 178.038 34.7372 183.134 27.4917 182.79C25.7105 182.678 21.5424 182.735 20.7428 181.683Z" fill="white"/>
<path fill-rule="evenodd" clip-rule="evenodd" d="M51.0689 -1.74655C51.6805 -2.16143 50.8097 1.43823 50.8082 1.78449C50.6585 2.53377 50.3933 3.42981 49.7542 3.91629C50.0391 6.24956 50.3938 8.57562 50.8302 10.8847L51.0869 10.9184C54.8955 11.4236 58.729 12.1181 62.6014 11.7563C64.6883 11.7729 66.0683 10.3438 66.9108 8.57197L66.7368 7.94809C64.0892 6.321 62.0813 3.02716 63.2755 -0.0844276C63.353 -0.286512 63.676 -0.204432 63.6053 0.00677244C63.1042 1.4111 63.3149 2.99365 64.0263 4.28253C64.4708 4.51889 64.9442 4.50293 65.4207 4.48773C67.7191 4.15136 69.0379 6.76264 70.0278 8.38957L70.8937 8.5178C74.2064 9.01036 77.4012 9.59341 79.0371 12.9898L79.1866 13.3077C81.5004 18.2384 83.6633 23.3089 84.9237 28.6215C85.5514 31.4176 85.7786 34.2987 86.6994 37.0257C88.6113 42.0894 91.3055 46.8481 92.7664 52.0904C93.6729 53.9818 96.2239 68.2204 93.7071 68.3286C92.8021 68.0572 91.8804 67.8375 90.9488 67.6817C91.0924 67.7912 91.1448 67.9774 91.1175 68.1674C90.7922 70.4497 90.7679 72.7616 90.7694 75.0631C90.9027 80.5874 90.8842 92.2663 82.6615 90.7789C81.9878 97.5347 79.6858 104.071 77.1272 110.325C75.6068 114.356 72.6584 118.034 72.5103 122.462C73.5285 122.477 73.1343 123.774 73.0088 124.399C72.6664 125.93 72.2206 127.436 71.7694 128.938C70.1795 134.323 69.2311 139.889 67.8697 145.336C67.796 145.598 67.6722 145.776 67.5141 145.897C67.4878 146.462 66.6308 146.79 66.1479 146.6C66.2159 147.287 66.1971 147.98 66.2065 148.668L66.2087 148.797L66.3568 148.796C67.002 148.63 67.6542 149.674 67.8362 150.212C68.4486 151.713 67.0284 152.815 66.9229 154.244C66.8265 155.603 66.6986 156.949 66.6403 158.311C68.412 159.003 67.6267 161.319 65.8925 161.296C65.9736 162.14 65.9846 162.992 66.0202 163.838C66.7751 164.036 67.3403 164.673 67.7117 165.337C69.237 165.441 70.6289 166.344 71.9875 166.983C74.0886 168.02 76.1555 169.129 78.1829 170.305C80.1562 171.621 84.5499 173.112 82.6296 176.154C83.113 176.571 82.7753 177.389 82.3348 177.73L82.3196 177.741C81.8819 178.084 81.3029 178.084 80.7649 178.028C74.5153 178.184 67.93 176.242 61.7155 174.974L61.0888 174.862C59.7782 174.624 58.4469 174.347 57.2846 173.709C56.7735 173.292 56.6482 172.276 57.1714 171.866C56.635 169.923 57.1188 166.513 59.2413 165.762C59.4938 164.321 60.6567 163.289 62.138 163.728C62.1454 162.806 62.2202 161.894 62.2368 160.972C61.5027 160.833 60.8257 160.548 60.4716 159.85C60.0823 159.155 60.5046 157.989 61.3887 158.028C61.4187 156.59 61.3374 155.178 61.3257 153.743L61.3245 153.657C61.3197 153.193 61.3385 152.68 61.1418 152.254C60.9397 151.814 60.4017 151.77 60.163 151.352C59.6397 150.229 60.6874 148.91 61.7672 148.608C61.9025 147.856 61.8326 147.059 61.9685 146.299C61.3933 146.266 60.9032 146.132 60.4868 145.805C60.1987 145.761 59.6897 145.89 59.657 145.475C59.54 143.786 58.6881 142.28 58.1517 140.705C57.0438 137.639 58.0492 134.437 58.4343 131.336C58.6159 129.753 58.4245 128.165 58.2626 126.58C50.952 138.038 41.5759 149.118 39.4093 162.941C39.2891 164.496 38.6541 165.777 39.7694 167.119C40.145 167.23 40.4627 168.984 40.6076 169.43C41.7504 170.488 40.7539 172.375 39.7603 173.194C39.2843 174.016 38.6478 174.737 38.0522 175.473L37.8604 175.795C36.5989 177.907 35.2515 180.025 33.5408 181.795C30.6624 183.928 25.8406 183.321 22.4518 182.937L22.1848 182.894C21.4704 182.775 20.6707 182.608 20.258 181.969C19.9055 181.424 19.9526 180.717 20.391 180.308C19.9559 179.055 20.9473 177.821 21.8796 177.052C25.493 173.845 28.608 170.075 31.0346 165.895C31.9646 159.136 32.9194 152.379 33.9534 145.635C34.7878 140.056 36.0589 134.468 38.7428 129.463L38.9823 129.007C40.2402 126.616 41.5009 124.267 42.214 121.637C43.692 116.128 43.338 110.363 43.1333 104.723C42.87 95.9228 42.2433 87.118 42.3249 78.3104C40.67 78.1367 36.1809 78.2421 35.4745 76.5404C35.243 74.9185 35.7858 73.267 35.9085 71.6466C35.559 71.4019 35.2178 71.1444 34.8857 70.8798C34.2702 71.3396 33.6349 71.7728 32.9822 72.1771C31.4209 73.3022 30.2133 73.4815 29.2474 71.6323C26.4511 67.2096 23.7543 62.7223 21.2093 58.1499C18.8487 53.7635 15.923 49.3863 15.3238 44.3359C14.4526 35.2485 25.1066 20.6997 30.4411 13.3158C33.7523 9.30651 38.045 5.03356 43.5407 4.79941L43.6109 4.79633C44.3337 4.76811 45.3419 4.82788 45.9283 4.35169C46.042 2.71131 47.7251 2.71845 48.9754 2.44789C49.2343 2.24953 49.6273 2.20211 49.9587 2.21921C50.4072 0.928805 50.5096 -0.498399 51.0689 -1.74655ZM35.6251 167.065C34.2533 166.35 32.6166 166.294 31.1729 166.859C29.3833 170.179 27.0917 173.209 24.4882 175.93C23.5381 177.258 19.9673 179.01 21.7482 180.802L22.1098 180.868C24.8042 181.356 27.5387 181.734 30.2831 181.512C32.1027 181.008 33.5718 179.659 34.7292 178.2C36.1666 176.335 37.3532 174.283 38.6675 172.331C39.8477 170.329 40.47 170.302 39.5445 167.924C39.543 167.97 39.5316 168.018 39.508 168.065C39.1813 168.725 38.1783 168.665 37.6121 168.416C36.8743 168.091 36.3378 167.441 35.6251 167.065ZM22.6623 181.417C22.6897 181.43 22.7178 181.443 22.7459 181.455C22.7664 181.455 22.7869 181.456 22.8074 181.457L22.6623 181.417ZM74.6844 169.467C72.6501 168.556 68.919 165.899 66.8409 166.304C65.3056 166.773 63.8901 167.616 62.2535 167.736L62.1831 167.739C61.0153 167.79 58.939 168.178 58.4997 166.804C57.9183 167.916 57.7274 169.291 57.7361 170.549C57.7119 171.62 58.2019 172.47 59.3401 172.555L60.3938 172.82C67.0702 174.499 73.8093 176.1 80.6897 176.596C82.4956 175.468 82.5403 173.982 80.6251 172.952C78.6912 171.715 76.7011 170.561 74.6844 169.467ZM35.3614 143.576C34.1656 151.065 33.3627 158.597 32.2049 166.09C36.2429 165.077 37.4368 168.707 38.9381 167.693C37.8851 166.308 38.0121 165.261 38.3234 163.649C38.9412 158.215 40.963 153.044 43.47 148.219C43.7558 147.667 44.0491 147.119 44.3462 146.574C41.1228 146.867 37.6529 145.947 35.3614 143.576ZM60.2596 164.932C59.9821 165.362 59.8731 165.881 59.7846 166.378C59.739 166.635 59.7641 167.013 59.6729 167.301C61.407 167.352 63.1517 166.949 64.714 166.204C63.4732 166.115 60.7419 166.325 60.2596 164.932ZM59.1813 166.039C59.0126 166.16 58.8667 166.299 58.7406 166.453C58.698 166.692 58.8219 166.954 59.0225 167.102C59.0628 166.751 59.1115 166.388 59.1813 166.039ZM62.5688 161.025C62.5742 162.108 62.6401 163.178 62.6281 164.26C62.6264 164.637 62.7378 165.111 62.508 165.43L62.873 165.468C63.7878 165.563 64.7207 165.643 65.6349 165.538C65.6644 164.128 65.6653 162.712 65.758 161.303C64.6307 161.296 63.6786 161.106 62.5688 161.025ZM66.062 165.342C66.0605 165.386 66.0597 165.431 66.0612 165.474C66.1927 165.449 66.3234 165.42 66.4526 165.385C66.3466 165.375 66.2375 165.393 66.1334 165.356C66.1094 165.353 66.0848 165.35 66.062 165.342ZM62.1243 165.174C62.0087 165.304 61.7834 165.328 61.641 165.241C61.6121 165.247 61.5833 165.251 61.5529 165.252L61.527 165.251L61.626 165.277C61.8324 165.328 61.9922 165.36 62.2041 165.39C62.1669 165.324 62.1418 165.251 62.1243 165.174ZM66.869 165.168C66.8424 165.217 66.8059 165.259 66.7611 165.292C66.812 165.276 66.8637 165.259 66.9138 165.24C66.9001 165.216 66.8849 165.191 66.869 165.168ZM60.891 164.871C60.9107 164.915 60.9533 164.984 61.002 165.02C60.9586 164.975 60.9207 164.925 60.891 164.871ZM66.0331 164.172C66.0339 164.199 66.0346 164.225 66.0362 164.25C66.0502 164.237 66.0663 164.222 66.0863 164.214C66.0681 164.2 66.0498 164.187 66.0331 164.172ZM61.3834 158.265C60.5334 158.541 60.8309 159.609 61.4746 159.959C62.1745 160.421 63.2314 160.349 64.0348 160.418C64.898 160.479 67.1616 160.951 66.7618 159.443C66.7011 159.334 66.6197 159.265 66.5301 159.209C66.5225 159.228 66.5141 159.246 66.5058 159.263C66.4707 160.317 62.9599 159.747 62.3539 159.345L62.3155 159.329C61.8052 159.109 61.3221 159.018 61.3834 158.265ZM62.4229 145.912C62.6072 146.738 62.5467 147.597 62.6631 148.425C62.736 148.665 62.6425 148.825 62.4928 148.908L62.6002 148.939C63.5308 149.206 64.4693 149.332 65.4381 149.114C65.3304 148.246 65.5719 147.263 65.6935 146.385C65.7132 146.285 65.7216 146.185 65.7436 146.094L62.4229 145.912ZM66.1106 146.114C66.1268 146.238 66.1248 146.373 66.1387 146.501C66.1418 146.497 66.1448 146.492 66.1494 146.489C66.271 146.384 66.3811 146.248 66.4974 146.131C66.3699 146.128 66.2392 146.121 66.1106 146.114ZM60.7497 53.1863L60.6699 53.2023C62.0594 60.166 63.153 67.2187 63.5316 74.3219L63.5367 74.4261C63.5743 75.1247 63.6687 75.8976 63.2041 76.4787C62.714 77.092 61.9503 77.1696 61.2261 77.2814C55.0994 78.2131 48.8853 78.5281 42.6919 78.3264C43.4074 87.8744 43.6724 97.4506 44.1266 107.014L44.147 107.515C44.3622 112.922 44.4128 118.476 42.6272 123.648C39.7732 130.061 36.2178 136.162 35.4093 143.303C38.0264 145.286 41.5378 146.505 44.7763 145.791C48.6258 138.579 53.7943 132.219 58.0726 125.288C66.0956 111.348 65.3028 94.4878 65.0992 79.0301C65.0706 78.9224 65.1786 78.8852 65.1722 79.0111C65.255 79.0035 65.3416 79.0423 65.3577 79.1373C65.8458 82.377 65.6718 85.6747 65.6511 88.9397C65.6435 91.3755 65.8118 93.9053 65.6327 96.2966C65.379 104.511 64.3533 112.838 61.2938 120.519C65.0789 121.367 67.4135 125.309 71.5726 122.683C71.5733 117.889 74.7544 113.912 76.4055 109.581C78.6345 104.36 80.3044 98.9082 81.4971 93.3599L81.6236 92.767C81.7788 92.0419 81.949 91.2899 82.2132 90.5935C81.8976 90.2093 82.1691 89.4684 82.1608 88.809C81.7104 88.8089 81.1326 88.6215 81.0778 88.1021L81.0756 88.0778C80.7445 84.4271 80.7166 80.6747 81.4001 77.0632L81.3037 77.0691C79.5938 77.1695 71.4148 77.5124 71.1927 76.136C70.888 73.8278 71.6243 71.5396 71.7748 69.2481C72.0449 64.0705 71.9797 58.8729 71.9442 53.6886C70.3032 53.9065 68.7275 53.5928 67.1038 53.5406C65.0432 53.3879 62.921 53.5267 60.8853 53.2082L60.7497 53.1863ZM86.3257 67.3549C86.2436 67.4515 86.1539 67.51 86.0628 67.5396C86.0635 69.7337 85.6213 71.8914 84.4093 73.7914C83.8772 74.4965 83.5912 75.309 83.3363 76.1458C83.4096 76.3733 83.3175 76.6354 83.1463 76.7653C82.0264 80.1743 81.9109 83.8242 82.3242 87.365C83.5837 85.5148 84.0835 83.307 84.4359 81.1299C84.4549 81.0206 84.6357 81.022 84.6555 81.1299C85.0735 83.4572 84.365 85.782 83.4503 87.9092C82.9426 88.338 83.0521 89.3135 82.9928 89.9208C92.2779 91.2759 89.049 73.4232 90.2383 67.9249C90.2603 67.7737 90.3887 67.6636 90.5346 67.6172C89.142 67.4043 87.7308 67.3887 86.3257 67.3549ZM48.7573 2.83937L48.5966 2.88001C46.903 3.30445 46.4529 3.31365 46.3453 5.30777C45.9235 8.12327 44.3668 10.5791 43.6669 13.3015C43.387 14.2629 43.6832 16.0348 45.0103 15.7746C45.4404 15.6423 45.7755 16.2229 45.4503 16.5307C44.489 17.4412 43.5559 18.3798 42.6175 19.3124C46.3859 32.05 51.2811 44.4567 57.2444 56.3266C57.4807 56.7978 56.7717 57.212 56.5369 56.7408C50.6087 44.8329 45.6783 32.4303 41.8516 19.6894L41.7359 19.3032C41.5669 18.8341 43.728 17.1531 44.1213 16.6045C40.1808 14.7035 45.6686 8.05084 45.8287 4.85177C44.6878 5.30048 43.4226 5.14559 42.2314 5.34045C39.9427 5.74242 37.9339 7.06656 36.1483 8.49582C28.8954 14.9094 24.2603 23.7891 19.6239 32.1586C16.4663 37.6195 14.9444 44.2947 18.1128 50.1038C21.7894 57.5515 26.0543 64.7303 30.5635 71.6992C31.0589 72.3434 31.8203 71.6037 32.3424 71.332C35.3414 69.5272 37.9419 67.0719 39.9419 64.2009C34.6978 57.6169 29.8191 50.4241 27.1006 42.4132C26.8833 40.4643 29.6115 38.206 30.6068 36.5126C32.8052 33.4774 34.8587 30.3356 36.8196 27.1434C36.7579 26.8279 36.8883 26.4808 37.2223 26.4906L37.4159 26.1672C38.9093 23.6793 39.0773 23.5857 37.5939 26.6265C38.3484 37.8757 38.2228 49.3426 38.5491 60.6624C39.4313 61.832 40.3393 62.9819 41.2687 64.1135C44.2833 62.033 47.8295 60.6762 51.4716 60.2558L51.6107 60.242C53.1455 60.0864 55.8049 59.73 56.012 61.7835C55.7612 64.2579 50.655 62.8668 49.0225 64.2701C51.6986 65.3502 54.7653 65.6546 57.2223 67.2828C58.0104 67.7433 59.5555 69.2104 58.046 69.7718C57.3874 69.8282 56.7072 69.572 56.0491 69.5156C56.7897 69.7656 57.471 70.1889 57.9047 70.8525C58.217 71.3077 58.445 72.2524 57.6988 72.4471C55.9977 72.4952 54.3036 71.9397 52.6281 71.6634L52.777 71.724C53.9984 72.2247 55.8969 73.1242 54.252 74.4505C52.605 75.3042 50.6112 73.8519 48.9709 73.4643C44.5523 72.4348 41.2838 75.2563 36.7542 72.2015C36.627 73.5469 36.2205 74.9311 36.3454 76.2776C37.4335 77.2976 40.8276 77.2638 42.3439 77.3991L42.3453 77.3885C42.3607 77.241 42.2874 76.5394 42.5141 76.842C42.5354 77.0313 42.5582 77.2197 42.5818 77.409C48.0955 77.5685 53.6308 77.3829 59.1036 76.6703L59.3348 76.6398C60.1752 76.5274 61.0536 76.4537 61.8788 76.2529C62.7226 76.1393 62.7244 75.2383 62.6347 74.575C61.4759 50.0802 51.5394 27.0474 48.7573 2.83937ZM64.3751 4.86249C64.5704 5.15357 64.7869 5.43089 65.021 5.69317C65.3806 5.13442 66.2592 4.81886 66.5074 5.65129C66.7881 6.50774 67.19 7.38827 67.2018 8.29541C72.9451 27.0552 73.0908 47.0033 72.979 66.4619C73.151 69.5484 72.1955 72.5696 72.2839 75.6389C75.4298 76.0927 78.6213 76.1315 81.7801 75.7956C81.8735 75.55 81.9792 75.3084 82.0989 75.0711C86.8275 69.295 84.3198 62.0565 82.043 55.7999C80.6662 55.8582 79.2813 55.7708 77.9032 55.7877C78.329 57.1082 78.4387 58.5052 78.6653 59.8705C78.8196 60.8434 79.0166 61.8087 79.2428 62.7669L79.3036 63.0223C79.3889 63.3756 79.5021 63.7571 79.3781 64.1075C79.2565 64.4533 78.8371 64.5931 78.5589 64.3241C78.0575 63.7513 78.1113 62.8979 77.9495 62.1877L77.9094 61.8896C77.6349 59.8737 77.2864 57.7854 77.7846 55.787C77.2895 55.6804 75.936 56.0716 75.865 55.4047C75.8859 54.3032 75.0885 51.9167 75.9761 51.1913C76.5042 50.7877 77.4123 50.9155 78.0316 50.8904C78.7474 50.8615 79.4625 50.8348 80.1775 50.8394C74.4311 36.925 76.0291 32.6419 76.6123 18.7941L76.6296 18.3715C76.6281 18.2803 76.7748 18.2575 76.7907 18.3494C77.6694 24.0216 76.4982 29.7645 77.053 35.4547C78.0384 46.266 84.8757 55.5483 86.0187 66.3076C88.4843 66.0211 90.9777 66.3726 93.3675 66.9925C93.4176 66.5555 93.4564 66.1169 93.4837 65.6784C93.9372 57.6475 91.1249 49.8479 87.8434 42.645C85.8769 38.8217 84.6612 34.7411 84.1524 30.4745C83.1646 24.9172 80.9478 19.6824 78.7381 14.52C77.3413 10.6601 74.3216 9.7499 70.5772 9.30157C71.8401 11.3992 73.0954 13.5014 74.3485 15.6051C74.628 16.2413 73.771 16.6954 73.3971 17.0871C77.997 19.6006 75.3112 27.3625 75.4063 31.7117C75.0648 35.7082 74.936 39.7275 74.334 43.6962C74.29 43.9713 73.869 43.8907 73.865 43.6331C73.9207 37.6864 74.6283 31.7639 74.9389 25.827L74.9843 25.305C75.2233 22.4982 75.4203 18.5201 72.0825 17.7566C71.6273 17.6822 71.5924 17.0042 71.9579 16.8006C72.4442 16.5292 72.8705 16.1978 73.252 15.8034C71.3276 12.7075 69.6495 9.44597 67.6243 6.41752C66.1847 4.56981 66.3197 5.22136 64.3751 4.86249ZM55.0795 61.6328C54.7074 60.5346 51.0959 61.2498 50.1319 61.3692C46.5772 62.0418 42.9997 63.618 40.2922 66.0455C40.1251 66.1952 39.9275 66.1929 39.7717 66.1116C38.559 67.6638 37.1586 69.0706 35.6228 70.3068C35.9039 70.5287 36.1927 70.7438 36.4898 70.9497C36.6319 70.9649 36.7603 71.0387 36.8181 71.1709C41.0438 74.2389 44.1525 71.8458 48.5422 72.3984C50.1813 72.7296 51.6906 73.7741 53.3795 73.818C54.6191 73.5356 53.5277 73.0165 52.9488 72.8155C51.5506 72.1468 50.1233 71.541 48.6946 70.9407L47.891 70.6032C47.3644 70.382 47.5453 69.5848 48.1334 69.7239C49.1631 69.9671 50.1957 70.1981 51.2292 70.4254C53.2165 70.8316 55.2514 71.3527 57.2596 71.5502C56.8131 70.3069 52.0766 68.9642 50.6995 68.47C50.1793 68.2238 48.6959 68.2707 48.8652 67.4628C49.002 66.7111 50.5805 67.5719 51.1068 67.6331C53.2552 68.1792 55.4481 68.5101 57.6372 68.843C55.2859 66.4793 51.641 66.2754 48.638 65.1684L48.5555 65.1496C48.0214 65.025 47.2899 64.7902 47.724 64.1821C49.2669 61.9028 55.3378 63.0562 55.0795 61.6328ZM50.6365 48.9416C51.7318 48.0413 52.3184 49.8907 52.2489 50.7505C52.3006 51.4642 52.3561 52.1777 52.4025 52.8914C52.3346 53.4494 52.9281 55.4835 52.1342 55.502C48.6643 55.3255 45.2002 55.3701 41.7292 55.1607C41.7246 55.8623 41.6904 56.5629 41.7262 57.2652C41.7073 58.1433 42.0118 59.0205 41.834 59.8887C41.7254 60.2877 41.1836 60.3416 40.9722 60.0012C40.3381 58.5067 40.7739 56.5789 41.2231 55.0673C38.6147 54.4174 39.8585 52.2741 39.8652 50.4366C39.8614 50.3879 39.91 50.3628 39.9496 50.372C40.5995 51.2811 39.7531 52.495 40.1243 53.4835C40.4963 54.5318 42.0393 54.4702 42.9716 54.4824L43.0848 54.4844C45.9507 54.5337 48.8147 54.652 51.6805 54.7078C51.5582 53.7411 51.5248 52.7501 51.4511 51.7841C51.3583 51.0895 51.4922 50.2663 51.1395 49.6439C49.546 50.1629 47.8868 50.3697 46.2117 50.3371C44.2146 50.3911 42.1156 50.571 40.1631 50.3324C42.9617 49.8992 46.054 49.9626 48.9062 49.4128C49.4731 49.2659 50.0518 48.9695 50.6365 48.9416ZM36.8599 28.0721C35.133 31.3733 33.1482 34.5143 31.0339 37.5728C30.581 38.2257 30.1159 38.8702 29.6435 39.5101L29.5852 39.5849C28.6322 40.8032 27.6219 41.804 28.5232 43.4149C30.861 49.1038 33.991 54.4464 37.6175 59.4046C37.3876 48.9602 37.1846 38.513 36.8599 28.0721ZM80.2413 51.0066C75.9058 51.9169 75.8247 50.2121 76.5483 55.0369C78.2871 55.0488 80.0249 55.0095 81.7641 55.0376C81.2672 53.6902 80.752 52.3487 80.2413 51.0066ZM65.7938 5.74097C65.6123 5.73824 65.3343 5.84509 65.1494 5.83369C65.5053 6.21419 65.8972 6.55997 66.3097 6.8649L66.3826 6.91819L66.3495 6.85478C66.1749 6.51269 66.0301 6.11899 65.8316 5.7999L65.7938 5.74097Z" fill="black"/>
</g>
<defs>
<clipPath id="clip0_43_32">
<rect width="125" height="190" fill="white"/>
</clipPath>
</defs>
</svg>
