<svg width="125" height="189" viewBox="0 0 125 189" fill="none" xmlns="http://www.w3.org/2000/svg">
<g clip-path="url(#clip0_43_108)">
<path fill-rule="evenodd" clip-rule="evenodd" d="M39.9839 76.7386C39.9129 77.0888 39.8059 77.4679 39.6945 77.8078C40.2495 78.3392 41.0351 79.0515 41.5988 79.5662C41.0412 76.1396 42.7377 72.9771 43.776 69.7359C43.3844 69.2362 42.0204 68.7249 42.0643 68.1709C42.1696 66.1186 42.3249 63.828 42.5488 61.2587C43.307 53.235 44.0613 44.8675 42.2719 36.8194C42.1497 35.9446 41.9642 35.0247 40.7849 35.0044C37.3017 48.7966 40.1241 62.6831 40.0473 76.5624L40.1487 76.6527L39.9839 76.7386ZM34.7678 189.744C31.9058 189.744 29.2748 189.227 26.7276 188.179C25.9926 187.922 25.0795 187.602 24.9522 187.085C24.7428 185.668 24.8877 184.275 25.0412 182.801C25.2838 180.273 25.2596 178.307 25.9455 175.585C26.6795 173.056 27.3051 171.08 26.5888 168.465C26.5314 167.687 27.1432 166.895 27.5474 166.167C28.1196 165.105 28.4099 163.999 28.8644 162.909C27.9716 162.754 27.0444 162.541 26.1872 162.277L26.0433 162.793C26.0117 162.906 25.9245 162.963 25.7844 162.963C25.6977 162.963 25.4759 162.922 25.4435 162.737C25.578 160.746 25.7729 158.766 25.9775 156.743C28.1023 137.258 31.3197 121.196 36.7227 105.177C38.0204 101.426 39.346 97.5201 39.3554 93.4439C38.6177 93.2865 37.796 93.1961 37.044 93.2996C31.6862 92.0644 32.7453 80.7886 32.9585 77.414C32.5806 77.301 32.1577 77.1413 31.8442 76.9272L31.7174 76.9889C26.3972 63.8525 28.582 42.1335 29.7989 27.5324C30.5974 22.284 29.4743 12.8035 34.1517 10.2099C37.9283 8.87938 41.6882 8.13155 45.6346 7.25406C46.3655 6.83667 47.2675 6.59846 48.083 6.32834L47.6617 5.73911C47.1092 4.96459 47.1827 3.44548 47.9054 2.91167C48.3495 2.93617 48.9736 3.38001 49.3981 3.58844C50.0086 2.33242 50.5738 1.01865 50.9795 -0.490555L51.1253 -0.438618C51.5521 -4.70745 57.1157 -5.45249 60.2526 -4.02599C63.677 -2.1558 61.8935 2.07493 63.4504 5.12902L64.0147 4.38065C64.8861 4.36463 66.7294 5.5012 67.1732 5.92781C67.491 6.07515 67.2611 7.06695 67.3074 7.46589C71.9013 8.5007 78.1893 8.78481 79.6496 13.9146C82.0789 23.5606 81.7374 33.4495 84.4938 43.0613C87.3795 50.8526 91.6177 60.3862 91.6533 67.5215C91.7356 68.8588 91.9165 76.4222 90.8039 76.1182L90.0696 76.8471C91.07 78.4357 90.2757 80.8133 89.8925 82.6943C88.9483 86.6855 87.1032 90.986 83.1621 89.0733C78.9232 112.359 68.2696 135.849 71.9038 159.866C71.9474 160.007 71.8592 160.161 71.7079 160.099L71.5289 160.017C71.0667 160.16 70.4801 160.209 69.9974 160.317C70.4082 161.848 70.6285 163.36 70.8417 165.054C71.1003 165.208 70.9796 165.613 70.9928 165.859C74.8493 165.675 77.0122 169.692 79.7779 171.902C81.6041 173.523 83.6838 175.066 85.9597 176.489C87.8404 177.552 89.4272 178.769 89.1415 180.777C89.1687 180.774 89.749 180.685 89.7774 180.682C90.6523 183.578 87.7797 184.177 84.8213 184.526C77.592 185.249 71.4121 183.651 63.0423 180.623C62.0158 180.744 61.2158 179.226 61.0792 178.196C60.944 177.506 61.3283 176.805 61.035 176.062C60.0257 173.928 59.5004 168.281 60.9233 165.747C61.4228 165.172 62.0633 164.642 61.9803 163.651C61.957 162.658 61.8631 161.666 61.9476 160.691C60.2373 160.526 58.5442 160.159 57.0521 159.565C56.788 159.666 56.488 159.541 56.4695 159.212C56.1832 154.672 55.8405 149.711 55.7664 145.063C55.4225 134.948 57.7477 125.078 59.5272 115.267C59.6507 112.12 60.2346 109.08 60.4187 105.931C60.6167 102.945 60.6516 100.022 60.8239 97.0399L59.797 96.8181C51.2715 118.685 44.5951 140.57 39.9222 161.985C40.0279 162.075 40.3282 162.176 40.3155 162.358C40.312 162.456 40.3143 162.462 40.2473 162.472C39.1184 162.698 38.0011 162.863 36.8823 162.992C37.1977 165.664 35.515 168.753 37.0042 171.256C37.3997 171.859 37.4168 171.985 37.1744 172.4C39.344 176.417 40.6887 179.76 41.5601 183.352L42.1216 182.879C42.9355 183.468 42.9524 184.579 42.9702 185.753C42.9123 186.437 43.248 187.154 42.7337 187.73C41.4956 189.169 37.1808 189.736 34.7678 189.744Z" fill="white"/>
<path fill-rule="evenodd" clip-rule="evenodd" d="M90.0117 78.7339C89.1608 81.5804 88.3799 85.7955 86.2131 87.8913C85.5139 88.4449 84.6614 88.2029 83.8605 88.0652C84.4098 84.7537 84.8126 81.4134 85.1629 78.0746C86.8688 77.7262 88.5132 77.1236 90.0406 76.292C90.454 76.9814 90.1956 78.03 90.0117 78.7339ZM83.4471 81.212C80.5672 107.396 67.2284 132.497 70.9699 159.268C66.4833 160.03 61.9195 160.347 57.378 159.953C57.9249 151.684 56.1576 142.631 57.4282 134.104C58.2404 126.11 60.3567 118.304 61.0854 110.301C61.4095 105.877 61.8134 101.258 60.7579 96.9127C60.7495 96.8908 60.7404 96.8688 60.7313 96.8469C61.4542 96.1798 62.1373 95.4507 62.7397 94.6704C63.2533 93.9952 62.1348 93.0956 61.5649 93.6747C62.3511 91.6085 63.1066 89.5327 63.8392 87.4476C52.5074 110.199 45.2487 136.698 39.1371 161.845C35.0265 162.777 30.7953 162.754 26.6067 162.642C27.754 143.716 31.5651 125.068 36.7345 106.848C37.8911 102.635 39.3183 98.3504 39.0634 93.9256C40.4128 94.1348 42.2587 93.3865 42.9859 92.2383C43.6477 92.7501 44.4593 92.1219 44.8081 91.5253C45.6136 89.961 45.1687 88.0505 44.7017 86.4473C46.347 86.7047 48.4071 85.1867 47.2814 83.4906C45.542 81.9724 43.5568 80.6792 41.8514 79.0793C41.7055 76.0795 42.8739 73.2799 43.935 70.4655C49.2966 74.225 54.5532 78.2702 60.1833 81.5887C61.1514 81.6868 61.9333 80.9581 62.6599 80.4258C64.7336 78.8949 66.8263 77.3844 68.8696 75.812C69.0938 75.8943 69.3514 75.874 69.5421 75.7469C70.847 77.1373 72.2261 78.4214 73.517 79.8188C74.2925 80.5317 74.8527 81.6448 75.9349 81.9182C76.441 82.0104 76.7632 81.8018 77.0877 81.4525C79.0567 79.3795 81.1751 77.4546 83.2153 75.4529C83.3764 75.6524 83.7154 75.7424 83.9638 75.5837C83.938 77.463 83.6682 79.3439 83.4471 81.212ZM69.8536 165.651C67.9712 166.192 67.6729 169.117 65.4563 168.832C64.021 168.531 62.8635 167.293 62.4957 165.903C62.6059 165.833 62.6804 165.712 62.669 165.536C62.5748 164.11 62.4798 162.683 62.3856 161.257C64.8796 161.394 67.384 161.198 69.8612 160.858C69.7716 161.536 69.7359 162.219 69.7161 162.909C69.7515 163.786 69.4932 164.845 69.8536 165.651ZM61.5383 165.009C61.5999 164.921 61.6561 164.829 61.704 164.731C61.7116 164.844 61.7192 164.958 61.726 165.071C61.6667 165.035 61.6037 165.015 61.5383 165.009ZM74.1234 167.318C75.403 168.185 76.4 169.421 77.4897 170.499C79.8072 172.795 82.3773 174.838 85.1287 176.596C86.5615 177.482 89.5892 178.822 88.3902 180.902C87.4962 182.212 85.1524 181.601 84.783 182.336C79.684 182.545 74.696 181.157 69.8491 179.737C67.3886 178.937 64.8142 178.471 62.4289 177.454C60.1426 175.461 60.1354 171.079 60.45 168.269C60.5748 167.605 60.7603 164.883 61.7366 165.226C61.7382 165.498 61.7663 165.864 62.0619 165.941C62.0664 165.962 62.0702 165.984 62.0755 166.005C62.0193 165.987 61.9448 166.028 61.9722 166.095C62.7077 168.274 65.1324 170.727 67.4996 169.2C68.5512 168.463 69.0117 167.038 70.2655 166.576C71.5793 166.092 73.0178 166.569 74.1234 167.318ZM89.5694 180.763C89.6021 180.779 89.6363 180.786 89.6713 180.787C89.7716 181.043 89.7222 182.084 89.7032 182.263C89.3941 183.829 86.915 184.089 85.6007 184.326C80.9827 185.05 76.2859 184.544 71.7807 183.389C69.5816 182.847 67.3947 182.22 65.2602 181.465C63.3637 180.891 61.0178 179.937 61.2533 177.544C62.3097 178.963 65.6907 179.383 67.387 179.97C72.7177 181.581 78.1261 183.314 83.7518 183.37C84.6041 183.333 85.7819 183.57 86.4213 182.931C87.7769 182.738 89.1834 181.991 89.5694 180.763ZM36.3111 165.328C35.8747 166.701 35.3726 168.109 35.359 169.561C32.817 168.058 29.6284 169.517 27.5216 171.163C27.6688 170.136 27.0321 169.168 27.2053 168.158C27.8489 166.635 28.7115 165.09 28.4053 163.368C31.2261 163.847 34.0916 163.818 36.922 163.524C36.7002 164.118 36.5087 164.723 36.3111 165.328ZM37.2837 173.677C37.785 174.655 38.1361 175.952 39.0968 176.569C39.6329 178.541 40.2357 180.496 40.7017 182.486C40.8869 183.433 41.167 184.413 41.0284 185.389C40.8084 185.449 40.6543 185.496 40.5322 185.654C35.872 186.642 30.7494 186.797 26.4418 184.503C24.9968 181.288 26.131 177.524 26.6232 174.195C26.6529 173.105 27.385 172.722 27.4722 171.683C29.7825 170.36 33.3809 168.625 35.5717 170.998C35.8759 171.672 36.0806 172.601 36.8628 172.856C37.0087 173.128 37.1477 173.402 37.2837 173.677ZM41.1021 185.392C41.1014 185.393 41.1006 185.395 41.0983 185.397C41.0915 185.396 41.0915 185.394 41.1021 185.392ZM42.5512 185.991C42.5398 185.789 42.4388 185.588 42.2731 185.468C42.3514 184.725 42.2032 183.956 42.0451 183.23C42.8278 184.078 42.4938 185.421 42.6227 186.477C42.6124 186.899 42.8176 187.435 42.3255 187.652C40.7891 188.709 38.9266 189.202 37.0907 189.414C33.0854 189.871 28.9216 189.138 25.343 187.286C24.8571 186.629 25.0252 184.945 24.9692 184.097C25.2992 186.82 31.9729 187.572 34.2427 187.596C35.5052 187.604 42.5379 187.344 42.5512 185.991ZM38.3195 92.2239C37.7868 92.171 37.2571 92.208 36.7298 92.2836C33.6085 90.1732 33.1164 81.5182 32.6264 77.8645C34.86 78.4323 37.2258 78.2793 39.3939 77.5319C39.4348 77.9301 39.8917 78.1353 40.1698 77.8667C41.64 80.4707 43.8401 82.5558 46.1097 84.4198C46.0831 84.3328 46.0641 84.4924 46.0976 84.4318C45.8085 85.091 44.747 84.7491 44.245 85.2084C43.9228 85.4472 43.8552 85.8652 44.0603 86.1442C43.5173 87.6373 44.3806 89.4603 43.5679 90.8767C43.3853 91.0876 43.1476 91.2394 42.9904 91.4763C41.9087 90.7389 40.9232 92.2984 39.8278 92.3669C39.8354 92.3669 39.843 92.3669 39.8514 92.366C39.6828 92.3847 39.4122 92.3755 39.264 92.3548C38.9498 92.3062 38.6363 92.2553 38.3195 92.2239ZM40.3316 40.0517C40.5611 38.5631 40.8286 37.0835 41.1758 35.6184C41.5945 35.691 41.688 36.6451 41.7412 36.9263C43.5337 44.9957 42.7575 53.3001 41.9896 61.4449C41.8035 63.629 41.65 65.8169 41.5299 68.0063C41.3749 69.0131 42.5388 69.3547 43.1599 69.906C42.2959 72.6738 40.805 75.3516 40.9813 78.2992C40.7496 78.0874 40.5201 77.8735 40.2921 77.6581C40.3499 77.4728 40.3992 77.2876 40.441 77.1009C40.7247 76.9541 40.8148 76.5482 40.5717 76.3344C40.6651 64.2648 38.3887 52.0923 40.3316 40.0517ZM62.6368 17.2575C63.0676 16.4946 64.2081 17.486 63.4916 18.0392C62.9928 18.4411 62.3015 17.7811 62.6368 17.2575ZM64.7455 26.1317C65.2056 25.5362 66.1286 26.2257 65.7265 26.8412C65.2566 27.812 64.316 26.8531 64.7455 26.1317ZM66.2226 33.9092C67.1443 33.9117 66.9331 35.4658 66.063 35.2526C65.3222 35.0782 65.4442 33.8948 66.2226 33.9092ZM66.978 43.2798C67.1914 42.5604 68.2828 42.7504 68.2751 43.49C68.2474 44.4885 66.7618 44.1871 66.978 43.2798ZM68.7667 52.3156C69.0701 51.4118 70.2359 51.8795 70.1382 52.7547C70.2653 53.2603 69.2806 54.2803 69.0813 53.454C68.8153 53.1351 68.69 52.7253 68.7667 52.3156ZM70.598 62.7369C70.6003 62.7339 70.6026 62.7309 70.6049 62.7279C71.2533 63.0316 70.6921 64.4142 70.0669 63.9066C69.4603 63.5381 69.8801 62.3699 70.598 62.7369ZM71.4514 71.1974C72.2079 71.9375 71.0379 73.1087 70.2917 72.3509C69.5343 71.6125 70.7036 70.4411 71.4514 71.1974ZM90.1872 76.2126C90.1971 76.2345 90.2078 76.2564 90.2199 76.2769C90.2002 76.2602 90.1804 76.2436 90.1606 76.227C90.169 76.2224 90.1781 76.2179 90.1872 76.2126ZM90.7959 59.0129C89.561 54.1718 87.5742 49.5642 85.64 44.9709C83.5499 38.8721 82.9371 32.4126 82.1903 26.0483C81.7795 22.4576 81.3353 18.8716 80.5041 15.3485C79.7976 8.781 73.0935 8.06499 67.8362 7.04696C67.8435 6.48616 68.0169 5.84825 67.4516 5.4896C66.9327 4.96517 64.1622 3.3353 63.615 4.02523C63.4002 3.50525 63.2951 2.92827 63.1933 2.37329C63.1249 2.15428 63.0967 1.39889 62.8575 1.40486C62.8063 2.88352 62.1758 5.0481 63.441 6.15866C62.6816 7.31028 62.0484 8.70563 61.0474 9.62265C61.0482 9.62182 61.0489 9.62114 61.0497 9.62039C60.9995 9.65282 60.9486 9.6823 60.8962 9.71027C60.9084 9.70045 60.8362 9.72698 60.7769 9.74588C60.6409 9.77166 60.4159 9.72214 60.2769 9.65962H60.2784C56.8318 7.71066 53.4591 5.62341 50.1226 3.48537C50.5995 2.7835 51.2168 -0.65698 50.625 -1.13379C50.2112 0.223458 49.7803 1.58524 49.1523 2.86243C48.6082 2.56698 47.7278 2.03567 47.2693 2.73013C46.691 3.69509 46.5259 5.09414 47.2199 6.0535C44.2372 7.22288 41.0206 7.63233 37.941 8.54619C36.5991 8.8885 35.1781 9.14327 33.919 9.73681C30.1669 11.8079 30.1638 16.9108 29.7524 20.6692C28.6964 38.9634 25.3472 57.8753 30.5921 75.8218C30.7936 76.3729 31.0915 76.9021 31.3233 77.4441C31.4152 77.6588 31.6538 77.652 31.8111 77.5356C31.9889 77.6407 32.1842 77.7246 32.3886 77.7927C32.0451 82.4582 31.5799 90.9827 36.1065 93.7648C36.4593 93.9303 36.7754 93.8728 37.1044 93.832C37.6328 93.7635 38.2584 93.7866 38.805 93.8887C38.1448 102.544 33.7646 110.452 32.0685 118.933C28.4329 133.273 26.0842 147.931 24.9023 162.671C24.8598 163.585 26.2988 163.838 26.5474 162.942C27.0672 163.091 27.5945 163.216 28.1287 163.317C27.8498 164.04 27.6192 164.77 27.2974 165.475C26.9464 166.271 26.3073 167.004 26.1067 167.856C25.8666 169.222 26.76 170.499 26.2646 171.865C26.1707 173.392 25.4729 174.83 25.2306 176.343C24.8521 178.217 24.5649 180.158 24.6637 182.074C24.2722 183.475 24.2906 184.928 24.3452 186.348C24.3742 186.815 24.3499 187.405 24.7055 187.764C25.4901 188.389 26.5392 188.654 27.4546 189.045C32.3901 190.653 38.537 191.104 43.065 188.199C43.9271 187.519 43.3882 185.842 43.4549 184.847C43.4856 184.088 42.8937 181.987 41.8552 182.411C40.946 178.904 39.4685 175.582 37.764 172.398C38.0363 171.92 37.7383 171.45 37.4737 171.047C36.1622 169.039 37.5779 165.835 37.4213 163.466C38.4 163.348 39.3749 163.19 40.343 162.998C41.0049 162.867 40.9562 162.048 40.5117 161.748C45.3449 139.69 52.0791 118.06 60.2845 97.017C60.1688 99.3083 60.0733 101.598 59.9966 103.893C59.8941 107.702 59.1652 111.455 58.9872 115.255C57.1779 125.112 54.8802 134.988 55.2261 145.08C55.3043 149.805 55.6318 154.526 55.9296 159.241C55.9548 159.783 56.4422 160.242 57.0018 160.123C58.403 160.66 59.884 160.997 61.3818 161.167C61.2296 162.891 62.0147 164.131 60.498 165.425C59.171 167.487 59.4848 171.704 59.8359 174.098C59.9927 174.861 60.2625 175.559 60.5398 176.283C60.7495 176.939 60.3898 177.594 60.5429 178.268C60.6932 179.489 61.6979 181.34 63.1036 181.155C71.1246 184.177 80.417 186.917 88.8536 184.103C89.4403 183.813 90.052 183.437 90.2625 182.784C90.4422 182.202 90.6848 179.998 89.6713 180.169C89.5595 177.182 86.0763 176.241 84.0908 174.635C81.3172 172.74 78.8699 170.438 76.5521 168.024C75.2154 166.655 73.5369 165.366 71.5307 165.359C71.5366 165.148 71.4714 164.962 71.3385 164.816L71.3377 164.815C71.1622 163.459 70.9729 162.069 70.6409 160.74C70.9188 160.688 71.2057 160.665 71.4767 160.588C72.0165 160.829 72.5447 160.343 72.4212 159.793C71.5067 154.005 71.4954 148.111 72.0338 142.287C73.692 124.368 80.2507 107.4 83.5619 89.7881C87.953 91.3484 89.5852 86.057 90.403 82.8193C90.7974 80.8464 91.648 78.4185 90.5117 76.5733C93.835 77.8913 91.6256 60.8032 90.7959 59.0129Z" fill="black"/>
</g>
<defs>
<clipPath id="clip0_43_108">
<rect width="125" height="189" fill="white"/>
</clipPath>
</defs>
</svg>
