<svg width="125" height="190" viewBox="0 0 125 190" fill="none" xmlns="http://www.w3.org/2000/svg">
<g clip-path="url(#clip0_43_52)">
<path fill-rule="evenodd" clip-rule="evenodd" d="M87.6547 182.223C88.1135 180.368 87.4385 178.889 85.5007 177.797C85.3339 177.356 81.5886 175.925 78.6126 173.825C75.9389 171.938 73.9996 169.347 73.9182 169.204C73.5175 168.271 73.2942 167.594 73.2485 167.173C72.9199 164.145 73.11 162.161 72.907 161.219C74.2745 161.039 77.6363 72.2116 77.0926 69.2676C77.9831 69.0718 78.9275 68.8654 79.7765 68.3632C79.8442 68.3457 79.7328 68.1489 79.736 68.1119C81.8658 63.9298 78.5986 49.7092 76.5509 45.772C78.1771 45.7297 80.3189 45.5084 81.3257 44.1503C81.8023 43.9935 82.1027 43.7201 82.334 43.281C82.6004 42.8626 82.8476 42.4237 83.0701 41.9738C84.1536 39.7226 84.822 37.2228 84.4607 34.7424C84.5296 34.7206 84.8842 34.7183 84.9018 34.6191C84.9366 34.0093 84.8247 33.472 84.6416 32.8961C82.781 26.4091 80.5413 20.0225 77.5809 13.9154C76.0974 10.6466 73.028 9.45384 69.8478 8.22672C68.3179 7.62543 66.7872 6.93149 65.1905 6.53769C65.1704 6.42595 65.2657 6.086 65.0565 6.11371C64.798 6.16763 64.849 6.58327 64.7532 6.81652C61.061 3.79336 63.4024 2.23553 61.1761 0.579842C58.8725 -0.616188 56.0631 -0.664774 53.5232 -0.405924C52.5862 -0.378814 51.8364 0.0436672 51.6154 0.98708C50.81 2.93909 48.9227 4.3758 46.8637 4.81622C46.6935 4.51329 46.2258 3.64452 45.9638 3.91877C42.9901 4.0203 38.4815 5.11217 35.6983 5.92905C32.9042 6.64282 30.0776 7.94586 29.3466 10.9825C28.0202 16.3937 30.1304 38.632 33.5916 42.9148L33.7042 42.9166C34.3178 43.5447 35.1518 44.0051 36.097 44.3137C36.0758 46.3159 35.4448 48.2706 35.1309 50.2287C34.4239 53.7799 33.8806 57.3348 33.0932 60.9049C33.0897 61.3027 31.5914 66.7457 33.0685 65.6543C33.3734 65.8043 33.7469 65.9676 34.0752 66.1078C32.5059 69.6851 31.7878 75.457 31.8991 79.8764C31.9269 82.508 31.8181 84.8135 31.2279 87.5086C26.8614 110.344 23.0116 161.418 22.9211 162.101C22.8378 162.754 23.3904 166.296 22.9211 167.231C22.5045 168.06 20.728 167.57 20.3881 167.89C19.5055 169.328 19.9096 170.244 19.1857 171.679C18.8144 172.012 17.9843 172.739 17.712 173.25C17.1607 173.781 8.03032 179.773 8.40038 180.683C8.40038 180.683 8.35874 181.119 8.34476 181.214C7.56634 185.744 8.86254 185.706 13.0563 186.373C19.1826 187.454 23.7612 185.374 28.9387 182.596C30.6592 181.435 33.1046 179.219 32.3087 176.595C32.2867 176.435 31.8146 173.674 31.6273 172.273C31.9656 171.524 31.4801 171.197 30.1709 171.29C30.4939 170.936 31.2033 166.342 30.9613 165.734C30.8076 164.169 31.0463 162.749 30.9708 161.138C31.7934 161.199 46.2362 92.7107 55.2953 88.4547C55.3513 88.9096 55.2426 89.7564 55.8463 89.8412C58.6483 111.707 65.3854 160.691 65.6948 160.776C65.2305 163.273 65.2445 169.062 65.2359 171.541C65.1648 171.607 64.8387 171.898 64.7862 171.969C64.7752 171.951 64.5628 172.163 64.552 172.168L64.5233 172.102C63.569 174.255 62.1782 176.471 63.4075 178.581C62.4951 178.514 62.6416 180.27 62.6008 181.078C63.1204 182.66 77.8926 186.926 81.1936 187.129C82.2782 187.318 87.3294 185.711 88.3014 185.48C89.5609 185.245 88.3253 182.903 87.6547 182.223Z" fill="white"/>
<path fill-rule="evenodd" clip-rule="evenodd" d="M52.23 0.455339C52.7081 0.44074 52.7994 1.0425 52.4726 1.292L52.4591 1.30192C52.1805 1.4996 52.0498 1.67637 51.8986 1.99177C51.1612 3.94353 49.0821 5.06293 47.0486 4.64843C47.7549 5.96627 48.2292 7.2417 48.9362 8.53727C52.1919 15.2451 62.8837 17.4273 64.1624 8.2237C62.2033 7.84507 61.0422 3.43859 62.2993 2.12394L62.3333 2.28394C62.6956 4.00988 62.9435 5.77685 64.2516 7.07823C64.2914 7.08985 64.3295 7.09343 64.367 7.09343C64.4169 6.85714 64.4743 6.62344 64.5458 6.39423C64.7199 5.83494 65.5913 5.94013 65.5668 6.54516C68.1757 7.34027 70.6828 8.46652 73.1782 9.55453C75.2528 10.4597 76.9491 12.0788 77.9155 14.1291C80.625 19.7375 82.6938 25.6578 84.4976 31.6135C84.6185 32.4183 85.9672 35.4095 84.879 35.6971C85.146 38.1612 84.4633 40.6536 83.4086 42.8663C82.9192 43.6977 82.5738 44.8503 81.5906 45.197C80.5699 46.4794 78.7034 46.8121 77.1495 46.9027C79.2394 51.8237 82.0792 64.3585 80.1588 69.2484C80.3293 70.0506 78.1164 70.4316 77.5243 70.6149C78.0015 73.4672 77.8974 76.4053 77.6916 79.2781C75.7645 103.781 75.3988 128.419 77.4263 152.929C77.5456 154.457 77.6741 155.984 77.81 157.511L77.8923 158.427C78.0002 159.646 78.0919 160.86 78.0638 162.089C78.0548 162.515 77.7014 162.771 77.348 162.793C76.1613 163.55 74.5674 163.557 73.1945 163.739C73.437 165.063 73.5729 167.128 73.9973 168.242C74.8807 168.011 75.4501 168.835 74.5696 169.3C75.6534 169.902 76.211 171.053 77.0786 171.862C79.4619 170.893 79.9056 172.34 77.9581 172.67C78.4876 173.112 79.0497 173.52 79.6308 173.908L79.6721 173.902C80.3591 173.798 81.6544 173.23 81.9796 173.982C82.1256 174.527 81.4532 174.7 80.9661 174.767C81.3983 175.039 81.832 175.31 82.2657 175.581C82.6453 175.414 83.0217 175.205 83.4087 175.071C84.3615 174.859 84.4437 176.096 83.2004 176.166C83.9793 176.741 85.0543 176.409 85.5521 177.222C87.3737 177.957 88.2347 180.179 87.8096 181.954C88.4491 182.523 88.8982 183.376 88.9501 184.233C89.0733 185.151 88.3429 186.014 87.3534 186.256C86.2389 186.627 85.1082 186.966 83.9806 187.284L83.8625 187.325C82.9331 187.642 81.9183 187.925 80.9517 187.87C75.22 187.528 67.5767 185.173 62.989 182.243C61.8448 181.383 61.6447 179.255 63.2195 178.575C62.4938 177.259 62.8405 176.303 63.1481 174.87C63.3617 173.935 63.6517 172.976 64.1767 172.111C64.2233 172.034 64.3353 172.058 64.3416 172.133C64.4103 173.111 64.3191 174.112 64.2462 175.096L64.2382 175.206C64.173 176.114 64.0259 176.448 64.2722 177.308C64.8618 179.501 70.5457 180.597 72.7793 181.502C74.5327 182.045 76.3128 182.531 78.118 182.959L78.2504 182.988C79.7743 183.323 81.3433 183.831 82.9483 183.567C83.7807 182.962 85.0299 183.132 85.8478 182.439C87.0815 181.107 86.1115 179.154 85.2471 177.943C84.4112 178.209 83.6967 177.492 83.0813 177.112L83.0586 177.098C82.4302 176.701 81.8035 176.979 81.1742 176.583L81.032 176.61C78.72 177.05 76.93 177.553 80.6174 176.234C80.01 175.854 79.4011 175.471 78.8112 175.069C77.6001 175.215 76.2733 175.851 75.1478 175.909C75.9052 175.203 76.9386 174.812 77.9123 174.424C77.3454 173.993 76.806 173.532 76.3235 173.025L75.8625 173.14C73.0308 173.844 71.9177 174.047 75.7299 172.332C74.9802 171.499 74.8584 170.266 74.034 169.483C72.7084 169.761 71.4903 170.344 70.4106 171.097C69.9739 171.41 69.6451 171.8 69.2992 172.191C67.6606 174.3 65.122 174.625 64.3464 171.89C64.333 171.834 64.421 171.799 64.4457 171.847L64.4486 171.853C64.8195 172.693 66.0163 173.375 67.016 172.852L67.0462 172.836C68.0238 172.327 68.4779 171.287 69.2479 170.579C70.2872 169.64 71.5897 169.011 72.9337 168.539C72.6079 167.348 72.4979 165.18 72.535 163.783C70.272 163.89 67.9943 163.781 65.7713 163.351C66.1274 165.948 65.8933 169.328 66.057 171.644C66.2936 172.421 64.8541 172.907 64.7011 172.133C64.6165 169.627 64.8616 166.012 65.2432 163.216L65.0835 163.177C64.9328 163.139 64.7744 163.094 64.6451 163.021C63.2185 163.183 63.6077 159.557 63.3682 158.537C61.7587 136.05 58.3683 113.765 55.4871 91.426C55.0875 91.2731 55.0166 90.7825 54.9506 90.3726C51.3199 92.8307 50.5964 97.743 48.9711 101.551C41.8733 121.267 38.702 142.067 33.7827 162.37L33.8098 162.377C33.8291 162.383 33.8293 162.385 33.7889 162.383L33.7796 162.382V162.383C34.0836 162.424 34.323 162.743 34.1375 163.04C33.5837 164.158 32.0486 163.762 31.038 163.691C31.1361 165.413 30.7675 169.128 31.0011 170.662C32.2476 170.685 32.3269 172.057 32.4919 172.873L32.5048 172.957C32.7251 174.35 33.4654 176.964 32.9123 178.09C33.7672 179.108 33.1523 180.49 32.2653 181.185C31.3156 181.887 30.1334 182.298 29.0597 182.839C24.0066 184.881 19.1179 188.818 12.9257 187.303L12.6561 187.246C8.31616 186.329 7.06926 185.921 7.93116 181.625C7.5772 180.752 7.57485 179.796 8.07287 179.023C8.96102 177.883 10.4533 177.26 11.6407 176.394C13.6518 175.042 15.7923 173.86 17.7567 172.453C17.6837 172.39 17.785 172.367 17.8446 172.377C19.2309 171.292 19.1012 169.412 20.0684 168.072C20.3103 167.381 21.5316 167.212 22.3359 167.308C22.0846 166.02 23.3122 160.158 23.4682 164.299L23.4681 164.358C23.4711 164.997 23.5758 167.131 23.3876 167.549C26.0574 168.365 26.6331 170.931 27.2044 173.002L27.2412 173.012C27.4236 173.059 27.6678 173.097 27.759 173.276C28.6176 172.73 28.8574 171.656 29.6889 171.078C29.4557 170.896 29.4434 170.547 29.5624 170.277C29.9496 168.857 30.1818 165.243 30.7667 163.657C28.0183 163.245 25.2184 163.036 22.5342 162.288C22.1854 162.631 21.4696 162.51 21.4977 161.891C22.329 148.411 23.7588 134.974 25.5612 121.591C27.0431 109.065 29.6501 96.6974 31.466 84.2364L31.4813 82.5261C31.5304 77.3849 31.6677 72.1667 33.5843 67.3264C33.4157 67.2527 33.2485 67.1767 33.0836 67.0969C31.0052 67.9585 32.6427 62.7228 32.7191 61.7792C33.7405 56.3084 34.9436 50.8387 35.7107 45.3338C34.9066 45.0429 34.1641 44.6302 33.5448 44.0305C29.7896 40.9732 27.6127 16.213 28.9775 11.2344C29.6899 8.10278 32.7088 6.56431 35.5861 5.85645L36.0111 5.73634C39.2246 4.8322 42.4938 4.01293 45.8395 3.81159C45.9587 3.70352 46.309 3.73461 46.3549 3.82474C46.5645 3.95098 46.7635 4.19745 46.9317 4.45782C51.5756 3.924 50.3195 0.887875 52.23 0.455339ZM63.34 178.773C62.6898 180.25 63.5537 181.373 65.0021 181.994C70.0179 184.32 75.6175 186.189 81.366 186.546C83.1201 186.122 84.8574 185.421 86.6348 184.987L86.7115 184.973C87.3371 184.858 87.6311 184.743 87.5774 184.093L87.6002 183.83C87.6403 183.363 87.6742 182.897 87.6416 182.43C87.0948 183.738 85.4581 184.457 84.0233 184.721C81.7483 185.801 79.2005 184.703 76.9654 184.24C73.335 183.136 65.4807 181.401 63.34 178.773ZM31.8292 178.804L31.7541 178.827C31.103 179.028 30.4409 179.275 29.7112 179.094C26.4513 180.199 23.2783 181.452 20.1291 182.758C16.7312 184.385 11.26 186.276 8.31543 182.344C8.73875 184.407 8.14027 185.112 10.9516 185.627C15.4124 187.081 18.9967 186.337 22.6982 184.349C25.4101 183.03 28.327 181.981 30.952 180.548L30.9874 180.523C31.5037 180.154 32.1267 179.482 31.8292 178.804ZM25.0585 169.925C24.2074 168.354 21.9169 167.492 20.2135 168.071C20.0402 169.586 20.4892 171.281 19.5277 172.597C20.3791 172.746 21.2279 172.918 22.0753 173.096L22.8508 173.26C23.2315 173.343 23.7158 173.486 23.6522 173.89C23.5819 174.336 22.9962 174.2 22.6065 174.087L22.4555 174.043C21.3609 173.721 20.2682 173.392 19.1876 173.024C18.618 173.651 17.8533 174.143 17.1118 174.618L17.4194 174.653C18.497 174.774 19.585 174.884 20.6497 175.102C21.1149 175.24 21.0145 175.874 20.5385 175.823C19.2674 175.492 17.9996 175.117 16.7067 174.879C16.0747 175.297 15.4457 175.717 14.8122 176.133C16.0581 176.313 17.3096 176.329 18.5549 176.436C19.3612 176.51 19.361 177.612 18.5549 177.549C17.1001 177.415 15.6462 176.985 14.2611 176.495L13.5311 176.976C12.6791 177.535 11.8252 178.094 10.9628 178.64C10.4438 178.971 9.77363 179.286 9.41102 179.765C8.26588 181.614 11.1273 183.382 13.0609 183.353C15.9976 183.384 18.4435 181.859 21.016 180.946C22.439 180.594 29.6739 176.971 30.3322 177.925C30.7461 177.726 31.3218 177.654 31.6198 177.326C31.6802 175.812 31.3611 174.225 31.0933 172.697C31.0388 172.43 30.9084 172.11 30.8938 171.837C29.6886 172.281 29.3454 173.964 27.7591 173.82C27.5109 174.217 26.7463 174.032 26.4013 173.717C26.0258 173.375 25.9787 172.892 25.8891 172.462L25.8476 172.264C25.6792 171.472 25.4773 170.661 25.0585 169.925ZM60.7699 41.4523L60.576 41.5014C58.6021 41.9954 56.5371 42.3528 54.5085 42.2201C54.1578 43.5471 54.3407 46.7036 52.9143 47.208C52.427 47.3917 51.6937 47.2426 51.4703 46.745C48.5199 46.6925 45.5489 46.4288 42.5983 46.2533C40.3773 46.0786 38.0729 46.0853 35.9348 45.4112C36.1938 46.7159 36.2831 47.9968 36.1381 49.3311C35.6393 55.0221 33.9975 60.5668 33.4472 66.2334L33.4218 66.5033L33.4058 66.4942C33.4058 66.5048 33.4051 66.5155 33.4043 66.5261C33.5646 66.5725 33.7249 66.6211 33.8845 66.6705C33.9415 66.6416 34.0191 66.6697 34.06 66.7245C45.8105 70.38 58.2829 71.9676 70.5296 70.3588C72.6744 70.091 74.8036 69.7159 76.9179 69.2712C76.8995 69.0821 77.188 69.0325 77.2386 69.2112C77.7078 69.1293 78.177 69.0397 78.6437 68.9794C78.5874 68.8205 78.5775 68.6488 78.6353 68.4937C79.5454 65.7623 79.1296 62.6481 78.8426 59.8154C78.4764 55.4662 77.5639 51.2001 76.8267 46.9096C73.3371 46.751 69.8683 46.1813 66.3618 46.2527C65.9924 47.2103 64.7047 48.0146 63.6966 47.4671C62.9847 47.0825 62.7739 46.2442 62.4882 45.5515C61.9234 44.1819 61.3467 42.8171 60.7699 41.4523ZM45.9837 3.9414C42.3191 5.02417 38.5647 5.7974 34.9336 6.99911C31.9158 7.75121 29.8557 9.64497 29.7285 12.8747C29.4795 19.7932 30.2378 26.7466 31.3825 33.5646L31.4423 33.8725C32.0774 37.1584 32.6467 40.5017 33.846 43.6336C35.597 44.4478 37.585 44.6797 39.5005 44.7739C42.2959 44.9162 45.0911 45.0623 47.884 45.2453L50.0739 45.3873C50.7092 45.4285 51.5926 45.3197 52.0701 45.8138C52.1124 45.8835 52.1984 45.8748 52.2639 45.918L52.2767 45.9274C52.3464 45.9747 52.4166 46.0897 52.517 46.0674C52.6804 46.0167 52.7431 45.691 52.7814 45.5354L52.785 45.5213C52.9976 44.689 53.1517 43.8388 53.3482 43.0021C53.7959 41.3555 53.9888 39.615 54.6692 38.039C53.6951 37.4173 52.7777 36.7064 51.9909 35.863L51.0422 35.5289C48.7726 34.7323 46.4775 33.9607 44.112 33.4833C44.0553 34.0026 43.3102 34.2995 43.0323 33.756C42.5717 32.3715 42.4862 30.8682 42.1686 29.4411C41.4476 25.1836 40.5909 20.9415 40.0922 16.65C41.4671 20.4509 42.1795 25.1161 43.2303 29.2239C43.279 29.1956 43.3464 29.2121 43.3485 29.2793C47.0691 27.8721 51.1998 27.9294 54.8715 29.4228C55.7913 29.7917 56.7254 30.123 57.6403 30.5036C57.9527 30.68 58.5752 30.6692 58.6801 31.0551C58.7925 30.7932 58.9435 30.5479 59.1441 30.3825C59.2068 30.2534 59.9179 30.0231 59.9874 30.2784C64.1587 30.851 68.2144 32.6661 72.5065 32.3596C71.9986 30.5051 72.0587 28.5023 72.0246 26.587L72.035 26.3714C72.1233 24.4846 72.1872 22.1494 72.8267 20.5967C72.4175 24.5056 72.7146 28.4209 73.214 32.2934C76.2413 31.9028 74.8473 33.6341 72.831 33.5691C68.7619 33.8623 65.0067 32.0624 61.2619 30.7507C59.2164 29.9329 58.9846 30.6255 59.0758 32.5693C59.0777 35.1001 60.2236 37.4099 61.2615 39.6553L61.7279 40.7041C62.503 42.4491 63.2674 44.183 64.0204 45.949C67.3105 44.8579 71.0147 45.4566 74.423 45.6554C77.0237 45.9821 78.8912 45.8661 81.0913 44.3615C81.885 42.845 82.9306 41.4067 83.3395 39.6962C83.8137 38.1285 83.9717 36.4863 84.11 34.8617L83.9853 34.4071C82.3818 28.5742 80.6073 22.7699 78.1824 17.2142L78.0512 16.9081C77.2292 14.984 76.3941 12.965 74.7309 11.6173C71.9397 9.55598 68.4875 8.6417 65.5533 6.80751L65.5346 6.9417C65.2368 9.04572 64.7225 11.2268 63.3761 12.9197C60.8882 15.975 56.191 16.061 53.0073 14.0766C49.6953 12.2451 47.7083 8.83504 46.7416 5.27057L46.7302 5.23139C46.6397 4.91372 46.3878 3.95187 45.9837 3.9414ZM54.978 38.2318C54.976 39.3523 54.7549 40.4567 54.6054 41.5628C56.3272 41.2229 58.0439 40.9858 59.7374 40.5264C58.0878 39.9031 56.4847 39.1521 54.978 38.2318ZM50.8321 29.195C48.3214 28.7034 45.7508 28.9975 43.2682 29.3934C43.538 30.6477 43.8461 31.8906 44.1037 33.1465C44.9928 33.1058 53.4264 34.5996 52.4746 35.7987C53.7195 36.4645 54.8989 37.2473 56.1381 37.9275C57.3844 38.6117 58.682 39.1997 60.0207 39.6774L59.95 39.5202C58.7979 36.9459 57.7215 34.049 58.6093 31.2356C57.4156 31.7148 55.7861 30.6854 54.6296 30.3003C53.4019 29.8075 52.1375 29.4188 50.8321 29.195ZM32.7569 19.2269C32.7652 18.7572 34.2155 20.1039 34.4048 20.2437L34.5192 20.3473C35.911 21.6105 37.2858 23.0001 38.0613 24.7335C38.1179 26.437 35.5796 22.3102 35.2277 22.0581C34.4598 21.0697 33.5244 20.2113 32.7569 19.2269ZM72.8897 23.2367C72.4973 23.3659 73.5682 22.0348 73.9859 22.1319C74.152 22.1077 74.2967 22.3486 74.1122 22.4315L74.0205 22.4718C73.592 22.6578 73.1538 22.8165 72.8897 23.2367Z" fill="black"/>
</g>
<defs>
<clipPath id="clip0_43_52">
<rect width="125" height="190" fill="white"/>
</clipPath>
</defs>
</svg>
