<svg width="124" height="188" viewBox="0 0 124 188" fill="none" xmlns="http://www.w3.org/2000/svg">
<g clip-path="url(#clip0_43_60)">
<path fill-rule="evenodd" clip-rule="evenodd" d="M61.4587 82.0592C61.3755 85.0776 60.8871 88.086 60.5197 91.0871C60.2258 94.0533 59.6713 97.0478 59.2261 99.959C59.2082 100.468 58.5074 100.715 58.1688 100.337C58.1776 93.7183 59.948 86.9269 59.3209 80.1697C59.8264 79.8878 60.341 79.576 60.832 79.2644C61.4942 80.1371 61.5674 81.1448 61.4587 82.0592ZM35.3016 43.0373C34.5444 45.786 32.9398 48.1554 32.2371 50.9081L31.495 50.8344C31.1299 44.7621 32.1563 38.7962 33.3551 32.9282L34.101 32.9721C34.3641 36.3539 36.0937 39.5571 35.3016 43.0373ZM117.002 20.671C116.962 20.5579 116.921 20.4426 116.883 20.3258L116.448 20.4186C117.258 18.886 116.503 18.3817 115.587 17.1147L115.488 17.3448L115.135 16.5751C115.065 16.3796 114.994 16.2136 114.801 16.1406C114.612 15.1828 114.05 14.3058 113.302 13.8293L113.159 13.9903C112.862 13.7312 112.505 13.6326 112.164 13.5126C112.895 12.4102 113.365 10.98 113.857 9.79808C114.258 8.55671 114.885 7.35198 115.003 6.09319C114.908 4.88343 113.765 5.66926 113.207 6.27267C111.503 7.76645 110.035 10.1323 108.935 13.0054C107.047 12.5142 105.963 13.0325 105.438 15.6119C104.955 17.3641 104.462 19.1615 104.397 20.9782C104.143 20.8912 103.693 20.5641 103.45 20.8206C99.2527 25.4113 94.2965 28.9479 89.5033 32.8186C85.8811 30.1552 83.9961 24.886 82.004 20.9304C78.5286 14.141 75.0533 4.20147 66.1141 4.23646C64.9294 4.113 63.7724 3.97144 62.6541 3.62757C62.221 3.50997 61.6857 3.36833 61.5387 3.10541C61.2738 2.25861 61.2236 1.34234 60.7579 0.565747C59.48 -1.51056 56.7113 -1.67375 54.5417 -1.22294C50.8581 -0.540598 50.9508 -0.938918 50.6849 2.93351C50.6051 3.85279 49.8923 3.98444 49.1312 4.17481C48.2672 4.44712 47.387 4.66963 46.499 4.84889C46.5911 4.82298 46.6833 4.79737 46.7754 4.77131C32.3587 4.99961 22.7865 21.7148 20.8876 33.5403C18.6819 45.6386 21.5347 59.1029 26.0448 69.2643C25.8511 72.9647 26.5774 76.682 27.0372 80.3293C27.3258 81.2418 28.3251 81.3306 28.6108 80.2736L28.9629 78.8824L29.3399 80.2672C29.5789 81.124 29.9631 81.2259 30.3087 81.2317C30.7375 81.2317 30.9725 81.0205 30.9866 79.9064L31.6967 79.7358C31.9704 80.2569 32.2421 80.7177 32.6721 81.0381C33.5367 87.3205 34.0794 93.8528 36.1781 99.9318C37.015 102.188 38.3001 104.236 39.2439 106.45C34.7938 116.489 34.0478 127.614 32.9793 138.364C33.0653 138.37 33.5069 138.409 33.6012 138.417L33.3575 139.064C33.0247 139.205 32.8291 139.502 32.7283 139.83C32.5038 139.811 31.5673 139.818 31.6195 140.033C31.7278 141.296 32.0821 142.197 32.7534 142.854C32.7626 143.057 32.7751 143.263 32.7907 143.455C31.4589 148.1 30.483 153.052 29.89 158.158C29.1361 158.883 28.9474 161.267 30.0718 161.903C33.1758 164.04 37.3453 165.054 41.2711 164.669C45.5198 164.267 50.5869 162.575 48.5537 157.732C48.5274 157.582 48.321 157.574 48.1584 157.607C47.7982 157.258 47.4077 156.994 46.9854 156.845C46.1462 154.751 45.3914 152.554 44.733 150.361C44.4123 149.354 44.0806 148.312 44.1079 147.208C44.2667 144.495 44.546 143.374 46.4318 141.238C47.5992 141.799 49.824 137.737 50.3338 136.884C51.4063 134.361 52.7732 132.067 53.9185 129.593C54.0954 129.174 54.7137 129.166 54.9556 129.528C55.0645 129.68 55.0917 129.869 55.0305 130.046C54.033 132.922 52.6749 135.669 51.3649 138.352C51.8113 139.91 51.9875 142.513 53.1039 143.673C53.7112 147.711 49.5558 149.561 52.2334 154.039C51.3272 154.102 51.2427 154.464 51.2585 155.564C51.2555 156.353 51.2349 157.182 51.384 157.92C51.5646 158.827 52.4022 159.071 53.6594 159.338C54.6782 159.563 55.6592 159.821 56.6703 160.064C57.6928 160.403 58.7701 160.376 59.1905 159.342C64.2541 161.057 78.8512 160.861 83.6791 158.588C85.0124 158.055 85.9527 157.753 84.7283 156.252C84.0543 151.966 73.05 155.03 71.4955 150.329C71.2738 149.719 70.9533 149.398 70.3298 149.287C70.4249 148.802 70.298 148.263 69.7579 148.123C69.5954 148.075 69.4221 148.062 69.2548 147.909C68.8393 147.054 68.1579 146.535 67.3641 146.08C67.6883 145.614 67.4262 145.397 67.2803 144.875C67.1323 143.877 67.4725 142.921 67.4551 141.951C67.6375 141.645 67.7784 141.216 68.0704 141.004C68.3409 140.814 68.1726 140.731 68.0673 140.52C68.1478 140.449 68.3298 140.287 68.4121 140.223C68.7283 139.875 68.3968 139.368 67.9914 139.329C67.9415 139.162 67.8822 138.967 67.8443 138.801C68.9655 135.433 70.2885 131.059 70.7277 126.426C71.1528 119.014 70.7541 112.765 73.0139 105.233C76.1726 93.3061 82.3091 82.1138 82.3919 69.493C82.2865 67.4008 82.8668 65.1731 82.3407 63.12L82.9942 62.7804C83.0882 62.8887 83.2582 62.8857 83.2921 62.7384C83.7208 62.0431 83.2403 61.2094 83.1417 60.4481C83.366 60.2082 83.254 59.9893 82.9833 59.8584C80.0806 49.6187 75.2254 48.1228 76.5619 35.3232C78.7426 39.9405 83.5733 44.6147 88.8981 43.9274C94.2622 44.7287 106.775 31.6707 109.192 27.4495C109.635 27.4838 109.64 27.1665 109.708 26.8676C111.915 27.127 113.981 25.3957 114.022 23.2777C115.959 24.4776 118.029 22.7639 117.002 20.671Z" fill="white"/>
<path fill-rule="evenodd" clip-rule="evenodd" d="M101.564 34.5631L101.356 34.748C97.9561 37.769 94.3492 40.7845 90.0923 42.4917C89.5156 42.7016 88.9146 42.7582 88.3223 42.8833C83.3711 42.9322 80.0089 39.102 76.8736 35.7994C77.1362 30.1476 76.919 24.312 74.6836 19.0305L74.6302 18.8946C74.0833 17.5132 73.4148 16.1436 72.3455 15.0878C72.3191 15.0622 72.2829 15.1006 72.3056 15.1277C73.218 16.2442 73.7493 17.6081 74.1308 18.9839L74.1501 19.0538C75.4511 23.713 75.6774 28.6019 75.5062 33.4141L75.5009 33.5599C75.3841 36.8116 75.1029 40.0805 75.4949 43.3254C75.7807 46.6745 77.2644 49.7028 78.8803 52.5952C80.2888 55.2667 81.3416 58.1225 81.9798 61.0741C81.7746 61.9451 81.031 62.5837 80.2581 63.0685C78.8613 63.9302 77.2429 64.4017 75.6622 64.7965C69.1944 66.4546 62.4578 67.2243 55.8034 66.4215C48.7039 65.501 41.7752 63.5963 34.8998 61.6569C34.1927 61.4403 33.408 61.2441 32.7326 60.9072C32.6874 60.8575 32.6338 60.8154 32.5758 60.7809C32.459 59.1335 32.3044 57.5007 32.1891 55.8575C32.3448 52.6743 33.2302 49.5787 34.5869 46.7041C37.0663 41.9912 36.2473 39.1251 34.736 34.3232C34.3887 33.1013 34.1407 31.8229 34.1716 30.5633C34.3299 29.7698 34.4829 28.9757 34.6239 28.1794C34.6827 28.0267 34.7467 27.8756 34.8184 27.7252C34.8319 27.6966 34.7935 27.6741 34.7754 27.7003C34.7437 27.7455 34.7136 27.7913 34.6834 27.838C34.7882 27.2303 34.8854 26.622 34.9706 26.0121C34.9819 25.9316 34.8779 25.9001 34.8478 25.9783C32.1311 33.2751 30.554 41.0966 30.6189 48.894C30.6574 51.1898 30.8157 53.4849 30.9845 55.7755L30.9688 55.9964C30.909 56.8631 30.8775 57.7465 31.1813 58.5722C31.2459 59.989 31.4867 61.3887 31.4119 62.8097C31.2366 64.107 30.8446 65.025 29.8688 65.9222C28.9025 66.9021 27.7964 67.713 26.5364 68.2753C21.2978 52.9854 18.2287 37.1027 25.8041 21.9837C29.3201 14.6226 35.3725 8.00937 43.4953 5.90588C42.3377 7.18259 43.2401 9.09239 44.0724 10.3096L44.1233 10.3833C48.1094 16.2781 56.8872 17.6824 63.4702 16.4003C66.6592 15.8541 69.6494 13.7936 69.9039 10.3479C70.1015 8.03998 68.7852 5.76367 66.7953 4.62672L67.0376 4.65315C68.9743 4.86795 70.8551 5.17796 72.3417 6.56094C77.8207 11.6203 80.3625 18.8257 83.5989 25.3489L83.7277 25.5863C85.1139 28.1517 86.4534 30.9226 88.7565 32.7831L88.3261 33.1493C88.2718 33.196 88.3298 33.3013 88.3984 33.2734C88.62 33.1839 88.8401 33.0899 89.0595 32.9945C89.3689 33.2421 89.7243 32.9916 89.7613 32.6771C94.9694 30.189 99.3712 26.2426 103.457 22.2393C104.489 24.6236 106.228 27.2243 109.013 27.6139C106.384 29.7669 104.057 32.256 101.564 34.5631ZM59.7021 80.2792C60.0401 80.0871 60.3738 79.8877 60.7031 79.6811C61.2467 80.5489 61.1085 81.3119 61.05 82.2705C60.9257 83.8699 60.9533 85.4968 60.6285 87.071C60.0654 91.0876 59.7323 95.2848 58.896 99.1991C58.8774 99.418 58.8579 99.6366 58.8409 99.8555C58.8184 100.144 58.3661 100.145 58.3886 99.8555C58.9393 93.3578 60.108 86.822 59.7021 80.2792ZM62.7677 158.554C67.0108 159.257 71.342 158.759 75.5868 158.307L76.2099 158.226C78.2191 157.966 80.2401 157.692 82.2135 157.255C82.3798 157.117 82.636 157.056 82.7359 156.853L82.8577 156.862C82.9606 156.804 83.0655 156.749 83.1721 156.698C83.4821 156.642 83.7347 156.575 84.0549 156.487C84.4893 156.635 84.5345 157.016 84.2397 157.286C84.2692 157.424 84.1041 157.502 83.9962 157.563C83.979 157.598 83.9521 157.631 83.9117 157.659C83.7182 157.781 83.5228 157.927 83.3011 157.987C82.7597 158.549 81.5968 158.763 80.9561 158.877L80.8928 158.888C75.5695 159.839 70.1235 160.095 64.7329 159.665C63.8035 159.591 62.8748 159.496 61.9496 159.381L61.6973 159.349C60.8983 159.245 60.0171 159.206 59.4028 158.622C59.0969 158.332 58.4838 158.515 58.501 158.976L58.502 158.994C58.5557 159.752 56.7802 159.125 56.4287 159.027L56.4185 159.024C55.4355 158.758 54.4586 158.464 53.4726 158.211L53.2308 158.164C52.3743 157.994 52.3077 157.908 52.2982 156.849L52.2663 156.561C52.2233 156.177 52.1771 155.794 52.115 155.413L52.0909 155.27C52.063 155.11 51.7901 154.119 52.2447 154.251C52.302 154.267 52.3578 154.221 52.3608 154.166C55.5546 156.196 59.0108 157.895 62.7677 158.554ZM45.8985 161.11L46.1695 160.947C46.6235 160.673 47.0795 160.376 47.4015 159.959C47.9327 159.979 48.1513 159.48 48.1312 159.034C48.5772 160.482 48.0241 161.641 46.717 162.375C42.1637 164.787 36.3381 164.432 31.8054 162.138C31.3705 161.914 30.9453 161.671 30.533 161.408L30.4402 161.349C30.2857 161.25 30.1359 161.144 30.0536 160.974C29.8553 160.394 29.858 159.822 29.8365 159.175C30.1799 159.637 30.7499 159.957 31.2235 160.276C32.1273 160.88 33.1065 161.359 34.1218 161.743C37.8817 163.137 42.3476 163.052 45.8985 161.11ZM32.1273 42.1906C32.4904 39.044 33.1127 35.9409 33.7155 32.8342C33.9606 36.1731 35.6967 39.4245 34.9246 42.802C34.17 45.5209 32.5529 47.9328 31.862 50.6754C31.7276 47.843 31.8102 45.009 32.1273 42.1906ZM36.6018 69.4927C36.1933 69.5672 35.7734 69.5657 35.3603 69.5364C33.686 69.3338 33.4212 70.3461 33.4269 71.7615C33.376 72.6765 33.3198 73.5914 33.272 74.5068L33.2444 75.0561C33.2097 75.7877 33.1177 76.6059 33.2097 77.3707C32.9064 78.0652 32.7424 78.7893 32.6941 79.5485C32.5547 79.5109 32.4054 79.5289 32.2984 79.6019C31.6841 78.5085 31.5371 77.1737 31.4104 75.9426C31.3486 75.3373 30.4576 75.3095 30.4441 75.9426C30.4267 76.8037 30.4139 77.6655 30.3988 78.5265L30.3755 79.8553L30.3755 79.8751C30.3793 80.0643 30.4649 80.5423 30.2319 80.5239L30.2187 80.5223C29.7851 80.4899 29.7651 78.9492 29.6713 78.5649L29.3096 75.9878C29.2283 75.4112 28.3981 75.5994 28.341 76.1023L28.3394 76.1186C28.2379 77.2964 28.1349 78.4743 28.0477 79.6531C28.0202 79.857 28.0165 80.2258 27.7937 80.3148C27.5969 80.1383 27.5596 79.8412 27.5177 79.5944C27.1472 76.1937 26.4513 72.8366 26.0223 69.4439C26.3004 69.4041 26.5552 69.231 26.6366 68.9649C28.8689 68.5093 31.2116 67.2543 32.3331 65.2154C32.557 65.4124 32.7318 65.6703 32.9489 65.8726C33.2919 66.1937 33.6688 66.4833 34.0291 66.7833C35.0391 67.6373 36.0528 68.4434 37.0421 69.3235C36.8973 69.3709 36.7654 69.4634 36.6018 69.4927ZM60.8893 -0.122155C60.9006 -0.166523 60.9624 -0.153739 60.9654 -0.111627C61.0272 0.745728 61.233 1.65031 61.5466 2.49104C61.6589 2.50909 61.7667 2.57226 61.8451 2.69491C61.9506 2.85964 62.4554 2.9745 62.7188 3.05197L62.7564 3.06332C63.8498 3.40051 64.991 3.53663 66.1251 3.65687C71.4589 3.95143 73.4001 5.62087 76.4092 9.83891C79.981 14.5908 81.9851 20.2304 84.6777 25.4752C85.3403 26.7506 86.0556 27.9959 86.8418 29.1998L86.9168 29.3141C87.6191 30.3815 88.396 31.4628 89.4688 32.183C92.0648 30.0093 94.8409 28.0685 97.4089 25.8611L97.649 25.6534C99.5757 23.99 101.416 22.2273 103.167 20.3804C103.373 20.1623 103.761 20.1051 104.047 20.233C104.159 18.5705 104.629 16.94 105.063 15.3337C105.518 13.2647 106.308 11.8663 108.693 12.3783C109.653 9.96449 110.938 7.60874 112.884 5.84635L113.009 5.734C113.423 5.35827 113.967 4.8195 114.549 4.86812C115.078 4.91173 115.349 5.38933 115.37 5.87504C115.394 6.45123 115.143 7.03794 114.962 7.57802L114.947 7.6242C114.715 8.33333 114.465 9.03653 114.2 9.73431C113.945 10.4058 113.673 11.0706 113.387 11.7294C113.096 12.2804 112.882 13.1928 112.351 13.5259C112.077 13.6885 111.795 13.4699 111.766 13.1905C111.725 12.8243 111.936 12.5025 112.091 12.1836C112.234 11.8903 112.375 11.5955 112.511 11.2992C113.059 10.1064 113.551 8.88884 113.974 7.64676C114.1 7.22864 114.614 6.14178 114.435 5.76608C114.257 5.76751 113.889 6.14426 113.759 6.25631C111.715 7.94733 110.386 10.2839 108.866 12.4159C109.82 12.6882 110.856 12.8159 111.648 13.4552C113.277 14.8751 111.969 17.6868 109.784 17.1633C110.394 18.4571 110.918 20.5471 109.838 21.7159C109.513 22.0197 108.882 21.9227 108.783 21.4385C108.678 20.9241 108.805 20.4834 108.921 19.9849C109.131 18.9699 109.258 17.9304 109.115 16.8971L109.07 16.8703C108.7 16.6459 108.467 16.394 108.478 15.9301C108.43 15.5946 108.788 15.1427 109.147 15.4172C109.264 15.5059 109.407 15.5127 109.53 15.6022C109.738 15.8001 109.997 15.9558 110.292 15.9533L110.321 15.9526C110.701 15.9496 110.981 15.721 111.098 15.3661C111.416 14.3922 110.314 14.0651 109.598 13.8779L109.413 13.8209C107.459 13.2242 106.75 13.2145 106.259 15.5082C105.727 17.2194 105.258 18.9811 104.359 20.5451L104.471 20.8121C105.375 22.9629 106.51 25.4389 108.942 26.0986C109.028 25.3801 109.806 25.3542 110.369 25.3721C111.097 25.333 111.826 24.9646 112.34 24.4352C112.788 23.984 113.014 23.3554 113.51 22.953C113.286 22.4431 113.793 21.8806 114.323 22.1739C114.68 22.3709 114.896 22.6522 115.327 22.7093C115.709 22.7605 116.061 22.6273 116.352 22.3829C117.109 21.7437 116.749 20.8045 116.934 19.9675C116.69 20.3894 116.284 20.7128 115.85 20.9361C112.951 22.5919 112.98 19.3454 114.582 19.8788C116.323 19.4834 116.294 18.8553 115.643 17.3806L115.631 17.346C115.526 17.0365 115.289 16.4892 115.509 16.1557C115.521 16.1391 115.543 16.1338 115.559 16.1489C115.758 16.3444 115.836 16.6723 116.004 16.9024L116.204 17.1412C116.813 17.8732 117.449 18.7429 117.054 19.7201C117.096 19.7111 117.142 19.7291 117.157 19.7803C117.344 20.4593 117.715 21.1264 117.638 21.8528C117.478 23.4448 115.749 24.3188 114.318 23.6553C114.043 25.7019 112.021 27.1749 109.996 27.0837C109.931 27.3642 109.723 27.6109 109.402 27.6365C106.42 32.405 94.7011 44.6728 88.954 44.1601C88.4044 44.409 87.7049 44.2842 87.123 44.2091C82.6596 43.6278 78.9294 40.3686 76.8487 36.5055C76.0838 49.1593 80.406 49.0058 83.2982 59.4889C83.5877 59.6701 83.7565 60.0657 83.5319 60.4003C83.656 61.0345 83.9101 61.6845 83.8123 62.3353C83.7641 62.5209 83.6668 62.6901 83.5786 62.8601C83.3971 63.2069 82.9185 63.1652 82.6944 62.8954C83.0745 64.2682 82.9124 65.7093 82.815 67.1089C82.7555 67.9309 82.76 68.7415 82.7592 69.5642C82.6458 82.0881 76.5184 93.3802 73.3684 105.262C72.4774 108.592 71.793 111.986 71.5239 115.426C71.2382 119.086 71.4372 122.767 71.0934 126.422C70.6951 130.656 69.5625 134.771 68.2265 138.795C68.3065 139.121 68.4725 139.492 68.37 139.773C66.4615 140.094 64.6196 140.678 62.7662 141.22C62.6936 141.241 62.6483 141.286 62.6255 141.34L62.2019 141.48C61.927 141.572 62.0448 142.008 62.322 141.915L62.7851 141.762C64.369 141.239 65.9713 140.739 67.6186 140.504L67.6692 140.483C67.9985 140.352 68.386 140.255 68.5596 140.618C68.6477 140.801 68.5779 140.986 68.4521 141.131C68.3458 141.254 68.2106 141.33 68.1177 141.469C68.0137 141.652 67.9257 141.845 67.8225 142.031C67.8235 142.95 67.5205 143.86 67.638 144.777C67.7264 145.157 68.0354 145.522 67.8393 145.93L67.9286 145.987C68.4483 146.32 68.945 146.686 69.2866 147.201C69.3612 147.313 69.4177 147.546 69.5029 147.626C69.5919 147.708 69.7577 147.718 69.867 147.757C70.4205 147.925 70.7688 148.424 70.7211 149.003C72.0172 149.376 71.5708 150.69 72.9086 151.604C74.282 152.598 76.1416 152.707 77.7638 152.965L80.528 153.405L80.6887 153.424C82.4383 153.64 84.7202 154.045 85.0723 156.086L85.1005 156.119C85.5233 156.623 85.9299 157.579 85.4079 158.126C84.9836 158.502 84.4042 158.679 83.8903 158.898C83.1778 159.412 82.151 159.651 81.3692 159.796C74.6108 161.045 67.6487 161.19 60.8448 160.221L60.731 160.204C60.2555 160.133 59.7645 160.037 59.3304 159.834C58.7233 160.854 57.5542 160.725 56.57 160.436C55.7973 160.245 55.0247 160.057 54.2521 159.869L54.1796 159.85C52.9862 159.544 51.2937 159.451 51.0047 157.998C50.8554 157.25 50.8652 156.417 50.8728 155.657L50.8711 155.407C50.8701 154.767 50.9206 153.899 51.6469 153.763C50.6379 151.897 50.8578 149.603 51.7976 147.753L51.8474 147.662C52.539 146.396 52.9711 145.339 52.7414 143.843C52.2809 143.41 52.066 142.788 51.8957 142.177C51.5378 140.89 51.2252 139.589 50.9606 138.279L51.3711 137.438C52.5748 134.968 53.7653 132.488 54.6646 129.89C54.7473 129.651 54.359 129.482 54.2513 129.716C53.114 132.18 51.7234 134.521 50.6646 137.022C49.9626 138.329 49.1197 139.559 48.1748 140.704L48.133 140.762C47.7662 141.264 47.459 141.431 46.8565 141.638C46.76 141.679 46.662 141.679 46.5701 141.653C45.9952 142.431 45.2974 143.047 44.9954 143.976C44.666 145.003 44.5401 146.133 44.4752 147.207C44.4406 148.606 45.0244 149.927 45.3911 151.256C45.9518 153.045 46.5763 154.816 47.2671 156.56C47.636 156.709 47.9709 156.938 48.2797 157.221C48.5371 157.196 48.8083 157.313 48.9046 157.626L48.9446 157.757C49.2847 158.883 49.5733 160.184 49.1316 161.313C47.9106 164.047 43.9867 164.729 41.3025 165.056C37.3277 165.433 33.1583 164.485 29.8493 162.223C29.382 161.896 29.0631 161.524 28.9855 160.944L28.9773 160.872C28.8705 159.902 28.8457 158.752 29.5199 158C30.0963 153.082 31.0404 148.166 32.4002 143.402C32.3896 143.267 32.3813 143.132 32.3745 142.997C31.6155 142.208 31.3185 141.097 31.2333 140.03C31.2234 139.582 31.6776 139.489 32.0299 139.434L32.1597 139.433C33.3075 139.425 34.4921 139.481 35.5163 139.909L35.4659 139.911C35.414 139.913 35.3599 139.919 35.3206 139.946C35.8338 140.11 36.3935 140.183 36.8841 140.399C37.2474 140.417 37.5642 140.589 37.9322 140.62L37.9908 140.624C38.0562 140.63 38.106 140.611 38.1418 140.578C39.1304 140.754 40.1133 140.991 41.1003 141.136C41.385 141.178 41.5079 140.743 41.2205 140.701C39.9001 140.507 38.5857 140.151 37.2561 139.987C36.9621 139.873 36.678 139.727 36.3832 139.609C36.3661 139.57 36.3338 139.535 36.2814 139.511C35.9581 139.359 35.6223 139.234 35.2788 139.13C34.3983 138.858 33.4734 138.743 32.5565 138.689L32.6215 138.034C33.6765 127.334 34.4463 116.347 38.8233 106.383C37.8933 104.237 36.6285 102.194 35.8149 99.9871C35.4772 99.105 35.2721 98.2057 35.0045 97.3055C34.8306 96.8743 34.6868 96.4376 34.6171 95.9752C33.5455 91.0793 32.9397 86.0991 32.3074 81.133C31.8818 80.7817 31.6006 80.2753 31.3539 79.8094L31.3528 79.8802C31.3382 80.647 31.2298 81.5301 30.2631 81.5074C29.483 81.4886 29.1414 80.9073 28.9666 80.2644C28.6268 81.6088 27.1169 81.6824 26.6743 80.3584C26.4768 79.8245 26.4851 79.2153 26.4263 78.6551C26.1108 75.5804 25.4525 72.5078 25.6416 69.4115C25.4426 69.3438 25.2692 69.1919 25.1847 68.9385C21.4156 57.5358 18.0614 45.3327 20.5082 33.3003C22.9547 21.5116 29.5804 8.31468 42.1016 4.97189C44.6364 4.33217 47.2115 4.11506 49.8099 3.94992C50.1849 3.22545 50.4272 2.40133 50.4763 1.58112C50.4913 1.34424 50.48 1.1097 50.4793 0.872741C50.4785 0.653909 50.572 0.392965 50.5283 0.188496C50.5177 0.138789 50.5856 0.122245 50.6037 0.168117C50.6587 0.311749 50.771 0.383941 50.8471 0.505013C51.0365 0.847248 51.0866 1.25355 51.1366 1.63602C51.3245 3.12903 50.8972 4.66518 49.9928 5.86392L49.9614 5.90512C49.681 6.2797 49.1473 6.95792 48.5955 6.63306C48.1147 6.3493 48.4227 5.77139 48.7095 5.46187L48.7312 5.43888C49.1194 5.03581 49.4451 4.60492 49.7097 4.13492C48.534 4.44782 47.3676 4.79239 46.1954 5.11853L46.1398 5.14906C45.2219 5.64833 43.858 6.18276 43.9784 7.42055C46.4193 14.7771 57.2177 16.6674 63.8916 14.9111L63.998 14.8823C65.275 14.5306 66.5537 13.9654 67.4226 12.9352L67.4585 12.892C69.0012 11.0678 68.883 8.05412 66.9513 6.55636C65.804 5.61786 64.2188 5.11928 62.7873 4.7945C63.2036 5.48483 64.1244 5.97235 64.2919 6.79023C64.3349 7.07072 64.1796 7.33768 63.8698 7.3437C63.0828 7.35874 62.5024 6.51951 62.0893 5.95551C61.2273 4.77562 60.7382 3.34923 60.6337 1.89621C60.5817 1.18933 60.7121 0.552389 60.8893 -0.122155ZM112.96 13.1499C112.918 13.1214 112.942 13.0366 112.998 13.0597C115.137 13.9452 116.01 17.1165 114.4 18.8629C113.866 19.4261 113.064 19.7517 112.335 19.4562C111.438 19.3047 110.914 18.4003 110.799 17.5671C110.791 17.5283 110.835 17.5106 110.86 17.535L110.864 17.5401C111.203 17.9573 111.737 18.2366 112.224 18.45C112.36 18.3763 112.509 18.3177 112.659 18.283C112.873 18.2349 113.091 18.4018 113.071 18.6192C114.078 18.4352 114.482 17.2384 114.512 16.3304L114.513 16.303C114.554 15.0465 113.985 13.8846 112.96 13.1499Z" fill="black"/>
</g>
<defs>
<clipPath id="clip0_43_60">
<rect width="124" height="188" fill="white"/>
</clipPath>
</defs>
</svg>
