<svg width="124" height="190" viewBox="0 0 124 190" fill="none" xmlns="http://www.w3.org/2000/svg">
<g clip-path="url(#clip0_43_44)">
<path fill-rule="evenodd" clip-rule="evenodd" d="M28.9324 38.7702C26.9132 41.1555 27.0917 41.8188 28.1675 44.2272C30.5443 49.8153 33.9524 55.4959 37.8211 60.6776C37.5657 49.0522 37.3461 37.3636 36.9683 25.6322C34.668 30.1651 32.2182 34.2595 28.9324 38.7702ZM28.5514 182.452C27.2804 182.327 18.3353 182.661 20.7292 180.027C19.9903 178.407 22.0547 177.039 23.3268 175.807C24.5171 174.66 25.6901 173.385 26.9123 171.911C28.0504 170.544 29.3335 168.928 30.163 167.043C30.3466 166.747 30.5331 166.54 30.7178 166.427L30.8243 166.362L30.8906 166.256C31.5907 165.127 32.1687 163.961 32.8048 162.812C31.249 162.244 29.8355 161.674 28.0733 160.886C30.5598 146.096 34.2864 131.687 36.6959 116.853C38.1625 103.946 38.9498 90.9164 42.3059 78.2041L42.7353 78.2374L42.9745 77.4044C42.6221 77.3952 41.908 77.3711 41.5544 77.3572L41.6372 77.7834C40.0373 77.5963 38.4696 77.1358 36.9143 76.7452C36.1205 76.6356 35.3247 76.0622 35.6104 75.1066C35.7022 73.7203 35.9862 72.3678 36.1199 70.9819C35.6137 70.6328 35.0915 70.2344 34.5914 69.826C33.2688 70.4559 31.6702 72.49 30.2239 71.9725C26.8441 67.3904 24.0077 61.8822 21.4408 57.4818C15.2412 47.3054 13.2735 40.9442 19.6676 30.3332C25.1957 21.4438 31.1589 7.31521 42.2411 5.08431C43.4853 4.8497 44.7891 4.83982 45.9848 4.26723C46.0462 3.4462 46.4523 2.97455 46.7496 2.96786C47.4718 2.80773 48.2647 2.55009 48.9699 2.54355C49.2185 2.43867 49.522 2.52486 49.7608 2.5722C50.4715 1.13132 50.408 -0.708184 51.1868 -2.05893C51.2151 -3.08235 51.5239 -4.21308 54.6466 -4.41881C56.7722 -4.59802 59.7828 -4.77069 61.482 -3.83254C62.6709 -2.86575 62.6831 -0.6999 62.534 0.82618C62.3702 1.94695 62.4435 3.25043 63.3125 4.56675C65.7891 3.79451 67.5161 5.42684 69.0665 8.47208C75.5565 9.36455 76.9559 9.8714 79.4739 16.3647C80.6748 19.1806 81.9252 22.1889 82.8612 25.2716C84.1149 29.0401 84.225 32.9848 85.4438 36.78C88.7539 45.1443 92.12 50.5422 93.18 60.2798C93.6973 64.5792 93.4001 66.7113 92.9083 67.357C91.5094 66.9485 89.7047 66.6356 88.2357 66.4616L89.8077 67.6694C88.4756 73.7703 92.3124 91.1688 81.9096 89.8323C81.8171 89.6052 81.9867 88.3561 82.0314 87.838C81.747 87.8581 81.221 87.8769 80.941 87.8413C80.4449 89.2872 79.7001 90.5864 79.2299 92.0572C78.9974 92.9534 78.7036 93.8554 78.4163 94.727C71.865 117.013 70.5677 138.468 73.4912 160.841L73.3591 160.89L73.3055 160.986L73.2253 161.016C73.0189 161.294 72.7265 161.306 72.2599 161.307C69.3944 161.409 66.8766 161.539 64.5417 161.605C64.7895 162.858 64.6308 164.176 64.5216 165.45C65.8805 165.354 67.1273 165.911 68.3694 166.58C70.7428 167.756 73.1066 168.993 75.4047 170.344C77.6862 171.819 81.3759 173.08 79.5441 175.73L80.0737 175.94C80.0915 175.947 80.1029 175.954 80.1096 175.958C80.1722 176.183 79.4547 177.115 79.2422 177.105C74.2249 177.341 69.9458 176.158 63.528 174.918C62.0587 174.38 54.658 173.464 54.627 172.05C54.6505 171.61 55.1013 171.64 55.4158 171.585C54.4729 166.776 57.6601 166.387 58.1164 162.023C57.4854 162.145 56.8031 162.249 56.1568 162.07C55.5897 152.757 56.5009 143.224 55.4933 133.821L54.469 133.706C51.0258 143.939 47.4556 154.408 44.7136 165.037C44.6614 165.268 44.4052 165.11 44.288 165.026C42.4959 164.983 40.7032 164.789 38.9458 164.485C38.9036 165.53 38.8592 166.595 38.8157 167.639L39.0865 167.786C39.2612 168.032 39.1877 169.181 39.156 169.676C39.1241 170.182 39.0977 170.548 39.1421 170.891C39.7073 172.017 37.7747 174.456 36.7525 175.812C34.5255 178.723 32.6807 183.035 28.5514 182.452Z" fill="white"/>
<path fill-rule="evenodd" clip-rule="evenodd" d="M50.6605 -1.94236C51.2671 -2.35717 50.4033 1.24235 50.4018 1.58868L50.3865 1.66407C50.2353 2.39724 49.9691 3.25022 49.3563 3.72048C49.6389 6.05383 49.9907 8.37981 50.4236 10.6889L50.6783 10.7227C54.4564 11.2278 58.2593 11.9224 62.1007 11.5605C64.1703 11.5771 65.5404 10.1483 66.3748 8.37616C66.3183 8.16716 66.2617 7.959 66.2037 7.75C63.5754 6.12611 61.5851 2.83067 62.7693 -0.280163C62.8199 -0.413163 62.9766 -0.422283 63.0573 -0.353122C63.0704 -0.351906 63.0823 -0.341114 63.0814 -0.326522L63.0426 0.280427C62.9598 1.60471 62.923 2.97725 63.634 4.16964C66.4937 3.51178 68.272 5.91726 69.4676 8.19384L70.3266 8.32205C73.6128 8.81455 76.782 9.39761 78.4048 12.794L78.6271 13.2711C80.8944 18.1517 83.0075 23.1702 84.2444 28.4258C84.867 31.2218 85.0924 34.103 86.0058 36.83C87.9025 41.8936 90.5751 46.6523 92.0243 51.8946C92.9235 53.7861 95.4541 68.0245 92.9575 68.1328C92.0597 67.8614 91.1454 67.6418 90.2212 67.4859C90.3637 67.5954 90.4157 67.7816 90.3886 67.9716C90.066 70.2539 90.0418 72.5658 90.0433 74.8673C90.2138 80.4408 90.0609 92.4319 81.7409 90.5072C81.1336 90.2816 81.528 89.299 81.5035 88.6125C81.4561 88.6148 81.4078 88.6139 81.3596 88.6109C80.882 89.9112 80.2122 91.1114 79.7924 92.4329C79.4366 93.5684 79.1879 94.7898 78.692 95.8772C73.4388 114.725 71.2703 134.548 73.3241 154.056C73.4394 155.224 73.5691 156.391 73.7139 157.555C73.6957 158.283 74.5508 161.331 73.7831 161.536C73.7533 161.595 73.6497 161.662 73.5879 161.683C73.1217 162.191 72.3468 162.003 71.7313 162.07C69.5567 162.168 67.3822 162.258 65.2064 162.331C65.3367 163.262 65.2315 164.208 65.1544 165.138C66.7411 165.151 68.1992 166.125 69.6026 166.787C71.6868 167.824 73.7371 168.933 75.7484 170.109C77.6054 171.42 81.7543 172.686 80.3269 175.659C81.3912 176.095 79.9121 177.917 79.1035 177.938C73.8393 177.911 68.6087 176.706 63.4643 175.649C60.5414 174.869 57.352 174.573 54.6479 173.229C53.8803 172.879 54.0411 171.483 54.8854 171.353C54.2584 166.697 56.8035 166.761 57.5192 162.883C57.1027 162.952 56.6425 162.913 56.2249 162.828C55.2578 163.73 55.613 156.627 55.4816 155.933C55.4555 148.649 55.7977 141.35 55.0286 134.091L53.7216 137.974C50.6745 147.035 47.6729 156.121 45.2842 165.385C45.141 165.944 44.5591 166.011 44.1875 165.767C42.6188 165.721 41.0562 165.572 39.5086 165.319C39.4785 166.06 39.4476 166.801 39.4167 167.542C40.0842 167.905 39.6322 170.192 39.7174 170.965C40.44 172.644 37.5114 175.877 36.5485 177.263C34.8314 179.683 33.1271 183.069 29.8066 183.182L29.7055 183.184C27.2272 183.245 24.7265 183.099 22.2723 182.742L22.0074 182.698C21.2987 182.58 20.5054 182.412 20.096 181.773C19.7508 181.235 19.793 180.541 20.2121 180.129C19.6587 178.103 21.813 176.876 23.0163 175.642C25.2641 173.453 27.3071 171.047 29.0738 168.447L29.1753 168.205C29.5027 167.425 29.894 166.56 30.5037 166.186C31.085 165.255 31.5817 164.274 32.1071 163.311C30.6733 162.78 29.2615 162.187 27.8654 161.562C27.5876 161.437 27.4992 161.072 27.5477 160.801L27.5513 160.783C30.2768 146.499 33.5444 132.318 36.086 118.002C37.7092 104.808 38.3747 91.4462 41.7874 78.5425C40.1318 78.3688 38.4839 77.8887 36.8592 77.4784C35.5565 77.1986 34.8978 76.5308 35.1547 75.1384C35.243 73.9009 35.4886 72.6834 35.6213 71.4509C35.2745 71.2061 34.9361 70.9486 34.6067 70.684C33.996 71.1439 33.3659 71.577 32.7184 71.9813C31.1681 73.1081 29.9713 73.2836 29.0135 71.4365C26.2396 67.0138 23.5644 62.5265 21.0397 57.9541C18.698 53.5677 15.7957 49.1904 15.2012 44.1401C14.3377 35.0513 24.9043 20.5066 30.1976 13.12C33.1167 9.56214 36.6719 5.90039 41.2952 4.8658C42.7173 4.65307 44.2165 4.62412 45.5722 4.10352C45.6823 3.43837 45.9918 2.82596 46.6908 2.66317C47.4262 2.49901 48.2146 2.24547 48.9552 2.227C49.1227 2.17935 49.3203 2.14925 49.4972 2.18216C50.0042 0.853454 50.0787 -0.643671 50.6605 -1.94236ZM22.3378 181.18C22.4645 181.243 22.5956 181.298 22.7298 181.346C22.8949 181.369 23.0592 181.39 23.2235 181.409C22.9258 181.342 22.6303 181.266 22.3378 181.18ZM38.7888 168.263C36.3605 169.153 35.6929 164.976 30.9168 166.666C29.0503 170.164 26.6338 173.341 23.8717 176.165C22.89 177.397 19.9842 178.796 21.5501 180.602L21.79 180.646C24.5094 181.146 27.2697 181.542 30.0409 181.316C32.135 180.733 33.7054 179.039 34.9746 177.331C35.8928 175.688 36.967 174.142 38.0635 172.618C38.6664 171.86 38.7275 170.895 38.7247 169.962C38.745 169.395 38.7661 168.829 38.7888 168.263ZM66.068 166.212C65.0369 165.831 63.9794 166.19 63.0415 166.658C61.4394 167.381 57.9695 168.248 56.4872 167.095C55.7604 168.308 55.5167 169.657 55.7161 171.056L55.7183 171.143C55.7351 171.708 55.8135 172.163 56.4939 172.203L58.4259 172.694C64.9433 174.345 71.525 175.942 78.2336 176.402C80.0241 175.273 80.0743 173.79 78.1711 172.756L77.6842 172.455C73.9477 170.148 70.1239 167.88 66.068 166.212ZM80.247 175.81C80.2289 175.841 80.2115 175.872 80.1934 175.902C80.2213 175.916 80.247 175.936 80.2711 175.957C80.2711 175.906 80.2635 175.856 80.247 175.81ZM32.4689 163.444C32.4938 163.957 32.2443 164.536 32.0686 164.996C31.9654 165.268 31.8591 165.657 31.6947 165.968C35.7785 164.752 37.0206 168.315 38.493 167.574L38.5377 167.551V167.55C38.2372 166.857 38.5649 165.881 38.7669 165.19C36.6226 164.799 34.5173 164.189 32.4689 163.444ZM64.7353 162.347L63.558 162.384C61.7268 162.44 59.8952 162.489 58.0626 162.486C58.2544 163.815 57.8792 166.008 57.0269 167.041C57.0254 167.042 57.0239 167.042 57.0232 167.043C59.4354 167.412 61.7199 166.296 63.8684 165.358C63.959 164.339 64.3552 163.3 64.7353 162.347ZM56.8581 166.397L56.638 166.812C56.6696 166.848 56.7058 166.88 56.7442 166.908C56.7219 166.736 56.7828 166.565 56.8581 166.397ZM32.2057 163.349C32.165 163.527 32.1176 163.706 32.0671 163.884C32.144 163.709 32.2315 163.541 32.3377 163.396L32.2057 163.349ZM57.936 162.487L57.8071 162.488L57.8064 162.563C57.8365 162.614 57.8418 162.676 57.8041 162.726C57.7996 162.956 57.7898 163.186 57.7724 163.416L57.8154 163.15C57.8518 162.929 57.8902 162.708 57.936 162.487ZM56.298 162.411L56.3048 162.526C56.4699 162.52 56.6365 162.527 56.8008 162.519C56.8875 162.514 56.9764 162.499 57.0661 162.483C56.8076 162.475 56.5498 162.454 56.298 162.411ZM85.6351 67.1591C85.5537 67.2557 85.4648 67.3142 85.3743 67.3439C85.3751 69.5379 84.9364 71.6956 83.7341 73.5956C83.234 74.2652 82.9514 75.0273 82.7097 75.8217C81.4383 79.4571 81.2022 83.3622 81.6656 87.1692C82.915 85.319 83.4114 83.1112 83.7604 80.9341C83.7793 80.8248 83.9587 80.8262 83.9783 80.9341C84.4005 83.2643 83.6747 85.553 82.8069 87.7066C82.2649 88.0978 82.394 89.1223 82.329 89.725C91.5396 91.0801 88.3367 73.2274 89.5164 67.7291C89.5383 67.5779 89.6657 67.4678 89.8104 67.4214C88.4289 67.2085 87.029 67.1929 85.6351 67.1591ZM42.26 78.1268C42.2713 78.1852 42.2811 78.2438 42.2886 78.3022L42.3384 78.1298C42.3128 78.129 42.2864 78.1282 42.26 78.1268ZM48.4848 2.6124L48.3236 2.65504C46.6217 3.09816 46.0709 3.03733 45.9746 5.11196C45.5563 7.92746 44.0119 10.3833 43.3177 13.1057C43.04 14.0671 43.3337 15.839 44.6503 15.5788C45.0769 15.4465 45.4094 16.0271 45.0867 16.335C44.1332 17.2454 43.2075 18.184 42.2766 19.1166C46.0148 31.8542 50.8709 44.2609 56.7865 56.1308C57.0209 56.602 56.3176 57.0162 56.0848 56.545C50.2039 44.6371 45.3129 32.2345 41.5168 19.4936L41.4021 19.1074C41.2345 18.6382 43.3781 16.9573 43.7684 16.4087C39.8541 14.5046 45.3189 7.83664 45.4674 4.62564C44.3471 5.12283 43.0771 4.94446 41.8937 5.14464C39.6233 5.54668 37.6305 6.87068 35.8592 8.29993C28.6642 14.7136 24.0664 23.5933 19.467 31.9628C16.3347 37.4236 14.8247 44.0993 17.968 49.908C21.6152 57.3557 25.8459 64.5345 30.3191 71.5034C30.8102 72.1484 31.5661 71.4068 32.0837 71.1362C35.0587 69.3314 37.6385 66.8761 39.6225 64.0051C34.8126 58.0473 30.6228 51.5361 27.6598 44.442L27.6189 44.3597C26.9541 43.0108 26.4285 41.3788 27.5375 40.1084C31.4755 35.0164 34.9779 29.6106 38.2738 24.0786C38.3078 24.023 38.3839 24.0718 38.3591 24.1295C38.0206 24.9031 37.6641 25.6708 37.2925 26.4316C38.0431 37.6795 37.9163 49.1473 38.2407 60.4666C39.1159 61.6362 40.0167 62.7861 40.9386 63.9178C43.9291 61.8373 47.447 60.4804 51.0599 60.06L51.2935 60.0363C52.8281 59.8769 55.3627 59.5765 55.564 61.5878C55.3152 64.0621 50.2498 62.671 48.6304 64.0743C51.2851 65.1544 54.3272 65.4588 56.7645 67.087C57.5464 67.5475 59.079 69.0146 57.5817 69.576C56.9284 69.6324 56.2536 69.3763 55.6007 69.3199C56.3355 69.5698 57.0112 69.9931 57.4415 70.6567C57.7513 71.1119 57.9775 72.0566 57.2372 72.2513C55.5498 72.2994 53.8692 71.7439 52.2071 71.4676L52.3548 71.5282C53.5665 72.0289 55.4499 72.9284 53.8179 74.2547C52.1843 75.1084 50.2063 73.6561 48.5791 73.2685C44.196 72.239 40.9535 75.0605 36.4603 72.0057C36.3328 73.0266 36.1413 74.0404 36.0647 75.0669L36.0548 75.1251C35.899 76.0621 36.0324 76.4003 37.0332 76.5794C38.2399 76.9473 39.5037 77.0627 40.7577 77.1311C46.7921 77.4531 52.8667 77.2246 58.8602 76.4443C59.7226 76.2106 61.7485 76.4308 62.109 75.4728C61.4335 50.8134 51.2552 27.6097 48.4525 3.27056C48.4065 3.03648 48.4035 2.79784 48.4848 2.6124ZM65.4974 4.71988C65.0161 4.73979 64.568 4.84513 64.0893 4.89392C64.3544 5.46331 65.7537 6.26876 65.6263 6.55148C65.7273 6.63052 65.8298 6.70652 65.9338 6.78016C65.7891 6.26648 65.6429 5.75348 65.4963 5.23957C70.8138 18.3212 71.5443 33.7988 72.2507 48.0695C72.4835 55.2651 72.6101 62.4829 72.2657 69.674C72.0743 71.5839 71.5677 73.5142 71.7057 75.4431C74.8264 75.8969 77.9923 75.9357 81.1259 75.5998C81.2185 75.3542 81.3234 75.1126 81.4422 74.8753C86.1329 69.0993 83.6454 61.8607 81.3867 55.6041C80.021 55.6625 78.6471 55.575 77.2799 55.592C77.7024 56.9123 77.8113 58.3094 78.0361 59.6747C78.1892 60.6476 78.3845 61.6129 78.6089 62.5711L78.677 62.8587C78.7604 63.2029 78.8624 63.5719 78.7431 63.9117C78.6225 64.2575 78.2064 64.3973 77.9305 64.1282C77.4331 63.5556 77.4865 62.7021 77.326 61.992L77.2963 61.7685C77.0226 59.7295 76.662 57.6142 77.1624 55.5912C76.6713 55.4846 75.3286 55.8758 75.2582 55.2089C75.2789 54.1074 74.4878 51.721 75.3684 50.9955C75.8923 50.592 76.793 50.7196 77.4074 50.6946C78.1175 50.6657 78.8268 50.639 79.5361 50.6436C73.8357 36.7293 75.4209 32.4461 75.9994 18.5983L76.0166 18.1757C76.0151 18.0845 76.1606 18.0617 76.1765 18.1536C77.0481 23.8259 75.8862 29.5688 76.4367 35.2589C77.4142 46.0702 84.1967 55.3525 85.3306 66.1119C87.7761 65.8253 90.2503 66.1768 92.6206 66.7967C92.6703 66.3597 92.7088 65.9211 92.7358 65.4826C93.1859 57.4516 90.396 49.6521 87.1408 42.4492C85.1899 38.6259 83.984 34.5453 83.4793 30.2787C82.4993 24.7215 80.3003 19.4866 78.1083 14.3242C76.7226 10.4643 73.7271 9.55409 70.0126 9.10584C71.2654 11.2034 72.5107 13.3056 73.7538 15.4093C74.0311 16.0455 73.1809 16.4996 72.81 16.8912C77.3732 19.4048 74.7087 27.1667 74.8031 31.516C74.4643 35.5124 74.3366 39.5317 73.7394 43.5004C73.6957 43.7755 73.2781 43.695 73.2742 43.4372C73.3293 37.4907 74.0314 31.5681 74.3394 25.6311L74.3769 25.1983C74.6171 22.3874 74.8522 18.3324 71.5059 17.5608C71.0544 17.4863 71.0197 16.8084 71.3823 16.6048C71.8647 16.3334 72.2876 16.002 72.6659 15.6076C71.3876 13.4409 70.1114 11.2726 68.8466 9.09664L68.7872 8.99551C67.8887 7.45591 67.0542 5.66432 65.4974 4.71988ZM54.6389 61.437C54.2698 60.3388 50.6872 61.054 49.7309 61.1734C46.2046 61.846 42.6557 63.4222 39.9699 65.8497C39.8041 65.9994 39.6081 65.9971 39.4536 65.9158C38.2506 67.4681 36.8614 68.8748 35.3379 70.111C35.6167 70.3329 35.9032 70.548 36.1979 70.7539C36.3389 70.7691 36.4663 70.8429 36.5236 70.9751C40.7155 74.0431 43.7993 71.65 48.154 72.2026C49.7798 72.5338 51.2771 73.5783 52.9526 73.6222C54.1822 73.3398 53.0995 72.8207 52.5252 72.6198C51.2249 71.9928 49.8992 71.4212 48.5708 70.8575L47.5079 70.4074C46.9856 70.1862 47.165 69.389 47.7484 69.528C48.7698 69.7712 49.7942 70.0023 50.8194 70.2297C52.7908 70.6358 54.8094 71.1569 56.8015 71.3544C56.3587 70.1111 51.66 68.7684 50.2939 68.2742C49.7779 68.028 48.3064 68.0749 48.4744 67.267C48.6101 66.5153 50.1759 67.3761 50.698 67.4373C52.8292 67.9834 55.0046 68.3143 57.1762 68.6472C54.8436 66.2835 51.228 66.0795 48.2489 64.9726L48.1671 64.9538C47.6373 64.8292 46.9117 64.5943 47.3423 63.9863C48.8726 61.7072 54.8951 62.8603 54.6389 61.437ZM50.2315 48.7459C51.3179 47.8455 51.8999 49.6948 51.831 50.5547C51.8822 51.2684 51.9373 51.982 51.9834 52.6956C51.9157 53.2535 52.5045 55.2881 51.7172 55.3062C48.275 55.1297 44.8387 55.1743 41.3953 54.965C41.3909 55.6665 41.357 56.3671 41.3924 57.0694C41.3737 57.9475 41.6758 58.8247 41.4994 59.693C41.3916 60.092 40.8542 60.1459 40.6444 59.8054C40.0154 58.3109 40.4479 56.3831 40.8933 54.8715C39.2073 54.5567 38.9747 52.9559 39.419 51.5275L39.4143 51.4501C39.3896 51.0095 39.3915 50.5369 39.5862 50.1808C40.107 49.5615 41.1869 49.9638 41.9042 49.9172C44.1029 49.6882 46.3421 49.6249 48.515 49.217C49.0775 49.0701 49.6513 48.7737 50.2315 48.7459ZM36.5635 27.8786C34.8518 31.179 32.8824 34.3193 30.7857 37.377C30.3364 38.0299 29.8751 38.6744 29.4064 39.3142L29.3486 39.3891C28.4032 40.6074 27.401 41.6082 28.2952 43.2191C30.6142 48.9081 33.7191 54.2506 37.3166 59.2088C37.0888 48.7652 36.8875 38.3188 36.5635 27.8786ZM79.5994 50.8108C75.2986 51.7211 75.2181 50.0164 75.936 54.841C77.6609 54.853 79.3848 54.8138 81.1101 54.8419C80.6171 53.4944 80.106 52.153 79.5994 50.8108ZM50.7304 49.4481C48.4842 50.2365 46.0993 50.124 43.7533 50.221C43.758 50.7304 41.3579 50.2576 40.8972 50.3275L40.737 50.3136C40.3535 50.2815 39.8604 50.2691 39.8561 50.7478C39.9783 51.573 39.5185 52.4768 39.8033 53.2877C40.1878 54.3798 41.8325 54.2673 42.7401 54.2886C44.2365 54.3228 45.7327 54.3592 47.2291 54.3988C48.5731 54.4345 49.9216 54.5021 51.2664 54.512C51.1458 53.5453 51.1126 52.5542 51.0396 51.5883C50.9475 50.8937 51.0803 50.0705 50.7304 49.4481ZM60.1755 52.96C60.1778 52.9722 60.1801 52.9844 60.1831 52.9973C60.2006 52.9928 60.2186 52.9886 60.2368 52.9847L60.2645 52.979V52.9783C60.2351 52.973 60.2049 52.967 60.1755 52.96ZM66.6899 9.54892C65.7185 11.2307 64.1083 12.3109 62.1686 12.3267C58.7643 12.5247 55.3151 12.2972 51.9976 11.483C51.5099 11.36 50.9272 11.2528 50.4787 10.9838C53.0399 24.9999 57.1804 38.6538 60.1002 52.5892C62.2147 52.7773 64.3227 52.7576 66.4419 52.6569C68.0774 52.6319 69.7293 52.8093 71.3536 52.5641L71.303 50.8339C70.8931 36.9851 70.3226 22.969 66.6899 9.54892Z" fill="black"/>
</g>
<defs>
<clipPath id="clip0_43_44">
<rect width="124" height="190" fill="white"/>
</clipPath>
</defs>
</svg>
