<svg width="124" height="189" viewBox="0 0 124 189" fill="none" xmlns="http://www.w3.org/2000/svg">
<g clip-path="url(#clip0_43_104)">
<path fill-rule="evenodd" clip-rule="evenodd" d="M39.6645 76.7386C39.5941 77.0888 39.488 77.4679 39.3775 77.8078C39.9281 78.3392 40.7073 79.0515 41.2665 79.5662C40.7134 76.1396 42.3963 72.9771 43.4264 69.7359C43.0379 69.2362 41.6848 68.7249 41.7284 68.1709C41.8328 66.1186 41.9868 63.828 42.209 61.2587C42.9611 53.235 43.7093 44.8675 41.9343 36.8194C41.813 35.9446 41.629 35.0247 40.4591 35.0044C37.0038 48.7966 39.8037 62.6831 39.7275 76.5624L39.828 76.6527L39.6645 76.7386ZM34.4902 189.744C31.651 189.744 29.0411 189.227 26.5144 188.179C25.7852 187.922 24.8794 187.602 24.7531 187.085C24.5454 185.668 24.6892 184.275 24.8414 182.801C25.0821 180.273 25.0581 178.307 25.7385 175.585C26.4666 173.056 27.0872 171.08 26.3766 168.465C26.3197 167.687 26.9266 166.895 27.3276 166.167C27.8952 165.105 28.1832 163.999 28.634 162.909C27.7483 162.754 26.8286 162.541 25.9783 162.277L25.8355 162.793C25.8041 162.906 25.7177 162.963 25.5787 162.963C25.4927 162.963 25.2726 162.922 25.2405 162.737C25.3739 160.746 25.5672 158.766 25.7702 156.743C27.878 137.258 31.0696 121.196 36.4295 105.177C37.7168 101.426 39.0318 97.5201 39.0411 93.4439C38.3093 93.2865 37.4942 93.1961 36.7482 93.2996C31.4333 92.0644 32.4839 80.7886 32.6954 77.414C32.3205 77.301 31.901 77.1413 31.59 76.9272L31.4642 76.9889C26.1865 63.8525 28.3539 42.1335 29.5611 27.5324C30.3532 22.284 29.239 12.8035 33.8791 10.2099C37.6254 8.87938 41.3552 8.13155 45.2701 7.25406C45.9951 6.83667 46.8899 6.59846 47.6988 6.32834L47.2809 5.73911C46.7328 4.96459 46.8057 3.44548 47.5227 2.91167C47.9633 2.93617 48.5824 3.38001 49.0034 3.58844C49.6091 2.33242 50.1698 1.01865 50.5722 -0.490555L50.7168 -0.438618C51.1402 -4.70745 56.6593 -5.45249 59.7712 -4.02599C63.1682 -2.1558 61.3989 2.07493 62.9434 5.12902L63.5031 4.38065C64.3676 4.36463 66.1961 5.5012 66.6364 5.92781C66.9516 6.07515 66.7236 7.06695 66.7695 7.46589C71.3266 8.5007 77.5644 8.78481 79.0129 13.9146C81.4228 23.5606 81.084 33.4495 83.8184 43.0613C86.681 50.8526 90.8853 60.3862 90.9206 67.5215C91.0023 68.8588 91.1817 76.4222 90.078 76.1182L89.3496 76.8471C90.342 78.4357 89.5541 80.8133 89.1739 82.6943C88.2373 86.6855 86.4069 90.986 82.4973 89.0733C78.2924 112.359 67.724 135.849 71.3292 159.866C71.3724 160.007 71.2848 160.161 71.1348 160.099L70.9572 160.017C70.4987 160.16 69.9168 160.209 69.438 160.317C69.8455 161.848 70.064 163.36 70.2755 165.054C70.532 165.208 70.4123 165.613 70.4254 165.859C74.251 165.675 76.3967 169.692 79.1403 171.902C80.9518 173.523 83.0149 175.066 85.2726 176.489C87.1382 177.552 88.7124 178.769 88.4289 180.777C88.4559 180.774 89.0315 180.685 89.0597 180.682C89.9276 183.578 87.078 184.177 84.1433 184.526C76.9718 185.249 70.8414 183.651 62.5385 180.623C61.5202 180.744 60.7266 179.226 60.5911 178.196C60.457 177.506 60.8382 176.805 60.5473 176.062C59.5461 173.928 59.0249 168.281 60.4365 165.747C60.9319 165.172 61.5674 164.642 61.485 163.651C61.4619 162.658 61.3688 161.666 61.4526 160.691C59.7559 160.526 58.0764 160.159 56.5962 159.565C56.3342 159.666 56.0366 159.541 56.0183 159.212C55.7343 154.672 55.3943 149.711 55.3208 145.063C54.9797 134.948 57.2863 125.078 59.0515 115.267C59.174 112.12 59.7533 109.08 59.9359 105.931C60.1323 102.945 60.167 100.022 60.3379 97.0399L59.3192 96.8181C50.8619 118.685 44.2389 140.57 39.6033 161.985C39.7082 162.075 40.0062 162.176 39.9935 162.358C39.99 162.456 39.9924 162.462 39.9259 162.472C38.806 162.698 37.6976 162.863 36.5878 162.992C36.9007 165.664 35.2314 168.753 36.7087 171.256C37.1011 171.859 37.118 171.985 36.8776 172.4C39.0298 176.417 40.3637 179.76 41.2281 183.352L41.7851 182.879C42.5926 183.468 42.6093 184.579 42.627 185.753C42.5695 186.437 42.9026 187.154 42.3924 187.73C41.1642 189.169 36.8838 189.736 34.4902 189.744Z" fill="white"/>
<path fill-rule="evenodd" clip-rule="evenodd" d="M50.2202 -1.13379C50.8073 -0.656829 50.1949 2.7835 49.7219 3.48545C52.9213 5.55215 56.1543 7.57138 59.4547 9.46426L59.7964 9.65962L59.7858 9.6566C59.923 9.71829 60.1548 9.77302 60.2909 9.74588L60.3842 9.71486C60.4034 9.70872 60.4146 9.70591 60.4092 9.71027C60.4643 9.68087 60.5178 9.64987 60.5698 9.61434C61.5108 8.75325 62.1964 7.29372 62.9337 6.15866C61.6786 5.04802 62.3041 2.88352 62.3548 1.40486C62.5921 1.39896 62.62 2.15428 62.688 2.37337L62.7262 2.58234C62.8167 3.07163 62.9198 3.57024 63.1063 4.02515C63.6491 3.3353 66.3973 4.96516 66.9122 5.4896C67.473 5.84825 67.301 6.48616 67.2937 7.04696C72.509 8.06492 79.1595 8.781 79.8603 15.3485C80.6849 18.8716 81.1254 22.4576 81.5329 26.0483L81.5992 26.6213C82.3116 32.7998 82.9439 39.0551 84.9551 44.9709L85.7235 46.8095C87.3862 50.797 89.0081 54.8173 90.0697 59.0129C90.8928 60.8033 93.0845 77.8913 89.7878 76.5732C90.915 78.4184 90.0712 80.8464 89.6799 82.8192C88.8687 86.057 87.2496 91.3484 82.8936 89.7881C79.6089 107.4 73.1027 124.368 71.4577 142.287C70.9236 148.111 70.9348 154.005 71.842 159.793C71.9645 160.343 71.4406 160.829 70.9051 160.588C70.6362 160.665 70.3517 160.688 70.076 160.74C70.3935 162.022 70.5795 163.36 70.7485 164.67L70.7672 164.815L70.7679 164.816C70.8998 164.963 70.9645 165.148 70.9587 165.359C72.9488 165.366 74.6139 166.655 75.9398 168.024C78.2391 170.438 80.6668 172.74 83.4183 174.635C85.3879 176.241 88.8432 177.182 88.9541 180.169C89.9595 179.998 89.7189 182.202 89.5406 182.784C89.3318 183.437 88.7249 183.813 88.1429 184.103C79.774 186.917 70.5558 184.177 62.599 181.155C61.2045 181.34 60.2079 179.489 60.0588 178.268C59.9069 177.594 60.2637 176.939 60.0557 176.283L59.9871 176.102C59.7367 175.442 59.5 174.797 59.3575 174.098L59.3366 173.952C58.9973 171.537 58.7241 167.446 60.0142 165.425C61.5188 164.131 60.74 162.891 60.8909 161.167C59.4052 160.997 57.936 160.66 56.546 160.123C55.998 160.24 55.5198 159.795 55.4836 159.262L55.43 158.409C55.1495 153.971 54.8575 149.527 54.7845 145.08C54.4413 134.988 56.7207 125.112 58.5155 115.255C58.6921 111.455 59.4151 107.702 59.5167 103.893C59.5929 101.598 59.6876 99.3083 59.8024 97.0169C51.6627 118.06 44.9823 139.69 40.1878 161.748C40.6288 162.048 40.677 162.867 40.0205 162.998C39.0601 163.19 38.093 163.348 37.1221 163.466C37.2775 165.835 35.8731 169.039 37.1741 171.047L37.226 171.127C37.4729 171.512 37.7145 171.951 37.4621 172.398C39.1529 175.582 40.6186 178.904 41.5205 182.411C42.5508 181.987 43.1379 184.088 43.1074 184.847C43.0412 185.842 43.5758 187.519 42.7206 188.199C38.2288 191.104 32.1311 190.653 27.2352 189.045C26.3271 188.654 25.2864 188.388 24.508 187.764C24.1552 187.405 24.1794 186.815 24.1506 186.348L24.1419 186.107C24.0957 184.764 24.1002 183.396 24.4666 182.074C24.3686 180.158 24.6535 178.217 25.0289 176.343C25.2693 174.83 25.9615 173.392 26.0547 171.866C26.5461 170.499 25.6598 169.222 25.898 167.856C26.0924 167.024 26.7017 166.305 27.0545 165.53L27.0792 165.475C27.3985 164.77 27.6272 164.04 27.9039 163.317C27.374 163.216 26.8508 163.091 26.3352 162.942C26.0886 163.838 24.661 163.585 24.7033 162.671C25.8757 147.931 28.2056 133.273 31.8121 118.933C33.4947 110.452 37.8399 102.544 38.4948 93.8887C37.9734 93.7905 37.3795 93.7654 36.8687 93.8245L36.8078 93.832C36.4814 93.8727 36.1678 93.9302 35.8178 93.7647C31.3274 90.9827 31.789 82.4582 32.1297 77.7927C31.9269 77.7246 31.7332 77.6407 31.5568 77.5356C31.4008 77.6521 31.1641 77.6588 31.0729 77.4442C30.843 76.9021 30.5475 76.3729 30.3476 75.8218C25.1446 57.8753 28.467 38.9633 29.5145 20.6692C29.9227 16.9108 29.9258 11.8079 33.6478 9.73673C34.8969 9.14327 36.3065 8.8885 37.6377 8.54619C40.6926 7.63226 43.8835 7.22281 46.8423 6.0535C46.1539 5.09414 46.3176 3.69501 46.8913 2.73013C47.3462 2.03559 48.2195 2.56698 48.7593 2.86243C49.3823 1.58516 49.8097 0.223458 50.2202 -1.13379ZM41.709 183.231L41.7365 183.359C41.8823 184.047 42.0082 184.769 41.9351 185.468C43.8703 187.36 34.9529 187.6 33.9689 187.596C31.7172 187.573 25.097 186.82 24.7696 184.097L24.7734 184.162C24.8172 185.028 24.6708 186.645 25.1405 187.286C28.6904 189.138 32.8209 189.871 36.7943 189.415L36.937 189.396C38.521 189.177 41.5292 188.535 42.3107 187.21C42.1379 185.977 42.5621 184.21 41.709 183.231ZM35.2874 170.998C33.1141 168.625 29.5443 170.36 27.2526 171.683C27.1661 172.722 26.4399 173.105 26.4105 174.195C25.9222 177.524 24.797 181.288 26.2305 184.503C30.5036 186.797 35.5852 186.642 40.2082 185.654C40.3292 185.496 40.4821 185.449 40.7004 185.389C40.8379 184.413 40.56 183.433 40.3763 182.486C39.914 180.496 39.316 178.541 38.7842 176.569C37.8312 175.952 37.4829 174.655 36.9857 173.677C36.8507 173.402 36.7128 173.128 36.5681 172.856C35.7922 172.601 35.5891 171.672 35.2874 170.998ZM60.7635 177.544C60.5298 179.937 62.857 180.891 64.7383 181.465C66.8557 182.22 69.0252 182.847 71.2066 183.389C75.6758 184.544 80.335 185.05 84.9161 184.326L84.9957 184.312C86.3174 184.078 88.6852 183.798 88.9858 182.263L88.989 182.228C89.0094 181.976 89.0484 181.029 88.9541 180.787C88.9194 180.786 88.8855 180.779 88.8531 180.763C88.4702 181.991 87.0749 182.738 85.7301 182.931C85.0959 183.57 83.9275 183.333 83.082 183.37C77.5013 183.314 72.1361 181.581 66.848 179.97C65.1654 179.383 61.8113 178.963 60.7635 177.544ZM61.2429 165.226C60.2744 164.883 60.0904 167.605 59.9666 168.269C59.6545 171.079 59.6617 175.461 61.9296 177.454C64.2959 178.47 66.8497 178.937 69.2905 179.737L69.8681 179.907C74.4946 181.266 79.249 182.536 84.1049 182.336C84.4713 181.601 86.7964 182.212 87.6833 180.902C88.8727 178.822 85.8692 177.482 84.4479 176.596C81.7185 174.838 79.169 172.795 76.8699 170.499C75.789 169.421 74.8 168.185 73.5306 167.318L73.4644 167.274C72.3768 166.55 70.9808 166.102 69.7036 166.577C68.4598 167.038 68.003 168.464 66.9598 169.2C64.6351 170.711 62.2543 168.322 61.499 166.16L61.4766 166.095C61.4495 166.028 61.5233 165.987 61.5791 166.005C61.5738 165.984 61.5701 165.962 61.5656 165.941C61.2723 165.864 61.2445 165.497 61.2429 165.226ZM28.1783 163.368C28.482 165.09 27.6263 166.635 26.9879 168.158C26.816 169.168 27.4477 170.136 27.3016 171.163C29.3916 169.517 32.5547 168.058 35.0763 169.561C35.0899 168.11 35.5879 166.701 36.0208 165.328L36.1965 164.784C36.3335 164.361 36.4728 163.94 36.6269 163.524C33.8191 163.818 30.9765 163.847 28.1783 163.368ZM69.3026 160.858C66.8451 161.198 64.3608 161.394 61.8867 161.257L62.1678 165.536C62.1792 165.712 62.1053 165.833 61.996 165.903C62.3607 167.293 63.509 168.531 64.9328 168.832C67.1318 169.117 67.4276 166.192 69.295 165.651C68.9374 164.845 69.1936 163.786 69.1586 162.909C69.1782 162.219 69.2136 161.535 69.3026 160.858ZM61.2105 164.731C61.163 164.829 61.1072 164.921 61.0462 165.009C61.111 165.015 61.1736 165.035 61.2324 165.071C61.2256 164.958 61.2181 164.845 61.2105 164.731ZM39.079 77.5319C36.9282 78.2793 34.5813 78.4323 32.3656 77.8644C32.8517 81.5182 33.3398 90.1732 36.4361 92.2837C36.9593 92.2081 37.4847 92.171 38.0131 92.224C38.3274 92.2553 38.6384 92.3062 38.9501 92.3547C39.0671 92.371 39.3004 92.3833 39.4493 92.3727L39.4747 92.3706C39.4353 92.3735 39.4045 92.3729 39.4459 92.3701L39.5094 92.3668L39.5419 92.3643C40.6155 92.2675 41.5844 90.7463 42.6467 91.4763C42.8027 91.2394 43.0384 91.0875 43.2196 90.8767C44.0258 89.4603 43.1693 87.6373 43.708 86.1442C43.5045 85.8652 43.5716 85.4472 43.8912 85.2083C44.3893 84.7492 45.4422 85.091 45.729 84.4318C45.7093 84.4676 45.7079 84.4263 45.7156 84.4047L45.7174 84.4002L45.6668 84.3582C43.4664 82.5304 41.3389 80.488 39.8969 77.9524L39.8486 77.8667C39.5728 78.1352 39.1194 77.9301 39.079 77.5319ZM89.3205 76.292C87.8053 77.1236 86.1741 77.7261 84.4818 78.0746C84.1342 81.4134 83.7347 84.7537 83.1898 88.0652L83.3189 88.0884C84.0746 88.2271 84.8707 88.4141 85.5236 87.8913C87.673 85.7955 88.4477 81.5804 89.2918 78.7338L89.3251 78.6042C89.5025 77.9061 89.706 76.9403 89.3205 76.292ZM67.2892 7.28057C67.0634 8.41389 68.3084 20.7531 66.0378 18.6425C64.5012 16.2213 62.7433 13.9556 61.1721 11.5595C60.9557 12.4161 61.589 13.4339 61.2897 14.1602C65.2883 34.2627 68.1892 54.675 69.2641 75.1535C71.0314 76.3986 72.5811 77.9082 74.1004 79.4378C74.5739 79.8417 74.9176 80.502 75.5056 80.7343C77.8924 78.0266 80.6496 75.6794 83.1589 73.0895C83.1355 72.9119 83.1091 72.735 83.079 72.5581C82.9539 71.8225 83.8969 71.4498 84.261 71.9011C85.0221 69.9624 85.0932 67.6836 84.9047 65.6036C84.5346 62.1071 83.2343 58.7664 82.3053 55.3969C79.6279 45.0889 77.775 34.2751 78.6519 23.6041C78.6647 23.505 78.7959 23.5036 78.8075 23.604C79.5351 34.8777 80.6689 46.1827 84.0476 57.0186L84.128 57.2864C85.4481 61.6661 87.081 66.3086 85.951 70.9017C86.0447 71.5201 85.7489 72.1362 85.3019 72.5807C85.1029 73.0638 84.8813 73.5424 84.6183 73.993C84.7089 75.039 84.6651 76.0873 84.573 77.1281C86.3097 76.7554 87.9297 76.042 89.4787 75.1822C89.5707 74.6575 89.6514 74.1313 89.7139 73.6029C90.9163 63.803 87.2488 54.2725 83.5795 45.3762C80.0832 35.0086 80.7659 23.7573 77.8439 13.2694C75.9952 9.17971 70.9458 8.85826 67.2892 7.28057ZM47.4703 6.52079L47.35 6.56293C46.5082 6.86045 45.6641 7.2052 44.7641 7.23067C41.9395 8.1736 39.0433 8.89759 36.172 9.68456L35.8942 9.76093C34.6685 10.0989 33.4307 10.4852 32.6038 11.5179C31.8108 12.5082 31.4792 13.7836 31.22 15.0015C30.0056 25.6437 29.3176 36.3934 28.7006 47.0991C28.3981 56.0129 28.5705 65.0758 30.8414 73.7495C31.162 74.938 31.5521 76.1302 31.6902 77.3512C31.8553 77.3534 32.0211 77.3648 32.1877 77.3813C32.1902 77.3016 32.3111 77.3147 32.3023 77.3927C34.5089 77.742 36.8024 77.5354 38.8732 76.6768C38.3616 61.0616 35.0371 44.1139 42.5675 29.6279C42.5985 29.5727 42.6919 29.6105 42.6708 29.6717L42.4852 30.209C41.8879 31.9402 41.3043 33.6741 40.8843 35.4596C41.4828 35.3704 41.9193 36.7767 42.0324 37.1213C45.2963 47.0625 43.2861 57.6705 42.8706 67.88C48.49 71.979 54.1645 76.0106 60.0044 79.7885C62.6569 78.0593 65.0327 75.7916 67.758 74.2235C66.9791 53.1313 62.6891 32.2624 60.3572 11.4309C59.4922 12.5092 58.6115 13.575 57.7317 14.641C56.6003 16.0343 55.5065 17.4639 54.3909 18.8707C54.1602 19.1626 53.6574 19.0492 53.4931 18.7551C51.2959 14.7717 49.8988 10.3724 47.4703 6.52079ZM40.8466 35.6185C37.6048 49.0066 40.2983 62.7938 40.2474 76.3343C40.4885 76.5483 40.3991 76.954 40.1177 77.1009C40.0762 77.2876 40.0272 77.4728 39.97 77.6581C40.1961 77.8735 40.4237 78.0874 40.6537 78.2991C40.4788 75.3515 41.9577 72.6737 42.8148 69.9061C42.1986 69.3547 41.0441 69.0131 41.1979 68.0063C41.317 65.8169 41.4693 63.6289 41.6538 61.4449L41.7678 60.2221C42.4862 52.4702 43.0967 44.5922 41.4075 36.9263L41.3974 36.8681C41.3423 36.5327 41.2368 35.6866 40.8466 35.6185ZM89.4659 76.2126L89.4395 76.2269L89.4983 76.2768C89.4863 76.2565 89.4757 76.2346 89.4659 76.2126ZM70.0752 71.6509C69.3237 70.9124 70.4837 69.741 71.2255 70.4973C71.9761 71.2372 70.8154 72.4084 70.0752 71.6509ZM69.5799 62.867C69.4139 62.4302 69.8756 61.7372 70.3639 62.0276L70.379 62.0368L70.3858 62.0278C70.8478 62.3014 70.6775 62.8685 70.4061 63.2064C70.1054 63.5171 69.731 63.1481 69.5799 62.867ZM68.8744 52.7539C67.5674 51.0366 70.3134 50.3321 69.8634 52.4462C69.7674 52.8416 68.9768 53.4184 68.8744 52.7539ZM66.9416 43.1853C66.248 42.335 67.7393 41.6031 68.0512 42.6182C68.2299 43.2955 67.3876 43.713 66.9416 43.1853ZM73.8819 22.0906C74.2926 22.1545 76.3692 21.729 75.835 22.5963C76.6705 26.7837 79.0202 31.8924 75.6654 35.5513L75.6355 35.5808C75.1407 36.0766 74.3494 37.2549 73.5923 36.7692C71.9117 35.3473 69.7463 34.3313 68.4619 32.5113C67.922 31.0837 68.3818 29.4884 68.2389 27.9949C68.1779 26.1057 67.8643 24.2338 67.7971 22.3476C67.7942 22.2561 67.8929 22.2266 67.9548 22.2652C69.9256 22.108 71.9068 22.1429 73.8819 22.0906ZM68.0218 22.3975C68.9134 25.3086 68.9336 28.4211 68.9098 31.4385C68.9237 31.7496 68.9786 32.0522 69.1403 32.2899C70.4149 33.7974 72.231 34.7421 73.7439 35.9942C74.3565 35.5928 74.8415 35.0798 75.2757 34.498C77.9343 31.0084 75.5252 26.616 75.5282 22.7302L75.1874 22.7309C72.801 22.734 70.392 22.7026 68.0218 22.3975ZM66.0156 33.209L66.0386 33.2091C66.953 33.2114 66.7433 34.7657 65.8803 34.5525C65.1528 34.3798 65.264 33.2184 66.0156 33.209ZM64.2219 25.2756C63.5883 24.1928 65.679 23.774 65.4589 25.0246L65.4637 24.9733C65.4646 24.9634 65.4655 24.9546 65.4664 24.9467L65.4506 25.0639C65.3745 25.617 64.2858 26.0134 64.2219 25.2756ZM62.8183 16.308C63.3994 16.1537 63.8281 16.9723 63.3295 17.3391C62.5887 17.8998 61.9507 16.503 62.8183 16.308ZM48.5723 3.62455L48.5014 3.5588C47.7432 2.86045 47.1748 2.51121 47.0067 3.93443C46.8896 4.62852 46.9901 5.50389 47.6534 5.9144C50.8294 9.0642 52.0332 13.5611 54.0796 17.4351C55.9274 15.1902 57.6473 12.8533 59.4346 10.5631C56.9724 9.05822 54.4859 7.5649 52.0571 5.99453C50.8963 5.22047 49.6472 4.5158 48.5723 3.62455ZM64.5604 5.48129C63.6052 7.04522 62.7232 8.73677 61.5053 10.1208C61.35 10.2773 61.1887 10.4013 61.0221 10.4958C61.2605 10.4267 61.5759 10.6056 61.546 10.8678C63.319 12.6406 64.7684 14.7028 66.1532 16.7895C66.418 13.3376 65.9133 9.87138 66.1087 6.41419C65.6587 5.99915 65.1227 5.71489 64.5604 5.48129Z" fill="black"/>
</g>
<defs>
<clipPath id="clip0_43_104">
<rect width="124" height="189" fill="white"/>
</clipPath>
</defs>
</svg>
