<svg width="123" height="189" viewBox="0 0 123 189" fill="none" xmlns="http://www.w3.org/2000/svg">
<g clip-path="url(#clip0_43_120)">
<path fill-rule="evenodd" clip-rule="evenodd" d="M90.6416 179.443C91.1677 176.967 88.7611 176.129 87.2439 175.578C86.1572 174.866 82.1305 172.397 79.0149 169.35C76.4654 166.857 74.7298 163.662 74.0073 163.357C73.5116 163.066 73.238 162.813 73.1865 162.597C72.7339 160.698 73.1114 158.929 73.1865 157.778C74.6369 157.393 75.7992 156.913 76.6684 156.241C76.9219 156.326 77.3019 156.436 77.4151 156.061C78.2007 150.762 78.5398 145.525 79.1789 140.222C81.5983 120.023 81.8712 96.4254 77.709 77.9767C77.6652 77.0622 77.7441 76.2364 77.8248 75.4507C78.3876 75.3892 78.7279 74.8384 79.1875 74.5091C79.9007 73.936 80.7453 73.4956 80.7104 72.4939C80.8798 72.3641 80.8601 72.2912 80.7766 72.1259C81.3206 69.7604 78.8939 67.2677 78.2076 65.3175C79.4551 52.9801 77.7577 41.3214 78.7046 28.981C79.9008 28.4749 79.0966 25.312 79.0149 24.0074C78.3523 15.6026 74.0311 7.2928 66.2496 4.54709C65.8048 4.45591 65.1361 3.94183 64.768 4.28702C64.0567 4.00209 63.1102 4.56387 62.5596 3.91711L62.5652 3.91288C62.1016 3.26294 61.8938 2.43671 61.7414 1.65546C61.7669 1.87561 61.8095 2.09394 61.8619 2.30736C60.5204 -1.51528 60.1824 -2.53739 55.8638 -2.71739C53.9185 -2.7437 51.3541 -2.68466 50.2198 -0.808721C49.755 0.0633251 49.897 1.06465 49.6085 1.98258C49.079 3.66703 46.7932 2.85304 45.5932 3.72773C35.9889 6.8423 28.111 13.1997 25.5215 23.4036C24.9922 24.6335 24.3917 25.8575 23.9492 27.1268C23.8807 27.3152 23.6922 27.9527 24.1448 28.2461L24.3636 28.388C21.4809 42.0112 21.2896 53.4906 30.9746 62.5727C31.7014 66.4752 29.8317 71.8046 30.5504 75.5937C30.1409 76.1812 30.6602 76.6544 31.1837 76.6921C31.2342 76.7204 31.4382 76.8107 31.4938 76.8365C30.6606 88.7291 34.1588 104.757 35.7007 111.083C35.9106 114.881 34.6285 118.001 31.991 120.071C29.0769 121.886 23.3157 130.082 24.3837 138.679C23.1356 138.926 21.8964 139.062 20.699 139.537C15.4594 138.602 15.5114 148.814 15.1775 152.405C14.6121 158.418 14.2607 167.132 19.9099 170.981C21.3982 172.072 24.4158 173.35 25.9622 171.603C26.4689 170.988 26.5958 170.393 26.3965 169.765C28.9499 166.117 28.2618 161.346 28.4963 157.068C29.2368 157.023 30.0115 157.374 30.7278 157.246C31.4629 156.591 28.781 156.769 28.5029 156.731C28.5313 156.071 28.5838 155.376 28.6516 154.711C29.0722 154.796 29.6111 155.001 30.0156 155.016C30.2551 155.075 30.4243 154.742 30.2797 154.569C29.9641 154.265 29.1591 154.312 28.7062 154.269C28.7827 153.712 28.8762 153.126 28.9801 152.588C29.5343 152.568 30.1065 152.925 30.6312 152.852C30.2341 152.584 29.4886 152.665 29.0046 152.488C29.3194 150.754 29.9608 149.108 30.5571 147.485C32.0202 148.096 33.2824 148.12 34.7108 147.937C35.2951 148.028 35.58 147.907 35.6745 147.168L35.6372 147.121C36.7694 140.272 40.4226 133.742 47.2084 126.337C48.5487 124.82 50.0634 123.034 51.0726 121.038C53.1005 116.883 53.4468 112.298 55.0093 107.982C56.4681 103.645 58.4628 99.4963 60.3356 95.3847C60.6103 97.4919 60.9792 99.6536 61.3627 101.72C63.0506 109.042 62.887 116.854 61.6448 124.217C59.8069 134.529 60.6928 144.89 60.284 155.275C60.2896 155.874 60.3631 156.418 60.2762 157.042C60.2647 157.09 60.2871 157.146 60.3433 157.145L60.4494 157.148C61.3328 157.802 62.5528 157.92 63.5908 158.275C64.0267 158.624 63.9039 159.176 63.9438 159.607C64.0579 161.465 64.2037 163.329 64.0227 165.244C63.2218 166.796 62.2271 166.475 62.0236 168.663C61.8455 171.16 61.5304 173.815 62.7332 176.039L62.2781 176.118C61.6028 177.551 62.0151 178.482 63.6023 179.088C71.4383 182.194 82.4646 185.014 90.6416 182.67C90.7902 182.819 91.0063 182.664 91.1753 182.43C91.3377 182.205 91.4566 181.906 91.4302 181.733C91.2904 180.972 91.4826 179.584 90.6416 179.443Z" fill="white"/>
<path fill-rule="evenodd" clip-rule="evenodd" d="M90.9775 181.931C83.9361 185.128 71.1501 181.094 64.2314 178.76C62.366 178.079 61.7445 177.946 62.2672 175.771C63.2452 177.68 65.3485 178.141 67.3636 178.523C74.1896 180.097 81.1486 183.001 88.4487 181.584C89.5202 181.413 90.5804 180.827 90.8922 179.744C91.0844 180.203 90.9655 180.824 91.0425 181.329C91.0567 181.53 91.0611 181.748 90.9775 181.931ZM62.499 170.039C62.6261 168.758 62.8295 167.404 63.551 166.271C63.4725 168.103 64.5604 171.216 66.9442 170.179C67.6194 169.817 67.9978 169.089 68.4321 168.504C69.876 166.579 71.7273 164.908 73.8188 163.693C74.9822 163.895 75.4825 166.046 76.2324 166.947C75.3964 167.324 73.8815 168.182 73.7283 169.069C74.7721 168.714 75.7329 168.053 76.8276 167.821C77.1782 168.31 77.5499 168.785 77.9402 169.243C77.4302 169.47 75.374 170.521 75.3875 171.046C76.4993 170.863 77.5768 170.313 78.6946 170.087C79.1918 170.585 79.6443 171.122 80.1392 171.622C79.3915 171.933 78.6019 172.281 78.1936 173.007C78.1743 173.04 78.222 173.076 78.2483 173.045C78.8083 172.362 79.7721 172.237 80.6073 172.083C81.8889 173.303 83.3238 174.379 84.9298 175.185C86.5367 176.073 88.9788 176.276 89.618 178.203C90.1295 180.13 88.5346 180.336 87.0631 180.472C85.5744 180.686 84.0752 180.718 82.5962 180.593C77.9731 180.398 73.6026 179.022 69.2337 177.82C63.8921 176.826 62.1588 176.021 62.499 170.039ZM72.6957 163.076C70.6491 164.606 68.6512 166.311 67.2298 168.446C66.2892 170.182 65.0375 169.125 64.7265 167.734C64.4745 164.628 64.6913 161.946 64.396 158.821C67.2261 159.211 70.1332 158.971 72.8975 158.281C72.5649 159.676 72.4123 160.205 72.4018 161.636C72.4198 162.108 72.413 162.683 72.6957 163.076ZM62.4804 72.1772C62.2082 72.2776 62.0921 71.8391 62.3611 71.7398C62.5459 71.6716 62.7326 71.6108 62.9203 71.5532C62.9437 71.5024 62.9855 71.4587 63.0501 71.4349C65.253 70.6235 67.7139 70.7024 70.0148 70.8964C71.2516 71.0008 72.4856 71.1408 73.7076 71.3609C74.8775 71.5715 76.0383 71.8301 77.2087 72.0369C77.4477 72.0673 77.6866 72.0964 77.9253 72.1236C78.2096 72.1559 78.2118 72.6098 77.9253 72.5772C77.8727 72.5712 77.8202 72.5642 77.7676 72.558C77.7327 72.5706 77.6938 72.576 77.6504 72.5691C77.4683 72.54 77.2864 72.5091 77.1049 72.477C76.306 72.3736 75.5092 72.2547 74.7124 72.1366C72.6163 71.8259 70.5136 71.5157 68.394 71.4352C66.4019 71.3594 64.3679 71.4807 62.4804 72.1772ZM77.5708 29.1075C77.084 35.8934 77.2096 41.955 77.3144 48.7515C77.3749 53.323 77.4033 57.896 77.2463 62.466C73.2662 52.065 74.4843 40.7787 73.9189 29.8462C75.0952 29.45 76.3587 29.2769 77.5708 29.1075ZM57.2553 79.2802C57.6276 79.9992 58.2527 80.5775 58.9937 80.9389C58.9024 81.1203 58.871 81.3245 58.8613 81.5157C57.5266 81.7917 57.902 82.432 57.0003 82.7374C56.4103 82.9022 55.8428 82.9726 55.3328 83.3339C53.5974 84.9684 53.1667 84.8482 51.3041 83.4103C51.3296 83.2802 48.7948 80.7771 48.0097 79.3778C47.3555 78.2105 46.6705 77.0349 45.6678 76.1323C40.7575 71.0489 35.5265 66.2513 30.7732 61.0274C21.2473 51.43 23.065 40.5473 25.2529 28.5594C28.7843 28.9858 32.3352 29.8424 35.5153 31.4149C34.3937 36.7061 34.3219 41.5022 33.8389 46.8713C33.6931 47.535 33.8576 48.8134 34.7878 48.5186C43.3379 55.3823 44.3316 69.487 55.5519 73.5656C60.125 75.4451 58.1951 76.9707 59.7062 80.5193C58.8748 80.3651 58.133 79.6605 57.7756 78.9862C57.5985 78.6513 57.0825 78.9461 57.2553 79.2802ZM36.1489 75.0157C35.8737 75.0482 35.5978 75.0723 35.3217 75.095C35.2897 75.1212 35.25 75.1402 35.2014 75.1464C34.7711 75.2006 34.3324 75.2717 33.8977 75.368C33.2527 75.5991 32.6009 75.8103 31.9521 76.0301C31.8953 76.0584 31.8388 76.087 31.7829 76.117C31.7294 76.1456 31.6776 76.1502 31.6308 76.1396C31.6118 76.1461 31.5928 76.1524 31.5739 76.1589C31.569 76.1606 31.5641 76.1623 31.5593 76.164C31.5421 76.1634 31.5248 76.1629 31.5072 76.1621C31.4817 76.1611 31.4379 76.159 31.3859 76.1556C31.3848 76.1356 31.3851 76.1159 31.3845 76.096C31.2014 76.1014 31.0373 75.87 31.2096 75.7172C31.8414 75.1571 32.6901 74.9523 33.5013 74.8285C34.3795 74.6943 35.2677 74.6663 36.1489 74.5621C36.4355 74.5283 36.4322 74.9822 36.1489 75.0157ZM28.0814 152.113C27.2949 152.051 23.9308 151.934 23.5271 152.468C23.9817 152.662 24.6068 152.555 25.0958 152.577C26.0454 152.616 26.9928 152.701 27.9327 152.835C27.8623 153.206 27.7988 153.575 27.7465 153.947C26.7984 154.038 24.9522 154.08 24.3504 154.75C25.424 154.923 26.5419 154.768 27.6193 154.984C27.567 155.492 27.5288 156.001 27.5005 156.509C27.0712 156.556 24.547 156.978 24.5493 157.38C25.4943 157.507 26.4955 157.339 27.4586 157.434C27.2499 160.483 27.9574 169.69 23.8359 170.253C20.2326 170.061 18.6519 164.157 18.1622 161.324C17.0765 154.724 17.2627 147.688 19.4147 141.326C20.1832 139.557 22.2754 139.25 24.0445 139.158C24.1118 139.458 24.1783 139.752 24.2531 140.048C23.4859 141.807 23.2415 143.787 23.2205 145.69C23.3827 148.425 26.7206 150.458 29.1447 148.652C28.6916 149.77 28.3417 150.935 28.0814 152.113ZM23.3133 171.789C16.1762 170.238 15.0053 161.881 15.4959 155.736C15.8958 151.459 15.4151 142.44 19.3204 139.927C14.2733 144.586 14.7115 176.3 25.8966 170.765C25.6177 171.658 24.1835 171.916 23.3133 171.789ZM24.7115 141.972C24.7242 141.862 24.7384 141.752 24.7533 141.642C25.5451 143.817 26.9015 145.884 28.9212 147.143C28.148 148.119 26.642 148.409 25.6259 147.611C23.8538 146.267 24.5926 143.837 24.7115 141.972ZM49.0393 3.02404C49.0251 3.04899 49.0101 3.07393 48.9951 3.09813C48.8964 3.10493 48.797 3.114 48.6961 3.12534C48.8105 3.09057 48.9249 3.05806 49.0393 3.02404ZM91.6706 180.607C91.6512 180.066 91.6436 179.367 91.017 179.175C91.3012 176.844 89.387 175.516 87.3772 174.87C85.6634 173.81 83.72 173.07 82.1453 171.792C82.8766 171.653 83.6079 171.486 84.2576 171.164C84.7481 170.921 84.5119 170.113 83.9803 170.188C83.0389 170.314 82.1933 170.798 81.3086 171.134C80.8062 170.716 80.3194 170.281 79.8596 169.819C80.4323 169.708 81.1606 169.749 81.4941 169.174C81.5981 168.994 81.5516 168.808 81.4261 168.669C80.8459 168.075 79.6958 168.668 78.975 168.841C78.6289 168.438 78.2946 168.026 77.9663 167.61C78.5107 167.559 79.9268 167.66 79.6495 166.751C79.1179 166.041 77.9746 166.467 77.2059 166.613C76.2309 165.401 75.9168 163.541 74.393 162.874C74.3384 162.58 73.9586 162.603 73.7051 162.69C73.332 160.889 73.3604 159.973 73.4696 158.127C74.6008 157.81 75.7232 157.395 76.6638 156.713C77.096 156.841 77.6201 156.693 77.7099 156.18C78.492 150.923 78.8397 145.6 79.476 140.324C81.7961 120.894 82.3016 97.1785 78.0067 77.983C77.9731 77.2557 78.024 76.5276 78.0964 75.8057C78.6086 75.6673 78.9137 75.1616 79.3376 74.869C80.1257 74.2196 80.9274 73.8559 80.9999 72.7227C81.1591 72.5692 81.1778 72.3371 81.0904 72.136C81.2945 70.9726 80.9938 69.8174 80.3815 68.8119C79.7101 67.6666 79.0759 66.5106 78.516 65.3086C79.7407 53.193 78.0793 41.4508 78.9877 29.2746C80.1527 28.6509 79.4214 25.1854 79.313 24.0303C78.6325 16.4438 75.1295 8.06731 67.6814 4.91177C67.1588 4.46573 66.429 4.31453 65.7904 4.06883C65.359 3.85413 64.6569 3.66815 64.3615 4.16787C64.0483 4.02045 63.0396 3.9078 62.6941 3.65227C62.6298 3.60465 62.5887 3.55248 62.579 3.49427C62.5536 3.49503 62.5237 3.48973 62.4915 3.48293C62.173 3.02782 61.8694 -0.14209 61.4768 0.0839537C61.0484 1.17259 61.3452 2.40261 61.7551 3.50183C62.0376 4.47405 62.425 6.97489 63.9264 6.33532C64.1852 6.20529 64.0251 5.86735 63.7933 5.84014C63.0815 5.63451 62.9229 4.57686 62.6478 3.95694C62.9738 4.23061 64.4588 4.64112 64.6211 4.72806C67.8423 12.2034 48.3663 11.811 46.8351 6.65737C45.7433 4.87699 46.6855 3.91234 48.6318 3.62657C47.2014 5.23383 49.0124 5.59066 49.701 4.0144C50.3597 2.88569 50.6596 1.51431 50.4345 0.215498C50.5504 -0.24037 50.6484 -0.849706 49.9739 -0.727234C49.9508 -0.787714 49.9141 -0.740086 49.9284 -0.696994C49.6823 -0.30085 49.8536 0.268418 49.7661 0.725798C49.6921 1.47424 49.4819 2.20756 49.1253 2.86981C48.4636 2.99758 47.8048 3.13441 47.1491 3.2841C46.7557 2.47594 44.2045 4.08773 43.5196 4.27749C34.4206 6.99531 27.5012 14.2332 25.0861 23.3627C24.547 24.5784 23.9652 25.8 23.5241 27.0535C23.3267 27.5963 23.3267 28.2699 23.8688 28.6214C21.2271 40.8739 20.5825 53.6397 30.5624 62.8297C30.7889 63.8246 30.6379 64.88 30.6312 65.893C30.6966 67.6945 29.5229 72.9088 30.0828 75.5958C30.022 75.7132 29.979 75.8392 29.9622 75.9736C29.8838 76.5983 30.3863 77.0005 30.9408 77.1028C30.9576 77.1059 30.9749 77.1089 30.9921 77.1119C31.0046 77.1182 31.0168 77.1251 31.0297 77.1309C30.3679 87.3747 32.8497 101.313 35.2551 111.196C35.433 114.592 34.4199 117.682 31.6929 119.825C26.5082 123.744 24.3241 130.286 23.7177 136.52C23.6317 137.159 23.7162 137.809 23.8584 138.436C22.7345 138.648 21.6825 138.786 20.5915 139.202C14.5746 138.037 15.0039 151.107 14.5433 154.985C14.1828 160.719 14.4078 167.592 19.6187 171.346C21.3706 172.607 24.4632 173.818 26.1703 171.908C26.6533 171.324 26.9165 170.641 26.7265 169.894C29.1738 166.27 28.5958 161.639 28.779 157.516C29.4198 157.538 30.1182 157.827 30.7494 157.668C31.2354 157.538 31.2974 156.908 30.8862 156.657C30.2924 156.317 29.4856 156.446 28.8217 156.423C28.8419 156.029 28.8711 155.634 28.9085 155.239C29.5387 155.395 30.442 155.769 30.6296 154.879C30.7052 154.068 29.692 154.006 29.061 153.971C29.1051 153.665 29.1545 153.36 29.2105 153.056C29.6936 153.105 30.2034 153.417 30.6783 153.268C30.9474 153.16 31.0409 152.885 30.8442 152.662C30.4787 152.3 29.8535 152.373 29.3698 152.26C29.6636 150.805 30.1945 149.413 30.706 148.021C31.6317 148.346 32.6343 148.561 33.6221 148.479C34.1342 148.37 34.6936 148.339 35.211 148.41C35.7867 148.255 35.9198 147.633 35.9954 147.125C35.9841 147.107 35.9729 147.09 35.9601 147.074C37.2903 139.242 42.0624 132.475 47.413 126.646C48.8867 124.978 50.3321 123.244 51.3333 121.263C53.3671 117.123 53.732 112.466 55.288 108.165C56.5987 104.259 58.3506 100.514 60.0681 96.7635C60.7568 101.703 62.0429 106.562 62.1902 111.571C62.4146 117.909 61.0334 124.154 60.4442 130.441C59.3847 138.715 60.3471 147.041 59.8357 155.322C59.8394 155.908 59.9142 156.46 59.8319 157.045C59.7863 157.37 60.0166 157.573 60.2589 157.58C61.1486 158.17 62.2665 158.38 63.2893 158.632C63.5727 158.852 63.4502 159.391 63.5003 159.722C63.6101 161.578 63.7552 162.978 63.5764 164.849C62.576 166.345 61.8553 166.106 61.577 168.38C61.4238 170.753 61.0865 173.32 62.1124 175.474C61.6533 175.58 61.4791 176.996 61.5479 177.371C61.6645 178.428 62.5865 178.763 63.4777 179.128C69.9911 181.595 83.8308 185.657 90.5236 182.864C91.0029 183.138 91.5375 182.6 91.6923 182.168C91.8971 181.641 91.7087 181.13 91.6706 180.607Z" fill="black"/>
</g>
<defs>
<clipPath id="clip0_43_120">
<rect width="123" height="189" fill="white"/>
</clipPath>
</defs>
</svg>
