<svg width="125" height="188" viewBox="0 0 125 188" fill="none" xmlns="http://www.w3.org/2000/svg">
<g clip-path="url(#clip0_43_72)">
<path fill-rule="evenodd" clip-rule="evenodd" d="M84.6434 57.5598C83.8518 50.4619 82.6543 43.1813 79.6303 36.6071C78.5912 28.1054 80.3418 15.9295 72.3859 10.1965C72.4876 9.17862 70.645 8.30146 69.7908 7.75814C68.4032 6.85824 66.5265 5.09016 64.884 6.08065C64.3659 5.92411 63.0881 6.56493 62.4999 5.17513C61.8974 3.75152 61.9849 0.897017 61.5045 0.636433C61.7165 -1.42067 52.3758 -2.79706 49.938 0.110658C48.7803 2.34093 50.11 3.05082 47.4998 5.9826C46.3472 6.05271 45.2477 6.342 44.1847 6.73864C43.3069 6.85883 42.4338 7.005 41.5647 7.15709C30.4791 8.17281 29.641 16.294 28.6584 25.0152C27.8172 36.7302 24.163 48.4014 25.7428 60.2088C24.8696 64.4308 24.8122 68.936 25.8548 73.1179C22.4363 78.0607 24.9143 80.7958 27.0465 85.4957C27.4073 86.3411 27.7214 87.2119 27.8811 88.114C27.8389 88.8129 27.8436 89.5125 27.9677 90.2062C28.3296 91.7869 30.9911 91.5658 31.1096 89.9687C31.3178 88.9199 31.2533 87.8318 31.4147 86.7777C31.4054 86.8326 31.389 86.938 31.389 86.9461C31.7793 84.2937 32.4085 83.2655 34.1464 81.2414C36.3779 78.0478 35.0057 74.0346 35.515 70.4602C35.6545 69.2658 35.8391 68.0874 35.9626 66.8907C36.7151 67.3289 37.533 67.6944 38.3876 67.9228C37.8491 72.0359 38.7857 76.1684 39.827 80.147C42.6453 90.3961 46.3818 100.92 44.7589 111.676C44.7597 111.67 42.9893 120.466 41.591 124.807C39.9004 130.313 38.5392 135.828 36.1473 141.108C34.8663 144.908 32.156 148.513 32.2613 152.603C31.3255 153.973 33.0104 155.619 34.495 155.615C34.495 156.851 34.1653 158.635 33.5057 160.964C33.3503 162.26 32.6809 163.91 33.693 165.01C32.317 168.479 31.8336 172.232 31.456 175.903C31.3117 177.645 31.1463 179.744 33.0298 180.731C34.7846 181.483 36.8274 181.152 38.7012 181.376C40.5141 181.379 42.3901 181.849 44.1729 181.443C46.2207 180.866 46.633 178.67 46.2474 176.915C45.9987 175.086 45.7006 173.264 45.3745 171.447C44.4069 167.491 44.136 163.101 42.8965 159.295C43.5909 159.166 44.2878 158.82 44.7589 158.315C45.9558 158.276 46.8383 157.394 47.1316 156.352C47.3432 155.68 48.2545 155.542 48.8683 155.328C48.9831 155.908 49.3185 156.396 49.5916 156.924C49.3584 158.044 50.1368 159.354 51.422 159.38C51.6077 159.557 51.7801 159.737 51.9697 159.906C50.5083 162.034 49.4246 164.438 49.15 166.973C48.8193 168.918 48.4732 172.034 51.074 172.61C52.0559 172.738 53.1126 172.987 54.0748 172.633C55.1475 173.109 56.288 173.338 57.443 173.542C62.3931 174.369 67.1674 174.299 72.1588 174.854C73.4756 175.036 78.752 175.572 79.6303 174.854C80.7015 175.071 80.0537 174.281 80.5044 173.542C80.8634 172.987 81.8219 171.924 81.2032 171.616C79.905 171.062 78.7542 169.971 77.5665 169.352C72.0157 166.225 60.0431 160.901 60.1262 160.751C60.1098 160.857 60.1988 158.18 60.6426 157.47C61.2668 156.857 62.511 156.965 63.1626 156.379C63.5761 156.398 66.6788 155.515 66.4132 154.035C66.0728 152.854 67.1846 151.407 66.4132 150.41C68.9673 127.32 74.9108 104.926 78.1907 81.9588C78.2633 81.8958 78.3351 81.832 78.4076 81.7689C80.099 82.0488 81.4129 80.3678 81.9265 79.0438C82.1738 78.7952 82.4118 78.5392 82.6302 78.2617C84.0084 76.488 84.0331 74.1777 84.1899 72.0673C84.5308 71.8195 84.7501 71.4344 84.7688 70.9788C84.8234 69.6224 84.8815 68.2658 84.9389 66.91C84.9397 66.91 84.9397 66.91 84.9397 66.9093C85.3641 66.2349 85.4219 65.4759 85.3009 64.7028C85.3455 62.2024 85.7347 59.8602 84.6434 57.5598Z" fill="white"/>
<path fill-rule="evenodd" clip-rule="evenodd" d="M49.882 -0.135991C49.9075 -0.357384 50.206 -0.354032 50.2345 -0.135991C50.5483 2.49875 49.497 5.52354 46.9115 6.75137C48.8502 8.4461 50.2147 10.7118 52.5411 11.9912C57.4222 15.1383 64.476 12.1936 65.5614 6.64346C64.3567 6.37002 62.112 6.39318 61.7462 5.00019C61.5695 4.82087 61.4784 3.28416 61.4893 2.15083C61.4782 1.94009 61.4714 1.7292 61.4642 1.51987C61.4457 1.35023 61.4405 1.17732 61.4423 1.00344C61.4461 0.62611 62.0169 0.633482 62.0408 1.00344C62.0507 1.15513 62.0573 1.30868 62.0635 1.46298C62.0676 1.50371 62.0733 1.54429 62.0784 1.58495C62.1569 1.86719 62.2112 2.16215 62.2753 2.43001C62.3098 2.57418 62.3456 2.71999 62.3838 2.86557C62.4389 3.24722 62.5374 3.62008 62.706 3.97313C63.1544 4.91187 64.2601 5.7179 65.3501 5.72662C65.5836 5.72848 65.8158 5.69452 66.0495 5.70033C66.4301 5.70994 66.741 5.85917 67.0806 6.01116C67.3872 6.14833 67.6751 6.24111 67.9709 6.24067C80.1729 10.3362 78.4929 25.3283 80.3513 35.4645C82.2456 45.5308 86.1585 55.2357 86.7345 65.5231C86.9072 66.5899 85.7167 66.9857 84.9782 67.4904C84.7813 70.1744 85.9225 72.8909 85.1311 75.547C84.399 77.7187 81.4474 82.94 78.627 82.1176C75.4288 106.172 67.9959 128.465 67.2926 152.813C68.0047 154.849 65.9603 156.327 64.0746 156.625L63.8175 156.771C62.9579 157.26 62.0696 157.737 61.129 158.04C61.1055 158.053 61.082 158.067 61.0581 158.08C61.0123 158.104 60.9631 158.119 60.913 158.127C60.9656 158.75 61.1646 159.335 61.4211 159.904C65.3336 160.798 68.7698 163.143 72.4488 164.677C74.822 166.121 82.0664 168.209 82.6165 170.747L82.6311 170.824C82.8523 171.961 82.2344 173.364 80.926 173.472C81.609 173.972 81.1616 174.983 80.4177 175.178C79.5236 175.414 78.5533 175.313 77.633 175.386C68.9518 175.656 60.1941 174.897 51.7323 172.97C51.0217 172.808 50.2816 172.596 49.6826 172.176C46.0105 169.299 49.8327 163.211 50.7353 159.479C50.4076 159.427 50.0835 159.356 49.7651 159.263L49.6939 159.242C49.3844 159.149 49.0645 159.038 48.8242 158.821C48.8144 158.812 48.8061 158.802 48.7967 158.793C47.2498 158.772 48.8254 155.399 48.9645 154.497C48.3358 155.823 47.8225 157.237 47.0695 158.499C46.551 159.277 45.4141 158.737 44.6505 158.683C44.9044 163.295 46.0166 167.792 47.1589 172.261C48.0866 175.972 49.679 180.432 44.4239 181.56C40.8043 182.499 32.179 182.14 30.6361 178.217C30.1812 175.023 31.1776 171.786 31.6704 168.639L31.7569 168.191C32.3452 165.131 32.8891 162.057 33.7422 159.054C33.8596 158.565 34.0042 158.085 34.1597 157.61C34.18 157.332 34.1947 157.054 34.1765 156.775C34.1527 156.41 34.083 156.052 34.009 155.694C33.9995 155.649 33.991 155.596 33.9822 155.54C32.4581 154.844 31.3264 154.056 31.1804 153.207C31.0309 152.401 31.333 151.584 31.557 150.815L31.5701 150.769C36.4785 133.708 45.8152 118.332 44.224 100.133C43.6387 91.1814 39.3561 82.9485 38.6335 74.0205C38.2178 72.2396 37.8425 70.4402 37.7821 68.6041C37.5253 68.5443 37.2666 68.4899 37.0112 68.4243C36.8614 69.2182 36.6719 70.0054 36.3612 70.7463C36.2414 72.2113 36.318 73.6923 36.5756 75.1411C36.6349 75.4749 36.4707 75.7654 36.1927 75.8721C36.8606 77.9325 36.9923 80.5164 35.2699 82.1124L35.1272 82.206C33.6308 83.192 33.4744 83.4711 33.1263 85.3083L31.9807 89.9515C31.837 90.5261 31.6649 91.1116 31.251 91.5628C30.1525 92.76 28.404 91.9786 27.8375 90.7025C27.3204 89.3951 27.3243 87.9559 26.9468 86.6096C26.6599 85.2188 25.8641 84.031 25.0755 82.8649C23.3124 80.188 23.1717 76.4607 25.1375 73.8389C25.3093 73.4051 25.4665 72.9781 25.6488 72.5514C24.9686 71.7616 25.4064 70.5173 25.3283 69.5506C25.327 68.7525 25.3122 67.9546 25.2876 67.1569C25.1441 62.4454 24.6539 57.7632 24.6361 53.0513C24.4454 46.7007 26.1338 40.5491 27.1126 34.3205C27.9542 28.1697 27.9094 21.8987 29.2864 15.8195C31.8489 3.88712 46.2286 8.43627 48.6613 3.73409C49.3964 2.5575 49.7255 1.2185 49.882 -0.135991ZM32.3172 176.754C32.0997 178.341 33.2255 178.722 34.5164 179.205C37.808 180.4 41.6084 180.683 44.9541 179.544C45.5469 179.295 45.9711 178.924 46.1818 178.38C41.5386 178.799 36.663 178.494 32.3172 176.754ZM50.0191 169.689C50.3104 171.114 52.1654 171.282 53.4075 171.521C56.3737 172.136 59.3688 172.629 62.3807 172.978C68.2173 173.675 74.1216 173.795 79.9868 173.53C80.1453 173.463 80.2469 173.332 80.4468 173.333L80.4713 173.333C80.4826 173.333 80.4933 173.334 80.5043 173.335C80.4068 173.271 80.3233 173.187 80.2614 173.089C70.1801 171.992 60.0376 171.245 50.0191 169.689ZM59.8749 157.47C57.4536 157.886 54.9822 158.105 52.5374 157.727C52.3725 159.73 51.5893 161.675 50.9731 163.591C54.351 164.475 56.5866 160.766 59.6081 160.059C59.4369 159.173 59.4976 158.242 59.8749 157.47ZM34.9183 155.938C34.9265 155.952 34.9307 155.969 34.9291 155.989C34.9174 158.323 34.6784 160.648 34.331 162.957C36.4773 160.667 40.0694 160.088 43.0277 161.04L43.0147 160.891C42.9387 160.045 42.825 159.18 42.9643 158.342L42.8287 158.304C41.3028 157.887 37.715 157.052 34.9183 155.938ZM79.1264 67.9323C65.9103 71.4444 51.8421 71.6647 38.4881 68.7607C39.1541 70.8749 39.6542 73.0277 40.0075 75.2096C40.7647 80.8217 42.8507 86.1254 44.2558 91.5932C45.8769 98.0466 46.2632 103.481 45.4564 110.072L45.4315 110.272C43.6551 125.054 36.3802 138.549 32.9624 152.9C36.9845 155.317 41.9533 156.262 46.5652 157.261C49.4637 151.342 51.913 145.273 53.518 138.9C59.2999 118.896 66.9187 100.061 65.2264 78.9406C64.8491 78.6955 64.9719 78.1784 65.1792 77.8481C65.1075 76.3245 65.0084 74.8023 64.8461 73.2869C64.8407 73.2357 64.9273 73.2256 64.938 73.2749C65.2063 74.5728 65.488 75.8673 65.7237 77.1715C67.3486 75.5344 68.3994 73.4882 69.8283 71.712C70.0317 73.0383 67.2462 78.1757 66.0205 78.9708C68.6321 94.8522 64.2831 109.39 59.5858 124.495C56.4249 135.34 53.3538 146.217 50.0927 157.032C50.1322 157.032 50.1718 157.033 50.2114 157.034C50.0153 156.677 54.1658 156.924 54.5066 156.744C57.5632 156.458 60.5548 155.741 63.5279 155.022L63.8926 154.928C64.6334 154.736 65.4933 154.458 65.6266 153.674L65.6285 153.575C65.6294 153.546 65.6307 153.523 65.6332 153.521L65.6118 153.433C65.6072 153.412 65.6041 153.396 65.6047 153.392L65.5752 153.348C65.5411 153.299 65.5092 153.256 65.5545 153.306C65.2187 152.942 65.1882 152.381 65.5759 152.034C66.3023 125.617 74.895 101.439 78.0773 75.3176C78.3928 72.8512 78.7778 70.3943 79.1264 67.9323ZM26.4823 73.0469C24.9542 74.9261 24.6917 77.5487 25.2942 79.8391C25.6106 80.9757 26.2502 81.9328 26.9096 82.9076C28.066 84.5325 28.6053 86.4206 28.8995 88.3555L28.9078 88.3922C29.042 89.0142 29.1252 90.7302 30.0127 90.5371C30.2458 90.3887 30.3575 89.7367 30.4395 89.3957L31.464 85.2432C31.7605 84.041 31.9384 82.6122 32.9892 81.78L33.1133 81.7015C33.9717 81.155 34.809 80.5211 34.9436 79.4561C35.2393 78.1507 34.6895 76.8869 34.4841 75.6179C31.7438 74.9973 29.0684 74.1213 26.4823 73.0469ZM84.6432 67.6816L84.5516 67.7264C83.4975 68.2463 80.3526 69.929 79.5416 69.2828C79.5608 73.1292 79.2496 76.9567 78.7937 80.7721C78.9102 80.7467 79.0305 80.7496 79.1382 80.7887C81.4247 80.1622 83.909 75.883 84.1008 73.6839C84.2572 71.6823 83.8556 69.5944 84.6432 67.6816ZM47.051 8.729L46.9346 8.57644C45.6967 6.96414 45.0021 6.38836 42.8616 7.24859C43.1493 7.60106 43.2848 8.07341 43.1621 8.56253L43.1539 8.59377C42.4785 11.3439 39.0143 12.9374 36.4786 11.441C35.5927 11.6693 34.669 11.0389 34.6333 10.1455C32.1241 11.6075 30.9648 14.2859 30.4943 16.9761C32.1414 16.1179 34.3563 16.937 35.0136 18.6436C36.4545 21.7626 32.2555 25.0073 29.6949 22.3808C29.14 27.6418 28.8796 32.9431 27.869 38.1493C28.618 36.93 30.4038 36.6431 31.4687 37.6464C34.9556 40.6255 30.9451 47.3937 26.73 44.1671C26.2192 47.0652 26.0389 50.0044 26.0629 52.9362C27.4136 52.4211 28.153 54.7316 28.2509 55.7095C28.3732 56.8865 27.7592 59.3543 26.3204 59.4935L26.4388 61.3758C26.6398 64.6018 26.8185 67.8247 26.7738 71.0587C26.8461 71.0767 26.9077 71.1093 26.9593 71.1516C26.963 71.245 26.9755 71.3384 26.9935 71.4308C27.0112 71.5224 27.0701 71.571 27.1394 71.5863L27.1418 71.5898C27.1387 71.6545 27.1259 71.7194 27.1013 71.7806C29.7422 72.875 32.4684 73.7786 35.2452 74.49C35.177 73.5751 35.1942 72.663 35.2904 71.7591C34.2405 70.7711 35.5318 67.1842 35.6557 65.7901C36.1408 62.9968 36.51 60.1862 36.8364 57.3717C35.8618 57.2892 35.3628 56.2821 35.1065 55.4625C34.7725 54.5601 34.571 53.5965 34.8062 52.6475C35.0448 51.5178 36.3237 50.4382 37.5298 50.8361L37.6058 50.0793C38.0833 45.2859 38.5006 40.4847 39.2155 35.7179C36.8806 37.0072 34.6759 34.2034 35.2398 32.027C35.4049 31.1031 35.9734 30.2078 36.8122 29.7279C37.5541 29.3059 39.0877 28.8878 39.5742 29.8163C39.802 29.8452 40.0156 29.9552 40.1769 30.1176C40.6813 27.5324 41.2948 24.9274 42.271 22.4772C39.1853 20.559 39.7625 15.7292 43.8237 15.7228C49.3003 16.187 47.8434 24.0935 42.5612 22.6066C40.9022 32.5016 39.9461 42.4783 39.0975 52.4646C39.7361 53.4947 39.635 55.023 38.7587 55.89C38.3776 59.5025 37.9152 63.1075 37.3079 66.6909C41.3254 67.5771 45.3924 68.3101 49.5036 68.6478C49.7013 67.3894 51.0846 66.7179 52.28 66.6168C53.0716 66.5327 53.9327 66.8299 54.6889 66.9722C55.6026 67.3184 56.3501 68.1138 56.6838 68.9814C60.5217 69.0045 64.362 68.7644 68.164 68.2723C67.78 66.3796 70.5638 64.9368 72.2586 65.2313C72.9369 65.3137 73.5986 65.5678 74.1069 66.0211C74.6033 66.1255 75.07 66.5499 75.1932 67.0606C76.5393 66.7437 77.9181 66.5024 79.2187 66.0317C80.4948 65.6175 80.9118 64.5779 80.5812 63.3491C76.972 64.7796 73.9096 59.1043 77.3536 57.0513C77.7944 56.7284 78.7132 56.5195 78.9714 57.1302C79.0155 57.1376 79.0592 57.1468 79.1027 57.1573C78.8161 55.9894 78.5279 54.822 78.2396 53.6545C76.5848 53.4981 76.0324 51.0958 77.4066 50.2517C76.939 48.3151 76.4855 46.3747 76.0598 44.4287C73.7921 44.8913 71.9125 42.1003 72.3924 40.084L72.4076 40.0232C72.6785 38.9272 73.5028 37.8494 74.7203 37.6673C74.4327 36.0205 74.1757 34.368 73.9592 32.7102C73.6455 32.3798 73.5051 31.8871 73.6272 31.4512C73.7157 28.2644 73.0624 24.9831 73.3257 21.7508C70.9193 24.6444 65.9053 22.6748 67.0506 18.8566C66.9837 15.3195 72.0653 14.0659 73.779 17.1929C73.9625 16.5259 74.1984 15.8622 74.3138 15.1745C74.3313 15.0956 74.4545 15.1115 74.4618 15.1856L74.4622 15.1941C74.7175 19.7173 74.5296 24.2701 75.0203 28.7884C76.854 28.8775 77.6031 33.2043 75.611 33.5149C76.3643 38.5451 77.4959 43.5098 78.7257 48.4511C80.8626 47.9083 81.6889 52.452 79.9296 53.2162C80.4415 55.2249 80.951 57.2335 81.4483 59.2456L81.4579 59.2413C81.7162 58.8021 82.4048 58.851 82.8475 58.9348C84.3099 59.4679 83.6917 62.0859 82.0996 61.9256C82.968 64.5112 82.4174 66.9101 79.5199 67.7985L79.5214 67.8807C79.6111 67.8114 79.7202 67.7551 79.8522 67.7185C81.6629 67.2157 83.3537 66.4344 84.9139 65.4215C84.4549 57.956 82.27 50.719 80.5022 43.4774C78.4706 43.157 77.8227 39.9377 79.4075 38.7522C78.3103 33.9442 77.9943 29.0276 77.4575 24.1448C75.9942 23.8293 75.6245 21.5065 76.9456 20.7951C76.1084 14.7313 72.9564 9.62001 67.075 7.02057C66.8844 7.88364 66.5679 8.72163 66.1444 9.506C66.1841 9.50816 66.2224 9.51292 66.26 9.5191C66.2698 9.53653 66.2817 9.55373 66.2979 9.57019C66.6164 9.89248 66.8205 10.2552 66.95 10.6435C66.9625 10.7269 66.9764 10.8102 66.9906 10.8935C66.9764 10.9276 66.9605 10.9613 66.9422 10.9944C67.5724 13.3638 64.6189 14.575 62.6248 14.0449C62.3156 13.9848 62.1136 13.8135 62.0058 13.5969C58.4753 15.4744 53.8675 15.0788 50.687 12.5962C48.3754 13.8173 45.3989 10.9656 47.051 8.729ZM30.4839 61.8526C33.8619 61.3613 34.9669 66.7305 32.2442 68.2213C31.3664 68.7368 30.1592 68.7814 29.2949 68.2119C26.9934 66.8337 27.6336 62.1358 30.4839 61.8526ZM43.3424 58.6399C47.6418 58.6217 48.0095 65.1447 44.2595 66.3192C41.4707 67.1151 38.7389 64.0595 40.1691 61.5118C40.3012 59.9268 41.6883 58.6631 43.3424 58.6399ZM56.7389 59.2318C56.9625 57.5469 58.7492 55.9371 60.5475 56.4009C62.1953 56.8115 62.625 58.7107 62.9171 60.1173C63.5815 63.0295 60.2351 65.9822 57.4155 64.3784C55.6144 63.3159 55.3511 60.7155 56.7389 59.2318ZM66.341 49.3982C66.9436 48.4528 68.2937 48.0364 69.3958 48.3658C72.4186 49.3168 72.0595 54.091 69.6271 55.514C65.4486 57.6686 62.1162 51.4741 66.341 49.3982ZM46.6535 52.1873C46.5828 49.3503 49.5541 46.7677 52.3452 48.3804C56.8628 51.3631 52.2363 58.2057 47.9019 54.3707C47.1294 53.8795 46.673 53.0824 46.6535 52.1873ZM41.0333 44.9486C38.9425 41.7405 42.5334 36.9846 45.9603 40.0585C47.1356 41.247 47.0831 43.4264 46.4027 44.8392C45.2959 46.7267 42.2221 46.771 41.0333 44.9486ZM56.2154 38.9324C57.8471 37.3891 60.6982 37.3729 61.938 39.4093C63.4076 41.9212 61.6537 46.2189 58.3411 46.0146C54.8992 45.7741 53.9563 41.0073 56.2154 38.9324ZM47.6664 33.9164C45.0482 31.2741 47.891 27.0356 51.4419 28.0563C57.2452 30.16 52.2087 38.076 47.6664 33.9164ZM61.9587 33.3203C59.6266 29.1293 65.2918 25.3611 68.1749 29.395C70.3863 33.0485 64.4161 37.266 61.9587 33.3203ZM54.3523 21.3982C52.3344 17.905 55.8606 14.0235 59.5656 16.0737C64.8376 19.6808 58.0893 26.6179 54.3523 21.3982Z" fill="black"/>
</g>
<defs>
<clipPath id="clip0_43_72">
<rect width="125" height="188" fill="white"/>
</clipPath>
</defs>
</svg>
