<svg width="123" height="189" viewBox="0 0 123 189" fill="none" xmlns="http://www.w3.org/2000/svg">
<g clip-path="url(#clip0_43_100)">
<path fill-rule="evenodd" clip-rule="evenodd" d="M73.9398 117.243C73.7037 119.338 72.9428 123.67 72.5692 125.798C72.4606 126.416 72.3846 126.849 72.3627 126.992C70.2486 138.166 69.3834 149.52 68.9821 160.872C68.8641 162.35 68.9227 163.823 69.1767 165.283C69.1897 165.358 69.2033 165.433 69.2174 165.507C69.2884 165.493 69.3605 165.479 69.4336 165.467C72.4068 164.979 74.4094 167.174 76.3448 169.244C77.1015 170.053 77.8477 170.85 78.6307 171.486C80.5102 173.182 82.5445 174.691 84.6761 176.045C85.5474 176.564 86.536 177.177 87.2034 177.99C87.6578 178.544 87.961 179.192 87.9531 179.971L87.9503 180.238L88.2116 180.197C88.2898 180.185 88.3549 180.19 88.4077 180.215C88.4637 180.242 88.5023 180.291 88.5333 180.349C88.6723 180.607 88.6718 181.016 88.6796 181.326C88.6816 181.405 88.6835 181.479 88.6868 181.545C88.7103 182.475 88.2941 183.09 87.6676 183.51C86.6922 184.164 85.2371 184.369 84.0575 184.544C83.8392 184.576 83.63 184.607 83.4328 184.639C76.177 185.425 68.831 183.439 62.1175 180.749C62.0986 180.741 62.0797 180.734 62.0608 180.726C62.0426 180.73 62.0241 180.732 62.0055 180.735C61.4706 180.806 61.0104 180.518 60.6464 180.101C60.1435 179.525 59.816 178.692 59.7377 178.045C59.6693 177.732 59.7124 177.441 59.7505 177.152C59.8012 176.769 59.8438 176.39 59.7256 176.018C58.7995 173.889 58.6778 171.574 58.8104 169.305C58.774 166.497 59.4119 165.705 59.9311 165.077C60.3669 164.55 60.7189 164.122 60.6057 162.925C60.5915 162.748 60.5362 161.61 60.5602 161.046L60.734 161.02C60.4585 157.005 59.4594 153.027 58.4599 149.053C56.8319 142.58 55.1967 136.115 56.7653 129.499C57.2604 127.459 58.2397 125.654 59.2222 123.837C59.8456 122.684 60.471 121.527 60.9808 120.306C60.99 120.284 60.9991 120.262 61.0081 120.24C61.0031 120.218 60.9986 120.196 60.9944 120.175C60.8979 119.668 61.0173 119.153 61.1307 118.634C61.2344 118.16 61.3359 117.683 61.3117 117.206C61.303 116.309 61.1284 115.451 60.9449 114.583C60.9355 114.538 60.9261 114.494 60.9166 114.449C60.8736 114.437 60.8308 114.425 60.7879 114.412C59.9483 114.166 59.1277 113.865 58.3395 113.471L58.1285 113.366L58.0345 113.584C58.0047 113.653 57.9609 113.706 57.9083 113.742C57.8504 113.783 57.7827 113.802 57.7146 113.805C57.6406 113.808 57.5659 113.791 57.5011 113.755C57.4501 113.726 57.4054 113.685 57.3735 113.633C57.2836 113.261 57.3839 112.868 57.4737 112.479C57.533 112.222 57.591 111.966 57.6103 111.717C57.6395 111.574 57.6645 111.408 57.6909 111.23C57.7647 110.734 57.8419 110.135 58.1071 109.779C58.1824 109.678 58.2745 109.599 58.3931 109.56C58.5069 109.522 58.6418 109.521 58.802 109.559C58.8963 109.581 58.977 109.611 59.045 109.649C59.0554 109.553 59.0656 109.457 59.0756 109.362C59.4993 105.313 59.5802 101.229 59.3449 97.1651C59.3266 96.8501 59.3065 96.5352 59.2843 96.2205C59.1582 96.5101 59.0347 96.8001 58.9141 97.0906C58.1918 98.8309 57.5579 100.636 56.9244 102.441C56.0378 104.967 55.1521 107.492 54.0218 109.833C54.0035 109.871 53.985 109.909 53.9666 109.947C53.9885 109.971 54.0064 109.999 54.0212 110.03C54.048 110.087 54.0619 110.145 54.0509 110.204C54.0404 110.261 54.0074 110.315 53.955 110.367C53.5353 110.779 53.3168 111.329 53.1054 111.881C53.0947 111.909 53.084 111.936 53.0733 111.964C52.9143 112.472 52.6536 112.932 52.2996 113.284C51.9852 113.598 51.5968 113.825 51.1445 113.912C51.097 113.921 51.0497 113.928 51.0025 113.934C50.9908 113.984 50.9792 114.034 50.9678 114.083C50.9114 114.325 50.8528 114.58 50.7916 114.847C50.0753 117.967 49.0041 122.647 47.0732 126.091C45.8374 128.296 44.2508 130 42.1532 130.4C42.0005 130.429 41.8478 130.451 41.6953 130.466C41.8227 130.531 41.9293 130.619 42.0033 130.741C42.2447 131.141 42.0038 131.686 41.8216 132.185C41.714 132.48 41.6115 132.767 41.5711 133.02C41.3752 133.587 41.2112 134.169 41.0472 134.751C40.7464 135.819 40.4466 136.889 39.9371 137.866C39.918 137.903 39.8986 137.94 39.879 137.976C39.8995 138 39.9153 138.026 39.9274 138.057C39.9477 138.108 39.9516 138.157 39.9459 138.219C39.9408 138.273 39.93 138.317 39.9067 138.359C39.956 138.379 40.0045 138.404 40.0519 138.433C40.2789 138.574 40.4178 138.788 40.4867 139.032C40.5703 139.329 40.5537 139.668 40.4643 139.989C40.371 140.324 40.1979 140.642 39.9655 140.872C39.7706 141.065 39.5331 141.197 39.2656 141.213C39.2476 141.214 39.2296 141.214 39.2117 141.214C39.1973 141.224 39.1828 141.233 39.1683 141.242C39.05 141.309 38.8853 141.346 38.7312 141.348L38.6781 141.795C38.7116 141.832 38.7166 141.852 38.7142 141.872C38.4873 144.632 37.8384 147.323 37.193 150.004C37.0732 150.501 36.9535 150.999 36.8365 151.496C36.6089 152.288 36.4407 153.104 36.2725 153.921C35.9965 155.262 35.7219 156.605 35.1711 157.841C35.1574 157.872 35.1436 157.902 35.1297 157.933C35.1433 157.962 35.1562 157.992 35.1685 158.022C35.4435 158.688 35.3873 159.459 35.2508 160.153C35.0285 160.41 34.611 160.388 34.264 160.399C34.1308 160.403 34.0028 160.407 33.8877 160.419C33.8141 160.427 33.7361 160.439 33.6552 160.453C33.667 160.527 33.6782 160.602 33.6887 160.677C33.8571 161.873 33.8506 163.091 33.845 164.305C33.8418 164.991 33.8387 165.675 33.8661 166.354C33.8694 166.434 33.873 166.514 33.8772 166.594C33.9495 166.583 34.0246 166.576 34.1025 166.571C34.8617 166.529 35.3892 166.845 35.773 167.34C36.3663 168.104 36.634 169.267 36.8693 170.259C36.9335 170.529 36.9948 170.787 37.0584 171.023C37.5421 172.661 38.1611 174.24 38.7801 175.817C39.6052 177.92 40.4308 180.022 40.9238 182.253L40.999 182.593L41.2762 182.386C41.3011 182.367 41.3303 182.354 41.3627 182.353C41.3948 182.352 41.4284 182.362 41.4632 182.383C42.4539 182.984 42.4647 184.225 42.5064 185.27C42.51 185.362 42.5137 185.453 42.5178 185.542C42.508 185.763 42.524 186.001 42.5408 186.242C42.5811 186.82 42.6649 187.453 42.1808 187.823C38.7605 190.18 34.1355 190.112 30.1822 189.493C28.6062 189.203 27.0676 188.717 25.6068 188.053C25.0546 187.863 24.6416 187.663 24.389 187.334C24.1745 187.055 24.0857 186.684 24.1205 186.168C24.0232 185.231 24.1067 184.339 24.1887 183.446C24.2599 182.672 24.3303 181.897 24.2924 181.117C24.4084 178.121 25.0864 175.159 25.7529 172.242C25.7796 172.125 25.8063 172.008 25.8329 171.891C25.8719 171.768 25.9112 171.641 25.9511 171.513C26.4645 169.864 27.0703 167.843 28.5448 166.919C28.5857 166.91 28.6516 166.908 28.7246 166.902C28.9192 166.885 29.1491 166.859 29.2858 166.792C29.2895 166.79 29.2931 166.788 29.2967 166.786L29.2127 167.073L29.6517 166.883C29.753 166.839 29.859 166.806 29.9677 166.786C30.0036 166.779 30.0397 166.774 30.076 166.769C30.0937 166.734 30.1111 166.698 30.1284 166.662C30.7253 165.413 31.0026 164.053 31.2776 162.693C31.4475 161.853 31.617 161.013 31.8662 160.201C31.8876 160.131 31.9096 160.061 31.9322 159.992C31.8647 159.971 31.798 159.947 31.7326 159.922C31.0388 159.652 30.4093 159.112 30.2143 158.382C30.2613 158.175 30.3586 157.95 30.5056 157.781C30.6145 157.656 30.7526 157.561 30.9236 157.55L31.2317 157.53L31.118 157.24C31.0053 156.952 30.9891 156.625 31.0236 156.316C31.6044 152.696 32.3782 149.108 33.2117 145.538C33.5289 144.21 33.8683 142.888 34.2515 141.578C34.3076 141.42 34.3521 141.242 34.3973 141.059C34.491 140.681 34.5765 140.266 34.8493 140.028C34.9141 139.971 34.9872 139.927 35.0659 139.891C34.9957 139.827 34.9271 139.761 34.8601 139.695C34.2776 139.114 33.7836 138.409 33.7695 137.616C33.7422 137.283 33.8981 136.94 34.1388 136.727C34.218 136.657 34.3069 136.601 34.4029 136.567L34.772 136.796C34.8604 136.851 34.945 136.914 35.0295 136.976C35.1008 137.029 35.1721 137.081 35.2451 137.13L36.1276 137.72L35.5579 136.819C35.1097 136.11 35.332 135.247 35.5123 134.454C35.561 134.24 35.6087 134.029 35.6449 133.827C35.6925 133.611 35.7392 133.394 35.786 133.176C36.0691 131.861 36.3547 130.529 36.8523 129.291C36.8725 129.241 36.8932 129.19 36.9138 129.14C36.873 129.105 36.8322 129.07 36.7915 129.034C34.8544 127.334 34.0963 125.235 33.9983 122.985C33.8571 119.741 35.0724 116.185 36.1488 113.02C36.4224 112.215 36.6876 111.435 36.9204 110.692C36.9363 110.641 36.9523 110.589 36.9681 110.538C36.9245 110.504 36.8809 110.471 36.8375 110.439C36.5738 110.247 36.2575 110.069 35.9313 109.887C35.1214 109.433 34.2017 108.962 34.0795 108.04C34.093 107.545 34.2848 107.068 34.4683 106.598C34.5429 106.407 34.6168 106.217 34.6801 106.028C34.729 105.807 34.8786 105.519 35.0691 105.388C35.1103 105.36 35.1537 105.337 35.2002 105.342C35.2415 105.347 35.2796 105.375 35.3188 105.417L35.5822 105.698L35.696 105.328C35.7541 105.139 35.8126 104.949 35.871 104.76C36.9862 101.142 38.1176 97.4576 38.0157 93.6365C38.0142 93.5806 38.0125 93.5246 38.0104 93.4694C37.9554 93.4512 37.8995 93.4352 37.8424 93.4218C37.4542 93.3302 37.0598 93.3662 36.6705 93.4058C36.1812 93.4555 35.6949 93.5237 35.256 93.1916C31.2573 90.0989 31.6925 82.2159 32.0349 77.6143C32.0393 77.5544 32.0439 77.494 32.0484 77.4336C31.9929 77.418 31.9376 77.4008 31.8824 77.3822C31.6967 77.3193 31.5191 77.2423 31.3576 77.1452L31.225 77.0656L31.1039 77.1622C31.0453 77.1647 31.011 77.1296 30.9728 77.0886C30.8166 76.9209 30.6622 76.616 30.5085 76.242C29.9643 74.9183 29.4774 72.7515 29.3336 72.1133C29.33 72.0973 29.3266 72.0822 29.3229 72.0657C26.4131 58.7317 27.5263 44.9825 28.6169 31.4723C28.6948 30.507 28.7726 29.5428 28.8489 28.5802C29.0837 26.8007 29.1737 24.9789 29.2635 23.1533C29.4474 19.4178 29.6274 15.6647 31.085 12.2323C32.0584 9.7249 34.8025 9.14271 37.133 8.61531C37.1969 8.60083 37.2606 8.58641 37.324 8.57203C38.5377 8.20648 39.7581 7.92432 40.9768 7.64236C42.8445 7.21026 44.7084 6.77817 46.4875 6.06921C46.5838 6.03082 46.6797 5.99168 46.7753 5.95176C46.7071 5.88109 46.6441 5.80579 46.5874 5.72592C46.275 5.28604 46.1527 4.71046 46.1848 4.13937C46.2181 3.54698 46.418 2.95611 46.7608 2.51833C46.8952 2.41843 47.0532 2.4079 47.2134 2.43434C47.5275 2.48619 47.8551 2.67441 48.1216 2.82299C48.148 2.83768 48.1738 2.85206 48.1989 2.86599L48.399 2.97674L48.5052 2.77262C48.9243 1.96683 49.2152 1.07875 49.4996 0.207124C49.6638 -0.296208 49.826 -0.793825 50.0115 -1.2655C50.5794 -2.47939 51.5537 -3.06142 52.6778 -3.28548C54.3719 -3.62318 56.3982 -3.16716 57.9654 -2.77171C58.0216 -2.75716 58.0782 -2.74264 58.1351 -2.72806C58.9256 -2.52523 59.7735 -2.3141 60.4308 -1.8151C61.525 -0.931348 61.7575 0.442766 62.0048 1.79081C62.13 2.4732 62.2556 3.15223 62.4761 3.77178C62.5009 3.84132 62.527 3.91067 62.5545 3.97976C62.6168 3.95132 62.6779 3.9298 62.7372 3.91608C63.6039 3.7157 65.5061 4.85476 66.1617 5.46152C66.3331 5.57633 66.4116 5.69069 66.4523 5.81947C66.5202 6.03393 66.4984 6.27962 66.4827 6.52211C66.4756 6.63207 66.4686 6.74168 66.4673 6.84867C66.4665 6.91125 66.4677 6.97478 66.4697 7.03877C66.5296 7.05067 66.5893 7.06247 66.6489 7.07416C67.0349 7.14992 67.4288 7.22408 67.8277 7.29915C70.6822 7.83642 73.7949 8.41398 76.0155 10.0029C77.5682 11.1139 78.675 12.7264 78.9338 15.1772C79.7544 18.7195 80.1898 22.2983 80.5932 25.8789C80.6474 26.3519 80.7009 26.8253 80.7545 27.299C81.4042 33.0425 82.059 38.819 83.8243 44.3405C83.9976 44.7697 84.1657 45.1828 84.3339 45.5963C86.9734 52.0845 89.6521 58.6602 90.2857 65.7153C90.6295 69.0868 90.5771 72.4929 90.0066 75.835C89.9733 76.0152 89.8321 76.1414 89.6711 76.2078C89.4945 76.2806 89.2825 76.2871 89.124 76.186L88.2794 75.6472L88.815 76.4994C89.9423 78.2932 88.9982 81.4478 88.3593 83.6752C88.2646 84.0052 88.1756 84.3158 88.0989 84.6001C87.6083 86.2449 86.8146 88.0361 85.568 88.9863C85.0962 89.3459 84.5586 89.582 83.9465 89.6346C83.3843 89.6829 82.7612 89.5766 82.0706 89.2783C81.9841 89.2409 81.9004 89.2022 81.8193 89.1629C81.8005 89.2557 81.7817 89.3484 81.7628 89.4411C80.4067 96.1049 78.8934 102.71 77.0969 109.269L76.8466 110.183L77.4788 109.483C77.5797 109.371 77.6953 109.305 77.816 109.281C77.9511 109.254 78.0904 109.278 78.2185 109.336C78.3648 109.403 78.4968 109.515 78.5953 109.655C78.6852 109.783 78.7472 109.935 78.7646 110.1C78.7129 110.996 78.4268 111.858 78.144 112.717C77.9931 113.176 77.8427 113.634 77.7252 114.096C77.5939 114.573 77.3169 114.866 76.9616 115.05C76.418 115.333 75.7074 115.379 75.0371 115.429C74.6872 115.455 74.3471 115.48 74.0418 115.533C73.9961 115.541 73.9498 115.55 73.9031 115.559C73.8899 115.604 73.8768 115.649 73.864 115.694C73.7738 116.01 73.6947 116.329 73.6156 116.648C73.5524 116.903 73.4891 117.159 73.42 117.413L73.8509 117.539C73.8825 117.433 73.912 117.335 73.9398 117.243ZM40.4769 77.5559C40.4918 75.6422 41.1664 73.8376 41.835 72.0359C42.1136 71.2851 42.3919 70.5348 42.6244 69.7779C42.6382 69.733 42.6518 69.6879 42.6654 69.6428C42.6303 69.6073 42.5949 69.5733 42.5592 69.5411C42.3886 69.3879 42.178 69.2483 41.9631 69.1072C41.6632 68.9102 41.3505 68.7124 41.1644 68.4451C41.0499 68.2806 40.9906 68.0872 41.0303 67.8233C41.1382 65.851 41.2713 63.8794 41.4306 61.9109C41.4679 61.4906 41.5056 61.0703 41.5433 60.6497C42.2081 53.2361 42.8778 45.7375 41.5611 38.3605C41.5031 38.0246 41.4355 37.6921 41.3679 37.3596C41.3224 37.1361 41.2769 36.9125 41.2345 36.6883C41.2283 36.6553 41.2215 36.6116 41.2135 36.5607C41.1756 36.3185 41.1122 35.9331 40.9842 35.6519C40.8685 35.3978 40.6992 35.2353 40.4963 35.1996C40.4248 35.187 40.3518 35.1907 40.2789 35.2095C40.2658 35.2619 40.2528 35.3157 40.2399 35.3695C38.0348 44.5512 38.5882 53.918 39.1438 63.2666C39.3994 67.5677 39.6549 71.8648 39.6391 76.1381C39.6389 76.1801 39.6388 76.222 39.6385 76.264C39.6649 76.2723 39.6901 76.2862 39.7127 76.3069C39.77 76.3594 39.7858 76.4327 39.7743 76.501C39.7604 76.5839 39.709 76.6628 39.6301 76.7049C39.6026 76.7196 39.5733 76.7289 39.5436 76.7334C39.5348 76.7735 39.5257 76.8136 39.5164 76.8536C39.474 77.0363 39.4264 77.2177 39.3733 77.3979C39.3602 77.4422 39.3469 77.4863 39.3332 77.5303C39.3667 77.5626 39.4002 77.5948 39.4337 77.6271C39.659 77.8435 39.8857 78.0583 40.1147 78.2709L40.5233 78.6501L40.4903 78.0904C40.4798 77.9112 40.4755 77.7331 40.4769 77.5559Z" fill="white"/>
<path fill-rule="evenodd" clip-rule="evenodd" d="M88.5985 78.6577C87.7612 81.5043 86.9928 85.7194 84.8607 87.8152C84.1105 88.428 83.2288 88.0539 82.3678 87.9792C82.9227 84.6862 83.3056 81.366 83.615 78.0408C85.3691 77.7006 87.0605 77.0822 88.6269 76.2158C89.0337 76.9053 88.7795 77.9538 88.5985 78.6577ZM81.6066 87.1082C80.7984 91.8124 79.6964 96.4575 78.63 101.096C78.0652 103.923 76.8621 106.839 76.6028 109.63C71.1606 111.825 65.2726 110.972 59.6438 110.076C59.7305 110.002 59.7967 109.888 59.8061 109.75C59.9459 109.685 60.0603 109.558 60.0812 109.366C60.398 105.175 60.9774 100.616 59.9982 96.5606C60.6451 95.9708 61.2237 95.2855 61.7628 94.5942C62.2533 93.9395 61.2327 93.0738 60.6592 93.5501C61.4531 91.545 62.2723 89.5505 63.1312 87.5725C63.3607 87.0425 62.5876 86.5806 62.3558 87.1143C59.1571 94.5157 56.4587 102.091 53.6688 109.661C53.5135 109.349 52.8891 109.387 53.1155 109.83C47.3998 110.313 41.4338 108.838 36.1751 106.44C37.4318 102.359 38.8634 98.2022 38.7794 93.8843C40.0103 93.9421 41.6735 93.2337 42.3251 92.1622C42.9764 92.6739 43.7749 92.0457 44.1181 91.4492C44.9112 89.8847 44.4723 87.9748 44.0135 86.3711C45.6325 86.6286 47.6596 85.1105 46.5519 83.4144C44.8403 81.8962 42.8869 80.603 41.2088 79.0032C41.0653 76.0034 42.2149 73.2037 43.259 70.3894C48.5348 74.1488 53.7074 78.194 59.2474 81.5125C60.2 81.6107 60.9693 80.8819 61.6843 80.3497C63.7249 78.8188 65.7841 77.3082 67.7947 75.7358C68.0153 75.8181 68.2687 75.7978 68.4564 75.6707C69.7404 77.0611 71.0974 78.3452 72.3678 79.7426C73.1308 80.4556 73.6819 81.5686 74.747 81.842C75.245 81.9342 75.562 81.7256 75.8813 81.3763C77.8188 79.3034 79.9033 77.3784 81.9109 75.3767C82.1691 75.7163 82.6669 75.6017 82.9151 75.2762C82.7134 79.238 82.1996 83.1877 81.6066 87.1082ZM78.0183 110.104C77.957 110.157 78.0295 110.112 78.0878 110.2C78.1467 110.769 77.8164 111.347 77.7058 111.905C77.3386 112.726 77.3741 114.625 76.2904 114.654C70.3039 115.707 64.2551 114.81 58.3973 113.456C58.4735 112.254 58.8417 111.016 58.6015 109.826C58.6994 109.737 58.8034 109.675 58.9193 109.651C58.8867 109.819 58.9091 110.025 59.0366 110.109C64.0487 112.335 71.3097 112.795 76.5116 110.726C77.0587 110.901 77.4674 110.188 77.0388 109.795C77.1113 109.785 77.1808 109.76 77.2399 109.714C77.1547 110.09 77.699 110.38 78.0183 110.104ZM61.3516 114.9C61.5041 114.94 61.6574 114.978 61.8107 115.015C61.6931 115.299 61.8628 115.71 61.8167 116.029C61.709 115.633 61.5572 115.25 61.3516 114.9ZM52.4074 111.64C52.169 112.332 51.7905 113.101 50.9912 113.211C50.8042 113.134 50.5889 113.148 50.4483 113.278C45.2381 113.207 38.8629 111.619 34.8956 108.15C34.8479 107.676 35.0712 107.198 35.1178 106.726C35.1833 106.539 35.2584 105.36 35.5066 105.579C35.3174 106.048 35.1539 106.735 35.876 106.666C40.9844 109.646 47.0209 110.78 52.8739 110.594C52.6878 110.925 52.5472 111.283 52.4074 111.64ZM41.5834 131.337C41.1352 132.961 40.6557 134.577 40.1433 136.181C39.6503 138.56 38.4636 138.88 36.6999 137.321C35.4237 136.54 35.9619 135.137 36.155 133.927C36.3934 132.441 36.703 130.965 36.9258 129.477C38.3315 130.53 40.1014 131.047 41.8406 130.816C41.7015 130.952 41.6409 131.128 41.5834 131.337ZM39.234 138.956C39.2183 138.951 39.2019 138.946 39.1862 138.94C39.2041 138.934 39.2213 138.928 39.2385 138.922C39.237 138.933 39.2355 138.944 39.234 138.956ZM38.3151 142.018C37.759 147.02 36.1525 151.826 35.0522 156.722C34.9279 157.736 34.1613 158.106 33.2372 157.785C32.8575 157.685 32.2765 157.543 31.9983 157.242C31.6813 156.897 31.8966 156.225 31.9669 155.823C32.4036 153.335 32.8941 150.859 33.3966 148.384C33.9949 145.695 34.4812 142.952 35.135 140.294C36.0825 141.106 37.2894 141.677 38.5551 141.701C38.4325 141.747 38.33 141.852 38.3151 142.018ZM34.8337 159.895C34.7589 159.912 34.6841 159.925 34.6086 159.938C34.7223 159.573 34.831 159.066 34.6288 158.726C34.6752 158.71 34.72 158.692 34.7634 158.671C34.8299 159.082 34.8763 159.476 34.8337 159.895ZM34.1892 170.209C35.3941 170.999 36.0975 172.331 36.7142 173.601C37.1105 174.416 37.4335 175.399 38.0399 176.094C38.2911 176.778 38.5439 177.462 38.7846 178.15C39.5051 180.413 40.4042 182.815 40.3175 185.202C40.3182 185.2 40.3182 185.197 40.3197 185.193C40.3116 185.253 40.2915 185.311 40.2778 185.369C40.3324 185.331 40.3955 185.294 40.31 185.357C40.3021 185.351 40.2781 185.373 40.2771 185.371C40.2771 185.372 40.2763 185.374 40.2763 185.375C40.2816 185.371 40.2868 185.367 40.2935 185.363C40.2879 185.367 40.2808 185.374 40.2748 185.379C40.2748 185.381 40.2741 185.383 40.2734 185.385C40.2689 185.389 40.2357 185.414 40.2427 185.405C40.1642 185.441 40.0999 185.491 40.0401 185.552C35.4231 186.564 30.3259 186.744 26.0569 184.425C24.4166 181.05 26.0993 175.409 26.7725 171.774C28.9217 170.535 31.7359 168.963 34.1892 170.209ZM36.048 168.868C36.2222 169.645 36.3396 170.43 36.5004 171.207C36.0282 170.691 35.7851 170.044 35.3729 169.499C35.1191 168.96 34.8468 168.186 34.2153 168.087C34.198 167.65 34.1862 167.213 34.1802 166.776C35.2539 166.91 35.8199 167.845 36.048 168.868ZM41.8974 185.912C41.8847 185.699 41.774 185.487 41.5931 185.371C41.6346 184.619 41.5075 183.888 41.3912 183.147C42.1728 183.991 41.84 185.343 41.9678 186.401C41.9576 186.822 42.1596 187.359 41.6753 187.576C40.1634 188.633 38.3308 189.126 36.5243 189.338C32.5831 189.795 28.4858 189.062 24.9645 187.209C24.4933 186.564 24.6583 184.995 24.5952 184.168C24.818 184.906 25.2089 185.562 25.9822 185.793C30.7728 188.125 36.4109 187.844 41.4503 186.531C41.7805 186.442 41.9133 186.181 41.8974 185.912ZM29.2497 169.592C29.2774 169.558 29.3035 169.524 29.3305 169.49C29.4987 169.481 29.6669 169.466 29.8352 169.447C29.5835 169.549 29.3358 169.659 29.0942 169.783C29.1465 169.72 29.1989 169.657 29.2497 169.592ZM31.2902 165.719C31.701 163.967 31.8487 162.164 32.0574 160.378C32.6618 160.595 33.2676 160.744 33.9028 160.762C33.1245 163.146 33.1646 165.756 33.1857 168.246C32.2306 168.41 31.2021 168.502 30.2659 168.179C30.7354 167.418 31.0727 166.591 31.2902 165.719ZM37.7333 92.1477C37.2092 92.0948 36.688 92.1319 36.1691 92.2075C33.0978 90.0971 32.6136 81.4421 32.1314 77.7883C34.3293 78.3562 36.6572 78.2032 38.7906 77.4557C38.8308 77.854 39.2805 78.0591 39.554 77.7905C41.0008 80.3945 43.1657 82.4796 45.399 84.3436C45.3728 84.2567 45.3541 84.4162 45.387 84.3556C45.1026 85.0149 44.0581 84.6729 43.5641 85.1322C43.247 85.371 43.1805 85.7891 43.3824 86.068C42.848 87.5611 43.6975 89.3841 42.8978 90.8005C42.7182 91.0115 42.4844 91.1633 42.3296 91.4001C41.2653 90.6627 40.2954 92.2223 39.2176 92.2907C39.225 92.2907 39.2325 92.2907 39.2408 92.2899C39.0748 92.3085 38.8086 92.2993 38.6628 92.2786C38.3536 92.2301 38.0452 92.1792 37.7333 92.1477ZM39.7133 39.9755C39.9391 38.4869 40.2023 37.0074 40.544 35.5422C40.956 35.6148 41.048 36.5689 41.1003 36.8501C42.8641 44.9196 42.1004 53.2239 41.3448 61.3688C41.1616 63.5528 41.0106 65.7407 40.8925 67.9301C40.7399 68.9369 41.8851 69.2786 42.4963 69.8299C41.6462 72.5976 40.1791 75.2754 40.3526 78.223C40.1246 78.0113 39.8987 77.7973 39.6744 77.5819C39.7313 77.3967 39.7799 77.2114 39.821 77.0247C40.1002 76.8779 40.1888 76.4721 39.9496 76.2582C40.0415 64.1887 37.8015 52.0161 39.7133 39.9755ZM62.0044 16.4812C62.4283 15.7186 63.5509 16.7091 62.8455 17.2629C62.3547 17.6648 61.6745 17.0048 62.0044 16.4812ZM63.7069 24.513C64.0506 23.8743 65.1667 24.1913 64.9578 24.9484C64.9608 24.916 64.9631 24.8903 64.9653 24.8705C64.995 25.4872 63.8129 25.9875 63.7308 25.1995C63.6022 24.9946 63.5716 24.7261 63.7069 24.513ZM65.2831 33.1888C66.134 32.8501 66.4476 34.1216 65.7265 34.4605C64.951 34.7389 64.5239 33.4694 65.2831 33.1888ZM66.2761 42.5036C66.4862 41.7841 67.5601 41.9742 67.5524 42.7137C67.5253 43.7122 66.0634 43.4108 66.2761 42.5036ZM68.0362 51.5393C68.3348 50.6355 69.4819 51.1033 69.3858 51.9785C69.5109 52.484 68.5419 53.504 68.3458 52.6778C68.0841 52.3588 67.9607 51.949 68.0362 51.5393ZM69.8382 61.9607C69.8405 61.9577 69.8427 61.9547 69.8449 61.9517C70.4831 62.2553 69.9308 63.6379 69.3156 63.1303C68.7187 62.7618 69.1318 61.5936 69.8382 61.9607ZM70.6779 70.4211C71.4224 71.1612 70.2711 72.3324 69.5368 71.5747C68.7916 70.8362 69.9421 69.6647 70.6779 70.4211ZM88.7712 76.1364C88.781 76.1583 88.7914 76.1803 88.8034 76.2007C88.784 76.184 88.7645 76.1675 88.7451 76.1508C88.7533 76.1462 88.7623 76.1418 88.7712 76.1364ZM60.8641 164.295C60.8922 164.843 60.9324 165.396 61.063 165.927C61.4505 168.084 64.1913 170.674 66.4466 169.124C67.4814 168.387 67.9345 166.962 69.1683 166.5C70.4611 166.016 71.8765 166.493 72.9644 167.242C74.2236 168.109 75.2046 169.344 76.2768 170.423C78.5573 172.719 81.0863 174.762 83.7937 176.52C85.2106 177.409 88.1776 178.743 87.003 180.826C86.1043 182.144 83.8426 181.516 83.4535 182.26C78.4366 182.469 73.5276 181.081 68.7585 179.661C66.3375 178.861 63.8042 178.394 61.457 177.378C59.2077 175.386 59.2001 171.003 59.5099 168.193C59.6109 167.579 59.8618 164.658 60.808 165.178C61.089 165.209 60.6809 164.895 60.5807 164.933C60.7125 164.744 60.8207 164.526 60.8641 164.295ZM88.1633 180.687C88.1955 180.703 88.2291 180.71 88.2635 180.711C88.3622 180.966 88.3136 182.007 88.2949 182.187C87.9908 183.753 85.5514 184.013 84.2581 184.25C79.714 184.974 75.0924 184.468 70.6592 183.313C68.4953 182.771 66.3434 182.144 64.243 181.389C62.3759 180.815 60.0701 179.861 60.2996 177.468C61.3425 178.887 64.6644 179.307 66.3358 179.894C71.5812 181.505 76.9031 183.238 82.4388 183.293C83.2774 183.257 84.4364 183.494 85.0655 182.855C86.3995 182.662 87.7835 181.915 88.1633 180.687ZM89.3702 58.9367C88.1551 54.0956 86.2001 49.488 84.2969 44.8947C82.2401 38.796 81.6372 32.3364 80.9022 25.972C80.498 22.3813 80.061 18.7955 79.243 15.2724C78.5479 8.70483 71.951 7.98875 66.7778 6.97079C66.7851 6.40999 66.9556 5.77208 66.3994 5.41343C65.8888 4.88899 63.1626 3.25913 62.6242 3.94906C62.4128 3.42908 62.3093 2.8521 62.2092 2.29712C62.1419 2.07811 62.1142 1.32271 61.8788 1.32869C61.8285 2.80727 61.208 4.97193 62.453 6.08249C61.7057 7.23411 61.0826 8.62946 60.0977 9.54648C60.0984 9.54565 60.0992 9.5449 60.0999 9.54421C60.0506 9.57665 60.0005 9.60613 59.9489 9.6341C59.9608 9.62428 59.8898 9.65081 59.8315 9.66971C59.6976 9.69549 59.4762 9.6459 59.3395 9.58345H59.341C55.9492 7.63448 52.6309 5.54717 49.3477 3.4092C49.817 2.70725 50.4243 -0.733076 49.842 -1.20996C49.4348 0.147286 49.0108 1.50907 48.3928 2.78626C47.8575 2.49081 46.9912 1.95949 46.54 2.65396C45.971 3.61884 45.8085 5.01797 46.4914 5.97733C43.5564 7.14671 40.3913 7.55616 37.361 8.47001C36.0405 8.81233 34.6423 9.0671 33.4033 9.66064C29.7113 11.7318 29.7083 16.8346 29.3033 20.593C28.2643 38.8872 24.9686 57.7992 30.1296 75.7456C30.3279 76.2968 30.621 76.826 30.8491 77.3679C30.9396 77.5826 31.1743 77.5758 31.3291 77.4594C31.5041 77.5646 31.6963 77.6484 31.8974 77.7165C31.5596 82.3825 31.1015 90.9063 35.5558 93.6886C36.3345 93.9714 37.0694 93.5689 37.8777 93.7619C37.9853 97.7573 36.7307 101.595 35.5679 105.38C34.7127 104.71 34.3849 106.726 34.1263 107.246C33.2578 109.106 35.5766 109.938 36.7927 110.742C34.9797 116.515 31.2259 124.508 36.7307 129.325C36.1466 130.779 35.8468 132.369 35.5111 133.902C35.3308 134.902 34.8576 136.132 35.455 137.06C35.2934 136.952 35.1407 136.825 34.9758 136.722C35.6937 136.712 34.6319 136.182 34.2034 136.577C33.0071 137.478 33.8933 139.129 34.7888 139.975C34.4404 140.238 34.32 140.966 34.2168 141.311C33.7936 142.73 33.4227 144.165 33.0795 145.605C32.2443 149.182 31.4691 152.779 30.8871 156.406C30.8476 156.762 30.8708 157.123 30.9956 157.443C30.5453 157.463 30.2748 157.898 30.1313 158.277C29.9281 159.128 31.0057 159.965 31.7381 160.253C30.9663 162.843 30.8969 165.725 29.2617 167.974C29.086 167.801 28.7854 167.77 28.6351 168.057C28.471 168.532 27.4621 169.823 27.8403 170.21C27.853 170.303 27.9001 170.394 27.9704 170.453C27.6092 170.699 27.2645 170.961 26.9213 171.236C27.3803 169.907 27.7612 168.357 28.7479 167.333C29.0082 167.183 29.3409 167.234 29.5488 166.983C29.7006 166.8 29.7081 166.582 29.5563 166.403C29.4845 166.317 29.3192 166.408 29.3634 166.516C29.489 166.822 28.7158 166.768 28.5379 166.83C26.802 167.921 26.179 170.399 25.6164 172.278C24.9407 175.579 23.995 178.944 24.2039 182.339C23.9793 183.527 23.6559 186.791 24.337 187.688C27.9316 189.854 32.3913 190.49 36.5243 190.073C38.3667 189.803 43.2038 189.212 42.8583 186.627C42.7425 185.167 43.0762 183.217 41.6627 182.306C41.5004 182.21 41.3441 182.237 41.2289 182.323C40.3649 178.412 38.4875 174.898 37.361 171.083C36.8886 169.332 36.5467 166.333 34.1764 166.464C34.1002 164.578 34.2616 162.644 34.0037 160.776C34.0037 160.777 34.0037 160.777 34.003 160.777C34.0015 160.772 33.9992 160.768 33.997 160.764C34.4839 160.704 35.3026 160.836 35.5605 160.321C35.6926 159.597 35.7573 158.746 35.4618 158.054C36.3501 156.069 36.5364 153.767 37.1398 151.672C37.8896 148.484 38.754 145.294 39.0232 142.018C39.0374 141.843 38.9447 141.735 38.8213 141.694C39.0136 141.691 39.2178 141.643 39.3649 141.558C40.6921 141.481 41.4496 139.097 40.2554 138.359C40.2659 138.256 40.2524 138.166 40.2218 138.091C41.0294 136.531 41.3083 134.827 41.8759 133.195C41.9831 132.469 42.6894 131.395 42.281 130.742C48.4106 129.132 49.8731 119.628 51.2723 114.254C53.2932 113.855 53.1018 111.909 54.1987 110.648C54.3911 110.46 54.4 110.234 54.3096 110.051C56.2493 106.035 57.4724 101.477 59.2071 97.2977C59.4414 101.349 59.3622 105.421 58.9387 109.457C57.6576 109.157 57.6526 110.946 57.4739 111.804C57.3812 112.338 57.2885 112.871 57.1958 113.405C57.0597 114.19 58.0586 114.415 58.3263 113.794C59.1264 114.194 59.9593 114.5 60.8117 114.749C60.9919 115.605 61.1669 116.449 61.1736 117.332C61.227 118.344 60.6735 119.358 60.8603 120.337C59.6263 123.313 57.6908 125.866 56.7987 128.967C53.8502 139.819 59.8664 150.387 60.5964 161.155C60.2888 159.798 60.4681 163.114 60.4806 163.388C60.5136 165.599 58.5995 164.574 58.6727 169.411C58.5375 171.713 58.6671 174.071 59.5983 176.207C59.8046 176.864 59.4506 177.518 59.6013 178.192C59.7491 179.413 60.7377 181.264 62.121 181.079C70.0137 184.101 79.1573 186.841 87.459 184.027C88.0362 183.736 88.6381 183.361 88.8453 182.708C89.0222 182.126 89.2608 179.922 88.2635 180.092C88.2849 178.087 86.4009 176.876 84.8816 175.972C82.7575 174.623 80.7304 173.119 78.858 171.429C76.0191 169.125 73.6796 164.674 69.4838 165.363C68.9374 162.335 69.5097 159.246 69.5054 156.19C69.7788 142.711 72.4011 129.497 74.3855 116.218C74.403 116.103 74.2475 116.055 74.2094 116.17C69.9362 128.631 68.8517 142.001 68.0486 155.09C67.7832 158.609 68.0829 162.111 68.7959 165.562C66.9187 166.084 66.6283 169.04 64.436 168.756C63.2714 168.509 62.2284 167.579 61.7606 166.484C62.2587 165.665 61.9063 164.521 61.8864 163.59C61.8092 162.687 61.7187 161.785 61.6133 160.885C60.8865 150.542 55.2817 140.536 57.4923 130.079C58.549 124.935 63.5642 120.62 61.9842 115.057C66.4876 116.104 71.1807 116.312 75.7609 115.696C77.4233 115.643 77.9544 114.934 78.3031 113.367C78.5541 112.323 79.0673 111.298 79.0756 110.215C79.0015 109.372 77.9988 108.784 77.3992 109.449C79.1968 102.886 80.712 96.2731 82.0687 89.6061C86.4512 91.507 88.1775 86.0372 88.9835 82.7431C89.3722 80.7702 90.2087 78.3423 89.0905 76.4971C92.3606 77.8151 90.1866 60.7271 89.3702 58.9367Z" fill="black"/>
</g>
<defs>
<clipPath id="clip0_43_100">
<rect width="123" height="189" fill="white"/>
</clipPath>
</defs>
</svg>
