<svg width="125" height="188" viewBox="0 0 125 188" fill="none" xmlns="http://www.w3.org/2000/svg">
<g clip-path="url(#clip0_43_48)">
<path fill-rule="evenodd" clip-rule="evenodd" d="M89.4717 180.004C89.6512 179.286 89.3589 178.354 89.1903 177.421C88.9282 175.969 88.309 173.866 87.1296 173.208C86.9204 172.66 81.1173 168.274 78.0905 166.07C76.5359 164.938 75.2626 162.802 74.9475 162.827C74.3481 161.368 74.2711 159.928 73.9032 158.239C75.2706 158.061 77.6064 158.38 78.6841 157.61C78.8773 157.623 78.8744 155.535 78.9025 155.24C78.0905 153.063 76.0949 99.7985 78.0905 74.4276C78.3018 71.6037 78.8522 68.4439 78.3085 65.5309C79.199 65.3372 79.7329 64.424 79.7361 64.3874C81.8659 60.2493 78.5987 46.1783 76.551 42.2826C78.1771 42.2407 80.319 42.0218 81.3257 40.678C81.8023 40.5228 82.1028 40.2524 82.3341 39.8178C82.6004 39.4039 82.8476 38.9696 83.0702 38.5244C84.1536 36.2969 84.822 33.8234 84.4607 31.3692C84.5296 31.3475 84.8843 31.3453 84.9019 31.2471C84.9367 30.6437 84.8248 30.1121 84.6416 29.5423C82.7811 23.1236 80.5414 16.8042 77.5809 10.7613C76.0974 7.527 73.0281 6.34676 69.8479 5.13255C68.3179 4.5376 66.7873 3.85096 65.1906 3.46131C65.1704 3.35074 65.2658 3.01437 65.0565 3.04179C64.7981 3.09514 64.8491 3.50641 64.7533 3.7372C61.0611 0.745866 63.4025 -0.795571 61.1762 -2.43383C58.8726 -3.61727 57.5069 -3.66534 54.967 -3.40922C54.03 -3.38239 53.2802 -2.96436 53.0593 -2.03088C52.2538 -0.0994169 50.3665 1.32217 48.3075 1.75796C48.1374 1.45822 47.6696 0.598595 47.4076 0.869954C44.434 0.970413 38.6875 3.29529 35.9043 4.10357C33.1102 4.80983 33.1456 5.56239 32.4146 8.5671C31.0882 13.9213 31.3368 34.0306 34.798 38.2682C36.0528 39.0977 36.9953 39.6143 37.6254 39.8178C37.6042 41.7989 37.9394 44.7503 37.6254 46.6878C36.9185 50.2015 36.0568 53.7298 35.2694 57.2623C35.2659 57.6559 32.1146 63.4895 33.5917 62.4096C33.8966 62.558 34.4325 63.1813 34.7609 63.3199C33.1916 66.8596 33.4805 71.2045 33.5917 75.5773C33.6195 78.1813 33.0048 81.0348 32.4146 83.7015C28.0481 106.296 25.0862 131.951 23.4648 154.584C23.3987 155.511 23.3553 156.218 23.324 156.877C23.2918 157.103 23.5999 157.099 23.7143 156.984L23.8721 156.832C24.0479 156.882 24.3288 156.958 24.5069 157.006C24.5296 157.747 24.4554 158.516 24.3649 159.192C24.2817 159.838 23.2213 162.658 23.4648 163.289C22.6565 163.246 21.1391 164.559 20.4152 165.979C20.0439 166.308 18.8563 166.849 18.5839 167.354C18.2164 167.705 16.7563 168.612 14.2035 170.077C12.7937 171.193 8.25835 175.625 8.62841 176.525C8.62841 176.525 8.58677 176.807 8.57279 176.9C7.79437 181.383 9.09057 181.195 13.2843 181.855C19.4106 182.924 25.205 179.68 30.3825 176.931C32.103 175.783 33.7789 176.088 33.5917 174.701C33.2521 172.988 33.1918 166.858 31.228 166.997C31.5509 166.646 31.47 163.429 31.228 162.827C31.0742 161.279 32.4901 159.833 32.4146 158.239C33.2372 158.299 34.9178 158.681 35.2694 157.773C35.2536 157.681 34.8651 157.683 34.798 157.661L34.8051 157.61L34.7609 157.6C38.1857 145.653 46.5289 90.788 55.5881 86.5768C55.6441 87.027 56.6408 86.4929 57.2444 86.5768C60.0465 108.212 63.2545 128.606 64.9659 151.747C65.137 152.433 65.5329 157.22 65.7 158.014C66.0497 158.3 66.3277 158.471 66.534 158.528C66.6275 160.97 66.3106 166.065 66.2998 166.07L66.1359 166.467C65.1817 168.596 64.4707 171.446 65.7 173.533C64.7877 173.468 64.3894 174.237 64.3485 175.037C63.8109 178.543 78.0247 181.654 81.3257 181.855C82.4103 182.042 90.1423 180.677 89.4717 180.004Z" fill="white"/>
<path fill-rule="evenodd" clip-rule="evenodd" d="M88.172 180.294C86.3802 180.7 84.632 181.372 82.8628 181.77C77.1007 181.349 71.4439 179.431 66.3893 177.062C64.9241 176.428 64.065 175.302 64.72 173.857C66.864 176.479 74.8007 178.304 78.4341 179.434C80.6937 179.925 83.2595 181.034 85.5414 179.999C86.9873 179.754 88.6331 179.068 89.1896 177.779C89.2279 178.328 89.1709 178.874 89.1227 179.422C89.1794 180.094 88.8481 180.185 88.172 180.294ZM66.7741 158.192C66.7266 158.081 66.576 158.078 66.519 158.18C66.4094 158.171 66.2926 158.16 66.1762 158.155C66.3757 157.531 66.4038 156.877 66.3047 156.232C66.1795 154.454 66.0362 152.677 65.8845 150.901C64.3197 133.881 62.5172 116.809 59.4438 99.9759C59.4807 99.9501 59.505 99.9101 59.4985 99.8592C59.3443 98.6663 59.0187 97.5037 58.7914 96.323C58.5621 95.1323 58.3686 93.9353 58.1571 92.7415C58.094 92.385 58.0298 92.0283 57.9627 91.6719C58.0109 90.806 57.7997 89.8952 57.6881 89.0563C57.6098 88.4675 57.4968 87.8651 57.3412 87.2763C57.4067 87.0782 57.3725 86.8432 57.2116 86.6939C57.2094 86.6919 57.207 86.69 57.2049 86.688C57.2169 86.6488 57.2301 86.6114 57.2443 86.5767C57.3549 86.306 57.5943 86.1849 57.7675 85.9923C58.2647 85.9034 58.7733 85.8789 59.2747 85.9578C59.3496 85.9716 59.4052 85.8692 59.3296 85.8289C57.3147 84.6624 54.8065 85.7872 53.3205 87.3081C48.7536 93.7314 47.1018 101.887 44.5783 109.257C40.0102 125.287 36.8059 141.684 33.1362 157.915C30.2335 157.781 27.3375 157.362 24.4285 157.434C24.3192 157.19 24.1314 156.929 23.9076 156.824C25.7151 132.081 28.8206 107.431 33.4444 83.0474C33.9576 76.6605 33.1548 70.1489 35.0687 63.9037C48.6526 69.1952 63.8416 69.9829 78.0903 67.137C75.4262 97.0418 74.0188 127.259 77.6784 157.158C76.5086 157.616 75.2526 157.812 74.0087 157.956C71.6169 158.242 69.1786 158.278 66.7741 158.192ZM30.6307 165.241C30.4156 165.654 30.6438 166.085 31.0947 166.202C29.7459 166.554 29.4956 167.975 28.4324 168.623C28.3328 168.436 28.0511 168.405 27.8627 168.35C27.2947 166.26 26.639 163.8 23.9779 163.032C24.1472 162.817 24.1238 162.564 24.1159 162.311C24.3136 161.316 25.0255 159.095 24.5845 157.954C27.0295 158.506 29.5394 158.732 32.0186 159.089C31.5142 160.904 31.0868 163.645 30.6307 165.241ZM32.3315 174.082C32.4114 174.061 32.4914 174.039 32.5698 174.015C32.9599 175.708 30.3163 176.261 29.0124 176.862C27.0474 177.668 25.0847 178.477 23.1266 179.292C19.162 181.26 15.4383 181.815 11.031 180.412C8.22619 179.88 8.75978 179.349 8.34861 177.208C11.1608 180.951 16.9216 179.344 20.4978 177.726C23.7482 176.494 27.0222 175.311 30.3848 174.274C31.0566 174.441 31.6968 174.267 32.3315 174.082ZM60.8833 37.2423C59.1899 37.6963 57.4728 37.9314 55.7511 38.268C55.9012 37.1742 56.1218 36.0808 56.1257 34.9728C57.6326 35.8828 59.2342 36.6264 60.8833 37.2423ZM44.9054 26.1789C48.5243 25.4322 52.356 25.7049 55.7754 27.1234C56.9495 27.5098 58.5357 28.5168 59.7549 28.0506C58.8505 30.891 59.9896 33.8173 61.1675 36.4023C58.4636 35.5101 56.083 33.9405 53.6212 32.5641C54.5429 31.3634 46.1602 29.908 45.2503 29.9396C44.992 28.6978 44.6842 27.4664 44.4144 26.2262C44.5649 26.2819 44.7519 26.2075 44.9054 26.1789ZM63.6055 27.5223C63.6248 27.5364 63.6391 27.5547 63.6457 27.5788C67.1878 28.0644 70.745 29.6597 74.382 29.1972C76.8393 28.8834 75.7078 30.2739 74.0712 30.2217C70.3788 30.5878 66.9554 28.4277 63.5202 27.6912L63.6055 27.5223ZM65.5387 4.04571C65.5301 4.08406 65.5214 4.12249 65.5133 4.16107C65.4768 4.16107 65.4404 4.15731 65.4024 4.14678C65.3788 4.12414 65.3564 4.10083 65.3335 4.07782C65.4006 4.05902 65.47 4.04744 65.5387 4.04571ZM90.5049 179.577C90.454 178.729 90.0042 177.879 89.3605 177.309C89.7902 175.568 88.9295 173.35 87.0931 172.601C86.5937 171.791 85.5098 171.434 84.7268 170.857C85.3836 170.817 85.9857 170.354 85.4814 169.856C84.4143 170.176 83.382 170.608 82.3659 171.042C82.0914 171.099 81.4392 171.637 81.3879 171.157C81.5811 170.775 83.0713 170.388 83.5573 170.123C83.1972 169.898 82.8362 169.672 82.4776 169.445C83.1149 169.429 83.9342 168.956 83.3096 168.418C81.6268 168.789 79.8769 169.115 78.394 169.959C77.1706 169.658 80.7322 168.579 81.0611 168.528C80.5026 168.152 79.9616 167.758 79.4532 167.333C80.0108 167.323 81.173 166.768 80.4297 166.272C79.4938 166.034 78.1943 166.798 77.2655 167.043C77.2648 167.042 77.2648 167.043 77.2648 167.043C76.565 167.299 75.872 167.577 75.185 167.863C74.9076 167.979 74.7899 167.6 75.0634 167.485C76.1307 167.041 77.211 166.62 78.3149 166.257C78.014 165.932 77.7306 165.594 77.4465 165.255C77.5219 164.724 76.9674 164.257 76.7619 163.777C76.8054 163.53 76.6806 163.144 76.3856 163.093C76.1513 162.868 75.7975 162.854 75.4708 162.905C74.9523 161.918 74.5048 160.383 74.3405 159.159C75.7139 158.977 77.3075 158.972 78.4946 158.221C78.8479 158.2 79.2001 157.946 79.2098 157.525C79.245 156.005 79.0931 154.507 78.9567 152.995C78.8203 151.485 78.6921 149.973 78.5722 148.462C76.5457 124.21 76.9108 99.8313 78.8381 75.586C79.044 72.7436 79.1471 69.8365 78.6701 67.014C79.2623 66.8329 81.4755 66.4556 81.3051 65.6619C83.2256 60.8214 80.3852 48.4235 78.2967 43.5516C79.851 43.4616 81.7166 43.1318 82.7374 41.8633C83.7205 41.5203 84.0651 40.3796 84.5551 39.5577C85.6092 37.3675 86.2921 34.9027 86.0254 32.4641C87.1136 32.1786 85.7643 29.2194 85.644 28.4228C83.8395 22.5309 81.7717 16.6713 79.062 11.123C78.0947 9.09449 76.3992 7.49182 74.324 6.59612C71.8293 5.51963 69.3225 4.40577 66.7139 3.61812C66.7298 3.17835 66.2649 3.00614 65.9478 3.16512C65.9276 3.15865 65.9073 3.15203 65.8865 3.14714C65.5659 3.07179 65.0803 3.19565 64.8223 3.46103C63.9767 2.23504 63.7579 0.683818 63.4459 -0.756337C62.1882 0.545601 63.3494 4.90404 65.3081 5.27929C64.0323 14.3866 53.3371 12.2262 50.0825 5.58957C49.3763 4.30748 48.9001 3.04675 48.1956 1.74188C50.2284 2.1539 52.3074 1.04327 53.0444 -0.886508C53.1956 -1.19919 53.3264 -1.37365 53.6053 -1.56917C53.9479 -1.80981 53.8605 -2.42194 53.3765 -2.40645C51.4675 -1.98225 52.7213 1.02598 48.0779 1.55313C47.9099 1.29595 47.7116 1.0523 47.5026 0.926714C47.4143 0.830533 47.1355 0.803537 46.9851 0.91393C43.4912 1.12193 40.0831 1.99606 36.7321 2.93749C33.8541 3.63767 30.8362 5.15957 30.1235 8.25887C28.7595 13.1875 30.9353 37.6817 34.6911 40.7105C35.3104 41.3038 36.0535 41.7122 36.8583 41.9994C36.088 47.4458 34.8874 52.8583 33.8653 58.2713C33.7889 59.2049 32.1515 64.3855 34.2298 63.533C34.2862 63.56 34.3434 63.586 34.4003 63.6122C34.2775 63.8597 34.1619 64.1105 34.0501 64.3642C33.6912 65.1786 33.4056 66.002 33.2746 66.8841C33.1383 67.8012 33.1114 68.7284 33.0702 69.6533C33.0548 69.997 33.0422 70.3349 33.0379 70.671C32.6364 73.9169 32.6446 77.2306 32.6121 80.4921C30.7963 92.8219 28.1893 105.059 26.7074 117.454C24.9051 130.695 23.4753 143.992 22.6439 157.329C22.6155 157.941 23.332 158.062 23.6804 157.722C23.7303 157.736 23.7804 157.75 23.8305 157.764C23.8314 158.299 23.7849 158.835 23.7222 159.366C23.6031 160.141 22.7069 162.09 22.9326 162.793C22.1168 162.681 20.8034 162.845 20.5666 163.506C19.6327 164.683 19.6925 166.287 18.5838 167.354C19.6509 167.585 20.7108 167.895 21.7458 168.22C21.9597 168.333 21.8302 168.643 21.5597 168.563C20.9851 168.393 20.4089 168.218 19.8296 168.059V168.059C19.2694 167.905 18.7068 167.767 18.1369 167.662C18.1172 167.677 18.124 167.712 18.1488 167.725C17.7409 168.038 17.2779 168.31 16.8136 168.571C17.113 168.636 21.0908 169.69 19.9007 170.02C18.7467 169.547 17.544 169.094 16.2965 168.86C15.7567 169.162 15.2285 169.477 14.6955 169.788C14.9528 169.842 19.2409 170.763 17.7548 171.029C16.6021 170.615 15.4073 170.336 14.2034 170.076C12.7273 170.945 11.2488 171.81 9.79192 172.702C9.18265 173.073 8.52026 173.431 8.129 173.99C7.60924 174.732 7.60309 175.659 7.96031 176.508C6.91753 180.95 8.75772 181.122 13.0469 182.054C19.127 183.594 24.4 179.901 29.6838 177.895C30.7874 177.383 32.0073 176.999 32.9965 176.325C33.9305 175.667 34.5462 174.285 33.6908 173.336C34.282 172.243 33.4924 169.561 33.3038 168.28C33.1481 167.472 33.0433 166.168 31.8295 166.126C32.1541 165.917 32.1437 165.525 32.0358 165.21C31.8937 163.658 32.3813 160.901 32.4985 159.148C33.4262 159.214 34.802 159.483 35.2835 158.466C35.4694 158.172 35.2295 157.857 34.9254 157.817C34.9256 157.816 34.9257 157.816 34.9258 157.815C34.9908 157.82 34.9724 157.813 34.9291 157.803C39.8475 137.714 43.0198 117.132 50.1174 97.6244C51.7422 93.8562 52.466 88.997 56.0967 86.5646C56.1462 86.8685 56.1985 87.219 56.3915 87.4377C56.4019 87.477 56.4128 87.5163 56.4229 87.5556C56.5497 88.0455 56.6925 88.5305 56.8186 89.0205C59.6592 110.651 62.9386 132.235 64.5146 154.011C64.7535 155.019 64.3649 158.608 65.7917 158.447C65.9682 158.546 66.1986 158.593 66.39 158.64C66.0952 159.934 66.1776 161.888 66.1866 163.068C66.1662 164.247 65.9693 165.468 66.1022 166.636C66.2549 167.403 67.7055 166.941 67.4684 166.17C67.4352 163.957 67.2998 161.228 66.9159 158.772C69.139 159.201 71.4176 159.305 73.6813 159.202C73.5598 160.499 73.9481 162.121 74.4 163.185C73.0447 163.635 71.7319 164.241 70.6842 165.156C69.6921 166.048 68.7804 168.093 67.0315 167.417C66.5467 167.204 66.0155 166.833 65.8484 166.356C65.6864 166.237 65.7712 166.524 65.8028 166.593L65.7367 166.616C65.3344 166.362 64.5955 168.995 64.5338 169.324C64.2249 170.733 63.867 172.34 64.5984 173.658C63.0268 174.304 63.196 176.404 64.3613 177.283C68.9875 180.248 76.7013 182.668 82.4432 183.074C83.4592 183.144 84.5282 182.849 85.495 182.533C86.6311 182.232 87.7709 181.911 88.894 181.558C89.8833 181.333 90.6279 180.494 90.5049 179.577Z" fill="black"/>
</g>
<defs>
<clipPath id="clip0_43_48">
<rect width="125" height="188" fill="white"/>
</clipPath>
</defs>
</svg>
