<svg width="123" height="190" viewBox="0 0 123 190" fill="none" xmlns="http://www.w3.org/2000/svg">
<g clip-path="url(#clip0_43_40)">
<path fill-rule="evenodd" clip-rule="evenodd" d="M28.6989 38.7702C26.696 41.1555 26.8731 41.8188 27.9402 44.2272C30.2979 49.8153 33.6785 55.4959 37.516 60.6776C37.2627 49.0522 37.0448 37.3636 36.6701 25.6322C34.3883 30.1651 31.9583 34.2595 28.6989 38.7702ZM28.321 182.452C27.0603 182.327 18.1873 182.661 20.562 180.027C19.829 178.407 21.8767 177.039 23.1386 175.807C24.3192 174.66 25.4828 173.385 26.6951 171.911C27.8241 170.544 29.0968 168.928 29.9196 167.043C30.1017 166.747 30.2867 166.54 30.4699 166.427L30.5756 166.362L30.6414 166.256C31.3358 165.127 31.9091 163.961 32.5401 162.812C30.9969 162.244 29.5948 161.674 27.8468 160.886C30.3133 146.096 34.0098 131.687 36.3999 116.853C37.8546 103.946 38.6356 90.9164 41.9646 78.2041L42.3905 78.2374L42.6279 77.4044C42.2782 77.3952 41.5699 77.3711 41.2192 77.3572L41.3013 77.7834C39.7144 77.5963 38.1593 77.1358 36.6165 76.7452C35.8291 76.6356 35.0398 76.0622 35.3231 75.1066C35.4142 73.7203 35.6959 72.3678 35.8285 70.9819C35.3264 70.6328 34.8084 70.2344 34.3123 69.826C33.0004 70.4559 31.4147 72.49 29.9801 71.9725C26.6275 67.3904 23.8139 61.8822 21.2678 57.4818C15.1182 47.3054 13.1663 40.9442 19.5089 30.3332C24.9924 21.4438 30.9075 7.31521 41.9003 5.08431C43.1345 4.8497 44.4278 4.83982 45.6139 4.26723C45.6747 3.4462 46.0776 2.97455 46.3725 2.96786C47.0888 2.80773 47.8754 2.55009 48.5748 2.54355C48.8214 2.43867 49.1225 2.52486 49.3594 2.5722C50.0644 1.13132 50.0014 -0.708184 50.7739 -2.05893C50.8019 -3.08235 51.1083 -4.21308 54.2058 -4.41881C56.3143 -4.59802 59.3006 -4.77069 60.986 -3.83254C62.1653 -2.86575 62.1775 -0.6999 62.0296 0.82618C61.8672 1.94695 61.9398 3.25043 62.8018 4.56675C65.2584 3.79451 66.9715 5.42684 68.5094 8.47208C74.947 9.36455 76.3352 9.8714 78.8329 16.3647C80.0241 19.1806 81.2644 22.1889 82.1929 25.2716C83.4364 29.0401 83.5457 32.9848 84.7546 36.78C88.038 45.1443 91.377 50.5422 92.4284 60.2798C92.9416 64.5792 92.6468 66.7113 92.159 67.357C90.7713 66.9485 88.9812 66.6356 87.524 66.4616L89.0833 67.6694C87.762 73.7703 91.5678 91.1688 81.2489 89.8323C81.1572 89.6052 81.3255 88.3561 81.3698 87.838C81.0877 87.8581 80.5659 87.8769 80.2881 87.8413C79.7961 89.2872 79.0572 90.5864 78.5909 92.0572C78.3602 92.9534 78.0688 93.8554 77.7838 94.727C71.2854 117.013 69.9985 138.468 72.8984 160.841L72.7673 160.89L72.7143 160.986L72.6346 161.016C72.4299 161.294 72.1399 161.306 71.6771 161.307C68.8346 161.409 66.3372 161.539 64.0211 161.605C64.2669 162.858 64.1095 164.176 64.0011 165.45C65.3491 165.354 66.5859 165.911 67.818 166.58C70.1722 167.756 72.5169 168.993 74.7965 170.344C77.0596 171.819 80.7196 173.08 78.9025 175.73L79.4279 175.94C79.4455 175.947 79.4568 175.954 79.4635 175.958C79.5255 176.183 78.8139 177.115 78.603 177.105C73.6262 177.341 69.3817 176.158 63.0156 174.918C61.5581 174.38 54.2171 173.464 54.1863 172.05C54.2097 171.61 54.6568 171.64 54.9688 171.585C54.0335 166.776 57.195 166.387 57.6476 162.023C57.0217 162.145 56.3449 162.249 55.7038 162.07C55.1413 152.757 56.0451 143.224 55.0457 133.821L54.0296 133.706C50.6142 143.939 47.0728 154.408 44.3529 165.037C44.3011 165.268 44.047 165.11 43.9308 165.026C42.1531 164.983 40.3748 164.789 38.6317 164.485C38.5898 165.53 38.5458 166.595 38.5025 167.639L38.7712 167.786C38.9444 168.032 38.8715 169.181 38.8401 169.676C38.8085 170.182 38.7823 170.548 38.8263 170.891C39.3869 172.017 37.4699 174.456 36.456 175.812C34.247 178.723 32.4171 183.035 28.321 182.452Z" fill="white"/>
<path fill-rule="evenodd" clip-rule="evenodd" d="M50.252 -2.02683C50.8538 -2.44164 49.9969 1.15787 49.9954 1.5042L49.9803 1.5796C49.8303 2.31277 49.5662 3.16574 48.9584 3.63593C49.2387 5.96936 49.5876 8.29534 50.0171 10.6044L50.2697 10.6382C54.0174 11.1433 57.7896 11.8379 61.6 11.476C63.6529 11.4925 65.012 10.0638 65.8397 8.29169C65.7836 8.08269 65.7275 7.87452 65.67 7.66552C63.0628 6.04163 61.0886 2.74612 62.2633 -0.364635C62.3134 -0.497635 62.4689 -0.506755 62.549 -0.437595C62.5619 -0.436379 62.5738 -0.425587 62.5728 -0.411071L62.5312 0.246888C62.4515 1.55546 62.4248 2.90807 63.1209 4.08516C65.9576 3.42723 67.7216 5.83278 68.9076 8.10936L69.7596 8.23758C73.0193 8.73008 76.163 9.31313 77.7726 12.7096L77.9931 13.1866C80.2423 18.0672 82.3382 23.0858 83.5651 28.3413C84.1828 31.1374 84.4063 34.0185 85.3124 36.7455C87.1937 41.8091 89.8448 46.5678 91.2823 51.8101C92.1743 53.7016 94.6844 67.94 92.2081 68.0483C91.3175 67.777 90.4105 67.5573 89.4938 67.4014C89.6352 67.511 89.6867 67.6972 89.6598 67.8872C89.3398 70.1694 89.3158 72.4814 89.3173 74.7828C89.4864 80.3563 89.3348 92.3473 81.0818 90.4227C80.4794 90.1971 80.8706 89.2145 80.8465 88.528C80.7993 88.5303 80.7514 88.5294 80.7036 88.5264C80.2298 89.8268 79.5655 91.0269 79.1491 92.3484C78.7962 93.484 78.5495 94.7053 78.0575 95.7928C72.8467 114.64 70.6957 134.464 72.7329 153.972C72.8473 155.14 72.9759 156.306 73.1196 157.471C73.0992 158.216 73.9539 161.219 73.1883 161.451C73.1586 161.51 73.0559 161.578 72.9946 161.599C72.5322 162.106 71.7634 161.918 71.1529 161.986C68.9958 162.083 66.839 162.174 64.6807 162.246C64.8099 163.178 64.7056 164.123 64.6291 165.053C66.2029 165.066 67.6494 166.041 69.0414 166.702C71.1088 167.74 73.1426 168.849 75.1377 170.024C76.9797 171.335 81.0951 172.602 79.6792 175.575C80.735 176.01 79.2678 177.833 78.4656 177.853C73.244 177.826 68.0555 176.622 62.9527 175.564C60.0533 174.785 56.8896 174.489 54.2073 173.145C53.4459 172.795 53.6054 171.398 54.4429 171.268C53.8211 166.613 56.3447 166.677 57.0555 162.799C56.6423 162.868 56.1859 162.829 55.7716 162.743C54.8122 163.646 55.1647 156.543 55.0343 155.849C55.0083 148.565 55.3479 141.265 54.585 134.006L53.2885 137.889C50.2659 146.951 47.2887 156.036 44.9192 165.3C44.7771 165.859 44.1999 165.926 43.8313 165.682C42.2752 165.636 40.7253 165.487 39.1901 165.235C39.1603 165.976 39.1296 166.717 39.099 167.458C39.7611 167.82 39.3128 170.107 39.3973 170.881C40.1182 172.552 37.1997 175.807 36.2539 177.178C34.551 179.598 32.8596 182.985 29.5664 183.097L29.4661 183.099C27.0077 183.16 24.5273 183.014 22.0927 182.657L21.7965 182.608C21.1022 182.49 20.3337 182.317 19.9341 181.689C19.5917 181.151 19.6336 180.456 20.0492 180.045C19.5003 178.018 21.6372 176.791 22.8308 175.557C25.0605 173.369 27.087 170.962 28.8395 168.363L28.9402 168.12C29.265 167.341 29.6531 166.475 30.2579 166.102C30.8345 165.17 31.3276 164.19 31.8483 163.227C30.4261 162.696 29.0257 162.102 27.6408 161.477C27.3653 161.352 27.2776 160.988 27.3258 160.717L27.3293 160.698C30.0328 146.415 33.2741 132.233 35.7951 117.917C37.4053 104.724 38.0654 91.3617 41.4506 78.458C39.8083 78.2843 38.1737 77.8042 36.562 77.3939C35.2699 77.1141 34.6165 76.4464 34.8714 75.054C34.959 73.8165 35.2025 72.5989 35.3342 71.3664C34.9902 71.1216 34.6545 70.8641 34.3277 70.5995C33.722 71.0594 33.0969 71.4925 32.4547 71.8968C30.9168 73.0236 29.7297 73.1991 28.7797 71.352C26.0281 66.9293 23.3745 62.4421 20.8702 57.8696C18.5473 53.4832 15.6684 49.106 15.0788 44.0556C14.2222 34.9669 24.7036 20.422 29.9543 13.0355C32.8498 9.47767 36.3763 5.81591 40.9623 4.78132C42.3729 4.5686 43.8601 4.53964 45.2049 4.01904C45.3141 3.35389 45.621 2.74148 46.3145 2.57869C47.0439 2.41453 47.8258 2.161 48.5606 2.14253C48.7267 2.09488 48.9227 2.06478 49.0982 2.09769C49.601 0.768981 49.675 -0.728143 50.252 -2.02683ZM22.1578 181.095C22.2835 181.158 22.4135 181.213 22.5467 181.262C22.7104 181.284 22.8734 181.306 23.0364 181.325C22.741 181.257 22.4479 181.181 22.1578 181.095ZM38.4761 168.178C36.0673 169.068 35.4053 164.891 30.6677 166.581C28.8162 170.079 26.4191 173.256 23.6793 176.081C22.7055 177.312 19.8231 178.711 21.3764 180.518L21.6143 180.562C24.3118 181.061 27.05 181.458 29.7988 181.232C31.8759 180.649 33.4337 178.955 34.6927 177.247C35.6035 175.604 36.669 174.058 37.7567 172.533C38.3547 171.775 38.4153 170.81 38.4126 169.878C38.4327 169.311 38.4537 168.744 38.4761 168.178ZM65.5353 166.128C64.5126 165.746 63.4635 166.105 62.5332 166.573C60.9441 167.297 57.5022 168.164 56.0319 167.01C55.3109 168.224 55.0692 169.572 55.2669 170.972L55.2685 171.037C55.2839 171.612 55.3551 172.078 56.0385 172.119L57.9549 172.609C64.4198 174.261 70.9483 175.858 77.6028 176.317C79.3789 175.189 79.4287 173.705 77.5408 172.672L77.0579 172.371C73.3514 170.063 69.5585 167.795 65.5353 166.128ZM79.6 175.725C79.5821 175.756 79.5648 175.787 79.5469 175.818C79.5746 175.831 79.6 175.851 79.6238 175.872C79.6238 175.822 79.6164 175.771 79.6 175.725ZM32.2072 163.359C32.2319 163.872 31.9843 164.451 31.8101 164.912C31.7078 165.184 31.6023 165.572 31.4393 165.884C35.4895 164.668 36.7224 168.231 38.1827 167.49L38.2271 167.466V167.465C37.9289 166.772 38.2541 165.797 38.4544 165.106C36.3275 164.714 34.2391 164.105 32.2072 163.359ZM64.2134 162.262L63.0457 162.299C61.2291 162.355 59.4124 162.404 57.5946 162.401C57.7848 163.731 57.4126 165.924 56.5672 166.957C56.5657 166.958 56.5642 166.958 56.5635 166.958C58.9562 167.327 61.2223 166.212 63.3535 165.273C63.4433 164.255 63.8363 163.215 64.2134 162.262ZM56.3997 166.312C56.3272 166.451 56.2538 166.589 56.1806 166.727C56.2128 166.763 56.2487 166.796 56.2868 166.824C56.2646 166.651 56.325 166.481 56.3997 166.312ZM59.763 53.2435C61.0968 60.1029 62.1498 67.0474 62.5153 74.0416L62.5186 74.1109C62.5541 74.8186 62.6579 75.6076 62.1931 76.1984C61.7108 76.8118 60.9593 76.8894 60.2468 77.0011C54.2701 77.9265 48.2094 78.2392 42.1676 78.0529C39.9374 89.2888 38.5733 100.664 37.7413 112.09C35.9337 128.414 31.8304 144.373 28.7572 160.479C33.5231 162.601 38.4664 164.107 43.69 164.316C51.0837 136.506 64.9259 107.155 65.6632 79.335C65.7028 79.2902 65.7978 79.3008 65.8083 79.3684C66.052 80.8907 65.9481 82.4792 65.8943 84.0135C65.6898 88.7354 65.1735 93.4549 64.4123 98.1146C62.4797 109.687 58.9101 120.884 55.2533 131.992C55.1308 132.49 55.3161 133.045 55.3223 133.554C56.0861 142.049 56.1643 150.587 56.4103 159.108C56.3584 160.05 56.6496 161.116 56.3286 162.001C59.0905 161.624 61.8661 161.421 64.6419 161.185L64.6626 161.172C64.7775 161.098 64.9609 161.019 65.0666 161.151C67.4116 160.964 69.7591 160.792 72.1055 160.631C68.7779 136.383 71.0779 111.105 80.0807 88.3251C79.5106 87.7935 79.759 86.6088 79.6284 85.8687C79.5081 82.8475 79.5146 79.7574 80.098 76.783L79.9496 76.7919C78.1572 76.8961 70.2702 77.218 70.0539 75.8557C69.7539 73.5476 70.4786 71.2593 70.6266 68.9678C70.8924 63.7903 70.8282 58.5926 70.7933 53.4084C69.2324 53.6208 67.7358 53.3292 66.1925 53.2693C64.047 53.2501 61.9057 53.306 59.763 53.2435ZM31.9462 163.264C31.9058 163.443 31.8588 163.621 31.8087 163.8C31.878 163.64 31.9559 163.487 32.0488 163.352L32.0771 163.312L31.9462 163.264ZM57.4689 162.402L57.341 162.404L57.3404 162.478C57.3703 162.529 57.3754 162.591 57.338 162.642C57.3336 162.871 57.3239 163.101 57.3066 163.332C57.3561 163.022 57.4054 162.712 57.4689 162.402ZM55.8442 162.326L55.8509 162.442C56.0146 162.436 56.1798 162.442 56.3429 162.434C56.4288 162.43 56.5171 162.414 56.606 162.398C56.3496 162.39 56.0939 162.37 55.8442 162.326ZM84.9446 67.0746C84.8639 67.1712 84.7757 67.2297 84.6859 67.2594C84.6867 69.4534 84.2516 71.6112 83.059 73.5112C82.5629 74.1807 82.2826 74.9428 82.0429 75.7372C80.7816 79.3727 80.5474 83.2778 81.0071 87.0847C82.2464 85.2345 82.7389 83.0267 83.085 80.8496C83.1037 80.7403 83.2818 80.7417 83.3011 80.8496C83.7199 83.1798 83 85.4685 82.1393 87.6221C81.6016 88.0133 81.7297 89.0378 81.6652 89.6406C90.8016 90.9956 87.6244 73.1429 88.7947 67.6446C88.8164 67.4934 88.9428 67.3833 89.0863 67.3369C87.7159 67.124 86.3273 67.1085 84.9446 67.0746ZM41.9193 78.0423C41.9306 78.1007 41.9403 78.1593 41.9477 78.2178C41.9642 78.1608 41.9807 78.1031 41.9971 78.0453C41.9717 78.0445 41.9455 78.0437 41.9193 78.0423ZM48.094 2.52785L47.934 2.57049C46.2459 3.01368 45.6995 2.95279 45.604 5.02749C45.189 7.84298 43.6571 10.2988 42.9685 13.0212C42.693 13.9826 42.9844 15.7545 44.2903 15.4943C44.7135 15.362 45.0434 15.9426 44.7233 16.2505C43.7775 17.1609 42.8593 18.0995 41.9358 19.0321C45.6439 31.7697 50.4609 44.1765 56.3286 56.0464C56.5612 56.5175 55.8636 56.9317 55.6326 56.4605C49.7992 44.5526 44.9476 32.15 41.1821 19.409L41.0683 19.0228C40.902 18.5539 43.0285 16.8728 43.4155 16.3242C39.5329 14.4202 44.9536 7.75216 45.1009 4.54116C43.9896 5.03836 42.7299 4.85991 41.5559 5.06017C39.3039 5.46221 37.3272 6.7862 35.5701 8.21546C28.4332 14.6292 23.8724 23.5088 19.3102 31.8784C16.2032 37.3391 14.7053 44.0148 17.8232 49.8236C21.441 57.2713 25.6377 64.45 30.0747 71.4189C30.5619 72.0639 31.3118 71.3224 31.8251 71.0517C34.7761 69.247 37.335 66.7916 39.303 63.9206C34.532 57.9628 30.3761 51.4516 27.4369 44.3575L27.3964 44.2753C26.7369 42.9263 26.2155 41.2943 27.3156 40.024C31.2218 34.9319 34.6959 29.5262 37.9654 23.9941C37.9991 23.9386 38.0745 23.9873 38.0498 24.045C37.7141 24.8186 37.3605 25.5863 36.9919 26.3471C37.7365 37.595 37.6106 49.0628 37.9325 60.3822C38.8006 61.5517 39.6942 62.7016 40.6085 63.8333C43.575 61.7528 47.0645 60.3959 50.6483 59.9755L50.88 59.9518C52.4023 59.7925 54.9164 59.492 55.116 61.5033C54.8692 63.9776 49.8448 62.5865 48.2383 63.9898C50.8717 65.0699 53.8893 65.3743 56.3069 67.0025C57.0825 67.463 58.6027 68.9301 57.1175 69.4915C56.4694 69.5479 55.8001 69.2918 55.1525 69.2354C55.8813 69.4853 56.5516 69.9087 56.9785 70.5722C57.2857 71.0274 57.51 71.9722 56.7758 72.1668C55.1019 72.2149 53.4349 71.6594 51.7862 71.3832L51.9327 71.4437C53.1347 71.9445 55.0028 72.844 53.3841 74.1702C51.7636 75.0239 49.8016 73.5717 48.1875 73.1841C43.8397 72.1546 40.6234 74.9761 36.1664 71.9212C36.0399 72.9422 35.85 73.9559 35.7739 74.9824L35.7641 75.0406C35.6097 75.9776 35.7419 76.3159 36.7347 76.4949C37.9316 76.8628 39.1853 76.9782 40.4292 77.0466C46.415 77.3686 52.4405 77.1401 58.3857 76.3598C59.2411 76.1261 61.2506 76.3464 61.6083 75.3884C60.9382 50.7289 50.8419 27.5252 48.0619 3.18608C48.0162 2.95193 48.0132 2.71336 48.094 2.52785ZM64.9694 4.6354C64.4919 4.65532 64.0474 4.76065 63.5725 4.80944C63.8355 5.37884 65.2236 6.18428 65.0972 6.46693C65.1974 6.54604 65.2991 6.62204 65.4023 6.69569C65.2587 6.18193 65.1137 5.66893 64.9682 5.15509C70.2428 18.2367 70.9674 33.7144 71.6683 47.985C71.8991 55.1806 72.0247 62.3984 71.6831 69.5895C71.4932 71.4994 70.9907 73.4298 71.1275 75.3586C74.2231 75.8124 77.3636 75.8512 80.4718 75.5153C80.5637 75.2697 80.6677 75.0281 80.7855 74.7909C85.4385 69.0148 82.9709 61.7762 80.7306 55.5196C79.3758 55.578 78.013 55.4905 76.6569 55.5075C77.0759 56.8279 77.1839 58.2249 77.4069 59.5902C77.5588 60.5632 77.7525 61.5285 77.9752 62.4866L78.035 62.742C78.1189 63.0954 78.2302 63.4768 78.1083 63.8272C77.9887 64.173 77.5758 64.3128 77.3021 64.0438C76.8088 63.471 76.8618 62.6176 76.7025 61.9075L76.6731 61.684C76.4016 59.645 76.0439 57.5297 76.5403 55.5067C76.0531 55.4001 74.7213 55.7913 74.6514 55.1244C74.6719 54.0229 73.8873 51.6365 74.7607 50.911C75.2803 50.5075 76.1739 50.6352 76.7833 50.6101C77.4877 50.5812 78.1913 50.5545 78.8948 50.5592C73.2403 36.6447 74.8129 32.3617 75.3867 18.5138L75.4038 18.0912C75.4022 17.9999 75.5466 17.9772 75.5623 18.0692C76.4268 23.7413 75.2744 29.4843 75.8204 35.1744C76.79 45.9857 83.5179 55.2681 84.6425 66.0274C87.0683 65.7408 89.5226 66.0923 91.8738 66.7122C91.9231 66.2752 91.9612 65.8366 91.9882 65.3982C92.4345 57.3672 89.6671 49.5676 86.4381 42.3647C84.503 38.5414 83.3069 34.4608 82.8062 30.1942C81.8342 24.637 79.6528 19.4021 77.4785 14.2398C76.104 10.3798 73.1327 9.46961 69.4481 9.02136C70.6908 11.1189 71.9261 13.2211 73.1591 15.3248C73.4342 15.9609 72.5909 16.4151 72.223 16.8067C76.7493 19.3203 74.1064 27.0822 74.2 31.4315C73.8639 35.4279 73.7372 39.4472 73.1449 43.4159C73.1016 43.691 72.6873 43.6105 72.6834 43.3528C72.7381 37.4062 73.4344 31.4836 73.74 25.5467L73.7772 25.1138C74.0154 22.303 74.2487 18.2479 70.9294 17.4764C70.4815 17.4018 70.4472 16.7239 70.8067 16.5203C71.2853 16.2489 71.7048 15.9175 72.0801 15.5232C70.812 13.3564 69.5462 11.1881 68.2915 9.01217L68.2326 8.91103C67.3414 7.37144 66.5136 5.57985 64.9694 4.6354ZM54.1984 61.3525C53.8323 60.2543 50.2785 60.9696 49.33 61.089C45.8321 61.7615 42.3119 63.3377 39.6477 65.7652C39.4832 65.915 39.2889 65.9126 39.1356 65.8314C37.9423 67.3836 36.5643 68.7903 35.053 70.0265C35.3296 70.2484 35.6138 70.4635 35.9061 70.6694C36.046 70.6846 36.1724 70.7584 36.2292 70.8906C40.3874 73.9586 43.4462 71.5655 47.7658 72.1182C49.3786 72.4493 50.8637 73.4938 52.5257 73.5378C53.7453 73.2553 52.6714 72.7362 52.1018 72.5353C50.812 71.9083 49.497 71.3367 48.1793 70.7731L47.1249 70.323C46.6068 70.1017 46.7848 69.3045 47.3635 69.4436C48.3767 69.6868 49.3928 69.9178 50.4097 70.1452C52.3653 70.5513 54.3675 71.0724 56.3436 71.2699C55.9043 70.0266 51.2436 68.6839 49.8884 68.1897C49.3767 67.9436 47.917 67.9904 48.0836 67.1826C48.2182 66.4308 49.7713 67.2916 50.2894 67.3528C52.4033 67.8989 54.5612 68.2298 56.7152 68.5627C54.4015 66.199 50.8149 65.9951 47.86 64.8881L47.7954 64.8732C47.2685 64.7496 46.529 64.5163 46.9606 63.9018C48.4789 61.6225 54.4526 62.776 54.1984 61.3525ZM49.8265 48.6614C50.9042 47.761 51.4815 49.6104 51.4131 50.4702C51.464 51.1839 51.5186 51.8975 51.5642 52.6112C51.4975 53.1691 52.0814 55.2032 51.3002 55.2218C47.8858 55.0452 44.4772 55.0898 41.0617 54.8805C41.0572 55.582 41.0236 56.2826 41.0588 56.985C41.0402 57.8631 41.3398 58.7402 41.1649 59.6085C41.058 60.0075 40.5249 60.0614 40.3167 59.721C39.6929 58.2264 40.1218 56.2986 40.5637 54.787C38.8912 54.4723 38.6605 52.8715 39.1012 51.443L39.0966 51.3656C39.0721 50.925 39.074 50.4524 39.2672 50.0963C39.7837 49.4771 40.8549 49.8793 41.5664 49.8327C43.7474 49.6037 45.9685 49.5404 48.124 49.1326C48.6819 48.9856 49.2509 48.6892 49.8265 48.6614ZM36.2689 27.7941C34.5709 31.0945 32.6173 34.2348 30.5376 37.2925C30.0919 37.9454 29.6343 38.5899 29.1694 39.2298L29.0833 39.3419C28.1542 40.5434 27.1892 41.5402 28.0671 43.1346C30.3674 48.8236 33.4474 54.1661 37.0158 59.1244C36.7898 48.6807 36.5902 38.2343 36.2689 27.7941ZM78.9577 50.7264C74.6915 51.6366 74.6117 49.9319 75.3237 54.7566C77.0347 54.7685 78.7448 54.7293 80.4561 54.7574C79.9671 53.4099 79.4602 52.0685 78.9577 50.7264ZM50.3215 49.3636C48.0933 50.152 45.7276 50.0395 43.4006 50.1365C43.4053 50.6459 41.0244 50.1732 40.5675 50.2431L40.3918 50.2277C40.0139 50.1967 39.539 50.1917 39.5348 50.6633C39.6561 51.4886 39.1999 52.3923 39.4825 53.2032C39.8638 54.2953 41.4954 54.1828 42.3956 54.2041C43.8799 54.2383 45.3641 54.2747 46.8483 54.3143C48.1815 54.35 49.5192 54.4176 50.8538 54.4275C50.7335 53.4608 50.7006 52.4697 50.6281 51.5038C50.5368 50.8093 50.6685 49.986 50.3215 49.3636ZM59.6904 52.8756C59.6927 52.8877 59.6949 52.9 59.6979 52.9128C59.7238 52.9053 59.7533 52.901 59.7787 52.8938C59.7494 52.8885 59.7196 52.8825 59.6904 52.8756Z" fill="black"/>
</g>
<defs>
<clipPath id="clip0_43_40">
<rect width="123" height="190" fill="white"/>
</clipPath>
</defs>
</svg>
