<svg width="125" height="189" viewBox="0 0 125 189" fill="none" xmlns="http://www.w3.org/2000/svg">
<g clip-path="url(#clip0_43_112)">
<path fill-rule="evenodd" clip-rule="evenodd" d="M92.1152 179.443C92.6499 176.966 90.2041 176.129 88.6623 175.578C87.5579 174.865 83.4657 172.397 80.2994 169.35C77.7085 166.857 75.9447 163.661 75.2105 163.357C74.7066 163.066 74.4286 162.813 74.3762 162.597C73.9164 160.698 74.2999 158.928 74.3762 157.777C75.8503 157.392 77.0314 156.912 77.9148 156.241C78.1724 156.326 78.5586 156.435 78.6737 156.06C79.472 150.761 79.8166 145.525 80.4661 140.221C82.9248 120.022 83.2022 96.4249 78.9723 77.9762C78.9278 77.0617 79.008 76.2359 79.09 75.4502C79.662 75.3887 80.0078 74.8379 80.4748 74.5087C81.1997 73.9355 82.0579 73.4951 82.0225 72.4934C82.1947 72.3637 82.1747 72.2907 82.0898 72.1254C82.6427 69.7599 80.1765 67.2672 79.479 65.3171C80.7468 52.9796 79.0218 41.3209 79.9842 28.9805C81.1997 28.4745 80.3825 25.3115 80.2994 24.0069C79.626 15.6021 75.2346 7.29231 67.3266 4.5466C66.8745 4.45542 66.195 3.94134 65.8209 4.28653C65.098 4.0016 64.1361 4.56338 63.5766 3.91662L63.5823 3.91239C63.1111 3.26246 62.9 2.43622 62.7451 1.65497C62.771 1.87512 62.8142 2.09345 62.8675 2.30687C61.5042 -1.51577 61.1607 -2.53788 56.7719 -2.71788C54.7949 -2.74419 52.1889 -2.68515 51.0361 -0.809209C50.5638 0.0628368 50.7081 1.06416 50.4149 1.98209C49.8768 3.66654 47.5538 2.85255 46.3343 3.72725C36.5738 6.84181 28.5678 13.1992 25.9363 23.4031C25.3983 24.633 24.7881 25.857 24.3383 27.1263C24.2687 27.3147 24.0772 27.9522 24.5371 28.2456L24.7595 28.3875C21.8299 42.0107 21.6355 53.4901 31.478 62.5722C32.2166 66.4747 30.3165 71.8041 31.0469 75.5932C30.6307 76.1807 31.1585 76.6539 31.6905 76.6916C31.7418 76.72 31.9491 76.8102 32.0057 76.836C31.1589 88.7286 34.7139 104.756 36.281 111.082C36.4943 114.88 35.1913 118.001 32.5109 120.07C29.5494 121.885 23.6946 130.081 24.78 138.678C23.5115 138.926 22.2522 139.062 21.0353 139.536C15.7105 138.601 15.7633 148.814 15.424 152.405C14.8494 158.417 14.4923 167.132 20.2334 170.98C21.7459 172.072 24.8126 173.35 26.3841 171.603C26.899 170.987 27.028 170.393 26.8254 169.764C29.4204 166.117 28.7211 161.345 28.9595 157.067C29.712 157.022 30.4993 157.373 31.2272 157.245C31.9743 156.59 29.2487 156.769 28.9661 156.73C28.995 156.071 29.0484 155.376 29.1172 154.711C29.5447 154.796 30.0924 155 30.5035 155.016C30.7468 155.075 30.9187 154.741 30.7718 154.569C30.451 154.264 29.633 154.311 29.1727 154.268C29.2504 153.711 29.3455 153.126 29.4511 152.587C30.0142 152.567 30.5958 152.924 31.129 152.851C30.7254 152.583 29.9679 152.665 29.4759 152.488C29.7959 150.754 30.4477 149.107 31.0537 147.485C32.5406 148.095 33.8234 148.119 35.275 147.936C35.8687 148.027 36.1582 147.906 36.2544 147.167L36.2164 147.121C37.367 140.271 41.0796 133.741 47.9757 126.336C49.3379 124.82 50.8772 123.034 51.9028 121.037C53.9636 116.882 54.3156 112.297 55.9035 107.982C57.3861 103.645 59.4132 99.4958 61.3165 95.3842C61.5956 97.4914 61.9705 99.6531 62.3602 101.719C64.0756 109.041 63.9093 116.854 62.6469 124.216C60.7791 134.528 61.6794 144.889 61.264 155.274C61.2697 155.873 61.3443 156.417 61.256 157.041C61.2443 157.089 61.2671 157.146 61.3243 157.144L61.4321 157.147C62.3298 157.801 63.5696 157.92 64.6245 158.274C65.0675 158.623 64.9427 159.176 64.9833 159.607C65.0992 161.464 65.2474 163.329 65.0635 165.244C64.2495 166.795 63.2386 166.475 63.0319 168.662C62.8509 171.159 62.5307 173.815 63.753 176.038L63.2905 176.118C62.6042 177.551 63.0232 178.481 64.6363 179.087C72.5997 182.193 83.8053 185.014 92.1152 182.669C92.2662 182.818 92.4859 182.663 92.6576 182.429C92.8227 182.204 92.9435 181.906 92.9166 181.732C92.7745 180.972 92.9699 179.583 92.1152 179.443Z" fill="white"/>
<path fill-rule="evenodd" clip-rule="evenodd" d="M92.4945 181.93C85.3387 185.127 72.3447 181.093 65.3136 178.759C63.4178 178.079 62.7862 177.946 63.3174 175.771C64.3113 177.679 66.4488 178.14 68.4967 178.523C75.4336 180.096 82.5058 183.001 89.9246 181.584C91.0135 181.413 92.0909 180.826 92.4078 179.744C92.6032 180.203 92.4824 180.824 92.5606 181.328C92.5751 181.53 92.5795 181.747 92.4945 181.93ZM63.5529 170.039C63.6821 168.757 63.8888 167.403 64.6221 166.271C64.5423 168.103 65.6479 171.216 68.0704 170.179C68.7566 169.817 69.1412 169.088 69.5826 168.503C71.0499 166.578 72.9314 164.907 75.0568 163.693C76.2391 163.895 76.7476 166.046 77.5096 166.946C76.6601 167.323 75.1206 168.181 74.9649 169.069C76.0257 168.714 77.002 168.053 78.1146 167.821C78.4709 168.31 78.8486 168.784 79.2453 169.243C78.727 169.47 76.6373 170.521 76.651 171.045C77.7809 170.863 78.8759 170.312 80.0119 170.086C80.5172 170.585 80.977 171.121 81.48 171.622C80.7201 171.933 79.9177 172.281 79.5028 173.006C79.4831 173.039 79.5317 173.076 79.5583 173.044C80.1275 172.361 81.107 172.236 81.9558 172.083C83.2581 173.303 84.7164 174.379 86.3485 175.184C87.9815 176.073 90.4634 176.276 91.113 178.203C91.6327 180.129 90.0119 180.335 88.5165 180.471C87.0036 180.685 85.48 180.718 83.977 180.593C79.2786 180.398 74.8371 179.022 70.3972 177.82C64.9687 176.825 63.2072 176.02 63.5529 170.039ZM65.1449 158.772C65.132 158.857 65.1207 158.942 65.1085 159.027C65.0932 158.937 65.0827 158.846 65.0605 158.758C65.0887 158.763 65.1168 158.768 65.1449 158.772ZM73.9155 163.075C71.8356 164.606 69.8052 166.311 68.3607 168.445C67.4048 170.182 66.1327 169.125 65.8167 167.734C65.5605 164.628 65.7809 161.945 65.4808 158.821C68.357 159.211 71.3113 158.97 74.1206 158.28C73.7825 159.675 73.6274 160.205 73.6168 161.636C73.6351 162.107 73.6282 162.683 73.9155 163.075ZM78.5713 48.751C78.6327 53.3225 78.6616 57.8955 78.502 62.4656C74.4572 52.0645 75.6951 40.7782 75.1206 29.8457C76.3159 29.4495 77.6001 29.2764 78.8318 29.1071C78.3371 35.8929 78.4648 41.9545 78.5713 48.751ZM55.7118 71.8468C45.7801 67.1225 44.4063 55.0099 36.5424 48.3367C36.2885 48.0963 36.0781 47.8491 35.9557 47.558C36.5195 41.8903 36.4785 36.9211 37.145 31.2594C37.8896 29.9152 38.1837 28.3541 38.7384 26.9237C39.0287 26.0528 39.3812 25.1902 39.4648 24.2762C39.5347 23.9753 39.0621 23.8445 38.974 24.1288C37.9245 26.1579 37.4025 28.4146 36.6191 30.554C36.5089 30.5979 36.3622 30.5631 36.3189 30.4482C36.3121 30.4762 36.3045 30.5041 36.2976 30.5321C32.926 29.2212 29.4496 28.0003 25.7763 28.0093C25.7787 27.998 25.7817 27.9859 25.784 27.9746C25.5575 27.9814 25.0826 27.9632 25.2247 27.6366C28.4534 15.9224 34.2506 7.89295 46.5477 4.07893C44.9754 13.1683 67.8584 13.6945 67.5423 5.23409C76.1624 8.91884 79.8759 19.2677 78.8987 27.9814C78.0795 27.7614 75.9466 28.627 75.1145 29.1297C74.945 25.5917 75.3661 21.3218 75.1183 18.1579C73.8067 34.2894 71.3592 53.5916 79.4482 68.2285C79.9732 69.2098 80.8295 70.1488 80.8083 71.3009C80.8713 71.3644 80.8774 71.4756 80.8007 71.5572C80.8007 71.5625 80.8007 71.5678 80.8 71.5731C80.7961 71.5738 80.7916 71.5738 80.7871 71.5738C80.5523 71.8521 80.0583 71.9072 79.7186 71.9685C78.9162 72.1295 78.0719 72.252 77.3371 72.6224C69.5082 76.7116 63.3675 71.44 55.7118 71.8468ZM58.186 79.2798C58.5643 79.9987 59.1997 80.5771 59.9527 80.9384C59.8599 81.1199 59.828 81.324 59.8181 81.5152C58.4618 81.7912 58.8432 82.4315 57.9269 82.7369C57.3273 82.9018 56.7505 82.9721 56.2323 83.3334C54.4686 84.9679 54.0309 84.8477 52.138 83.4098C52.164 83.2798 49.588 80.7766 48.7901 79.3773C48.1252 78.21 47.4291 77.0344 46.4101 76.1318C41.42 71.0484 36.1039 66.2509 31.2733 61.0269C21.5925 51.4295 23.4397 40.5469 25.6632 28.559C29.252 28.9853 32.8607 29.8419 36.0925 31.4144C34.9527 36.7056 34.8797 41.5017 34.3888 46.8708C34.2406 47.5346 34.4078 48.813 35.3532 48.5181C44.0423 55.3818 45.0522 69.4865 56.4549 73.5652C61.1023 75.4446 59.1411 76.9702 60.6768 80.5188C59.8318 80.3646 59.078 79.66 58.7148 78.9857C58.5348 78.6508 58.0104 78.9456 58.186 79.2798ZM31.9215 75.1157C31.7247 73.7708 31.8782 72.4319 31.8873 71.0847C31.7817 68.6315 31.8638 66.2403 31.9588 63.7787C34.6836 66.5873 37.5165 69.3006 40.2991 72.0569C37.3356 72.4289 33.9177 72.7351 31.9215 75.1157ZM31.8713 77.0942C31.9178 77.079 31.9633 77.0586 32.0051 77.0337C31.9944 78.0891 32.0111 79.1444 32.0499 80.1983C31.9754 79.1641 31.9162 78.1291 31.8713 77.0942ZM28.5377 152.112C27.7384 152.051 24.3197 151.934 23.9094 152.467C24.3714 152.662 25.0066 152.554 25.5035 152.576C26.4687 152.616 27.4314 152.7 28.3866 152.835C28.3151 153.205 28.2505 153.575 28.1974 153.946C27.2339 154.038 25.3577 154.079 24.746 154.75C25.8371 154.923 26.9732 154.767 28.0681 154.983C28.0149 155.491 27.9762 156 27.9474 156.509C27.5111 156.555 24.9459 156.978 24.9482 157.379C25.9086 157.506 26.926 157.339 27.9048 157.434C27.6928 160.482 28.4117 169.69 24.2232 170.253C20.5613 170.061 18.9549 164.157 18.4573 161.324C17.3539 154.724 17.5431 147.687 19.7301 141.325C20.5111 139.556 22.6374 139.249 24.4352 139.158C24.5035 139.457 24.5712 139.751 24.6472 140.048C23.8675 141.806 23.6191 143.786 23.5978 145.689C23.7627 148.424 27.1548 150.458 29.6183 148.651C29.1578 149.77 28.8023 150.934 28.5377 152.112ZM23.6921 171.788C16.439 170.237 15.249 161.88 15.7475 155.736C16.154 151.458 15.6655 142.44 19.6342 139.927C14.5051 144.585 14.9504 176.299 26.3174 170.764C26.0339 171.658 24.5765 171.915 23.6921 171.788ZM25.113 141.972C25.126 141.861 25.1403 141.752 25.1555 141.641C25.9602 143.816 27.3387 145.883 29.3912 147.143C28.6054 148.118 27.075 148.408 26.0423 147.61C24.2414 146.267 24.9922 143.836 25.113 141.972ZM49.8364 3.02355C49.822 3.0485 49.8067 3.07345 49.7915 3.09764C49.6912 3.10444 49.5902 3.11351 49.4876 3.12485C49.6039 3.09008 49.7202 3.05757 49.8364 3.02355ZM63.6199 3.82189C63.616 3.81055 63.6122 3.79921 63.6092 3.78862C63.6183 3.79391 63.6274 3.79996 63.6373 3.80601C63.6298 3.81055 63.6251 3.81584 63.6199 3.82189ZM93.1989 180.606C93.1792 180.065 93.1715 179.367 92.5347 179.175C92.8235 176.843 90.8782 175.516 88.8357 174.87C87.0941 173.81 85.1191 173.069 83.5188 171.792C84.2619 171.653 85.0051 171.485 85.6654 171.163C86.1639 170.921 85.9238 170.113 85.3836 170.188C84.4268 170.313 83.5675 170.797 82.6684 171.133C82.1578 170.716 81.6631 170.28 81.1959 169.819C81.7779 169.707 82.518 169.748 82.857 169.173C82.9626 168.994 82.9154 168.807 82.7878 168.668C82.1982 168.075 81.0294 168.668 80.2969 168.841C79.9451 168.437 79.6054 168.026 79.2718 167.609C79.8251 167.558 81.2642 167.659 80.9824 166.751C80.4421 166.04 79.2802 166.466 78.499 166.613C77.5081 165.4 77.189 163.541 75.6403 162.874C75.5849 162.58 75.1989 162.602 74.9413 162.69C74.5621 160.888 74.591 159.973 74.702 158.127C75.8516 157.81 76.9922 157.394 77.9481 156.712C78.3874 156.841 78.92 156.693 79.0112 156.179C79.2846 154.371 79.4373 152.283 79.629 150.435H79.6988C80.0627 147.065 80.3561 143.685 80.7681 140.324C83.1259 120.894 83.6396 97.1781 79.2748 77.9825C79.2406 77.2552 79.2924 76.5272 79.366 75.8052C79.8865 75.6668 80.1966 75.1611 80.6274 74.8685C81.4283 74.2191 82.243 73.8555 82.3167 72.7222C82.4785 72.5687 82.4975 72.3367 82.4086 72.1356C82.6161 70.9721 82.3106 69.8169 81.6882 68.8114C81.0059 67.6661 80.3615 66.5102 79.7924 65.3081C81.037 53.1925 79.3486 41.4503 80.2718 29.2741C81.4557 28.6504 80.7125 25.1849 80.6024 24.0298C79.9108 16.4433 76.3508 8.06683 68.7817 4.91128C68.2505 4.46524 67.5089 4.31404 66.8599 4.06834C66.4215 3.85364 65.708 3.66766 65.4078 4.16738C65.0895 4.01996 64.0643 3.90731 63.7133 3.65179C63.6479 3.60416 63.6061 3.55199 63.5963 3.49378C63.5704 3.49454 63.54 3.48925 63.5074 3.48244C63.1837 3.02733 62.8751 -0.142579 62.4762 0.0834654C62.0408 1.17211 62.3425 2.40212 62.7589 3.50134C63.0461 4.47356 63.4398 6.97441 64.9656 6.33483C65.2286 6.2048 65.0659 5.86686 64.8303 5.83965C64.107 5.63402 63.9458 4.57637 63.6662 3.95645C63.9975 4.23013 65.5067 4.64063 65.6716 4.72757C68.9451 12.2029 49.1525 11.8105 47.5963 6.65689C46.4868 4.87651 47.4444 3.91185 49.4223 3.62608C47.9686 5.23334 49.8091 5.59017 50.5089 4.01391C51.1783 2.8852 51.483 1.51382 51.2543 0.215009C51.3721 -0.240859 51.4717 -0.850195 50.7862 -0.727723C50.7627 -0.788203 50.7254 -0.740575 50.7399 -0.697483C50.4899 -0.301339 50.664 0.267929 50.5751 0.725309C50.4998 1.47375 50.2862 2.20707 49.9238 2.86933C49.2513 2.99709 48.5818 3.13393 47.9155 3.28361C47.5157 2.47545 44.923 4.08724 44.227 4.277C34.98 6.99482 27.9481 14.2328 25.4937 23.3622C24.9459 24.5779 24.3546 25.7996 23.9063 27.053C23.7057 27.5958 23.7057 28.2694 24.2566 28.621C21.5719 40.8734 20.9169 53.6393 31.0591 62.8292C31.2893 63.8241 31.1358 64.8795 31.129 65.8925C31.214 68.1998 29.2323 76.1076 31.534 77.1304C30.8615 87.3742 33.3836 101.313 35.8281 111.195C36.0089 114.592 34.9793 117.682 32.208 119.825C26.939 123.744 24.7194 130.286 24.1031 136.52C24.0157 137.158 24.1016 137.809 24.246 138.436C23.1039 138.648 22.0348 138.785 20.926 139.202C14.8113 138.036 15.2475 151.107 14.7795 154.985C14.4131 160.718 14.6418 167.591 19.9374 171.345C21.7178 172.606 24.8607 173.818 26.5956 171.908C27.0864 171.323 27.3539 170.64 27.1608 169.893C29.6479 166.27 29.0605 161.638 29.2467 157.515C29.8979 157.538 30.6077 157.827 31.2491 157.668C31.743 157.538 31.8061 156.907 31.3881 156.656C30.7847 156.316 29.9648 156.445 29.29 156.423C29.3106 156.028 29.3403 155.633 29.3782 155.239C30.0187 155.395 30.9367 155.769 31.1274 154.878C31.2042 154.067 30.1745 154.005 29.5333 153.97C29.5781 153.664 29.6282 153.359 29.6852 153.056C30.1761 153.105 30.6943 153.416 31.1769 153.267C31.4504 153.16 31.5453 152.885 31.3455 152.662C30.974 152.3 30.3387 152.372 29.8471 152.259C30.1456 150.804 30.6852 149.412 31.205 148.021C32.1457 148.346 33.1646 148.56 34.1685 148.479C34.689 148.37 35.2574 148.339 35.7833 148.409C36.3683 148.255 36.5035 147.633 36.5804 147.125C36.569 147.107 36.5575 147.089 36.5446 147.073C37.8964 139.241 42.746 132.475 48.1836 126.645C49.6814 124.978 51.1502 123.243 52.1677 121.263C54.2346 117.123 54.6054 112.465 56.1867 108.164C57.5188 104.259 59.2991 100.514 61.0446 96.763C61.7444 101.703 63.0514 106.562 63.2012 111.571C63.4292 117.908 62.0256 124.154 61.4268 130.441C60.5617 137.089 61.0225 143.771 60.9677 150.435H61.0049C60.9907 152.042 60.9469 153.719 60.8463 155.321C60.8501 155.907 60.9261 156.459 60.8425 157.045C60.7962 157.369 61.0302 157.573 61.2764 157.579C62.1806 158.17 63.3167 158.379 64.3561 158.632C64.6441 158.851 64.5196 159.391 64.5705 159.721C64.6821 161.577 64.8296 162.978 64.6479 164.849C63.6312 166.345 62.8988 166.106 62.616 168.379C62.4603 170.753 62.1175 173.319 63.1601 175.473C62.6935 175.579 62.5165 176.996 62.5864 177.371C62.7049 178.428 63.6418 178.762 64.5476 179.127C71.1669 181.595 85.2316 185.657 92.0333 182.863C92.5204 183.138 93.0636 182.6 93.221 182.167C93.4291 181.64 93.2376 181.13 93.1989 180.606Z" fill="black"/>
</g>
<defs>
<clipPath id="clip0_43_112">
<rect width="125" height="189" fill="white"/>
</clipPath>
</defs>
</svg>
