<svg width="124" height="188" viewBox="0 0 124 188" fill="none" xmlns="http://www.w3.org/2000/svg">
<g clip-path="url(#clip0_43_84)">
<path fill-rule="evenodd" clip-rule="evenodd" d="M26.7571 67.9744C26.7698 68.8386 26.8566 70.823 27.0739 71.6596C24.6528 67.7868 21.0249 63.5539 20.4732 58.8106C20.6451 58.7636 21.4081 58.6934 21.5413 58.5937C22.7939 59.1744 22.5569 57.3871 22.742 56.5604C23.242 54.8103 24.2923 53.0887 24.7487 51.327C25.9483 50.8093 23.5393 50.5899 23.1893 50.5797C24.6444 48.9629 25.3137 46.7403 26.3498 44.8543C27.8721 41.649 29.2356 38.3724 30.453 35.0443C30.7191 37.1296 30.7668 39.2375 30.6046 41.3343C30.104 50.3156 26.7231 58.9514 26.7571 67.9744ZM110.787 52.0204C110.034 52.1468 108.778 52.2664 108.027 52.3278C109.013 51.7408 111.929 50.6225 110.092 49.6175C109.525 49.411 108.917 49.7056 108.346 49.7967C105.973 50.1864 103.042 50.1658 100.642 49.9694C101.517 49.2526 102.669 48.2203 103.523 47.4785C103.977 47.0843 104.417 46.9349 103.907 46.3463C103.007 45.5099 101.397 46.1258 100.357 46.4934C97.4865 48.0982 94.2456 49.8389 91.1651 51.0736C91.1328 50.6429 91.1527 50.086 90.7366 49.7967C89.5159 49.2226 88.6172 49.3904 87.3184 49.2376C85.8045 49.0111 84.459 48.7536 82.9598 48.354C81.9792 47.6077 81.3813 45.4067 79.8133 45.6527C81.202 42.1652 79.0854 38.5266 78.2903 35.1871C77.298 31.7695 76.7767 28.2202 76.7625 24.6667C76.7528 18.9775 73.4507 14.6122 68.6795 11.6929C66.7985 10.4252 65.5354 7.34191 63.2067 6.72434C62.9105 5.59026 62.8926 5.0921 62.6325 3.94939C62.5019 3.62115 62.4049 1.84005 62.0765 1.90066C61.7145 0.136389 59.8692 -0.57118 58.2724 -0.940689C56.1963 -1.37007 53.2991 -1.89019 51.4328 -0.6786C50.8922 -0.229725 50.6547 0.52192 50.6151 1.19339C50.4077 2.08752 49.9764 3.01378 49.4736 3.78957C48.6155 3.50024 49.1011 2.96106 48.2524 2.83552C40.5032 1.68925 31.9015 7.36278 26.8736 12.8975C17.7598 22.2374 10.479 34.9879 11.6708 48.2995C11.3503 48.2522 9.92964 48.03 9.94992 48.478C10.0197 50.426 10.3788 52.0508 10.478 53.9973C10.3794 56.5759 13.0639 56.8866 15.0031 57.5226C14.8837 65.004 17.6072 72.4874 21.8699 78.6373C22.9055 79.8474 24.4595 84.0467 26.3498 82.3739C26.5725 82.1139 24.8449 80.3126 24.5376 79.8676C23.4881 78.5491 20.7082 72.0209 22.6729 70.717C23.1097 72.1262 27.339 78.9025 28.0929 75.0563C29.0942 75.6363 30.7488 76.0321 31.9458 75.9721C34.196 77.1887 36.3857 78.5024 38.5466 79.8676C39.5532 81.8405 41.0297 83.7354 42.2666 85.6296C33.7061 105.364 25.3504 137.844 14.3341 156.431C13.3736 157.645 18.6576 159.708 19.5909 160.153C17.8061 163.045 17.5826 166.397 16.2247 169.511C15.9661 169.47 15.7052 169.525 15.4719 169.649C13.7969 170.781 13.1648 174.834 13.0693 176.832C13.1467 177.724 12.8156 179.072 13.5382 179.728C13.4372 179.837 13.3618 179.97 13.3081 180.106C12.7996 180.502 12.8622 181.375 13.1341 181.916C14.0905 183.897 21.0816 183.713 23.3503 184.137C31.3865 184.816 38.1315 184.923 46.1667 184.181C47.1529 183.975 46.407 182.439 45.9201 182.022C46.145 181.886 46.2888 181.636 46.1904 181.316C44.3637 176.102 37.7616 176.455 33.7666 173.671C34.8171 173.065 34.1391 173.258 33.4791 173.494C32.7786 173.055 32.0973 172.56 31.4661 172.014C31.9509 171.715 31.7117 171.518 31.1873 171.768C30.3607 171.107 29.717 170.084 28.664 169.764C27.6327 169.511 27.6327 169.071 27.6327 168.794C28.2465 166.331 28.9169 163.805 29.2615 161.307C29.6291 161.848 32.8005 157.513 33.4791 156.431C36.1157 152.263 36.1086 148.157 37.9538 143.624C41.7427 133.755 49.5042 113.069 54.2374 103.63C65.3122 121.641 59.918 145.999 66.75 165.205C67.0536 165.782 67.6246 167.946 68.4153 167.322C68.7226 167.393 69.0494 167.432 69.3421 167.473C69.2576 169.573 69.1 171.667 68.7505 173.744C68.4249 173.83 68.1482 174.001 68.0049 174.299C67.4565 173.897 66.4067 179.825 66.3168 180.429C66.3155 181.208 65.6426 182.943 66.2571 183.406C65.3717 183.767 65.227 185.104 65.8497 185.791C67.6987 188.271 76.7115 187.59 80.0365 188.005C84.2412 187.901 101.831 189.472 103.052 185.492C103.295 184.583 102.879 183.436 102.032 183.086C102.371 182.297 101.56 181.535 101.064 180.981C98.1372 177.943 93.6373 177.464 89.741 176.142C89.8862 175.994 84.6548 173.318 83.5207 172.657C83.5956 171.759 81.7252 172.659 81.72 172.657C80.8282 171.084 80.1965 168.637 79.5986 166.94C80.7021 166.599 83.361 166.295 83.8537 165.205C85.4375 164.675 83.8489 162.382 83.5207 161.307C74.2368 138.124 83.0448 108.883 69.3421 87.0021C71.8539 85.5665 74.7355 82.4247 72.2544 79.7891C71.7579 79.1555 70.5433 77.1828 70.5633 77.5272C70.1019 75.6491 69.0715 72.4138 68.7505 70.5147C67.5717 63.5418 68.3443 57.0115 69.3421 49.9694C70.7274 55.2683 75.5021 59.683 80.3593 62.104C82.2549 62.8845 84.7581 64.4958 86.8393 63.9875C88.7176 63.4329 92.1288 59.5846 92.5309 57.7364C98.0064 58.3861 103.692 57.8646 108.925 56.1468C109.596 55.8932 110.391 55.9147 110.183 54.9633C109.976 54.1558 108.499 54.3618 107.864 54.5117C108.835 53.9747 111.355 53.8341 111.336 52.43C111.303 52.1373 111.087 51.9702 110.787 52.0204Z" fill="white"/>
<path fill-rule="evenodd" clip-rule="evenodd" d="M50.6342 0.0751953C50.7175 0.108885 50.7743 0.235296 50.808 0.425251C50.9008 0.454128 50.9802 0.522485 51.0041 0.625434C51.0744 0.9282 50.9923 1.24387 50.9289 1.54564L50.9217 1.5804C50.8618 1.87255 50.7885 2.1629 50.699 2.4476L50.6859 2.51971C50.4679 3.69641 50.0477 4.81523 49.5542 4.62517L49.6683 4.83238C51.6045 8.33967 57.1354 17.7569 61.4538 16.4146C63.9685 15.4086 63.9325 12.1386 63.7487 9.86285C61.8815 11.0059 61.5322 2.25592 61.915 1.289C62.2197 1.06528 62.3667 3.07808 62.4801 3.35557C62.7275 4.45966 63.0309 5.54953 63.3158 6.64444C63.9178 6.76341 64.4872 7.00292 64.9907 7.34621C65.0147 7.35997 65.0394 7.37245 65.0629 7.38674C65.365 7.57023 65.6008 7.80425 65.8109 8.06347C66.0484 8.3287 66.2516 8.61904 66.4434 8.91751C66.8651 9.39571 67.2671 9.89165 67.6825 10.375C67.8796 10.6043 68.0814 10.8267 68.2877 11.0434L68.4468 11.1769C68.4734 11.199 68.5 11.221 68.5268 11.2429C73.2976 14.2158 76.6003 18.664 76.6096 24.4578C76.6237 28.0774 77.145 31.6926 78.1373 35.1737C78.9324 38.5752 81.5012 42.0518 80.1125 45.6041C81.6805 45.3534 81.8261 47.3655 82.8067 48.1257L83.1148 48.209C84.4923 48.579 85.7557 48.8876 87.1651 49.1023C88.464 49.2579 89.9657 49.0869 91.1862 49.6718C91.6023 49.9665 91.4534 50.4982 91.4858 50.9369C94.5662 49.6792 97.3328 47.9417 100.203 46.3072L100.299 46.2728C101.362 45.8964 103.257 45.3308 104.13 46.1573C104.64 46.7568 104.125 47.292 103.671 47.6935C102.817 48.449 101.911 49.1421 101.036 49.8723C103.394 50.0687 105.759 49.912 108.091 49.5302L108.218 49.5092C108.789 49.4164 109.463 49.1944 110.029 49.4047C111.867 50.4284 109.741 51.6234 108.754 52.2214C109.506 52.1588 110.256 52.0655 111.01 51.9368C111.309 51.8857 111.526 52.0559 111.559 52.354C111.578 53.7842 109.69 53.8613 108.72 54.4083L108.797 54.39C109.432 54.2433 110.345 54.1144 110.543 54.9039C110.751 55.8731 109.442 56.2646 108.77 56.5229C103.538 58.2726 97.8527 58.8038 92.3774 58.142C91.9755 60.0246 88.5642 63.9444 86.686 64.5093C84.6049 65.0271 82.1018 63.3858 80.2062 62.5908C75.3492 60.1248 70.8489 56.0569 69.4637 50.6597C68.2996 59.0282 68.7701 67.4651 70.5176 75.6989C70.8005 76.3408 71.099 76.9728 71.4349 77.5886C71.5363 77.6048 71.6222 77.6725 71.642 77.8095C71.6523 77.8845 71.6675 77.9574 71.6846 78.0294C72.019 78.5964 72.3855 79.1412 72.7257 79.705C72.7961 79.8214 72.8655 79.9423 72.929 80.0662C75.1941 82.7328 72.4333 86.1689 69.964 87.6064C83.6662 109.894 74.8162 137.98 84.0998 161.594L84.1205 161.661C84.4728 162.784 85.546 165.096 83.9939 165.625C83.5012 166.736 81.018 166.867 79.9146 167.215C80.5124 168.943 81.1772 170.652 82.0689 172.255L82.0851 172.262C82.4403 172.001 83.2019 171.732 83.5167 172.016C83.5933 172.025 83.6695 172.047 83.744 172.084C84.2312 172.326 84.6231 172.787 85.0891 173.078C85.3411 173.236 85.603 173.378 85.8728 173.503C86.1239 173.619 86.3908 173.696 86.5957 173.887C86.6604 173.948 86.6768 174.025 86.6608 174.095C86.8225 174.179 86.9841 174.263 87.1452 174.348L87.2327 174.293C88.6567 173.407 89.8017 172.928 87.7303 174.629C88.4725 174.971 89.2337 175.271 89.9997 175.552C90.5816 175.272 91.2026 175.069 91.8428 175.04C91.9579 175.183 91.0779 175.732 90.9327 175.883C94.8289 177.23 99.1143 178.284 102.041 181.379L102.106 181.453C102.605 182.01 103.333 182.754 103.009 183.523C103.856 183.879 104.272 185.048 104.029 185.973C102.808 190.028 84.088 188.428 79.8835 188.534C76.5587 188.11 67.5462 188.804 65.6972 186.278C65.0746 185.578 65.2192 184.217 66.1046 183.849C65.4901 183.377 66.1629 181.61 66.1644 180.817L66.1785 180.725C66.2726 180.133 66.6806 177.814 67.1041 176.194C67.1127 176.067 67.1297 175.936 67.1502 175.804L67.1635 175.72C67.2477 175.204 67.3769 174.679 67.7111 174.263C67.9511 173.965 68.2837 173.781 68.6445 173.715C68.7412 173.098 68.8206 172.479 68.8887 171.86C68.9368 171.132 68.955 170.402 68.9468 169.673C68.9425 169.304 68.9328 168.936 68.9148 168.568C68.9015 168.297 68.917 167.975 68.8481 167.698C68.8022 167.745 68.7369 167.77 68.6637 167.745C68.5082 167.692 68.365 167.594 68.2222 167.514C68.2169 167.511 68.2126 167.507 68.208 167.504C67.4456 167.998 66.8939 165.883 66.5973 165.309C59.7657 145.747 65.1597 123.234 54.0853 104.888C52.5564 108.164 51.2426 111.169 49.771 114.467C45.1753 124.767 39.5018 142.911 35.697 153.817C34.6618 156.047 33.445 158.202 31.9986 160.192C31.5363 160.716 31.226 161.486 30.5566 161.767L30.498 161.776C30.3194 162.109 30.0714 162.39 29.7026 162.381C29.6122 162.378 29.5199 162.368 29.4267 162.352C29.0999 164.622 28.6889 166.905 28.1426 169.139L28.2163 169.108C28.5739 168.96 28.95 168.835 29.317 168.868C30.2077 169.093 29.8779 169.87 29.1738 170.126C30.0502 170.398 30.6432 171.165 31.294 171.803C31.844 171.507 32.4604 171.353 33.1192 171.418C33.22 171.428 33.2969 171.472 33.3503 171.532C33.3881 171.533 33.4248 171.535 33.4596 171.541L33.388 171.584C33.505 171.78 33.4214 172.079 33.1192 172.081C32.8819 172.082 32.6534 172.104 32.4324 172.144C32.279 172.234 32.1264 172.324 31.9759 172.419C32.4837 172.867 33.0244 173.28 33.5812 173.657C33.8752 173.507 34.1862 173.381 34.5096 173.28C34.9271 173.15 35.1094 173.813 34.69 173.933C34.601 173.959 34.5128 173.987 34.4252 174.017L34.3392 174.069C34.319 174.081 34.2981 174.094 34.2762 174.107C38.2711 176.942 45.0238 176.583 46.8504 181.894C46.9109 182.094 46.8798 182.267 46.7948 182.403C47.1907 182.766 47.3734 183.417 47.2842 183.917L47.2918 183.959C47.3597 184.364 47.262 184.719 46.8266 184.812C43.9214 185.082 41.0233 185.253 38.1054 185.306L37.8699 185.308C33.6894 185.336 13.3556 185.185 12.4384 182.505C12.1938 182.008 12.1184 181.239 12.4763 180.796C12.5178 180.558 12.5996 180.341 12.745 180.171C12.1561 179.578 12.4458 178.081 12.3737 177.327C12.503 174.809 13.0145 172.11 14.5556 170.05C14.5807 170.018 14.6112 169.998 14.6426 169.988C14.9117 169.718 15.2653 169.547 15.6697 169.524C15.6823 169.493 15.6951 169.462 15.7074 169.43C16.0217 168.69 16.3203 167.937 16.6169 167.179C16.837 166.319 17.0666 165.461 17.2966 164.607C17.5264 163.755 17.7513 162.901 17.9713 162.046C18.1464 161.364 18.2971 160.596 18.6003 159.944C18.5921 159.916 18.5842 159.888 18.5751 159.861L18.2596 159.733C16.1932 158.895 12.9189 157.48 13.6383 156.546C21.3044 140.642 28.8084 118.001 35.8435 101.513C35.9534 101.189 36.0696 100.868 36.1972 100.55C36.5079 99.7746 36.8226 99.0006 37.1418 98.2288L37.3339 97.7659L40.3987 90.4033C40.7196 89.6326 41.0812 88.866 41.3341 88.0697C41.5777 87.3028 41.6431 86.5396 41.1803 85.8416C40.7662 85.217 40.1826 84.7001 39.7157 84.1135C39.3626 83.6697 39.0184 83.1958 38.7099 82.6979C38.4298 82.329 38.1957 81.907 37.9868 81.5669C37.6521 81.0219 37.2264 80.4184 36.9834 79.7887C36.6701 79.5915 36.3561 79.3952 36.041 79.201C35.4969 78.8965 34.9614 78.5776 34.4403 78.2327C33.782 77.8418 33.1196 77.458 32.452 77.0827C32.211 76.9633 31.9698 76.8443 31.7284 76.7257C31.0051 76.7883 29.0067 75.8981 28.326 75.2959C28.2482 75.2802 28.1708 75.2626 28.0938 75.2433C28.063 75.628 27.9372 75.9763 27.6439 76.2346C25.6933 77.201 23.2071 72.8242 22.5219 71.3638C21.1602 72.6919 24.4092 79.2615 25.4587 80.6045L25.5147 80.6877C25.7955 81.1077 26.0897 81.5792 26.4879 81.8895L26.5281 81.9199C26.801 82.1215 26.8517 82.4365 26.629 82.7014C24.7387 84.4052 22.7544 80.6639 21.7188 79.4313C17.4564 73.1671 14.7329 65.5446 14.8523 57.9242C12.9132 57.2764 10.2288 56.96 10.3273 54.3334C10.2282 52.3508 9.86904 50.3893 9.79904 48.4052C9.77904 47.9489 11.1997 48.1752 11.5202 48.2233C11.048 43.6644 11.7615 39.0359 13.0342 34.6543C16.3753 23.4431 30.1339 3.23638 43.676 2.50686C43.6641 2.48483 43.6697 2.45512 43.7001 2.44723C44.313 2.28833 44.9904 2.31375 45.6202 2.33375C46.2758 2.35451 46.9422 2.35902 47.5943 2.43294C48.2701 2.50949 48.9858 2.7575 49.4398 3.24826L49.5971 2.96497C49.7796 2.63424 49.9555 2.30016 50.0884 1.93519C50.1557 1.7508 50.2084 1.55964 50.2565 1.36645C50.3108 1.09092 50.3245 0.804109 50.4551 0.553843C50.4586 0.547301 50.4629 0.541887 50.4666 0.535795C50.5136 0.378101 50.5674 0.22364 50.6342 0.0751953ZM67.2548 183.839C67.0612 184.035 66.7257 184.121 66.4286 184.027C65.441 186.828 70.7988 186.652 72.5184 186.81C74.352 187.005 107.753 188.739 102.104 184.633C95.477 187.154 73.312 187.432 67.2548 183.839ZM83.5208 172.732C83.075 173.191 82.4026 173.396 81.9243 173.834C80.5723 174.975 79.4846 176.582 77.6159 176.884C75.161 177.342 72.9478 176.132 70.7518 175.174C70.4784 175.161 70.1932 175.046 69.9129 174.96C69.903 174.981 69.8931 175.001 69.8818 175.02C69.8682 175.015 69.8536 175.01 69.8373 175.007C69.8129 175.003 69.7898 175.001 69.7659 174.997C69.7095 174.952 69.6501 174.915 69.5886 174.883C69.5514 174.877 69.5145 174.872 69.4778 174.87C69.0252 174.843 68.5339 174.948 68.2435 175.322C68.2186 175.354 68.1961 175.388 68.1743 175.422C68.0336 175.92 68.0155 176.522 68.0835 176.943C68.1055 177.081 68.048 177.216 67.9508 177.294C67.864 179.378 67.629 181.471 67.4649 183.527C68.2862 183.822 69.1385 184.046 69.9915 184.188C75.8777 184.91 81.8267 185.246 87.7582 185.064C91.2891 184.937 94.8151 184.622 98.3094 184.098C99.439 183.992 100.595 183.556 101.724 183.732C101.772 183.642 101.847 183.564 101.951 183.511C99.0578 179.556 94.1123 178.487 89.8008 176.753C89.0887 177.207 88.6503 178.154 87.8571 178.436C87.5492 178.482 87.121 178.3 87.1662 177.91C87.2942 177.112 88.158 176.748 88.7398 176.285C88.1155 175.994 87.5032 175.677 86.9059 175.326C86.3192 175.854 85.6247 176.255 85.0754 176.818C85.3877 177.579 84.0858 177.514 84.0713 176.704C84.1613 175.808 85.5835 175.428 86.2188 174.906C85.2266 174.303 84.3404 173.543 83.5208 172.732ZM13.6171 180.563C13.5825 180.631 13.526 180.693 13.4424 180.742C13.2977 180.825 13.3673 181.267 13.3745 181.416L13.375 181.427C13.3829 181.694 13.3996 181.961 13.4228 182.227C13.6671 182.447 13.9794 182.614 14.3263 182.715C24.8935 184.398 35.6634 184.534 46.3325 183.923C46.2834 183.64 46.0761 183.407 45.8925 183.171C39.1477 183.743 32.2406 183.145 25.4845 182.587C21.5347 182.069 17.3963 181.854 13.6171 180.563ZM29.0016 170.206C27.26 170.804 25.6395 171.634 24.0959 172.629C23.5222 173.002 22.9748 173.429 22.3153 173.642C20.0321 174.328 16.6088 171.033 16.554 170.996C15.761 170.464 14.9203 170.96 14.4889 171.699C14.449 171.767 13.7877 175.544 13.8076 177.395C13.689 178.024 14.0056 179.052 13.8371 179.738C13.9696 179.897 14.1584 179.972 14.2856 180.138C14.3316 180.198 14.3186 180.266 14.2788 180.318C20.4445 180.824 26.5744 181.785 32.7695 181.988C37.0095 182.212 41.2576 182.161 45.4982 182.109C44.5334 179.282 41.2471 178.535 38.737 177.604C36.8404 176.924 35.0943 175.911 33.5579 174.608C32.8917 175.075 32.3663 175.729 31.8942 176.387C31.6798 176.654 31.2393 176.856 31.0096 176.485C30.7731 176.101 31.2349 175.616 31.8051 175.191C32.1049 174.747 32.4831 174.37 32.9186 174.059C32.4371 173.63 31.9735 173.184 31.5393 172.709C30.6387 173.318 29.9771 174.195 29.3293 175.045C29.018 175.384 28.4357 174.936 28.6911 174.554C28.8958 174.29 29.1261 174.047 29.3728 173.82C29.7445 173.119 30.2798 172.473 30.9292 172.025L30.8797 171.963C30.3372 171.268 29.8683 170.434 29.0016 170.206ZM13.657 180.119C13.642 180.138 13.6264 180.156 13.6096 180.173C13.6245 180.203 13.636 180.235 13.6444 180.267L13.8027 180.28C13.7477 180.234 13.6993 180.179 13.657 180.119ZM79.3353 167.329C76.1049 167.938 72.7677 168.172 69.5071 167.669C69.8847 169.771 70.1212 171.886 69.9974 174.021C74.8726 175.425 76.8982 177.768 80.9544 173.087C80.7585 172.789 80.6454 172.423 80.5138 172.07C79.9532 170.54 79.49 168.957 79.3353 167.329ZM20.0015 160.435C19.9554 160.537 19.8723 160.62 19.7526 160.657C19.71 160.846 19.6659 161.034 19.6188 161.221C19.5397 162.19 19.1735 163.15 18.7948 164.043L18.7175 164.228C18.4677 164.971 18.2058 165.713 17.9475 166.455C17.7518 167.227 17.5794 168.004 17.3993 168.779C17.3645 169.305 17.2897 169.826 17.1748 170.341C17.1694 170.365 17.1623 170.387 17.1544 170.409C17.3349 170.489 17.5092 170.582 17.6735 170.676C22.6196 174.385 21.7654 171.905 26.5144 169.829C26.4871 169.629 26.5872 169.449 26.6688 169.243L26.6794 169.216C26.6843 169.203 26.6893 169.189 26.6942 169.176C26.6864 169.098 26.691 169.013 26.7119 168.923C27.1929 166.96 27.8626 165.03 28.4895 163.109C28.5898 162.819 28.706 162.537 28.8247 162.254C25.8136 162.216 22.8351 161.416 20.0015 160.435ZM18.6988 161.389C18.6405 161.646 18.5771 161.899 18.5193 162.143L18.434 162.508C18.5553 162.139 18.651 161.765 18.6988 161.389ZM47.343 2.98596C46.295 3.24044 45.2211 3.34436 44.1671 3.55545C36.9028 4.42003 31.3334 9.56107 26.536 14.6656C17.4483 24.1918 12.1609 35.9131 12.5511 49.1609C15.7965 49.7509 19.0083 50.6146 22.3149 50.8032C21.8343 50.0768 22.6391 49.1682 22.9161 48.4726C27.6987 39.2509 31.3915 29.0707 34.3902 19.362L34.3087 19.7858C33.3672 24.6585 32.2704 29.5104 30.5963 34.191C31.0813 33.7152 39.0473 27.3924 38.4246 29.4831C35.9908 31.3816 33.242 32.8859 30.6918 34.6281C33.7239 44.7366 29.3404 54.9787 28.5075 65.0913C28.2982 67.3399 28.3164 69.6041 28.0352 71.8441C27.9282 72.0974 28.0408 72.6127 27.8833 72.8537C28 73.4482 28.2452 73.9899 28.7514 74.454C28.9645 74.6494 29.1971 74.8186 29.4417 74.9696C30.0522 75.0615 30.6654 75.2962 31.1626 75.5134C32.2689 75.997 33.2426 76.7099 34.2315 77.3909L34.258 77.4088C35.8525 78.2264 37.4454 79.1552 39.0441 80.1239L39.1155 80.1612C39.7102 80.4726 40.3182 80.7536 40.8363 81.1855C40.8599 81.2052 40.8757 81.2278 40.886 81.2514L41.8571 81.8499C49.6353 86.6404 57.6551 91.378 66.7746 87.9585C69.3368 86.9286 73.0617 84.8418 72.5833 81.615C72.489 81.3055 72.3456 81.0148 72.1834 80.7319C72.1383 80.6711 72.0919 80.6113 72.0453 80.5525C71.6919 80.1069 71.2964 79.6979 70.9895 79.2164C70.8647 79.0206 70.7527 78.8189 70.6548 78.6114C70.5856 78.5904 70.5241 78.5418 70.4854 78.4573C70.0464 77.5019 69.6165 76.5449 69.216 75.5726C64.3614 58.6829 70.254 40.5358 71.921 23.5007C72.0365 22.5252 72.2067 21.5398 72.2062 20.5572C72.2062 20.5111 72.2732 20.5126 72.2768 20.5572C72.8648 24.9051 72.4188 29.2935 71.8598 33.6218C71.144 39.0365 70.2037 44.4287 69.5576 49.8532C71.2751 55.3209 76.0851 59.2719 81.1358 61.6411C81.9951 62.0485 82.8738 62.4116 83.7697 62.7313L83.8298 62.7521C84.8142 63.0958 85.9252 63.6272 86.8749 62.9307C88.6974 61.6964 89.984 59.8129 91.1652 57.999C90.6873 57.9473 90.2089 57.9026 89.7301 57.8697C88.5545 59.2116 87.114 60.3508 85.5939 61.2818C84.9744 61.6362 84.2707 61.4863 83.9843 60.7927C83.714 60.1383 84.045 59.3739 84.2846 58.7429L84.3192 58.6508C85.5324 55.386 87.6389 52.394 90.4831 50.3495C88.3372 49.9214 86.1084 49.9344 84.0499 49.0882C84.1622 49.2059 84.0151 49.3376 83.9436 49.4374C83.969 49.6309 83.8281 49.7723 83.655 49.8241C81.9754 52.0141 80.7024 54.6076 80.4367 57.385C80.5074 58.3311 79.6591 59.4236 78.8423 58.4303C78.2034 55.6654 80.7165 51.3444 82.9262 49.6382C80.7103 48.1204 81.3562 45.93 79.965 45.9199C79.6055 46.6085 79.1364 47.2678 78.5452 47.7793C78.278 47.9961 77.9535 48.1596 77.6667 48.3519C77.365 48.5543 77.051 48.1091 77.2898 47.8647L77.3529 47.7891C78.2602 46.7061 79.3377 45.6414 79.5251 44.1762C79.796 42.3717 78.9833 40.5437 78.3604 38.8954C77.1661 35.7354 76.3741 32.4475 75.9882 29.0923C75.5511 26.0861 76.0826 22.9679 75.0514 20.0588C74.8464 19.2487 74.5516 18.5109 74.1902 17.8261C74.1816 17.8189 74.1731 17.8116 74.1653 17.8027C73.7364 17.3075 73.3937 16.7567 72.9937 16.238C72.5754 15.6954 72.1219 15.1791 71.6416 14.6905C70.8389 13.8742 69.9527 13.193 69.0288 12.5371C69.0117 12.5309 68.9944 12.523 68.9771 12.5127C68.804 12.4107 68.6378 12.2868 68.4774 12.1506L68.4618 12.1398C67.9246 11.7671 67.3763 11.3627 66.957 10.8568C66.5454 10.3601 66.2525 9.78096 65.9164 9.23388C65.4571 8.67469 65.0192 8.07557 64.4652 7.60963C64.1519 7.43111 63.8258 7.26289 63.5461 7.03962C63.5004 7.02052 63.4539 7.00239 63.4065 6.98525C63.5257 7.47014 63.706 7.9163 63.8684 8.40886C64.1038 8.30975 64.4259 8.41961 64.4655 8.7814L64.4801 8.91646C64.7164 11.132 64.836 13.8131 63.5303 15.7314C60.6551 19.8914 56.3607 16.3397 54.1888 13.4145C52.2397 11.0816 50.601 8.48662 49.391 5.69775L49.3709 5.66088C49.1456 5.2341 48.6573 3.93266 48.5193 3.30729C48.1703 3.12395 47.7458 3.03514 47.343 2.98596ZM38.138 80.5206C38.1293 80.5316 38.1193 80.5411 38.1085 80.5493C38.5163 81.1273 38.9048 81.725 39.3052 82.305C38.9769 81.7695 38.6683 81.23 38.3951 80.6845C38.3096 80.6294 38.2237 80.5751 38.138 80.5206ZM15.3166 58.0681C16.875 66.5104 19.1021 75.3927 25.3077 81.7048C23.3764 78.9904 21.8745 75.8215 21.4375 72.5024C21.4194 71.6117 21.7446 70.6707 22.7323 70.5388C22.9009 70.5162 23.029 70.6669 23.0892 70.8009L23.095 70.8143C23.4836 71.7398 23.9888 72.62 24.5871 73.4266L24.6458 73.5029C25.0973 74.0854 27.0136 76.4601 27.2809 75.325C27.0852 69.587 21.142 67.2213 20.1687 59.3186C18.5034 59.1426 16.9232 58.5115 15.3166 58.0681ZM28.093 74.814C28.0994 74.9041 28.1025 74.9933 28.1011 75.0811C28.1894 75.0447 28.2801 75.0155 28.3729 74.9929C28.2787 74.9348 28.1855 74.8749 28.093 74.814ZM28.0049 74.1957C28.0375 74.3606 28.0651 74.527 28.082 74.6916C28.2516 74.7455 28.4194 74.8044 28.5863 74.8656C28.4852 74.775 28.3889 74.6789 28.2987 74.5767C28.1935 74.4575 28.0949 74.3296 28.0049 74.1957ZM30.3016 35.0283C29.0843 38.4181 27.7208 41.7557 26.1985 45.0206C25.1764 46.9311 24.4944 49.1573 23.08 50.8153C23.0662 50.8286 23.0523 50.8408 23.0381 50.8523L23.0616 50.8532C23.4831 50.8719 25.7731 51.0968 24.5976 51.6135C24.1412 53.408 23.5432 55.1615 23.0432 56.9442L23.032 56.9959C22.8491 57.8581 22.6178 59.5949 21.3902 59.0152C21.257 59.1168 21.0971 59.1883 20.9252 59.2362C21.477 64.0677 24.5397 67.213 26.9608 71.1578C26.4196 69.0759 26.5778 66.9018 26.7662 64.7761L26.8129 64.2531C27.8133 54.5067 31.4845 44.9226 30.3016 35.0283ZM40.4688 66.0088C38.4956 63.5546 28.7901 39.2569 35.6488 53.9774C38.0866 59.1019 40.0931 64.5882 44.1147 68.7404C44.3928 69.0385 44.0264 69.5624 43.6651 69.3217C42.3669 68.457 41.3163 67.3099 40.4688 66.0088ZM33.4445 36.6414C33.4363 36.602 33.4869 36.5803 33.5092 36.6141C36.1462 41.8082 38.029 47.39 41.0086 52.4269C42.8071 55.5457 44.9653 58.453 47.4367 61.0746C47.6224 61.2716 47.343 61.5436 47.1419 61.3687C40.087 54.8751 36.657 45.4355 33.4445 36.6414ZM85.4425 58.0255L85.4382 58.0262L85.3733 58.1936C85.3513 58.25 85.3289 58.3071 85.3063 58.3644C85.317 58.3597 85.3279 58.3553 85.3388 58.3508C85.3619 58.3276 85.385 58.3041 85.4082 58.2793C85.403 58.1939 85.4136 58.1082 85.4425 58.0255ZM11.5482 48.4273C11.19 48.5675 10.7499 48.594 10.354 48.6282C10.7973 50.7119 11.18 52.8115 11.5812 54.9008C11.7667 55.5421 12.2029 55.7673 12.8065 55.9706L13.2917 56.1253C15.5566 56.8494 17.8343 57.5931 20.1697 58.0372C20.3339 57.9305 20.5671 57.9357 20.6761 58.1066C20.7897 58.1172 20.9063 58.1234 21.0216 58.1343C21.6456 55.8354 22.7133 53.6077 24.1422 51.7007C20.1485 51.8291 16.1259 50.7783 12.3266 49.6035C12.1727 49.678 11.9701 49.6314 11.9052 49.455L11.8467 49.4383C11.2089 49.2495 10.3632 48.7858 11.7036 49.0214C11.6226 48.8331 11.5777 48.6306 11.5482 48.4273ZM103.38 46.7261C100.733 46.2896 98.7097 48.4294 96.4504 49.4117C95.0977 49.9905 91.493 51.786 90.1825 51.1888C88.3858 52.9142 86.8689 54.9301 85.8082 57.1919C86.0973 57.1747 86.3865 57.1619 86.6758 57.1527C87.1996 56.985 87.7588 56.9764 88.3026 57.1379C93.7504 57.1977 99.2018 58.2538 104.628 56.9153L104.753 56.8921C105.867 56.6811 109.672 55.8787 109.889 55.0923C109.832 54.75 108.809 55.1116 108.612 55.1503C107.049 55.4577 105.46 55.6042 103.875 55.7582C103.434 55.8007 103.44 55.1167 103.875 55.0732C105.782 54.8839 107.59 54.1696 109.34 53.4264C109.526 53.344 110.019 53.1735 110.36 52.9524C108.743 53.2267 107.076 53.2743 105.44 53.2161C104.877 53.1434 104.837 52.2897 105.44 52.3066C106.545 52.4284 107.6 51.8844 108.502 51.3102L108.698 51.1831C110.201 50.2055 110.096 50.1632 108.197 50.5265C105.405 51.0336 102.58 51.0148 99.7613 50.8213C99.359 50.8145 99.0812 50.2744 99.4141 49.9851C100.712 48.867 102.104 47.8698 103.38 46.7261ZM90.5841 50.7985L90.5535 50.8276C90.4887 50.8896 90.4356 50.9444 90.4058 50.9736L90.3938 50.9852C90.3539 51.0226 90.3153 51.0612 90.2758 51.099C90.4488 51.157 90.6398 51.1603 90.8367 51.1298C90.7179 51.0557 90.6295 50.9345 90.5841 50.7985ZM40.8434 41.8482L40.8582 41.8641C42.5611 43.7024 44.2871 46.6837 45.6979 49.0348C45.8838 50.9618 41.7126 42.9666 40.8498 41.8562L40.8434 41.8482ZM83.7006 48.9607C83.7171 48.9811 83.733 49.0021 83.7484 49.0235L83.7712 49.056L83.8078 49.0335C83.8213 49.0254 83.8355 49.0205 83.8499 49.0168C83.8 48.9985 83.7504 48.9793 83.7006 48.9607ZM75.9095 42.685C77.4417 42.925 74.3086 44.8241 73.8951 45.0962C73.6303 45.1966 71.1125 47.2703 71.2652 46.5972L71.3365 46.5064C72.5091 45.0176 74.1072 43.3151 75.9095 42.685ZM15.9728 38.7052C16.5395 37.7947 19.6237 38.9934 20.5986 39.1369C21.1466 39.2812 21.6886 39.452 22.2425 39.5732C22.6754 39.7299 24.6936 39.578 23.9529 40.4316C23.18 40.8461 22.171 40.5257 21.3795 40.3057C19.8047 39.8765 18.2246 39.3758 16.612 39.1377C16.5636 39.1135 16.5606 39.1298 16.603 39.1868C16.9499 39.9558 17.6794 40.6772 18.5011 40.9251C18.5579 40.9415 18.534 41.028 18.4766 41.0135C17.5797 40.8358 15.4909 39.843 15.9728 38.7052Z" fill="black"/>
</g>
<defs>
<clipPath id="clip0_43_84">
<rect width="124" height="188" fill="white"/>
</clipPath>
</defs>
</svg>
