<svg width="124" height="189" viewBox="0 0 124 189" fill="none" xmlns="http://www.w3.org/2000/svg">
<g clip-path="url(#clip0_43_96)">
<path fill-rule="evenodd" clip-rule="evenodd" d="M74.541 117.32C74.3029 119.415 73.5359 123.747 73.1592 125.875C73.0498 126.493 72.9731 126.927 72.9511 127.069C70.8198 138.243 69.9475 149.597 69.543 160.95C69.4241 162.427 69.4831 163.9 69.7392 165.36C69.7523 165.435 69.766 165.51 69.7802 165.584C69.8518 165.57 69.9244 165.556 69.9982 165.544C72.9955 165.056 75.0144 167.251 76.9656 169.321C77.7284 170.13 78.4807 170.927 79.27 171.563C81.1648 173.259 83.2157 174.768 85.3645 176.122C86.243 176.641 87.2396 177.254 87.9124 178.067C88.3705 178.621 88.6762 179.269 88.6682 180.048L88.6654 180.315L88.9288 180.275C89.0077 180.262 89.0733 180.267 89.1265 180.292C89.183 180.319 89.2219 180.368 89.2532 180.426C89.3933 180.684 89.3928 181.093 89.4006 181.403C89.4026 181.483 89.4045 181.556 89.4079 181.622C89.4316 182.553 89.012 183.167 88.3804 183.587C87.3971 184.241 85.9301 184.447 84.7409 184.621C84.5209 184.653 84.3099 184.684 84.1112 184.716C76.7964 185.502 69.3907 183.516 62.6225 180.826C62.6035 180.819 62.5845 180.811 62.5654 180.803C62.547 180.807 62.5284 180.81 62.5097 180.812C61.9704 180.883 61.5065 180.595 61.1396 180.178C60.6325 179.602 60.3024 178.769 60.2234 178.122C60.1545 177.809 60.198 177.518 60.2363 177.23C60.2874 176.846 60.3304 176.467 60.2113 176.095C59.2776 173.966 59.155 171.651 59.2886 169.382C59.2519 166.574 59.895 165.782 60.4184 165.154C60.8577 164.627 61.2126 164.199 61.0984 163.002C61.0842 162.825 61.0284 161.688 61.0527 161.123L61.2278 161.098C60.9501 157.082 59.9429 153.104 58.9352 149.13C57.294 142.658 55.6455 136.192 57.2269 129.576C57.726 127.537 58.7132 125.731 59.7037 123.914C60.3322 122.761 60.9626 121.604 61.4766 120.383C61.4859 120.361 61.4951 120.339 61.5041 120.317C61.4992 120.295 61.4946 120.274 61.4904 120.252C61.393 119.746 61.5134 119.23 61.6278 118.711C61.7323 118.237 61.8347 117.76 61.8102 117.283C61.8015 116.387 61.6254 115.529 61.4405 114.66C61.431 114.615 61.4215 114.571 61.4119 114.526C61.3686 114.514 61.3254 114.502 61.2822 114.489C60.4357 114.243 59.6084 113.942 58.8139 113.548L58.6011 113.443L58.5064 113.661C58.4763 113.73 58.4322 113.783 58.3792 113.82C58.3208 113.86 58.2525 113.88 58.1839 113.882C58.1093 113.885 58.0339 113.868 57.9687 113.832C57.9173 113.803 57.8722 113.762 57.84 113.71C57.7494 113.338 57.8505 112.945 57.941 112.556C58.0008 112.299 58.0593 112.044 58.0788 111.794C58.1082 111.652 58.1333 111.485 58.16 111.307C58.2344 110.811 58.3122 110.212 58.5795 109.856C58.6554 109.755 58.7483 109.676 58.8679 109.637C58.9826 109.599 59.1186 109.599 59.2801 109.636C59.3752 109.658 59.4565 109.688 59.5251 109.726C59.5356 109.63 59.5458 109.535 59.5559 109.439C59.9831 105.39 60.0646 101.307 59.8274 97.2423C59.809 96.9272 59.7887 96.6123 59.7664 96.2977C59.6393 96.5873 59.5147 96.8773 59.3931 97.1678C58.665 98.9081 58.026 100.714 57.3873 102.518C56.4934 105.044 55.6005 107.569 54.4611 109.91C54.4426 109.948 54.424 109.986 54.4054 110.024C54.4275 110.048 54.4455 110.076 54.4604 110.107C54.4874 110.164 54.5014 110.223 54.4904 110.281C54.4798 110.338 54.4465 110.392 54.3937 110.444C53.9706 110.856 53.7503 111.406 53.5372 111.958C53.5264 111.986 53.5156 112.014 53.5049 112.041C53.3446 112.549 53.0817 113.009 52.7249 113.362C52.4079 113.675 52.0163 113.903 51.5604 113.989C51.5125 113.998 51.4648 114.005 51.4172 114.011C51.4054 114.061 51.3937 114.111 51.3822 114.16C51.3254 114.402 51.2663 114.658 51.2046 114.924C50.4824 118.044 49.4026 122.724 47.456 126.168C46.2102 128.373 44.6106 130.077 42.496 130.477C42.342 130.507 42.1881 130.528 42.0343 130.543C42.1628 130.608 42.2703 130.696 42.3449 130.818C42.5882 131.218 42.3454 131.763 42.1617 132.263C42.0532 132.557 41.9499 132.844 41.9091 133.098C41.7116 133.664 41.5463 134.246 41.3809 134.828C41.0777 135.896 40.7755 136.966 40.2619 137.944C40.2426 137.98 40.223 138.017 40.2033 138.053C40.2239 138.078 40.2399 138.103 40.2521 138.134C40.2726 138.185 40.2764 138.235 40.2707 138.296C40.2656 138.35 40.2547 138.394 40.2312 138.436C40.2809 138.456 40.3298 138.481 40.3776 138.51C40.6064 138.651 40.7464 138.865 40.8159 139.11C40.9002 139.406 40.8835 139.745 40.7933 140.067C40.6993 140.402 40.5248 140.719 40.2905 140.949C40.094 141.142 39.8546 141.274 39.5849 141.29C39.5667 141.291 39.5486 141.291 39.5306 141.292C39.5161 141.301 39.5014 141.311 39.4868 141.319C39.3676 141.386 39.2015 141.423 39.0461 141.426L38.9926 141.872C39.0264 141.909 39.0314 141.929 39.029 141.949C38.8003 144.709 38.1461 147.4 37.4954 150.081C37.3747 150.579 37.254 151.076 37.136 151.573C36.9066 152.365 36.737 153.182 36.5675 153.998C36.2892 155.339 36.0124 156.682 35.4571 157.918C35.4433 157.949 35.4294 157.979 35.4154 158.01C35.429 158.039 35.4421 158.069 35.4545 158.099C35.7317 158.765 35.6751 159.536 35.5374 160.23C35.3133 160.487 34.8924 160.465 34.5426 160.476C34.4083 160.48 34.2793 160.484 34.1632 160.496C34.0891 160.504 34.0105 160.516 33.9288 160.53C33.9408 160.604 33.9521 160.679 33.9627 160.754C34.1324 161.95 34.1259 163.168 34.1202 164.382C34.117 165.068 34.1139 165.753 34.1415 166.431C34.1448 166.511 34.1485 166.591 34.1526 166.672C34.2256 166.661 34.3013 166.653 34.3798 166.648C35.1452 166.607 35.677 166.922 36.0639 167.417C36.662 168.181 36.9319 169.345 37.1692 170.336C37.2338 170.606 37.2956 170.864 37.3597 171.1C37.8474 172.738 38.4714 174.317 39.0955 175.894C39.9273 177.997 40.7596 180.099 41.2566 182.33L41.3324 182.67L41.6119 182.463C41.6369 182.444 41.6664 182.431 41.699 182.43C41.7314 182.429 41.7653 182.439 41.8003 182.46C42.7991 183.061 42.81 184.302 42.852 185.347C42.8557 185.439 42.8594 185.53 42.8635 185.619C42.8537 185.84 42.8698 186.078 42.8868 186.319C42.9274 186.898 43.0118 187.53 42.5238 187.9C39.0757 190.257 34.4131 190.189 30.4277 189.57C28.8388 189.28 27.2878 188.794 25.8151 188.13C25.2584 187.941 24.842 187.74 24.5873 187.411C24.371 187.132 24.2816 186.761 24.3167 186.245C24.2186 185.308 24.3027 184.416 24.3854 183.523C24.4572 182.749 24.5282 181.974 24.49 181.194C24.6069 178.198 25.2904 175.236 25.9623 172.319C25.9893 172.202 26.0162 172.085 26.043 171.968C26.0823 171.845 26.1219 171.719 26.1622 171.59C26.6797 169.941 27.2905 167.92 28.777 166.996C28.8182 166.987 28.8846 166.985 28.9582 166.979C29.1544 166.962 29.3861 166.936 29.524 166.869C29.5277 166.867 29.5313 166.865 29.535 166.864L29.4503 167.151L29.8928 166.96C29.995 166.917 30.1018 166.884 30.2114 166.863C30.2476 166.856 30.2839 166.851 30.3205 166.846C30.3384 166.811 30.356 166.775 30.3734 166.739C30.9752 165.491 31.2548 164.131 31.5319 162.77C31.7032 161.93 31.8741 161.09 32.1253 160.278C32.1469 160.208 32.1691 160.138 32.1919 160.069C32.1238 160.048 32.0566 160.025 31.9906 159.999C31.2912 159.729 30.6566 159.189 30.46 158.459C30.5074 158.252 30.6054 158.027 30.7536 157.858C30.8635 157.733 31.0026 157.638 31.175 157.627L31.4856 157.607L31.3711 157.317C31.2575 157.029 31.2411 156.702 31.2759 156.393C31.8614 152.774 32.6415 149.185 33.4818 145.615C33.8015 144.288 34.1437 142.965 34.53 141.655C34.5866 141.497 34.6314 141.319 34.677 141.137C34.7714 140.758 34.8576 140.343 35.1327 140.105C35.198 140.048 35.2717 140.004 35.3511 139.968C35.2803 139.904 35.2111 139.839 35.1436 139.772C34.5564 139.191 34.0583 138.486 34.0441 137.694C34.0166 137.361 34.1737 137.017 34.4164 136.804C34.4962 136.734 34.5859 136.678 34.6826 136.644L35.0548 136.873C35.1439 136.928 35.2291 136.991 35.3144 137.053C35.3863 137.106 35.4581 137.158 35.5317 137.207L36.4214 137.797L35.847 136.896C35.3952 136.187 35.6193 135.324 35.8011 134.531C35.8502 134.317 35.8983 134.107 35.9348 133.904C35.9827 133.688 36.0298 133.471 36.077 133.253C36.3624 131.939 36.6504 130.607 37.152 129.368C37.1724 129.318 37.1932 129.267 37.214 129.217C37.1728 129.182 37.1317 129.147 37.0907 129.112C35.1378 127.411 34.3736 125.312 34.2748 123.062C34.1324 119.818 35.3576 116.262 36.4427 113.097C36.7186 112.292 36.9859 111.512 37.2206 110.769C37.2367 110.718 37.2528 110.667 37.2687 110.615C37.2247 110.581 37.1808 110.548 37.1371 110.516C36.8712 110.324 36.5524 110.147 36.2234 109.964C35.407 109.51 34.4798 109.039 34.3566 108.118C34.3702 107.622 34.5636 107.145 34.7486 106.675C34.8238 106.484 34.8983 106.294 34.9621 106.106C35.0115 105.884 35.1623 105.596 35.3542 105.465C35.3958 105.437 35.4396 105.414 35.4865 105.419C35.5281 105.424 35.5665 105.452 35.606 105.494L35.8716 105.775L35.9862 105.405C36.0449 105.216 36.1038 105.026 36.1627 104.837C37.2869 101.219 38.4275 97.5348 38.3248 93.7137C38.3233 93.6577 38.3216 93.6018 38.3195 93.5465C38.264 93.5284 38.2076 93.5124 38.1501 93.4989C37.7588 93.4074 37.3611 93.4434 36.9686 93.4829C36.4755 93.5326 35.9852 93.6008 35.5427 93.2688C31.5115 90.1761 31.9502 82.2931 32.2954 77.6914C32.2999 77.6316 32.3044 77.5712 32.309 77.5107C32.2531 77.4952 32.1973 77.478 32.1416 77.4593C31.9544 77.3965 31.7754 77.3195 31.6126 77.2224L31.4789 77.1427L31.3569 77.2393C31.2978 77.2419 31.2632 77.2067 31.2247 77.1657C31.0672 76.998 30.9115 76.6931 30.7565 76.3191C30.2079 74.9954 29.7171 72.8287 29.5721 72.1904C29.5685 72.1744 29.5651 72.1593 29.5613 72.1428C26.6278 58.8088 27.7502 45.0596 28.8496 31.5495C28.9282 30.5841 29.0066 29.6199 29.0835 28.6574C29.3202 26.8778 29.4109 25.0561 29.5015 23.2304C29.6869 19.495 29.8683 15.7419 31.3378 12.3095C32.3191 9.80205 35.0855 9.21986 37.4349 8.69245C37.4994 8.67798 37.5636 8.66356 37.6275 8.64918C38.8511 8.28363 40.0813 8.00146 41.31 7.7195C43.1929 7.28741 45.0719 6.85532 46.8655 6.14635C46.9626 6.10797 47.0593 6.06883 47.1557 6.0289C47.0869 5.95824 47.0234 5.88294 46.9662 5.80307C46.6513 5.36319 46.528 4.78761 46.5603 4.21652C46.5939 3.62413 46.7954 3.03326 47.141 2.59548C47.2765 2.49557 47.4358 2.48504 47.5973 2.51149C47.914 2.56334 48.2443 2.75156 48.5129 2.90014C48.5395 2.91483 48.5655 2.92921 48.5909 2.94314L48.7926 3.05389L48.8996 2.84977C49.3222 2.04398 49.6154 1.1559 49.9021 0.284272C50.0676 -0.219059 50.2312 -0.716677 50.4181 -1.18835C50.9907 -2.40224 51.9729 -2.98427 53.1061 -3.20833C54.814 -3.54603 56.8567 -3.09001 58.4367 -2.69456C58.4934 -2.68001 58.5504 -2.6655 58.6078 -2.65091C59.4048 -2.44808 60.2595 -2.23695 60.9221 -1.73795C62.0253 -0.8542 62.2597 0.519914 62.509 1.86796C62.6352 2.55034 62.7618 3.22938 62.9841 3.84893C63.0091 3.91847 63.0354 3.98782 63.0632 4.0569C63.126 4.02846 63.1875 4.00695 63.2473 3.99323C64.121 3.79285 66.0387 4.93191 66.6997 5.53867C66.8725 5.65348 66.9516 5.76784 66.9927 5.89662C67.0611 6.11108 67.0391 6.35677 67.0233 6.59926C67.0161 6.70922 67.0091 6.81882 67.0078 6.92582C67.007 6.9884 67.0081 7.05193 67.0102 7.11592C67.0705 7.12782 67.1307 7.13961 67.1908 7.1513C67.5799 7.22707 67.9771 7.30122 68.3792 7.3763C71.257 7.91357 74.3949 8.49113 76.6336 10.08C78.1989 11.191 79.3147 12.8035 79.5756 15.2544C80.4029 18.7966 80.8418 22.3754 81.2485 25.956C81.3031 26.4291 81.3571 26.9025 81.4111 27.3761C82.066 33.1196 82.7262 38.8961 84.5059 44.4177C84.6805 44.8468 84.85 45.2599 85.0196 45.6734C87.6805 52.1616 90.3811 58.7373 91.0198 65.7924C91.3664 69.1639 91.3136 72.5701 90.7384 75.9122C90.7048 76.0923 90.5625 76.2186 90.4002 76.2849C90.2221 76.3577 90.0085 76.3643 89.8487 76.2631L88.9972 75.7243L89.5371 76.5766C90.6736 78.3703 89.7218 81.5249 89.0777 83.7524C88.9823 84.0823 88.8925 84.3929 88.8152 84.6773C88.3206 86.3221 87.5205 88.1132 86.2637 89.0634C85.7881 89.423 85.2461 89.6592 84.6291 89.7117C84.0623 89.76 83.4341 89.6538 82.7379 89.3554C82.6507 89.318 82.5663 89.2793 82.4846 89.2401C82.4656 89.3328 82.4466 89.4256 82.4276 89.5183C81.0605 96.1821 79.5348 102.787 77.7237 109.346L77.4714 110.26L78.1087 109.56C78.2105 109.448 78.327 109.382 78.4487 109.358C78.5849 109.331 78.7254 109.355 78.8545 109.413C79.0019 109.48 79.1351 109.592 79.2343 109.732C79.325 109.86 79.3875 110.012 79.405 110.177C79.3529 111.073 79.0644 111.935 78.7794 112.795C78.6273 113.253 78.4756 113.711 78.3572 114.173C78.2248 114.65 77.9455 114.943 77.5873 115.128C77.0394 115.41 76.323 115.456 75.6472 115.506C75.2945 115.532 74.9516 115.558 74.6438 115.61C74.5977 115.618 74.5511 115.627 74.504 115.636C74.4907 115.681 74.4775 115.726 74.4646 115.771C74.3737 116.087 74.2939 116.406 74.2142 116.725C74.1504 116.981 74.0866 117.236 74.0169 117.49L74.4514 117.616C74.4832 117.511 74.513 117.412 74.541 117.32ZM40.806 77.6331C40.8211 75.7193 41.5012 73.9148 42.1752 72.1131C42.456 71.3623 42.7366 70.612 42.971 69.8551C42.9849 69.8101 42.9986 69.7651 43.0123 69.72C42.9769 69.6844 42.9413 69.6504 42.9052 69.6183C42.7333 69.465 42.5209 69.3255 42.3043 69.1843C42.002 68.9873 41.6867 68.7895 41.4991 68.5222C41.3837 68.3577 41.3239 68.1643 41.3639 67.9005C41.4727 65.9282 41.6069 63.9566 41.7675 61.988C41.8051 61.5677 41.8431 61.1475 41.8812 60.7269C42.5513 53.3133 43.2265 45.8146 41.8991 38.4376C41.8406 38.1017 41.7724 37.7693 41.7042 37.4367C41.6584 37.2132 41.6125 36.9897 41.5698 36.7654C41.5636 36.7325 41.5567 36.6887 41.5487 36.6378C41.5104 36.3956 41.4465 36.0102 41.3175 35.729C41.2008 35.475 41.0301 35.3125 40.8256 35.2767C40.7535 35.2641 40.68 35.2678 40.6064 35.2866C40.5932 35.3391 40.5801 35.3929 40.5671 35.4467C38.3441 44.6284 38.9019 53.9951 39.4621 63.3438C39.7198 67.6449 39.9774 71.942 39.9614 76.2152C39.9613 76.2572 39.9611 76.2992 39.9609 76.3412C39.9874 76.3494 40.0128 76.3633 40.0357 76.3841C40.0934 76.4366 40.1093 76.5098 40.0977 76.5781C40.0837 76.6611 40.0319 76.74 39.9524 76.782C39.9246 76.7967 39.8951 76.8061 39.8651 76.8106C39.8563 76.8507 39.8471 76.8908 39.8378 76.9308C39.795 77.1134 39.747 77.2948 39.6934 77.4751C39.6803 77.5193 39.6668 77.5634 39.6531 77.6074C39.6868 77.6397 39.7206 77.672 39.7544 77.7042C39.9815 77.9207 40.21 78.1355 40.4409 78.3481L40.8528 78.7273L40.8196 78.1675C40.809 77.9884 40.8046 77.8102 40.806 77.6331Z" fill="white"/>
<path fill-rule="evenodd" clip-rule="evenodd" d="M50.247 -1.20996C50.8341 -0.732925 50.2218 2.70718 49.7487 3.40928C52.9483 5.4759 56.1809 7.49527 59.4815 9.3881L59.8232 9.58345H59.8217C59.9595 9.64597 60.1828 9.69549 60.3177 9.66971L60.4178 9.63655C60.4328 9.63196 60.4407 9.63028 60.436 9.6341C60.488 9.60613 60.5385 9.57672 60.5883 9.54422L60.6389 9.49684C61.6015 8.57977 62.2206 7.21347 62.9605 6.08249C61.7054 4.97193 62.3309 2.80727 62.3817 1.32869C62.619 1.32271 62.6469 2.07811 62.7148 2.2972L62.7401 2.43634C62.8338 2.94787 62.9377 3.47241 63.1331 3.94898C63.6759 3.25913 66.4242 4.88899 66.939 5.41343C67.4998 5.77208 67.3278 6.40999 67.3205 6.97079C72.5358 7.98875 79.1863 8.70483 79.8871 15.2724C80.7117 18.7955 81.1522 22.3814 81.5598 25.9721L81.6041 26.3541C82.3256 32.5946 82.9499 38.9179 84.982 44.8948L85.6736 46.5493C87.3629 50.5972 89.0186 54.6765 90.0965 58.9367C90.9196 60.7271 93.1113 77.8152 89.8146 76.4971C90.9418 78.3423 90.0986 80.7702 89.7067 82.7431C88.8941 86.0371 87.1539 91.507 82.7357 89.6061C81.368 96.2731 79.8405 102.886 78.0282 109.449C78.6328 108.784 79.6436 109.372 79.7183 110.215C79.7099 111.298 79.1925 112.323 78.9395 113.367L78.9182 113.46C78.5661 114.962 78.019 115.645 76.3766 115.696C71.7592 116.312 67.0279 116.104 62.4879 115.057C64.0808 120.62 59.0248 124.935 57.9595 130.079C55.731 140.536 61.3813 150.542 62.114 160.885C62.2203 161.785 62.3115 162.687 62.3892 163.59C62.4094 164.521 62.7647 165.666 62.2625 166.485C62.7341 167.579 63.7855 168.509 64.9597 168.756C67.1697 169.04 67.4626 166.084 69.355 165.562C68.6362 162.111 68.334 158.609 68.6016 155.09L68.6505 154.304C69.4563 141.467 70.5908 128.382 74.8125 116.17C74.8509 116.055 75.0077 116.103 74.9899 116.218C72.9895 129.497 70.3459 142.711 70.0703 156.19C70.0746 159.246 69.4976 162.334 70.0485 165.363C74.2784 164.674 76.6369 169.125 79.4989 171.429C81.3865 173.119 83.4302 174.623 85.5715 175.972L85.7103 176.055C87.2154 176.95 89.0018 178.148 88.9809 180.093C89.9863 179.922 89.7457 182.126 89.5674 182.708C89.3586 183.361 88.7518 183.736 88.1698 184.027C79.8007 186.841 70.5827 184.101 62.6258 181.079C61.2313 181.264 60.2346 179.413 60.0856 178.192C59.9337 177.518 60.2905 176.864 60.0826 176.207C59.1439 174.071 59.0132 171.713 59.1495 169.411C59.0757 164.574 61.0053 165.599 60.972 163.388L60.9527 162.989C60.9103 162.071 60.8345 160.042 61.0888 161.155C60.3529 150.387 54.2878 139.819 57.2603 128.967C58.1596 125.866 60.1108 123.313 61.3549 120.337C61.1665 119.358 61.7246 118.344 61.6708 117.332C61.664 116.449 61.4876 115.605 61.3059 114.749C60.4466 114.5 59.6069 114.194 58.8003 113.794C58.5304 114.415 57.5233 114.191 57.6605 113.405L57.941 111.804L57.9516 111.752C58.1218 110.875 58.152 109.163 59.4176 109.457C59.8446 105.421 59.9244 101.349 59.6883 97.2977C57.9394 101.477 56.7064 106.035 54.7509 110.051C54.8421 110.234 54.833 110.46 54.6392 110.648C53.5333 111.909 53.7262 113.855 51.6889 114.254C50.2783 119.629 48.8041 129.132 42.6245 130.742C43.0362 131.395 42.3242 132.469 42.2161 133.195C41.6439 134.827 41.3626 136.531 40.5485 138.091C40.5794 138.166 40.593 138.256 40.5825 138.359C41.7864 139.097 41.0228 141.481 39.6847 141.558C39.5364 141.643 39.3305 141.691 39.1367 141.694C39.261 141.735 39.3545 141.843 39.3402 142.018C39.0688 145.294 38.1974 148.484 37.4415 151.672C36.8332 153.767 36.6454 156.069 35.7499 158.054C36.0478 158.746 35.9825 159.597 35.8494 160.321C35.5894 160.836 34.764 160.704 34.2732 160.764C34.2754 160.768 34.2777 160.772 34.2792 160.777C34.2799 160.777 34.2799 160.777 34.2799 160.776C34.5399 162.644 34.3773 164.578 34.4541 166.464C36.8436 166.333 37.1883 169.332 37.6645 171.082C38.8002 174.897 40.6928 178.412 41.5639 182.323C41.68 182.237 41.8375 182.21 42.0012 182.306C43.4262 183.217 43.0897 185.167 43.2065 186.627C43.5548 189.212 38.6784 189.803 36.8209 190.073C32.6544 190.49 28.1585 189.854 24.5347 187.688C23.8481 186.79 24.1741 183.527 24.4005 182.339C24.1897 178.944 25.1433 175.579 25.8244 172.278L25.8928 172.05C26.4436 170.203 27.0897 167.877 28.7697 166.83C28.9464 166.769 29.7057 166.82 29.6069 166.53L29.6019 166.516C29.5574 166.408 29.724 166.317 29.7963 166.403C29.9494 166.582 29.9418 166.8 29.7888 166.983C29.5793 167.234 29.2438 167.183 28.9813 167.333C27.9867 168.357 27.6026 169.907 27.14 171.236C27.4859 170.961 27.8334 170.699 28.1975 170.453C28.1267 170.395 28.0792 170.303 28.0664 170.21C27.6852 169.823 28.7022 168.532 28.8677 168.057C29.0192 167.77 29.3222 167.801 29.4993 167.974C31.1479 165.725 31.2177 162.843 31.9959 160.253L31.9512 160.235C31.2146 159.931 30.1753 159.111 30.376 158.277C30.5206 157.898 30.7934 157.463 31.2474 157.443C31.1215 157.123 31.0982 156.762 31.138 156.406C31.7247 152.779 32.5062 149.182 33.3482 145.605C33.6726 144.255 34.0215 142.909 34.4154 141.577L34.4948 141.311C34.5988 140.966 34.7202 140.238 35.0714 139.975C34.1685 139.129 33.2752 137.478 34.4812 136.577C34.9132 136.182 35.9836 136.712 35.2599 136.722C35.4262 136.825 35.5801 136.952 35.7431 137.06C35.1407 136.132 35.6179 134.902 35.7996 133.902L35.8489 133.677C36.1682 132.214 36.469 130.708 37.029 129.325C31.4795 124.508 35.2639 116.515 37.0916 110.742C35.8656 109.938 33.528 109.106 34.4036 107.246C34.6642 106.726 34.9947 104.71 35.8569 105.38L36.2451 104.129C37.2907 100.749 38.282 97.3178 38.1854 93.7619C37.3705 93.5689 36.6297 93.9714 35.8446 93.6885C31.3541 90.9063 31.8159 82.3825 32.1565 77.7165C31.9537 77.6485 31.76 77.5646 31.5836 77.4595C31.4276 77.5759 31.1909 77.5826 31.0997 77.368C30.8698 76.826 30.5743 76.2968 30.3744 75.7456C25.1713 57.7992 28.4939 38.8871 29.5413 20.593C29.9496 16.8346 29.9526 11.7318 33.6746 9.66064C34.9237 9.0671 36.3333 8.81233 37.6645 8.47001C40.7194 7.55609 43.9103 7.14664 46.8691 5.97733C46.1807 5.01797 46.3444 3.61884 46.9181 2.65396C47.373 1.95942 48.2463 2.49081 48.7861 2.78626C49.4091 1.50899 49.8365 0.147286 50.247 -1.20996ZM41.7275 183.147L41.7761 183.453C41.8768 184.09 41.9671 184.722 41.931 185.371C42.1134 185.487 42.225 185.699 42.2378 185.912C42.2538 186.181 42.1199 186.442 41.787 186.531C36.7066 187.844 31.0228 188.125 26.1933 185.793C25.4135 185.562 25.0195 184.906 24.7949 184.168C24.8586 184.995 24.6922 186.564 25.1673 187.21C28.7172 189.062 32.8477 189.795 36.821 189.338C38.6422 189.126 40.4897 188.633 42.0139 187.576C42.5021 187.359 42.2985 186.822 42.3087 186.401C42.1799 185.343 42.5154 183.991 41.7275 183.147ZM34.4669 170.209C31.9937 168.963 29.1566 170.536 26.9899 171.774C26.3113 175.409 24.6149 181.05 26.2686 184.425C30.5722 186.744 35.7108 186.564 40.3654 185.552C40.4257 185.491 40.4905 185.441 40.5696 185.405C40.5626 185.414 40.596 185.389 40.6006 185.385C40.6013 185.383 40.6021 185.381 40.6021 185.379L40.6148 185.368C40.6169 185.366 40.619 185.364 40.6209 185.363C40.6141 185.367 40.6088 185.371 40.6036 185.375L40.6043 185.371C40.6054 185.373 40.6297 185.351 40.6375 185.357L40.665 185.337C40.7063 185.304 40.6525 185.336 40.6051 185.369C40.6189 185.311 40.6391 185.253 40.6473 185.193C40.6458 185.197 40.6458 185.2 40.645 185.202C40.7325 182.815 39.8261 180.413 39.0997 178.15C38.857 177.462 38.6022 176.778 38.349 176.094C37.7515 175.415 37.4269 174.46 37.0396 173.657L37.0125 173.601C36.3907 172.331 35.6816 170.999 34.4669 170.209ZM60.7896 177.468C60.5583 179.861 62.8828 180.815 64.7651 181.389C66.8825 182.144 69.052 182.771 71.2335 183.313C75.7026 184.468 80.3619 184.974 84.9429 184.25L85.0633 184.228C86.3923 183.996 88.7151 183.706 89.0126 182.187L89.0147 182.165C89.0347 181.935 89.0769 180.958 88.9809 180.711C88.9462 180.71 88.9123 180.703 88.8799 180.687C88.497 181.915 87.1017 182.662 85.7569 182.855C85.1227 183.494 83.9543 183.257 83.1088 183.293C77.5281 183.238 72.163 181.505 66.8749 179.894C65.1899 179.307 61.841 178.887 60.7896 177.468ZM61.3587 164.295C61.315 164.526 61.2059 164.744 61.073 164.933C61.174 164.895 61.5854 165.209 61.3021 165.178C60.3483 164.658 60.0952 167.579 59.9934 168.193C59.6812 171.003 59.6888 175.386 61.9564 177.378C64.3227 178.394 66.8766 178.861 69.3173 179.661L69.8949 179.831C74.5213 181.19 79.2763 182.46 84.1317 182.26C84.5239 181.516 86.8041 182.144 87.7102 180.826C88.8943 178.743 85.9031 177.409 84.4747 176.52C81.7453 174.762 79.1958 172.719 76.8968 170.423C75.8158 169.344 74.8268 168.109 73.5574 167.242L73.4912 167.197C72.4036 166.474 71.0076 166.025 69.7304 166.5C68.4866 166.962 68.0298 168.387 66.9866 169.124C64.7129 170.674 61.9499 168.084 61.5592 165.927C61.4276 165.396 61.387 164.843 61.3587 164.295ZM34.4578 166.776C34.4638 167.213 34.4759 167.65 34.4933 168.087C35.1299 168.186 35.4044 168.96 35.6603 169.499C36.0758 170.044 36.3209 170.691 36.7969 171.207C36.6348 170.43 36.5165 169.645 36.3408 168.868C36.1109 167.845 35.5403 166.91 34.4578 166.776ZM30.0775 169.447C29.9079 169.466 29.7383 169.481 29.5687 169.49L29.5148 169.558L29.4873 169.592C29.436 169.657 29.3833 169.72 29.3305 169.783C29.5741 169.659 29.8238 169.549 30.0775 169.447ZM32.3178 160.378C32.1074 162.164 31.9585 163.967 31.5444 165.719C31.3251 166.591 30.9851 167.418 30.5117 168.179C31.4555 168.502 32.4925 168.41 33.4553 168.246L33.4499 167.606C33.4331 165.312 33.4606 162.942 34.1782 160.762C33.5378 160.744 32.9271 160.595 32.3178 160.378ZM35.0458 158.671C35.0021 158.692 34.9569 158.71 34.9101 158.726C35.1139 159.066 35.0043 159.573 34.8898 159.938C34.9659 159.925 35.0413 159.912 35.1167 159.895C35.1596 159.476 35.1129 159.082 35.0458 158.671ZM35.4204 140.294C34.7613 142.952 34.271 145.695 33.6679 148.384C33.1951 150.694 32.7328 153.005 32.3153 155.325L32.2266 155.823C32.1557 156.225 31.9386 156.897 32.2583 157.242C32.5387 157.543 33.1244 157.685 33.5073 157.785C34.4388 158.106 35.2116 157.736 35.3369 156.722C36.4323 151.887 38.0253 147.14 38.6048 142.206L38.6264 142.018C38.6414 141.852 38.7447 141.747 38.8683 141.701C37.5924 141.677 36.3757 141.106 35.4204 140.294ZM39.5528 138.956L39.5573 138.922L39.5045 138.94L39.5286 138.948L39.5528 138.956ZM37.2258 129.477C37.0172 130.859 36.7332 132.23 36.5012 133.609L36.4366 134C36.2331 135.192 35.7372 136.555 36.9981 137.321C38.7761 138.88 39.9725 138.56 40.4694 136.181C40.9491 134.691 41.4001 133.191 41.8239 131.684L41.9212 131.337C41.9793 131.128 42.0403 130.953 42.1805 130.816C40.4272 131.047 38.6429 130.53 37.2258 129.477ZM37.3818 110.904C36.8575 114.104 35.7777 117.171 35.2082 120.357C33.8012 125.78 38.5127 132.327 44.2137 129.06C47.5925 126.547 48.4489 121.864 49.7358 118.081C50.0751 116.851 50.3487 115.616 50.5763 114.365C45.9835 114.321 41.4094 113.114 37.3818 110.904ZM61.8502 114.9C62.0575 115.25 62.2105 115.633 62.319 116.029C62.3655 115.71 62.1943 115.299 62.313 115.015C62.1585 114.978 62.0039 114.94 61.8502 114.9ZM59.3981 109.651C59.2812 109.675 59.1764 109.737 59.0777 109.826C59.32 111.016 58.9487 112.254 58.8719 113.456C64.7772 114.81 70.8753 115.707 76.9104 114.654C78.003 114.625 77.9671 112.726 78.3373 111.905C78.4488 111.347 78.7819 110.769 78.7225 110.2C78.6679 110.118 78.6009 110.151 78.6411 110.114L78.6518 110.105L78.64 110.115C78.3208 110.37 77.7965 110.092 77.8647 109.728L77.8676 109.714C77.8081 109.76 77.738 109.785 77.6649 109.795C78.097 110.188 77.6849 110.901 77.1334 110.726C71.8893 112.794 64.5693 112.335 59.5164 110.109C59.3878 110.025 59.3652 109.819 59.3981 109.651ZM35.7951 105.579C35.5448 105.36 35.4691 106.539 35.403 106.726C35.3561 107.198 35.131 107.676 35.1791 108.15C39.1787 111.619 45.6057 113.207 50.8583 113.278C51 113.148 51.2171 113.134 51.4055 113.211C52.2113 113.101 52.5928 112.332 52.8332 111.64L52.8897 111.497C53.0128 111.188 53.1409 110.881 53.3036 110.594C47.403 110.78 41.3173 109.646 36.1675 106.666C35.4394 106.735 35.6043 106.048 35.7951 105.579ZM39.1058 77.4557C36.955 78.2032 34.6081 78.3562 32.3924 77.7883C32.8785 81.4421 33.3666 90.0972 36.4629 92.2075C36.9861 92.1319 37.5115 92.0948 38.0399 92.1478C38.3542 92.1792 38.6652 92.2301 38.9769 92.2786C39.094 92.2949 39.3272 92.3071 39.4761 92.2966L39.5015 92.2945C39.4513 92.2981 39.4151 92.2961 39.524 92.2912L39.5362 92.2906L39.5688 92.2881C40.6424 92.1914 41.6113 90.67 42.6735 91.4001C42.8295 91.1633 43.0653 91.0114 43.2464 90.8005C44.0526 89.3841 43.1961 87.5612 43.7348 86.0681C43.5313 85.789 43.5984 85.371 43.918 85.1321C44.4161 84.673 45.469 85.0149 45.7558 84.3556C45.7361 84.3915 45.7347 84.3501 45.7424 84.3285L45.7442 84.324L45.6937 84.2821C43.4933 82.4543 41.3657 80.4118 39.9237 77.8762L39.8754 77.7905C39.5996 78.0591 39.1463 77.854 39.1058 77.4557ZM89.3473 76.2158C87.768 77.0822 86.063 77.7006 84.2945 78.0408C83.9827 81.366 83.5967 84.6862 83.0372 87.9792C83.9053 88.0538 84.794 88.428 85.5504 87.8152C87.6998 85.7194 88.4745 81.5042 89.3186 78.6577L89.3519 78.5281C89.5293 77.83 89.7328 76.8641 89.3473 76.2158ZM67.316 7.2044C67.0903 8.33764 68.3352 20.6768 66.0647 18.5663C64.528 16.1451 62.7702 13.8794 61.1989 11.4833C60.9825 12.3399 61.6158 13.3577 61.3165 14.084C65.3151 34.1865 68.2161 54.5989 69.2909 75.0773C71.0582 76.3225 72.6079 77.832 74.1272 79.3617C74.6007 79.7656 74.9444 80.4259 75.5324 80.6581C77.9808 77.8803 80.8196 75.4824 83.3794 72.8116C83.3613 72.6815 83.3425 72.5515 83.3236 72.4215C83.2513 71.9203 83.9116 71.6707 84.1317 72.0034C85.0428 70.8032 85.119 67.0865 84.9315 65.5275C84.5614 62.031 83.2611 58.6903 82.3321 55.3208C79.6548 45.0127 77.8019 34.199 78.6787 23.5279C78.6916 23.4289 78.8227 23.4274 78.8343 23.5279C79.5619 34.8015 80.6957 46.1065 84.0744 56.9424L84.1548 57.2102C85.4749 61.5898 87.1078 66.2324 85.9778 70.8256C86.0716 71.4438 85.7758 72.0601 85.3288 72.5046C85.08 73.1094 84.7958 73.7067 84.4385 74.2502C84.5202 75.1953 84.4828 76.1523 84.3805 77.1004C86.1974 76.7351 87.8918 76.0043 89.5056 75.106C89.5975 74.5813 89.6782 74.0551 89.7407 73.5268C90.9432 63.7268 87.2756 54.1963 83.6063 45.3C80.1099 34.9324 80.7927 23.6811 77.8707 13.1933C76.022 9.10354 70.9727 8.78209 67.316 7.2044ZM47.4971 6.44462C46.6153 6.75072 45.7338 7.12781 44.7909 7.1545C41.9663 8.09743 39.0701 8.82142 36.1988 9.60839L35.921 9.68475C34.6953 10.0228 33.4575 10.409 32.6306 11.4418C31.8376 12.4321 31.506 13.7074 31.2469 14.9253C30.0324 25.5675 29.3444 36.3172 28.7274 47.0229C28.4249 55.9368 28.5973 64.9996 30.8682 73.6734C31.1889 74.8618 31.5789 76.0541 31.717 77.275C31.8821 77.2772 32.0479 77.2886 32.2145 77.3052C32.2171 77.2254 32.3379 77.2385 32.3291 77.3166C34.5357 77.6659 36.8292 77.4593 38.9 76.6007C38.3885 60.9855 35.0639 44.0377 42.5943 29.5517C42.6253 29.4966 42.7187 29.5344 42.6976 29.5955L42.512 30.1328C41.9147 31.8641 41.3311 33.598 40.9111 35.3835C41.5096 35.2943 41.9461 36.7005 42.0592 37.0452C45.3231 46.9864 43.3129 57.5943 42.8974 67.8038C44.0168 68.6158 45.1309 69.4345 46.2541 70.2404C50.7821 73.489 55.3501 76.6891 60.0312 79.7123C62.6837 77.9832 65.0596 75.7155 67.7848 74.1474C67.0059 53.0551 62.7159 32.1863 60.384 11.3548C59.519 12.433 58.6383 13.4989 57.7585 14.5648C56.6271 15.9581 55.5333 17.3877 54.4177 18.7946C54.187 19.0864 53.6842 18.973 53.5199 18.6789C51.3227 14.6956 49.9257 10.2962 47.4971 6.44462ZM40.8734 35.5423C37.6317 48.9305 40.3251 62.7176 40.2742 76.2582C40.5153 76.4721 40.4259 76.8779 40.1445 77.0248C40.103 77.2114 40.054 77.3967 39.9968 77.582C40.2229 77.7973 40.4505 78.0113 40.6805 78.223C40.5056 75.2754 41.9845 72.5976 42.8416 69.8299C42.4116 69.5045 41.9578 69.2096 41.539 68.8713C41.2414 68.6105 41.2059 68.3266 41.2234 67.9561L41.2247 67.9301C41.6302 59.204 43.1941 50.4795 42.2069 41.7392C42.0527 40.0943 41.773 38.4655 41.4343 36.8501L41.4268 36.8077C41.3724 36.484 41.2699 35.6116 40.8734 35.5423ZM89.4927 76.1365L89.4664 76.1508L89.5251 76.2007C89.5131 76.1803 89.5025 76.1584 89.4927 76.1365ZM70.1021 71.5748C69.3505 70.8362 70.5105 69.6649 71.2523 70.4211C72.0029 71.1611 70.8423 72.3323 70.1021 71.5748ZM69.6068 62.7908C69.4408 62.3541 69.9025 61.661 70.3907 61.9514L70.4058 61.9607L70.4126 61.9516C70.8746 62.2253 70.7043 62.7923 70.4329 63.1302C70.1322 63.4409 69.7578 63.0719 69.6068 62.7908ZM68.9012 52.6777C67.5942 50.9604 70.3401 50.2559 69.8902 52.3701C69.7942 52.7654 69.0036 53.3422 68.9012 52.6777ZM66.9685 43.1091C66.2748 42.2587 67.7661 41.5269 68.0781 42.5421C68.2568 43.2193 67.4144 43.6368 66.9685 43.1091ZM73.9088 22.0144C74.3193 22.0785 76.3967 21.6526 75.8618 22.5201C76.6973 26.7075 79.047 31.8162 75.6922 35.4751L75.6623 35.5046C75.1675 36.0004 74.3762 37.1787 73.6191 36.693C71.9385 35.2711 69.7731 34.2551 68.4887 32.4352C67.9488 31.0075 68.4086 29.4122 68.2657 27.9187C68.2047 26.0295 67.8911 24.1576 67.8239 22.2714C67.821 22.1799 67.9198 22.1505 67.9816 22.189C69.9524 22.0318 71.9336 22.0667 73.9088 22.0144ZM68.0487 22.3213C68.9403 25.2324 68.9604 28.345 68.9366 31.3623C68.9506 31.6734 69.0054 31.976 69.1671 32.2137C70.4417 33.7212 72.2578 34.6659 73.7707 35.918C74.3834 35.5166 74.8683 35.0037 75.3025 34.4219C77.9611 30.9322 75.552 26.5398 75.555 22.654L75.2142 22.6547C72.8278 22.6579 70.4187 22.6264 68.0487 22.3213ZM66.0424 33.1328L66.0654 33.1329C66.9798 33.1352 66.7701 34.6895 65.9072 34.4764C65.1796 34.3036 65.2908 33.1422 66.0424 33.1328ZM64.2488 25.1995C63.6151 24.1167 65.7059 23.6978 65.4857 24.9484L65.4905 24.8971C65.4915 24.8872 65.4924 24.8784 65.4933 24.8705L65.4775 24.9877C65.4014 25.5408 64.3125 25.9371 64.2488 25.1995ZM62.8196 16.238L62.8452 16.2318C63.4262 16.0774 63.8553 16.8956 63.3563 17.2629C62.6228 17.8181 61.9903 16.4546 62.8196 16.238ZM48.5991 3.54838L48.5282 3.48262C47.7701 2.78428 47.2015 2.43504 47.0335 3.85834C46.9165 4.55235 47.0169 5.42772 47.6803 5.83823C50.8564 8.98788 52.0599 13.4852 54.1064 17.359C55.9542 15.114 57.6741 12.7772 59.4614 10.4869C56.9992 8.98205 54.5127 7.48873 52.0839 5.91844C50.9231 5.1443 49.674 4.43963 48.5991 3.54838ZM64.5872 5.40512C63.632 6.96905 62.7501 8.6606 61.5321 10.0447C61.3768 10.2011 61.2155 10.3252 61.0489 10.4197C61.2869 10.3506 61.6025 10.5294 61.5728 10.7916C63.3458 12.5644 64.7952 14.6267 66.18 16.7134C66.4448 13.2615 65.9401 9.79521 66.1355 6.33802C65.6855 5.92298 65.1495 5.63872 64.5872 5.40512Z" fill="black"/>
</g>
<defs>
<clipPath id="clip0_43_96">
<rect width="124" height="189" fill="white"/>
</clipPath>
</defs>
</svg>
