<svg width="124" height="190" viewBox="0 0 124 190" fill="none" xmlns="http://www.w3.org/2000/svg">
<g clip-path="url(#clip0_43_36)">
<path fill-rule="evenodd" clip-rule="evenodd" d="M28.7239 45.6724C31.209 51.2444 34.2814 56.1709 37.9197 61.0909C37.6646 49.4654 37.4449 37.7776 37.0688 26.0454C34.7648 30.5788 32.3098 34.6814 29.0324 39.182C26.4631 41.9513 27.6611 43.1007 28.7239 45.6724ZM20.5768 181.683C20.2889 181.272 20.4593 180.749 20.8576 180.483C20.0095 178.639 22.5651 177.215 23.823 175.827C26.6821 172.699 31.1862 168.215 31.5871 164.265C32.9506 155.304 33.7299 146.311 35.9133 137.455C37.2105 131.83 40.812 127.316 42.4212 121.791C45.2197 107.188 41.6045 92.5436 42.2296 77.795C34.3425 77.0147 35.364 78.0068 36.2087 71.3906C35.6809 71.0211 35.1666 70.6296 34.686 70.2353C33.4269 70.9129 31.9404 72.574 30.5539 72.4862C30.115 72.3826 29.7987 71.8278 29.4976 71.3512C27.271 67.8103 25.2012 64.3488 23.1749 60.7803C11.9691 42.9605 14.5037 38.9254 24.9562 21.8434C29.3581 15.2462 34.7651 5.64621 43.151 4.98007C44.1634 4.9809 45.2307 4.92649 46.1028 4.28436C46.109 3.26178 46.6271 2.93187 47.9414 2.74498C48.6815 2.6683 49.2622 2.23305 49.9847 2.41066C50.5001 0.675046 50.3968 -0.720694 50.9561 -2.43799C52.872 -5.36878 59.0875 -3.90654 61.3636 -2.98739C64.1919 -1.99552 61.5014 2.44372 63.3474 4.47094C63.7498 4.69757 64.1687 4.80618 64.705 4.80595C66.9918 4.29249 68.1062 7.06178 69.1872 8.88844C72.2816 9.27323 74.6006 9.73653 76.0241 10.8615C77.3296 11.8555 78.2894 13.4543 79.5653 16.7607C82.2373 22.6574 83.9893 28.5138 84.7632 34.1632C85.4367 37.9914 87.3078 41.3045 88.8098 44.7816C92.4971 53.8351 94.0889 59.8316 93.2062 67.8002C92.2701 67.631 91.3263 67.2878 90.3408 67.1597L89.9425 68.1102C89.9173 68.0911 89.9068 68.0699 89.9051 68.0639C88.7488 76.0398 91.9209 92.2808 81.572 90.1438C80.6589 98.9212 77.7466 106.724 74.2424 114.063C72.8252 116.825 71.4 119.743 71.4237 122.985L71.9572 122.997C72.0478 122.999 72.0769 123.018 72.0772 123.018C72.1788 123.043 72.0609 123.842 71.9471 124.294C70.2729 130.259 68.8252 136.223 67.5253 142.26C67.251 143.074 67.1325 145.264 66.4975 145.635C66.5251 145.934 65.6494 146.52 65.5817 146.501C65.7343 147.653 65.1815 148.169 65.2001 149.338C65.1971 149.311 65.9767 149.351 65.9427 149.328C66.4082 149.328 66.9356 150.324 66.9421 151C66.9845 151.813 66.3027 152.578 66.0643 153.377C65.6948 155.128 65.7525 156.904 65.5881 158.667C67.1398 159.022 66.7915 160.686 65.4308 160.767C65.4308 160.767 65.183 163.092 65.2319 164.25C66.1654 164.363 66.5802 165.202 66.8885 165.853C68.0366 165.866 69.1113 166.393 70.1774 166.942C72.6627 168.17 75.1034 169.457 77.3172 170.76C79.2704 172.07 83.5277 173.51 81.3172 176.264C81.3508 176.335 80.8429 177.614 80.1578 177.497C76.7779 177.828 63.9247 175.013 60.9512 174.389C59.942 174.147 55.5258 173.567 57.3598 172.063C56.6763 170.138 56.6461 166.485 58.7078 166.039C58.908 164.231 60.4177 163.596 61.9235 164.265C61.914 162.964 61.9944 161.837 62.0079 160.536C61.2831 160.439 60.4806 160.168 60.2712 159.614C60.0725 159.308 60.1496 158.266 60.8958 158.258C60.9177 158.257 61.4569 158.283 61.4786 158.282C61.3922 156.176 61.5743 154.389 61.2616 152.279C61.094 151.579 60.5455 151.465 60.1864 151.104C59.8494 150.056 60.8858 149.21 61.7725 149.033C61.9983 147.968 61.5216 146.84 61.7725 145.794C61.1943 145.775 60.743 145.745 60.3674 145.391C60.2044 145.23 59.9374 145.279 59.73 145.264C59.529 143.065 58.1684 141.186 57.8666 139.07C57.4415 136.566 58.2428 133.952 58.5298 131.4C58.7623 129.277 58.3917 127.104 58.2066 125.019C50.5872 137.283 40.2984 149.101 38.4564 164.03C38.2602 165.179 38.1413 166.465 39.1921 167.59L39.2371 167.603C39.5043 168.144 39.6722 169.175 39.8638 169.733C40.8561 170.524 39.9453 172.042 39.2285 172.726C39.0111 172.976 38.8257 173.266 38.6272 173.528C34.8829 178.038 34.4593 183.134 27.2718 182.79C25.5048 182.678 21.3701 182.735 20.5768 181.683Z" fill="white"/>
<path fill-rule="evenodd" clip-rule="evenodd" d="M50.6605 -1.63917C51.267 -2.05717 50.4035 1.5469 50.4018 1.89111L50.3866 1.96658C50.2354 2.70051 49.9691 3.55345 49.3563 4.02291C49.6389 6.35626 49.9907 8.68285 50.4237 10.9913C54.2855 11.4993 58.1729 12.233 62.1007 11.8629C64.1503 11.8808 65.5123 10.4789 66.3504 8.73245L66.3756 8.67943L66.203 8.05471C63.5762 6.42884 61.585 3.13302 62.7694 0.0230268C62.8463 -0.179133 63.1667 -0.0978131 63.0966 0.113467C62.5996 1.51734 62.8082 3.09996 63.5142 4.38923C63.9551 4.62635 64.4248 4.60963 64.8974 4.59519C67.1772 4.25889 68.4866 6.86933 69.4678 8.49703L70.3267 8.62527C73.6127 9.11784 76.7824 9.70059 78.4049 13.0973L78.5532 13.4152C80.8489 18.3452 82.9941 23.4164 84.2444 28.7282C84.8671 31.5243 85.0924 34.4054 86.0059 37.1331C87.9024 42.1967 90.575 46.9549 92.0244 52.197C92.9233 54.0494 95.4494 68.3875 92.9576 68.4352C92.0599 68.1639 91.1454 67.9451 90.2213 67.7884C90.3638 67.8979 90.4158 68.0841 90.3887 68.2749C90.0661 70.5571 90.0419 72.869 90.0435 75.1698C90.1755 80.6954 90.1574 92.3715 82.0004 90.8863C81.3317 97.6424 79.0484 104.178 76.5103 110.432C75.0022 114.463 72.0774 118.141 71.9304 122.569C72.941 122.584 72.549 123.881 72.4248 124.506C72.0849 126.037 71.6428 127.544 71.1953 129.045C69.6187 134.43 68.677 139.996 67.3269 145.443C67.2538 145.705 67.131 145.884 66.9742 146.004C66.9475 146.571 66.0989 146.896 65.6188 146.708C65.6862 147.393 65.6676 148.087 65.677 148.775L65.6791 148.904L65.8261 148.902C66.4661 148.736 67.113 149.782 67.2936 150.318C67.9012 151.82 66.4924 152.921 66.3876 154.352C66.2921 155.71 66.1651 157.056 66.1073 158.418C67.8638 159.109 67.0869 161.426 65.3655 161.402C65.4459 162.248 65.4569 163.098 65.4922 163.945C66.2407 164.143 66.8019 164.779 67.1701 165.444C68.683 165.548 70.0639 166.45 71.4118 167.089C73.496 168.127 75.5463 169.236 77.5575 170.412C79.5159 171.727 83.8737 173.22 81.9688 176.262C82.4482 176.679 82.1133 177.495 81.6763 177.836L81.6612 177.848C81.227 178.191 80.6526 178.191 80.1189 178.135C73.9192 178.292 67.3867 176.349 61.2219 175.081L60.7564 174.997C59.4069 174.753 58.0254 174.48 56.8265 173.816C56.3193 173.399 56.1952 172.383 56.7141 171.972C56.182 170.03 56.662 166.62 58.7676 165.869C59.0174 164.428 60.1722 163.395 61.6411 163.835C61.6482 162.913 61.7226 162.001 61.739 161.078C61.0108 160.94 60.3392 160.655 59.988 159.957C59.6019 159.262 60.0202 158.097 60.8977 158.134C60.9275 156.698 60.8469 155.285 60.8352 153.851L60.834 153.764C60.8293 153.3 60.8478 152.787 60.6527 152.36C60.4522 151.92 59.9185 151.877 59.6818 151.46C59.1627 150.337 60.2017 149.017 61.2732 148.715C61.4076 147.963 61.3379 147.166 61.4729 146.407C60.9023 146.373 60.4161 146.239 60.003 145.913C59.7175 145.868 59.2124 145.996 59.1798 145.583C59.0637 143.893 58.2187 142.388 57.6866 140.812C56.5876 137.745 57.585 134.543 57.967 131.442C58.1471 129.861 57.9572 128.272 57.7967 126.687C50.5451 138.145 41.2432 149.224 39.0941 163.048C38.9748 164.603 38.3452 165.884 39.4515 167.226C39.8228 167.334 40.1398 169.093 40.2828 169.536C41.4159 170.594 40.4285 172.483 39.4423 173.301C38.9703 174.123 38.339 174.843 37.7479 175.58L37.5576 175.902C36.3057 178.014 34.97 180.132 33.2726 181.901C30.4197 184.036 25.6325 183.429 22.2723 183.044L21.9736 182.995C21.2737 182.877 20.4989 182.705 20.0962 182.076C19.7463 181.532 19.7931 180.825 20.2281 180.416C19.7964 179.161 20.7799 177.929 21.7047 177.159C25.2898 173.952 28.38 170.181 30.7865 166.002C31.7089 159.243 32.6562 152.485 33.6819 145.742C34.5096 140.162 35.7707 134.576 38.4331 129.57L39.0859 128.318C40.1896 126.197 41.2476 124.081 41.8764 121.744C43.3425 116.236 42.9914 110.469 42.7884 104.831C42.5271 96.029 41.9054 87.2254 41.9864 78.417C40.3443 78.2431 35.892 78.3502 35.1908 76.6477C34.9612 75.0252 35.4996 73.3744 35.6213 71.7541C35.2746 71.5086 34.9361 71.2517 34.6067 70.9865C33.9961 71.4463 33.366 71.8803 32.7184 72.2837C31.1697 73.4085 29.9721 73.5885 29.0135 71.7397C26.2402 67.3166 23.5645 62.8298 21.0398 58.2573C18.6981 53.8715 15.7956 49.4927 15.2013 44.4433C14.3373 35.3543 24.9061 20.8074 30.1977 13.4224C33.4496 9.45322 37.6561 5.22599 43.0293 4.91501L43.1925 4.90679C43.9131 4.87031 44.9602 4.95011 45.5609 4.45839C45.6744 2.81755 47.3431 2.82583 48.5837 2.55451C48.8407 2.35683 49.2305 2.31002 49.5591 2.32583C50.0043 1.03565 50.1054 -0.390793 50.6605 -1.63917ZM35.3402 167.172C33.9793 166.458 32.3553 166.4 30.9237 166.966C29.1484 170.286 26.8745 173.316 24.2924 176.037C23.349 177.366 19.8079 179.117 21.5743 180.909L21.8134 180.953C24.525 181.451 27.278 181.843 30.041 181.619C31.8462 181.115 33.3034 179.765 34.4515 178.307C35.8767 176.442 37.0545 174.39 38.3584 172.437C39.5291 170.436 40.1463 170.409 39.2283 168.031C39.2267 168.077 39.2155 168.124 39.1921 168.172C38.8679 168.832 37.8729 168.771 37.3113 168.523C36.5794 168.198 36.0472 167.548 35.3402 167.172ZM22.4812 181.525L22.5223 181.544L22.564 181.563L22.6251 181.563L22.4812 181.525ZM74.087 169.573C72.0678 168.662 68.3687 166.007 66.3062 166.411C64.7832 166.881 63.379 167.722 61.7556 167.843L61.6858 167.846C60.5269 167.896 58.4673 168.286 58.0319 166.911C57.4554 168.022 57.2657 169.398 57.2743 170.656C57.2503 171.728 57.7367 172.575 58.8655 172.662L59.9108 172.928C66.534 174.605 73.2189 176.207 80.0442 176.703C81.8359 175.574 81.88 174.09 79.9802 173.059C78.0618 171.822 76.0875 170.669 74.087 169.573ZM35.0787 143.683C33.8925 151.172 33.0961 158.704 31.9474 166.196C35.9566 165.185 37.1341 168.813 38.6267 167.801C37.5826 166.414 37.7078 165.37 38.0169 163.756C38.6297 158.321 40.6355 153.151 43.1225 148.326C43.4059 147.775 43.6968 147.227 43.9915 146.68C40.7937 146.975 37.3514 146.054 35.0787 143.683ZM59.7776 165.039C59.503 165.469 59.3941 165.987 59.3065 166.484C59.2612 166.741 59.2861 167.12 59.1957 167.408C60.916 167.46 62.6461 167.056 64.1964 166.311L64.1207 166.306C62.8573 166.227 60.2464 166.407 59.7776 165.039ZM58.708 166.147C58.5407 166.267 58.3959 166.406 58.2708 166.56C58.2285 166.8 58.3514 167.06 58.5505 167.209C58.5902 166.859 58.6387 166.495 58.708 166.147ZM62.0685 161.132C62.0737 162.217 62.1391 163.285 62.1272 164.368C62.1254 164.743 62.2359 165.217 62.0082 165.537L62.3701 165.575C63.2775 165.671 64.2031 165.749 65.11 165.645C65.1393 164.236 65.1401 162.819 65.2321 161.411C64.1137 161.403 63.1692 161.213 62.0685 161.132ZM65.5336 165.449C65.5322 165.493 65.5313 165.538 65.5329 165.581C65.6632 165.556 65.793 165.527 65.921 165.493C65.8157 165.482 65.7084 165.5 65.6045 165.464C65.5806 165.46 65.5563 165.457 65.5336 165.449ZM61.6274 165.28C61.5128 165.412 61.2894 165.435 61.1481 165.348C61.1194 165.353 61.0907 165.357 61.0606 165.359C61.0523 165.36 61.0432 165.359 61.035 165.359L61.1332 165.384C61.3379 165.435 61.4965 165.468 61.7066 165.498C61.6697 165.43 61.6448 165.357 61.6274 165.28ZM66.3341 165.275C66.3077 165.325 66.2716 165.366 66.2272 165.4L66.3284 165.366C66.3453 165.36 66.362 165.354 66.3786 165.347C66.3651 165.322 66.35 165.299 66.3341 165.275ZM60.4041 164.977C60.4231 165.022 60.4655 165.091 60.5141 165.127C60.4711 165.082 60.4334 165.032 60.4041 164.977ZM65.5049 164.28C65.5057 164.305 65.5065 164.331 65.508 164.358C65.5218 164.343 65.5383 164.33 65.5578 164.321C65.5396 164.307 65.5215 164.293 65.5049 164.28ZM60.8925 158.372C60.0492 158.648 60.3446 159.716 60.9829 160.066C61.6772 160.528 62.7257 160.456 63.5225 160.525C64.3383 160.543 65.2825 160.877 66.0168 160.397C66.3998 160.136 66.4032 159.545 65.998 159.317C65.9904 159.335 65.9822 159.352 65.9738 159.37C65.9792 159.412 65.9754 159.459 65.9572 159.514C65.4946 160.354 62.5915 159.869 61.8552 159.453L61.7983 159.428C61.2997 159.214 60.8321 159.115 60.8925 158.372ZM61.9237 146.018C62.1063 146.844 62.0465 147.704 62.1619 148.532C62.2343 148.772 62.1415 148.932 61.9931 149.014C62.9512 149.303 63.9167 149.447 64.9147 149.222C64.8066 148.253 65.0795 147.174 65.2178 146.201L61.9237 146.018ZM65.5818 146.221C65.598 146.345 65.5959 146.48 65.6097 146.608C65.6117 146.605 65.6138 146.602 65.6162 146.6L65.6204 146.596C65.7409 146.49 65.8503 146.355 65.9656 146.238C65.839 146.235 65.7094 146.228 65.5818 146.221ZM60.5864 121.16C59.9758 122.628 59.2869 124.057 58.5142 125.447L58.5457 125.776C58.75 127.929 58.9038 130.085 58.5574 132.234L58.5249 132.418C57.991 135.43 57.3255 138.566 58.6205 141.48L58.6794 141.633C59.1421 142.83 59.6291 144.017 59.7542 145.302C61.8588 145.454 63.9702 145.666 66.0778 145.741C66.6228 145.834 66.8879 145.52 66.9364 145.004C68.5805 138.051 70.0228 131.05 71.8045 124.132L71.8231 124.096C72.0162 123.723 72.161 123.295 71.8022 123.164C71.1252 123.045 70.4613 123.776 69.8183 123.962C66.3674 125.335 63.7536 121.688 60.5864 121.16ZM60.505 123.992C62.6007 127.122 61.4605 131.875 61.2197 135.592C61.0417 136.961 61.2508 138.362 61.1088 139.724C61.0892 139.83 60.9226 139.85 60.8766 139.754C60.3826 138.5 60.5854 137.058 60.6287 135.739C60.937 131.836 61.8099 127.807 60.505 123.992ZM66.6315 81.1332C66.6237 81.082 66.5526 81.1004 66.5482 81.1445C66.5257 90.5311 65.9413 99.8904 65.0172 109.23C65.0042 109.432 65.3324 109.48 65.3712 109.278C66.0359 105.81 66.3043 102.275 66.5294 98.7524L66.5547 98.3536C66.8475 93.622 66.9403 88.8778 66.8145 84.1385C66.7871 83.1426 66.7832 82.119 66.6315 81.1332ZM85.6352 67.4616C85.5538 67.559 85.4649 67.6174 85.3743 67.6471C85.3751 69.8404 84.9365 71.9989 83.7342 73.8989C83.2063 74.603 82.9227 75.4163 82.6697 76.2533C82.7424 76.4804 82.651 76.7417 82.4813 76.8727C81.3702 80.281 81.2557 83.9311 81.6657 87.4717C82.9152 85.6218 83.4109 83.4134 83.7605 81.2366C83.7793 81.1272 83.9587 81.1287 83.9783 81.2366C84.393 83.5649 83.6903 85.8888 82.7828 88.0159C82.2796 88.4456 82.3876 89.4195 82.329 90.0283C91.54 91.3815 88.3366 73.5302 89.5166 68.0324C89.5384 67.8804 89.6657 67.771 89.8105 67.7239C88.4287 67.512 87.0292 67.4957 85.6352 67.4616ZM48.3673 2.94675L48.2078 2.98732C46.527 3.41102 46.0816 3.42066 45.9747 5.41523C45.5564 8.2292 44.0121 10.6866 43.3178 13.4082C43.0401 14.3695 43.3331 16.1408 44.6503 15.882C45.077 15.7497 45.4095 16.3296 45.0868 16.6381C44.1332 17.5479 43.2076 18.4865 42.2766 19.4197C46.0149 32.1573 50.8715 44.5643 56.7865 56.434C57.021 56.9045 56.3177 57.3194 56.0848 56.8475C50.2034 44.9395 45.3128 32.5364 41.5168 19.796L41.4021 19.4098C41.2346 18.941 43.378 17.2601 43.7684 16.7111C39.8596 14.8111 45.3031 8.15723 45.4623 4.95923C44.33 5.40611 43.0753 5.25297 41.8937 5.44791C39.6231 5.84843 37.6305 7.17463 35.8592 8.60244C28.6649 15.0163 24.0664 23.8961 19.4671 32.2653C16.3346 37.7276 14.8249 44.4019 17.968 50.2112C21.6149 57.6585 25.8469 64.8376 30.3191 71.8066C30.8111 72.4508 31.566 71.7104 32.0837 71.4387C35.0587 69.6345 37.6386 67.1789 39.6225 64.3076C34.4203 57.7243 29.5807 50.5306 26.8839 42.5199C26.6685 40.5711 29.3745 38.3138 30.3621 36.6201C32.5426 33.5833 34.5799 30.4435 36.5251 27.25C36.464 26.9344 36.5933 26.5883 36.9246 26.5972L37.1172 26.2732C38.6027 23.7804 38.7681 23.6837 37.2933 26.7332C38.0416 37.9826 37.9171 49.4491 38.2408 60.7699C39.1159 61.9387 40.0168 63.0886 40.9386 64.2202C43.9294 62.1405 47.4472 60.7832 51.06 60.3632L51.2454 60.3446C52.7746 60.1868 55.3606 59.8575 55.564 61.8902C55.2913 64.3785 50.258 62.9658 48.6304 64.3775C51.285 65.4567 54.3274 65.762 56.7646 67.3903C57.5465 67.8494 59.079 69.3183 57.5818 69.8793C56.9284 69.9363 56.2537 69.6782 55.6009 69.6231C56.3355 69.8724 57.0113 70.2966 57.4416 70.96C57.7514 71.4151 57.9775 72.3591 57.2373 72.5545C55.5496 72.6006 53.8692 72.0486 52.2072 71.7701L52.3549 71.8307C53.567 72.3324 55.4497 73.2304 53.818 74.5579C52.1841 75.4107 50.2065 73.9591 48.5792 73.571C44.1941 72.5435 40.9547 75.363 36.4603 72.309C36.3341 73.654 35.9308 75.0381 36.0547 76.3849C37.1358 77.4049 40.5002 77.3711 42.0053 77.5058L42.0036 77.454C41.9817 76.6271 42.1999 76.7116 42.2412 77.5157C46.0513 77.6335 49.8702 77.5619 53.6726 77.2861C55.3044 77.1646 56.9335 77.0006 58.5561 76.7878L58.8602 76.7473C59.694 76.6349 60.5653 76.5603 61.3839 76.3596C62.2215 76.2464 62.2226 75.344 62.1338 74.6816C60.9842 50.187 51.1273 27.1549 48.3673 2.94675ZM63.8602 4.96987C64.0539 5.26019 64.2687 5.53759 64.5009 5.79979C64.8583 5.24179 65.728 4.92564 65.9755 5.75875C66.2542 6.61511 66.6525 7.49466 66.6643 8.40203C72.3614 27.1616 72.5062 47.1097 72.3953 66.5686C72.5659 69.6554 71.618 72.6761 71.7057 75.7464C74.8265 76.1993 77.9925 76.2381 81.1259 75.903C81.2187 75.6575 81.3234 75.415 81.4422 75.1778C86.1325 69.4027 83.646 62.1635 81.3867 55.9073C80.021 55.9644 78.6471 55.8786 77.2801 55.8944C77.7022 57.2149 77.8115 58.6118 78.0362 59.9771C78.1893 60.95 78.3845 61.9155 78.6089 62.8741L78.6693 63.1297C78.7539 63.483 78.8661 63.8645 78.7433 64.215C78.6226 64.5607 78.2065 64.7005 77.9305 64.4315C77.4333 63.8588 77.4867 63.0054 77.326 62.2944L77.2964 62.071C77.0226 60.0328 76.6621 57.9151 77.1625 55.8944C76.6711 55.7866 75.3287 56.1792 75.2582 55.5121C75.279 54.4111 74.4878 52.0237 75.3684 51.298C75.8923 50.8944 76.7931 51.0221 77.4074 50.9971C78.1176 50.9681 78.8269 50.9415 79.5362 50.9461C73.8356 37.0325 75.421 32.7482 75.9995 18.9007L76.0168 18.4781C76.0152 18.3877 76.1607 18.3649 76.1766 18.4568C77.0482 24.1289 75.8863 29.8722 76.4367 35.5614C77.4144 46.3733 84.1964 55.655 85.3306 66.4143C87.7766 66.1287 90.2501 66.4789 92.6206 67.0999C92.6704 66.6629 92.7088 66.2243 92.736 65.7851C93.1857 57.7552 90.3963 49.9543 87.1407 42.7524C85.1898 38.9276 83.984 34.8484 83.4794 30.5811C82.4991 25.0243 80.3002 19.7889 78.1083 14.6275C76.7231 10.7666 73.7274 9.85667 70.0127 9.40827C71.2655 11.5059 72.5108 13.608 73.7539 15.7117C74.0314 16.3475 73.1813 16.8028 72.8101 17.1937C77.3732 19.7087 74.7088 27.4684 74.8031 31.8191C74.4644 35.8142 74.3366 39.8355 73.7395 43.8036C73.6958 44.078 73.2782 43.9981 73.2743 43.7397C73.3294 37.7933 74.0314 31.87 74.3395 25.9336L74.3769 25.5008C74.6172 22.69 74.8518 18.6352 71.506 17.8633C71.0545 17.7895 71.0198 17.1116 71.3823 16.908C71.8648 16.6366 72.2876 16.3045 72.666 15.9108C70.757 12.8136 69.0921 9.55289 67.0834 6.52422L66.9995 6.4163C65.6587 4.70175 65.752 5.32149 63.8602 4.96987ZM54.639 61.7394C54.268 60.6416 50.6883 61.3575 49.731 61.4759C46.2047 62.1492 42.6558 63.7255 39.97 66.153C39.8042 66.3026 39.6082 66.3003 39.4536 66.219C38.2497 67.771 36.8617 69.1776 35.3379 70.4142C35.6168 70.6354 35.9032 70.8512 36.198 71.0564C36.339 71.0716 36.4663 71.1453 36.5237 71.2783C40.7154 74.3451 43.7999 71.9527 48.154 72.5058C49.78 72.8363 51.2774 73.881 52.9527 73.9247C54.1822 73.6423 53.0995 73.1232 52.5253 72.9222C50.8782 72.128 49.1905 71.4235 47.508 70.7099C46.9857 70.4887 47.1651 69.6915 47.7484 69.8305C48.7699 70.0737 49.7943 70.3055 50.8194 70.5321C52.7908 70.9395 54.8093 71.4602 56.8017 71.6569C56.3592 70.4145 51.6593 69.0703 50.294 68.5775C49.7775 68.3298 48.3061 68.3786 48.4744 67.5695C48.6102 66.8188 50.1768 67.6787 50.6981 67.7405C52.8294 68.2854 55.0044 68.6182 57.1762 68.9497C54.8434 66.5869 51.2281 66.3817 48.2491 65.2759L48.1505 65.2529C47.6285 65.1277 46.9308 64.8963 47.3291 64.3079L47.3423 64.2888C48.8746 62.0083 54.8943 63.1644 54.639 61.7394ZM50.2315 49.0491C51.3172 48.1461 51.9003 49.9988 51.831 50.8579C51.8824 51.5708 51.9373 52.2845 51.9834 52.9981C51.9159 53.5568 52.5049 55.5903 51.7172 55.6087C48.2751 55.4337 44.8388 55.4756 41.3955 55.2682C41.3909 55.9689 41.357 56.6697 41.3925 57.3727C41.3738 58.2501 41.6758 59.1286 41.4995 59.9954C41.3917 60.3951 40.8542 60.4483 40.6445 60.1079C40.0153 58.6136 40.4482 56.6859 40.8934 55.174C38.2925 54.5064 39.5459 52.3913 39.5464 50.5432C39.5426 50.4947 39.5908 50.4696 39.6301 50.4787C40.2748 51.3882 39.4352 52.6018 39.8034 53.5909C40.184 54.6721 41.7999 54.5727 42.7128 54.5905L42.7402 54.5911C45.5832 54.6408 48.4243 54.7591 51.2673 54.8145C51.1458 53.8478 51.1127 52.8575 51.0396 51.8908C50.9475 51.197 51.0806 50.3735 50.7305 49.7513C49.1496 50.2694 47.5039 50.4769 45.8421 50.4438C43.8612 50.4978 41.7779 50.6784 39.8419 50.4391C42.6184 50.0066 45.6856 50.0693 48.5151 49.5203C49.0774 49.3732 49.6513 49.0756 50.2315 49.0491ZM36.5652 28.1795C34.8522 31.4795 32.8834 34.6213 30.7858 37.6795C30.3365 38.3331 29.8752 38.9776 29.4064 39.6175L29.3197 39.7296C28.383 40.9311 27.4101 41.9279 28.2952 43.5224C30.615 49.211 33.7193 54.5538 37.3166 59.512L37.255 56.6634C37.0511 47.168 36.858 37.672 36.5652 28.1795ZM79.5995 51.1133C75.3 52.0247 75.2177 50.3185 75.936 55.1435C77.6609 55.1554 79.3848 55.1162 81.1101 55.1443C80.6171 53.7969 80.1061 52.4554 79.5995 51.1133ZM66.6899 9.84983C65.72 11.5332 64.1089 12.6142 62.1687 12.6299C58.7645 12.8272 55.3149 12.601 51.9976 11.7863C51.5099 11.6624 50.9273 11.556 50.478 11.2871C53.0359 25.2883 57.1765 38.9289 60.0891 52.8499L60.1846 53.309L60.2638 53.293C62.2465 52.9379 64.4034 53.0855 66.4419 52.9593C68.0774 52.9354 69.7295 53.1123 71.3537 52.8666L71.3031 51.1363C70.8934 37.2864 70.3219 23.2706 66.6899 9.84983ZM65.2675 5.84759C65.0875 5.84508 64.8118 5.95331 64.6284 5.94039C65.0022 6.34402 65.4161 6.70806 65.8517 7.02491C65.6523 6.64802 65.4968 6.1959 65.2675 5.84759Z" fill="black"/>
</g>
<defs>
<clipPath id="clip0_43_36">
<rect width="124" height="190" fill="white"/>
</clipPath>
</defs>
</svg>
