<svg width="125" height="189" viewBox="0 0 125 189" fill="none" xmlns="http://www.w3.org/2000/svg">
<g clip-path="url(#clip0_43_92)">
<path fill-rule="evenodd" clip-rule="evenodd" d="M26.9732 68.3358C26.986 69.2045 27.0735 71.1995 27.2926 72.0405C24.8519 68.1471 21.1948 63.8918 20.6386 59.1232C20.812 59.076 21.581 59.0054 21.7153 58.9051C22.978 59.4889 22.7391 57.6921 22.9258 56.8611C23.4297 55.1016 24.4886 53.3709 24.9486 51.5998C26.1579 51.0793 23.7294 50.8588 23.3766 50.8485C24.8435 49.2231 25.5182 46.9887 26.5626 45.0927C28.0972 41.8703 29.4716 38.5762 30.6989 35.2305C30.9671 37.3269 31.0152 39.446 30.8518 41.5539C30.3471 50.583 26.939 59.2647 26.9732 68.3358ZM111.681 52.2969C110.921 52.4239 109.656 52.5442 108.898 52.6059C109.893 52.0158 112.832 50.8916 110.98 49.8812C110.409 49.6736 109.796 49.9697 109.22 50.0613C106.828 50.4531 103.874 50.4325 101.454 50.235C102.336 49.5144 103.497 48.4766 104.358 47.7308C104.816 47.3345 105.26 47.1843 104.745 46.5926C103.838 45.7518 102.215 46.371 101.166 46.7405C98.273 48.3538 95.006 50.1038 91.9006 51.345C91.8681 50.912 91.8882 50.3522 91.4687 50.0613C90.2382 49.4842 89.3322 49.6529 88.0229 49.4992C86.4969 49.2716 85.1404 49.0127 83.6291 48.611C82.6406 47.8607 82.0379 45.6481 80.4573 45.8954C81.8572 42.3892 79.7235 38.7313 78.922 35.3741C77.9217 31.9383 77.3962 28.3701 77.3819 24.7977C77.3721 19.0782 74.0434 14.6897 69.2336 11.7548C67.3375 10.4805 66.0643 7.38075 63.7168 6.75989C63.4182 5.61978 63.4001 5.11898 63.1379 3.97019C63.0063 3.6402 62.9085 1.84962 62.5775 1.91056C62.2125 0.136902 60.3523 -0.574431 58.7427 -0.945906C56.6499 -1.37757 53.7292 -1.90046 51.8479 -0.682422C51.3029 -0.231159 51.0636 0.524483 51.0236 1.19952C50.8146 2.09841 50.3797 3.0296 49.8729 3.80951C49.0079 3.51864 49.4974 2.97659 48.6419 2.85039C40.8302 1.69803 32.1591 7.40173 27.0906 12.9659C17.9033 22.3555 10.5639 35.1738 11.7653 48.5562C11.4422 48.5087 10.01 48.2852 10.0305 48.7356C10.1009 50.694 10.4629 52.3274 10.5628 54.2843C10.4635 56.8767 13.1696 57.189 15.1244 57.8283C15.0041 65.3496 17.7495 72.8727 22.0466 79.0553C23.0906 80.2719 24.657 84.4935 26.5626 82.8118C26.7871 82.5504 25.0456 80.7396 24.7358 80.2922C23.6779 78.9667 20.8756 72.4037 22.8561 71.0929C23.2964 72.5096 27.5598 79.3219 28.3197 75.4553C29.3291 76.0384 30.9971 76.4363 32.2037 76.376C34.4721 77.599 36.6794 78.9198 38.8578 80.2922C39.8725 82.2756 41.3609 84.1806 42.6078 86.0849C33.9783 105.924 25.5552 138.577 14.45 157.263C13.4817 158.483 18.8084 160.557 19.7492 161.005C17.95 163.912 17.7247 167.282 16.3559 170.413C16.0952 170.371 15.8322 170.426 15.597 170.551C13.9085 171.689 13.2713 175.764 13.175 177.773C13.253 178.669 12.9193 180.024 13.6477 180.684C13.5459 180.794 13.4699 180.927 13.4158 181.064C12.9031 181.461 12.9663 182.339 13.2403 182.883C14.2045 184.875 21.2519 184.69 23.5389 185.116C31.64 185.799 38.4393 185.907 46.5393 185.16C47.5335 184.953 46.7816 183.409 46.2907 182.99C46.5175 182.853 46.6625 182.602 46.5632 182.28C44.7218 177.039 38.0664 177.394 34.0392 174.595C35.0982 173.985 34.4147 174.18 33.7494 174.417C33.0433 173.975 32.3564 173.478 31.7202 172.929C32.2089 172.629 31.9678 172.43 31.4392 172.682C30.6059 172.017 29.957 170.989 28.8955 170.666C27.8559 170.413 27.8559 169.97 27.8559 169.691C28.4746 167.215 29.1505 164.676 29.4978 162.165C29.8683 162.709 33.0653 158.351 33.7494 157.263C36.4073 153.073 36.4001 148.944 38.2602 144.388C42.0797 134.466 49.9037 113.67 54.6752 104.181C65.8392 122.287 60.4016 146.776 67.2886 166.083C67.5947 166.663 68.1702 168.839 68.9674 168.211C69.2772 168.284 69.6066 168.322 69.9017 168.364C69.8165 170.475 69.6576 172.58 69.3052 174.668C68.977 174.755 68.6981 174.926 68.5536 175.226C68.0009 174.822 66.9425 180.782 66.852 181.389C66.8506 182.172 66.1723 183.916 66.7918 184.381C65.8993 184.745 65.7534 186.088 66.3811 186.779C68.245 189.272 77.3305 188.587 80.6823 189.005C84.9209 188.9 102.653 190.48 103.884 186.478C104.129 185.564 103.709 184.411 102.856 184.06C103.197 183.266 102.379 182.5 101.879 181.943C98.929 178.889 94.3928 178.408 90.465 177.079C90.6115 176.93 85.3379 174.24 84.1946 173.575C84.2701 172.672 82.3846 173.578 82.3794 173.575C81.4804 171.994 80.8436 169.534 80.2408 167.828C81.3533 167.485 84.0336 167.18 84.5303 166.083C86.1269 165.55 84.5254 163.246 84.1946 162.165C74.8358 138.859 83.7148 109.462 69.9017 87.4647C72.4337 86.0215 75.3385 82.8629 72.8374 80.2132C72.3369 79.5763 71.1125 77.5932 71.1327 77.9394C70.6676 76.0512 69.6289 72.7988 69.3052 70.8895C68.117 63.8796 68.8958 57.3145 69.9017 50.235C71.2982 55.5621 76.1113 60.0002 81.0077 62.4341C82.9186 63.2188 85.442 64.8386 87.5399 64.3276C89.4334 63.7701 92.8721 59.9014 93.2774 58.0433C98.7971 58.6965 104.528 58.1722 109.803 56.4453C110.48 56.1903 111.282 56.2119 111.072 55.2554C110.864 54.4437 109.375 54.6507 108.734 54.8015C109.713 54.2616 112.253 54.1202 112.235 52.7086C112.201 52.4144 111.983 52.2464 111.681 52.2969Z" fill="white"/>
<path fill-rule="evenodd" clip-rule="evenodd" d="M51.0426 -0.000488281C51.1266 0.0333805 51.1839 0.160464 51.2179 0.35143C51.3113 0.38046 51.3914 0.449181 51.4155 0.552677C51.4863 0.857054 51.4036 1.1744 51.3397 1.47778L51.3324 1.51272C51.272 1.80643 51.1982 2.09832 51.1079 2.38454L51.0947 2.45703C50.875 3.63999 50.4514 4.76476 49.954 4.57369L50.0689 4.782C52.0208 8.30795 57.5963 17.7752 61.9495 16.4258C64.4844 15.4145 64.4482 12.1271 64.2628 9.83923C62.3806 10.9883 62.0285 2.19184 62.4144 1.21977C62.7216 0.994861 62.8698 3.01837 62.984 3.29733C63.2334 4.40729 63.5393 5.50296 63.8264 6.6037C64.4334 6.7233 65.0074 6.96409 65.5149 7.3092C65.5391 7.32303 65.564 7.33558 65.5877 7.34995C65.8923 7.53441 66.1299 7.76968 66.3417 8.03027C66.5812 8.29691 66.7859 8.58881 66.9793 8.88886C67.4044 9.3696 67.8097 9.86818 68.2284 10.3541C68.4271 10.5846 68.6305 10.8082 68.8385 11.0261L68.9989 11.1602C69.0257 11.1825 69.0525 11.2046 69.0795 11.2266C73.8888 14.2153 77.2182 18.6872 77.2275 24.5118C77.2417 28.1507 77.7672 31.7851 78.7676 35.2848C79.569 38.7043 82.1585 42.1994 80.7587 45.7705C82.3393 45.5186 82.4861 47.5413 83.4745 48.3056L83.7851 48.3893C85.1737 48.7613 86.4473 49.0715 87.8681 49.2874C89.1775 49.4439 90.6913 49.272 91.9217 49.8599C92.3411 50.1562 92.191 50.6907 92.2237 51.1318C95.3289 49.8674 98.1179 48.1206 101.011 46.4774L101.108 46.4429C102.179 46.0645 104.09 45.4959 104.969 46.3267C105.484 46.9294 104.965 47.4675 104.507 47.8711C103.646 48.6306 102.733 49.3274 101.851 50.0614C104.228 50.259 106.612 50.1014 108.962 49.7176L109.091 49.6965C109.666 49.6032 110.346 49.38 110.917 49.5914C112.769 50.6206 110.626 51.8219 109.631 52.423C110.389 52.3601 111.146 52.2664 111.905 52.137C112.207 52.0856 112.425 52.2567 112.459 52.5564C112.478 53.9942 110.575 54.0717 109.597 54.6216L109.675 54.6032C110.315 54.4557 111.234 54.3262 111.435 55.1198C111.644 56.0942 110.325 56.4878 109.648 56.7474C104.373 58.5065 98.6419 59.0405 93.1225 58.3752C92.7173 60.2678 89.2785 64.2084 87.3851 64.7763C85.2872 65.2969 82.764 63.6469 80.8531 62.8476C75.9569 60.3685 71.4203 56.279 70.0239 50.8531C68.8505 59.2661 69.3248 67.7478 71.0864 76.0254C71.3716 76.6708 71.6725 77.3061 72.011 77.9252C72.1133 77.9415 72.1998 78.0096 72.2198 78.1473C72.2302 78.2227 72.2455 78.296 72.2628 78.3684C72.5998 78.9384 72.9693 79.4861 73.3123 80.0529C73.3832 80.1699 73.4532 80.2915 73.5172 80.416C75.8006 83.0968 73.0175 86.5512 70.5283 87.9963C84.341 110.402 75.4197 138.638 84.7781 162.377L84.7989 162.445C85.1542 163.574 86.236 165.898 84.6714 166.43C84.1746 167.546 81.6714 167.678 80.5591 168.028C81.1618 169.765 81.8319 171.484 82.7309 173.095L82.7471 173.102C83.1052 172.84 83.8729 172.569 84.1903 172.855C84.2675 172.864 84.3444 172.886 84.4195 172.923C84.9106 173.166 85.3056 173.63 85.7754 173.923C86.0294 174.081 86.2935 174.225 86.5654 174.35C86.8185 174.467 87.0875 174.544 87.2941 174.736C87.3594 174.797 87.3758 174.874 87.3597 174.945C87.5228 175.03 87.6857 175.114 87.8481 175.199L87.9363 175.144C89.3717 174.254 90.526 173.771 88.4379 175.482C89.1861 175.826 89.9534 176.127 90.7256 176.409C91.3122 176.128 91.9381 175.924 92.5836 175.896C92.6996 176.038 91.8125 176.59 91.6661 176.742C95.5937 178.096 99.9137 179.157 102.864 182.267L102.896 182.304C103.399 182.868 104.174 183.632 103.84 184.423C104.693 184.781 105.113 185.956 104.868 186.886C103.637 190.963 84.7662 189.354 80.5278 189.46C77.1761 189.035 68.091 189.733 66.2271 187.193C65.5995 186.489 65.7452 185.121 66.6378 184.751C66.0183 184.277 66.6965 182.5 66.698 181.703L66.7123 181.61C66.8072 181.015 67.2184 178.684 67.6453 177.055C67.654 176.927 67.6711 176.796 67.6918 176.663L67.7052 176.579C67.7901 176.06 67.9203 175.532 68.2572 175.114C68.4992 174.815 68.8344 174.629 69.1982 174.563C69.2957 173.942 69.3757 173.321 69.4444 172.698C69.4928 171.966 69.5112 171.233 69.5029 170.499C69.4986 170.129 69.4888 169.758 69.4706 169.388C69.4572 169.116 69.4729 168.792 69.4034 168.514C69.3571 168.561 69.2913 168.587 69.2175 168.561C69.0607 168.508 68.9164 168.409 68.7725 168.329C68.7671 168.326 68.7628 168.322 68.7581 168.319C67.9896 168.816 67.4334 166.69 67.1345 166.113C60.2478 146.446 65.6853 123.813 54.5215 105.37C52.9803 108.663 51.6559 111.684 50.1725 115C45.5397 125.355 39.8204 143.595 35.985 154.559C34.9414 156.801 33.7148 158.967 32.2568 160.968C31.7907 161.495 31.4779 162.269 30.8031 162.552L30.7441 162.56C30.564 162.895 30.314 163.178 29.9423 163.168C29.8511 163.166 29.7581 163.156 29.6641 163.14C29.3347 165.421 28.9204 167.717 28.3696 169.962L28.4439 169.931C28.8044 169.783 29.1835 169.657 29.5535 169.69C30.4514 169.916 30.1189 170.697 29.4092 170.955C30.2926 171.229 30.8904 171.999 31.5464 172.641C32.1008 172.343 32.7223 172.189 33.3863 172.254C33.488 172.264 33.5655 172.308 33.6194 172.369C33.6574 172.369 33.6945 172.371 33.7296 172.377L33.6573 172.42C33.7752 172.618 33.691 172.918 33.3863 172.92C33.1471 172.921 32.9168 172.943 32.6941 172.984C32.5394 173.074 32.3856 173.165 32.2338 173.26C32.7457 173.71 33.2908 174.125 33.8521 174.505C34.1485 174.354 34.4619 174.227 34.788 174.126C35.2089 173.995 35.3926 174.661 34.9698 174.782C34.8801 174.808 34.7912 174.836 34.7029 174.867L34.6162 174.919C34.5959 174.931 34.5748 174.944 34.5527 174.957C38.5799 177.808 45.3869 177.446 47.2283 182.785C47.2893 182.987 47.2579 183.16 47.1723 183.297C47.5714 183.662 47.7555 184.317 47.6656 184.82L47.6733 184.862C47.7417 185.269 47.6432 185.626 47.2043 185.719C44.2757 185.99 41.3542 186.163 38.4128 186.216L38.1754 186.218C33.9612 186.246 13.4634 186.094 12.5388 183.399C12.2922 182.9 12.2162 182.126 12.577 181.682C12.6188 181.442 12.7013 181.224 12.8479 181.054C12.2542 180.457 12.5462 178.952 12.4736 178.194C12.6039 175.663 13.1195 172.95 14.673 170.879C14.6984 170.846 14.7291 170.826 14.7608 170.816C15.0321 170.545 15.3885 170.373 15.7961 170.35C15.8088 170.318 15.8217 170.287 15.8341 170.255C16.151 169.511 16.452 168.754 16.751 167.993C16.9729 167.128 17.2043 166.265 17.4362 165.407C17.6679 164.55 17.8945 163.691 18.1163 162.831C18.2929 162.146 18.4448 161.374 18.7504 160.719C18.7421 160.691 18.7341 160.663 18.725 160.635L18.407 160.507C16.3239 159.664 13.0232 158.242 13.7484 157.303C21.4763 141.314 29.0408 118.552 36.1326 101.977C36.2434 101.652 36.3606 101.329 36.4892 101.008C36.8024 100.229 37.1197 99.4511 37.4414 98.6751L37.635 98.2098L40.7246 90.808C41.048 90.0333 41.4126 89.2626 41.6675 88.4621C41.9131 87.6911 41.979 86.9239 41.5125 86.2221C41.095 85.5942 40.5067 85.0745 40.036 84.4847C39.6801 84.0387 39.3331 83.5622 39.0222 83.0616C38.7398 82.6909 38.5038 82.2666 38.2932 81.9247C37.9558 81.3768 37.5267 80.7701 37.2818 80.137C36.9659 79.9387 36.6494 79.7414 36.3318 79.5462C35.7832 79.24 35.2435 78.9195 34.7181 78.5727C34.0546 78.1798 33.3868 77.794 32.7138 77.4166C32.4708 77.2966 32.2277 77.177 31.9843 77.0578C31.2552 77.1207 29.2407 76.2258 28.5545 75.6203C28.4761 75.6046 28.398 75.5868 28.3204 75.5675C28.2894 75.9541 28.1625 76.3043 27.8669 76.564C25.9005 77.5355 23.3943 73.1355 22.7036 71.6673C21.3309 73.0025 24.6062 79.607 25.6641 80.9571L25.7206 81.0408C26.0036 81.463 26.3002 81.937 26.7016 82.249L26.7421 82.2796C27.0173 82.4823 27.0683 82.7989 26.8438 83.0652C24.9383 84.7781 22.938 81.0169 21.8941 79.7777C17.5973 73.4802 14.8518 65.8172 14.9721 58.1562C13.0174 57.505 10.3113 57.1869 10.4106 54.5463C10.3107 52.5532 9.94871 50.5813 9.87814 48.5866C9.85798 48.1278 11.29 48.3554 11.6132 48.4038C11.1372 43.8206 11.8565 39.1674 13.1394 34.7626C16.5075 23.4917 30.377 3.17751 44.0283 2.44411C44.0163 2.42196 44.022 2.3921 44.0526 2.38416C44.6704 2.22442 45.3533 2.24997 45.9882 2.27008C46.6491 2.29095 47.3208 2.29548 47.9782 2.3698C48.6595 2.44676 49.3809 2.69609 49.8386 3.18945L49.9971 2.90465C50.1812 2.57217 50.3585 2.23631 50.4924 1.8694C50.5603 1.68403 50.6134 1.49186 50.6619 1.29764C50.7166 1.02064 50.7304 0.732303 50.8621 0.480706C50.8656 0.474129 50.8699 0.468685 50.8737 0.462562C50.9211 0.304029 50.9752 0.148746 51.0426 -0.000488281ZM67.7973 184.741C67.6021 184.938 67.2639 185.024 66.9644 184.93C65.9688 187.746 71.3698 187.569 73.1033 187.728C74.9517 187.924 108.622 189.667 102.927 185.539C96.247 188.073 73.9033 188.353 67.7973 184.741ZM84.1945 173.575C83.745 174.037 83.0672 174.242 82.5851 174.682C81.2221 175.83 80.1257 177.445 78.2419 177.749C75.7672 178.209 73.5362 176.993 71.3225 176.03C71.0469 176.017 70.7593 175.901 70.4768 175.815C70.4668 175.835 70.4568 175.856 70.4454 175.875C70.4317 175.869 70.417 175.865 70.4006 175.862C70.376 175.858 70.3527 175.856 70.3286 175.852C70.2717 175.807 70.2119 175.769 70.1499 175.737C70.1124 175.731 70.0752 175.726 70.0381 175.724C69.5819 175.696 69.0867 175.802 68.7939 176.178C68.7688 176.211 68.7461 176.244 68.7242 176.279C68.5823 176.779 68.5641 177.385 68.6326 177.808C68.6548 177.947 68.5969 178.083 68.4989 178.161C68.4114 180.256 68.1745 182.36 68.009 184.427C68.837 184.723 69.6961 184.949 70.556 185.092C76.4897 185.818 82.4867 186.155 88.466 185.973C92.0254 185.845 95.5798 185.528 99.1023 185.002C100.241 184.895 101.406 184.456 102.544 184.633C102.593 184.542 102.668 184.464 102.773 184.411C99.8568 180.435 94.8713 179.36 90.5251 177.617C89.8072 178.074 89.3653 179.025 88.5657 179.308C88.2553 179.355 87.8237 179.173 87.8692 178.781C87.9983 177.978 88.8691 177.612 89.4555 177.146C88.8262 176.854 88.209 176.536 87.6068 176.182C87.0154 176.713 86.3153 177.117 85.7615 177.683C86.0764 178.448 84.764 178.382 84.7493 177.567C84.8401 176.667 86.2738 176.285 86.9141 175.76C85.914 175.154 85.0207 174.39 84.1945 173.575ZM13.727 181.448C13.6921 181.516 13.6352 181.578 13.5509 181.627C13.405 181.711 13.4751 182.155 13.4825 182.305L13.4829 182.316C13.4909 182.585 13.5078 182.853 13.5312 183.12C13.7774 183.341 14.0922 183.509 14.4419 183.61C25.0943 185.303 35.9511 185.44 46.7062 184.826C46.6568 184.541 46.4477 184.307 46.2627 184.069C39.4635 184.645 32.5007 184.043 25.69 183.482C21.7084 182.961 17.5367 182.745 13.727 181.448ZM29.2356 171.035C27.4799 171.637 25.8464 172.471 24.2903 173.471C23.712 173.846 23.1601 174.275 22.4954 174.49C20.1937 175.179 16.7429 171.867 16.6875 171.83C15.8882 171.294 15.0407 171.794 14.6058 172.536C14.5656 172.605 13.8989 176.402 13.9191 178.262C13.7995 178.894 14.1186 179.928 13.9488 180.618C14.0823 180.778 14.2726 180.853 14.4008 181.02C14.4473 181.081 14.4341 181.149 14.394 181.201C20.6095 181.71 26.7888 182.676 33.0339 182.88C37.3081 183.105 41.5904 183.053 45.8652 183.002C44.8926 180.159 41.5799 179.409 39.0495 178.473C37.1376 177.789 35.3774 176.77 33.8287 175.461C33.157 175.93 32.6274 176.588 32.1515 177.249C31.9353 177.517 31.4913 177.72 31.2598 177.348C31.0214 176.962 31.4869 176.474 32.0616 176.046C32.3639 175.601 32.7451 175.221 33.1841 174.908C32.6988 174.478 32.2315 174.029 31.7937 173.552C30.8859 174.164 30.2189 175.045 29.5659 175.9C29.2521 176.241 28.6651 175.79 28.9226 175.406C29.1289 175.141 29.3611 174.897 29.6097 174.668C29.9845 173.964 30.5241 173.314 31.1787 172.864L31.1288 172.801C30.582 172.103 30.1092 171.265 29.2356 171.035ZM13.7672 181.001C13.7521 181.02 13.7363 181.038 13.7195 181.055C13.7345 181.085 13.7461 181.117 13.7546 181.15L13.9141 181.163C13.8587 181.117 13.8099 181.061 13.7672 181.001ZM79.9752 168.143C76.7187 168.755 73.3546 168.99 70.0677 168.485C70.4484 170.598 70.6868 172.724 70.5619 174.87C75.4764 176.283 77.5184 178.637 81.6074 173.931C81.4098 173.632 81.2958 173.264 81.1631 172.91C80.5981 171.371 80.1311 169.779 79.9752 168.143ZM20.1628 161.212C20.1164 161.315 20.0327 161.399 19.912 161.436C19.869 161.625 19.8245 161.814 19.7771 162.003C19.6973 162.976 19.3282 163.942 18.9464 164.84C18.9202 164.902 18.8945 164.964 18.8685 165.026C18.6167 165.773 18.3527 166.518 18.0923 167.265C17.8951 168.04 17.7213 168.822 17.5397 169.601C17.5046 170.129 17.4293 170.653 17.3134 171.171C17.308 171.195 17.3008 171.218 17.2928 171.239C17.4748 171.32 17.6505 171.413 17.8161 171.508C22.8021 175.236 21.941 172.744 26.7283 170.656C26.7008 170.455 26.8017 170.274 26.884 170.067L26.8946 170.04C26.8996 170.027 26.9046 170.013 26.9096 170C26.9017 169.921 26.9063 169.836 26.9274 169.746C27.4122 167.772 28.0874 165.832 28.7193 163.9C28.8204 163.609 28.9375 163.325 29.0572 163.041C26.0218 163.003 23.0194 162.198 20.1628 161.212ZM38.9872 81.2191C66.5272 115.401 60.4939 119.432 66.4238 158.839C66.9998 161.907 68.1704 164.818 68.945 167.828L69.0519 167.817C69.1579 167.807 69.2585 167.801 69.3334 167.825L69.3363 167.826L69.6417 167.822C73.2047 167.773 76.7832 167.588 80.2633 166.779C81.494 166.564 82.6933 166 83.9249 165.882C83.9299 165.722 84.0057 165.574 84.1089 165.488C74.6102 143.125 81.2283 117.579 72.9873 94.8354C72.2052 92.5595 71.2737 90.3341 70.3103 88.1289C59.7184 94.4322 47.881 87.2939 38.9872 81.2191ZM18.8497 162.171C18.791 162.429 18.727 162.684 18.6687 162.93L18.5828 163.296C18.705 162.926 18.8014 162.55 18.8497 162.171ZM42.6831 87.2724C42.7014 87.8375 42.5644 88.4073 42.3789 88.9388C41.7842 90.6418 41.0225 92.301 40.3406 93.9713C39.8778 95.1046 39.4192 96.2398 38.9557 97.3731C32.0904 115.629 23.6632 140.098 15.3488 157.399C18.4815 159.203 21.9163 160.48 25.4698 161.172C26.295 161.447 28.6546 161.459 29.4898 161.894L29.68 161.708C29.7129 160.93 30.5999 160.374 30.955 159.691C32.5581 157.444 33.8359 154.986 34.9951 152.488L35.1845 151.939C38.2662 143.007 42.2879 130.711 46.525 120.316L46.6562 119.995C48.4121 115.708 49.5663 111.756 51.6855 108.513C51.801 108.338 51.9179 108.164 52.0355 107.989C52.1221 107.816 52.2096 107.643 52.2985 107.47C52.6784 106.733 53.0881 106.011 53.4748 105.277C53.6396 104.965 53.803 104.612 53.8896 104.25C50.5233 98.3643 46.5118 92.8629 42.6831 87.2724ZM47.7249 2.92576C46.6685 3.18159 45.5859 3.28607 44.5233 3.49828C37.2005 4.36745 31.5862 9.53585 26.7501 14.6676C17.5891 24.2444 12.259 36.0281 12.6524 49.3463C15.9239 49.9394 19.1617 50.8077 22.4949 50.9974C22.0105 50.2671 22.8217 49.3536 23.101 48.6544C27.9222 39.3836 31.6448 29.1493 34.6676 19.3889L34.5855 19.815C33.6363 24.7135 32.5307 29.5913 30.8432 34.2968C31.332 33.8185 39.3622 27.462 38.7346 29.5639C36.2812 31.4724 33.5101 32.9848 30.9394 34.7362C33.996 44.8984 29.5771 55.1951 28.7375 65.3615C28.5265 67.622 28.5448 69.8982 28.2613 72.1502C28.1535 72.4048 28.267 72.9228 28.1083 73.1651C28.2258 73.7628 28.4731 74.3074 28.9834 74.774C29.1982 74.9704 29.4327 75.1405 29.6792 75.2923C30.2946 75.3847 30.9128 75.6206 31.414 75.839C32.5293 76.3251 33.5108 77.0418 34.5077 77.7264L34.5343 77.7444C36.1417 78.5664 37.7474 79.5002 39.359 80.474L39.431 80.5115C40.0305 80.8246 40.6434 81.107 41.1657 81.5413C41.1895 81.5611 41.2054 81.5838 41.2158 81.6075L42.1947 82.2092C50.0356 87.0252 58.1201 91.788 67.3131 88.3503C69.8961 87.3149 73.651 85.217 73.1688 81.973C73.0737 81.6619 72.9291 81.3697 72.7656 81.0852C72.7201 81.0241 72.6734 80.964 72.6264 80.9049C72.2701 80.4569 71.8714 80.0457 71.5621 79.5617C71.4363 79.3648 71.3234 79.1621 71.2247 78.9534C71.1549 78.9323 71.0929 78.8835 71.0539 78.7985C70.6114 77.8381 70.178 76.876 69.7743 75.8985C64.8805 58.919 70.8206 40.6753 72.5011 23.5496C72.6176 22.5689 72.7891 21.5782 72.7886 20.5905C72.7886 20.5441 72.8561 20.5456 72.8598 20.5905C73.4525 24.9615 73.0029 29.3732 72.4394 33.7245C71.7179 39.168 70.7699 44.5889 70.1186 50.0422C71.85 55.5391 76.6988 59.5111 81.7902 61.8928C82.6565 62.3024 83.5422 62.6674 84.4453 62.9889L84.5059 63.0098C85.4982 63.3554 86.6182 63.8896 87.5755 63.1894C89.4128 61.9485 90.7098 60.0549 91.9005 58.2314C91.4188 58.1795 90.9365 58.1345 90.4538 58.1014C89.2687 59.4505 87.8166 60.5958 86.2843 61.5317C85.6598 61.8879 84.9504 61.7373 84.6617 61.04C84.3892 60.3821 84.7229 59.6136 84.9644 58.9793L84.9993 58.8867C86.2223 55.6045 88.3457 52.5966 91.2128 50.5412C89.0497 50.1108 86.8029 50.1239 84.7278 49.2732C84.841 49.3916 84.6927 49.5239 84.6207 49.6243C84.6463 49.8188 84.5043 49.961 84.3297 50.0131C82.6365 52.2147 81.3533 54.822 81.0854 57.6142C81.1567 58.5652 80.3016 59.6636 79.4782 58.665C78.8342 55.8854 81.3675 51.5414 83.5951 49.8262C81.3612 48.3003 82.0124 46.0982 80.61 46.0881C80.2476 46.7803 79.7747 47.4431 79.1787 47.9574C78.9093 48.1753 78.5822 48.3397 78.2931 48.533C77.989 48.7365 77.6724 48.2889 77.9132 48.0432L77.9767 47.9672C78.8914 46.8784 79.9776 45.8081 80.1665 44.3351C80.4396 42.521 79.6204 40.6833 78.9924 39.0262C77.7885 35.8494 76.99 32.544 76.6011 29.171C76.1604 26.1488 76.6963 23.014 75.6567 20.0895C75.4501 19.275 75.1529 18.5332 74.7886 17.8448C74.7799 17.8376 74.7714 17.8303 74.7635 17.8213C74.3311 17.3235 73.9856 16.7697 73.5824 16.2483C73.1608 15.7028 72.7037 15.1838 72.2195 14.6926C71.4103 13.8719 70.5169 13.1871 69.5856 12.5277C69.5683 12.5215 69.5509 12.5135 69.5334 12.5032C69.359 12.4006 69.1914 12.276 69.0297 12.1391L69.014 12.1282C68.4724 11.7536 67.9198 11.3471 67.497 10.8385C67.0821 10.3392 66.7869 9.7569 66.4481 9.20691C65.985 8.64475 65.5436 8.04244 64.9852 7.57403C64.6693 7.39455 64.3406 7.22544 64.0587 7.00098C64.0125 6.98178 63.9657 6.96356 63.9179 6.94632C64.0381 7.43379 64.2198 7.88232 64.3836 8.3775C64.6208 8.27786 64.9455 8.38831 64.9854 8.75203L65.0001 8.8878C65.2384 11.1152 65.3589 13.8105 64.0427 15.739C61.1444 19.9211 56.8153 16.3505 54.6258 13.4098C52.661 11.0645 51.0092 8.45567 49.7894 5.65197L49.7692 5.61491C49.542 5.18586 49.0498 3.8775 48.9106 3.2488C48.5589 3.06449 48.1309 2.9752 47.7249 2.92576ZM38.4457 80.8728C38.4369 80.8839 38.4268 80.8934 38.4159 80.9017C38.827 81.4828 39.2186 82.0837 39.6223 82.6667C39.2913 82.1284 38.9802 81.586 38.7048 81.0376C38.6186 80.9822 38.532 80.9277 38.4457 80.8728ZM15.4402 58.3009C17.0112 66.7881 19.2562 75.7176 25.5119 82.0633C23.565 79.3345 22.051 76.1487 21.6105 72.812C21.5923 71.9165 21.92 70.9705 22.9157 70.8379C23.0857 70.8152 23.2148 70.9667 23.2755 71.1014L23.2813 71.1148C23.673 72.0453 24.1824 72.9302 24.7855 73.741L24.8446 73.8178C25.2997 74.4034 27.2315 76.7907 27.501 75.6496C27.3037 69.881 21.3126 67.5027 20.3315 59.558C18.6527 59.3811 17.0597 58.7466 15.4402 58.3009ZM28.3196 75.1359C28.3261 75.2264 28.3292 75.3161 28.3278 75.4044C28.4168 75.3678 28.5083 75.3385 28.6018 75.3157C28.5068 75.2573 28.4129 75.1971 28.3196 75.1359ZM28.2308 74.5143C28.2637 74.6801 28.2915 74.8473 28.3086 75.0129C28.4796 75.067 28.6487 75.1262 28.8169 75.1877C28.715 75.0966 28.6179 75.0001 28.527 74.8973C28.421 74.7775 28.3216 74.6489 28.2308 74.5143ZM30.5461 35.1385C29.3189 38.5464 27.9445 41.9017 26.4099 45.184C25.3795 47.1047 24.692 49.3427 23.2662 51.0095C23.2523 51.0229 23.2383 51.0352 23.224 51.0467L23.2476 51.0476C23.6725 51.0664 25.9811 51.2925 24.7961 51.812C24.3359 53.616 23.7331 55.3789 23.2291 57.171L23.2179 57.223C23.0335 58.0898 22.8003 59.8358 21.5628 59.253C21.4285 59.3552 21.2673 59.4271 21.094 59.4752C21.6502 64.3324 24.7377 67.4944 27.1783 71.4602C26.6328 69.3672 26.7922 67.1816 26.9822 65.0446L27.0293 64.5187C28.0377 54.7205 31.7385 45.0855 30.5461 35.1385ZM40.7952 66.2839C38.8061 63.8166 29.0224 39.3896 35.9364 54.1884C38.3938 59.3403 40.4165 64.8556 44.4705 69.03C44.7509 69.3297 44.3816 69.8563 44.0173 69.6143C42.7087 68.745 41.6496 67.5919 40.7952 66.2839ZM33.7143 36.7602C33.7061 36.7206 33.7571 36.6988 33.7795 36.7328C36.4378 41.9545 38.3358 47.566 41.3394 52.6297C43.1524 55.7651 45.328 58.6878 47.8194 61.3234C48.0065 61.5214 47.7249 61.7949 47.5222 61.6191C40.4103 55.0909 36.9527 45.6011 33.7143 36.7602ZM86.1316 58.2581L86.1273 58.2588L86.0619 58.4271C86.0397 58.4838 86.0171 58.5411 85.9943 58.5988C86.0052 58.594 86.0161 58.5897 86.0271 58.5851C86.0504 58.5618 86.0737 58.5381 86.097 58.5132C86.0918 58.4273 86.1025 58.3412 86.1316 58.2581ZM11.6414 48.6088C11.2803 48.7498 10.8367 48.7764 10.4375 48.8108C10.8844 50.9056 11.2702 53.0164 11.6747 55.1167C11.8617 55.7615 12.3014 55.9878 12.9099 56.1922L13.399 56.3478C15.6821 57.0757 17.9782 57.8234 20.3325 58.2698C20.498 58.1626 20.7331 58.1678 20.8429 58.3396C20.9575 58.3502 21.075 58.3565 21.1912 58.3675C21.8202 56.0563 22.8966 53.8167 24.3369 51.8996C20.311 52.0287 16.256 50.9724 12.4261 49.7913C12.271 49.8662 12.0667 49.8193 12.0013 49.642L11.9423 49.6252C11.2993 49.4354 10.4468 48.9692 11.798 49.206C11.7164 49.0167 11.6711 48.8132 11.6414 48.6088ZM104.214 46.8986C101.545 46.4597 99.5059 48.6109 97.2283 49.5984C95.8647 50.1804 92.2309 51.9854 90.9099 51.385C89.0987 53.1195 87.5695 55.1462 86.5002 57.42C86.7917 57.4027 87.0833 57.3899 87.3749 57.3807C87.9029 57.212 88.4666 57.2034 89.0148 57.3657C94.5065 57.4259 100.002 58.4876 105.472 57.142L105.597 57.1186C106.721 56.9065 110.557 56.0998 110.775 55.3092C110.718 54.9651 109.687 55.3287 109.488 55.3676C107.912 55.6766 106.31 55.8239 104.713 55.9787C104.268 56.0215 104.274 55.3338 104.713 55.2901C106.636 55.0997 108.457 54.3816 110.222 53.6345C110.409 53.5517 110.906 53.3803 111.25 53.158C109.62 53.4337 107.94 53.4816 106.29 53.4231C105.723 53.35 105.683 52.4918 106.29 52.5087C107.404 52.6312 108.468 52.0843 109.377 51.507L109.575 51.3792C111.09 50.3965 110.984 50.3539 109.069 50.7192C106.255 51.2289 103.408 51.21 100.566 51.0155C100.16 51.0087 99.8803 50.4658 100.216 50.1749C101.524 49.0508 102.927 48.0484 104.214 46.8986ZM91.3147 50.9926L91.2838 51.0218C91.2185 51.0842 91.165 51.1393 91.135 51.1687L91.1229 51.1803C91.0827 51.2179 91.0437 51.2568 91.0039 51.2947C91.1783 51.353 91.3708 51.3563 91.5694 51.3257C91.4495 51.2512 91.3605 51.1294 91.3147 50.9926ZM41.1793 42.0028L41.1728 41.9946L41.1878 42.0107C42.9044 43.8588 44.6443 46.856 46.0665 49.2195C46.2539 51.1568 42.0491 43.119 41.1793 42.0028ZM84.3757 49.145C84.3923 49.1655 84.4083 49.1867 84.4239 49.2082L84.4468 49.2409L84.4837 49.2182C84.4973 49.2101 84.5116 49.2051 84.5262 49.2014C84.4759 49.1831 84.4258 49.1638 84.3757 49.145ZM76.5218 42.836C78.0663 43.0772 74.9079 44.9864 74.4911 45.2599C74.2241 45.3609 71.686 47.4457 71.84 46.769C73.0282 45.2512 74.6678 43.4824 76.5218 42.836ZM16.1017 38.835C16.673 37.9196 19.782 39.1246 20.7648 39.269C21.3172 39.4141 21.8636 39.5858 22.422 39.7076C22.8583 39.865 24.8928 39.7125 24.1462 40.5706C23.367 40.9872 22.3499 40.6651 21.552 40.444C19.9645 40.0125 18.3716 39.5092 16.746 39.2698C16.6972 39.2455 16.6943 39.2619 16.737 39.3191C17.0867 40.0922 17.8221 40.8175 18.6504 41.0666C18.7076 41.0832 18.6835 41.1702 18.6256 41.1555L18.57 41.1438C17.6383 40.937 15.6256 39.956 16.1017 38.835Z" fill="black"/>
</g>
<defs>
<clipPath id="clip0_43_92">
<rect width="125" height="189" fill="white"/>
</clipPath>
</defs>
</svg>
