<svg width="125" height="188" viewBox="0 0 125 188" fill="none" xmlns="http://www.w3.org/2000/svg">
<g clip-path="url(#clip0_43_68)">
<path fill-rule="evenodd" clip-rule="evenodd" d="M32.4973 50.7577L31.7493 50.684C31.3812 44.6117 32.4159 38.6458 33.6244 32.7778L34.3763 32.8217C34.6416 36.2035 36.385 39.4067 35.5866 42.8869C34.8232 45.6357 33.2058 48.005 32.4973 50.7577ZM117.826 20.1755L117.388 20.2682C118.204 18.7356 117.443 18.2313 116.52 16.9643L116.419 17.1944L116.064 16.4247C115.994 16.2292 115.922 16.0632 115.727 15.9902C115.536 15.0324 114.97 14.1554 114.216 13.679L114.071 13.8399C113.772 13.5808 113.412 13.4822 113.069 13.3622C113.805 12.2598 114.279 10.8297 114.776 9.64769C115.18 8.40632 115.812 7.20159 115.931 5.9428C115.835 4.73304 114.682 5.51887 114.12 6.12228C112.402 7.61606 110.923 9.98187 109.814 12.855C107.91 12.3638 106.818 12.8821 106.289 15.4615C105.802 17.2137 105.305 19.0111 105.239 20.8278C104.983 20.7408 104.53 20.4137 104.285 20.6702C100.053 25.2609 95.0572 28.7975 90.2254 32.6682C86.5739 30.0048 84.6738 24.7356 82.6656 20.78C79.1622 13.9906 75.6588 4.05108 66.6476 4.08607C65.4533 3.96261 64.287 3.82105 63.1596 3.47718C62.7231 3.35958 62.1834 3.21794 62.0353 2.95502C61.7682 2.10822 61.7176 1.19195 61.2482 0.415356C59.9599 -1.66096 57.1689 -1.82414 54.9818 -1.37333C51.2685 -0.690989 51.362 -1.08931 51.0939 2.78312C51.0135 3.7024 50.2949 3.83405 49.5277 4.02442C48.6568 4.29672 47.7694 4.51924 46.8742 4.6985C46.9672 4.67259 47.06 4.64698 47.153 4.62092C32.62 4.84922 22.9706 21.5644 21.0563 33.3899C18.8329 45.4882 21.7087 58.9525 26.2551 69.1139C26.0599 72.8143 26.792 76.5316 27.2555 80.1789C27.5465 81.0914 28.5538 81.1802 28.8418 80.1232L29.1968 78.732L29.5768 80.1168C29.8178 80.9737 30.205 81.0755 30.5534 81.0813C30.9856 81.0813 31.2226 80.8702 31.2368 79.756L31.9527 79.5854C32.2285 80.1065 32.5024 80.5673 32.9359 80.8877C33.8074 87.1701 34.3546 93.7024 36.4701 99.7814C37.3137 102.037 38.6093 104.086 39.5607 106.299C35.0747 116.339 34.3227 127.464 33.2456 138.213C33.3322 138.22 33.7774 138.259 33.8725 138.267L33.6268 138.914C33.2913 139.055 33.0941 139.351 32.9925 139.679C32.7663 139.661 31.8222 139.668 31.8748 139.882C31.984 141.145 32.3411 142.046 33.0178 142.704C33.0271 142.906 33.0397 143.113 33.0555 143.305C31.7129 147.95 30.7291 152.901 30.1313 158.007C29.3713 158.732 29.1811 161.117 30.3146 161.753C33.4436 163.889 37.6468 164.904 41.6042 164.519C45.8871 164.117 50.9951 162.425 48.9455 157.581C48.919 157.431 48.711 157.424 48.547 157.457C48.184 157.108 47.7903 156.843 47.3646 156.695C46.5186 154.6 45.7577 152.404 45.0941 150.211C44.7707 149.203 44.4364 148.162 44.4639 147.057C44.6239 144.345 44.9055 143.224 46.8065 141.088C47.9834 141.649 50.2261 137.586 50.74 136.733C51.4608 135.051 51.8073 135.541 51.7794 138.201C52.2294 139.76 52.4071 142.363 53.5324 143.523C54.1446 147.561 49.9558 149.411 52.6549 153.889C51.7414 153.951 51.6562 154.313 51.6722 155.413C51.6691 156.203 51.6484 157.032 51.7986 157.77C51.9808 158.677 52.8251 158.92 54.0924 159.188C55.1194 159.413 56.1084 159.67 57.1276 159.913C58.1584 160.253 59.2444 160.225 59.6682 159.192C64.7726 160.907 79.4874 160.711 84.3543 158.438C85.6982 157.904 86.6462 157.603 85.4119 156.101C84.7324 151.815 72.4642 156.646 70.8973 151.945C70.6737 151.335 67.7227 147.512 66.9225 147.057C67.2493 146.591 66.9095 142.84 66.9225 142.704C67.131 140.521 70.8817 130.637 71.2984 126.275C71.7269 118.863 71.325 112.615 73.603 105.082C76.7872 93.1557 82.9732 81.9634 83.0567 69.3426C82.9504 67.2504 83.5354 65.0227 83.005 62.9696L83.6637 62.63C83.7586 62.7383 83.9299 62.7353 83.9641 62.588C84.3963 61.8927 83.9118 61.059 83.8125 60.2977C84.0386 60.0578 83.9257 59.839 83.6528 59.7081C80.7267 49.4683 75.8324 47.9724 77.1796 35.1728C79.378 39.7901 84.2476 44.4643 89.6153 43.7771C95.0226 44.5783 107.636 31.5203 110.073 27.2991C110.519 27.3334 110.525 27.0161 110.593 26.7172C112.818 26.9766 114.9 25.2453 114.942 23.1273C116.894 24.3272 118.981 22.6135 117.946 20.5206C117.906 20.4075 117.864 20.2922 117.826 20.1755Z" fill="white"/>
<path fill-rule="evenodd" clip-rule="evenodd" d="M61.3803 -0.122155C61.3917 -0.166523 61.4541 -0.153739 61.4571 -0.111627C61.5194 0.745728 61.7268 1.65031 62.043 2.49104C62.1562 2.50909 62.2648 2.57226 62.3439 2.69491C62.4502 2.85949 62.9591 2.97449 63.2246 3.05197L63.2625 3.06332C64.3647 3.40044 65.5152 3.53663 66.6584 3.65687C72.0353 3.95143 73.9922 5.62087 77.0254 9.83891C80.626 14.5908 82.6463 20.2304 85.3606 25.4752C86.0285 26.7506 86.7496 27.9959 87.5422 29.1998L87.6557 29.3713C88.3538 30.42 89.1282 31.4756 90.1904 32.183C92.8074 30.0093 95.6059 28.0685 98.1945 25.8611L98.4366 25.6533C100.379 23.99 102.234 22.2273 103.999 20.3804C104.207 20.1623 104.598 20.1051 104.886 20.233C104.999 18.5705 105.473 16.94 105.91 15.3337C106.369 13.2647 107.166 11.8663 109.57 12.3783L109.631 12.226C110.592 9.86556 111.874 7.57163 113.795 5.84635L113.921 5.734C114.338 5.35827 114.886 4.8195 115.473 4.86812C116.006 4.91173 116.279 5.38933 116.301 5.87504C116.325 6.45123 116.071 7.03794 115.89 7.57795L115.874 7.62412C115.64 8.33333 115.388 9.03653 115.121 9.73431C114.864 10.4058 114.589 11.0706 114.301 11.7294C114.008 12.2803 113.792 13.1928 113.257 13.5259C112.981 13.6885 112.697 13.4699 112.668 13.1905C112.626 12.8243 112.839 12.5025 112.995 12.1836C113.139 11.8903 113.281 11.5955 113.418 11.2992C113.971 10.1064 114.467 8.88884 114.893 7.64676L114.906 7.6063C115.051 7.16243 115.533 6.13022 115.358 5.766C115.178 5.76751 114.808 6.14426 114.677 6.25631C112.616 7.94733 111.277 10.2839 109.744 12.4159C110.706 12.6882 111.75 12.8159 112.548 13.4551C114.191 14.8751 112.872 17.6868 110.67 17.1633C111.284 18.4571 111.813 20.5471 110.724 21.7159C110.396 22.0197 109.76 21.9227 109.661 21.4385C109.554 20.9241 109.682 20.4833 109.799 19.9849C110.011 18.9699 110.14 17.9304 109.995 16.8971L109.95 16.8703C109.576 16.6459 109.342 16.394 109.353 15.9301C109.304 15.5946 109.665 15.1427 110.028 15.4172C110.146 15.5059 110.289 15.5127 110.413 15.6022C110.623 15.8001 110.884 15.9558 111.182 15.9533L111.211 15.9525C111.594 15.9496 111.877 15.721 111.994 15.3661C112.314 14.3921 111.204 14.0651 110.482 13.8779L110.296 13.8209C108.325 13.2242 107.611 13.2145 107.116 15.5082L107.057 15.6985C106.544 17.3496 106.073 19.039 105.2 20.5451L105.342 20.8794C106.249 23.0143 107.395 25.4458 109.82 26.0986C109.907 25.3801 110.692 25.3542 111.26 25.3721C111.992 25.333 112.728 24.9646 113.246 24.4352C113.698 23.984 113.926 23.3554 114.426 22.953C114.199 22.4431 114.711 21.8806 115.245 22.1739C115.605 22.3709 115.823 22.6522 116.257 22.7093C116.642 22.7605 116.997 22.6273 117.29 22.3829C118.054 21.7437 117.69 20.8045 117.877 19.9675C117.631 20.3893 117.222 20.7128 116.785 20.9361C113.862 22.5919 113.891 19.3455 115.507 19.8788C117.261 19.4834 117.231 18.8553 116.576 17.3806L116.558 17.3279C116.448 17.0155 116.223 16.4828 116.44 16.1557C116.453 16.1391 116.475 16.1338 116.491 16.1489C116.691 16.3444 116.77 16.6723 116.94 16.9024L117.101 17.0926C117.726 17.8346 118.405 18.7212 117.998 19.7201C118.041 19.7111 118.087 19.7291 118.101 19.7803C118.29 20.4593 118.665 21.1264 118.587 21.8528C118.425 23.4448 116.683 24.3188 115.24 23.6553C114.962 25.7019 112.925 27.1749 110.883 27.0837C110.818 27.3641 110.608 27.6109 110.284 27.6365C107.279 32.405 95.4649 44.6727 89.6714 44.1601C89.1174 44.409 88.4122 44.2841 87.8256 44.209C83.3262 43.6278 79.566 40.3686 77.4685 36.5055C76.6975 49.1593 81.0545 49.0058 83.97 59.4889C84.2618 59.6701 84.432 60.0657 84.2056 60.4003C84.3307 61.0345 84.5869 61.6845 84.4882 62.3352C84.4396 62.521 84.3416 62.6901 84.2527 62.8601C84.0698 63.2069 83.5873 63.1652 83.3613 62.8954C83.7445 64.2682 83.5811 65.7094 83.4829 67.1089C83.4229 67.9309 83.4274 68.7415 83.4267 69.5642C83.3123 82.0881 77.1356 93.3802 73.9602 105.262C73.0619 108.592 72.372 111.986 72.1007 115.426C71.8127 119.086 72.0134 122.767 71.6668 126.422C71.2576 130.743 70.0752 134.939 68.695 139.043C68.7891 139.28 68.6835 139.581 68.4631 139.733C68.388 139.954 68.3127 140.173 68.2375 140.394C68.3598 140.98 68.3902 141.569 68.3651 142.176C68.3443 143.045 68.0687 143.908 68.1835 144.777C68.2726 145.158 68.5841 145.522 68.3864 145.93L68.4764 145.987C69.0004 146.32 69.5011 146.686 69.8454 147.201C69.9206 147.313 69.9776 147.546 70.0635 147.626C70.1531 147.708 70.3203 147.718 70.4305 147.757C70.9885 147.925 71.3395 148.424 71.2915 149.003C72.5981 149.376 72.148 150.69 73.4966 151.604C74.8811 152.598 76.7558 152.707 78.391 152.965L81.1774 153.405L81.346 153.425C83.1807 153.649 85.5582 154.087 85.7817 156.274C86.1247 156.509 86.242 156.988 86.3408 157.367C86.417 157.667 86.4095 157.977 86.1871 158.214C85.925 158.493 85.4588 158.608 85.1144 158.757C84.6641 158.933 84.2723 159.234 83.7843 159.319C83.2009 159.558 82.5569 159.698 82.0255 159.796C76.1696 160.869 70.161 161.128 64.2337 160.563C63.2656 160.471 62.2983 160.358 61.3355 160.221L61.2208 160.204C60.7415 160.133 60.2465 160.037 59.8089 159.834C59.1969 160.854 58.0184 160.725 57.0262 160.436C56.2473 160.245 55.4685 160.057 54.6896 159.869C53.4838 159.547 51.7135 159.481 51.416 157.998C51.2656 157.25 51.2755 156.417 51.2831 155.657L51.2814 155.429C51.2793 154.787 51.3229 153.9 52.0635 153.763C51.0463 151.897 51.2679 149.603 52.2154 147.753L52.2657 147.662C52.9628 146.396 53.3983 145.339 53.1668 143.843C52.7026 143.41 52.4859 142.788 52.3142 142.177C51.8315 140.452 51.4281 138.704 51.1174 136.941C50.4005 138.279 49.5355 139.536 48.5635 140.704C48.1771 141.25 47.8603 141.426 47.2344 141.638C47.1372 141.679 47.0384 141.679 46.9457 141.653C46.3661 142.431 45.6628 143.047 45.3583 143.976C45.0262 145.003 44.8993 146.133 44.8339 147.207C44.7991 148.606 45.3876 149.927 45.7572 151.256C46.3364 153.089 46.9827 154.903 47.7002 156.688C48.1695 156.798 48.8799 156.744 49.0509 157.3C49.161 157.366 49.2514 157.472 49.299 157.626L49.3393 157.757C49.6822 158.883 49.9732 160.184 49.5278 161.313C48.297 164.047 44.3414 164.729 41.6356 165.056C37.6288 165.433 33.4257 164.485 30.09 162.223C29.6189 161.896 29.2975 161.524 29.2192 160.944L29.207 160.835C29.1028 159.874 29.0868 158.742 29.758 158C30.339 153.082 31.2908 148.166 32.6615 143.402C32.6508 143.267 32.6425 143.132 32.6356 142.997C31.8705 142.208 31.571 141.097 31.4852 140.03C31.4979 139.406 32.3017 139.461 32.7519 139.355C33.8897 128.231 34.5433 116.76 39.1364 106.383C38.2207 104.287 36.9831 102.289 36.1617 100.141L36.1037 99.9871C35.7633 99.1049 35.5566 98.2056 35.2869 97.3055C35.1115 96.8743 34.9666 96.4376 34.8963 95.9752C33.8161 91.0793 33.2053 86.0991 32.568 81.133C32.1389 80.7817 31.8555 80.2753 31.6068 79.8094L31.6047 79.9278C31.5861 80.683 31.4616 81.5296 30.5072 81.5074C29.7207 81.4886 29.3765 80.9073 29.2002 80.2644C28.8577 81.6088 27.3356 81.6824 26.8894 80.3584C26.6903 79.8245 26.6987 79.2153 26.6394 78.6551C26.3214 75.5804 25.6578 72.5078 25.8484 69.4115C25.6478 69.3438 25.473 69.1919 25.3879 68.9385C21.5885 57.5358 18.2071 45.3327 20.6736 33.3003C23.1399 21.5116 29.819 8.31468 42.4411 4.97189C44.9965 4.33217 47.5923 4.11506 50.2116 3.94992C50.5896 3.22545 50.834 2.40133 50.8834 1.58112C50.8986 1.34424 50.8872 1.1097 50.8864 0.872741C50.8856 0.653909 50.9799 0.392965 50.9358 0.188496C50.9252 0.138789 50.9935 0.122245 51.0118 0.168117C51.0673 0.311749 51.1805 0.383941 51.2572 0.505013C51.4482 0.847248 51.4986 1.25355 51.549 1.63602C51.7406 3.14619 51.2976 4.7005 50.3644 5.90512L50.3125 5.97328C50.0191 6.35517 49.5114 6.93904 48.9875 6.63306C48.4905 6.34211 48.8294 5.74194 49.1242 5.43888C49.5156 5.03581 49.8439 4.60492 50.1106 4.13492C48.9255 4.44782 47.7496 4.79239 46.568 5.11853L46.4835 5.16436C45.5587 5.65931 44.2129 6.19539 44.3331 7.42048C46.7937 14.7771 57.6793 16.6674 64.4069 14.9111C65.7295 14.5616 67.0662 13.9939 67.9663 12.9351L68.0026 12.892C69.5578 11.0678 69.4385 8.05412 67.4913 6.55636C66.3347 5.61786 64.7367 5.11928 63.2938 4.7945C63.7134 5.48483 64.6416 5.97235 64.8104 6.79023C64.8537 7.07072 64.6972 7.33768 64.3849 7.3437C63.5916 7.35874 63.0065 6.51951 62.5901 5.95551C61.721 4.77562 61.2281 3.34923 61.1227 1.89621C61.0703 1.18933 61.2018 0.552389 61.3803 -0.122155ZM48.5194 159.034C48.5397 159.48 48.3193 159.979 47.7838 159.959C47.3943 160.459 46.8103 160.788 46.2686 161.11C42.6891 163.052 38.1873 163.137 34.397 161.743C33.3736 161.359 32.3864 160.88 31.4753 160.276L31.3901 160.219C30.9311 159.919 30.403 159.61 30.0771 159.175L30.0883 159.531C30.105 160.037 30.1336 160.503 30.2961 160.974C30.3955 161.178 30.5931 161.29 30.7793 161.408C31.1949 161.671 31.6235 161.914 32.0619 162.138C36.6312 164.432 42.5037 164.787 47.0938 162.375C48.4114 161.641 48.969 160.482 48.5194 159.034ZM52.7831 154.166C52.78 154.221 52.7238 154.267 52.666 154.251C52.2078 154.119 52.4829 155.11 52.511 155.27C52.603 155.794 52.6616 156.32 52.7201 156.849L52.7212 156.949C52.7361 158 52.8416 158.008 53.9039 158.211C54.7874 158.436 55.6636 158.693 56.5434 158.935L56.895 159.03C57.2703 159.137 58.9918 159.732 58.9749 159.017L58.9738 158.994C58.9401 158.526 59.5537 158.333 59.8698 158.611L59.8818 158.622C60.4911 159.196 61.3604 159.244 62.1553 159.344L62.195 159.349C63.2116 159.479 64.2329 159.584 65.2549 159.665C70.6319 160.09 76.0635 159.844 81.3757 158.918L81.7212 158.857C82.1847 158.774 82.8505 158.641 83.3852 158.387C83.5897 158.37 84.6272 157.871 84.589 157.655C84.6072 157.623 84.6233 157.591 84.6371 157.559C84.84 157.34 84.8335 156.88 84.5673 156.707C84.1236 156.822 83.6802 156.935 83.235 157.044L83.2345 157.045C82.7847 157.388 82.1701 157.387 81.6273 157.507C81.0407 157.611 80.4533 157.708 79.8652 157.801C76.4958 158.326 73.0976 158.697 69.6896 158.854C63.6608 159.375 57.7617 157.472 52.7831 154.166ZM33.1706 61.208C33.5323 62.0886 33.2732 63.2271 33.0072 64.1362C33.4169 64.3624 33.6982 64.749 34.0483 65.0485C35.2627 66.0202 36.4989 66.9672 37.7154 67.9376L37.7675 67.9784C38.1255 68.2566 38.5218 68.5318 38.6645 68.9821C38.9991 70.4627 37.0267 70.8662 35.916 70.7606C35.7102 70.7523 35.1204 70.6185 34.9791 70.7591C34.8978 70.8403 34.9313 71.2043 34.9244 71.3126C34.8471 72.4882 34.7846 73.665 34.7008 74.8402L34.6683 75.2809C34.6007 76.172 34.5992 77.1782 34.2435 78.0242C34.1668 78.5341 33.9525 79.0492 33.9001 79.5538C33.8522 80.0041 33.7451 80.499 33.4411 80.8352L33.7219 83.0269C34.2508 87.1367 34.8097 91.2457 35.6805 95.2999C35.8758 96.2097 36.1448 97.0889 36.3941 97.9845C37.1122 100.568 38.4609 102.907 39.6516 105.295L39.6975 105.389C40.0984 106.212 40.3637 107.002 40.2861 107.939C40.2382 108.514 39.3264 108.518 39.3742 107.939C39.4069 107.549 39.3666 107.191 39.2816 106.849C37.39 114.363 36.015 121.994 35.3051 129.708C35.0188 132.886 34.809 136.057 34.4282 139.228C35.4062 139.219 36.3902 139.314 37.3332 139.478C38.9536 139.013 40.8877 139.162 42.3514 139.994C43.2551 140.088 44.1548 140.209 45.0496 140.367L45.2413 140.401C45.6584 140.478 46.2656 140.484 46.5923 140.784C46.7203 140.19 47.1575 139.768 47.5422 139.323C47.8932 138.904 48.2238 138.47 48.5369 138.023C49.3992 136.805 50.1137 135.492 50.7185 134.132C50.7101 133.918 50.8005 133.748 50.9426 133.629C53.3955 128.042 54.9176 122.111 56.2685 116.184C59.3698 102.872 62.0341 89.4495 63.6334 75.872C63.6402 75.8095 63.7321 75.8065 63.7329 75.872C64.0586 85.929 62.2972 95.8901 60.1721 105.687C57.9997 115.368 56.3151 125.267 52.3317 134.427C52.6255 136.296 52.9748 138.155 53.432 139.993C57.8928 138.805 62.5361 138.347 67.147 138.527C69.1309 132.912 70.4018 127.048 70.2986 121.079C70.0717 110.694 73.4065 100.781 76.9853 91.1534C79.4562 83.7321 82.4637 76.2856 82.793 68.3956C82.9459 66.5679 83.5094 64.7242 83.1334 62.8894C82.4571 63.6993 81.4891 64.2897 80.5414 64.7243C78.951 65.4537 77.2473 65.9019 75.5414 66.2755C66.8419 68.481 57.7041 68.4785 48.9821 66.3856L48.3338 66.2377C43.1432 65.0495 37.8782 63.7229 33.1706 61.208ZM32.5938 65.2154C31.4633 67.2543 29.1018 68.5094 26.8514 68.9649C26.7694 69.231 26.5125 69.404 26.2321 69.4439C26.6647 72.8366 27.3662 76.1937 27.7397 79.5944L27.7612 79.7211C27.7989 79.9368 27.8525 80.1677 28.0179 80.3148C28.2425 80.2258 28.2462 79.857 28.274 79.6531C28.3619 78.4743 28.4657 77.2964 28.568 76.1186C28.609 75.6035 29.4631 75.405 29.546 75.9878L29.9107 78.5649L29.9168 78.5916C30.0052 79.0108 30.0342 80.4579 30.4483 80.5207L30.4624 80.5223C30.7185 80.5607 30.621 80.0498 30.6204 79.8649L30.644 78.5265L30.6734 76.8039C30.6784 76.5168 30.6838 76.2297 30.6896 75.9426C30.7033 75.3095 31.6014 75.3373 31.6638 75.9426L31.6907 76.1987C31.8141 77.3567 31.9823 78.5839 32.5589 79.6019C32.6668 79.5289 32.8173 79.5109 32.9578 79.5485C33.0065 78.7893 33.1718 78.0652 33.4776 77.3707C33.3881 76.6323 33.4714 75.8441 33.5087 75.1321L33.5125 75.0561C33.5569 74.1405 33.6123 73.2254 33.6652 72.3105L33.6965 71.7615C33.7413 70.9637 33.6721 69.9522 34.5855 69.6161C35.477 69.3398 36.4883 69.7963 37.3408 69.3235C36.3435 68.4434 35.3217 67.6373 34.3036 66.7833C33.9404 66.4833 33.5604 66.1937 33.2147 65.8726C32.9958 65.6703 32.8195 65.4124 32.5938 65.2154ZM33.9875 32.8342L33.6833 34.3875C33.1779 36.9765 32.6915 39.5684 32.3864 42.1906C32.0668 45.009 31.9836 47.843 32.1189 50.6754C32.8155 47.9328 34.4456 45.5209 35.2064 42.8019C35.9846 39.4244 34.2346 36.1731 33.9875 32.8342ZM113.871 13.1499C113.829 13.1214 113.852 13.0366 113.909 13.0597C116.066 13.9452 116.946 17.1164 115.323 18.8629C114.784 19.4261 113.976 19.7517 113.241 19.4562C112.347 19.3064 111.82 18.4207 111.697 17.5955L111.693 17.5671C111.685 17.5283 111.729 17.5106 111.754 17.535L111.758 17.5401C112.1 17.9573 112.638 18.2365 113.129 18.45C113.266 18.3763 113.417 18.3177 113.568 18.283C113.783 18.2349 114.003 18.4018 113.983 18.6192C114.998 18.4352 115.405 17.2384 115.436 16.3304L115.437 16.303C115.478 15.0465 114.904 13.8846 113.871 13.1499Z" fill="black"/>
</g>
<defs>
<clipPath id="clip0_43_68">
<rect width="125" height="188" fill="white"/>
</clipPath>
</defs>
</svg>
