<svg width="125" height="188" viewBox="0 0 125 188" fill="none" xmlns="http://www.w3.org/2000/svg">
<g clip-path="url(#clip0_43_88)">
<path fill-rule="evenodd" clip-rule="evenodd" d="M26.9732 67.9744C26.986 68.8386 27.0735 70.823 27.2926 71.6596C24.8519 67.7868 21.1948 63.5539 20.6386 58.8106C20.812 58.7636 21.581 58.6934 21.7153 58.5937C22.978 59.1744 22.7391 57.3871 22.9258 56.5604C23.4297 54.8103 24.4886 53.0887 24.9486 51.327C26.1579 50.8093 23.7294 50.5899 23.3766 50.5797C24.8435 48.9629 25.5182 46.7403 26.5626 44.8543C28.0972 41.649 29.4716 38.3724 30.6989 35.0443C30.9671 37.1296 31.0152 39.2375 30.8518 41.3343C30.3471 50.3156 26.939 58.9514 26.9732 67.9744ZM111.681 52.0204C110.921 52.1468 109.656 52.2664 108.898 52.3278C109.893 51.7408 112.832 50.6225 110.98 49.6175C110.409 49.411 109.796 49.7056 109.22 49.7967C106.828 50.1864 103.874 50.1658 101.454 49.9694C102.336 49.2526 103.497 48.2203 104.358 47.4785C104.816 47.0843 105.26 46.9349 104.745 46.3463C103.838 45.5099 102.215 46.1258 101.166 46.4934C98.273 48.0982 95.006 49.8389 91.9006 51.0736C91.8681 50.6429 91.8882 50.086 91.4687 49.7967C90.2382 49.2226 89.3322 49.3904 88.0229 49.2376C86.4969 49.0111 85.1404 48.7536 83.6291 48.354C82.6406 47.6077 82.0379 45.4067 80.4573 45.6527C81.8572 42.1652 79.7235 38.5266 78.922 35.1871C77.9217 31.7695 77.3962 28.2202 77.3819 24.6667C77.3721 18.9775 74.0434 14.6122 69.2336 11.6929C67.3375 10.4252 66.0643 7.34191 63.7168 6.72434C63.4182 5.59026 63.4001 5.0921 63.1379 3.94939C63.0063 3.62115 62.9085 1.84005 62.5775 1.90066C62.2125 0.136389 60.3523 -0.57118 58.7427 -0.940689C56.6499 -1.37007 53.7292 -1.89019 51.8479 -0.6786C51.3029 -0.229725 51.0636 0.52192 51.0236 1.19339C50.8146 2.08752 50.3797 3.01378 49.8729 3.78957C49.0079 3.50024 49.4974 2.96106 48.6419 2.83552C40.8302 1.68925 32.1591 7.36278 27.0906 12.8975C17.9033 22.2374 10.5639 34.9879 11.7653 48.2995C11.4422 48.2522 10.01 48.03 10.0305 48.478C10.1009 50.426 10.4629 52.0508 10.5628 53.9973C10.4635 56.5759 13.1696 56.8866 15.1244 57.5226C15.0041 65.004 17.7495 72.4874 22.0466 78.6373C23.0906 79.8474 24.657 84.0467 26.5626 82.3739C26.7871 82.1139 25.0456 80.3126 24.7358 79.8676C23.6779 78.5491 20.8756 72.0209 22.8561 70.717C23.2964 72.1262 27.5598 78.9025 28.3197 75.0563C29.3291 75.6363 30.9971 76.0321 32.2037 75.9721C34.4721 77.1887 36.6794 78.5024 38.8578 79.8676C39.8725 81.8405 41.3609 83.7354 42.6078 85.6296C33.9783 105.364 25.5552 137.844 14.45 156.431C13.4817 157.645 18.8084 159.708 19.7492 160.153C17.95 163.045 17.7247 166.397 16.3559 169.511C16.0952 169.47 15.8322 169.525 15.597 169.649C13.9085 170.781 13.2713 174.834 13.175 176.832C13.253 177.724 12.9193 179.072 13.6477 179.728C13.5459 179.837 13.4699 179.97 13.4158 180.106C12.9031 180.502 12.9663 181.375 13.2403 181.916C14.2045 183.897 21.2519 183.713 23.5389 184.137C31.64 184.816 38.4393 184.923 46.5393 184.181C47.5335 183.975 46.7816 182.439 46.2907 182.022C46.5175 181.886 46.6625 181.636 46.5632 181.316C44.7218 176.102 38.0664 176.455 34.0392 173.671C35.0982 173.065 34.4147 173.258 33.7494 173.494C33.0433 173.055 32.3564 172.56 31.7202 172.014C32.2089 171.715 31.9678 171.518 31.4392 171.768C30.6059 171.107 29.957 170.084 28.8955 169.764C27.8559 169.511 27.8559 169.071 27.8559 168.794C28.4746 166.331 29.1505 163.805 29.4978 161.307C29.8683 161.848 33.0653 157.513 33.7494 156.431C36.4073 152.263 36.4001 148.157 38.2602 143.624C42.0797 133.755 49.9037 113.069 54.6752 103.63C65.8392 121.641 60.4016 145.999 67.2886 165.205C67.5947 165.782 68.1702 167.946 68.9674 167.322C69.2772 167.393 69.6066 167.432 69.9017 167.473C69.8165 169.573 69.6576 171.667 69.3052 173.744C68.977 173.83 68.6981 174.001 68.5536 174.299C68.0009 173.897 66.9425 179.825 66.852 180.429C66.8506 181.208 66.1723 182.943 66.7918 183.406C65.8993 183.767 65.7534 185.104 66.3811 185.791C68.245 188.271 77.3305 187.59 80.6823 188.005C84.9209 187.901 102.653 189.472 103.884 185.492C104.129 184.583 103.709 183.436 102.856 183.086C103.197 182.297 102.379 181.535 101.879 180.981C98.929 177.943 94.3928 177.464 90.465 176.142C90.6115 175.994 85.3379 173.318 84.1946 172.657C84.2701 171.759 82.3846 172.659 82.3794 172.657C81.4804 171.084 80.8436 168.637 80.2408 166.94C81.3533 166.599 84.0336 166.295 84.5303 165.205C86.1269 164.675 84.5254 162.382 84.1946 161.307C74.8358 138.124 83.7148 108.883 69.9017 87.0021C72.4337 85.5665 75.3385 82.4247 72.8374 79.7891C72.3369 79.1555 71.1125 77.1828 71.1327 77.5272C70.6676 75.6491 69.6289 72.4138 69.3052 70.5147C68.117 63.5418 68.8958 57.0115 69.9017 49.9694C71.2982 55.2683 76.1113 59.683 81.0077 62.104C82.9186 62.8845 85.442 64.4958 87.5399 63.9875C89.4334 63.4329 92.8721 59.5846 93.2774 57.7364C98.7971 58.3861 104.528 57.8646 109.803 56.1468C110.48 55.8932 111.282 55.9147 111.072 54.9633C110.864 54.1558 109.375 54.3618 108.734 54.5117C109.713 53.9747 112.253 53.8341 112.235 52.43C112.201 52.1373 111.983 51.9702 111.681 52.0204Z" fill="white"/>
<path fill-rule="evenodd" clip-rule="evenodd" d="M110.222 53.3512C108.458 54.0944 106.636 54.8087 104.713 54.998C104.274 55.0415 104.269 55.7255 104.713 55.683C106.31 55.529 107.912 55.3825 109.489 55.0751C109.687 55.0364 110.718 54.6748 110.776 55.0171C110.548 55.8362 106.395 56.6728 105.472 56.8401C100.002 58.1786 94.5068 57.1225 89.0151 57.0627C88.4669 56.9012 87.9032 56.9098 87.3751 57.0775C87.0836 57.0867 86.792 57.0995 86.5005 57.1167C87.5698 54.8549 89.099 52.839 90.9102 51.1136C92.2312 51.7108 95.865 49.9153 97.2286 49.3365C99.5061 48.3542 101.546 46.2144 104.214 46.6509C102.927 47.7946 101.525 48.7918 100.216 49.9099C99.8806 50.1992 100.161 50.7393 100.566 50.7461C103.408 50.9396 106.256 50.9584 109.07 50.4513C111.064 50.0728 111.096 50.1346 109.377 51.235C108.468 51.8092 107.404 52.3532 106.291 52.2314C105.683 52.2145 105.723 53.0682 106.291 53.1409C107.94 53.1991 109.62 53.1515 111.25 52.8772C110.906 53.0983 110.41 53.2688 110.222 53.3512ZM86.0973 58.2041C86.074 58.2289 86.0507 58.2524 86.0273 58.2756C86.0164 58.2801 86.0054 58.2845 85.9946 58.2892C86.0402 58.1745 86.0849 58.0612 86.1276 57.951C86.129 57.9508 86.1304 57.9505 86.1319 57.9503C86.1028 58.033 86.0921 58.1187 86.0973 58.2041ZM72.9876 94.3341C81.2286 116.957 74.6105 142.368 84.1092 164.613C84.006 164.698 83.9302 164.846 83.9251 165.004C82.6936 165.122 81.4943 165.683 80.2636 165.897C76.6841 166.725 73.0004 166.896 69.3366 166.938C69.3356 166.938 69.3347 166.937 69.3336 166.937C69.2338 166.905 69.0882 166.927 68.9453 166.94C68.1706 163.947 67.0001 161.05 66.4241 157.999C60.4942 118.8 66.5275 114.791 38.9875 80.7898C47.8813 86.8325 59.7187 93.9331 70.3106 87.663C71.274 89.8566 72.2055 92.0702 72.9876 94.3341ZM81.1634 171.995C81.2961 172.348 81.4101 172.714 81.6077 173.011C77.5187 177.693 75.4767 175.35 70.5622 173.946C70.6871 171.811 70.4487 169.696 70.068 167.594C73.3549 168.097 76.719 167.863 79.9754 167.254C80.1314 168.881 80.5984 170.465 81.1634 171.995ZM84.1947 172.657C85.021 173.468 85.9143 174.228 86.9144 174.83C86.2741 175.353 84.8404 175.732 84.7496 176.628C84.7643 177.438 86.0766 177.504 85.7618 176.743C86.3156 176.18 87.0156 175.778 87.6071 175.251C88.2093 175.602 88.8265 175.918 89.4558 176.209C88.8694 176.673 87.9985 177.037 87.8695 177.835C87.824 178.225 88.2556 178.406 88.566 178.36C89.3656 178.078 89.8075 177.132 90.5254 176.678C94.8716 178.412 99.8571 179.481 102.774 183.436C102.669 183.489 102.593 183.566 102.545 183.657C101.407 183.481 100.241 183.917 99.1026 184.023C95.5801 184.547 92.0257 184.862 88.4663 184.989C82.487 185.171 76.4899 184.835 70.5563 184.113C69.6964 183.971 68.8373 183.746 68.0093 183.452C68.1747 181.396 68.4117 179.303 68.4991 177.219C68.5972 177.141 68.6551 177.006 68.6329 176.868C68.5644 176.447 68.5826 175.844 68.7244 175.347C68.7464 175.312 68.7691 175.279 68.7942 175.247C69.087 174.872 69.5822 174.767 70.0384 174.795C70.0754 174.797 70.1127 174.802 70.1501 174.807C70.2121 174.839 70.272 174.877 70.3289 174.922C70.3529 174.926 70.3763 174.928 70.4009 174.932C70.4173 174.935 70.432 174.939 70.4457 174.945C70.4571 174.926 70.4671 174.906 70.4771 174.885C70.7596 174.971 71.0472 175.086 71.3228 175.099C73.5365 176.057 75.7675 177.266 78.2422 176.809C80.126 176.506 81.2224 174.9 82.5854 173.758C83.0675 173.32 83.7453 173.116 84.1947 172.657ZM102.928 184.557C108.622 188.664 74.952 186.93 73.1036 186.735C71.3701 186.577 65.9691 186.753 66.9646 183.952C67.2642 184.046 67.6024 183.96 67.7975 183.764C73.9036 187.357 96.2473 187.079 102.928 184.557ZM53.4751 104.721C53.0884 105.451 52.6787 106.168 52.2988 106.902C52.2099 107.074 52.1224 107.246 52.0358 107.418C51.9181 107.592 51.8013 107.766 51.6858 107.939C49.5665 111.165 48.4124 115.096 46.6564 119.361C42.2838 129.98 38.132 142.666 34.9953 151.681C33.8361 154.166 32.5583 156.611 30.9553 158.847C30.6002 159.526 29.7132 160.079 29.6803 160.853C29.6707 160.863 29.6611 160.872 29.6515 160.881C29.5977 160.934 29.5441 160.986 29.4901 161.038C28.6549 160.605 26.2953 160.593 25.4701 160.32C21.9166 159.632 18.4817 158.361 15.3491 156.566C23.6635 139.358 32.0907 115.017 38.956 96.8584C39.4195 95.7311 39.8781 94.6019 40.3409 93.4745C41.0228 91.8131 41.7845 90.1626 42.3792 88.4687C42.5647 87.94 42.7017 87.3732 42.6834 86.8111C46.5121 92.3721 50.5235 97.8444 53.8899 103.699C53.8033 104.059 53.6399 104.41 53.4751 104.721ZM28.7196 163.034C28.0877 164.955 27.4125 166.884 26.9276 168.848C26.9066 168.938 26.902 169.022 26.9099 169.101C26.9048 169.114 26.8999 169.127 26.8949 169.14C26.811 169.358 26.6999 169.545 26.7286 169.754C21.9413 171.83 22.8024 174.31 17.8164 170.601C17.6507 170.507 17.4751 170.414 17.2931 170.333C17.301 170.312 17.3083 170.29 17.3137 170.266C17.4295 169.751 17.5049 169.23 17.5399 168.704C17.7216 167.929 17.8953 167.151 18.0926 166.38C18.353 165.638 18.617 164.896 18.8688 164.153C18.8947 164.091 18.9205 164.03 18.9467 163.968C19.3285 163.075 19.6976 162.115 19.7774 161.146C19.8248 160.959 19.8693 160.77 19.9123 160.582C20.033 160.545 20.1167 160.462 20.1631 160.36C23.0197 161.34 26.0221 162.141 29.0575 162.179C28.9378 162.462 28.8207 162.744 28.7196 163.034ZM29.2358 170.131C30.136 170.366 30.6105 171.244 31.179 171.95C30.5244 172.398 29.9848 173.044 29.61 173.744C29.3614 173.972 29.1292 174.215 28.9229 174.478C28.6654 174.86 29.2523 175.309 29.5662 174.97C30.2192 174.119 30.8861 173.243 31.794 172.634C32.2317 173.109 32.6991 173.555 33.1844 173.983C32.7454 174.294 32.3642 174.672 32.0619 175.115C31.4871 175.541 31.0216 176.026 31.2601 176.41C31.4916 176.78 31.9356 176.579 32.1518 176.312C32.6276 175.654 33.1573 175 33.8289 174.533C35.3777 175.836 37.1379 176.849 39.0498 177.529C41.5801 178.46 44.8929 179.207 45.8655 182.034C41.5906 182.085 37.3083 182.137 33.0342 181.913C26.7891 181.71 20.6098 180.749 14.3943 180.243C14.4344 180.191 14.4475 180.123 14.4011 180.063C14.2729 179.896 14.0826 179.822 13.9491 179.662C14.1189 178.977 13.7997 177.948 13.9194 177.319C13.8992 175.469 14.5659 171.692 14.6061 171.624C15.0409 170.885 15.8885 170.388 16.6878 170.921C16.7431 170.958 20.194 174.253 22.4956 173.567C23.1604 173.354 23.7123 172.926 24.2906 172.554C25.8466 171.559 27.4802 170.729 29.2358 170.131ZM46.7065 183.848C35.9513 184.459 25.0946 184.323 14.4422 182.64C14.0925 182.539 13.7776 182.372 13.5314 182.152C13.508 181.886 13.4912 181.619 13.4832 181.352C13.4792 181.215 13.4016 180.752 13.5512 180.666C13.6355 180.618 13.6924 180.556 13.7273 180.488C17.537 181.779 21.7087 181.994 25.6903 182.512C32.501 183.069 39.4637 183.668 46.263 183.096C46.448 183.332 46.657 183.565 46.7065 183.848ZM13.7675 180.044C13.8102 180.104 13.8589 180.159 13.9143 180.205C13.8612 180.201 13.808 180.196 13.7548 180.192C13.7463 180.16 13.7348 180.128 13.7197 180.097C13.7366 180.08 13.7524 180.063 13.7675 180.044ZM18.6403 162.19C18.7058 161.908 18.7814 161.613 18.85 161.314C18.8017 161.69 18.7053 162.064 18.583 162.433C18.602 162.352 18.6214 162.271 18.6403 162.19ZM38.4162 80.4742C38.4271 80.4659 38.4371 80.4564 38.4459 80.4454C38.5323 80.4999 38.6189 80.5542 38.7051 80.6093C38.9805 81.1548 39.2916 81.6944 39.6225 82.2298C39.2189 81.6498 38.8273 81.0521 38.4162 80.4742ZM28.3089 74.6164C28.2918 74.4518 28.264 74.2854 28.2311 74.1205C28.3219 74.2544 28.4213 74.3823 28.5273 74.5015C28.6182 74.6037 28.7153 74.6998 28.8172 74.7904C28.649 74.7292 28.4798 74.6703 28.3089 74.6164ZM28.3281 75.0059C28.3295 74.9181 28.3263 74.8289 28.3199 74.7388C28.4132 74.7997 28.5071 74.8596 28.6021 74.9177C28.5086 74.9403 28.4171 74.9695 28.3281 75.0059ZM27.0295 64.1779C26.8235 66.4686 26.5882 68.8296 27.1786 71.0826C24.738 67.1378 21.6505 63.9925 21.0943 59.161C21.2676 59.1131 21.4288 59.0416 21.563 58.94C22.8258 59.5316 23.0428 57.711 23.2294 56.869C23.7334 55.0863 24.3362 53.3328 24.7963 51.5383C26.0055 51.011 23.5771 50.7876 23.2243 50.7771C23.2386 50.7656 23.2526 50.7534 23.2665 50.7401C24.6923 49.0821 25.3798 46.8559 26.4102 44.9454C27.9447 41.6805 29.3192 38.3429 30.5463 34.9531C31.7387 44.8474 28.038 54.4315 27.0295 64.1779ZM24.7858 73.3514C24.1827 72.5448 23.6733 71.6646 23.2816 70.7391C23.2236 70.602 23.0916 70.4403 22.916 70.4636C21.9203 70.5955 21.5925 71.5365 21.6108 72.4272C22.0513 75.7463 23.5653 78.9152 25.5121 81.6296C19.2565 75.3175 17.0115 66.4352 15.4405 57.9929C17.06 58.4363 18.653 59.0674 20.3317 59.2434C21.3129 67.1461 27.304 69.5118 27.5013 75.2498C27.2176 76.4446 25.0921 73.7505 24.7858 73.3514ZM84.5265 48.9416C84.5119 48.9453 84.4976 48.9502 84.484 48.9583C84.4716 48.9656 84.4595 48.9735 84.4471 48.9808C84.4245 48.9481 84.4009 48.9161 84.376 48.8855C84.4261 48.9041 84.4762 48.9233 84.5265 48.9416ZM91.5697 51.0546C91.3711 51.0851 91.1786 51.0818 91.0042 51.0238C91.044 50.9861 91.083 50.9474 91.1232 50.91C91.1525 50.8827 91.2253 50.8067 91.315 50.7233C91.3608 50.8593 91.4498 50.9805 91.5697 51.0546ZM112.459 52.2788C112.426 51.9807 112.207 51.8105 111.905 51.8616C111.146 51.9903 110.389 52.0836 109.632 52.1462C110.626 51.5482 112.77 50.3532 110.917 49.3295C110.346 49.1192 109.667 49.3412 109.091 49.434C106.699 49.831 104.271 49.9971 101.851 49.7971C102.733 49.0669 103.646 48.3738 104.507 47.6183C104.965 47.2168 105.484 46.6816 104.97 46.0821C104.063 45.2301 102.06 45.8576 101.012 46.232C98.1181 47.8665 95.3292 49.604 92.224 50.8617C92.1913 50.423 92.3414 49.8913 91.9219 49.5966C90.6915 49.0117 89.1778 49.1828 87.8684 49.0271C86.3424 48.7965 84.9862 48.4575 83.4748 48.0505C82.4864 47.2903 82.3396 45.2782 80.7589 45.5289C82.1588 41.9766 79.5693 38.5 78.7678 35.0985C77.7675 31.6174 77.242 28.0022 77.2278 24.3826C77.2184 18.5888 73.889 14.1406 69.0798 11.1677C68.9989 11.1021 68.919 11.035 68.8388 10.9682C68.6308 10.7515 68.4274 10.5291 68.2287 10.2998C67.8099 9.81646 67.4047 9.32051 66.9796 8.84232C66.7862 8.54385 66.5814 8.2535 66.342 7.98827C66.1301 7.72906 65.8925 7.49503 65.588 7.31155C65.5643 7.29726 65.5393 7.28477 65.5152 7.27101C65.0077 6.92772 64.4336 6.68821 63.8267 6.56925C63.5396 5.47433 63.2337 4.38446 62.9843 3.28037C62.87 3.00289 62.7219 0.990083 62.4146 1.2138C62.0288 2.18072 62.3809 10.9307 64.2631 9.78766C64.4485 12.0634 64.4847 15.3334 61.9498 16.3394C57.5077 17.7091 51.793 7.87562 49.9542 4.54998C50.4618 4.74392 50.8925 3.57501 51.1082 2.37241C51.1985 2.0877 51.2723 1.79736 51.3327 1.5052C51.3972 1.19297 51.4893 0.86465 51.4158 0.550238C51.3917 0.44729 51.3116 0.378933 51.2181 0.350056C51.1842 0.160101 51.1269 0.0336896 51.0429 0C50.9755 0.148445 50.9213 0.302906 50.874 0.4606C50.8702 0.466691 50.8659 0.472106 50.8624 0.478648C50.7307 0.728914 50.7169 1.01573 50.6621 1.29126C50.6137 1.48445 50.5605 1.67561 50.4927 1.86C50.3205 2.32924 50.0766 2.74743 49.8389 3.17306C49.3812 2.68231 48.6598 2.4343 47.9785 2.35775C47.3211 2.28382 46.6494 2.27931 45.9885 2.25856C45.3536 2.23855 44.6707 2.21314 44.0529 2.37203C44.0222 2.37993 44.0166 2.40963 44.0285 2.43167C30.3773 3.16118 16.5077 23.3679 13.1396 34.5791C11.8567 38.9607 11.1374 43.5892 11.6135 48.1481C11.2903 48.1 9.85826 47.8737 9.87863 48.33C9.94899 50.3141 10.311 52.2756 10.4109 54.2582C10.3116 56.8848 13.0177 57.2013 14.9724 57.849C14.852 65.4694 17.5975 73.0919 21.8944 79.3561C22.9383 80.5887 24.9386 84.33 26.8441 82.6262C27.0686 82.3613 27.0175 82.0463 26.7424 81.8448C26.2931 81.5155 25.9741 80.9827 25.6644 80.5293C24.6064 79.1863 21.3312 72.6167 22.7039 71.2886C23.3946 72.749 25.9008 77.1258 27.8672 76.1594C28.1628 75.9011 28.2897 75.5528 28.3207 75.1681C28.3983 75.1874 28.4763 75.205 28.5548 75.2207C29.241 75.823 31.2554 76.7131 31.9846 76.6505C32.228 76.7691 32.4711 76.8881 32.714 77.0075C33.3871 77.3828 34.0548 77.7667 34.7184 78.1575C35.2437 78.5024 35.7835 78.8213 36.332 79.1258C36.6497 79.32 36.9662 79.5163 37.282 79.7135C37.527 80.3432 37.9561 80.9467 38.2935 81.4917C38.5041 81.8318 38.7401 82.2538 39.0225 82.6227C39.3334 83.1206 39.6804 83.5945 40.0363 84.0383C40.507 84.6249 41.0953 85.1418 41.5127 85.7664C41.9793 86.4644 41.9134 87.2276 41.6678 87.9945C41.4129 88.7908 41.0483 89.5574 40.7249 90.3281C40.3751 91.1615 40.0254 91.995 39.6756 92.8285C38.9955 94.4493 38.3154 96.07 37.6353 97.6907C37.247 98.6158 36.8653 99.5443 36.4895 100.474C36.3608 100.793 36.2437 101.114 36.1329 101.438C29.0411 117.925 21.4766 140.567 13.7487 156.471C12.9853 157.454 16.6827 158.97 18.7253 159.785C18.7344 159.813 18.7424 159.841 18.7507 159.869C18.445 160.52 18.2931 161.289 18.1165 161.97C17.8948 162.826 17.6681 163.68 17.4365 164.532C17.2046 165.386 16.9732 166.244 16.7513 167.104C16.4523 167.861 16.1513 168.615 15.8344 169.355C15.822 169.386 15.8091 169.418 15.7964 169.449C15.3888 169.472 15.0323 169.643 14.7611 169.913C14.7294 169.922 14.6987 169.943 14.6733 169.975C13.1198 172.035 12.6042 174.734 12.4738 177.251C12.5465 178.005 12.2545 179.502 12.8482 180.096C12.7016 180.266 12.6191 180.483 12.5773 180.721C12.2165 181.163 12.2925 181.933 12.539 182.429C13.4825 185.164 34.8063 185.266 38.413 185.231C41.3545 185.178 44.276 185.007 47.2046 184.736C47.6586 184.641 47.7484 184.264 47.6659 183.842C47.7558 183.342 47.5716 182.69 47.1725 182.328C47.2582 182.192 47.2896 182.019 47.2286 181.818C45.3872 176.508 38.5801 176.867 34.553 174.031C34.6081 173.999 34.6573 173.97 34.7032 173.942C34.7915 173.912 34.8804 173.883 34.9701 173.858C35.3929 173.738 35.2092 173.075 34.7883 173.205C34.4622 173.306 34.1488 173.432 33.8523 173.582C33.2911 173.204 32.746 172.791 32.2341 172.344C32.3858 172.249 32.5397 172.159 32.6944 172.069C32.9171 172.028 33.1474 172.007 33.3866 172.006C33.6913 172.004 33.7755 171.705 33.6576 171.509C33.6817 171.494 33.7058 171.48 33.7298 171.465C33.6947 171.46 33.6577 171.457 33.6197 171.457C33.5658 171.397 33.4883 171.353 33.3866 171.343C32.7225 171.278 32.1011 171.432 31.5467 171.728C30.8907 171.09 30.2929 170.323 29.4095 170.051C30.1192 169.795 30.4516 169.017 29.5538 168.792C29.1583 168.757 28.7523 168.903 28.3699 169.063C28.9206 166.83 29.3349 164.546 29.6644 162.277C29.7583 162.293 29.8513 162.303 29.9425 162.305C30.3143 162.315 30.5643 162.034 30.7444 161.701C30.7644 161.698 30.7843 161.695 30.8034 161.692C31.4782 161.411 31.7909 160.641 32.257 160.117C33.7151 158.126 34.9417 155.972 35.9852 153.742C39.8207 142.836 45.54 124.692 50.1728 114.392C51.6562 111.093 52.9806 108.089 54.5218 104.813C65.6855 123.158 60.2481 145.672 67.1348 165.234C67.4337 165.808 67.9899 167.923 68.7584 167.429C68.763 167.432 68.7674 167.435 68.7728 167.439C68.9167 167.519 69.061 167.617 69.2178 167.67C69.2915 167.695 69.3574 167.67 69.4037 167.623C69.4732 167.9 69.4575 168.222 69.4709 168.493C69.489 168.861 69.4988 169.229 69.5032 169.597C69.5115 170.327 69.4931 171.057 69.4447 171.785C69.376 172.404 69.296 173.023 69.1985 173.639C68.8347 173.706 68.4994 173.89 68.2575 174.188C67.9024 174.626 67.7769 175.186 67.6921 175.729C67.6714 175.861 67.6543 175.991 67.6456 176.119C67.1915 177.843 66.755 180.356 66.6983 180.742C66.6968 181.535 66.0186 183.302 66.6381 183.773C65.7455 184.142 65.5998 185.503 66.2273 186.203C68.0912 188.729 77.1764 188.035 80.5281 188.458C84.7665 188.353 103.638 189.953 104.869 185.898C105.113 184.972 104.694 183.804 103.84 183.448C104.182 182.644 103.364 181.868 102.864 181.304C99.914 178.209 95.594 177.155 91.6664 175.808C91.8128 175.657 92.6999 175.107 92.5839 174.965C91.9384 174.993 91.3124 175.197 90.7259 175.476C89.9537 175.196 89.1864 174.896 88.4382 174.554C90.5689 172.818 89.3235 173.353 87.8484 174.272C87.686 174.188 87.5231 174.104 87.36 174.02C87.3761 173.949 87.3596 173.873 87.2944 173.812C87.0878 173.621 86.8188 173.544 86.5657 173.428C86.2938 173.303 86.0297 173.16 85.7757 173.003C85.3059 172.712 84.9108 172.25 84.4197 172.009C84.3447 171.972 84.2678 171.95 84.1906 171.941C83.8732 171.656 83.1055 171.926 82.7474 172.186C82.7415 172.184 82.7364 172.182 82.7311 172.179C81.8322 170.577 81.1621 168.868 80.5594 167.139C81.6717 166.792 84.1749 166.66 84.6716 165.55C86.2682 165.01 85.1092 162.614 84.7784 161.519C75.42 137.905 84.3412 109.819 70.5286 87.5312C73.0178 86.0937 75.8009 82.6576 73.5175 79.991C73.4535 79.8671 73.3835 79.7462 73.3126 79.6298C72.9696 79.066 72.6001 78.5212 72.263 77.9542C72.2458 77.8822 72.2305 77.8093 72.2201 77.7343C72.2001 77.5973 72.1136 77.5296 72.0113 77.5134C71.6728 76.8976 71.3719 76.2656 71.0867 75.6237C69.3251 67.3899 68.8507 58.953 70.0242 50.5845C71.4206 55.9817 75.9572 60.0496 80.8534 62.5156C82.7643 63.3107 85.2875 64.9519 87.3854 64.4341C89.2788 63.8692 92.7176 59.9494 93.1228 58.0668C98.6422 58.7286 104.373 58.1974 109.648 56.4477C110.325 56.1894 111.645 55.7979 111.435 54.8287C111.226 54.0063 110.237 54.1804 109.597 54.3331C110.575 53.7861 112.478 53.709 112.459 52.2788Z" fill="black"/>
</g>
<defs>
<clipPath id="clip0_43_88">
<rect width="125" height="188" fill="white"/>
</clipPath>
</defs>
</svg>
