<svg width="124" height="189" viewBox="0 0 124 189" fill="none" xmlns="http://www.w3.org/2000/svg">
<g clip-path="url(#clip0_43_116)">
<path fill-rule="evenodd" clip-rule="evenodd" d="M91.3781 179.443C91.9086 176.966 89.4824 176.129 87.9529 175.578C86.8573 174.865 82.7979 172.397 79.6569 169.35C77.0867 166.857 75.337 163.661 74.6087 163.357C74.1089 163.066 73.833 162.813 73.7811 162.597C73.3249 160.698 73.7054 158.928 73.7811 157.777C75.2433 157.392 76.415 156.912 77.2913 156.241C77.5469 156.326 77.93 156.435 78.0442 156.06C78.8361 150.761 79.178 145.525 79.8223 140.221C82.2613 120.022 82.5364 96.4249 78.3404 77.9762C78.2963 77.0617 78.3758 76.2359 78.4572 75.4502C79.0246 75.3887 79.3676 74.8379 79.8309 74.5087C80.5499 73.9355 81.4014 73.4951 81.3662 72.4934C81.537 72.3637 81.5171 72.2907 81.4329 72.1254C81.9814 69.7599 79.5349 67.2672 78.843 65.3171C80.1007 52.9796 78.3895 41.3209 79.3442 28.9805C80.55 28.4745 79.7393 25.3115 79.6569 24.0069C78.9889 15.6021 74.6326 7.29231 66.7878 4.5466C66.3394 4.45542 65.6653 3.94134 65.2942 4.28653C64.5771 4.0016 63.6229 4.56338 63.0679 3.91662L63.0735 3.91239C62.6061 3.26246 62.3966 2.43622 62.243 1.65497C62.2687 1.87512 62.3116 2.09345 62.3645 2.30687C61.0121 -1.51577 60.6713 -2.53788 56.3176 -2.71788C54.3565 -2.74419 51.7712 -2.68515 50.6277 -0.809209C50.1592 0.0628368 50.3023 1.06416 50.0115 1.98209C49.4776 3.66654 47.1733 2.85255 45.9635 3.72725C36.2811 6.84181 28.3392 13.1992 25.7287 23.4031C25.195 24.633 24.5897 25.857 24.1435 27.1263C24.0745 27.3147 23.8845 27.9522 24.3407 28.2456L24.5613 28.3875C21.6551 42.0107 21.4623 53.4901 31.2261 62.5722C31.9587 66.4747 30.0739 71.8041 30.7984 75.5932C30.3856 76.1807 30.9091 76.6539 31.4369 76.6916C31.4878 76.72 31.6934 76.8102 31.7495 76.836C30.9095 88.7286 34.4361 104.756 35.9906 111.082C36.2022 114.88 34.9096 118.001 32.2507 120.07C29.3129 121.885 23.5049 130.081 24.5816 138.678C23.3233 138.926 22.0741 139.062 20.8669 139.536C15.5847 138.601 15.6371 148.814 15.3005 152.405C14.7305 158.417 14.3762 167.132 20.0714 170.98C21.5718 172.072 24.614 173.35 26.1729 171.603C26.6837 170.987 26.8117 170.393 26.6107 169.764C29.1849 166.117 28.4912 161.345 28.7277 157.067C29.4741 157.022 30.2552 157.373 30.9772 157.245C31.7184 156.59 29.0146 156.769 28.7342 156.73C28.7629 156.071 28.8159 155.376 28.8841 154.711C29.3082 154.796 29.8515 155 30.2593 155.016C30.5007 155.075 30.6713 154.741 30.5255 154.569C30.2073 154.264 29.3958 154.311 28.9392 154.268C29.0163 153.711 29.1106 153.126 29.2154 152.587C29.774 152.567 30.3509 152.924 30.8798 152.851C30.4795 152.583 29.728 152.665 29.24 152.488C29.5574 150.754 30.204 149.107 30.8051 147.485C32.2802 148.095 33.5527 148.119 34.9926 147.936C35.5817 148.027 35.8689 147.906 35.9642 147.167L35.9266 147.121C37.0679 140.271 40.7508 133.741 47.5918 126.336C48.9431 124.82 50.47 123.034 51.4874 121.037C53.5318 116.882 53.881 112.297 55.4562 107.982C56.9268 103.645 58.9378 99.4958 60.8258 95.3842C61.1027 97.4914 61.4746 99.6531 61.8612 101.719C63.5628 109.041 63.3979 116.854 62.1456 124.216C60.2928 134.528 61.1859 144.889 60.7738 155.274C60.7794 155.873 60.8535 156.417 60.7659 157.041C60.7543 157.089 60.7769 157.146 60.8336 157.144L60.9405 157.147C61.8311 157.801 63.061 157.92 64.1074 158.274C64.5469 158.623 64.4231 159.176 64.4633 159.607C64.5783 161.464 64.7253 163.329 64.5429 165.244C63.7354 166.795 62.7326 166.475 62.5275 168.662C62.3479 171.159 62.0303 173.815 63.2429 176.038L62.7841 176.118C62.1033 177.551 62.5189 178.481 64.1191 179.087C72.0187 182.193 83.1347 185.014 91.3781 182.669C91.528 182.818 91.7459 182.663 91.9162 182.429C92.08 182.204 92.1998 181.906 92.1732 181.732C92.0322 180.972 92.226 179.583 91.3781 179.443Z" fill="white"/>
<path fill-rule="evenodd" clip-rule="evenodd" d="M91.717 181.93C84.6184 185.127 71.7284 181.093 64.7535 178.759C62.8729 178.079 62.2464 177.946 62.7733 175.771C63.7593 177.679 65.8797 178.14 67.9112 178.523C74.7926 180.096 81.8082 183.001 89.1676 181.584C90.2478 181.413 91.3166 180.826 91.631 179.744C91.8248 180.203 91.7049 180.824 91.7825 181.328C91.7969 181.53 91.8013 181.747 91.717 181.93ZM63.007 170.039C63.1351 168.757 63.3401 167.403 64.0676 166.271C63.9884 168.103 65.0852 171.216 67.4883 170.179C68.169 169.817 68.5505 169.088 68.9884 168.503C70.4439 166.578 72.3104 164.907 74.4188 163.693C75.5916 163.895 76.096 166.046 76.852 166.946C76.0092 167.323 74.482 168.181 74.3276 169.069C75.3799 168.714 76.3485 168.053 77.4521 167.821C77.8055 168.31 78.1803 168.784 78.5737 169.243C78.0596 169.47 75.9866 170.521 76.0003 171.045C77.1211 170.863 78.2073 170.312 79.3343 170.086C79.8355 170.585 80.2917 171.121 80.7906 171.622C80.0368 171.933 79.2408 172.281 78.8292 173.006C78.8097 173.039 78.8579 173.076 78.8843 173.044C79.4489 172.361 80.4206 172.236 81.2626 172.083C82.5545 173.303 84.0011 174.379 85.6202 175.184C87.2401 176.073 89.7021 176.276 90.3465 178.203C90.8621 180.129 89.2543 180.335 87.7708 180.471C86.27 180.685 84.7586 180.718 83.2676 180.593C78.6068 180.398 74.2009 179.022 69.7964 177.82C64.4114 176.825 62.664 176.02 63.007 170.039ZM64.9194 158.821C67.7726 159.211 70.7033 158.97 73.49 158.28C73.2973 159.082 73.1663 159.897 73.0862 160.717H73.0926C73.0642 160.978 72.9928 161.315 72.9903 161.636C73.0084 162.107 73.0016 162.683 73.2866 163.075C71.2234 164.606 69.2092 166.311 67.7762 168.445C66.828 170.182 65.5661 169.125 65.2526 167.734C65.0513 165.272 65.146 162.925 65.0462 160.566L65.0372 160.567C65.0112 159.984 64.9748 159.402 64.9194 158.821ZM64.5862 158.772C64.5734 158.857 64.5621 158.942 64.5501 159.027C64.5349 158.937 64.5244 158.846 64.5025 158.758C64.5305 158.763 64.5583 158.768 64.5862 158.772ZM63.1487 157.527C62.6716 157.381 62.1975 157.226 61.7247 157.067C61.6087 157.029 61.4158 157.018 61.3539 156.901C63.1132 153.223 62.0814 148.95 62.1642 145.02C61.5499 134.303 64.0005 123.775 64.351 113.122C64.3232 107.085 62.2314 101.332 61.1693 95.4347C62.2554 93.104 63.2679 90.7468 64.25 88.3759C64.2816 88.3041 64.1603 88.2595 64.1211 88.3238C62.9632 90.1087 61.81 91.8936 60.7366 93.7277C55.5414 101.492 53.2054 110.345 50.7449 119.174C49.9474 121.185 48.6674 122.957 47.2458 124.606C41.3473 130.996 35.8416 138.286 34.4674 146.921C28.9933 146.738 27.4119 143.37 25.5002 139.12C25.5054 139.104 25.5107 139.088 25.5161 139.073C25.4474 138.952 25.3999 138.824 25.3622 138.691C25.345 138.704 25.3276 138.719 25.3102 138.733C24.0333 136.284 25.8401 131.178 26.8073 128.623C28.0744 125.783 29.7803 123.141 32.0296 120.945C33.6864 119.469 35.4013 117.861 36.1114 115.745C37.2964 112.435 36.2502 108.738 35.586 105.412C33.9812 97.1652 32.4246 84.478 32.6711 76.0577C34.7221 73.6075 38.3193 73.8494 41.1965 73.2673C42.037 74.0611 42.7539 74.9963 43.8032 75.5096C45.0243 76.6527 46.2146 77.8502 47.1117 79.2503C48.1112 81.1622 49.3745 82.8231 51.1467 84.1098C52.0423 84.8197 53.3335 85.8494 54.5855 85.4147C55.4742 85.1244 55.9681 84.2278 56.8431 83.9269C57.8948 83.7122 58.5249 83.6343 59.1452 82.687C59.8938 82.5389 60.6076 82.1707 60.389 81.2998C60.5851 81.3663 60.7811 81.4306 60.974 81.4979C61.3653 81.6339 61.7873 81.2113 61.6569 80.8424C61.3343 80.0804 60.9604 79.3289 60.8346 78.5049C60.7027 74.8345 59.7588 73.8237 56.3969 72.3525C57.7424 72.2852 59.0608 72.6156 60.3378 72.9815C66.7112 75.3198 70.8909 76.7608 77.5319 73.8252C80.762 100.79 80.7084 128.285 76.7382 155.158C72.9503 157.967 67.6708 157.892 63.1487 157.527ZM24.9123 141.972C24.9251 141.861 24.9393 141.752 24.9544 141.641C25.7527 143.816 27.1201 145.883 29.1562 147.143C28.3767 148.118 26.8585 148.408 25.8341 147.61C24.0476 146.267 24.7924 143.836 24.9123 141.972ZM28.3096 152.112C27.5167 152.051 24.1252 151.934 23.7183 152.467C24.1766 152.662 24.8067 152.554 25.2997 152.576C26.2571 152.616 27.2121 152.7 28.1596 152.835C28.0887 153.205 28.0246 153.575 27.9719 153.946C27.0161 154.038 25.1549 154.079 24.5482 154.75C25.6306 154.923 26.7575 154.767 27.8437 154.983C27.791 155.491 27.7525 156 27.7239 156.509C27.2912 156.555 24.7464 156.978 24.7487 157.379C25.7014 157.506 26.7108 157.339 27.6817 157.434C27.4714 160.482 28.1845 169.69 24.0295 170.253C20.3969 170.061 18.8034 164.157 18.3097 161.324C17.2152 154.724 17.4029 147.687 19.5724 141.325C20.3472 139.556 22.4564 139.249 24.2399 139.158C24.3077 139.457 24.3747 139.751 24.4501 140.048C23.6767 141.806 23.4303 143.786 23.4091 145.689C23.5727 148.424 26.9377 150.458 29.3815 148.651C28.9247 149.77 28.572 150.934 28.3096 152.112ZM23.5027 171.788C16.3076 170.237 15.1271 161.88 15.6217 155.736C16.0249 151.458 15.5403 142.44 19.4773 139.927C14.3892 144.585 14.831 176.299 26.107 170.764C25.8258 171.658 24.38 171.915 23.5027 171.788ZM31.6165 77.0942C31.6626 77.079 31.7077 77.0586 31.7492 77.0337C31.7386 78.0891 31.7552 79.1444 31.7936 80.1983C31.7198 79.1641 31.661 78.1291 31.6165 77.0942ZM31.0233 61.0269C21.4199 51.4295 23.2523 40.5469 25.458 28.559C29.0181 28.9853 32.5979 29.8419 35.8039 31.4144C34.6732 36.7056 34.6008 41.5017 34.1138 46.8708C33.9668 47.5346 34.1327 48.813 35.0705 48.5181C43.6901 55.3818 44.6919 69.4865 56.0034 73.5652C60.6136 75.4446 58.6681 76.9702 60.1915 80.5188C59.3533 80.3646 58.6055 79.66 58.2452 78.9857C58.0666 78.6508 57.5464 78.9456 57.7206 79.2798C58.096 79.9987 58.7262 80.5771 59.4732 80.9384C59.3812 81.1199 59.3495 81.324 59.3397 81.5152C57.9942 81.7912 58.3726 82.4315 57.4636 82.7369C56.8688 82.9018 56.2966 82.9721 55.7825 83.3334C54.033 84.9679 53.5988 84.8477 51.7211 83.4098C51.7468 83.2798 49.1914 80.7766 48.3999 79.3773C47.7403 78.21 47.0498 77.0344 46.0389 76.1318C41.0887 71.0484 35.8152 66.2509 31.0233 61.0269ZM78.2013 29.1071C77.7106 35.8929 77.8372 41.9545 77.9428 48.751C78.0038 53.3225 78.0324 57.8955 77.8741 62.4656C73.8617 52.0645 75.0897 40.7782 74.5197 29.8457C75.7055 29.4495 76.9794 29.2764 78.2013 29.1071ZM49.4378 3.02355C49.4236 3.0485 49.4084 3.07345 49.3933 3.09764C49.2938 3.10444 49.1936 3.11351 49.0918 3.12485C49.2072 3.09008 49.3226 3.05757 49.4378 3.02355ZM63.1111 3.82189C63.1072 3.81055 63.1034 3.79921 63.1004 3.78862C63.1095 3.79391 63.1185 3.79996 63.1283 3.80601C63.1209 3.81055 63.1163 3.81584 63.1111 3.82189ZM92.4158 180.606C92.3962 180.065 92.3886 179.367 91.7569 179.175C92.0433 176.843 90.1136 175.516 88.0874 174.87C86.3597 173.81 84.4005 173.069 82.813 171.792C83.5503 171.653 84.2875 171.485 84.9425 171.163C85.437 170.921 85.1988 170.113 84.6629 170.188C83.7138 170.313 82.8614 170.797 81.9695 171.133C81.463 170.716 80.9723 170.28 80.5088 169.819C81.0861 169.707 81.8203 169.748 82.1566 169.173C82.2613 168.994 82.2145 168.807 82.088 168.668C81.503 168.075 80.3436 168.668 79.6169 168.841C79.268 168.437 78.931 168.026 78.6001 167.609C79.1489 167.558 80.5765 167.659 80.2969 166.751C79.761 166.04 78.6084 166.466 77.8334 166.613C76.8505 165.4 76.5339 163.541 74.9976 162.874C74.9426 162.58 74.5598 162.602 74.3042 162.69C74.1428 161.917 74.0561 161.307 74.0182 160.717L73.9993 160.715C73.9825 159.852 74.0155 158.987 74.0668 158.127C75.2072 157.81 76.3387 157.394 77.2869 156.712C77.7227 156.841 78.251 156.693 78.3416 156.179C79.1301 150.922 79.4806 145.6 80.1221 140.324C82.461 120.894 82.9706 97.1781 78.6408 77.9825C78.6068 77.2552 78.6582 76.5272 78.7312 75.8052C79.2476 75.6668 79.5551 75.1611 79.9825 74.8685C80.777 74.2191 81.5852 73.8555 81.6583 72.7222C81.8188 72.5687 81.8376 72.3367 81.7495 72.1356C81.9553 70.9721 81.6522 69.8169 81.0348 68.8114C80.358 67.6661 79.7187 66.5102 79.1542 65.3081C80.3888 53.1925 78.714 41.4503 79.6297 29.2741C80.8042 28.6504 80.0669 25.1849 79.9577 24.0298C79.2717 16.4433 75.7401 8.06683 68.2315 4.91128C67.7046 4.46524 66.9689 4.31404 66.3252 4.06834C65.8902 3.85364 65.1824 3.66766 64.8847 4.16738C64.5689 4.01996 63.552 3.90731 63.2037 3.65179C63.1389 3.60416 63.0974 3.55199 63.0876 3.49378C63.062 3.49454 63.0318 3.48925 62.9994 3.48244C62.6784 3.02733 62.3723 -0.142579 61.9765 0.0834654C61.5446 1.17211 61.8438 2.40212 62.257 3.50134C62.5419 4.47356 62.9324 6.97441 64.446 6.33483C64.7069 6.2048 64.5455 5.86686 64.3118 5.83965C63.5942 5.63402 63.4344 4.57637 63.157 3.95645C63.4856 4.23013 64.9827 4.64063 65.1463 4.72757C68.3937 12.2029 48.7594 11.8105 47.2157 6.65689C46.1151 4.87651 47.0649 3.91185 49.0271 3.62608C47.585 5.23334 49.4108 5.59017 50.1049 4.01391C50.769 2.8852 51.0713 1.51382 50.8444 0.215009C50.9612 -0.240859 51.0601 -0.850195 50.3801 -0.727723C50.3568 -0.788203 50.3198 -0.740575 50.3342 -0.697483C50.0861 -0.301339 50.2588 0.267929 50.1706 0.725309C50.096 1.47375 49.8841 2.20707 49.5246 2.86933C48.8575 2.99709 48.1933 3.13393 47.5323 3.28361C47.1357 2.47545 44.5638 4.08724 43.8733 4.277C34.7003 6.99482 27.7246 14.2328 25.2899 23.3622C24.7464 24.5779 24.1599 25.7996 23.7152 27.053C23.5162 27.5958 23.5162 28.2694 24.0627 28.621C21.3995 40.8734 20.7497 53.6393 30.8108 62.8292C31.0391 63.8241 30.8869 64.8795 30.8801 65.8925C30.9645 68.1998 28.9985 76.1076 31.2819 77.1304C30.6147 87.3742 33.1166 101.313 35.5416 111.195C35.7209 114.592 34.6996 117.682 31.9504 119.825C26.7236 123.744 24.5217 130.286 23.9104 136.52C23.8237 137.158 23.9089 137.809 24.0522 138.436C22.9192 138.648 21.8586 138.785 20.7588 139.202C14.6929 138.036 15.1257 151.107 14.6614 154.985C14.298 160.718 14.5248 167.591 19.7781 171.345C21.5442 172.606 24.6619 173.818 26.3829 171.908C26.8698 171.323 27.1352 170.64 26.9437 169.893C29.4109 166.27 28.8282 161.638 29.0129 157.515C29.6589 157.538 30.3629 157.827 30.9992 157.668C31.4892 157.538 31.5517 156.907 31.1372 156.656C30.5386 156.316 29.7252 156.445 29.0558 156.423C29.0763 156.028 29.1057 155.633 29.1434 155.239C29.7787 155.395 30.6893 155.769 30.8785 154.878C30.9547 154.067 29.9333 154.005 29.2971 153.97C29.3416 153.664 29.3914 153.359 29.4479 153.056C29.9348 153.105 30.4489 153.416 30.9276 153.267C31.1989 153.16 31.2931 152.885 31.0949 152.662C30.7263 152.3 30.0961 152.372 29.6084 152.259C29.9046 150.804 30.4399 149.412 30.9555 148.021C31.8887 148.346 32.8995 148.56 33.8953 148.479C34.4116 148.37 34.9755 148.339 35.4971 148.409C36.0775 148.255 36.2117 147.633 36.2879 147.125C36.2766 147.107 36.2652 147.089 36.2524 147.073C37.5934 139.241 42.4042 132.475 47.7983 126.645C49.284 124.978 50.7411 123.243 51.7505 121.263C53.8009 117.123 54.1687 112.465 55.7373 108.164C57.0587 104.259 58.8249 100.514 60.5564 96.763C61.2506 101.703 62.5471 106.562 62.6957 111.571C62.9219 117.908 61.5295 124.154 60.9355 130.441C59.8674 138.715 60.8376 147.041 60.322 155.321C60.3258 155.907 60.4011 156.459 60.3182 157.045C60.2722 157.369 60.5044 157.573 60.7487 157.579C61.6456 158.17 62.7726 158.379 63.8037 158.632C64.0894 158.851 63.9659 159.391 64.0164 159.721C64.0362 160.054 64.0572 160.386 64.0772 160.717H64.0795C64.1703 162.115 64.2398 163.326 64.0932 164.849C63.0846 166.345 62.358 166.106 62.0775 168.379C61.9231 170.753 61.583 173.319 62.6172 175.473C62.1544 175.579 61.9788 176.996 62.0481 177.371C62.1657 178.428 63.0952 178.762 63.9937 179.127C70.56 181.595 84.5122 185.657 91.2594 182.863C91.7426 183.138 92.2815 182.6 92.4376 182.167C92.6441 181.64 92.4541 181.13 92.4158 180.606Z" fill="black"/>
</g>
<defs>
<clipPath id="clip0_43_116">
<rect width="124" height="189" fill="white"/>
</clipPath>
</defs>
</svg>
