<svg width="124" height="188" viewBox="0 0 124 188" fill="none" xmlns="http://www.w3.org/2000/svg">
<g clip-path="url(#clip0_43_56)">
<path fill-rule="evenodd" clip-rule="evenodd" d="M85.7009 75.6234C87.6861 75.6679 86.8349 57.1516 85.5092 53.7395C85.3236 53.048 85.1702 52.1032 85.2011 51.2547C86.8407 51.4185 86.6642 50.2967 86.5796 48.944C86.6074 47.8698 86.6821 45.6536 85.0376 46.5165C80.1073 36.6495 85.4381 11.1432 72.4568 8.74087C70.8925 8.36109 69.2758 7.96811 67.9588 6.88395C66.5653 4.3089 65.8555 3.98002 63.5463 3.81344C63.1188 1.49392 62.3195 -0.984011 59.9377 -1.8866C57.757 -2.74078 55.2191 -2.80892 52.9453 -2.35308C51.0632 -1.73944 50.8911 1.75754 50.473 3.48168C47.9382 2.80977 44.8143 1.39657 43.4497 4.60018C42.7887 4.40268 42.1763 4.53087 41.5046 4.75067C35.8753 5.65738 30.4136 8.20306 28.3257 13.5148C27.036 16.7022 27.9513 20.172 28.435 23.4732C28.8861 27.0679 27.6966 30.3981 27.1452 33.8557C26.3242 38.6169 26.1757 42.436 26.7115 45.9748C25.2953 46.2968 25.1909 47.5844 25.7638 48.9318C25.9321 49.3878 26.1016 49.8684 26.4736 50.1262C27.2304 50.6024 28.2085 50.0536 29.031 49.9696C29.2021 51.8709 29.5333 53.7365 30.0814 55.8567C29.9227 56.4914 29.7407 57.2002 29.5772 57.8375L29.522 57.7776C27.6443 65.64 22.0597 73.2772 23.7954 81.6331C23.8974 81.9115 24.0911 81.8535 24.2398 81.8487C25.1014 82.1761 25.8929 81.9683 26.7617 82.0017C28.8227 82.0032 30.8138 82.267 32.6609 82.4967C32.9985 84.7016 34.0963 88.3113 36.0539 89.152C36.0869 89.1633 36.6671 89.0423 36.7156 89.0388C31.5042 110.163 22.1273 129.695 18.4026 151.245C18.3806 151.508 18.8086 151.368 18.9491 151.4C18.9298 151.998 19.3163 152.142 19.8575 152.355C19.1601 153.812 18.5319 155.268 17.8376 156.729C17.5157 157.452 16.991 158.167 16.8954 158.94C16.1268 159.431 15.6091 160.391 15.6228 161.287C13.5502 162.163 14.1135 166.488 13.6407 168.63C13.1625 171.822 10.8882 174.051 9.3288 176.667C9.011 177.193 8.6726 177.881 8.65758 178.541C7.69086 178.994 7.33039 179.983 7.39436 181.649C7.39092 183.598 7.94085 184.34 9.42373 184.387C13.4515 184.79 18.1516 184.626 22.2027 184.168C25.2333 183.783 27.9188 184.103 27.2412 180.462C27.1018 179.581 27.3696 178.395 26.8479 177.681C26.5261 175.558 26.7133 173.418 27.407 171.321C27.8287 169.555 28.5411 165.907 28.2459 163.537C28.1094 162.441 25.8709 161.838 25.4769 161.784C25.6022 160.959 25.547 159.517 25.1029 158.944C25.9185 158.83 26.1235 158.615 26.2933 157.709C26.6992 156.243 26.7532 154.651 27.7584 153.415C29.5663 153.438 31.3681 152.98 33.175 152.924L33.2649 152.716C34.3336 152.703 35.3963 152.514 36.4107 152.144C36.6357 152.25 36.9234 152.342 37.0498 152.001L37.6533 150.115C44.6775 127.77 52.4635 105.37 60.0553 83.1887C60.4984 82.1102 61.0313 80.9641 61.7244 80.003C61.9591 93.575 64.8033 107.133 65.0475 120.698C65.3776 130.03 65.2926 139.264 66.1708 148.63C66.3968 150.612 66.637 150.546 66.933 150.424C67.0516 150.443 67.3307 150.502 67.4518 150.528C67.2539 152.497 67.0261 155.695 66.1811 157.709C64.3134 157.997 64.6479 159.43 65.0622 160.617C64.6166 160.998 64.6799 161.885 64.8122 162.375C63.0549 162.377 62.6717 163.806 62.7926 164.708C62.9598 166.216 62.8662 168.562 63.8728 169.85C64.4656 171.492 65.4304 173.042 65.8073 174.811C66.0442 176.113 65.9527 178.009 66.1811 179.301C65.6064 179.566 65.8499 179.982 65.753 180.787C65.2556 184.472 67.0066 183.845 70.1028 184.099C71.9585 184.509 86.0865 185.324 85.4759 182.872C85.5801 181.874 85.1156 181.436 84.9167 180.453C84.8274 180.192 83.0673 177.173 82.0174 176.03C78.4963 172.723 78.6501 168.283 78.7616 163.169C78.5545 161.782 77.4878 160.455 76.1267 160.604C76.5175 159.124 75.7931 157.837 74.2793 157.409C74.4306 155.732 74.5898 153.455 75.1433 152.005L74.622 151.474L75.3198 151.558L75.5515 150.974L75.8042 151.613C77.0023 151.613 78.3541 151.348 79.5018 151.223C79.6851 151.233 79.6033 150.984 79.6334 150.888C80.7172 150.664 80.8359 150.088 80.6443 148.717C80.8968 126.445 80.7872 104.382 80.4421 82.0687C82.1359 82.1442 83.7876 81.5266 85.4521 81.1151C86.0435 81.4861 86.2111 80.1649 86.1419 79.8797C86.048 78.4035 85.8653 76.9636 85.7009 75.6234Z" fill="white"/>
<path fill-rule="evenodd" clip-rule="evenodd" d="M50.9163 0.375977C51.1681 0.574653 51.1418 1.12542 51.1666 1.43374L51.1684 1.45393C51.2475 2.38524 51.1403 3.32085 50.9132 4.22506L50.8781 4.36293C50.7696 4.79508 50.6617 5.31307 50.3221 5.6095C49.9364 5.94616 49.3236 5.72823 49.3097 5.18535C49.3027 4.93305 49.387 4.69012 49.4935 4.45344C48.7462 4.74167 47.9989 5.02678 47.2484 5.30486C46.7691 9.26734 52.3068 14.1187 55.5131 15.8171C60.1822 18.4005 64.1108 14.4434 64.7085 9.79163C64.8089 9.17376 64.8762 8.53871 64.8893 7.91225L64.8901 7.85214C64.8927 7.33418 64.8067 6.64166 65.1444 6.21096C64.8958 6.2051 64.6751 6.24002 64.4318 6.27814L64.4435 6.29834C64.5813 6.5447 64.7762 7.15792 64.3397 7.20455C63.3973 7.10543 62.9589 5.45398 62.7292 4.66192L62.7201 4.62756C62.5718 4.03398 62.3829 1.87944 62.8297 1.62109C62.9671 2.15264 62.913 2.72989 63.0801 3.26301C63.4603 3.41611 64.1844 3.45751 64.3521 3.4857C66.3106 3.50836 67.421 4.9136 68.2148 6.55856C70.5418 8.46763 73.8867 8.13955 76.3994 9.7118C84.0886 15.2831 81.5774 36.972 85.4073 46.199C86.1741 45.8818 86.9557 46.5168 87.0581 47.2918C87.164 47.8878 87.1323 48.5259 87.1408 49.1297L87.1444 49.2051C87.207 50.4401 87.4207 51.8281 85.752 51.8551C85.7546 52.5445 85.8845 53.2119 86.0511 53.8774C86.9751 57.9058 87.3784 62.0551 87.4693 66.1848L87.4739 66.4882C87.5039 68.6588 87.5305 75.3738 86.2822 76.1683L86.3403 76.6413C86.4849 77.8242 86.621 79.0101 86.6971 80.199C86.8169 80.8161 86.4092 82.2947 85.5773 81.9033C84.0518 82.2804 82.5472 82.8369 80.962 82.8399C81.3461 95.6124 81.1551 108.398 81.2119 121.176C81.0895 130.595 81.5989 140.091 81.1536 149.474L81.1697 149.607C81.2956 150.66 81.3333 151.576 80.115 151.937C80.0975 152.195 79.899 152.333 79.6637 152.363C78.9959 152.453 78.3281 152.538 77.6596 152.62C77.0369 152.666 76.3705 152.821 75.7499 152.747C75.8099 152.808 75.647 152.817 75.6294 152.773C75.0635 154.192 74.8993 155.739 74.7592 157.254C76.1326 157.777 76.8822 158.954 76.658 160.43C78.0439 160.486 79.0559 162.025 79.2501 163.322C79.3745 164.217 79.2749 165.106 79.2347 166.003C79.0429 169.067 79.4936 172.369 81.4728 174.813C82.7576 176.348 84.4301 177.735 84.9908 179.733C85.143 179.805 85.2682 179.942 85.3231 180.157L85.6787 181.552L85.8556 182.249C85.9851 182.758 86.1002 183.278 86.0307 183.805L86.0234 183.856C85.677 187.19 72.0001 185.583 69.3307 185.343C68.2577 185.175 67.0803 185.267 66.1142 184.699C64.929 183.917 64.7809 182.331 64.9843 181.032L65.0012 180.911C65.0836 180.33 65.2042 179.721 65.7556 179.396C65.57 178.192 65.6418 176.961 65.421 175.762C65.0876 174.066 64.0788 172.594 63.5638 170.965C62.8126 170.13 62.7873 168.829 62.6302 167.761C62.5112 166.725 62.4138 165.683 62.3737 164.641C62.2647 163.263 62.8628 162.127 64.3119 161.947C64.2447 161.686 64.4288 161.461 64.6119 161.293C64.1798 159.76 64.0605 157.654 65.9349 157.131C66.6448 155.371 66.8512 153.465 67.0401 151.588C67.0176 151.583 66.9953 151.579 66.9728 151.576C66.114 151.933 65.8809 150.403 65.8005 149.595L65.7826 149.402C64.8988 140.063 64.9802 130.669 64.6483 121.301L64.6158 120.624C64.3248 114.451 64.1517 108.224 63.0837 102.134C62.0089 95.3467 61.728 88.4483 61.3605 81.5893C60.9278 82.2613 60.6951 83.0331 60.345 83.7491C55.801 97.0931 51.1387 110.397 46.6464 123.759C43.3904 133.433 40.2798 143.159 37.1598 152.878C37.0006 153.376 36.499 153.479 36.1319 153.32C35.1975 153.644 34.2169 153.828 33.2299 153.86C33.1705 153.996 33.0484 154.096 32.8698 154.077C32.342 154.019 31.7346 154.184 31.2067 154.245C29.9989 154.365 28.8264 154.55 27.6075 154.567C26.8525 155.521 26.805 156.815 26.4569 157.951C26.2565 158.53 26.2879 159.828 25.5959 159.991C25.8439 160.373 25.8764 160.832 25.8362 161.304C26.0514 161.353 26.2698 161.446 26.4723 161.54C26.6695 161.64 26.93 161.632 27.0659 161.832C30.9314 162.533 28.1065 169.87 27.4346 172.296C26.7751 174.28 26.5686 176.352 26.8696 178.424C27.3296 179.059 27.1755 180.003 27.2459 180.756C27.283 181.428 27.351 182.11 27.3449 182.782C27.2697 185.576 23.8191 185.122 21.8723 185.484C20.6567 185.625 19.4356 185.724 18.2145 185.8C15.1176 185.993 12.0033 186.007 8.91268 185.708C6.91721 185.645 6.48813 184.344 6.4913 182.564L6.48825 182.491C6.44329 181.283 6.63814 179.824 7.7858 179.196C7.84299 178.558 8.16689 177.913 8.49759 177.356C10.0354 174.771 12.3442 172.507 12.7984 169.405C13.2438 167.375 12.7392 162.906 14.8039 161.847C14.8519 160.933 15.4136 160.001 16.1093 159.507C16.2435 158.746 16.7493 158.046 17.0622 157.346C17.7004 156.01 18.2908 154.652 18.9256 153.315C18.5932 153.175 18.24 152.916 18.1936 152.549C17.8745 152.553 17.5592 152.347 17.5978 151.958C17.7105 150.831 17.9572 149.723 18.1902 148.615L18.2192 148.477C22.3642 128.449 30.9239 109.72 35.9318 89.9489C35.2579 90.0707 34.628 89.3005 34.2555 88.7991C33.0522 87.1796 32.3415 85.2201 32.029 83.232L31.4634 83.1619C29.5771 82.9304 27.6815 82.7277 25.7795 82.7822L25.3211 82.7975C24.8118 82.8131 24.3017 82.809 23.8176 82.6258C23.4798 82.6571 23.1282 82.4759 23.0447 82.097C21.636 75.0792 25.0987 68.4191 27.579 62.0776C28.1632 60.5185 28.5791 58.9367 28.9755 57.3222C28.9886 57.2698 29.0705 57.2808 29.0683 57.3347C28.991 59.1297 28.5458 60.9395 28.0936 62.6697C26.6089 68.5363 23.5158 74.2894 24.272 80.5004C26.6227 78.6498 29.4147 77.3644 32.3474 76.8205C32.5166 76.0855 32.7036 75.3559 32.8443 74.6162C32.706 73.4789 32.6117 72.3361 32.4911 71.1933C32.131 67.7751 31.5808 64.3655 30.8474 61.0074C29.7096 57.6285 28.7163 54.2038 28.3611 50.6412L28.2964 50.6539C27.5076 50.814 26.6385 51.1614 25.9066 50.6592C25.4421 50.3374 25.2411 49.8039 25.0535 49.2914C24.5174 48.0491 24.4182 46.4161 25.9351 45.8967C25.3696 41.9468 25.737 37.8233 26.4205 33.9104C26.9678 30.4805 28.1684 27.1014 27.719 23.5902C27.22 20.2161 26.2897 16.6822 27.6346 13.3794C29.8449 7.86733 35.4421 5.25213 40.9467 4.41047L41.0359 4.38428C41.7169 4.18275 42.337 3.97031 43.0465 4.12302C44.7201 1.01876 47.4343 2.28137 50.0848 2.97321C50.2638 2.44681 50.4128 1.9083 50.5531 1.37027C50.6404 1.09617 50.6116 0.463775 50.9163 0.375977ZM66.2572 180.902L66.2503 181.037C66.1802 182.491 66.2591 183.736 68.0618 183.727C69.3023 183.859 70.5429 183.988 71.7854 184.1L72.2514 184.141C75.9389 184.47 79.6707 184.631 83.3513 184.137L83.5046 184.116C83.8122 184.073 84.3818 184.081 84.6253 183.854C84.9188 183.459 84.579 182.706 84.5077 182.248C78.7649 182.181 73.0146 181.969 67.268 182.042C66.6637 182.046 66.3909 181.529 66.4465 181.059C66.3785 181.013 66.3144 180.96 66.2572 180.902ZM7.9505 180.173C7.6681 181.166 7.73766 182.104 7.89717 183.098C7.97693 184.138 8.47224 184.205 9.36858 184.23C12.8678 184.552 16.3922 184.485 19.8923 184.214C21.7683 184.012 23.6961 184.019 25.5371 183.605C26.4154 183.216 25.9084 181.992 25.9383 181.242C21.8036 183.905 15.5505 183.567 11.0418 182.026L10.9695 181.995C9.90299 181.547 8.53961 181.265 7.9505 180.173ZM14.7993 162.252C14.324 162.788 14.3141 164.314 14.2941 164.834L14.2916 164.892C14.2382 165.983 14.2467 167.077 14.1994 168.168C14.2343 172.763 11.5797 175.055 9.60823 178.75C9.06902 179.647 9.85345 179.774 10.4915 180.065C14.6232 181.987 19.5104 182.281 23.8267 180.809C25.9964 180.179 25.5227 178.719 25.3385 176.934C25.1571 173.286 27.0775 169.999 27.6455 166.47L27.6608 166.379C27.8301 165.342 28.1228 162.687 26.4715 163.255C26.1122 163.476 25.7744 163.199 25.7319 162.86C25.6891 162.867 25.6452 162.871 25.6029 162.871C25.4119 164.051 25.2141 165.229 25.024 166.408C25.1839 166.51 25.3339 166.625 25.4668 166.756C25.6283 166.916 25.5155 167.252 25.272 167.232C25.1469 167.221 25.0233 167.202 24.9003 167.178C24.8028 168.204 23.1739 167.628 23.6444 166.807C21.3023 165.998 18.7219 166.062 16.3434 166.682L16.3336 166.687C16.1495 166.76 14.8255 167.025 15.2514 167.232C15.4289 167.253 15.0247 167.485 14.9539 167.126C14.931 166.675 15.9601 166.454 16.2754 166.267C15.4802 165.129 14.9368 163.655 14.7993 162.252ZM74.8024 158.649C72.5961 157.455 69.8846 157.898 67.4915 158.11L67.391 158.121C66.7819 158.187 65.9331 158.227 65.6535 158.854C65.2487 159.859 65.9197 162.106 66.1304 163.224L66.2022 163.517C66.377 164.232 66.5428 164.941 66.6027 165.681C66.6042 165.704 66.5818 165.721 66.5609 165.721C65.7226 164.826 65.3458 163.621 64.9542 162.473C64.7872 162.568 64.6242 162.671 64.4704 162.785C63.8696 164.849 63.6684 167.046 64.1442 169.152L64.1612 169.226C64.7489 171.828 66.5786 173.955 66.7526 176.675C66.8688 177.774 66.8427 178.9 67.1591 179.968C67.339 180.007 67.4959 180.14 67.5664 180.307L68.5978 180.308C73.5833 180.317 78.5702 180.362 83.5525 180.567C83.3918 179.166 82.1553 177.924 81.2843 176.963C78.6118 174.227 77.4558 170.297 77.8961 166.509C78.1277 164.614 79.1856 161.637 76.5978 160.937C76.4088 162.481 76.1533 164.02 76.012 165.571C76.5004 165.806 76.4702 166.427 75.8736 166.415C75.6058 167.316 74.7078 166.952 74.8048 166.102C71.5204 164.889 69.6361 164.483 66.4364 166.31C66.3468 166.297 66.6823 165.938 66.7247 165.874C67.7359 164.784 69.2889 164.272 70.7458 164.253C72.1901 164.253 73.5484 164.797 74.9107 165.218C75.1155 163.755 75.2534 162.283 75.4157 160.814L75.4509 160.5C75.5359 159.729 75.5049 159.092 74.8024 158.649ZM22.0207 177.544C22.5014 177.437 22.9436 177.274 23.4319 177.385C25.1507 178.675 18.1277 179.039 17.5298 178.948C16.0075 178.903 14.4846 178.71 13.0196 178.28L12.9175 178.249C12.7732 178.209 11.3129 177.803 11.5898 177.621C13.5713 177.797 15.5112 178.16 17.5298 178.066C18.5368 178.045 19.5476 177.974 20.5438 177.822C21.0392 177.746 21.5323 177.654 22.0207 177.544ZM68.4528 175.945C68.1382 175.474 69.6722 176.1 69.8718 176.105C71.1421 176.418 72.4349 176.656 73.7398 176.754C74.6147 176.821 75.4988 176.835 76.3752 176.792C77.0242 176.769 77.6662 176.673 78.3111 176.607L78.3343 176.606C78.7175 176.593 79.4853 176.83 79.0121 177.286C78.2762 177.857 77.1874 177.683 76.3056 177.767C73.6274 177.758 70.7914 177.327 68.4528 175.945ZM18.1017 172.518C18.8738 172.378 23.1237 172.333 22.7 173.637C22.5973 173.884 22.3623 173.966 22.115 173.927C19.4848 173.288 16.6476 172.953 14.0257 173.835C13.9832 173.85 13.9538 173.78 13.9956 173.762C15.2847 173.116 16.664 172.664 18.1017 172.518ZM73.2652 171.243C73.9591 171.191 74.6571 171.209 75.3513 171.261L75.6356 171.284C75.9284 171.307 76.2276 171.338 76.5073 171.423L76.563 171.44C76.9442 171.563 77.8033 172.218 77.1512 172.533C76.451 172.76 75.8589 172.49 75.1834 172.317C73.3006 171.871 71.3214 172.022 69.456 172.478L69.7187 172.562C69.7349 172.55 69.7559 172.578 69.7403 172.591C69.5518 172.756 69.2929 172.697 69.1592 172.492C69.136 172.457 69.1507 172.401 69.1878 172.382C70.4521 171.718 71.8463 171.351 73.2652 171.243ZM14.6231 171.077C16.7495 170.136 19.2132 170.032 21.4936 170.305L21.656 170.325C22.3675 170.408 23.2954 170.447 23.7024 171.109C23.8431 171.339 23.6978 171.602 23.4706 171.685C22.8014 171.929 22.0145 171.439 21.3716 171.257C19.4703 170.737 17.4398 170.682 15.5065 171.042C15.52 171.113 15.1998 171.082 15.1301 171.107C15.0427 171.103 14.4628 171.294 14.6231 171.077ZM68.2457 169.608C70.1008 168.706 72.2456 168.491 74.2483 168.956L74.3316 168.98C75.219 169.229 76.6477 169.523 76.9656 170.462C77.0344 170.674 76.8853 170.96 76.6619 171.003C75.9052 171.147 75.2183 170.595 74.5335 170.329C72.519 169.573 70.2385 169.391 68.1553 169.948C68.1414 170.03 68.1275 170.112 68.1127 170.194C68.1483 170.17 68.1854 170.222 68.1568 170.251C67.8244 170.484 67.4785 169.897 68.2457 169.608ZM19.4031 168.022C20.9041 167.922 22.4177 168.113 23.8667 168.509L24.1392 168.584C24.5352 168.695 25.0482 168.87 25.1059 169.298C25.1283 169.468 25.0858 169.585 24.9474 169.691C24.443 170.068 23.3459 169.277 22.7187 169.184C20.4416 168.5 17.9975 168.51 15.6909 169.034L15.6123 169.052L15.668 169.448C15.7226 169.637 15.2157 169.191 15.4083 168.987C16.6259 168.367 18.0467 168.134 19.4031 168.022ZM69.6607 167.314C70.8654 167.097 72.1081 167.056 73.3261 167.165L73.47 167.178C74.1973 167.243 76.554 167.336 75.9966 168.566C75.903 168.771 75.6318 168.798 75.4563 168.709C74.8674 168.41 74.2236 168.302 73.5736 168.204C71.2788 167.885 68.9342 168.016 66.6938 168.634C66.7425 168.71 66.642 168.801 66.547 168.819C66.3105 168.863 66.3105 168.581 66.4117 168.431C66.5324 168.253 66.7727 168.188 66.9581 168.11C67.8209 167.734 68.7358 167.48 69.6607 167.314ZM24.0347 160.474L23.8975 160.441C21.5986 159.901 16.5018 158.931 15.974 162.097C15.7867 163.492 16.4046 164.852 16.359 166.233C18.7428 165.264 21.3789 165.274 23.8555 165.915C24.0749 164.481 24.2843 163.046 24.5085 161.614L24.5447 161.442C24.6445 160.959 24.6783 160.581 24.0347 160.474ZM18.9147 161.051C19.4156 160.621 20.2511 160.627 20.7424 161.096C21.1918 161.19 21.5088 161.667 21.516 162.076C22.1993 163.277 21.3754 164.936 20.0709 165.236C17.1253 165.857 15.8085 161.811 18.9147 161.051ZM69.9482 159.134C72.4128 158.694 73.3081 161.821 71.2853 163.089C68.4279 164.522 66.5239 160.016 69.9482 159.134ZM20.1342 152.19C20.1705 152.429 20.0529 152.599 19.9124 152.761C19.4071 154.832 18.6466 156.759 17.8968 158.745C20.3361 158.34 22.6408 158.693 24.7991 159.356C24.8249 158.75 25.1011 158.122 25.2929 157.55C25.6664 156.466 26.1179 155.409 26.6387 154.388L26.7042 154.261C26.8912 153.898 27.0713 153.518 27.2922 153.171C24.9049 152.845 22.5175 152.551 20.1342 152.19ZM68.2155 151.749L68.152 152.037C67.8779 153.287 67.6179 154.549 67.2101 155.764L67.2045 155.789C67.1421 156.096 67.0017 157.515 66.9133 156.513C66.8453 156.664 66.7727 156.813 66.6954 156.96L67.2865 156.889C69.4913 156.631 71.7915 156.424 73.9539 156.978C73.7295 155.239 74.0598 153.579 74.542 151.935C72.4285 151.886 70.3337 151.902 68.2155 151.749ZM28.191 153.91C28.1138 153.982 28.0381 154.056 27.9661 154.134C28.0636 154.109 28.161 154.085 28.2513 154.063C28.2476 154.006 28.2073 153.963 28.191 153.91ZM75.8195 152.315L75.7507 152.477C75.7863 152.456 75.8258 152.436 75.8682 152.418C75.8489 152.386 75.8326 152.353 75.8195 152.315ZM18.8282 151.961C18.8032 152.053 18.7841 152.155 18.7392 152.239C18.7748 152.246 18.8111 152.253 18.8475 152.261C18.8915 152.172 18.9379 152.085 18.9881 152C18.9348 151.987 18.8814 151.975 18.8282 151.961ZM37.2116 49.4484C36.9952 49.5531 36.7695 49.5797 36.4713 49.5922C34.0475 49.6927 31.6314 49.9734 29.2514 50.4522C29.3828 52.3777 29.9686 54.243 30.526 56.0786L30.6416 56.4809C32.5252 63.0581 34.1693 69.9311 33.8382 76.8104C33.8567 76.8174 33.8745 76.8268 33.8916 76.8354C33.8614 76.9197 33.8399 77.006 33.8096 77.0895L33.7903 77.1392L33.6772 77.4201C33.6147 77.5761 33.554 77.7326 33.5012 77.893C33.4087 77.9264 33.295 77.9508 33.1867 77.9664C32.6368 81.6086 33.1596 85.6923 35.6374 88.5405C34.7541 86.7624 34.446 84.7425 34.4849 82.7671L34.4918 82.4652C34.502 82.0919 34.5243 81.7201 34.6381 81.3659C34.6427 81.3472 34.6674 81.3503 34.6737 81.3659C35.1983 82.9861 35.2324 84.7462 35.7479 86.3784L35.7873 86.5036C36.1949 87.7826 36.8756 89.4293 38.0579 90.0903C38.2755 90.1551 38.6103 90.0784 38.7235 90.3292L38.731 90.3472L38.738 90.3449C38.2102 88.616 37.8704 86.8283 37.754 85.0236L37.7464 84.9005C37.7093 84.2709 37.6275 83.596 37.7844 82.9812C38.0834 83.5434 38.0091 84.4616 38.1483 85.1418L38.1538 85.1806C38.2637 85.9157 39.322 91.5348 40.0171 90.7839C40.1607 90.5768 40.1233 90.1765 40.1277 89.93L40.1283 89.9059C40.1392 89.5497 40.1353 89.1935 40.123 88.8373C40.0479 86.739 39.7218 84.5855 40.3609 82.5415C40.4676 82.197 41.0473 82.1322 41.1176 82.5415C41.3989 84.1787 41.6678 85.8175 41.9367 87.4563C42.1328 88.4572 42.1246 89.5863 42.7204 90.4496C42.7273 88.5648 42.6229 86.6854 42.5325 84.8028L42.5083 84.7244C42.4369 84.4869 42.3665 84.1784 42.5303 83.9764C42.596 83.5468 43.2236 83.596 43.2768 84.0459C43.2885 84.1397 43.2969 84.235 43.3062 84.3295C43.5142 84.5904 43.7074 84.8567 43.9531 85.0809C45.594 81.7298 40.2251 75.9423 39.4838 72.158C37.3008 64.7885 38.5559 57.0616 39.1908 49.557C38.5342 49.4793 37.8722 49.4585 37.2116 49.4484ZM68.4543 7.03427C69.602 9.33858 70.4444 11.7772 71.0279 14.287C71.2077 15.0618 70.1687 15.5374 69.749 14.8585L69.7365 14.8376C69.2203 13.9762 68.4511 13.2175 67.4775 12.9208C66.8141 15.7029 67.1374 18.643 67.482 21.4522C68.0932 25.3661 68.5795 29.2966 68.6523 33.2627L68.6558 33.4752C68.8688 47.0196 70.8586 60.503 73.038 73.764C76.5222 74.324 79.7118 75.9032 82.9234 77.2916C83.4814 77.5095 84.0518 77.6993 84.6361 77.8305C83.0225 62.796 76.8858 48.6962 74.9895 33.7166C74.4884 29.8207 74.4648 25.8646 75.1572 21.9912C75.1688 21.917 75.2739 21.942 75.2785 22.0076C75.3546 23.5987 75.6265 25.169 75.7878 26.7514C75.8975 25.8476 76.151 24.9321 76.3558 24.0659C76.6062 23.2184 76.6988 21.8579 77.4325 21.3054L77.4788 21.1452C77.4981 21.0765 77.6001 21.1054 77.584 21.1741C77.5762 21.207 77.5684 21.239 77.5615 21.2718C78.0327 21.3972 77.5925 21.9563 77.4757 22.224C76.7193 24.2543 76.4943 26.4521 75.9779 28.5448C76.725 35.0778 78.0706 41.5279 79.7278 47.8776C81.2504 47.4756 82.7781 47.0887 84.3045 46.6958C80.8997 35.5907 82.8906 23.1973 77.7894 12.5936C75.8782 9.03503 71.1714 9.51847 68.4543 7.03427ZM42.586 5.00413C41.8719 4.96585 41.126 5.35407 40.4405 5.48764C39.5317 5.66418 38.6274 5.804 37.7387 6.07513C33.1894 7.32445 28.8003 10.7361 27.9762 15.6516C27.4097 19.0268 28.8124 22.3154 28.7631 25.6812C28.6151 29.0158 27.5174 32.2208 27.0897 35.5218C26.5753 38.8974 26.3981 42.4305 26.8394 45.8225C30.9204 44.6627 35.1824 44.5901 39.3671 45.189C39.0181 40.0479 39.4761 34.8814 39.7295 29.7438C39.9119 26.4444 40.2241 23.1301 40.1137 19.8244C40.1113 19.7509 40.2303 19.733 40.2417 19.8064C41.4968 26.558 40.7607 33.4119 40.6338 40.221C40.5534 41.9414 40.766 43.6781 40.6802 45.3889C42.5827 45.7993 42.5139 48.0217 41.9321 49.4866C41.829 49.8392 41.479 49.778 41.1957 49.7351C40.8886 50.0583 40.1562 49.6366 39.7388 49.6367C39.412 58.0885 37.427 67.1161 41.4947 75.0156C43.1953 75.025 44.8323 74.4371 46.4851 74.1038L46.5753 74.0858L46.5776 74.085C46.8206 73.7681 46.9394 73.2589 46.9719 72.886C47.2029 66.3772 46.4799 59.8535 46.9028 53.3439C47.4209 46.1186 49.0298 38.9373 48.2857 31.6631C47.771 25.1617 46.3587 18.7781 45.6778 12.2962L45.6433 11.9608C45.6009 11.5612 45.5848 11.1196 45.3875 10.8149C44.2389 11.8633 43.2752 13.11 42.5851 14.5127C42.2031 15.1902 41.1797 14.8887 41.164 14.1237C41.0168 12.7579 40.995 11.3869 41.1441 10.0207L41.1577 9.90021C41.3425 8.19009 41.8583 6.55786 42.586 5.00413ZM85.2844 51.9113C83.8052 51.9897 82.3241 52.1541 80.8422 52.1347L80.9914 52.6955C82.7853 59.4245 84.6954 66.1415 85.8216 73.0266L85.8625 72.381C85.9032 71.7353 85.9422 71.0892 85.9676 70.4419C86.2871 64.2542 85.7992 58.0746 85.2844 51.9113ZM46.7762 8.96598C46.7824 9.24562 46.7963 9.52448 46.8181 9.80256C47.5017 10.8301 47.441 12.1958 47.594 13.3778C48.452 19.761 49.7155 26.118 50.1412 32.5676C50.5373 37.7271 49.8905 42.8684 49.2294 47.976C48.4141 53.8255 48.4996 59.7357 48.689 65.6247C51.8216 62.7837 56.2741 62.2852 60.2267 61.4027L60.4147 61.3644C63.4539 60.7408 66.4868 59.8369 69.0688 58.0611C67.2119 44.7524 67.6489 31.2724 65.7502 17.9755C65.6917 16.9284 65.6797 15.8753 65.7664 14.8291C65.683 13.6964 65.6581 12.5575 65.656 11.4218C64.8239 14.7768 62.0361 18.0182 58.3834 17.9123C54.497 17.6837 51.1982 14.4945 48.6643 11.7608C47.9773 10.9453 47.2941 9.99316 46.7762 8.96598ZM80.9565 51.9176L80.7811 51.909L80.7919 51.9473C80.828 51.94 80.8647 51.9334 80.9015 51.927L80.9565 51.9176ZM85.7775 47.373C85.7498 47.3644 85.7025 47.3644 85.65 47.3668C85.5743 47.5417 85.4213 47.6862 85.2436 47.7339L83.7607 48.1354C82.5248 48.4698 81.2882 48.8028 80.0501 49.1266C80.2579 49.9296 80.469 50.7326 80.6822 51.5348C82.3708 50.9884 84.2406 51.1124 85.9623 50.7607C85.9411 49.8338 85.8907 48.9022 85.8749 47.9737C85.871 47.8221 85.9019 47.5784 85.8247 47.4425C85.776 47.3558 85.8247 47.3878 85.7775 47.373ZM29.0528 50.4928L29.0064 50.503C29.0218 50.5451 29.0358 50.5873 29.049 50.6303C29.0497 50.5842 29.0504 50.5389 29.0528 50.4928ZM40.0465 46.0326C36.865 45.5674 33.6294 45.2926 30.4207 45.6091C28.9693 45.8065 27.496 46.0171 26.0735 46.2865C25.5788 47.0495 26.1261 48.9063 26.742 49.4937C26.9267 49.564 27.2443 49.4273 27.4213 49.3875C28.7493 49.0862 30.0901 48.8435 31.4378 48.654C31.4779 48.7048 31.5367 48.7376 31.6093 48.7306L31.9189 48.7018C33.7776 48.5317 35.6527 48.4069 37.5154 48.5134L37.5292 48.5244C38.786 48.6165 40.0383 48.8155 41.2899 48.9595C41.7839 47.6612 41.6988 46.1717 40.0465 46.0326ZM63.1953 3.6934C63.3181 4.11177 63.4659 4.51835 63.6496 4.91352C63.8414 4.86017 64.106 4.90297 64.247 5.02444L64.307 5.01353C64.472 4.98205 64.6701 4.93391 64.7216 4.92836C66.9948 4.61216 66.8216 7.66885 66.8298 9.20501C66.8438 9.97519 66.8592 10.7462 66.8824 11.5163C67.533 11.2936 68.4028 11.694 68.9714 12.0483C68.5262 10.5587 68.003 9.09331 67.4195 7.6537L67.309 7.37319C66.8493 6.21175 66.3404 5.03569 65.3638 4.22691C64.6212 4.03171 63.9019 3.99625 63.1953 3.6934ZM46.7137 2.9265C44.6009 2.16904 43.7639 3.8904 43.1779 5.60716C42.487 7.50841 42.2984 9.60182 42.4136 11.6476L42.4847 11.553C43.262 10.5114 44.3829 8.79198 45.8002 9.06831C45.7862 8.27797 45.8147 7.40975 45.9655 6.58903C45.8775 6.05942 45.855 5.52436 45.9162 4.98929C45.9485 4.31838 46.6755 4.42016 47.1542 4.32533C47.5684 4.04803 48.07 3.93633 48.5739 4.13161C48.9541 4.08084 49.3343 4.03241 49.7146 3.98398C49.7729 3.8551 49.8201 3.72559 49.8691 3.59342C48.8168 3.37478 47.7648 3.14943 46.7137 2.9265Z" fill="black"/>
</g>
<defs>
<clipPath id="clip0_43_56">
<rect width="124" height="188" fill="white"/>
</clipPath>
</defs>
</svg>
