<svg width="124" height="188" viewBox="0 0 124 188" fill="none" xmlns="http://www.w3.org/2000/svg">
<g clip-path="url(#clip0_43_76)">
<path fill-rule="evenodd" clip-rule="evenodd" d="M39.6502 39.8215L39.5435 41.0911L39.4639 40.9423C39.4526 43.5034 39.0723 46.0926 38.6529 48.6478C37.5566 47.7482 36.6553 46.9551 36.9156 45.4194C37.5749 43.2309 38.4204 41.096 39.104 38.9194L39.2186 39.4901L39.6698 39.5808L39.6502 39.8215ZM117.948 174.74C117.746 173.851 117.526 172.908 117.319 172.016C117.299 171.941 117.11 171.924 117.049 171.904C115.958 169.237 115.003 168.629 112.889 168.266C109.481 167.651 106.117 166.317 102.897 164.34C102.973 164.046 103.178 163.538 103.365 162.996C103.34 163.004 103.316 163.011 103.291 163.016C103.247 163.025 103.207 163.027 103.168 163.024C102.95 163.536 102.712 163.985 102.586 164.151C102.184 163.892 101.736 163.607 101.342 163.332L101.344 163.327C100.993 163.085 100.56 162.785 100.216 162.598C100.152 162.243 99.6311 162.134 99.359 161.899C98.8307 161.523 98.5377 161.328 98.0532 161.809C97.0081 160.455 96.1663 159.023 95.3388 157.171C94.8209 156.089 94.5665 154.891 93.8702 153.924C93.8836 153.917 94.3262 153.779 94.3371 153.767C86.4244 136.275 85.1567 116.812 83.4688 98.1156C83.0965 93.9346 82.7071 89.7149 81.9813 85.6565C81.8817 85.0419 81.7923 84.4366 81.4217 83.9465C85.8683 80.2905 85.9117 73.204 83.7578 67.948C88.71 54.618 79.003 40.4602 79.7193 26.8559C80.1208 17.6279 78.4562 6.93561 68.0096 4.7215C66.7141 3.97747 65.1611 3.8664 63.9249 3.84632C62.812 3.28533 62.6366 2.04671 62.2404 1.0285L61.8533 1.03091C61.7397 0.570083 61.6272 0.064814 61.5295 -0.399471C61.3826 -0.693879 61.4697 -1.07755 61.0068 -0.995957C59.9578 -2.51139 51.5629 -3.27324 51.4675 -0.833149C51.1645 -0.65485 51.1046 -0.306824 51.0341 0.1158C50.5685 3.11267 47.3613 5.5026 44.4714 5.02064L44.4246 4.97846C32.1217 4.5235 27.2785 13.2569 24.8744 25.1593C22.996 34.4072 21.802 44.4295 23.273 53.6927C24.7101 57.8907 29.0631 59.9106 32.4307 62.4967C32.0425 63.4729 32.0063 64.5498 31.9944 65.606C31.9501 66.8253 31.8612 68.0546 31.7531 69.2576C31.5316 70.7823 31.1731 73.4065 33.253 73.5845C34.0587 91.8066 35.7417 109.981 33.1701 128.256C31.0352 138.363 31.8525 150.592 34.4921 160.481C34.6444 160.969 35.0355 161.409 35.5351 161.253C35.7888 161.416 35.987 161.519 36.1968 161.364C36.3204 161.593 36.4559 161.812 36.6023 162.025C36.6578 164.742 36.9664 167.407 36.8259 170.142C36.6164 170.118 36.1554 169.887 35.9763 170.038L35.9507 170.246L35.7802 170.304C35.4233 171.309 35.1993 172.364 35.0336 173.215C34.3114 174.673 33.3887 177.254 33.9032 178.879C33.8783 178.908 33.7397 179.069 33.7179 179.093C33.595 179.163 33.5723 179.257 33.5423 179.365C33.1918 179.496 33.1558 179.896 33.1197 180.305C32.9442 181.295 33.205 182.195 33.2946 183.164L33.2999 183.157C33.2999 183.157 33.5942 183.498 33.5946 183.498C37.2931 183.723 40.9351 183.781 44.6172 183.913C44.895 183.381 44.9787 182.664 45.1875 182.08C49.5528 185.267 57.116 184.048 62.5991 183.265C64.8258 182.945 66.9295 182.642 68.7946 182.542C68.916 182.525 68.9247 182.473 68.9278 182.424C68.9461 181.695 69.0836 180.947 69.015 180.239C69.4002 179.866 69.2246 179.186 68.9599 178.588C67.9867 176.485 65.3414 176.255 63.1982 175.896C59.1661 175.115 55.9239 173.646 53.301 171.401C53.4775 171.242 53.6377 171.085 53.7836 170.932C53.7266 170.894 53.6696 170.857 53.6128 170.818C53.4748 170.758 53.3428 170.696 53.2217 170.618C53.1601 170.653 53.0828 170.66 53.0065 170.617C52.7429 170.469 52.5281 170.252 52.2777 170.086C52.228 170.157 52.1781 170.23 52.1279 170.306C51.8877 170.053 51.6159 169.767 51.3784 169.502C51.3699 169.429 51.3892 169.247 51.2997 169.227C50.6245 169.295 49.8423 169.522 49.1359 169.774C48.3375 167.156 47.875 164.323 47.9284 161.647C48.7136 161.647 49.4013 161.64 49.9867 161.267C50.1468 161.31 50.3697 161.403 50.4111 161.152C50.6487 160.127 50.7105 159.042 50.7702 157.993C51.9855 138.148 53.8371 122.201 59.9786 105.39C60.5684 107.724 61.5586 110.151 62.4597 112.475C66.5592 122.186 69.5126 132.659 72.0442 142.852C73.0403 146.668 74.123 150.86 75.1924 154.636C75.6072 156.451 76.4502 157.115 78.2169 157.101C79.5783 157.165 80.9443 157.145 82.3112 157.049C84.1746 158.744 84.9388 161.033 85.4832 163.093C85.0296 163.43 84.3097 163.303 83.7794 163.414C83.3222 164.149 83.4804 165.178 83.4911 166.085C83.5628 167.264 83.5017 168.528 83.8456 169.641C83.907 170.858 83.9146 172.192 84.0064 173.607C82.9961 174.191 83.1812 175.483 83.5167 176.719C83.6666 177.033 89.0963 176.971 90.4432 176.958C92.0258 176.866 94.2828 177.269 94.8018 175.538C98.5698 177.626 104.302 176.921 108.692 176.306C111.878 175.919 114.764 175.558 117.893 174.901C117.925 174.887 117.971 174.786 117.948 174.74Z" fill="white"/>
<path fill-rule="evenodd" clip-rule="evenodd" d="M83.7819 163.38C84.631 163.85 85.3102 164.584 86.2016 164.991C90.0593 166.92 94.943 165.881 97.8825 162.788C98.2971 162.797 98.6299 162.344 98.542 161.936C99.4239 162.014 100.119 162.692 100.776 163.227C100.686 163.847 100.727 164.47 100.978 165.063C100.998 165.11 101.083 165.129 101.094 165.063C101.17 164.612 101.248 164.157 101.351 163.712C101.536 163.863 101.724 164.007 101.915 164.15C101.932 164.521 102.319 164.791 102.636 164.663C105.233 166.422 108.169 167.671 111.218 168.401C113.603 168.898 114.842 168.847 115.901 171.355C115.508 171.433 115.123 171.623 114.533 171.767C104.559 172.929 94.4932 171.677 84.5033 172.524C84.3697 170.332 84.2502 168.141 84.0992 165.95C84.0461 165.162 84.023 164.366 83.7163 163.63C83.7223 163.539 83.7367 163.451 83.7653 163.381C83.7706 163.381 83.7759 163.381 83.7819 163.38ZM84.1543 157.983C84.1865 157.837 84.0719 157.714 83.9583 157.617C83.8279 157.398 83.6794 157.191 83.503 157.016C86.9672 156.711 90.2887 155.647 93.5428 154.55C93.936 157.342 95.3315 159.878 96.904 162.182C94.2349 164.959 89.8885 165.635 86.3946 164.117C86.6276 163.604 86.1276 162.862 86.0004 162.332C85.5621 161.062 84.9621 159.849 84.4422 158.615C84.3533 158.411 84.2598 158.196 84.1543 157.983ZM83.4412 157.935C83.4645 157.951 83.4887 157.969 83.512 157.984C83.5264 158.018 83.5399 158.053 83.5542 158.087C83.5181 158.048 83.4811 158.01 83.4442 157.972C83.4434 157.959 83.4427 157.947 83.4412 157.935ZM51.416 169.452C51.4854 169.574 51.5577 169.695 51.6331 169.814C51.4881 169.904 50.395 172.221 51.0059 171.85C51.3452 171.368 51.6844 170.883 52.05 170.419C52.1517 170.554 52.2565 170.687 52.365 170.817C51.9889 171.087 52.1351 171.72 52.6334 171.721C52.8116 171.722 52.9498 171.685 53.1158 171.623C55.3456 173.753 58.2772 175.013 61.2282 175.793C63.6734 176.558 68.2792 176.167 68.4036 179.646C68.1549 179.64 67.8883 179.72 67.6988 179.899C56.9032 183.545 45.7498 179.702 34.8611 178.637C35.0113 178.336 34.82 177.792 34.4216 177.816C34.4178 175.38 35.0926 172.961 36.0694 170.744C41.6096 176.018 45.5765 170.859 51.165 169.597C51.2728 169.576 51.3557 169.522 51.416 169.452ZM54.2722 168.505C54.2562 168.505 54.2155 168.5 54.1998 168.505C53.9749 169.262 53.4969 169.944 52.8882 170.433C52.7261 170.285 52.5671 170.134 52.411 169.98C52.8173 169.509 53.2621 169.074 53.7769 168.706C53.9213 168.608 54.0899 168.494 54.2722 168.505ZM32.7301 71.0426C32.5859 70.5162 32.749 69.9654 32.7655 69.4302C32.8891 67.9737 33.0572 66.5058 33.0248 65.0424C32.9849 64.5158 32.9738 64.0067 33.0911 63.4925C33.0554 63.3545 32.9319 63.6807 32.8952 63.7113C32.8876 63.67 32.8778 63.6286 32.8695 63.5873C32.9283 63.5203 32.9909 63.4617 33.0587 63.4053C35.954 65.7945 38.76 68.2917 41.4659 70.8929C41.7463 71.1614 42.1601 71.1449 42.4428 70.8929C43.0292 70.3695 43.6368 69.8785 44.2625 69.416C44.4788 70.1214 44.8097 70.7749 45.1881 71.4066C42.715 71.7077 40.2746 71.0519 37.819 70.8606C36.1723 70.7344 34.5194 70.8119 32.8839 71.029C32.8416 71.0351 32.7753 71.0351 32.7301 71.0426ZM38.1823 47.6479C37.3188 46.9033 36.9569 46.4167 37.063 45.2437C37.5738 43.5105 38.2359 41.8257 38.8012 40.1106C38.8739 40.4729 38.8801 40.8439 38.9105 41.2114C38.7107 43.3621 38.556 45.5201 38.1823 47.6479ZM39.0605 39.5082C39.0484 39.4857 39.0364 39.463 39.0235 39.4413C39.0424 39.3834 39.0612 39.3254 39.0801 39.2676C39.0733 39.348 39.0673 39.4278 39.0605 39.5082ZM23.4892 52.7464C23.4945 51.8267 23.3739 50.901 23.3204 49.9836C22.8787 42.2663 23.4203 34.4928 24.9343 26.9115C26.9309 16.1925 30.6298 5.42885 43.4114 5.21025C43.8598 5.6152 44.0172 6.23988 44.267 6.77666C45.0202 8.26419 46.1267 9.55237 47.3952 10.6284C52.653 14.8978 66.5576 19.7717 67.7789 9.42829C67.7817 9.10703 67.7599 8.76796 67.7079 8.42881C67.8232 8.07303 67.7697 7.62717 67.6883 7.22704C67.7433 6.9406 67.6589 6.61197 67.5134 6.30283C67.5375 6.2826 67.5601 6.26004 67.5797 6.23522C67.0059 5.14242 66.0223 4.78484 64.93 4.37327C64.7794 4.22287 64.9128 3.91154 65.1442 3.99276C65.653 4.17098 66.1762 4.29123 66.7068 4.38222C66.7807 4.39508 66.8274 4.43343 66.8508 4.48224C79.2462 8.22539 78.841 18.4109 78.6505 29.1766C78.8382 40.7755 85.574 51.665 83.6085 63.3842C81.2886 49.2426 76.7251 35.4895 75.6894 21.1293C75.6115 19.8415 75.4199 18.5699 75.2744 17.2889C75.2001 16.7493 75.119 15.238 74.9338 15.4908C74.0491 20.4296 74.7402 25.504 75.4825 30.421C77.1191 40.4134 79.8232 50.1908 81.6532 60.1454C82.6629 64.5708 82.7713 69.2241 78.3219 71.7832C73.5127 74.4233 67.5288 73.8928 62.3325 72.8228C61.9179 72.7256 61.6044 72.9406 61.4551 73.2369C60.4406 71.1163 58.1639 70.0726 56.682 68.3331C55.198 66.4353 54.2272 64.1915 52.8625 62.2088C53.0012 61.0025 51.877 59.1007 50.5936 59.0753C47.353 55.7 43.8479 52.5758 40.06 49.8234C40.005 49.6497 39.8572 49.5519 39.7532 49.3963C39.5986 49.134 39.4982 48.8068 39.5225 48.5044C40.0976 45.1901 40.2319 41.7514 39.3326 38.4802C40.9361 33.5095 41.9119 28.3764 42.8272 23.247C42.9128 22.9989 42.4964 22.8825 42.4345 23.1387C42.3267 23.6831 42.2234 24.2283 42.1224 24.7735C40.2742 31.5793 38.0724 38.2719 35.6705 44.9007C35.3902 45.825 35.1279 46.7477 35.2862 47.7155C35.4233 48.2799 36.2811 48.2255 36.3792 47.647C36.5711 47.591 36.7409 47.6408 36.891 47.7546C36.8926 47.7524 36.8933 47.7501 36.8948 47.7486C38.0441 49.3879 39.5671 50.743 41.1168 52.0259C43.7716 54.2774 46.3754 56.5891 48.8275 59.0602C49.4101 59.8115 51.366 61.1527 51.5043 62.1682C51.2478 63.9769 49.3713 64.8345 47.898 65.5416C45.7547 66.5805 43.7445 67.8961 41.9619 69.4738C38.081 65.8941 34.0377 62.4808 29.7646 59.3746C27.314 57.6148 24.2786 55.8703 23.4892 52.7464ZM66.9842 6.39984C66.9948 6.45781 67.0046 6.51572 67.0144 6.57287C66.9684 6.50895 66.9209 6.44578 66.8704 6.38562C66.9081 6.39089 66.9458 6.3954 66.9842 6.39984ZM80.9808 82.8069C80.9393 82.6842 80.8956 82.5625 80.8519 82.4406C80.9653 81.897 81.1363 81.3872 81.1881 80.8156C82.2871 79.7013 82.9693 78.1839 83.1517 76.636C83.206 76.181 83.2376 75.7448 82.903 75.3891C82.7801 75.2582 82.5193 75.244 82.3987 75.3891C81.9886 75.8817 82.0949 76.6239 81.9487 77.2248C81.641 78.4974 80.9291 79.6973 79.9089 80.5072C79.3343 80.9757 78.6007 81.5671 77.943 81.7473C78.4562 79.7459 79.5856 77.841 79.7353 75.732C79.7785 75.1138 79.7393 74.5356 79.5878 73.934C79.4751 73.5594 79.3057 73.2338 79.4393 72.8436C80.9912 71.8439 82.3625 70.4044 83.059 68.6654C83.3068 68.6926 83.5615 68.5829 83.6733 68.3076C84.2304 72.4202 84.9819 76.763 82.8298 80.5343C82.3476 81.3892 81.7253 82.1651 80.9808 82.8069ZM58.8485 73.2843C58.2426 72.6641 57.6969 71.994 57.1396 71.3314C56.5479 70.7193 55.5388 71.6732 56.5833 72.5691C58.4035 74.8384 58.3388 77.6679 57.4743 80.2959C57.325 79.6206 57.2059 78.9499 56.9821 78.2874C56.4265 76.6442 55.5838 75.1132 54.5322 73.7354C54.2789 73.4039 53.6231 73.5722 53.7897 74.0476C54.3151 75.5448 54.5526 77.2015 54.3144 78.7807C54.2028 79.5169 53.8847 80.217 53.8417 80.9645C53.8274 81.2232 53.9812 81.8774 53.5719 81.7292C53.4143 81.6721 53.2741 81.339 53.207 81.1269C52.8727 80.032 52.9431 78.8718 52.8151 77.7458C52.656 76.2825 52.411 74.7793 51.3595 73.6678C51.1288 73.4234 50.7881 73.5806 50.6788 73.8468C49.8475 75.8479 50.7075 78.3301 49.2292 80.0854C49.1554 80.1666 48.7332 80.5779 48.6646 80.5238C48.5486 80.4321 48.6737 79.9139 48.6933 79.7936C49.7097 75.6027 46.255 72.1234 45.0208 68.8746C47.4781 66.8583 51.685 66.2135 52.7525 62.9082C53.7483 65.1026 54.6114 67.4244 56.1898 69.2859C57.738 71.1344 60.6409 72.3541 60.7609 75.0538C60.0218 74.6249 59.4459 73.8852 58.8485 73.2843ZM36.5729 160.919C38.4721 160.948 40.3805 161.536 42.2634 161.505C44.0023 161.567 45.7435 161.487 47.4797 161.382C46.8237 163.964 47.0765 166.992 47.944 169.497C44.5689 171.072 41.4958 173.321 37.7941 171.125C37.7534 170.8 37.6426 170.477 37.5355 170.161C37.5781 169.987 37.6105 169.758 37.4504 169.62C37.4592 166.701 37.1574 163.78 36.5729 160.919ZM103.02 160.958C103.244 161.194 102.445 163.033 102.253 163.345C102.025 163.198 101.8 163.054 101.576 162.901C101.754 162.371 101.994 161.865 102.342 161.403C102.436 161.278 102.808 160.776 103.02 160.958ZM117.472 171.648C117.435 171.489 117.282 171.344 117.116 171.303C116.636 170.067 115.869 168.83 114.682 168.18C113.965 167.809 113.17 167.702 112.389 167.547C109.108 166.908 105.99 165.611 103.141 163.895C103.421 163.105 103.683 162.321 103.851 161.503C104.125 160.587 103.395 159.821 102.479 160.205C101.674 160.566 101.187 161.672 100.947 162.464C100.745 162.325 100.531 162.186 100.31 162.059C100.196 161.74 99.8175 161.604 99.5257 161.422C99.0713 161.12 98.4607 160.59 97.9141 161.001C96.926 159.686 96.1341 158.228 95.4658 156.729C94.9408 155.673 94.7406 154.472 94.0049 153.529C94.1082 152.876 93.7078 152.225 93.4404 151.644C93.1923 151.114 92.9556 150.578 92.7325 150.036C88.1026 137.466 86.4553 123.988 84.512 110.797C83.1141 101.916 83.3264 92.805 81.3539 84.0259C86.1456 80.1382 86.032 72.9636 83.9462 67.6601C88.4017 55.2382 80.8474 42.8731 79.9345 30.5C79.6413 21.4703 81.1473 10.6276 71.7381 5.52992C70.5467 4.8741 69.2669 4.34477 67.928 4.08225C66.6891 3.38717 65.2126 3.21782 63.81 3.19037C63.0184 2.76151 62.7937 1.77714 62.5096 0.986263C62.432 0.701255 62.2579 0.380151 62.227 0.0883746C62.224 0.0628066 62.1848 0.0522786 62.178 0.0816066C61.0793 2.97064 63.8498 5.98939 66.6684 6.35329C67.9391 10.8245 65.2662 14.8107 60.4494 14.5575C54.8721 14.1402 46.9879 11.0698 44.9718 5.41855C45.8607 5.40201 46.7068 5.12527 47.5452 4.862C47.739 4.77356 48.0087 4.7868 48.1279 4.5906C50.0552 3.6242 51.5419 1.80639 51.863 -0.330565C51.8494 -0.319961 51.8261 -0.304169 51.7891 -0.280857C51.8223 -0.301913 51.8525 -0.324473 51.8796 -0.347785C51.9067 -0.675657 51.9105 -1.00353 51.8788 -1.33215C51.7311 -1.46526 51.5215 -1.53745 51.2781 -1.48857C50.5363 -1.33967 50.5212 -0.559849 50.4021 0.0252066C50.2951 0.552359 50.0946 1.0374 49.8247 1.50213C48.7255 3.36589 46.6225 4.66264 44.4223 4.38079C44.322 4.29055 44.181 4.24618 44.0446 4.29123C44.0544 4.29957 44.065 4.30785 44.0748 4.31537C31.1527 3.84221 26.5425 13.7451 24.2922 24.7963C22.494 32.9059 21.7845 41.2568 22.2033 49.5526C22.3057 50.5118 22.1793 53.126 22.8071 53.6902C24.1868 57.8762 28.5107 59.8432 31.7712 62.3472C31.4273 63.3313 31.4197 64.3792 31.4019 65.4101C31.3506 66.5885 31.2715 67.7661 31.1637 68.9414C31.0664 70.0018 30.7883 71.1922 31.1735 72.224C31.4192 72.8749 31.9693 73.5543 32.6969 73.6407C32.8926 75.4201 32.9561 77.2199 33.11 79.0002C33.2939 95.3067 35.1626 111.7 32.5829 127.917C31.6323 134.076 30.85 140.314 31.4976 146.546C31.9836 151.176 32.9028 155.756 33.9127 160.295C34.0967 160.895 34.5724 161.466 35.2432 161.363C35.4745 161.502 35.7561 161.61 36.0068 161.489C36.042 164.389 36.4187 167.284 36.2104 170.186C36.0709 170.103 35.93 170.021 35.7882 169.941C35.7068 169.767 35.5437 169.599 35.3473 169.703C35.3043 169.684 35.2485 169.722 35.2583 169.766C34.9 170.735 34.6587 171.789 34.46 172.808C33.7623 174.147 33.3391 175.64 33.1982 177.148C33.1291 177.737 33.0281 178.498 33.5464 178.919C33.3664 178.925 33.1429 178.94 33.0889 179.149C32.8339 179.773 32.4172 183.609 33.364 183.592C37.032 183.815 40.7166 183.875 44.3891 184.007C44.5888 184.014 44.7796 183.86 44.8308 183.671C44.9477 183.243 45.0735 182.818 45.1957 182.391C51.0263 185.583 64.9504 183.723 68.4632 183.01C69.1868 183.01 69.2337 180.762 69.1868 180.077C69.5954 179.56 69.3391 178.695 69.0881 178.149C68.0289 175.857 65.2546 175.612 63.0554 175.245C59.662 174.593 56.3373 173.314 53.6548 171.1C54.3787 170.414 55.2369 169.282 55.1444 168.249C55.0478 167.799 54.643 167.55 54.1998 167.577C53.1904 167.661 52.4554 168.721 51.8864 169.448C51.7673 169.322 51.6504 169.196 51.5344 169.068C51.5215 168.798 51.3414 168.535 51.0263 168.572C50.4021 168.647 49.7953 168.799 49.2013 169C49.0544 168.318 48.783 167.652 48.6315 166.967C48.2314 165.25 48.1371 163.494 48.0993 161.735C48.8283 161.724 49.2471 161.689 49.8134 161.389C50.121 161.48 50.4692 161.366 50.5642 160.955C50.874 159.618 50.8906 158.238 50.9848 156.872C52.0325 139.556 53.9201 122.116 59.943 105.728C60.5712 107.703 61.3983 109.608 62.1056 111.556C67.0464 124.401 70.1183 137.84 73.6878 151.103C73.99 152.216 74.2968 153.329 74.6112 154.439C75.05 156.331 75.9695 157.203 77.9853 157.195C79.3089 157.256 80.6352 157.241 81.9577 157.153C83.5203 158.627 84.2769 160.597 84.8244 162.612C84.4255 162.811 83.2454 162.518 83.1932 163.058C82.6984 163.866 82.9094 164.909 82.8999 165.813C82.9733 167.025 82.9107 168.309 83.2715 169.47C83.2917 170.694 83.3399 171.917 83.405 173.14C82.3258 173.917 82.6489 175.464 82.9452 176.559C82.884 177.334 89.3152 176.985 90.2314 177.053C91.7399 176.929 93.9627 177.398 94.761 175.76C99.7642 178.217 106.697 176.467 112.085 175.97C113.983 175.692 115.873 175.363 117.753 174.988C118.026 174.933 118.158 174.622 118.102 174.376C117.895 173.466 117.683 172.557 117.472 171.648Z" fill="black"/>
</g>
<defs>
<clipPath id="clip0_43_76">
<rect width="124" height="188" fill="white"/>
</clipPath>
</defs>
</svg>
