<svg width="123" height="188" viewBox="0 0 123 188" fill="none" xmlns="http://www.w3.org/2000/svg">
<g clip-path="url(#clip0_43_80)">
<path fill-rule="evenodd" clip-rule="evenodd" d="M39.3302 39.8215L39.2244 41.0911L39.1454 40.9423C39.1342 43.5034 38.757 46.0926 38.3409 48.6478C37.2535 47.7482 36.3595 46.9551 36.6177 45.4194C37.2716 43.2309 38.1103 41.096 38.7884 38.9194L38.902 39.4901L39.3496 39.5808L39.3302 39.8215ZM116.997 174.74C116.796 173.851 116.578 172.908 116.373 172.016C116.353 171.941 116.165 171.924 116.105 171.904C115.023 169.237 114.075 168.629 111.979 168.266C108.598 167.651 105.261 166.317 102.067 164.34C102.142 164.046 102.346 163.538 102.531 162.996C102.507 163.004 102.482 163.011 102.457 163.016C102.414 163.025 102.374 163.027 102.336 163.024C102.119 163.536 101.883 163.985 101.759 164.151C101.36 163.892 100.916 163.607 100.525 163.332L100.527 163.327C100.179 163.085 99.7486 162.785 99.4079 162.598C99.3441 162.243 98.8274 162.134 98.5575 161.899C98.0335 161.523 97.7428 161.328 97.2622 161.809C96.2255 160.455 95.3905 159.023 94.5697 157.171C94.056 156.089 93.8036 154.891 93.113 153.924C93.1262 153.917 93.5653 153.779 93.576 153.767C85.7272 136.275 84.4697 116.812 82.7955 98.1156C82.4262 93.9346 82.0398 89.7149 81.3199 85.6565C81.2211 85.0419 81.1325 84.4366 80.7648 83.9465C85.1756 80.2905 85.2186 73.204 83.0821 67.948C87.9944 54.618 78.3656 40.4602 79.0762 26.8559C79.4745 17.6279 77.8232 6.93561 67.4609 4.7215C66.1759 3.97747 64.6354 3.8664 63.4092 3.84632C62.3052 3.28533 62.1312 2.04671 61.7382 1.0285L61.3542 1.03091C61.2415 0.570083 61.13 0.064814 61.0331 -0.399471C60.8873 -0.693879 60.9737 -1.07755 60.5146 -0.995957C59.4741 -2.51139 51.1468 -3.27324 51.0522 -0.833149C50.7516 -0.65485 50.6922 -0.306824 50.6223 0.1158C50.1605 3.11267 46.9791 5.5026 44.1125 5.02064L44.0661 4.97846C31.8624 4.5235 27.0582 13.2569 24.6735 25.1593C22.8103 34.4072 21.626 44.4295 23.0851 53.6927C24.5106 57.8907 28.8284 59.9106 32.169 62.4967C31.7839 63.4729 31.7479 64.5498 31.7362 65.606C31.6921 66.8253 31.604 68.0546 31.4968 69.2576C31.2771 70.7823 30.9215 73.4065 32.9846 73.5845C33.7838 91.8066 35.4532 109.981 32.9023 128.256C30.7847 138.363 31.5954 150.592 34.2137 160.481C34.3647 160.969 34.7527 161.409 35.2483 161.253C35.5 161.416 35.6966 161.519 35.9046 161.364C36.0273 161.593 36.1616 161.812 36.3069 162.025C36.3619 164.742 36.6681 167.407 36.5287 170.142C36.3208 170.118 35.8636 169.887 35.6859 170.038L35.6605 170.246L35.4914 170.304C35.1373 171.309 34.9152 172.364 34.7508 173.215C34.0345 174.673 33.1192 177.254 33.6296 178.879C33.6048 178.908 33.4674 179.069 33.4458 179.093C33.3238 179.163 33.3013 179.257 33.2716 179.365C32.9239 179.496 32.8882 179.896 32.8524 180.305C32.6782 181.295 32.9369 182.195 33.0259 183.164L33.0311 183.157C33.0311 183.157 33.323 183.498 33.3234 183.498C36.9921 183.723 40.6047 183.781 44.2571 183.913C44.5327 183.381 44.6157 182.664 44.8229 182.08C49.1529 185.267 56.6552 184.048 62.094 183.265C64.3028 182.945 66.3895 182.642 68.2396 182.542C68.36 182.525 68.3686 182.473 68.3717 182.424C68.3899 181.695 68.5263 180.947 68.4582 180.239C68.8402 179.866 68.6661 179.186 68.4036 178.588C67.4382 176.485 64.8142 176.255 62.6883 175.896C58.6887 175.115 55.4726 173.646 52.8709 171.401C53.046 171.242 53.2049 171.085 53.3496 170.932C53.2931 170.894 53.2366 170.857 53.1802 170.818C53.0433 170.758 52.9124 170.696 52.7923 170.618C52.7311 170.653 52.6545 170.66 52.5788 170.617C52.3173 170.469 52.1042 170.252 51.8558 170.086C51.8066 170.157 51.7571 170.23 51.7073 170.306C51.469 170.053 51.1994 169.767 50.9638 169.502C50.9554 169.429 50.9745 169.247 50.8858 169.227C50.2159 169.295 49.4401 169.522 48.7394 169.774C47.9474 167.156 47.4887 164.323 47.5416 161.647C48.3205 161.647 49.0026 161.64 49.5834 161.267C49.7421 161.31 49.9633 161.403 50.0043 161.152C50.24 160.127 50.3013 159.042 50.3606 157.993C51.566 138.148 53.4027 122.201 59.4947 105.39C60.0797 107.724 61.0619 110.151 61.9558 112.475C66.0222 122.186 68.9517 132.659 71.4629 142.852C72.451 146.668 73.525 150.86 74.5858 154.636C74.9972 156.451 75.8334 157.115 77.5859 157.101C78.9363 157.165 80.2913 157.145 81.6471 157.049C83.4956 158.744 84.2535 161.033 84.7935 163.093C84.3436 163.43 83.6295 163.303 83.1035 163.414C82.65 164.149 82.8069 165.178 82.8175 166.085C82.8887 167.264 82.8281 168.528 83.1692 169.641C83.2301 170.858 83.2377 172.192 83.3287 173.607C82.3266 174.191 82.5101 175.483 82.8429 176.719C82.9917 177.033 88.3775 176.971 89.7135 176.958C91.2834 176.866 93.5222 177.269 94.037 175.538C97.7746 177.626 103.461 176.921 107.815 176.306C110.976 175.919 113.839 175.558 116.942 174.901C116.974 174.887 117.019 174.786 116.997 174.74Z" fill="white"/>
<path fill-rule="evenodd" clip-rule="evenodd" d="M50.8644 -1.48853C51.1059 -1.53749 51.3138 -1.46529 51.4604 -1.33212C51.4918 -1.00349 51.488 -0.675695 51.4611 -0.347823C51.4342 -0.324511 51.4043 -0.301875 51.3714 -0.280895L51.3964 -0.296962C51.419 -0.311703 51.4346 -0.322574 51.4447 -0.330527C51.1261 1.80643 49.6514 3.62424 47.7397 4.59056C47.6214 4.78683 47.3539 4.77352 47.1617 4.86203L46.8917 4.94754C46.1481 5.18209 45.3955 5.40376 44.609 5.41851C46.6088 11.0699 54.4295 14.1402 59.9619 14.5574C64.7398 14.8108 67.3911 10.8245 66.1306 6.35333C63.3628 5.993 60.6416 3.03071 61.6449 0.168277L61.6765 0.0815695C61.6832 0.0523167 61.7221 0.0627695 61.7251 0.0883375C61.7557 0.380114 61.9284 0.701293 62.0054 0.986301L62.0408 1.08752C62.307 1.8593 62.5433 2.77959 63.2953 3.19034L63.4239 3.19329C64.7766 3.22878 66.189 3.40852 67.3801 4.08228C68.7082 4.34481 69.9776 4.87414 71.1595 5.52996C80.4928 10.6276 78.999 21.4703 79.2898 30.5C80.1953 42.8732 87.6888 55.2381 83.2691 67.6601C85.2871 72.8332 85.4432 79.786 81.0388 83.7325C81.0871 83.809 81.1279 83.8929 81.1621 83.9787C81.3717 84.5051 81.4366 85.1082 81.5355 85.667L81.5471 85.7313C81.7853 87.0306 81.9567 88.3434 82.1242 89.6536C82.4546 92.2382 82.6946 94.8342 82.9232 97.4299L82.9558 97.8007C83.5283 104.325 84.0283 110.864 84.7792 117.372L84.9193 118.336C85.9358 125.304 87.0427 132.287 88.71 139.114C88.7592 139.297 88.8081 139.48 88.8583 139.663C89.4591 141.853 90.1664 144.006 90.831 146.176C91.0415 146.863 91.2747 147.54 91.5204 148.211L91.8259 148.974C91.8769 149.101 91.928 149.228 91.9793 149.355C92.5213 150.696 93.0985 152.022 93.7063 153.334C93.8159 153.571 93.6562 153.789 93.4681 153.849C94.023 154.735 94.2322 155.789 94.6958 156.729C95.3588 158.228 96.1443 159.686 97.1244 161.001C97.6666 160.59 98.2722 161.12 98.723 161.423C99.0124 161.604 99.3877 161.74 99.5014 162.059C99.7197 162.186 99.9321 162.325 100.133 162.464L100.153 162.398C100.398 161.612 100.876 160.556 101.652 160.205C102.561 159.821 103.285 160.587 103.013 161.503C102.847 162.322 102.587 163.105 102.309 163.895C105.103 165.592 108.158 166.879 111.372 167.525L111.482 167.547C112.257 167.702 113.046 167.809 113.757 168.18C114.935 168.83 115.695 170.067 116.171 171.303C116.336 171.344 116.488 171.489 116.525 171.648L116.838 173.012C116.943 173.466 117.047 173.921 117.149 174.376C117.205 174.622 117.074 174.933 116.804 174.988C114.938 175.363 113.064 175.692 111.181 175.97C105.836 176.467 98.9595 178.217 93.9967 175.76C93.2048 177.398 91 176.929 89.5036 177.053C88.5948 176.985 82.2154 177.334 82.2761 176.559L82.2408 176.425C81.9588 175.342 81.7046 173.886 82.7323 173.14C82.6678 171.917 82.6199 170.694 82.5999 169.47C82.2419 168.309 82.304 167.025 82.2312 165.813C82.2406 164.909 82.0313 163.866 82.5222 163.058C82.5652 162.523 83.7485 162.808 84.1402 162.612L84.1056 162.485C83.5652 160.514 82.814 158.596 81.2966 157.153C79.9848 157.241 78.6692 157.256 77.3562 157.195C75.3567 157.203 74.4448 156.331 74.0094 154.439C73.6976 153.329 73.3932 152.217 73.0934 151.103C70.7542 142.341 68.63 133.502 66.0449 124.808C65.0566 121.894 63.9634 119.016 62.8611 116.145C62.1139 114.199 61.3657 112.254 60.6181 110.308C60.234 109.309 59.8555 108.303 59.5216 107.286C59.4189 106.973 59.3258 106.658 59.238 106.343C53.439 122.551 51.5997 139.772 50.5736 156.872C50.4801 158.238 50.4636 159.618 50.1563 160.955C50.0621 161.366 49.7167 161.48 49.4116 161.389C48.8498 161.689 48.4344 161.724 47.7113 161.735L47.7166 161.97C47.7577 163.65 47.86 165.326 48.2392 166.967C48.3895 167.652 48.6586 168.318 48.8044 169C49.3937 168.799 49.9956 168.647 50.6147 168.573C50.9272 168.535 51.1059 168.798 51.1186 169.068C51.2338 169.196 51.3497 169.322 51.4678 169.448L51.5275 169.371C52.0835 168.648 52.7962 167.658 53.7626 167.577C54.2022 167.55 54.6038 167.799 54.6996 168.249C54.7913 169.282 53.9402 170.414 53.222 171.1C55.8829 173.314 59.1807 174.593 62.5467 175.245L62.6783 175.267C64.8376 175.622 67.5012 175.902 68.5308 178.149L68.5525 178.197C68.794 178.745 69.0223 179.575 68.6288 180.077C68.6753 180.762 68.5494 181.467 68.5331 182.159C68.5159 182.44 68.3274 182.603 68.0605 182.634C61.1894 183.005 50.716 186.24 44.8311 182.391C44.7099 182.818 44.5851 183.243 44.4692 183.671C44.4183 183.86 44.2291 184.014 44.031 184.007C40.3881 183.875 36.7333 183.815 33.0948 183.592C32.989 183.594 32.9004 183.547 32.8268 183.461C32.7414 183.566 32.5234 183.537 32.4942 183.388C32.4428 183.125 32.4425 182.858 32.419 182.592C32.3918 182.284 32.3099 181.999 32.2619 181.698C32.1733 181.141 32.2131 180.544 32.268 179.986L32.282 179.845C32.3205 179.475 32.3888 179.056 32.7205 178.847L32.7425 178.834C32.7437 178.833 32.7449 178.832 32.7461 178.832C32.7828 178.714 32.8699 178.613 32.9799 178.532L32.9864 178.524C32.8131 178.108 32.8799 177.582 32.9304 177.148C33.0701 175.64 33.4899 174.147 34.182 172.808C34.3792 171.789 34.6184 170.735 34.9739 169.766C34.9641 169.722 35.0195 169.684 35.0621 169.703C35.0768 169.696 35.0913 169.69 35.1057 169.685C35.1075 169.67 35.1104 169.655 35.1151 169.641C35.1765 169.459 35.3663 169.359 35.5439 169.331C35.6944 169.307 35.8248 169.347 35.96 169.381C36.0573 166.749 35.7481 164.12 35.7164 161.489C35.4676 161.61 35.1883 161.502 34.9589 161.363C34.2934 161.466 33.8216 160.895 33.6391 160.295L33.5321 159.809C32.5728 155.429 31.7083 151.01 31.2436 146.546C30.6011 140.314 31.3772 134.076 32.32 127.917C34.879 111.7 33.0253 95.3067 32.8429 79.0003C32.6903 77.2199 32.6272 75.42 32.4331 73.6407C31.7114 73.5544 31.1658 72.875 30.922 72.2239C30.5399 71.1923 30.8158 70.0018 30.9122 68.9415C31.0192 67.7661 31.0977 66.5885 31.1486 65.4101L31.1546 65.066C31.172 64.1471 31.2116 63.2219 31.5149 62.3472C28.2806 59.8432 23.9916 57.8762 22.623 53.6902C22.0003 53.126 22.1257 50.5118 22.0241 49.5526C21.6087 41.2568 22.3126 32.9059 24.0962 24.7964C26.3284 13.7452 30.9014 3.84217 43.7192 4.31533C43.7095 4.30789 43.699 4.29954 43.6893 4.29127C43.8246 4.24615 43.9645 4.29051 44.0639 4.38075C46.2464 4.6626 48.3325 3.36585 49.4228 1.5021C49.6905 1.03736 49.8894 0.552322 49.9956 0.0251695L50.0038 -0.0169403C50.1148 -0.596663 50.1462 -1.34325 50.8644 -1.48853ZM34.3054 178.988C33.9956 179.16 33.6567 179.181 33.3715 179.41C33.1711 180.513 33.1876 181.657 33.4283 182.751C36.8454 182.788 40.267 182.961 43.6826 183.079C43.8201 182.548 43.9502 182.013 44.0938 181.483L44.0972 181.472L44.1047 181.451C44.4592 181.463 44.8138 181.473 45.1684 181.482C50.414 185.264 61.2819 182.05 67.6141 181.735L67.6792 180.675C67.6151 180.72 67.5516 180.745 67.4907 180.754C67.5495 180.599 67.4449 180.398 67.2361 180.456C66.8991 180.551 66.5605 180.638 66.2207 180.72C66.1949 180.71 66.1656 180.705 66.1329 180.708C63.1603 180.963 60.1756 180.94 57.1948 180.949C54.2245 180.958 51.2572 181.083 48.2865 181.075C47.0748 181.072 45.8632 181.053 44.6521 181.017C41.1636 180.366 37.6999 179.597 34.3054 178.988ZM115.732 172.527C115.585 172.634 115.392 172.644 115.188 172.671L115.159 172.676C114.972 172.703 114.785 172.729 114.597 172.743C114.133 173.045 113.208 173.004 112.761 173.09C102.934 174.078 93.0392 172.906 83.2026 173.699C82.7331 174.373 82.8475 175.207 83.0971 175.959C85.8439 176.063 88.5933 176.119 91.3415 176L91.5612 175.992C91.9005 175.978 92.2487 175.954 92.5625 175.825C92.8429 175.71 93.1873 175.424 93.1434 175.082L93.1405 175.063C93.0732 174.671 93.483 174.211 93.8815 174.49C97.6401 176.998 102.747 175.737 106.982 175.49C110.033 175.165 113.068 174.703 116.08 174.117C115.963 173.587 115.847 173.057 115.732 172.527ZM47.0875 161.418C46.7724 161.454 46.4568 161.487 46.1408 161.516C44.8736 161.631 43.6018 161.688 42.3301 161.725L41.7364 161.741C40.5513 161.774 39.3587 161.802 38.1758 161.737C37.5777 161.705 36.9642 161.634 36.3859 161.47C36.8947 164.155 37.1564 166.888 37.1482 169.62C37.3071 169.758 37.275 169.987 37.2327 170.161L37.2726 170.28C37.3653 170.558 37.4539 170.84 37.4892 171.125C41.161 173.321 44.2094 171.072 47.5573 169.497C47.0055 168.053 46.8376 166.471 46.7452 164.938C46.6937 163.746 46.7823 162.582 47.0875 161.418ZM53.7618 168.507C53.6089 168.525 53.4669 168.621 53.3431 168.706C52.8324 169.074 52.3913 169.509 51.9882 169.98C52.143 170.134 52.3008 170.285 52.4615 170.433C53.0647 169.944 53.5385 169.263 53.7618 168.507ZM92.7884 154.55L92.2912 154.718C89.2222 155.754 86.0895 156.726 82.8295 157.017C83.0044 157.191 83.1517 157.398 83.2811 157.617C83.3938 157.714 83.5075 157.837 83.4755 157.983C83.5802 158.196 83.6729 158.412 83.7611 158.615C84.2768 159.849 84.8721 161.063 85.3067 162.332C85.4329 162.862 85.9288 163.604 85.6977 164.117C89.1636 165.635 93.4748 164.959 96.1224 162.182L96.0291 162.043C94.5076 159.777 93.1706 157.286 92.7884 154.55ZM102.189 160.958C101.979 160.776 101.61 161.278 101.516 161.403C101.171 161.865 100.933 162.371 100.757 162.901C100.979 163.054 101.202 163.198 101.428 163.345L101.441 163.324C101.651 162.959 102.407 161.189 102.189 160.958ZM36.2779 160.919L36.2816 160.937C36.4676 160.966 36.654 160.993 36.8412 161.014C37.296 161.066 37.7567 161.089 38.2158 161.099C37.5697 161.005 36.9232 160.929 36.2779 160.919ZM41.2035 72.6697L41.0506 72.6542L40.8541 72.6298C38.3319 72.3145 35.7902 71.8935 33.2504 72.3029C33.6021 73.9394 33.6256 75.6543 33.7392 77.3308C34.2813 93.4787 36.2334 109.719 34.0463 125.829L33.9787 126.317C33.1815 132.046 32.2329 137.796 32.6148 143.602C32.9126 148.893 33.9834 154.095 35.0471 159.274C35.3029 159.339 35.5586 159.403 35.8151 159.467C35.8225 159.395 35.8669 159.436 35.8756 159.482C39.0263 160.328 42.3145 160.4 45.5519 160.188C46.1623 160.152 46.77 160.103 47.38 160.061C47.8502 159.855 48.3528 159.724 48.8628 159.633C49.9381 143.2 51.3462 126.58 56.4004 110.825C59.618 100.816 63.6368 91.0695 66.0147 80.8043C66.097 80.5162 66.5307 80.6373 66.4602 80.9283L66.386 81.322C65.7822 84.5369 65.2381 87.762 64.298 90.9044C65.0117 90.1224 65.8256 89.4321 66.4993 88.6138C66.7094 88.3558 66.9023 88.0844 67.0683 87.7949C67.2257 87.4362 67.4785 87.1554 67.8698 87.0715C68.0493 86.9985 68.216 87.1519 68.2751 87.303C68.4397 87.7202 68.3703 88.0178 68.1306 88.3854L68.0706 88.4759C67.0134 90.0477 65.3213 90.9657 63.9248 92.1993C62.7559 96.1244 61.4104 99.9936 60.0913 103.869C60.0748 104.64 60.214 105.401 60.4382 106.136C60.6937 106.892 60.9224 107.693 61.3146 108.401C66.7687 119.868 69.5171 132.362 72.8309 144.563C73.7032 147.817 74.5866 151.07 75.5378 154.302L75.5514 154.361C75.7681 155.271 76.1062 155.638 77.0989 155.637C82.073 155.867 87.1803 155.05 91.7116 153.038C89.2157 146.338 87.4825 139.405 86.135 132.379C85.4551 129.057 84.9042 125.71 84.4402 122.349C83.7941 118.058 83.224 113.758 82.6465 109.479C81.4646 101.092 81.5166 92.5587 80.0106 84.2237C79.4962 84.2407 79.0553 83.626 79.3683 83.167C79.2592 82.7106 79.3565 82.2118 79.5186 81.7901L79.4991 81.6985C77.7347 83.2746 75.432 83.474 76.6137 80.4441L76.6953 80.2383C77.5827 78.0152 78.7117 75.6401 78.2108 73.2015C73.0928 75.9491 66.8368 75.506 61.3362 74.3017C61.7647 75.8686 60.6105 76.8291 59.3084 75.7771C59.0736 75.5861 58.8433 75.3884 58.6175 75.1839C58.9485 76.5042 58.7708 77.8879 58.465 79.1965L58.4358 79.3474C58.2869 80.1325 58.118 81.1745 57.5244 81.7179C57.0914 82.1135 56.4394 81.945 56.2449 81.3803C56.1364 79.5123 55.6185 77.6747 54.6703 76.0501C54.8288 77.2375 54.7899 78.4573 54.4991 79.5959C54.3869 80.0313 54.2314 80.4757 54.1947 80.9261L54.2003 80.9999C54.2561 81.7936 54.1512 82.5225 53.1673 82.5384C50.834 82.1248 52.306 76.5708 50.8203 74.8146C50.3689 76.9342 50.8948 79.7206 48.8433 81.1277C48.2766 81.4841 47.5849 81.2773 47.4697 80.5855L47.5105 80.0417C47.7553 76.7241 47.7096 75.7297 45.5945 72.6195C44.1602 72.9652 42.6582 72.8173 41.2035 72.6697ZM82.7682 157.935C82.7697 157.947 82.7704 157.959 82.7711 157.972C82.7956 157.997 82.82 158.023 82.8442 158.048L82.8803 158.087L82.8384 157.984C82.8153 157.969 82.7913 157.951 82.7682 157.935ZM80.8425 83.9039L80.7464 83.9855C80.7303 83.999 80.7141 84.0125 80.6977 84.0259C80.783 84.4086 80.8628 84.7921 80.9402 85.1761L80.9252 84.9232C80.9112 84.6744 80.9504 84.2231 80.8425 83.9039ZM79.285 49.8959C78.5633 46.5175 77.844 45.0919 78.7579 49.9577L78.8572 50.4832C79.253 52.5901 79.6701 54.9786 80.0619 57.55L80.1436 58.0884C80.5525 60.7545 81.1953 64.6572 81.2427 67.7838C81.2966 71.3313 79.5062 72.3841 78.7985 72.8437C78.6661 73.2338 78.8342 73.5593 78.9458 73.9341C79.0961 74.5357 79.135 75.1139 79.0922 75.732C78.9436 77.8411 77.8234 79.746 77.3143 81.7473C77.9667 81.5671 78.6944 80.9757 79.2643 80.5073C80.2763 79.6972 80.9825 78.4974 81.2877 77.2247C81.4327 76.6239 81.3273 75.8817 81.7341 75.3891C81.8537 75.244 82.1124 75.2583 82.2343 75.3891C82.5663 75.7449 82.5349 76.181 82.481 76.6359C82.3002 78.1838 81.6234 79.7014 80.5332 80.8155C80.4818 81.3873 80.3123 81.897 80.1997 82.4407C80.2431 82.5625 80.2865 82.6843 80.3276 82.8069C81.066 82.1652 81.6834 81.3892 82.1618 80.5343C84.2965 76.7631 83.551 72.4203 82.9985 68.3075C82.8876 68.5829 82.6348 68.6926 82.3891 68.6655C82.2478 69.0211 81.8786 68.7944 81.864 68.3346C81.7726 65.4689 81.3942 61.3948 80.6977 57.2215C80.2827 54.7349 79.7801 52.2138 79.285 49.8959ZM52.327 62.9082C51.2681 66.2136 47.0952 66.8584 44.6576 68.8745C45.8819 72.1234 49.3087 75.6027 48.3005 79.7936L48.2948 79.8251C48.2645 79.9857 48.1651 80.4386 48.2721 80.5238C48.3401 80.5779 48.7588 80.1666 48.8322 80.0853C50.2985 78.3301 49.4454 75.848 50.27 73.8468C50.3784 73.5806 50.7164 73.4234 50.9452 73.6678C51.9764 74.7667 52.2256 76.2484 52.3836 77.696L52.389 77.7459C52.5161 78.8718 52.4463 80.032 52.7778 81.1269L52.7903 81.1655C52.8608 81.3772 52.9927 81.6755 53.1397 81.7293C53.5457 81.8774 53.3932 81.2231 53.4074 80.9645C53.45 80.2169 53.7656 79.5169 53.8762 78.7807C54.1125 77.2015 53.877 75.5448 53.3558 74.0475C53.1906 73.5723 53.8411 73.4039 54.0923 73.7355C55.1354 75.1131 55.9713 76.6443 56.5224 78.2873C56.7445 78.9499 56.8626 79.6207 57.0107 80.2959C57.9343 77.4756 57.9076 74.5106 55.8158 72.1984C55.3208 71.6005 56.1456 70.7387 56.6787 71.3313C57.2316 71.9941 57.7728 72.6641 58.3738 73.2843C58.9664 73.8851 59.5376 74.6249 60.2707 75.0537C60.1517 72.3541 57.2722 71.1344 55.7365 69.2859C54.1709 67.4244 53.3148 65.1026 52.327 62.9082ZM38.4882 40.1105C37.9275 41.8258 37.2707 43.5105 36.764 45.2437C36.6587 46.4167 37.0178 46.9033 37.8743 47.6479C38.2449 45.5202 38.3984 43.3622 38.5966 41.2115C38.5664 40.8438 38.5604 40.473 38.4882 40.1105ZM38.7648 39.2675L38.7087 39.4413L38.7273 39.4745L38.7454 39.5082L38.7648 39.2675ZM72.9403 17.804L73.1545 19.2239C73.9411 24.4307 74.7525 29.6365 75.869 34.7835C75.9305 35.0671 76.2936 34.6864 76.2269 34.1372C75.5402 28.4898 72.95 17.7372 72.9399 17.7988L72.9403 17.804ZM66.331 6.38566C66.3811 6.44575 66.4282 6.50891 66.4738 6.57291C66.4641 6.51568 66.4544 6.45778 66.4439 6.39987C66.4058 6.39536 66.3684 6.39093 66.331 6.38566Z" fill="black"/>
</g>
<defs>
<clipPath id="clip0_43_80">
<rect width="123" height="188" fill="white"/>
</clipPath>
</defs>
</svg>
