<svg width="21" height="22" viewBox="0 0 21 22" fill="none" xmlns="http://www.w3.org/2000/svg">
<path fill-rule="evenodd" clip-rule="evenodd" d="M6.78305 14.0015C8.02867 13.8453 9.23607 14.2393 10.4538 14.438C11.0967 14.5428 11.7404 14.6211 12.391 14.6502C12.5219 14.6561 12.6529 14.6595 12.7838 14.6623C12.796 14.5432 12.8605 14.4338 13.0003 14.3683C13.2869 14.234 13.5162 14.1735 13.8308 14.1865C14.1188 14.1982 14.4079 14.2288 14.6914 14.2824C15.2064 14.38 15.7237 14.6014 16.1003 14.986C16.9721 15.876 16.8394 17.3056 16.1658 18.2749C14.7741 20.278 12.2341 20.371 10.0587 20.3449L9.85798 20.3421C7.8772 20.3129 5.04329 20.6181 4.14339 18.2894C3.81246 17.433 3.85843 16.4405 4.26361 15.6192C4.74687 14.6395 5.76416 14.1293 6.78305 14.0015ZM12.9703 17.3367L12.9526 17.3374C12.0393 17.3738 11.1262 17.3994 10.2125 17.4161C10.2398 17.6585 10.2677 17.9011 10.2996 18.143C10.3246 18.3334 10.3515 18.5236 10.3794 18.7136C10.3912 18.794 10.4346 18.9189 10.4223 18.9985L10.4179 19.03C10.4648 19.052 10.5074 19.0873 10.539 19.1385C10.5501 19.1563 10.558 19.1741 10.566 19.1919C11.2754 19.1977 12.0389 19.1835 12.7621 19.0502L12.7635 19.034C12.7766 18.9385 12.8151 18.8743 12.8661 18.8302C12.917 18.5258 12.9123 18.2014 12.932 17.8994C12.9442 17.7117 12.9575 17.5242 12.9703 17.3367ZM9.51458 17.4289C8.85633 17.4405 8.1978 17.4494 7.53969 17.4411L7.24094 17.4363C7.30402 17.7861 7.37268 18.1347 7.42975 18.4867C7.48928 18.8537 7.17669 19.087 6.90617 19.0776C6.93655 19.0827 6.96686 19.088 6.99724 19.0924C7.84247 19.216 8.7201 19.1832 9.57788 19.1822C9.53172 18.9039 9.55042 18.5898 9.54352 18.3575L9.5422 18.3215C9.52908 18.0239 9.51987 17.7264 9.51458 17.4289ZM5.04343 17.3647C5.06627 17.5466 5.11072 17.7246 5.17721 17.8903C5.45818 18.5904 6.10234 18.9171 6.78392 19.0547C6.66566 19.0125 6.57176 18.9112 6.54805 18.7375C6.48895 18.3058 6.46771 17.8668 6.46611 17.4284C5.99111 17.4238 5.51292 17.4134 5.04343 17.3647ZM15.4474 17.2153C15.1092 17.2977 14.7162 17.2599 14.3844 17.2755C14.0736 17.2901 13.7626 17.3028 13.4518 17.3158C13.4664 17.5351 13.4807 17.7543 13.4962 17.9734C13.5162 18.2567 13.5181 18.556 13.5706 18.8381C14.1962 18.6174 14.7568 18.2636 15.1773 17.6979C15.2821 17.5569 15.3759 17.3915 15.4474 17.2153ZM6.64013 15.1502C6.07718 15.288 5.54439 15.5789 5.25806 16.1112C5.0881 16.4271 5.01334 16.8015 5.0277 17.1704C5.5035 17.1131 5.98749 17.0914 6.46916 17.0735C6.47076 16.9839 6.4728 16.8943 6.47541 16.805L6.48283 16.576C6.49596 16.1393 6.50255 15.5909 6.64013 15.1502ZM9.55395 15.2035L9.30613 15.1747C8.61779 15.0937 7.92982 15.0086 7.24144 15.0574C7.14182 15.0645 7.04067 15.0757 6.9393 15.091C7.06097 15.5447 7.05075 16.0775 7.10158 16.5267C7.12123 16.7003 7.14602 16.8725 7.1735 17.0441L7.29293 17.0383C8.03157 16.9969 8.77093 16.9715 9.51015 16.9412C9.5101 16.7978 9.51086 16.6543 9.51308 16.5107L9.51581 16.3672C9.52422 16.0005 9.50131 15.5874 9.55395 15.2035ZM13.0106 15.1453C12.2896 15.2655 11.5445 15.2911 10.8363 15.292C10.5535 15.2924 10.2708 15.2744 9.9882 15.2485C10.0066 15.404 10.0162 15.5613 10.03 15.7145C10.0579 16.0243 10.0898 16.3337 10.1245 16.6427L10.1554 16.9131C11.064 16.8705 11.9725 16.8245 12.8809 16.7768L13.0091 16.7697L13.045 16.2501C13.0695 15.9036 13.0964 15.5571 13.1344 15.2122L13.1059 15.2015C13.0724 15.1873 13.0406 15.1677 13.0106 15.1453ZM13.3236 15.2743C13.3634 15.7642 13.3854 16.2562 13.4146 16.747L14.0134 16.7139C14.1132 16.7083 14.213 16.7026 14.3128 16.6966C14.7009 16.6735 15.1995 16.5521 15.5831 16.6654C15.6124 16.305 15.5127 15.9539 15.198 15.7118C14.6454 15.2865 13.9418 15.438 13.3236 15.2743ZM11.2776 10.8943C12.1694 10.3666 14.4068 9.82723 14.5485 11.4855C14.6136 12.2486 14.0646 12.8809 13.4235 13.163L13.3994 13.1734C12.7981 13.4289 11.7324 13.7173 11.212 13.1634C10.7789 12.7024 11.3534 11.8758 11.8915 12.2535C12.1681 12.4475 12.7502 12.3045 13.0588 12.2122L13.0781 12.2064C13.4111 12.1052 13.8551 11.7816 13.7174 11.3578C13.5956 10.983 13.077 10.9145 12.7523 10.9024C12.2676 10.8844 11.7958 11.0007 11.3155 11.0386C11.2394 11.0446 11.216 10.9308 11.2776 10.8943ZM14.9715 8.22779C16.1818 8.16922 16.9347 9.53472 16.6564 10.6536C16.6083 10.8466 16.3993 11.0361 16.1976 11.0144L16.1468 11.0096C16.121 11.007 16.095 11.0037 16.0712 10.9969C15.8796 10.942 15.7079 10.7362 15.7219 10.5228L15.7256 10.4606C15.7538 9.93206 15.6984 9.32311 15.0905 9.19511C14.5749 9.08654 14.2871 9.5993 14.281 10.0713C14.2798 10.1551 14.1887 10.2136 14.117 10.1685C13.7443 9.93418 13.6798 9.46797 13.8221 9.06649C14.0026 8.55779 14.4541 8.25279 14.9715 8.22779ZM5.99 8.52065C6.87077 8.21701 7.821 8.70213 8.24747 9.50675C8.39708 9.5515 8.54648 9.67066 8.5257 9.85312C8.49569 10.1156 8.45049 10.2811 8.27435 10.4802C7.99885 10.7915 7.48287 10.6323 7.36836 10.249L7.3635 10.2317C7.23344 9.73621 6.7056 9.40929 6.22478 9.58273C5.66309 9.78531 5.67936 10.3983 5.28538 10.7554C5.23909 10.7974 5.18357 10.8041 5.12806 10.7764C4.70958 10.5674 4.78479 9.93849 4.93397 9.57853C5.12966 9.10617 5.50998 8.68606 5.99 8.52065ZM4.7905 5.75696C5.50421 5.00446 7.36528 4.27628 7.85352 5.66588C7.94653 5.93056 7.74852 6.28744 7.48184 6.34233C7.04513 6.43213 6.65768 6.23623 6.22387 6.27137C5.87269 6.29998 5.50638 6.42124 5.22561 6.64605C4.44796 7.26866 4.2769 8.32173 3.73505 9.11418C3.70867 9.15277 3.65744 9.13655 3.65257 9.09105C3.52919 7.93737 4.00877 6.5811 4.7905 5.75696ZM14.0985 5.01618C14.5721 4.84333 15.1084 4.85812 15.5845 5.01145C16.0641 5.16597 16.5044 5.45941 16.8436 5.84279C16.9975 6.01684 17.1399 6.20891 17.2541 6.41337C17.3148 6.52171 17.3786 6.74554 17.4476 6.87882C17.8206 7.1014 17.9801 7.60861 17.6461 7.96945L17.631 7.98528L17.5863 8.03108C17.4068 8.21474 17.136 8.29433 16.8909 8.22097C16.3425 8.05698 16.2758 7.6106 16.086 7.13681C15.9605 6.82386 15.7457 6.54694 15.4852 6.34354C14.8695 5.86299 13.86 5.70989 13.1187 5.93635C13.0793 5.94844 13.0329 5.89648 13.061 5.85879C13.2015 5.67077 13.2824 5.51647 13.4705 5.3648C13.6614 5.21088 13.8697 5.09967 14.0985 5.01618Z" fill="black"/>
</svg>
