<svg width="21" height="22" viewBox="0 0 21 22" fill="none" xmlns="http://www.w3.org/2000/svg">
<path fill-rule="evenodd" clip-rule="evenodd" d="M12.9978 17.3383C12.5047 17.5386 11.922 17.5859 11.413 17.4153C10.9262 17.252 10.4843 16.8887 10.2168 16.4318C9.97864 16.0248 9.87917 15.5418 10.0199 15.0604C10.0267 15.0373 10.0485 15.0226 10.0696 15.0169C10.1848 15.1252 10.2559 15.2328 10.327 15.3399C10.4469 15.5204 10.567 15.6991 10.7319 15.8535C10.9718 16.078 11.295 16.2604 11.6158 16.3205C11.9299 16.3795 12.2514 16.3274 12.5327 16.172C12.7037 16.0776 12.842 15.9514 12.9789 15.8246C13.128 15.6865 13.2748 15.5463 13.4802 15.4683C13.6447 15.4058 13.8176 15.4586 13.9504 15.5631C14.0932 15.6755 14.1958 15.8513 14.1901 16.0352C14.1813 16.3201 14.0606 16.5577 13.8855 16.7538C13.6488 17.0188 13.3141 17.2098 12.9978 17.3383ZM12.4123 10.239C12.9611 10.5836 13.7971 11.3873 13.2068 12.2417C12.512 12.995 11.5116 12.1313 11.0186 11.7406C10.5615 11.4378 10.0479 12.2165 10.472 12.57C14.0343 15.2953 15.48 10.3291 12.6899 9.83375C12.3827 9.77916 12.2686 10.1323 12.4123 10.239ZM6.64089 5.46363C7.38875 5.42668 8.04781 5.77373 8.76051 5.93141C9.41914 6.07722 10.068 5.98967 10.7086 5.80421C11.7481 5.5032 12.1778 7.14756 11.1525 7.46803C10.4058 7.70139 9.61954 7.71761 8.8533 7.59733C8.17265 7.4904 7.60209 7.14801 6.95313 6.94866C6.39619 6.77767 5.74102 6.84873 5.15286 6.92924L4.92455 6.96098C4.58521 7.00821 4.24405 7.05558 3.90805 7.12414C3.61652 7.18368 3.3255 7.29263 3.02794 7.30524C2.99415 7.30675 2.96552 7.26139 2.98681 7.23113C3.33247 6.74078 3.99866 6.35388 4.52859 6.09582L4.5645 6.07842C5.21863 5.76329 5.91257 5.49952 6.64089 5.46363ZM6.36689 9.0794L6.3668 9.06249C6.36782 8.58368 6.63769 7.49047 7.30476 7.49047C7.72149 7.49047 7.9745 8.23448 8.0183 9.00144L8.01982 9.03271C8.03916 9.50954 7.91252 10.5518 7.30476 10.5518C6.69056 10.5518 6.37321 9.56465 6.36689 9.0794ZM16.1879 9.0794L16.188 9.06249C16.1869 8.58368 15.9171 7.49047 15.25 7.49047C14.8437 7.49047 14.593 8.19774 14.5401 8.94397L14.5365 9.00144C14.5102 9.46217 14.6286 10.5518 15.25 10.5518C15.8642 10.5518 16.1815 9.56465 16.1879 9.0794ZM16.1776 4.88046L16.2254 4.88154C17.0049 4.90947 17.8067 5.38664 18.0149 6.18818C18.0256 6.22977 17.976 6.25778 17.9466 6.22925C17.3056 5.60914 16.4435 6.20167 15.8017 6.51225L15.5659 6.62479C14.7385 7.02258 13.7974 7.49024 12.8786 7.19379C12.4423 7.05301 12.1652 6.58973 12.2896 6.1218C12.4004 5.70545 12.8867 5.35556 13.308 5.50583L13.3271 5.51301C13.6693 5.64829 14.0901 5.51123 14.4436 5.37609L14.734 5.26342C15.2009 5.08035 15.6699 4.87553 16.1776 4.88046Z" fill="black"/>
</svg>
