<svg width="21" height="22" viewBox="0 0 21 22" fill="none" xmlns="http://www.w3.org/2000/svg">
<path fill-rule="evenodd" clip-rule="evenodd" d="M12.1308 16.6201C12.2422 16.4199 12.4989 16.2343 12.7337 16.2628C13.7858 16.3903 13.784 17.7083 13.3778 18.4778C13.0176 19.1601 12.2721 19.5606 11.526 19.5021C10.7421 19.4406 10.0743 18.9644 9.78036 18.2067C9.58599 17.7055 9.49617 16.7803 10.0133 16.4435C10.0228 16.4372 10.0387 16.4388 10.0463 16.4479C10.2942 16.7459 10.304 17.1933 10.521 17.5251C10.7229 17.8337 11.0365 18.0886 11.4039 18.1279C11.6783 18.1573 11.9559 18.0551 12.0632 17.8005C12.1213 17.6628 12.1146 17.5881 12.0928 17.4933L12.073 17.411C12.0043 17.1225 11.9734 16.9029 12.1308 16.6201ZM12.412 10.8397C12.9607 11.1843 13.7968 11.988 13.2065 12.8424C12.5117 13.5957 11.5113 12.732 11.0183 12.3413C10.5612 12.0385 10.0476 12.8172 10.4717 13.1707C14.034 15.896 15.4796 10.9298 12.6895 10.4345C12.3823 10.3799 12.2683 10.7331 12.412 10.8397ZM6.61755 8.4764C6.95435 7.95425 7.72314 8.03114 7.90865 8.65075C8.00915 8.98638 7.87036 9.28807 7.87755 9.62325C7.88358 9.9064 7.86564 10.2219 7.78164 10.4961C7.59009 11.1214 7.04584 11.5631 6.40196 11.5448C5.76019 11.5265 5.19493 11.1068 4.92614 10.5156C4.65641 9.92224 4.71353 9.30812 4.91045 8.70473C4.9199 8.67575 4.95666 8.66171 4.97883 8.68611C5.21159 8.94171 5.38199 9.21155 5.55831 9.4978L5.739 9.79116C5.87709 10.0121 6.07777 10.2943 6.33561 10.2765L6.3743 10.2726C6.44596 10.2662 6.43498 10.2809 6.49025 10.18C6.51582 10.1333 6.51117 10.0465 6.52353 9.99139L6.52781 9.97277L6.52548 9.96274C6.52002 9.93605 6.51461 9.88575 6.51021 9.79848L6.50928 9.7792C6.49061 9.37096 6.37892 8.84634 6.61755 8.4764ZM15.155 8.82401C15.0946 8.1562 16.0032 8.0079 16.3053 8.50204C16.4628 8.75972 16.5087 9.08342 16.5435 9.3901L16.5598 9.53566C16.5956 9.85065 16.6098 10.1783 16.4774 10.4721C16.269 10.9349 15.8158 11.1795 15.3269 11.1408C14.8601 11.1037 14.4341 10.824 14.2096 10.3994C14.0094 10.0205 13.8104 9.28075 14.0535 8.88558C14.0682 8.86162 14.0975 8.85854 14.1177 8.87702C14.3474 9.08778 14.3848 9.47222 14.5215 9.7468C14.6623 10.03 14.8761 10.306 15.1999 10.3491C15.5098 10.3902 15.6281 10.2153 15.5491 9.91011C15.4471 9.51607 15.1934 9.24801 15.155 8.82401ZM6.86297 4.50613L7.01156 4.44733C7.52066 4.2486 8.2196 4.0189 8.63351 4.44667C8.88885 4.71044 8.93746 5.09901 8.75522 5.4209C8.5344 5.81082 8.1383 5.82043 7.7558 5.87787C7.32076 5.94319 6.8783 6.06738 6.47327 6.24443C6.01701 6.44394 5.5936 6.69262 5.17875 6.97036C4.78448 7.23428 4.39158 7.66565 3.91963 7.74697C3.90037 7.75027 3.8785 7.74171 3.87349 7.71986C3.76631 7.24307 4.06416 6.77386 4.32996 6.40189C4.65158 5.95153 5.04127 5.58188 5.47682 5.25045C5.89719 4.93052 6.3775 4.69933 6.86297 4.50613ZM16.1108 6.2013L16.1561 6.19309C16.4649 6.13998 16.7446 6.15221 16.9773 6.40486C17.1549 6.59761 17.2233 6.84741 17.1387 7.10225C17.0606 7.33735 16.8859 7.57619 16.6324 7.62545C15.7764 7.79184 14.8284 7.76436 13.9682 7.63836C13.5746 7.58069 13.1775 7.51013 12.7942 7.39884L12.6178 7.34601C12.2978 7.25155 11.9314 7.15287 11.699 6.90966C11.6154 6.82226 11.6636 6.69717 11.7635 6.6567C12.1692 6.49256 12.7251 6.57989 13.1576 6.56705C13.6607 6.55218 14.1647 6.51321 14.6654 6.45952C15.1547 6.40696 15.6282 6.29276 16.1108 6.2013Z" fill="black"/>
</svg>
