<svg width="22" height="22" viewBox="0 0 22 22" fill="none" xmlns="http://www.w3.org/2000/svg">
<path fill-rule="evenodd" clip-rule="evenodd" d="M12.6893 15.6126C13.593 15.6126 13.9757 15.7575 14.5636 16.0982C15.1515 16.4389 15.78 16.8781 15.9287 17.536C16.0674 18.149 15.7945 18.7463 15.1904 18.9801C14.8526 19.111 10.9596 19.4174 10.3489 19.4574C9.73821 19.4974 9.15538 19.4479 8.76322 19.0468C7.74993 18.0103 9.15709 16.6664 10.0563 16.1701C10.8592 15.7268 11.7857 15.6126 12.6893 15.6126ZM12.4803 16.3116C11.8006 16.3116 10.687 16.802 10.687 17.0408C10.687 17.2795 13.9326 17.0425 14.0022 16.8382C14.0718 16.634 13.1601 16.3116 12.4803 16.3116ZM13.0033 10.8397C13.5781 11.1843 14.454 11.988 13.8356 12.8424C13.1077 13.5958 12.0596 12.732 11.5432 12.3413C11.0643 12.0385 10.5263 12.8172 10.9706 13.1708C14.7025 15.896 16.217 10.9298 13.294 10.4345C12.9722 10.3799 12.8527 10.7331 13.0033 10.8397ZM6.51191 7.71608C7.49102 7.00307 8.95566 7.55187 9.19697 8.66741C9.36467 8.75443 9.45595 8.89282 9.47582 9.0954L9.48076 9.14608C9.50444 9.38673 9.28733 9.61454 9.0703 9.67798C8.82602 9.74931 8.63266 9.71245 8.40588 9.61011C8.1885 9.51192 8.11286 9.23354 8.15234 9.02173L8.15589 9.00424C8.21397 8.74137 7.98545 8.48668 7.75548 8.38254C7.49597 8.26503 7.20479 8.33861 6.97916 8.49434C6.72863 8.66711 6.52028 8.96265 6.44979 9.25713L6.44279 9.28771C6.38718 9.54193 6.34541 10.0189 6.59549 10.1649C6.63979 10.1907 6.6082 10.2498 6.56245 10.242C6.01907 10.1503 5.69547 9.82793 5.69214 9.2512C5.68869 8.64045 6.02128 8.07334 6.51191 7.71608ZM15.528 7.51317C16.5058 7.17108 17.7287 8.09005 17.352 9.15146C17.1047 9.84834 16.1481 9.56897 16.2372 8.87046L16.2402 8.84916C16.2969 8.48575 16.0179 8.31433 15.6757 8.43356C15.1687 8.61039 14.8952 9.39623 15.1328 9.8547C15.162 9.91102 15.0805 9.9587 15.0465 9.90441L15.0139 9.85281C14.7486 9.43607 14.5066 9.12845 14.5938 8.59612C14.674 8.10544 15.0547 7.67866 15.528 7.51317ZM13.5448 4.98682C13.5423 4.93989 13.5924 4.90828 13.6352 4.91887C13.9828 5.00514 14.2974 5.25442 14.6139 5.41616C14.9594 5.59261 15.3132 5.73519 15.6883 5.83971C16.0539 5.94153 16.4232 5.99229 16.8033 5.98913C17.2144 5.98575 17.6168 5.83356 18.02 5.84609C18.6263 5.86494 18.943 6.73443 18.346 7.03327C17.4767 7.46824 16.1873 7.1522 15.3417 6.79059C14.6611 6.49949 13.5891 5.81163 13.5448 4.98682ZM9.12901 5.18561C9.44615 4.78286 10.0878 4.75868 10.3694 5.23322C10.6603 5.72353 10.3107 6.21511 9.81642 6.31655C8.91442 6.71428 7.99057 7.01867 7.00537 7.14489L6.87193 7.16147C6.01449 7.26436 4.93237 7.32048 4.15755 6.93037C4.08165 6.89208 4.10464 6.77802 4.18061 6.75662C4.61742 6.63341 5.10659 6.63371 5.5558 6.55284C5.98309 6.47603 6.40688 6.39103 6.82297 6.26647C7.64504 6.02026 8.42395 5.66841 9.12901 5.18561Z" fill="black"/>
</svg>
