<svg width="22" height="22" viewBox="0 0 22 22" fill="none" xmlns="http://www.w3.org/2000/svg">
<path fill-rule="evenodd" clip-rule="evenodd" d="M11.8665 18.8413C12.4419 18.7624 13.0607 18.4409 13.6103 18.7021C13.8672 18.8242 13.9892 19.2418 13.8155 19.4739C13.5502 19.8283 13.2763 19.887 12.8456 19.9211C12.5228 19.9466 12.1982 19.9485 11.8762 19.9118L11.7943 19.9019C11.2197 19.8287 10.6225 19.6705 10.1774 19.2897C10.0863 19.2117 10.133 19.0434 10.2499 19.0191C10.7785 18.9094 11.3314 18.9149 11.8665 18.8413ZM11.1893 17.5344C11.189 17.5299 11.1961 17.5299 11.1964 17.5344C11.2103 17.8588 11.3027 18.1595 11.4735 18.437C11.4759 18.441 11.4697 18.4446 11.4674 18.4406C11.2965 18.1629 11.2032 17.8591 11.1893 17.5344ZM13.0031 10.8399C13.5779 11.1846 14.4538 11.9882 13.8354 12.8426C13.1075 13.596 12.0595 12.7322 11.543 12.3415C11.0641 12.0388 10.5261 12.8175 10.9704 13.171C14.7023 15.8962 16.2168 10.93 13.2938 10.4347C12.972 10.3801 12.8525 10.7333 13.0031 10.8399ZM15.9453 6.983C16.0803 6.983 16.2094 7.0282 16.3269 7.11182C16.4427 7.19412 16.5474 7.31423 16.6347 7.46405C16.7998 7.74755 16.903 8.13899 16.903 8.57181C16.903 9.00463 16.7998 9.39607 16.6347 9.67957C16.5474 9.82939 16.4427 9.9495 16.3269 10.0318C16.2094 10.1154 16.0803 10.1606 15.9453 10.1606C15.8103 10.1606 15.6812 10.1154 15.5636 10.0318C15.4479 9.9495 15.3431 9.82939 15.2559 9.67957C15.0908 9.39607 14.9876 9.00463 14.9876 8.57181C14.9876 8.13899 15.0908 7.74755 15.2559 7.46405C15.3431 7.31423 15.4479 7.19412 15.5636 7.11182C15.6812 7.0282 15.8103 6.983 15.9453 6.983ZM9.69414 7.42448L9.74495 7.41497C10.0414 7.36178 10.1913 7.37969 10.4494 7.579C10.6435 7.7288 10.5879 8.02381 10.4494 8.18134C10.2083 8.45585 9.9726 8.40723 9.64221 8.4177L9.619 8.41853C9.34366 8.42957 9.06809 8.4373 8.79252 8.44143C8.71716 8.44263 8.64172 8.44233 8.56635 8.44278C8.57435 9.13064 8.17226 9.65436 7.64273 10.0525C7.30048 10.31 6.86756 10.013 6.74545 9.6925C6.64444 9.4273 6.62274 9.10121 6.67511 8.81085C6.69451 8.70382 6.73496 8.58765 6.7968 8.48858L6.81419 8.46201L6.81138 8.42401C6.81069 8.41463 6.81138 8.40554 6.81107 8.39616C6.3195 8.36669 5.83076 8.31807 5.34219 8.25697L5.17934 8.23615C4.76233 8.18171 4.14991 8.16422 3.81245 7.89669C3.80179 7.88813 3.8056 7.86943 3.81687 7.8635C4.00238 7.76495 4.19059 7.77053 4.39807 7.76144L4.42784 7.76003C4.65347 7.74854 4.87859 7.73896 5.1041 7.73133L5.32976 7.72437C5.90694 7.70807 6.48465 7.68044 7.06129 7.65018C7.16155 7.64493 7.26181 7.63869 7.36221 7.63261C7.46719 7.58921 7.57879 7.56323 7.68902 7.55843C7.78037 7.55437 7.86821 7.56684 7.95081 7.59274C8.16143 7.57669 8.37192 7.55921 8.58224 7.54041L8.79252 7.52119C9.08925 7.49333 9.40121 7.48117 9.69414 7.42448ZM13.3381 2.2691C13.9725 1.96163 14.7438 1.95412 15.3971 2.20858L15.4404 2.22588C16.1002 2.49595 16.8952 3.11978 16.7231 3.8968C16.5656 4.60801 15.4346 4.4875 15.3773 3.81526C15.0121 3.31624 14.1932 3.20677 13.6785 3.52408C13.3663 3.7166 13.152 4.04074 13.0055 4.36766C12.8807 4.64608 12.8572 4.98989 12.6654 5.23242C12.6592 5.2403 12.6467 5.24173 12.6376 5.23963C12.0658 5.10913 12.0525 4.21284 12.15 3.77809C12.2917 3.14602 12.7464 2.55608 13.3381 2.2691Z" fill="black"/>
</svg>
