<svg width="22" height="22" viewBox="0 0 22 22" fill="none" xmlns="http://www.w3.org/2000/svg">
<path fill-rule="evenodd" clip-rule="evenodd" d="M11.9106 14.1523C13.4754 14.0912 16.3725 14.3741 17.5542 15.2869C18.7695 16.1906 17.245 19.1007 17.0744 19.0944C15.3279 19.0298 13.5967 19.2767 11.8703 19.5059L11.5228 19.552C10.3578 19.7103 8.73387 19.9885 8.18036 18.6628C7.49326 16.3691 9.57466 14.1417 11.9106 14.1523ZM14.6679 15.1244C13.7409 14.9869 12.8004 14.9659 11.8566 15.0587C11.0168 15.1415 10.2267 15.3675 9.70087 15.9963C9.82724 16.0172 9.93914 16.1092 10.0159 16.2317C11.1419 16.2654 12.3052 16.2166 13.4446 16.2755C14.0814 16.2892 14.7349 16.3561 15.3707 16.3269C15.9187 16.3016 15.7681 15.8495 15.8449 15.4677C15.4821 15.3071 15.0474 15.1814 14.6679 15.1244ZM4.41754 6.42842C5.54182 4.59784 8.93728 5.73936 10.6386 6.11584C11.9444 5.83547 12.0757 7.9778 10.7169 7.7548C11.4562 8.81148 11.1716 10.1936 10.172 10.9983C7.56636 13.1403 2.78269 9.64094 6.08512 7.14376C6.12281 6.82997 6.54339 6.74077 6.79179 6.62154L6.70293 6.60098C5.97691 6.43523 5.24185 6.32524 4.52084 6.56222C4.44761 6.5665 4.40384 6.49164 4.41754 6.42842ZM13.612 10.2393C14.1868 10.5839 15.0627 11.3876 14.4443 12.242C13.7164 12.9954 12.6683 12.1316 12.1519 11.7409C11.673 11.4382 11.135 12.2168 11.5793 12.5704C15.3112 15.2956 16.8257 10.3294 13.9027 9.83408C13.5809 9.77949 13.4614 10.1327 13.612 10.2393ZM19.5229 4.43043C19.5644 4.42592 19.582 4.48284 19.5558 4.50859C18.8469 5.199 17.9614 5.70508 17.1682 6.29412C18.4475 6.39263 19.6144 7.3559 20.0111 8.55036C20.3638 10.4497 17.5816 11.323 16.0964 10.7494C14.8711 10.3322 13.9826 9.15923 14.6509 7.91371C13.9519 7.92039 13.2447 7.01817 13.76 6.49918C14.2166 6.03913 14.7478 6.3177 14.9542 6.2089L15.1754 6.09259C16.5542 5.37 17.9838 4.67523 19.5229 4.43043ZM10.0292 8.28686C9.14305 6.91302 5.66629 6.88869 5.75962 9.00707C5.90006 11.8072 11.521 11.172 10.0292 8.28686ZM17.2033 7.1136C16.5496 6.97567 15.9767 7.71556 15.6102 7.52484C13.5375 9.85857 17.7551 11.1992 19.1363 9.41572C19.8922 8.45245 18.1294 7.13478 17.2033 7.1136ZM8.44278 8.40581C9.30078 8.09736 9.2937 9.35188 8.65867 9.59981C7.93244 9.88146 7.69158 8.38876 8.44278 8.40581ZM16.1481 8.54072C16.1029 7.77117 17.2785 7.42045 17.5741 8.18144C17.9911 9.21363 16.2097 9.73037 16.1481 8.54072Z" fill="#231F20"/>
</svg>
