<svg width="21" height="22" viewBox="0 0 21 22" fill="none" xmlns="http://www.w3.org/2000/svg">
<path fill-rule="evenodd" clip-rule="evenodd" d="M6.85422 14.198C6.86948 14.1834 6.8936 14.1783 6.91199 14.1903C7.22641 14.3957 7.26361 15.0866 7.26717 15.4856C7.39724 15.5206 7.52571 15.5603 7.6472 15.5881C7.90519 15.6471 8.16462 15.6986 8.42352 15.7528L8.61757 15.7942C9.26617 15.9354 9.9269 16.0399 10.5879 16.0923C11.2293 16.143 11.8894 16.1616 12.5291 16.0762C12.8038 16.0395 13.0768 15.9782 13.3423 15.8964C13.656 15.7997 13.9059 15.6394 14.1978 15.499C14.9283 15.1474 15.5406 16.1778 14.8375 16.6299C14.2339 17.0179 13.4105 17.1578 12.7138 17.2179C12.0017 17.2792 11.2923 17.2118 10.5888 17.0955C9.82823 16.9695 9.08327 16.7762 8.36193 16.4958C8.05693 16.3773 7.76176 16.2336 7.47356 16.0765L7.39513 16.0333C7.34725 16.0067 7.29733 15.9798 7.24712 15.9524C7.19313 16.45 7.03755 16.9307 6.84957 17.3927L6.84514 17.3845C6.74232 17.749 6.37086 17.9745 6.00129 17.8135C5.5675 17.6247 5.53455 17.129 5.78695 16.7771L5.79899 16.7607C6.09575 16.3662 6.2817 15.8768 6.4433 15.4103C6.52621 15.1712 6.60295 14.9263 6.66951 14.6816C6.71768 14.5046 6.71943 14.3266 6.85422 14.198ZM18.0323 10.2356C17.7752 11.0385 17.2144 11.6568 16.4333 11.9287C15.6591 12.1981 14.7981 12.0999 14.0068 11.9542C13.8336 11.9223 13.6582 11.8872 13.483 11.8461C13.6264 11.9379 13.753 12.067 13.8741 12.2035C14.0533 12.4054 14.2158 12.6182 14.265 12.8709C14.314 13.1216 14.2369 13.3123 14.0964 13.4563C13.8802 13.6778 13.5315 13.797 13.2362 13.863C12.5748 14.0107 11.9123 13.9877 11.2542 13.8363C11.0862 13.7976 10.9722 13.7045 10.9083 13.5831C10.8306 13.4356 10.8242 13.2521 10.8688 13.085C10.9133 12.9181 11.0096 12.7641 11.1494 12.6789C11.2644 12.6088 11.4082 12.5895 11.5715 12.6456C11.8993 12.7583 12.2247 12.833 12.5708 12.8416C12.7173 12.8451 12.8648 12.8406 13.0111 12.8267C13.0938 12.8189 13.1764 12.808 13.2585 12.7944C13.2101 12.7279 13.1632 12.6601 13.1173 12.5917C13.0631 12.5108 13.0103 12.4288 12.9599 12.3455C12.8141 12.1043 12.6927 11.8563 12.586 11.5945C12.5518 11.5107 12.5201 11.4265 12.4896 11.342C12.4852 11.3298 12.4809 11.3176 12.4765 11.3054C12.4671 11.2973 12.4578 11.2891 12.4485 11.2808C12.2399 11.0943 12.065 10.8645 11.9412 10.58C11.6063 9.80916 11.6608 8.85236 11.8641 8.05199C12.027 7.41044 12.3865 6.81705 12.8615 6.41393C12.9445 6.27292 12.9992 6.18738 13.0663 6.11534C13.3393 5.82186 13.7203 5.62391 14.092 5.50351C14.9223 5.23447 15.8266 5.42749 16.5304 5.93973C17.1803 6.4127 17.689 7.12203 17.9639 7.91096C18.2243 8.65809 18.2751 9.47758 18.0323 10.2356ZM6.72284 5.35598C7.71028 5.34727 8.71494 5.64851 9.51621 6.25137C10.2828 6.82826 10.8846 7.67995 10.8839 8.69443C10.8832 9.68217 10.3722 10.6533 9.80548 11.4181C9.16938 12.2766 8.3381 12.6905 7.29289 12.7001C6.7496 12.7051 6.20232 12.6554 5.66293 12.5871L5.37353 12.5494C4.97501 12.4963 4.57236 12.4334 4.19463 12.2919C2.39662 11.618 2.34096 9.18616 3.00686 7.63167C3.52103 6.4315 4.82238 5.26107 6.12002 5.40156C6.31556 5.37325 6.51633 5.35786 6.72284 5.35598ZM8.39056 6.49961C7.15403 5.9261 5.65162 6.09782 4.45215 6.70985C3.977 7.2455 3.62974 7.9206 3.48921 8.54035C3.33915 9.20193 3.3611 9.91456 3.58672 10.5558C3.86219 11.3386 4.54051 11.5324 5.27224 11.6527L5.55633 11.6988L5.67552 11.7175C6.39451 11.8283 7.18056 11.9145 7.87152 11.7758C8.64157 11.621 9.13062 10.9782 9.51553 10.3192L9.5335 10.2883C9.93323 9.5977 10.2678 8.75787 9.93257 7.96662C9.64751 7.29408 9.02485 6.79379 8.39056 6.49961ZM15.689 6.69944C15.2647 6.45646 14.7806 6.41231 14.3224 6.57495C14.1253 6.64491 13.9549 6.7583 13.7897 6.88542L13.7239 6.93693C13.5208 7.09804 13.331 7.17965 13.1787 7.39724L13.159 7.42641C13.0821 7.54505 12.9476 7.5925 12.8251 7.57674C12.6823 7.98347 12.6234 8.42332 12.6222 8.85634L12.6223 8.91372L12.623 8.97224C12.6322 9.48407 12.7186 10.1102 13.1083 10.4533C13.4638 10.7661 14.0021 10.8412 14.4826 10.8847L14.853 10.9167L14.9514 10.9243C15.4579 10.9607 16.013 10.9483 16.4375 10.6385C16.8072 10.3686 16.9816 9.91061 17.0268 9.45837C17.1337 8.38998 16.6103 7.22691 15.689 6.69944ZM6.45204 6.79814C7.13297 6.43893 7.95096 6.52896 8.52777 6.97917C8.47654 6.98953 8.42611 7.00275 8.37583 7.0288C8.24496 7.0966 8.16372 7.23236 8.13276 7.37682C8.09788 7.54013 8.17978 7.69473 8.33579 7.74624C8.47152 7.79099 8.63248 7.81149 8.75855 7.72627C8.8246 7.68167 8.87074 7.62288 8.90104 7.54884L8.90533 7.53795L8.91066 7.52996L8.91268 7.52623C8.91314 7.5248 8.91076 7.52751 8.907 7.5336C8.91085 7.52436 8.91441 7.51513 8.91797 7.50574C8.92328 7.49455 8.92836 7.48329 8.93251 7.47165C8.93985 7.46512 8.94653 7.45784 8.95329 7.45055C9.05807 7.61717 9.14033 7.80533 9.19257 8.01467C9.52785 9.35832 8.15304 10.7527 6.92479 10.8922C6.46061 10.945 6.03734 10.8307 5.68608 10.6056C5.68928 10.6012 5.69284 10.5972 5.69575 10.5926C5.83686 10.6188 6.0053 10.5535 6.05652 10.3909C6.18725 9.97605 6.05318 9.49077 5.61574 9.35524C5.33424 9.268 5.0462 9.3644 4.84499 9.56323C4.69283 9.17842 4.63841 8.74518 4.71042 8.31126C4.812 7.69909 5.16937 7.14743 5.72554 6.89275C5.99636 6.76863 6.22976 6.74258 6.45204 6.79814ZM13.623 7.62714L13.6438 7.5934C13.8542 7.2588 14.2564 6.84835 14.6733 6.96121C14.7318 6.97705 14.7892 7.00258 14.841 7.03569C15.07 7.00356 15.3098 7.05732 15.5067 7.18248L15.5014 7.19652C15.5005 7.19887 15.4998 7.20126 15.4992 7.20373C15.4812 7.28513 15.4917 7.36036 15.5285 7.43515C15.5683 7.51616 15.6252 7.59298 15.7023 7.63945C15.7551 7.67129 15.8172 7.68803 15.8781 7.68676C15.9674 7.68511 16.046 7.64449 16.1106 7.58246C16.1457 7.54883 16.1702 7.49949 16.1837 7.44874C16.2155 7.48027 16.2464 7.51541 16.2758 7.55528C16.7591 8.21198 16.6923 9.26723 16.1253 9.85259C16.1024 9.87617 16.0781 9.8975 16.054 9.91927C15.8238 10.2467 15.469 10.469 15.0428 10.5139C14.6483 10.5556 14.2537 10.435 13.9511 10.1879C13.9755 10.1745 13.9982 10.1571 14.0178 10.1342C14.0695 10.0737 14.112 10.0141 14.1434 9.94029C14.1513 9.92172 14.1589 9.90302 14.1661 9.88414L14.1766 9.85567C14.1784 9.85044 14.1945 9.80242 14.1903 9.81086L14.1893 9.8128L14.195 9.79897C14.2491 9.65929 14.2272 9.49962 14.0987 9.41201L14.0845 9.40291C14.0425 9.3776 13.9905 9.36567 13.9378 9.36552C13.8066 9.1995 13.6113 9.16143 13.4279 9.20994L13.4215 9.15634C13.4205 9.14739 13.4197 9.13843 13.4191 9.12945C13.277 8.64282 13.3455 8.08982 13.623 7.62714ZM7.31602 2.72782L7.3632 2.72024C7.71985 2.66698 7.96235 2.7283 8.19424 3.04326C8.30477 3.19335 8.27069 3.42003 8.19424 3.57343C7.94733 4.06907 7.26806 3.96658 6.81057 4.06502C6.3639 4.16105 5.91832 4.29177 5.50036 4.48204C5.07389 4.67621 4.67358 4.9059 4.28323 5.16817C3.93015 5.40552 3.60992 5.76225 3.20656 5.90033C3.1884 5.90656 3.16652 5.88974 3.16762 5.86984C3.19639 5.39583 3.57955 4.96071 3.87631 4.62313C4.21958 4.23276 4.63703 3.88616 5.07178 3.6106C5.52041 3.32633 6.00538 3.09229 6.50749 2.92905C6.77191 2.84308 7.04244 2.77475 7.31602 2.72782ZM12.7496 3.37144C13.1987 2.69289 14.315 2.82302 14.9737 3.00435C15.7996 3.23156 16.6945 3.69115 17.2737 4.35641C17.7924 4.95236 17.0163 5.72664 16.433 5.22515L16.2773 5.09175L16.1776 5.00719C15.7298 4.62925 15.2863 4.28719 14.7406 4.03519C14.1007 3.73988 13.4523 3.59602 12.776 3.43864C12.7494 3.43248 12.7338 3.39524 12.7496 3.37144Z" fill="black"/>
</svg>
