<svg width="22" height="22" viewBox="0 0 22 22" fill="none" xmlns="http://www.w3.org/2000/svg">
<path fill-rule="evenodd" clip-rule="evenodd" d="M12.0167 19.6039L12.1791 19.5614C12.7607 19.4051 13.3642 19.157 13.9195 19.497C14.12 19.6198 14.1502 19.8808 13.9917 20.0498C13.5419 20.5291 12.8779 20.4361 12.2696 20.4409L12.2397 20.4413C11.6277 20.4496 11.0202 20.4195 10.4145 20.3329C10.3346 20.3215 10.3189 20.1906 10.3914 20.1592C10.9188 19.9312 11.4612 19.7514 12.0167 19.6039ZM13.0034 10.8398C13.5782 11.1845 14.4541 11.9881 13.8357 12.8425C13.1078 13.5959 12.0598 12.7321 11.5433 12.3414C11.0644 12.0387 10.5264 12.8174 10.9707 13.1709C14.7026 15.8961 16.2171 10.9299 13.2941 10.4346C12.9723 10.38 12.8528 10.7332 13.0034 10.8398ZM17.0001 6.30753C17.9274 6.27952 17.9283 7.73265 17.0001 7.72874C16.723 7.72754 16.4459 7.72747 16.1688 7.72687C16.3298 8.30585 16.2379 8.99626 15.9471 9.48259C15.7552 9.80358 15.2961 9.86192 15.0279 9.59942C14.5649 9.1462 14.4737 8.48343 14.6373 7.88244L14.6036 7.80383C14.5926 7.77807 14.5848 7.75202 14.5784 7.72582C13.6828 7.72657 12.7872 7.72869 11.8915 7.73013L10.5481 7.73152C9.67584 7.73182 8.80322 7.7388 7.93091 7.73077C7.94165 7.74676 7.95238 7.76268 7.96113 7.78093C8.01556 7.89393 8.03863 8.03659 8.05576 8.15876C8.08499 8.3684 8.08149 8.59418 8.04799 8.80299C8.02356 8.95556 7.97864 9.13727 7.89255 9.28106L7.89201 9.28406C7.85144 9.45465 7.80021 9.61797 7.66646 9.74103C7.62626 9.7779 7.58706 9.80418 7.54565 9.8228C7.46747 9.90351 7.36683 9.9569 7.2346 9.9586C7.16441 9.95938 7.08745 9.93918 7.01285 9.9105C6.89813 9.91996 6.77968 9.86875 6.67821 9.8234C6.59683 9.78698 6.52215 9.73863 6.46194 9.67556C6.43369 9.66895 6.40522 9.65806 6.37675 9.64072C6.20228 9.53485 6.13559 9.32265 6.12653 9.13104C6.12592 9.1194 6.12638 9.10716 6.126 9.09537C6.11953 9.06939 6.11374 9.04326 6.10933 9.01698C6.05132 8.67647 6.12181 8.29301 6.19565 7.96211C6.21423 7.87929 6.22953 7.78311 6.25229 7.69007C6.07819 7.68339 5.90425 7.67678 5.73015 7.66973C5.29411 7.65216 4.76192 7.70975 4.35854 7.52797C4.32915 7.51483 4.33707 7.47623 4.35854 7.46114C4.73096 7.19856 5.3096 7.15606 5.75811 7.06959L5.79623 7.06206C6.33108 6.95386 6.86563 6.86286 7.40588 6.78515C8.44582 6.63558 9.49908 6.55508 10.5481 6.49712C12.6958 6.37848 14.8502 6.37233 17.0001 6.30753Z" fill="black"/>
</svg>
