<svg width="22" height="22" viewBox="0 0 22 22" fill="none" xmlns="http://www.w3.org/2000/svg">
<path fill-rule="evenodd" clip-rule="evenodd" d="M12.784 14.4791C13.4309 14.4575 14.0825 14.4079 14.7259 14.501C15.7948 14.6554 16.8774 15.4045 16.874 16.5696C16.8683 18.5241 14.6352 19.2638 13.0437 19.5187L12.867 19.5468C10.9507 19.8495 8.66642 20.1232 6.94711 19.0515C6.13692 18.5465 5.62323 17.6931 5.86044 16.7347C6.08637 15.8215 6.86787 15.1655 7.74505 14.8821C8.76839 14.5513 9.82729 14.7212 10.8686 14.8573C10.9445 14.8673 11.0202 14.8767 11.0958 14.8863C11.3381 14.81 11.5762 14.7072 11.819 14.6366C12.1389 14.5436 12.4499 14.4902 12.784 14.4791ZM12.5487 16.984L11.5447 17.1138C11.1689 17.1624 10.793 17.2092 10.4172 17.2545C10.4653 17.7595 10.4736 18.2701 10.4566 18.786C11.1337 18.7716 11.8146 18.6852 12.4792 18.5748C12.5232 18.0456 12.5492 17.5156 12.5487 16.984ZM9.57983 17.3594C8.66762 17.4574 7.75464 17.545 6.83934 17.6195C7.0456 18.0125 7.57432 18.2617 7.97929 18.4027C8.44237 18.5639 8.92025 18.6608 9.40516 18.711C9.48937 18.2657 9.54389 17.8138 9.57983 17.3594ZM16.2024 16.6086C15.5129 16.7201 14.8022 16.7686 14.114 16.8541L13.3099 16.9539C13.3925 17.4365 13.4548 17.9227 13.4942 18.4106L13.6195 18.3864C14.1835 18.2749 14.7502 18.1257 15.2486 17.8431L15.2908 17.8186C15.6893 17.5812 16.2152 17.1093 16.2024 16.6086ZM9.65595 15.8577C9.20491 15.8977 8.72831 15.9055 8.29375 15.9998C7.65875 16.1376 6.89473 16.483 6.7746 17.1881C6.75494 17.3036 6.76161 17.4105 6.78801 17.5096C7.72821 17.3338 8.66978 17.1724 9.61375 17.0221C9.63639 16.6337 9.64792 16.2446 9.65595 15.8577ZM12.0976 15.6325L11.4798 15.6855C11.0245 15.7247 10.5685 15.7374 10.1127 15.7707C10.2225 16.1222 10.3017 16.4766 10.3559 16.8338C10.7305 16.7768 11.1054 16.7209 11.4808 16.6667L12.5487 16.5126L12.5472 16.2466C12.546 16.068 12.5435 15.8873 12.5369 15.7069L12.4925 15.7033C12.3589 15.6887 12.2277 15.6631 12.0976 15.6325ZM15.8982 16.0514C15.4713 15.6733 14.6719 15.6994 14.1613 15.7149C13.7786 15.7264 13.3905 15.7659 13.0054 15.7653C13.0775 15.9934 13.146 16.223 13.2021 16.4584L14.0249 16.34C14.6436 16.2511 15.2716 16.1285 15.8982 16.0514ZM13.0031 10.8401C13.578 11.1847 14.4538 11.9884 13.8354 12.8428C13.1075 13.5961 12.0595 12.7323 11.543 12.3417C11.0641 12.0389 10.5261 12.8176 10.9704 13.1711C14.7023 15.8964 16.2168 10.9302 13.2939 10.4348C12.972 10.3803 12.8525 10.7334 13.0031 10.8401ZM18.6342 8.91839C18.4375 10.186 16.4172 11.9535 16.1431 11.9535C15.8689 11.9535 13.5216 9.70457 13.5216 8.70417C13.5216 7.70376 14.5356 6.3609 16.1431 8.05167C17.0573 6.92269 18.8308 7.65082 18.6342 8.91839ZM9.65893 7.79169C10.1343 8.47624 9.9533 9.32786 9.46946 9.95197C9.04129 10.5044 7.60095 11.7406 7.3754 11.7725C7.09737 11.8117 5.82476 10.3922 5.53039 10.154C5.23602 9.91571 4.4199 9.14996 4.6137 8.44065C4.80013 7.75828 5.7977 6.60437 7.25433 7.79169C7.71742 6.65925 9.22959 7.17336 9.65893 7.79169ZM4.92592 5.58772C5.67201 4.76306 7.25213 3.89289 8.123 5.00731C8.34536 5.29203 8.10792 5.75734 7.78325 5.83092C7.38116 5.92215 6.97496 5.86666 6.58018 5.97981C6.21843 6.08351 5.87192 6.29127 5.56186 6.49835C5.20826 6.73442 4.8826 6.99797 4.58336 7.29824C4.40538 7.47687 4.18111 7.90005 3.90661 7.90793C3.6337 7.91581 4.00001 7.07403 4.03031 7.0012C4.24551 6.48274 4.5478 6.00564 4.92592 5.58772ZM13.9557 3.57097C14.3853 3.37348 14.8044 3.46135 15.237 3.57806L15.4232 3.62909C15.8841 3.75546 16.3761 3.91073 16.7715 4.18322L16.8025 4.20491C17.2998 4.55685 18.0603 5.31205 17.6973 5.96815C17.673 6.01192 17.6215 6.01628 17.5801 5.99841C17.1124 5.79635 16.7657 5.39284 16.2682 5.22405L16.1764 5.19322C15.6946 5.03315 15.0986 4.86485 14.58 4.88016C14.2154 4.99706 13.7229 4.90023 13.628 4.46244L13.6237 4.44099L13.6155 4.39563C13.5608 4.09649 13.6421 3.71514 13.9557 3.57097Z" fill="black"/>
</svg>
