<svg width="22" height="22" viewBox="0 0 22 22" fill="none" xmlns="http://www.w3.org/2000/svg">
<path fill-rule="evenodd" clip-rule="evenodd" d="M12.8169 14.6803C13.7601 14.6758 15.173 14.6488 16.1154 14.7036C16.3871 14.7194 16.5211 15.1023 16.5402 15.284C16.7206 16.9727 15.3534 18.3197 13.8438 18.8416C12.4431 19.3259 10.5933 19.4175 9.3441 18.5127C8.80133 18.12 8.39026 17.5756 8.1223 16.9697C7.97766 16.6431 7.87185 16.3044 7.81323 15.953C7.76832 15.685 7.68306 15.3238 7.78278 15.0603C7.91981 14.7006 8.30119 14.7261 8.62776 14.7201C9.07842 14.7111 9.52908 14.6998 9.97898 14.6946C10.9252 14.684 11.8714 14.684 12.8169 14.6803ZM15.4333 15.1721C15.0093 15.2172 10.3276 15.2502 9.60444 15.2659C9.49558 15.2683 9.3814 15.2659 9.26569 15.2629C9.18553 15.5075 9.39358 16.0112 9.61738 16.0987C9.84119 16.1861 11.7336 16.2719 12.8512 16.2216C13.6132 16.1878 15.5898 15.7322 15.5898 15.5368C15.5898 15.3412 15.5056 15.1646 15.4333 15.1721ZM5.96412 10.8404C6.10975 10.7644 6.24593 10.8627 6.26481 11.0105C6.3028 11.3072 6.144 11.6173 6.13601 11.9228C6.12741 12.2495 6.16341 12.5759 6.1523 12.9026C6.13289 13.4731 5.96009 14.046 5.6259 14.5159C5.22701 15.0767 4.17489 15.6891 3.67277 14.8773C3.31171 14.2936 3.5955 13.4423 3.85829 12.8791C4.06435 12.4376 4.36406 12.0293 4.69977 11.6748C4.92319 11.4387 5.3928 10.907 5.75379 10.9604C5.76764 10.9624 5.77388 10.9789 5.77122 10.9907C5.76878 11.0012 5.76475 11.0104 5.76148 11.0203C5.8137 10.947 5.87939 10.8845 5.96412 10.8404ZM5.68923 11.1469C5.62521 11.2222 5.5382 11.2825 5.46451 11.3561C5.30777 11.5127 5.15202 11.67 5.0115 11.8412C4.75534 12.1534 4.54386 12.5021 4.37616 12.8677C4.17618 13.3033 3.84687 14.0502 4.08171 14.5345C4.20762 14.7941 4.53161 14.7476 4.75009 14.6212C5.15827 14.3852 5.39905 13.8816 5.51339 13.4485C5.64089 12.9654 5.56637 12.4752 5.56873 11.9834C5.56987 11.7323 5.57451 11.4009 5.68923 11.1469ZM17.5849 10.075C17.5919 9.88932 17.7808 9.79066 17.9447 9.87137C18.2255 10.0098 18.3439 10.2909 18.499 10.5486C18.6788 10.8476 18.8587 11.1465 19.0385 11.4455C19.3558 11.9729 19.7889 12.5359 19.9488 13.1357C20.1851 14.0223 19.4051 14.673 18.5406 14.4826C17.6384 14.2839 17.3035 13.2491 17.3225 12.4408C17.3325 12.0177 17.4326 11.588 17.5171 11.1748C17.5668 10.9317 17.5839 10.6676 17.6477 10.4238C17.6054 10.3084 17.5805 10.1918 17.5849 10.075ZM13.0034 10.8397C12.8528 10.7331 12.9723 10.3799 13.2941 10.4345C16.2171 10.9298 14.7026 15.896 10.9707 13.1708C10.5264 12.8172 11.0644 12.0386 11.5433 12.3413C12.0598 12.732 13.1078 13.5958 13.8357 12.8424C14.4541 11.988 13.5782 11.1843 13.0034 10.8397ZM18.0229 11.0768C17.9868 11.3142 17.9329 11.5426 17.9078 11.7113C17.8091 12.3751 17.7391 13.2372 18.2954 13.7394C18.5309 13.952 18.94 14.0307 19.2136 13.8302C19.6138 13.5369 19.1936 12.9728 19.0069 12.6716C18.731 12.2267 18.4593 11.7795 18.1895 11.331C18.1406 11.2498 18.0828 11.1646 18.0229 11.0768ZM7.31749 7.62831C8.27324 7.47589 9.30724 8.09677 9.64089 8.99171C9.72508 9.21749 9.58524 9.49711 9.38481 9.61259C9.15354 9.74579 8.90637 9.68122 8.70935 9.52662C8.44459 9.31893 8.31868 8.98533 8.02789 8.79657C7.78185 8.63678 7.45208 8.62837 7.1692 8.67455C6.50403 8.78313 5.9812 9.20653 5.37365 9.45386C5.28847 9.48855 5.23861 9.3808 5.26723 9.31736C5.63522 8.50163 6.40354 7.77405 7.31749 7.62831ZM16.5832 7.59141C17.3472 7.52676 18.2574 7.85316 18.499 8.62849C18.5048 8.64711 18.4849 8.66903 18.4652 8.66183C18.003 8.49281 17.4918 8.39009 16.9977 8.47606C16.6795 8.53148 16.0514 8.75365 16.0273 9.11369C15.9901 9.66887 15.3371 9.80545 15.019 9.38302C14.7096 8.97215 14.9758 8.41021 15.3176 8.11325C15.676 7.80195 16.1105 7.63143 16.5832 7.59141ZM9.25718 4.445C9.42306 4.63091 9.48015 4.97646 9.25718 5.15441C8.86499 5.46752 8.43139 5.34618 7.96139 5.37268C7.57407 5.39461 7.20182 5.45783 6.82873 5.56302C6.01024 5.79376 5.34332 6.21499 4.64426 6.67752C4.55253 6.73818 4.4589 6.62248 4.50267 6.53786C4.90621 5.75825 5.68824 5.11784 6.47156 4.72747C6.88964 4.51911 7.34714 4.34627 7.80968 4.26698L7.95259 4.2423C8.39471 4.16688 8.94443 4.09442 9.25718 4.445ZM15.4682 3.91775L15.5776 3.93983C16.768 4.18525 18.3145 4.67551 18.8782 5.82878C18.8997 5.99185 18.877 6.0268 18.8586 6.04964L18.8524 6.05724C18.8372 6.07674 18.8251 6.10362 18.7534 6.12581C18.7335 6.12114 18.7134 6.11619 18.6931 6.11094C18.4348 6.04415 18.2303 5.95214 18.0324 5.85666L17.8178 5.75239C17.5688 5.63198 17.3177 5.51595 17.0515 5.4303C16.4834 5.24754 15.8991 5.1188 15.3058 5.05006C15.1772 5.03517 15.0534 4.99236 14.9557 4.91899C14.8629 4.84935 14.7921 4.75293 14.7598 4.62476C14.7179 4.45889 14.73 4.33331 14.8202 4.18368C14.888 4.0713 14.9851 3.99341 15.0966 3.94868C15.2102 3.90309 15.3396 3.89234 15.4682 3.91775Z" fill="black"/>
</svg>
