<svg width="21" height="22" viewBox="0 0 21 22" fill="none" xmlns="http://www.w3.org/2000/svg">
<path fill-rule="evenodd" clip-rule="evenodd" d="M6.99627 16.4338C7.00392 15.6065 7.69772 15.4638 8.35678 15.5741C9.47255 15.7606 10.5924 15.8919 11.7233 15.9155L11.9182 15.9191C11.9496 15.8718 12.0021 15.8359 12.0733 15.828C12.7002 15.758 13.3405 15.7693 13.9708 15.7501C14.5207 15.7335 15.0857 15.6766 15.6355 15.7212L15.6793 15.7252C16.3512 15.7924 17.0603 16.1468 16.9791 16.9616C16.9045 17.7162 16.2065 18.3841 15.6491 18.8034C15.5364 18.8874 15.4211 18.9662 15.3026 19.038C15.2653 19.087 15.2111 19.1212 15.1484 19.1281C14.5995 19.4345 13.9938 19.6157 13.3668 19.6761C12.0377 19.8039 10.4925 19.6656 9.21582 19.0704C8.80076 18.8769 8.41361 18.6353 8.07136 18.3385C7.5436 17.8807 6.9904 17.1866 6.99627 16.4338ZM12.2334 18.0742C11.7005 18.0576 11.1685 18.1346 10.661 18.3045C10.3171 18.4191 10.0037 18.6396 9.67412 18.7929C10.7847 19.2306 12.0749 19.326 13.2143 19.2463C13.7142 19.2113 14.1988 19.0922 14.6503 18.8874C14.58 18.8349 14.5088 18.7815 14.4342 18.7351C14.209 18.5941 13.9734 18.4742 13.7277 18.3788C13.2491 18.1932 12.7442 18.0908 12.2334 18.0742ZM12.412 10.8397C12.2682 10.7331 12.3823 10.3799 12.6895 10.4345C15.4796 10.9298 14.0339 15.896 10.4716 13.1708C10.0475 12.8173 10.5611 12.0386 11.0182 12.3413L11.1805 12.4706C11.7082 12.8886 12.5811 13.5204 13.2064 12.8424C13.7967 11.988 12.9607 11.1843 12.412 10.8397ZM14.3008 7.08109C14.8939 6.55819 15.6378 6.94355 16.0744 7.47318L16.1514 7.56786C16.2387 7.67591 16.3355 7.80176 16.3936 7.93632C16.8775 7.51058 17.5336 7.21099 18.1615 7.40546C18.7705 7.59475 19.1177 8.19544 19.0132 8.84034C18.8945 9.57372 18.3575 10.0666 17.7805 10.4478L17.6169 10.5552C16.9235 11.0119 16.2747 11.472 15.704 12.0999C15.6109 12.2019 15.4097 12.1884 15.3487 12.0526L15.2996 11.9433L15.2499 11.834C14.8451 10.9421 14.4113 10.056 14.0552 9.14301C13.7914 8.46642 13.7058 7.60519 14.3008 7.08109ZM7.53989 7.55476L7.63024 7.4468C8.06478 6.9242 8.80087 6.57431 9.38153 7.08113C9.99983 7.62099 9.87848 8.51376 9.60308 9.20229C9.27144 10.0327 8.8841 10.8449 8.51195 11.6594L8.43246 11.834C8.39903 11.9069 8.36633 11.9797 8.33371 12.0525C8.2726 12.1884 8.07066 12.202 7.97831 12.0998C7.4254 11.4916 6.79982 11.0416 6.13166 10.5993L5.92997 10.4667C5.3435 10.0823 4.78907 9.58598 4.66844 8.84038C4.56526 8.1969 4.91042 7.59246 5.52007 7.40542C6.14934 7.21253 6.80405 7.50987 7.28872 7.93635C7.34649 7.79838 7.44595 7.66844 7.53989 7.55476ZM8.33498 3.80559C8.54723 4.09031 8.32059 4.55561 8.01068 4.6292C7.62686 4.72043 7.23913 4.66494 6.86229 4.77809C6.51699 4.88178 6.18622 5.08955 5.89026 5.29663C5.55273 5.5327 5.24187 5.79625 4.95623 6.09652C4.78634 6.27514 4.57227 6.69832 4.31024 6.70621C4.04974 6.71409 4.3994 5.87231 4.42832 5.79948C4.63375 5.28101 4.9223 4.80392 5.28322 4.386C5.9954 3.56133 7.5037 2.69117 8.33498 3.80559ZM16.2882 3.5777L16.466 3.62873C16.9059 3.7551 17.3755 3.91038 17.753 4.18286L17.7826 4.20455L17.8283 4.23908C18.3021 4.60409 18.9723 5.33241 18.6367 5.96779C18.6135 6.01156 18.5644 6.01592 18.5249 5.99805C18.0784 5.79599 17.7474 5.39248 17.2726 5.22369L17.185 5.19287C16.7251 5.0328 16.1561 4.8645 15.6611 4.8798C15.313 4.9967 14.843 4.89988 14.7524 4.46208L14.7483 4.44063L14.7404 4.39528C14.6883 4.09614 14.7659 3.71478 15.0652 3.57061C15.4753 3.37312 15.8754 3.46099 16.2882 3.5777Z" fill="black"/>
</svg>
