<svg width="22" height="22" viewBox="0 0 22 22" fill="none" xmlns="http://www.w3.org/2000/svg">
<path fill-rule="evenodd" clip-rule="evenodd" d="M13.003 10.8397C13.5779 11.1843 14.4538 11.988 13.8354 12.8424C13.1074 13.5958 12.0594 12.732 11.5429 12.3413C11.0641 12.0386 10.526 12.8172 10.9703 13.1708C14.7022 15.896 16.2167 10.9298 13.2938 10.4345C12.9719 10.3799 12.8524 10.7331 13.003 10.8397ZM7.80932 4.26698L7.95223 4.2423L8.02548 4.23006C8.45361 4.16024 8.96113 4.11354 9.25683 4.445C9.4227 4.63091 9.47979 4.97646 9.25683 5.15441C8.86463 5.46752 8.43103 5.34618 7.96103 5.37268C7.57371 5.39461 7.20146 5.45783 6.82838 5.56302C6.00988 5.79376 5.34296 6.21499 4.64391 6.67752C4.55218 6.73818 4.45854 6.62248 4.50231 6.53786C4.90585 5.75825 5.68788 5.11784 6.4712 4.72747C6.88928 4.51911 7.34678 4.34627 7.80932 4.26698ZM11.5955 15.0372C12.8464 15.1268 15.5572 14.5379 16.6828 15.4213C20.925 20.6463 4.10679 21.9896 5.92312 16.209C7.07998 14.3399 9.74092 15.0912 11.5955 15.0372ZM11.3811 18.1915C11.0717 18.1667 10.6963 18.4084 10.6055 18.5951C10.5146 18.7819 10.5497 19.1766 10.5525 19.245C11.0933 19.2988 11.6389 19.307 12.1813 19.2719C12.0404 18.8122 12.0358 18.2611 11.3811 18.1915ZM13.8784 18.9628C13.7915 18.3921 13.3777 18.257 13.0427 18.3426C12.7001 18.4302 12.499 18.8192 12.5208 19.1656C12.5222 19.1895 12.5082 19.2097 12.499 19.229C12.9647 19.1747 13.4261 19.0853 13.8784 18.9628ZM10.0422 18.2948C9.84719 18.0021 9.38115 17.8609 9.08267 17.9125C8.59524 18.0137 8.53754 18.6246 8.53754 18.7491C8.9869 18.918 9.46398 19.0302 9.92011 19.1196C10.0117 19.1374 10.1035 19.1534 10.1955 19.1685L10.2014 19.0943C10.2125 18.9354 10.2208 18.5627 10.0422 18.2948ZM15.5558 18.2465C15.0561 17.4839 13.9818 18.0299 14.0706 18.8631C14.166 18.8334 14.261 18.8024 14.3556 18.7699C14.7482 18.6349 15.179 18.4744 15.5558 18.2465ZM11.6213 15.6189C10.949 15.5592 10.3975 15.5793 9.95901 15.6595L9.94571 15.8039C9.89719 16.3048 9.83461 16.7973 10.1013 16.9988C10.3179 17.1625 11.0367 17.1469 11.5187 17.0284C11.6378 16.9988 11.7925 15.96 11.6213 15.6189ZM12.661 15.5592C12.5532 16.0528 12.5025 16.6522 12.7189 16.8303C12.9474 17.0182 13.6828 16.9928 13.8752 16.8675C14.0435 16.758 14.0392 16.2538 13.9767 15.6879C13.6042 15.6013 12.9557 15.5592 12.661 15.5592ZM9.66167 15.6644L9.44152 15.6664L9.31691 15.668C9.00181 15.6735 8.66186 15.6914 8.34053 15.7606C7.70213 17.1214 10.0335 17.3563 9.67341 15.7148L9.66167 15.6644ZM14.2733 15.6972L14.2692 15.7743C14.2501 16.1566 14.2628 16.6599 14.4775 16.7958C14.7934 16.9958 15.3866 16.9572 15.708 16.0323C15.6016 15.7563 14.4737 15.7174 14.2733 15.6972ZM8.0861 7.58347C8.22108 7.58347 8.35019 7.62866 8.46776 7.71228C8.58348 7.79459 8.68824 7.9147 8.77549 8.06452C8.9406 8.34802 9.04382 8.73946 9.04382 9.17228C9.04382 9.6051 8.9406 9.99654 8.77549 10.28C8.68824 10.4299 8.58348 10.55 8.46776 10.6323C8.35019 10.7159 8.22108 10.7611 8.0861 10.7611C7.95111 10.7611 7.82201 10.7159 7.70444 10.6323C7.58872 10.55 7.48396 10.4299 7.39671 10.28C7.23159 9.99654 7.12837 9.6051 7.12837 9.17228C7.12837 8.73946 7.23159 8.34802 7.39671 8.06452C7.48396 7.9147 7.58872 7.79459 7.70444 7.71228C7.82201 7.62866 7.95111 7.58347 8.0861 7.58347ZM16.6303 7.58347C16.7653 7.58347 16.8944 7.62866 17.012 7.71228C17.1277 7.79459 17.2325 7.9147 17.3197 8.06452C17.4848 8.34802 17.5881 8.73946 17.5881 9.17228C17.5881 9.6051 17.4848 9.99654 17.3197 10.28C17.2325 10.4299 17.1277 10.55 17.012 10.6323C16.8944 10.7159 16.7653 10.7611 16.6303 10.7611C16.4954 10.7611 16.3662 10.7159 16.2487 10.6323C16.133 10.55 16.0282 10.4299 15.9409 10.28C15.7758 9.99654 15.6726 9.6051 15.6726 9.17228C15.6726 8.73946 15.7758 8.34802 15.9409 8.06452C16.0282 7.9147 16.133 7.79459 16.2487 7.71228C16.3662 7.62866 16.4954 7.58347 16.6303 7.58347ZM15.4678 3.91775L15.5772 3.93983L15.6498 3.955C16.8297 4.20533 18.3256 4.69881 18.8779 5.82878C18.8994 5.99185 18.8767 6.0268 18.8582 6.04964L18.8521 6.05724C18.8368 6.07674 18.8247 6.10362 18.7531 6.12581C18.7332 6.12114 18.7131 6.11619 18.6928 6.11094C18.4344 6.04415 18.23 5.95214 18.032 5.85666L17.8174 5.75239C17.5685 5.63198 17.3173 5.51595 17.0511 5.4303C16.4831 5.24754 15.8988 5.1188 15.3054 5.05006C15.1768 5.03517 15.053 4.99236 14.9553 4.91899C14.8626 4.84935 14.7917 4.75293 14.7594 4.62476C14.7176 4.45889 14.7296 4.33331 14.8198 4.18368C14.8877 4.0713 14.9847 3.99341 15.0962 3.94868C15.2099 3.90309 15.3392 3.89234 15.4678 3.91775Z" fill="black"/>
</svg>
