<svg width="21" height="22" viewBox="0 0 21 22" fill="none" xmlns="http://www.w3.org/2000/svg">
<path fill-rule="evenodd" clip-rule="evenodd" d="M12.7913 17.9936C12.3268 17.9975 11.8047 17.8174 11.4556 17.6764L11.3646 17.6392C11.0624 17.5141 10.752 17.3705 10.5205 17.1296C10.4465 17.0513 10.3677 16.9627 10.3277 16.8695C10.3042 16.8149 10.2945 16.7584 10.3171 16.7023C10.4008 16.6938 10.4802 16.6827 10.5553 16.6685C10.5911 16.6618 10.6253 16.6548 10.6516 16.6546C10.7485 16.6539 10.8442 16.6667 10.94 16.6792C10.9538 16.681 10.9677 16.6828 10.9816 16.6846C11.0561 16.6941 11.1303 16.7044 11.2043 16.7147C11.4196 16.7446 11.6338 16.7742 11.8523 16.785C12.01 16.7928 12.1754 16.7837 12.3423 16.7743C12.775 16.7499 13.2224 16.7167 13.5559 17.0299C13.6432 17.112 13.6797 17.2153 13.6797 17.3205C13.6797 17.4484 13.6276 17.5786 13.5481 17.6808C13.3681 17.9121 13.0911 17.9911 12.7913 17.9936ZM15.3238 13.96C15.1218 14.2733 14.7852 14.4747 14.3239 14.4528C13.4071 14.4095 12.313 14.0521 11.5451 13.5353C11.3452 13.4007 11.2155 13.1856 11.1923 12.9551L11.1509 12.5451L10.9274 12.8865C10.9041 12.9221 10.8806 12.9576 10.8571 12.9931C10.7923 13.0908 10.7277 13.1886 10.6666 13.2887C10.4324 13.6733 10.2177 14.0617 10.0227 14.4691C9.88462 14.7576 9.78369 15.0802 9.68247 15.4057C9.5116 15.9553 9.34653 16.4958 8.98144 16.8821C8.92624 16.9405 8.84138 16.9614 8.76371 16.9511C8.69525 16.942 8.62817 16.9073 8.59528 16.8382C8.15907 15.9216 8.74579 14.817 9.22173 14.0491L9.27207 13.9689C9.7134 13.275 10.4342 12.3566 11.2596 12.2318L11.3541 12.3875L11.4915 12.2928C11.7163 12.1379 12.0129 12.1452 12.2726 12.2663L12.5323 12.3874C13.0157 12.6116 13.4926 12.8185 14.0157 12.9318C14.0538 12.94 14.0919 12.9477 14.1299 12.9549C14.1658 12.9616 14.2019 12.968 14.2382 12.9738C14.2304 12.937 14.222 12.9003 14.2136 12.8637C14.2048 12.825 14.1959 12.7862 14.1863 12.7476C14.1764 12.7076 14.1659 12.6679 14.1553 12.6284C14.1134 12.4707 14.0661 12.3145 14.01 12.1615C13.7988 11.5864 13.4616 11.0486 13.1335 10.5356L13.0948 10.4752C13.0478 10.4017 12.9963 10.325 12.943 10.2457C12.6872 9.86498 12.4034 9.45182 12.3833 9.03709C12.7229 9.05918 13.0071 9.27719 13.2573 9.46701C13.6006 9.72734 13.9187 10.025 14.2074 10.3485C14.7672 10.9759 15.2696 11.778 15.4899 12.6072C15.6161 13.0821 15.5606 13.593 15.3238 13.96ZM6.36688 9.22964L6.36678 9.21272C6.3678 8.73392 6.63768 7.64071 7.30474 7.64071C7.72147 7.64071 7.97448 8.38471 8.01828 9.15168L8.0198 9.18295C8.03914 9.65978 7.91251 10.702 7.30474 10.702C6.69055 10.702 6.37319 9.71489 6.36688 9.22964ZM16.1878 9.07947L16.1879 9.06255C16.1869 8.58375 15.917 7.49054 15.25 7.49054C14.8437 7.49054 14.593 8.19781 14.5401 8.94404L14.5364 9.00151C14.5101 9.46224 14.6286 10.5519 15.25 10.5519C15.8642 10.5519 16.1815 9.56472 16.1878 9.07947ZM8.61344 5.98927C8.52504 5.99998 8.43708 6.01401 8.34916 6.02844C8.09266 6.07066 7.83754 6.12135 7.58416 6.18042C7.10293 6.29268 6.62556 6.43443 6.15731 6.5946C5.71915 6.74455 5.2878 6.914 4.85656 7.08343C4.83355 7.09247 4.81054 7.10152 4.78751 7.11056C4.63525 7.17038 4.4835 7.23741 4.33128 7.30466C4.09961 7.40702 3.86688 7.51006 3.62939 7.5877C4.25509 6.69374 5.21925 6.03135 6.14697 5.55735C6.67628 5.28691 7.23783 5.06883 7.8027 4.89014L8.11728 4.79246C8.58049 4.65125 9.08696 4.52081 9.52208 4.80238C9.69418 4.91374 9.804 5.08686 9.83858 5.274C9.8725 5.45753 9.83381 5.65432 9.71116 5.81854C9.6043 5.96161 9.47114 6.04309 9.32942 6.07101C9.173 6.10183 9.00722 6.06798 8.85632 5.9847C8.73543 5.9754 8.69975 5.97876 8.66398 5.98287L8.61344 5.98927ZM15.5818 6.08022C15.2718 6.01058 14.9648 5.98262 14.6467 5.99265C14.5029 5.99711 14.3637 6.02007 14.2249 6.04318C14.0094 6.07906 13.7947 6.11612 13.5625 6.07259C13.4413 6.04985 13.3381 5.97663 13.2584 5.88105C13.1653 5.7693 13.1036 5.62648 13.0838 5.49069C13.0634 5.35041 13.0837 5.22773 13.134 5.11941C13.1933 4.99143 13.2933 4.88357 13.4141 4.78909C13.7797 4.50312 14.4069 4.5719 14.8383 4.62971C15.2647 4.68699 15.6887 4.8236 16.0656 5.04057C16.4374 5.25473 16.7606 5.54322 17.0129 5.89586C17.2255 6.19308 17.3256 6.53517 17.429 6.88348C16.9426 6.46178 16.1981 6.21846 15.5818 6.08022Z" fill="black"/>
</svg>
