<svg width="22" height="22" viewBox="0 0 22 22" fill="none" xmlns="http://www.w3.org/2000/svg">
<path fill-rule="evenodd" clip-rule="evenodd" d="M14.962 13.9596C15.0746 13.8145 15.3487 14.4462 15.4046 14.5235L15.4073 14.527C15.6512 14.8181 15.8503 15.2639 15.8785 15.6376C15.8793 15.6488 15.8793 15.6596 15.8793 15.6704C16.2703 15.6175 16.6613 15.5636 17.0522 15.5044C17.2034 15.3923 17.415 15.4271 17.6197 15.5291C18.0762 15.7564 17.854 16.4785 17.3621 16.4669C16.0322 16.4357 14.674 16.6041 13.3552 16.7557C12.6768 16.8337 11.9998 16.9165 11.325 17.0223C10.6946 17.121 10.0501 17.2605 9.41207 17.2877C9.37728 17.2891 9.36274 17.238 9.39411 17.2221C9.95659 16.9371 10.5991 16.7646 11.2064 16.5977C11.8636 16.4171 12.5256 16.2475 13.1923 16.1044C13.7906 15.976 14.392 15.8799 14.9947 15.7933C14.9901 15.7816 14.9856 15.7698 14.9818 15.7573C14.9054 15.5043 14.9073 15.2141 14.891 14.9475L14.8816 14.806C14.8667 14.5622 14.8518 14.1017 14.962 13.9596ZM13.0031 10.8401C13.5779 11.1847 14.4538 11.9884 13.8354 12.8428C13.1075 13.5961 12.0595 12.7324 11.543 12.3417C11.0641 12.0389 10.5261 12.8176 10.9704 13.1711C14.7023 15.8964 16.2168 10.9302 13.2938 10.4349C12.972 10.3803 12.8525 10.7335 13.0031 10.8401ZM3.7606 7.80662C4.71711 7.66268 5.69691 7.64616 6.66338 7.69376C7.16588 7.71847 7.66777 7.75526 8.16852 7.80421C8.42993 7.82982 8.69111 7.8585 8.95176 7.89071C9.13872 7.91384 9.42739 8.01941 9.60506 7.97135C10.148 7.82471 10.6634 8.33146 10.5137 8.86765C10.3652 9.3997 9.72869 9.54004 9.31929 9.22047C9.12517 9.15297 8.92992 9.089 8.73351 9.02923C8.71852 9.09027 8.69652 9.15064 8.66546 9.20898C8.63059 9.27431 8.59702 9.34008 8.5652 9.40683C8.57205 9.39617 8.51945 9.52059 8.51801 9.52419L8.47594 9.63254C8.40267 9.81937 8.32055 9.99655 8.12147 10.0933C7.8478 10.2264 7.41846 10.153 7.30785 9.83557C7.13508 9.5017 7.24943 9.03524 7.34845 8.6894L7.35612 8.66281C6.16241 8.38282 4.94891 8.17288 3.7606 7.88808C3.72178 7.87877 3.71782 7.81307 3.7606 7.80662ZM17.9573 6.5507C18.0194 6.42809 18.1602 6.42756 18.244 6.54274C18.4303 6.79845 18.0131 7.16467 17.839 7.33484L17.8216 7.35201C17.4303 7.74366 16.953 8.05932 16.4798 8.34471C16.3805 8.40456 16.2797 8.46162 16.1785 8.51786C16.1973 8.55503 16.2143 8.59295 16.2283 8.63162C16.2999 8.83119 16.3013 9.06959 16.2367 9.27127C16.1023 9.69182 15.7446 10.0278 15.2807 10.0274C15.036 10.0272 14.7463 9.79897 14.7794 9.53302C14.7912 9.43833 14.8009 9.33757 14.8156 9.23688C14.4893 9.34395 14.0887 9.21848 13.8812 8.95321C13.5926 8.58446 13.672 7.9801 14.1138 7.75109C14.4387 7.58275 14.7973 7.54025 15.1493 7.45127C15.4985 7.36312 15.8453 7.26183 16.1872 7.14868C16.5244 7.0371 16.8599 6.91757 17.195 6.79946C17.3607 6.74097 17.5247 6.68706 17.6933 6.6375C17.7687 6.61542 17.8772 6.55738 17.9573 6.5507Z" fill="black"/>
</svg>
