<svg width="22" height="22" viewBox="0 0 22 22" fill="none" xmlns="http://www.w3.org/2000/svg">
<path fill-rule="evenodd" clip-rule="evenodd" d="M14.4881 15.2735C14.5108 15.2981 14.4607 15.3311 14.4356 15.3132C14.1456 15.1059 13.6889 15.2236 13.409 15.3175C13.3408 17.4857 13.3444 18.5954 13.4199 18.6468C13.5331 18.7239 15.1284 18.6781 15.1284 18.8711C15.1284 19.5019 14.169 19.7387 13.6483 19.7012C12.8283 19.6422 11.9832 19.5269 11.1644 19.6203C10.3456 19.7137 8.60622 20.2291 7.71586 19.5168C6.65391 18.6673 6.7975 17.2712 7.68108 16.3597C8.23805 15.7852 9.05767 15.4405 9.8658 15.1851C11.0484 14.8114 13.8355 14.5702 14.4881 15.2735ZM12.3069 17.6612C11.878 17.8259 9.74624 18.5203 9.23973 18.6468C9.83173 18.6049 11.8531 18.5586 12.3069 18.342C12.3578 18.1392 12.3903 17.6292 12.3069 17.6612ZM12.6324 15.4067C11.472 15.5926 8.96621 16.4309 8.60622 16.877C9.15325 16.7922 12.2052 16.4309 12.5495 16.4309C12.5995 16.1682 12.5663 15.7077 12.6324 15.4067ZM13.0031 10.3142C13.578 10.6588 14.4539 11.4624 13.8355 12.3169C13.1075 13.0702 12.0595 12.2064 11.5431 11.8158C11.0642 11.513 10.5261 12.2917 10.9704 12.6452C14.7023 15.3705 16.2168 10.4043 13.2939 9.90894C12.9721 9.85436 12.8525 10.2075 13.0031 10.3142ZM14.2776 5.28516C14.6151 5.28243 14.8122 5.49845 15.0652 5.69082C15.3258 5.88897 15.64 6.04703 15.9445 6.16806C16.2621 6.29413 16.6016 6.39422 16.936 6.46563C17.2826 6.53951 17.6015 6.5049 17.9456 6.56744C18.8577 6.73331 18.6418 8.23344 17.7271 8.15925C16.9039 8.0925 16.0202 7.59363 15.3959 7.07637C15.0976 6.82924 14.8458 6.546 14.6007 6.24999L14.5548 6.19434C14.3372 5.92959 14.1341 5.65861 14.2432 5.31104C14.248 5.29602 14.2615 5.28536 14.2776 5.28516ZM6.6697 9.66328C6.67077 9.18447 6.9535 8.09126 7.65233 8.09126C8.0889 8.09126 8.35396 8.83527 8.39984 9.60223L8.40143 9.6335C8.4217 10.1103 8.28903 11.1526 7.65233 11.1526C7.00888 11.1526 6.67642 10.1654 6.6698 9.68019L6.6697 9.66328ZM16.9585 9.66328C16.9575 9.18447 16.6747 8.09126 15.9759 8.09126C15.5503 8.09126 15.2876 8.79853 15.2322 9.54476L15.2284 9.60223C15.2008 10.063 15.3249 11.1526 15.9759 11.1526C16.6194 11.1526 16.9518 10.1654 16.9584 9.68019L16.9585 9.66328ZM8.95663 5.35662C9.39245 5.17108 9.8919 5.22379 10.1543 5.66634C10.4027 6.08517 10.2336 6.58997 9.84021 6.84766C9.45388 7.10078 8.93525 7.23843 8.491 7.38319L8.44196 7.39931C8.0114 7.5422 7.58053 7.65903 7.13581 7.75034C6.72024 7.83566 6.30152 7.89883 5.8804 7.94921L5.754 7.96396C5.42552 8.00135 4.96733 8.12727 4.67166 7.94286C4.64539 7.92656 4.63527 7.89285 4.6511 7.86582C4.82322 7.57186 5.28012 7.45473 5.57328 7.30583C5.94971 7.11451 6.32074 6.91081 6.68843 6.70365C7.06014 6.49416 7.43087 6.28122 7.79863 6.06497C8.18062 5.84039 8.55043 5.52946 8.95663 5.35662Z" fill="black"/>
</svg>
