<svg width="22" height="22" viewBox="0 0 22 22" fill="none" xmlns="http://www.w3.org/2000/svg">
<path fill-rule="evenodd" clip-rule="evenodd" d="M15.2039 15.4619L15.2668 15.4587C15.6954 15.4347 16.1117 15.3729 16.4946 15.6098C17.0035 15.9246 17.0058 16.6406 16.4946 16.9548C16.0923 17.2022 15.6552 17.121 15.2039 17.1094C14.8323 17.0999 14.4606 17.0933 14.0889 17.0894C13.346 17.0817 12.6035 17.0799 11.8606 17.0836C11.1903 17.0869 10.5194 17.0791 9.84927 17.0632L9.56212 17.0559C8.87479 17.0373 8.15511 17.0607 7.47806 16.9287L7.44898 16.9238L7.44982 16.9223C7.33251 16.8834 7.27047 16.6989 7.41069 16.6348C8.08249 16.3277 8.85051 16.1989 9.57194 16.0528C10.3024 15.905 11.0455 15.7982 11.7863 15.7146C12.5262 15.6312 13.2714 15.5724 14.0146 15.5256C14.4108 15.5005 14.8073 15.4799 15.2039 15.4619ZM12.9557 6.02211L13.0047 5.98974C13.5428 5.63931 14.316 5.30189 14.936 5.56792C14.971 5.58293 15.0006 5.60253 15.0263 5.62506C15.1785 5.62799 15.3317 5.64045 15.4853 5.66328C16.6989 5.84371 17.8204 6.62932 18.3687 7.71093C18.992 8.9403 18.6959 10.2358 17.5931 11.072C17.0512 11.4828 16.4145 11.7785 15.729 11.8452C15.5048 11.867 15.2673 11.8713 15.0522 11.8043C15.1541 12.0181 15.2316 12.2417 15.2714 12.4774C15.4079 13.2846 15.0833 13.9501 14.3211 14.2987C13.6513 14.6051 12.7242 14.7225 12.0618 14.3358C11.5018 14.009 11.6852 12.9272 12.422 13.0241C12.9194 13.0895 13.3678 13.2533 13.8593 13.0441C14.26 12.8737 14.0169 12.2986 13.8962 11.9961C13.6942 11.4906 13.397 11.0146 13.1559 10.5237L13.1114 10.4315C12.9598 10.1114 12.7716 9.77322 12.6275 9.42828C12.5482 9.83344 12.4059 10.231 12.2383 10.5991C11.8404 11.4725 11.0704 12.0069 10.1528 12.2571C9.20949 12.5143 8.10241 12.574 7.12984 12.5424C6.14068 12.5103 5.0993 12.2546 4.37558 11.5475C3.0498 10.252 3.43057 7.98551 4.82571 6.90271C5.72816 6.20224 6.99975 5.72222 8.1675 5.84656C8.75244 5.71674 9.40665 5.79047 9.9919 5.92127C10.7837 6.09825 11.5397 6.47705 12.0574 7.08036C12.0958 6.98545 12.1401 6.89453 12.1908 6.80773C12.1679 6.79736 12.1538 6.76403 12.1763 6.74405C12.2176 6.70749 12.26 6.67242 12.3024 6.63728C12.471 6.40407 12.6888 6.20096 12.9557 6.02211ZM3.36267 12.0937C3.31501 12.027 3.40819 11.9405 3.47503 11.9829C4.02267 12.3312 4.59596 12.6479 5.22391 12.8324C5.83732 13.0127 6.47502 12.9941 7.09117 13.1481C7.32274 13.206 7.28597 13.503 7.09117 13.5758C6.41305 13.8292 5.64793 13.6165 5.00368 13.3475C4.35008 13.0746 3.77473 12.6688 3.36267 12.0937ZM7.03811 6.52939L7.05448 6.50994L7.01467 6.523C6.24718 6.77784 5.61519 7.19802 5.1015 7.81139C4.22607 8.85665 4.21564 10.5187 5.52468 11.2251C6.23043 11.6058 7.06354 11.6238 7.84717 11.5835L8.00564 11.5751C8.69357 11.5377 9.3956 11.4822 10.0594 11.2987C10.7834 11.0985 11.2865 10.6669 11.5635 9.97137L11.5865 9.91272C11.8628 9.19683 12.0067 8.4007 11.4937 7.75275C10.6246 6.65523 8.61656 6.43598 7.37542 6.9606C7.07815 7.08622 6.83958 6.77964 7.03811 6.52939ZM15.0032 6.2349C14.9825 6.25472 14.9605 6.27282 14.936 6.28746C14.6868 6.43485 14.4066 6.43635 14.1304 6.50393C13.876 6.56618 13.627 6.64216 13.3928 6.75967C13.025 6.94401 12.6457 7.16453 12.2979 7.40503C12.3725 7.52246 12.4392 7.64643 12.4963 7.77768C12.6542 8.14042 12.7074 8.52238 12.6908 8.90591C12.9331 9.1127 13.1357 9.36986 13.3501 9.60225L13.5393 9.80749C13.7599 10.0475 13.979 10.2902 14.1843 10.5422C14.3063 10.6919 14.4302 10.8452 14.5492 11.003C14.5648 10.956 14.5868 10.9099 14.6176 10.8661C14.7335 10.7012 14.9125 10.6179 15.1171 10.6656C15.2961 10.7075 15.4158 10.7874 15.6028 10.7886C15.8319 10.7901 16.0526 10.7414 16.2694 10.6717C16.6956 10.5346 17.1132 10.2882 17.4249 9.96912C18.1282 9.24868 17.7571 8.23345 17.2084 7.54717C16.6526 6.85195 15.8545 6.40054 15.0032 6.2349ZM8.73873 7.96533C8.96451 7.90106 9.30045 8.00242 9.39979 8.23068L9.47105 8.39685C9.46884 8.39189 9.46709 8.38806 9.46503 8.38356C9.49023 8.44242 9.51436 8.49926 9.5337 8.55963L9.60046 8.61069C9.65748 8.67309 9.71023 8.73894 9.75865 8.80839C9.87314 9.00136 9.90633 9.24847 9.84771 9.46471C9.75096 9.82204 9.41829 10.0514 9.04924 10.0536C7.96896 10.0599 7.7042 8.25997 8.73873 7.96533ZM15.2558 7.64191C15.7549 7.61991 16.0873 8.05473 16.1272 8.50141C16.1498 8.75565 16.0977 9.03362 16.0238 9.27674C15.9136 9.63948 15.5631 9.86676 15.1852 9.81676C14.8844 9.77689 14.6188 9.55133 14.5438 9.26143C14.445 9.02235 14.3892 8.75933 14.3844 8.50141C14.3752 8.01981 14.7909 7.66241 15.2558 7.64191ZM8.66883 3.62263C9.17506 3.54214 9.65868 3.78481 9.73229 4.32145C9.80644 4.86274 9.40229 5.22045 8.89538 5.27361C7.93971 5.37377 6.96395 5.39757 6.00371 5.43894C5.60321 5.45613 5.2022 5.46344 4.80132 5.46692L4.60089 5.46838C4.22803 5.47055 3.74182 5.54316 3.40489 5.36213C3.38297 5.35042 3.38381 5.32376 3.39774 5.30694C3.6345 5.0194 4.12403 4.89686 4.47396 4.77022L4.5036 4.75935C4.94657 4.59453 5.39448 4.44023 5.84834 4.30666L6.07896 4.23917C6.9269 3.99285 7.79943 3.76111 8.66883 3.62263ZM11.8823 3.35936C12.1951 3.24335 12.5039 3.31566 12.7167 3.51186C13.4282 3.70726 14.1605 3.85698 14.8767 4.02806L15.0716 4.0753C15.9694 4.29627 16.956 4.46657 17.7909 4.87165C17.8795 4.91468 17.8238 5.02625 17.7458 5.03564C16.8157 5.14706 15.8137 4.96994 14.889 4.86332C13.9417 4.75407 12.9895 4.57386 12.0393 4.50328C11.3573 4.4526 11.2582 3.59085 11.8823 3.35936Z" fill="black"/>
</svg>
