<svg width="22" height="22" viewBox="0 0 22 22" fill="none" xmlns="http://www.w3.org/2000/svg">
<path fill-rule="evenodd" clip-rule="evenodd" d="M13.0206 18.0325C12.4598 18.1927 11.8579 18.2071 11.2863 18.0416C10.7678 17.8915 10.2354 17.5613 9.85385 17.1242C9.51487 16.736 9.29534 16.2642 9.30396 15.7606C9.30494 15.7031 9.32579 15.6551 9.35787 15.6178C9.3924 15.5777 9.44062 15.5502 9.49229 15.5382C9.54542 15.5259 9.60159 15.5303 9.64942 15.5517C9.69272 15.5711 9.72981 15.604 9.75301 15.6522C9.81165 15.7282 9.87007 15.803 9.92871 15.8758C10.4002 16.4501 10.8568 16.8793 11.5659 17.0332C11.9506 17.1167 12.3348 17.0797 12.6873 16.9522C13.0646 16.8158 13.4058 16.5759 13.6731 16.269C13.7939 16.1303 13.9365 16.0736 14.076 16.0727C14.234 16.0716 14.3902 16.144 14.5079 16.2598C14.6236 16.3736 14.701 16.5282 14.708 16.69C14.7142 16.832 14.6672 16.9803 14.5423 17.1126C14.1308 17.5484 13.5976 17.8677 13.0206 18.0325ZM13.0033 10.84C13.5781 11.1846 14.454 11.9883 13.8356 12.8427C13.1077 13.5961 12.0597 12.7323 11.5432 12.3416C11.0643 12.0389 10.5263 12.8175 10.9706 13.1711C14.7025 15.8963 16.217 10.9301 13.294 10.4348C12.9722 10.3802 12.8527 10.7334 13.0033 10.84ZM7.62589 9.32349C7.44113 9.20694 7.22379 9.16694 6.98292 9.27503C6.79469 9.35946 6.46455 9.64092 6.2348 10.0109C6.07761 10.264 5.96615 10.561 5.98936 10.8703C5.99475 10.9421 5.96784 10.9951 5.92539 11.0343C5.89187 11.0652 5.84344 11.0879 5.78657 11.095C5.73828 11.1011 5.68423 11.0956 5.64028 11.0821C5.55668 11.0564 5.51244 11.0029 5.49577 10.9592C5.3349 10.5378 5.4042 10.0676 5.58449 9.64334C5.82781 9.0708 6.26967 8.59123 6.55917 8.43661C7.05456 8.17193 7.63898 8.15975 8.13508 8.42939C8.55738 8.65889 8.82144 9.0294 9.08407 9.40708C9.13989 9.48737 9.1953 9.56706 9.25257 9.64536C9.36734 9.80225 9.37876 9.95784 9.33432 10.0913C9.28508 10.2391 9.15953 10.3638 9.00254 10.4291C8.85744 10.4894 8.68903 10.4979 8.54 10.4359C8.41411 10.3836 8.29858 10.2815 8.22547 10.1083C8.10235 9.81651 7.89722 9.49465 7.62589 9.32349ZM17.0094 9.97255C16.8829 10.0376 16.7839 10.0572 16.6435 10.0157C16.5659 9.99271 16.4892 9.94863 16.4291 9.88939C16.3696 9.83068 16.3267 9.75767 16.31 9.67667C16.2689 9.47677 16.158 9.28965 16 9.16766C15.865 9.0634 15.6945 9.00814 15.5054 9.03931C15.3013 9.07291 15.1069 9.20199 14.973 9.35417C14.9283 9.40509 14.8932 9.46292 14.8579 9.52037C14.792 9.62779 14.7279 9.72764 14.6369 9.80653C14.6024 9.83655 14.5504 9.85734 14.5001 9.85734C14.4796 9.85734 14.4589 9.85405 14.4391 9.84797C14.236 9.64692 14.1969 9.4944 14.2035 9.34312C14.2103 9.18448 14.2738 9.02385 14.3762 8.87399C14.6166 8.52244 15.073 8.23421 15.381 8.16892C15.8027 8.07952 16.2216 8.18684 16.5574 8.41919C16.903 8.65826 17.159 9.02945 17.2388 9.44776C17.258 9.5485 17.2499 9.65725 17.211 9.75153C17.173 9.84367 17.1067 9.92257 17.0094 9.97255ZM8.55607 5.57542C8.30296 5.81866 8.00339 5.85634 7.70031 5.88985C7.53192 5.90864 7.39749 5.92379 7.2652 5.95324C6.90161 6.03419 6.5422 6.15612 6.21431 6.33171C5.87154 6.51528 5.49801 6.73666 5.22928 7.02027C5.16538 7.08775 5.10514 7.15857 5.04482 7.22954C4.98982 7.29425 4.93683 7.35655 4.88099 7.41663C4.81686 7.48562 4.75596 7.55794 4.69538 7.63007C4.65792 7.69093 4.65053 7.7059 4.64298 7.72148C4.63163 7.7449 4.61843 7.7711 4.60335 7.79921C4.58269 7.83771 4.5585 7.87986 4.53317 7.91807C4.49101 7.98791 4.46839 8.00715 4.44885 8.01575C4.41642 8.03 4.38566 8.03702 4.35582 8.03321C4.32784 8.02965 4.30148 8.0164 4.27545 7.9947C4.14551 7.88641 4.10718 7.70868 4.11111 7.52003C4.11707 7.23374 4.22412 6.91678 4.32281 6.72193C4.55228 6.26919 4.87052 5.79853 5.25318 5.46063C5.68983 5.07492 6.16755 4.78292 6.71625 4.58171C7.05724 4.45662 7.45204 4.34181 7.82354 4.35631C8.09094 4.36675 8.34621 4.44515 8.55702 4.64094C8.68647 4.76113 8.74861 4.93209 8.74861 5.10292C8.74861 5.27716 8.68407 5.45243 8.55607 5.57542ZM17.5242 7.80282C17.5081 7.82884 17.4858 7.84678 17.461 7.85755C17.4351 7.86884 17.406 7.87209 17.3782 7.86746C17.3505 7.86285 17.3241 7.85046 17.3032 7.83152C17.2832 7.81337 17.268 7.78929 17.2611 7.7598C17.0931 7.03181 16.7668 6.49017 16.0703 6.14089C15.7277 5.96907 15.3338 5.8599 14.9608 5.77286C14.8525 5.74756 14.738 5.73117 14.6226 5.71456C14.2612 5.66251 13.8972 5.6029 13.6615 5.31474C13.5196 5.14116 13.46 4.91917 13.4937 4.71616C13.5254 4.52501 13.6386 4.34974 13.8445 4.2447C14.357 3.98333 14.9939 4.2398 15.5115 4.45828C15.5498 4.47449 15.5875 4.4904 15.6244 4.50575C16.1305 4.71647 16.5921 4.99462 16.9716 5.3924C17.2727 5.70798 17.5516 6.17449 17.664 6.65442C17.7574 7.05369 17.7355 7.4613 17.5242 7.80282Z" fill="black"/>
</svg>
