<svg width="22" height="22" viewBox="0 0 22 22" fill="none" xmlns="http://www.w3.org/2000/svg">
<path fill-rule="evenodd" clip-rule="evenodd" d="M11.5621 15.4473C12.2718 15.1965 13.025 15.2908 13.7408 15.5513L13.805 15.5751C14.4626 15.8223 15.2662 16.2518 15.5352 16.9225C15.5885 17.0555 15.6135 17.1916 15.6168 17.3269C15.7048 17.3355 15.7919 17.3468 15.8783 17.3617C16.0562 17.3926 16.0478 17.6713 15.8783 17.7079C15.771 17.7311 15.6617 17.7481 15.5514 17.7608C15.4494 18.0736 15.2383 18.3575 14.9717 18.5566C14.3476 19.0227 13.4876 19.1104 12.7332 19.1817C11.899 19.2605 11.0606 19.2413 10.2295 19.1416L9.93687 19.1047C9.25628 19.0175 8.4974 18.9053 7.91875 18.5462C7.37408 18.2082 7.00152 17.5556 7.2321 16.9219C7.46817 16.2728 8.27737 15.9974 8.87799 15.789C9.74102 15.4896 10.6594 15.3722 11.5621 15.4473ZM10.3581 17.6224C10.3665 17.8121 10.3738 18.0019 10.3814 18.1917C10.3837 18.2499 10.3667 18.3024 10.3378 18.3479C10.7505 18.3958 11.1669 18.4183 11.5822 18.418C11.5062 18.1916 11.5022 17.9317 11.4978 17.69C11.1176 17.6717 10.7378 17.6499 10.3581 17.6224ZM11.8864 17.7077L11.9195 17.8303C11.9708 18.0225 12.0174 18.2201 12.0105 18.4097C12.2041 18.4025 12.3971 18.3911 12.589 18.3747L12.8338 18.3542C12.8895 18.3494 12.9458 18.3445 13.0026 18.3392C13.0151 18.1427 13.0386 17.9435 13.0594 17.7469C12.6683 17.7365 12.2773 17.724 11.8864 17.7077ZM13.4379 17.7554C13.4557 17.9291 13.4723 18.1067 13.4793 18.2826C13.7935 18.2343 14.1017 18.1592 14.3651 18.0264C14.4975 17.9595 14.6037 17.8787 14.6829 17.7892C14.4169 17.7831 14.1517 17.7698 13.8944 17.7657C13.8436 17.7648 13.7929 17.7638 13.7422 17.7626L13.4379 17.7554ZM7.97934 17.3559C7.9999 17.7184 8.5808 17.977 8.8799 18.0622C9.16529 18.1435 9.45578 18.2094 9.74924 18.2618C9.74368 18.2376 9.74094 18.2137 9.74292 18.1917C9.76157 17.9872 9.77992 17.7827 9.79948 17.5785L9.64199 17.5661C9.08846 17.5241 8.51286 17.4904 7.97934 17.3559ZM11.6045 15.975C11.651 16.4291 11.7155 16.8806 11.8016 17.329L11.9591 17.3323C12.3372 17.3383 12.7154 17.3407 13.0935 17.3411C13.0945 17.3228 13.0955 17.3046 13.0962 17.2865C13.1104 16.9071 13.105 16.5277 13.0909 16.1485C12.6105 16.044 12.1076 16.0099 11.6045 15.975ZM13.2882 16.1962C13.3303 16.5769 13.3654 16.9583 13.3974 17.3402L13.7287 17.3397C13.7839 17.3395 13.8392 17.3393 13.8944 17.3388C14.2047 17.3359 14.5236 17.3159 14.8421 17.3075C14.8184 17.1435 14.7205 16.9767 14.5401 16.825C14.1582 16.5039 13.7347 16.3143 13.2882 16.1962ZM11.3091 15.8878C10.944 15.9264 10.5817 15.9896 10.2246 16.0781C10.3178 16.3447 10.3 16.6499 10.3197 16.9284C10.3285 17.051 10.3356 17.1737 10.3422 17.2963C10.7242 17.3055 11.1062 17.3144 11.4882 17.3224C11.476 16.8709 11.4838 16.4195 11.5096 15.9683L11.468 15.9654C11.4062 15.9611 11.351 15.9307 11.3091 15.8878ZM9.98256 16.1422C9.81562 16.1892 9.64997 16.2415 9.48592 16.3001L9.30699 16.3638C8.87566 16.5189 8.30483 16.7434 8.06437 17.09C8.02395 17.1483 7.99967 17.2047 7.98772 17.2591C8.59237 17.2041 9.21933 17.2596 9.82947 17.2823C9.8378 17.2036 9.84639 17.1249 9.85546 17.0463L9.86944 16.9284C9.90065 16.6738 9.90034 16.3909 9.98256 16.1422ZM13.0034 10.6894C13.5782 11.0341 14.4541 11.8377 13.8357 12.6922C13.1078 13.4455 12.0597 12.5817 11.5433 12.1911C11.0644 11.8883 10.5264 12.667 10.9707 13.0205C14.7026 15.7458 16.2171 10.7796 13.2941 10.2842C12.9723 10.2296 12.8528 10.5828 13.0034 10.6894ZM5.95745 6.51062C6.77434 5.11028 8.79537 5.09413 9.95163 6.1635C11.0556 7.18458 11.1922 8.92664 10.3104 10.1208C9.37065 11.3935 7.5451 11.7456 6.06471 11.292C4.67696 10.8668 3.93101 9.38166 4.40672 8.02096C4.66402 7.28497 5.25627 6.77612 5.95745 6.51062ZM5.1963 4.16513C5.88667 3.56234 7.14113 2.9802 8.07205 3.27687C8.60729 3.44738 8.84061 4.29803 8.24311 4.56766C7.55121 4.87986 6.7535 4.75282 6.04927 5.07644C5.75353 5.21241 5.47537 5.38233 5.26945 5.63154C5.10723 5.82796 4.94219 6.08641 4.70758 6.19964C4.64592 6.22945 4.56241 6.2302 4.513 6.17493C3.9987 5.60113 4.74724 4.55715 5.1963 4.16513ZM15.0578 3.24694C15.4844 3.12883 15.9578 3.13124 16.3912 3.20542C16.8245 3.27961 17.2645 3.45673 17.6182 3.7151L17.6593 3.74535C18.0455 4.03239 18.5063 4.45003 18.4816 4.95851C18.461 5.38312 18.0081 5.67032 17.6171 5.44777C17.2984 5.26629 17.1484 4.90273 16.8786 4.66065C16.6559 4.46085 16.3944 4.30332 16.1153 4.19294C15.8053 4.07033 15.4948 4.01289 15.1621 4.00741C14.906 4.0032 14.6483 4.0861 14.3969 4.1126C14.4176 4.1545 14.2189 4.13498 14.1051 4.09781C14.0207 4.06237 14.0203 3.95718 14.0495 3.88892C14.1945 3.55081 14.7221 3.33975 15.0578 3.24694ZM15.5222 5.62294C16.237 5.48299 17.0316 5.63623 17.6298 6.0495C18.7024 6.79052 19.1836 8.32301 18.6851 9.5216C18.1905 10.7112 16.8384 11.468 15.5492 11.2407C14.2331 11.0087 13.215 9.70143 13.357 8.38443C13.4173 7.82377 13.6653 7.31845 14.0321 6.93649C14.0349 6.92335 14.038 6.91006 14.0433 6.89639C14.3012 6.21935 14.7899 5.76643 15.5222 5.62294ZM8.98203 6.69961C8.16255 6.21305 6.95773 6.48471 6.2538 7.07211C6.11404 7.18879 5.95631 7.15462 5.87052 7.05281C5.39276 7.43319 5.05545 7.96532 5.00125 8.61331C4.90419 9.77555 5.74331 10.5399 6.87391 10.6278C8.02933 10.7177 9.2251 10.3997 9.76931 9.3077C10.2392 8.365 9.89431 7.2412 8.98203 6.69961ZM16.7399 6.7499C16.0982 6.50174 15.1779 6.64838 14.6177 7.07307C14.1911 7.61548 13.9835 8.35973 14.1475 8.96927C14.3844 9.84957 15.2408 10.5353 16.1816 10.4378C17.0523 10.3475 17.839 9.66006 17.9325 8.78719C18.0224 7.94766 17.5553 7.06526 16.7399 6.7499ZM16.1954 8.06722C16.3417 7.96435 16.5162 8.08021 16.5697 8.21739L16.6003 8.27956C16.6165 8.31282 16.6331 8.34721 16.6337 8.34849L16.6395 8.36508C16.6472 8.37942 16.6565 8.39279 16.6654 8.40638C16.6722 8.41103 16.7291 8.48124 16.7367 8.4904C16.8284 8.60213 16.8771 8.70432 16.8742 8.85134C16.8687 9.14199 16.5937 9.34667 16.3086 9.27632C16.002 9.20063 15.8715 8.88783 15.8994 8.60063C15.9215 8.37327 16.0055 8.2008 16.1954 8.06722ZM7.87055 8.12274C8.00583 8.0014 8.21456 7.99119 8.34808 8.12274C8.42139 8.19497 8.45108 8.27546 8.50368 8.35948L8.52861 8.39808C8.58335 8.48099 8.64061 8.56059 8.65532 8.6623C8.69019 8.90175 8.6149 9.1246 8.37572 9.22424C8.13783 9.3232 7.91752 9.22199 7.77266 9.02932C7.60122 8.80106 7.65329 8.31751 7.87055 8.12274Z" fill="black"/>
</svg>
