<svg width="21" height="22" viewBox="0 0 21 22" fill="none" xmlns="http://www.w3.org/2000/svg">
<path fill-rule="evenodd" clip-rule="evenodd" d="M13.8482 16.5055C13.6084 16.8295 13.1743 17.0776 12.688 17.1963C12.2247 17.3093 11.7126 17.3047 11.2707 17.1307L11.2327 17.1151C10.9023 16.9733 10.5851 16.687 10.4647 16.3882C10.4168 16.2694 10.4006 16.1487 10.4334 16.036C10.4629 15.9346 10.532 15.8413 10.6471 15.7612C10.6832 15.736 10.7317 15.7342 10.7779 15.7426C10.8352 15.7531 10.8917 15.7808 10.9258 15.8182C11.1148 16.0259 11.3891 16.2285 11.7138 16.225C11.9643 16.2224 12.1689 16.1201 12.3673 16.0046L12.5067 15.9221C12.6412 15.8428 12.7776 15.7683 12.9319 15.7343C13.2082 15.6733 13.5432 15.7847 13.7474 15.9685C13.8365 16.0486 13.9012 16.1428 13.9187 16.2442C13.9335 16.3294 13.9128 16.4184 13.8482 16.5055ZM12.4119 10.8399C12.9606 11.1846 13.7967 11.9882 13.2064 12.8426C12.5116 13.596 11.5112 12.7322 11.0182 12.3416C10.5611 12.0388 10.0475 12.8175 10.4716 13.171C14.0339 15.8963 15.4795 10.9301 12.6894 10.4347C12.3822 10.3801 12.2681 10.7333 12.4119 10.8399ZM6.22153 5.54297L6.37917 5.49831L6.53991 5.45348L6.6486 5.42379C7.39521 5.22185 8.21871 5.04414 8.95908 5.13091C9.2291 5.16259 9.44826 5.31959 9.48648 5.6119C9.51867 5.85856 9.36441 6.17677 9.10187 6.22062C8.23229 6.36598 7.34208 6.31883 6.46851 6.4687C6.03347 6.54326 5.60177 6.63584 5.1684 6.71926C4.83887 6.78278 4.49836 6.80508 4.166 6.85644L4.24237 6.8674C4.26911 6.87116 4.26242 6.91764 4.23605 6.91576C4.12649 6.90446 4.01678 6.9027 3.90689 6.91064L3.85979 6.91463C3.78807 6.92507 3.74578 6.83662 3.80972 6.79172C4.21468 6.50782 4.55831 6.20012 5.01174 5.99086C5.40391 5.8099 5.80756 5.66071 6.22153 5.54297ZM13.0185 5.10757C13.5925 4.50794 14.8133 4.73837 15.4962 5.01266C15.886 5.16929 16.2566 5.36729 16.5652 5.6635L16.5953 5.69264L16.6417 5.7387C16.85 5.94949 17.0824 6.23955 17.0493 6.54343C17.0443 6.58975 17.0199 6.64269 16.9692 6.652C16.6957 6.70208 16.4271 6.55296 16.1745 6.46323L16.0072 6.40392C15.756 6.31551 15.5032 6.23103 15.2443 6.17003C14.9222 6.09434 14.5937 6.05057 14.2631 6.05492C13.9289 6.05943 13.5699 6.15689 13.2516 6.01978C12.8966 5.86698 12.7125 5.42728 13.0185 5.10757ZM7.34732 9.94363C7.20085 10.0982 7.00742 10.1854 6.75986 10.1335C6.56641 10.093 6.19808 9.89202 5.90384 9.58248C5.70254 9.37071 5.53423 9.1061 5.48848 8.79957C5.47785 8.72838 5.44129 8.68274 5.39329 8.654C5.35537 8.6313 5.30539 8.6199 5.25094 8.6256C5.20472 8.63043 5.15563 8.64773 5.1177 8.67066C5.04555 8.71429 5.01604 8.77622 5.01005 8.82247C4.95216 9.26875 5.11899 9.71156 5.37903 10.0849C5.72997 10.5888 6.24534 10.958 6.54826 11.0445C7.06663 11.1924 7.61284 11.0746 8.01555 10.7018C8.33759 10.4037 8.50266 10.0154 8.65581 9.61605L8.68535 9.53864C8.71979 9.44803 8.75398 9.35808 8.7902 9.26908C8.86279 9.09075 8.83954 8.93661 8.76915 8.81646C8.69118 8.68336 8.54726 8.58967 8.38703 8.5609C8.23893 8.5343 8.08045 8.56339 7.95534 8.65686C7.84965 8.73583 7.76443 8.86094 7.73414 9.04595C7.6849 9.34678 7.57067 9.69195 7.36924 9.91969L7.34732 9.94363ZM16.236 8.20244C16.1152 8.13741 16.0207 8.1178 15.8867 8.15928C15.8126 8.18228 15.7394 8.22635 15.682 8.28559C15.6252 8.34431 15.5842 8.41732 15.5683 8.49832C15.5291 8.69822 15.4233 8.88534 15.2724 9.00733C15.1435 9.11159 14.9808 9.16685 14.8003 9.13567C14.6055 9.10208 14.4199 8.973 14.2921 8.82082C14.2565 8.77838 14.2273 8.73115 14.1991 8.68334L14.1823 8.65462C14.1193 8.5472 14.0581 8.44734 13.9712 8.36845C13.9383 8.33844 13.8887 8.31765 13.8407 8.31765C13.8211 8.31765 13.8013 8.32093 13.7824 8.32701C13.5886 8.52807 13.5513 8.68059 13.5575 8.83187C13.5641 8.99051 13.6246 9.15113 13.7224 9.301C13.9519 9.65254 14.3875 9.94078 14.6815 10.0061C15.0841 10.0955 15.4839 9.98815 15.8045 9.7558C16.1343 9.51672 16.3787 9.14554 16.4549 8.72723C16.4733 8.62648 16.4655 8.51774 16.4283 8.42345C16.3921 8.33132 16.3288 8.25241 16.236 8.20244Z" fill="black"/>
</svg>
