<svg width="22" height="22" viewBox="0 0 22 22" fill="none" xmlns="http://www.w3.org/2000/svg">
<path fill-rule="evenodd" clip-rule="evenodd" d="M15.4638 14.1031C15.4822 14.0462 15.5623 14.0464 15.5808 14.1031C15.7481 14.6175 15.8464 15.1213 16.0962 15.605C16.1579 15.6677 16.2022 15.7466 16.2258 15.8318C16.3425 16.0231 16.4726 16.2046 16.618 16.3765C16.801 16.5927 16.9342 16.7958 16.8372 17.091C16.7894 17.2364 16.6659 17.3295 16.5103 17.3365C16.0831 17.3555 15.8397 16.9537 15.6886 16.5347C14.6314 16.881 13.4673 17.077 12.3592 16.9909C11.4585 16.9208 10.4774 16.6982 9.6709 16.2446C9.6757 16.4159 9.68232 16.5874 9.68841 16.759C9.69968 17.0763 9.78623 17.4236 9.75273 17.7352C9.71954 18.0444 9.54156 18.2836 9.21902 18.3315C8.9414 18.3726 8.59777 18.1898 8.54365 17.8965C8.48092 17.5561 8.59709 17.3183 8.69262 16.9969C8.77705 16.7129 8.84327 16.4228 8.91605 16.1358C8.98943 15.8459 9.0495 15.5536 9.10392 15.26C9.14381 15.045 9.11504 14.8028 9.19223 14.6003C9.19832 14.5844 9.214 14.5731 9.23174 14.5781C9.64244 14.6945 9.66574 15.3467 9.66407 15.6967L9.66397 15.7139C9.66336 15.7853 9.66405 15.8566 9.66481 15.9279L9.82173 15.9617C10.6832 16.1456 11.52 16.2853 12.4258 16.2346C13.4883 16.1752 14.4227 15.792 15.431 15.5295C15.3473 15.0571 15.3216 14.5418 15.4638 14.1031ZM11.9105 4.79488C12.382 4.63562 12.8917 4.56039 13.3876 4.58449C14.4504 4.6363 15.463 5.11444 16.1598 5.91117C16.8177 6.6633 17.1753 7.6066 17.1707 8.60178C17.1656 9.62407 16.8934 10.7753 16.3808 11.6701C15.3037 13.5504 12.7879 13.5634 10.98 12.8138C9.05061 12.0138 8.26561 9.99634 8.73035 8.04585C9.07976 6.57898 10.2716 4.81891 11.9105 4.79488ZM15.0538 6.24703C14.4845 5.79629 13.7677 5.59379 13.0433 5.645C12.6835 5.67045 12.3179 5.76363 11.9912 5.91508C11.8176 5.99557 11.6624 6.10797 11.4914 6.19177C11.3389 6.26639 11.1739 6.30992 11.0166 6.37272L10.9581 6.39728C10.6998 6.51111 10.4397 6.34825 10.4267 6.1109C9.86484 6.88849 9.59832 7.94291 9.60256 8.87832C9.60586 9.56715 9.77219 10.2827 10.1731 10.8562C10.6186 11.4936 11.3579 11.8298 12.0993 12.0084C12.8094 12.1794 13.5837 12.2387 14.2954 12.0444C15.0342 11.8429 15.5115 11.2899 15.7831 10.6006C16.3723 9.10523 16.4209 7.32954 15.0538 6.24703ZM12.5168 8.10126C12.8392 7.66719 13.4175 7.64414 13.7359 8.10126C13.9363 8.38898 13.9068 8.6662 13.8909 8.99732L13.8878 9.07178C13.8784 9.33385 13.8797 9.60974 13.7801 9.85194C13.6523 10.1629 13.4039 10.3621 13.0521 10.3209C12.8449 10.2965 12.6714 10.1745 12.5708 10.0063L12.5673 10.0083C12.4262 9.73037 12.3898 9.4484 12.3659 9.14506L12.3495 8.92259C12.3296 8.63014 12.3285 8.35484 12.5168 8.10126Z" fill="black"/>
</svg>
