<svg width="22" height="22" viewBox="0 0 22 22" fill="none" xmlns="http://www.w3.org/2000/svg">
<path fill-rule="evenodd" clip-rule="evenodd" d="M13.8345 15.9788C13.8874 15.9646 13.9339 16.0346 13.8901 16.0729C13.7109 16.2298 13.5971 16.522 13.4663 16.7212C13.3419 16.9107 13.222 17.0983 13.1126 17.2967C12.99 17.519 12.8716 17.7405 12.7761 17.9757L12.7572 18.0232C12.7858 18.0903 12.8081 18.1565 12.8246 18.1999L12.8294 18.2122C12.9924 18.623 12.6502 19.0794 12.2642 19.1942C11.6039 19.3906 11.0373 18.8557 11.0216 18.2197C11.0092 17.7193 11.353 17.2735 11.7024 16.9427C12.0081 16.6534 12.3503 16.4071 12.7332 16.2267C12.9021 16.1472 13.0775 16.0806 13.2609 16.0421C13.4485 16.0026 13.6508 16.0277 13.8345 15.9788ZM12.59 17.7921C12.6385 17.8146 12.6798 17.8696 12.7146 17.9339C12.6972 17.8794 12.6614 17.8252 12.59 17.7921ZM13.0032 10.8397C13.578 11.1843 14.4539 11.988 13.8355 12.8424C13.1076 13.5958 12.0596 12.732 11.5431 12.3413C11.0642 12.0385 10.5262 12.8172 10.9705 13.1708C14.7024 15.896 16.2169 10.9298 13.2939 10.4345C12.9721 10.3799 12.8526 10.7331 13.0032 10.8397ZM8.27788 7.5303L8.37944 7.5219C8.82 7.4836 9.26606 7.42524 9.7005 7.52354C10.2841 7.65569 10.2414 8.4932 9.7005 8.6472C9.22381 8.78287 8.69558 8.72416 8.20351 8.72881C8.12609 8.72956 8.04883 8.73152 7.97148 8.73279C7.95626 8.91427 7.89589 9.07075 7.80348 9.22708C7.73725 9.33926 7.65275 9.4458 7.56962 9.54544C7.372 9.78226 6.90589 9.77693 6.70644 9.54544C6.55892 9.3741 6.44146 9.177 6.43955 8.94506C6.4391 8.88567 6.4464 8.82259 6.46079 8.76057L6.19222 8.76521C5.53488 8.7751 4.87251 8.7707 4.22707 8.66769C3.99748 8.71455 3.8096 8.30593 4.12651 8.18362C4.98801 7.85129 5.95045 7.75346 6.86463 7.65367C7.3344 7.60231 7.80675 7.56694 8.27788 7.5303ZM15.6172 7.18688L15.6406 7.18458C16.2107 7.12699 16.8391 7.02728 17.4103 7.08464C18.2632 7.17016 18.2618 8.3074 17.4103 8.39248C17.0978 8.42371 16.7685 8.40854 16.4401 8.37866C16.6079 8.72991 16.4088 9.14941 16.0043 9.20302C15.6285 9.25282 15.2389 8.89257 15.3622 8.50617L15.368 8.48911C15.3921 8.42206 15.4137 8.34712 15.4393 8.27317L15.3033 8.26185C14.8968 8.2264 14.3325 8.154 14.1828 7.83737C14.1377 7.74194 14.1481 7.65334 14.2176 7.57179C14.5026 7.23719 15.2052 7.22618 15.6172 7.18688ZM9.55494 4.58307C9.96753 4.43522 10.3963 4.78122 10.4499 5.17114C10.5115 5.62047 10.1829 5.9163 9.76645 5.96997L9.74555 5.97245C8.82627 6.07231 7.91392 6.25492 6.99342 6.35816C6.57536 6.40499 6.15415 6.4358 5.73328 6.44688L5.43251 6.45355C5.06395 6.46274 4.66864 6.47103 4.32837 6.34585L4.32967 6.34359C4.23931 6.31776 4.19774 6.18922 4.29831 6.11894C4.66058 5.86628 5.14892 5.77077 5.57065 5.65071C5.99467 5.52989 6.4218 5.41854 6.85008 5.31395C7.74941 5.09455 8.68361 4.89527 9.55494 4.58307ZM13.3601 4.6881C13.4695 4.11963 14.2859 4.05866 14.5857 4.47231C14.7796 4.53793 15.0637 4.60641 15.2398 4.65792C15.5466 4.74765 15.8536 4.83685 16.1613 4.92327C16.7985 5.10228 17.4202 5.32918 18.0467 5.5407C18.1112 5.56255 18.0935 5.64334 18.0314 5.65137C17.1571 5.76361 16.2975 5.81584 15.4178 5.77985L15.2375 5.77184C14.4624 5.74205 13.1466 5.79888 13.3601 4.6881Z" fill="black"/>
</svg>
