<svg width="21" height="22" viewBox="0 0 21 22" fill="none" xmlns="http://www.w3.org/2000/svg">
<path fill-rule="evenodd" clip-rule="evenodd" d="M13.2426 16.9668L13.2928 16.9548C13.6943 16.857 14.0806 16.7239 14.4545 16.981C14.8107 17.2258 14.8602 17.6787 14.5826 18.0091C14.2973 18.3488 13.9183 18.3298 13.5184 18.3344L13.4933 18.3348C13.1612 18.3395 12.8235 18.3344 12.4927 18.304C12.1843 18.2756 11.8738 18.2302 11.5689 18.1707L11.3886 18.1342C11.2044 18.0957 11.023 18.0456 10.9281 17.8614C10.7625 17.5402 11.9929 17.2882 12.1424 17.2441C12.5051 17.1372 12.8747 17.0529 13.2426 16.9668ZM13.9249 13.0946C13.7288 13.3048 13.4697 13.4483 13.1789 13.5377C12.448 13.7622 11.5155 13.6426 10.9185 13.4138C10.7947 13.3663 10.6789 13.2696 10.6124 13.1486C10.5517 13.0381 10.5311 12.9081 10.5774 12.7755C10.5905 12.7379 10.6065 12.7009 10.6226 12.6645C10.6664 12.5655 10.7557 12.4884 10.8605 12.4443C10.9694 12.3986 11.0931 12.3892 11.1924 12.4215C11.2058 12.4258 11.2195 12.4303 11.2335 12.4349C11.6117 12.558 12.232 12.7621 12.746 12.7225C13.0544 12.6988 13.3256 12.5862 13.4659 12.2946C13.5399 12.1408 13.5194 11.9888 13.4538 11.8495C13.3549 11.6396 13.1569 11.4569 12.99 11.3311C12.7548 11.1536 12.504 11.0827 12.2445 11.0079C12.1467 10.9797 12.0477 10.9512 11.9477 10.917C11.9148 10.9057 11.8859 10.8837 11.8643 10.855C11.843 10.8266 11.8289 10.792 11.8246 10.7573C11.82 10.7213 11.8256 10.6855 11.8418 10.6546C11.8567 10.6259 11.8806 10.6007 11.9164 10.5842C12.424 10.3492 13.0806 10.5045 13.5762 10.8742C13.8238 11.059 14.0304 11.2963 14.1577 11.5616C14.2759 11.8078 14.3261 12.0778 14.2798 12.3533C14.228 12.6616 14.1017 12.9051 13.9249 13.0946ZM5.60498 7.85065C5.74762 7.7857 5.86483 8.08972 5.89418 8.17262L5.95489 8.34459C6.05393 8.62188 6.16762 8.9038 6.37588 9.10961C6.5502 9.28193 6.82952 9.42797 7.03174 9.22637C7.22358 9.03512 7.13006 8.8197 7.15832 8.58506C7.20934 8.16068 7.76936 7.73652 8.10609 8.17938C8.86674 9.17996 7.68986 10.5714 6.60586 10.3273C6.05456 10.2032 5.61078 9.74639 5.42846 9.20322L5.4191 9.17456C5.30996 8.83044 5.19958 8.03544 5.60498 7.85065ZM15.4208 8.5475L15.4155 8.53481C15.0532 7.68327 16.3456 7.31731 16.4552 8.0819L16.4621 8.13349C16.5687 8.98227 16.3441 10.1237 15.338 10.2083C14.2087 10.3034 13.7384 9.00132 13.8393 8.04586C13.8574 7.87481 14.0582 7.85116 14.1203 8.00659L14.1335 8.04051C14.3158 8.52069 14.489 9.44415 15.1315 9.4432C15.5607 9.44253 15.5402 8.84378 15.4208 8.5475ZM16.2401 6.08243C16.8893 6.05863 16.8884 7.10847 16.2401 7.12424C14.0746 7.17687 11.9074 7.24685 9.74118 7.25887L9.34745 7.26135C7.31271 7.27544 5.27099 7.30417 3.24222 7.12769C3.06907 7.11268 3.10126 6.86144 3.24593 6.87158C5.37289 6.55877 7.52579 6.46732 9.66895 6.34846C11.8574 6.22704 14.05 6.16277 16.2401 6.08243Z" fill="black"/>
</svg>
