<svg width="22" height="22" viewBox="0 0 22 22" fill="none" xmlns="http://www.w3.org/2000/svg">
<path fill-rule="evenodd" clip-rule="evenodd" d="M9.6031 14.7387C10.0289 14.0477 10.9366 15.7403 11.0331 16.0313C11.1185 16.2891 11.1749 16.5532 11.2035 16.8204C11.5337 16.8934 11.8765 16.8935 12.2148 16.8296C12.7176 16.7344 13.0249 16.4678 13.4619 16.2389C13.7637 16.0807 14.1441 16.2662 14.3011 16.5285C14.4857 16.8373 14.3681 17.1578 14.1252 17.388C13.6648 17.8246 12.7587 17.9249 12.1577 17.8089C11.8133 17.7425 11.4977 17.6152 11.2189 17.43C11.2171 17.4646 11.2158 17.4991 11.2131 17.5336L11.2078 17.5935C11.1616 18.0776 11.0267 18.6864 10.6454 19.0014C10.0201 19.5182 9.24838 18.5244 9.85598 18.0082L9.87481 17.9927C10.2525 17.6917 10.3349 16.8842 10.3145 16.4394C10.3012 16.1491 10.2476 15.855 10.1547 15.5785L10.1355 15.5235C10.1076 15.4454 9.80257 14.7045 9.69236 14.7988L9.68709 14.8041C9.64165 14.8577 9.5682 14.7953 9.6031 14.7387ZM13.0032 10.8399C13.578 11.1845 14.4539 11.9881 13.8355 12.8426C13.1076 13.5959 12.0595 12.7321 11.5431 12.3415C11.0642 12.0387 10.5262 12.8174 10.9705 13.1709C14.7024 15.8962 16.2169 10.93 13.2939 10.4346C12.9721 10.3801 12.8526 10.7332 13.0032 10.8399ZM6.86481 7.65423C7.42661 7.55594 8.00211 7.69372 8.467 8.01794L8.50224 8.04293C8.95012 8.36602 9.45123 8.93332 9.19422 9.49021C9.09107 9.71382 8.78216 9.74888 8.58614 9.64752C8.25979 9.47872 8.20064 9.06343 7.90947 8.83359C7.67066 8.6452 7.34911 8.53092 7.04157 8.55848C6.31907 8.6232 5.87466 9.32608 5.65024 9.93179C5.62154 10.0093 5.50621 10.0394 5.46115 9.95619C4.93201 8.98068 5.86864 7.82857 6.86481 7.65423ZM15.8635 7.28608C16.9397 7.19861 18.1993 8.29906 17.916 9.41948C17.7801 9.95709 16.9716 9.9417 16.8279 9.41948C16.7488 9.13213 16.7567 8.87789 16.547 8.63927C16.3739 8.44225 16.1279 8.32782 15.8635 8.34539C15.5721 8.36476 15.3033 8.5084 15.0991 8.7103C14.9146 8.89261 14.8043 9.15939 14.6133 9.32074C14.5662 9.36039 14.5033 9.36294 14.4568 9.32074C14.128 9.02168 14.3254 8.39907 14.5339 8.08687C14.8323 7.64011 15.3182 7.33046 15.8635 7.28608ZM4.81547 5.66708C5.50584 5.06429 6.7603 4.48216 7.69123 4.77882C8.22646 4.94934 8.45978 5.79998 7.86228 6.06961C7.17038 6.38181 6.37267 6.25477 5.66844 6.57839C5.3727 6.71437 5.09454 6.88429 4.88862 7.13349C4.7264 7.32992 4.56136 7.58836 4.32675 7.70159C4.26509 7.7314 4.18158 7.73215 4.13217 7.67689C3.61788 7.10308 4.36641 6.0591 4.81547 5.66708ZM14.6769 4.7489C15.1036 4.63079 15.577 4.63319 16.0104 4.70737C16.4437 4.78156 16.8836 4.95869 17.2374 5.21705L17.2784 5.24731C17.6646 5.53435 18.1255 5.95198 18.1008 6.46047C18.0802 6.88507 17.6273 7.17228 17.2363 6.94972C16.9176 6.76824 16.7676 6.40468 16.4978 6.1626C16.2751 5.9628 16.0135 5.80527 15.7345 5.6949C15.4245 5.57228 15.114 5.51484 14.7813 5.50936C14.5251 5.50516 14.2675 5.58805 14.0161 5.61456C14.0368 5.65645 13.8381 5.63693 13.7242 5.59976C13.6399 5.56432 13.6394 5.45913 13.6687 5.39088C13.8137 5.05277 14.3413 4.8417 14.6769 4.7489Z" fill="black"/>
</svg>
