<svg width="22" height="22" viewBox="0 0 22 22" fill="none" xmlns="http://www.w3.org/2000/svg">
<path fill-rule="evenodd" clip-rule="evenodd" d="M6.79648 16.1651C7.72871 15.0966 9.29877 15.0222 10.5994 15.2894C11.434 15.4609 12.2466 15.7465 13.0943 15.8524C13.4903 15.9018 13.8905 15.9166 14.2893 15.9094C14.681 15.9022 15.0734 15.8244 15.4637 15.8389C15.5237 15.841 15.5464 15.9187 15.4944 15.9504C14.9589 16.2748 14.2374 16.3789 13.6048 16.4423C13.6068 16.4885 13.6096 16.5335 13.6161 16.5718C13.6334 16.6737 13.6491 16.7749 13.6619 16.8774C13.6906 17.1088 13.7227 17.3394 13.7547 17.5702C13.8179 18.0246 13.8378 18.4934 13.9489 18.9399L13.9683 19.0141C13.994 19.108 13.9998 19.1926 13.9912 19.2689L14.017 19.2574L14.0982 19.2186L14.1515 19.1938C14.3459 19.1049 14.5315 19.0401 14.76 19.0617C14.934 19.0781 15.0801 19.1952 15.0812 19.3784C15.0855 20.201 13.9616 20.4655 13.3188 20.623L13.1302 20.6688C12.3119 20.8657 11.4764 21.0382 10.6348 21.0795C9.28423 21.1457 7.76654 20.7782 6.88304 19.6976C6.05869 18.6895 5.90758 17.1839 6.79648 16.1651ZM12.9299 19.6211C12.7882 18.3827 11.2453 18.3146 10.8014 19.1C10.6044 18.0053 7.69072 19.0054 7.91856 19.2229C8.78212 20.0478 10.0926 20.1221 11.2192 19.9695C11.7929 19.8918 12.3671 19.7653 12.9299 19.6211ZM11.2176 16.3752L10.8297 16.3201L10.6769 16.2994C9.71522 16.1724 8.63376 16.1068 7.84312 16.7149C7.55446 16.9368 7.39201 17.2264 7.33134 17.5374C8.07946 17.428 8.83033 17.3446 9.58342 17.2751L9.78887 17.2565C10.2601 17.2146 10.7311 17.1704 11.2018 17.1241L11.5364 17.0907L11.8708 17.0564C11.9885 17.0443 12.7816 17.0043 12.9308 17.0311C12.9467 16.899 12.9674 16.613 13.0011 16.4844C12.4376 16.5032 11.8766 16.4619 11.3164 16.3885L11.2176 16.3752ZM13.0032 10.8399C13.578 11.1845 14.4539 11.9881 13.8355 12.8426C13.1076 13.5959 12.0596 12.7321 11.5431 12.3415C11.0642 12.0387 10.5262 12.8174 10.9705 13.1709C14.7024 15.8962 16.2169 10.93 13.2939 10.4346C12.9721 10.3801 12.8526 10.7332 13.0032 10.8399ZM14.0319 12.2918L14.0595 12.2769L14.0689 12.2714C14.085 12.2611 14.0748 12.2622 14.038 12.2747L14.0104 12.2845V12.3037C14.0175 12.2994 14.0251 12.2962 14.0319 12.2918ZM6.66985 9.22978L6.66975 9.21286C6.67081 8.73406 6.95354 7.64085 7.65237 7.64085C8.08894 7.64085 8.354 8.38486 8.39989 9.15182L8.40148 9.18309C8.42174 9.65992 8.28908 10.7022 7.65237 10.7022C7.00893 10.7022 6.67646 9.71503 6.66985 9.22978ZM16.9585 9.07961L16.9586 9.06269C16.9575 8.58389 16.6748 7.49068 15.976 7.49068C15.5503 7.49068 15.2877 8.19795 15.2323 8.94418L15.2284 9.00165C15.2009 9.46238 15.3249 10.552 15.976 10.552C16.6194 10.552 16.9519 9.56486 16.9585 9.07961ZM7.06857 4.37633C7.63889 4.29081 8.39413 4.4533 8.66003 5.0253C8.77848 5.28014 8.63818 5.56193 8.33954 5.57605C7.61781 5.61014 6.97052 5.45171 6.33701 5.91461C6.06438 6.11386 5.83516 6.38973 5.64281 6.66491L5.57003 6.76963L5.50975 6.85591C5.37914 7.04531 5.25546 7.25109 5.27477 7.47961C5.28048 7.54726 5.21037 7.61146 5.14376 7.60876C4.72858 7.59194 4.68389 7.0785 4.73847 6.77013C4.84002 6.19783 5.12085 5.66059 5.51007 5.22788C5.91886 4.77346 6.45851 4.46786 7.06857 4.37633ZM14.9238 5.07091C15.3171 4.82155 15.8201 4.72574 16.2808 4.76246C17.1892 4.83462 18.7131 5.59628 18.5125 6.69065C18.4507 7.02816 17.9747 7.20626 17.6943 7.019C17.3927 6.8177 17.3194 6.50482 17.095 6.24172C16.9159 6.03155 16.689 5.8795 16.446 5.74998C16.2065 5.62223 15.9294 5.54481 15.6576 5.51659L15.6123 5.51234C15.4488 5.4986 14.6227 5.50228 14.7439 5.80645C14.7677 5.86599 14.6778 5.91314 14.6366 5.86809C14.3833 5.59178 14.6702 5.23174 14.9238 5.07091Z" fill="black"/>
</svg>
