<svg width="22" height="22" viewBox="0 0 22 22" fill="none" xmlns="http://www.w3.org/2000/svg">
<path fill-rule="evenodd" clip-rule="evenodd" d="M13.5148 15.4179C13.776 14.9634 14.5553 15.0372 14.6745 15.5674C14.9162 16.6422 13.6168 17.6347 12.6299 17.6595C11.6492 17.684 10.5488 16.8607 10.6908 15.8208C10.7259 15.5635 11.0742 15.5948 11.193 15.756L11.2391 15.8179C11.5616 16.2453 11.9872 16.6877 12.5858 16.5835C12.8339 16.5404 13.0592 16.3875 13.2092 16.1907C13.3901 15.9532 13.3702 15.6696 13.5148 15.4179ZM7.27875 7.55495C7.41166 7.51883 7.54579 7.5328 7.66356 7.58221C7.92649 7.62973 8.14611 7.84598 8.2233 8.09286C8.22939 8.11424 8.23619 8.13534 8.24368 8.15623L8.25543 8.18739L8.22391 8.10825C8.23845 8.18619 8.30278 8.26811 8.32592 8.34635C8.35439 8.44253 8.36132 8.55178 8.35172 8.65765C8.43531 8.65848 8.51889 8.66126 8.60233 8.66839L8.68295 8.67552C9.13383 8.71685 9.62884 8.79266 9.89614 9.17694C10.0463 9.39289 9.90535 9.78168 9.62955 9.82328C9.205 9.88733 8.8393 9.65561 8.4162 9.60921C8.01624 9.56528 7.59771 9.59044 7.20293 9.66169C6.38787 9.80867 5.6389 10.1345 4.84462 10.339L4.73649 10.3661L4.73665 10.3655C4.60053 10.398 4.446 10.2113 4.58067 10.1021C5.21699 9.58653 6.03168 9.16868 6.83426 8.91422C6.71733 8.73079 6.68117 8.48916 6.7611 8.29221C6.77348 8.2514 6.78884 8.21171 6.80504 8.17215L6.83883 8.09076C6.8421 8.05239 6.84956 8.01447 6.86037 7.9773L6.86212 7.96597L6.86311 7.96664C6.92287 7.7751 7.07892 7.60931 7.27875 7.55495ZM15.3971 7.58459C15.5711 7.41286 15.8156 7.43824 15.9973 7.5734L16.0214 7.59203C16.1926 7.66704 16.3342 7.83095 16.4272 7.98285C16.5238 8.1406 16.588 8.30128 16.5905 8.47495C17.0118 8.47631 17.4153 8.60095 17.7246 8.93643C17.8245 9.0447 17.8927 9.21169 17.8378 9.35848L17.805 9.44581C17.7012 9.72305 17.2342 9.88265 17.0755 9.55661L17.0682 9.54072C16.8996 9.15358 16.2523 9.1942 15.9083 9.23377C15.6685 9.26147 15.4317 9.32027 15.2001 9.38612C15.1185 9.40932 15.0377 9.4345 14.9569 9.46022L14.8761 9.48605C14.833 9.49979 14.6086 9.62001 14.7482 9.59155C14.7858 9.58389 14.814 9.6378 14.7757 9.6559C14.6093 9.73436 14.4318 9.57811 14.4429 9.40181C14.4622 9.09577 14.9549 8.92798 15.1919 8.82245L15.2061 8.81607C15.297 8.77462 15.3923 8.7349 15.4905 8.69803C15.4353 8.61694 15.3896 8.52684 15.3516 8.43013C15.3157 8.33883 15.2917 8.25007 15.2785 8.15299C15.2656 8.10553 15.2656 8.05808 15.2785 8.01055L15.2805 7.99696C15.2738 7.96558 15.2706 7.93314 15.2711 7.90048L15.2697 7.88779H15.2711C15.2757 7.77343 15.3218 7.65885 15.3971 7.58459ZM12.6164 10.8437C13.285 11.0474 14.388 11.6025 14.0396 12.4593C13.5531 13.2462 12.2628 12.6679 11.6376 12.4137C11.0759 12.2302 10.7834 13.0066 11.3266 13.2407C15.8148 14.992 15.7983 10.3699 12.7791 10.4377C12.4467 10.4452 12.4362 10.7759 12.6164 10.8437ZM6.67827 4.81677L6.79232 4.78394C7.38495 4.61462 7.98991 4.32224 8.51609 4.77846C8.72269 4.95761 8.76524 5.32989 8.61741 5.55334C8.28063 6.06249 7.78118 5.98471 7.23727 6.0281C6.82315 6.06114 6.4152 6.18113 6.02864 6.33107C5.71272 6.45369 5.41972 6.62631 5.14308 6.81883C4.87132 7.00812 4.68565 7.30403 4.40688 7.4744C4.30472 7.53687 4.18673 7.4726 4.15004 7.37131C4.02002 7.01202 4.23971 6.56444 4.42561 6.25832C4.65254 5.88484 4.99723 5.57939 5.36788 5.34828C5.77375 5.09516 6.22256 4.94902 6.67827 4.81677ZM15.3137 4.43018C16.3154 4.42988 17.2793 4.97942 17.8396 5.78502C18.0299 6.0587 17.8904 6.46416 17.6171 6.62177C17.3105 6.79866 16.9827 6.67128 16.7807 6.4178L16.7687 6.40244C16.4474 5.98039 16.0332 5.64798 15.5422 5.43159C15.3026 5.32594 15.0377 5.24027 14.7786 5.1968L14.6948 5.18264C14.5775 5.16324 14.4413 5.14472 14.3352 5.16286C14.2783 5.17022 14.2261 5.18876 14.178 5.217C14.2011 5.26685 14.1413 5.32692 14.0862 5.29704C13.8372 5.16218 13.8678 4.92161 14.0734 4.73465C14.3642 4.47012 14.938 4.43025 15.3137 4.43018Z" fill="black"/>
</svg>
