<svg width="21" height="22" viewBox="0 0 21 22" fill="none" xmlns="http://www.w3.org/2000/svg">
<path fill-rule="evenodd" clip-rule="evenodd" d="M13.738 17.2028C14.1972 17.0922 14.5579 17.494 14.4677 17.9568C14.3721 18.4466 13.8624 18.6145 13.435 18.5991C12.9504 18.5818 12.4661 18.4784 11.9791 18.4576C11.4788 18.4363 10.9767 18.4324 10.4761 18.4463C10.0131 18.4592 9.53783 18.5436 9.07844 18.4679C8.89954 18.4384 8.91647 18.1943 9.03288 18.1076C9.37847 17.8501 9.82638 17.7451 10.2337 17.6371C10.6491 17.5268 11.0737 17.4424 11.4996 17.3909C11.9315 17.3387 12.3669 17.3127 12.8015 17.3076C12.9994 17.3052 13.242 17.3507 13.435 17.3139C13.5333 17.295 13.6334 17.228 13.738 17.2028ZM12.4122 10.8397C12.9609 11.1844 13.797 11.988 13.2067 12.8424C12.5119 13.5958 11.5115 12.732 11.0185 12.3414C10.5614 12.0386 10.0478 12.8173 10.4719 13.1708C14.0342 15.896 15.4798 10.9299 12.6897 10.4345C12.3825 10.3799 12.2684 10.7331 12.4122 10.8397ZM8.43347 8.26613C9.16745 8.13999 9.29585 9.22122 8.5684 9.29675C8.41574 9.3126 8.26394 9.32641 8.11244 9.34015C8.12719 9.38911 8.137 9.43949 8.14237 9.4913C8.14928 9.5353 8.15444 9.582 8.15901 9.63539C8.18205 9.90142 7.99952 10.178 7.78625 10.307C7.56462 10.4411 7.24649 10.4589 7.02639 10.307C6.91289 10.2286 6.79954 10.1403 6.73697 10.0107C6.65304 9.87754 6.60727 9.72346 6.60262 9.56533C6.268 9.65514 5.92727 9.77655 5.58931 9.8409C5.60174 9.85351 5.61394 9.86695 5.62579 9.88174C5.6348 9.89308 5.62245 9.91433 5.60929 9.90389L5.43977 9.86507C5.38759 9.87213 5.33542 9.87791 5.28339 9.88129L5.28463 9.87656C5.19765 9.87499 5.12644 9.76874 5.20426 9.68374C5.50285 9.35763 5.96876 9.1409 6.39353 8.95969L6.8028 8.78631C7.32612 8.56653 7.87856 8.3615 8.43347 8.26613ZM14.3382 8.60062C14.8189 8.54393 15.295 8.56646 15.7765 8.59679C16.5869 8.64778 16.247 9.86896 15.5965 9.58702C15.6032 9.63169 15.605 9.67645 15.5999 9.71812C15.5745 9.93279 15.5068 10.1142 15.3161 10.2295C15.139 10.3366 14.9146 10.3363 14.7375 10.2295C14.5478 10.1152 14.4623 9.95419 14.4139 9.74492C14.3764 9.58266 14.3915 9.44691 14.4131 9.28623C14.4203 9.23299 14.4428 9.18336 14.4739 9.13876C14.4285 9.12705 14.3831 9.11571 14.3376 9.10512C13.9332 9.01006 13.5342 9.02913 13.1309 8.96892C13.0879 8.96246 13.081 8.89068 13.1187 8.87243C13.481 8.69651 13.9417 8.64733 14.3382 8.60062ZM8.35936 4.82902C8.6368 4.71962 8.98529 4.90155 9.12692 5.15181C9.28765 5.43578 9.21898 5.76361 9.02061 6.0029C8.7163 6.36999 8.13678 6.59612 7.70966 6.80559L7.67537 6.82253C7.23677 7.04118 6.78618 7.24196 6.32948 7.41691C5.88035 7.58908 5.41311 7.72393 4.94748 7.83972C4.70195 7.90076 4.45118 7.95122 4.20027 7.98305C4.00219 8.00813 3.84945 7.95197 3.65994 7.95197C3.63226 7.95204 3.62361 7.91413 3.64621 7.89956C3.82329 7.78453 3.95474 7.63308 4.14788 7.52654C4.34902 7.41563 4.55088 7.30661 4.75347 7.19864C5.16308 6.98044 5.5575 6.73761 5.95265 6.49321C6.36916 6.23559 6.77623 5.96431 7.1721 5.67388C7.55947 5.38968 7.91647 5.00359 8.35936 4.82902ZM13.3032 4.59536C13.6497 4.52591 13.9928 4.6953 14.0953 5.06014C14.1936 5.40966 14.0908 5.4846 14.3531 5.73471C14.5621 5.93403 14.7875 6.11194 15.015 6.28712L15.3498 6.54431C15.9562 7.00815 16.5676 7.44671 17.2649 7.75968C17.3238 7.78611 17.2897 7.87659 17.2338 7.87779C16.1254 7.89987 15.0626 7.74482 14.062 7.23206C13.5947 6.99254 13.1251 6.68957 12.8543 6.21142C12.5406 5.65774 12.5498 4.74628 13.3032 4.59536Z" fill="black"/>
</svg>
