<svg width="22" height="22" viewBox="0 0 22 22" fill="none" xmlns="http://www.w3.org/2000/svg">
<path fill-rule="evenodd" clip-rule="evenodd" d="M7.70106 15.8186C8.25316 15.7134 8.94004 15.9424 9.49066 16.0428L9.5317 16.05C10.1994 16.1651 10.8656 16.3041 11.5407 16.372C12.1852 16.437 12.8433 16.4486 13.4879 16.3755C13.7974 16.3404 14.1043 16.2806 14.405 16.2004C14.5336 16.1661 14.6612 16.1278 14.7873 16.0853L14.8015 16.08C14.8941 16.0422 15.1446 15.9001 15.1416 15.9793C15.212 15.8992 15.309 15.8424 15.4155 15.8147C15.5658 15.7758 15.7587 15.8123 15.8844 15.9171C16.048 15.7894 16.2935 15.881 16.4032 16.0341C16.5913 16.2965 16.5301 16.6041 16.5058 16.9085L16.5037 16.9354C16.4831 17.2224 16.4515 17.5074 16.4125 17.7922L16.3953 17.9143C16.3346 18.3356 16.318 19.0304 15.8004 19.1685C15.391 19.2778 15.0165 18.8624 14.7526 18.5327L14.6081 18.3501C14.4371 18.136 14.2818 17.9156 14.1566 17.6723C14.0996 17.5615 14.0445 17.4481 13.9968 17.3331C13.9908 17.3186 13.9864 17.3056 13.9818 17.2926C13.2227 17.3933 12.4456 17.3789 11.6845 17.2799C11.2026 17.2172 10.7279 17.1267 10.2604 17.0051L10.0494 17.3811C9.80257 17.8197 9.55219 18.257 9.28901 18.6856L9.26859 18.7183C9.02223 19.1049 8.60972 19.4921 8.12202 19.2025C7.6856 18.9433 7.66703 18.3537 7.62105 17.9138C7.59034 17.6199 7.56546 17.3241 7.5535 17.0286L7.54919 16.902C7.54135 16.6154 7.49407 16.2833 7.60575 16.0154C7.62196 15.9763 7.67883 15.9463 7.71308 15.9874C7.9464 16.2671 8.01697 16.7007 8.11776 17.0441C8.22997 17.4261 8.39249 17.8434 8.45081 18.2397L8.4671 18.2118C8.52453 18.1041 8.58313 17.9971 8.64201 17.8902L8.81864 17.5695C8.97706 17.2799 9.13836 16.9922 9.30112 16.7052C9.11527 16.6363 8.93115 16.5623 8.74777 16.4871L8.33158 16.3155C8.09384 16.2164 7.85144 16.1046 7.67274 15.9244C7.64107 15.8925 7.65211 15.8278 7.70106 15.8186ZM15.5965 16.8764C15.1865 17.0408 14.7623 17.1594 14.3304 17.2381C14.3583 17.2663 14.3861 17.2944 14.412 17.324C14.5136 17.44 14.6214 17.5514 14.7299 17.6616L14.795 17.7276C14.9611 17.8957 15.2106 18.1726 15.4652 18.3335L15.479 18.2608C15.4812 18.2483 15.483 18.2374 15.484 18.229L15.5111 17.9902C15.5155 17.9503 15.5197 17.9105 15.5238 17.8706C15.5457 17.6552 15.5631 17.4394 15.5814 17.2236C15.591 17.11 15.5933 16.9932 15.5965 16.8764ZM10.7436 2.99553C11.7203 2.58406 12.8794 2.77832 13.7207 3.39986C14.5815 4.03591 14.9579 5.06998 15.0077 6.10166C15.6885 5.5283 16.6689 5.9623 17.2423 6.49953C17.9039 7.11951 18.2386 8.05515 18.0843 8.94311C17.9307 9.82806 17.2814 10.6088 16.403 10.872C15.9827 10.9979 15.5143 11.0007 15.0915 10.8836C14.9479 10.8437 14.772 10.782 14.6095 10.6961C14.6188 10.7328 14.6282 10.7697 14.637 10.8064C14.848 11.6871 14.9676 12.677 14.6511 13.5479C14.1423 14.9475 12.3353 15.7309 11.2072 14.4887C10.7642 14.001 10.4199 13.2372 10.4467 12.5724C10.4608 12.223 10.6614 11.8188 11.0757 11.8425C11.3969 11.8607 11.5493 12.1259 11.467 12.4065L11.462 12.4227C11.2879 12.9592 11.5852 13.7344 12.016 14.1003C12.6766 14.6614 13.5832 14.1731 13.9444 13.5151C14.3654 12.7483 14.3141 11.7651 14.1795 10.9308C14.0474 10.1117 13.7527 9.36239 13.4399 8.6044C13.4067 8.61033 13.3731 8.61581 13.3387 8.62039C12.7166 8.70366 11.4509 8.73505 10.7635 8.29054C10.8374 8.9766 10.6925 9.68285 10.2973 10.2638C9.85703 10.9112 9.19368 11.2538 8.42163 11.3588C7.6718 11.4609 6.80261 11.4815 6.0623 11.3063C4.48584 10.9331 3.92997 9.01339 4.40674 7.62761C4.68878 6.80791 5.47576 6.07065 6.35051 5.88443C6.80116 5.59205 7.40628 5.50548 7.92636 5.54535C8.70314 5.60504 9.46819 5.93609 9.98842 6.51748C10.1872 6.73958 10.3506 6.99104 10.4766 7.26015C10.5189 7.22726 10.5683 7.20256 10.624 7.18964C10.711 7.16952 10.7871 7.16501 10.8722 7.1946C10.9146 7.20939 10.9758 7.26165 11.0125 7.29559L11.0965 7.3929C11.1995 7.51128 11.2974 7.61056 11.4808 7.68415C11.9919 7.88936 12.6851 7.93389 13.2281 7.89191C14.6135 7.78499 14.439 5.97491 14.0978 5.04498C13.6936 3.94333 12.5349 3.25802 11.3562 3.4537C10.8498 3.53772 10.3666 3.80359 9.99588 4.15101C9.58207 4.5389 9.40485 5.00744 9.15661 5.49842C9.14192 5.52748 9.09122 5.52117 9.0849 5.48911C8.88089 4.45383 9.84828 3.37275 10.7436 2.99553ZM3.36438 11.3422C3.32228 11.2935 3.37755 11.2078 3.43784 11.2482C3.87943 11.5441 4.37051 11.7576 4.90438 11.8154C5.15513 11.8424 5.40786 11.8443 5.65763 11.8064C5.8704 11.7739 6.06215 11.71 6.27454 11.7678C6.38759 11.7986 6.40814 11.9279 6.3391 12.009C6.01823 12.3857 5.22829 12.2851 4.79757 12.1841C4.24057 12.0536 3.73564 11.7724 3.36438 11.3422ZM18.2248 10.6544C18.4416 10.5219 18.6996 10.7843 18.5714 10.9963C18.2423 11.5401 17.2882 11.5844 16.7347 11.4542C16.6914 11.4442 16.7013 11.3771 16.7451 11.3783C17.0633 11.386 17.3508 11.3257 17.6248 11.1621C17.859 11.0222 17.9987 10.7926 18.2248 10.6544ZM7.64628 6.30702L7.60283 6.30739C7.09676 6.31542 6.63331 6.50576 6.14566 6.60638C6.10523 6.61479 6.06466 6.61051 6.02804 6.59729C5.43412 6.98811 5.02472 7.60261 4.96915 8.4112C4.93063 8.97127 5.06925 9.58148 5.40641 10.0411C5.79016 10.5642 6.40835 10.6449 7.01715 10.6605L7.07902 10.6619C8.22987 10.684 9.49597 10.617 9.90621 9.34789C10.2098 8.40865 9.88558 7.26841 9.03991 6.70579C8.6292 6.43256 8.13867 6.30656 7.64628 6.30702ZM16.9182 6.9806L16.8844 6.94173C16.433 6.43091 15.7174 5.96566 15.0117 6.22292L15.0138 6.30895C15.014 6.3233 15.0142 6.33765 15.0142 6.35199C15.012 7.33846 14.6245 8.25908 13.6719 8.54854C13.9275 8.90812 14.1328 9.30712 14.2972 9.72122C14.3552 9.68383 14.4258 9.6601 14.5077 9.65191C14.843 9.61843 15.0352 9.92905 15.326 10.0449C15.5982 10.1535 15.907 10.1815 16.1943 10.1254C16.823 10.0028 17.264 9.46811 17.4186 8.87478C17.5933 8.20404 17.3625 7.50087 16.9182 6.9806ZM7.34877 7.81083C7.5584 7.46155 8.07554 7.5121 8.28284 7.82003L8.29279 7.83538L8.29499 7.83253C8.6403 8.27388 8.47343 8.97097 7.97207 9.21913C7.56991 9.41803 7.05843 9.36585 6.79108 8.97863C6.73117 8.89183 6.69272 8.78972 6.67864 8.68632C6.66905 8.61597 6.67453 8.54569 6.69052 8.47579L6.68647 8.49214C6.6944 8.45686 6.70696 8.40156 6.71023 8.38839C6.74555 8.24602 6.83028 8.0933 6.93632 7.99021C7.04556 7.88404 7.19728 7.81946 7.34877 7.81083ZM15.9636 7.44802C16.1493 7.44802 16.314 7.5246 16.4482 7.64602C16.6389 7.81879 16.6655 8.06747 16.6243 8.30346C16.6117 8.37547 16.5943 8.44508 16.5761 8.51596L16.5605 8.58006C16.5577 8.59071 16.5548 8.60128 16.5515 8.61169C16.5401 8.65561 16.5219 8.69594 16.5002 8.73453C16.4208 9.02609 16.0994 9.17085 15.816 9.10725C15.6826 9.07729 15.5496 8.96812 15.4817 8.85369C15.4593 8.816 15.4436 8.77845 15.4325 8.74076L15.3773 8.61169C15.367 8.58075 15.3605 8.54757 15.3522 8.51596C15.3337 8.44515 15.3159 8.3754 15.303 8.30346C15.2593 8.05959 15.2941 7.82847 15.4792 7.64602C15.6034 7.5234 15.788 7.44802 15.9636 7.44802ZM11.874 4.91888C12.1963 4.87623 12.5244 5.0243 12.6911 5.30505C12.8359 5.54907 12.8353 5.87742 12.6911 6.12145L12.6789 6.1421C12.4133 6.59156 11.7939 6.64922 11.4212 6.30195L11.4032 6.28513C11.1636 6.06191 11.1096 5.69166 11.2337 5.40168C11.3471 5.13648 11.5849 4.95725 11.874 4.91888Z" fill="black"/>
</svg>
