<svg width="22" height="22" viewBox="0 0 22 22" fill="none" xmlns="http://www.w3.org/2000/svg">
<path fill-rule="evenodd" clip-rule="evenodd" d="M14.8938 15.4485C14.2554 15.1141 13.5063 15.1706 12.8653 15.4693C12.0817 15.8345 11.4758 16.4341 10.9391 17.0934C10.7331 17.3465 10.5403 17.6104 10.3477 17.8741C10.2684 17.9826 10.1892 18.0911 10.1091 18.1988C10.0935 18.219 10.0763 18.2407 10.0582 18.2637C9.9299 18.4263 9.75479 18.6512 9.68777 18.8552C9.66086 18.9372 9.65084 19.0162 9.66292 19.0883C9.66876 19.1232 9.6796 19.1566 9.6962 19.1881C9.59393 19.2142 9.52562 19.1894 9.4784 19.1393C9.40364 19.0599 9.37743 18.9407 9.37633 18.8039C9.37255 18.3139 9.70011 17.5996 9.83386 17.3052C9.84763 17.2749 9.85943 17.249 9.86874 17.228C10.3525 16.1362 11.1263 15.0728 12.2021 14.4843C13.2444 13.9143 14.478 13.8065 15.5564 14.3455C16.7477 14.9409 17.0727 16.1201 17.2077 17.3319C17.2283 17.5175 17.1432 17.6887 17.0122 17.8179C16.8644 17.9637 16.6567 18.0581 16.4626 18.0581C16.2611 18.0581 16.0765 17.9739 15.9416 17.8408C15.8055 17.7066 15.7196 17.5224 15.718 17.3228L15.7168 17.2066C15.7105 16.802 15.6817 16.4221 15.5328 16.0999C15.4131 15.8409 15.2172 15.6178 14.8938 15.4485ZM13.3079 10.0141C13.8827 10.3588 14.7586 11.1624 14.1402 12.0168C13.4123 12.7702 12.3643 11.9064 11.8478 11.5157C11.3689 11.213 10.8309 11.9917 11.2752 12.3452C15.0071 15.0704 16.5216 10.1042 13.5986 9.60889C13.2768 9.55431 13.1573 9.90749 13.3079 10.0141ZM8.46906 10.1272C8.31421 10.202 8.14253 10.2324 7.97414 10.1977C7.8233 10.1667 7.67593 10.0833 7.54543 9.93644C7.36624 9.73455 7.23615 9.44787 7.32308 9.17433L7.34797 9.10397C7.3774 9.02215 7.41705 8.94544 7.46531 8.87588C7.49628 8.72686 7.50252 8.62927 7.50837 8.5366C7.50987 8.51292 7.51134 8.48957 7.51301 8.46627C7.52229 8.33649 7.54161 8.20061 7.58577 8.07566C7.59408 8.05214 7.60333 8.02885 7.61333 8.00583C7.58861 7.99729 7.5639 7.98872 7.53919 7.98013C7.36845 7.92078 7.19823 7.86045 7.02895 7.79736C6.54748 7.61782 6.0714 7.41542 5.61055 7.18897C5.38285 7.07705 5.1609 6.95113 4.94176 6.82373C4.83712 6.75508 4.60756 6.59526 4.50461 6.5092L4.42649 6.4439L4.3856 6.5365C4.34165 6.58018 4.30619 6.58357 4.27638 6.57377C4.24434 6.56322 4.22059 6.53831 4.20566 6.50838C4.18769 6.47235 4.18209 6.42849 4.19157 6.38615C4.20011 6.34802 4.2212 6.3112 4.25684 6.2822C4.39261 6.17177 4.58414 6.2197 4.74327 6.25049C4.76598 6.25488 4.78822 6.25918 4.80981 6.26307C5.05727 6.30767 5.30414 6.36078 5.55001 6.41561L5.84596 6.48211C5.9589 6.50753 6.0718 6.53305 6.18469 6.55856C7.46714 6.84846 8.7474 7.13765 10.058 7.26473L10.1961 7.2775C10.4297 7.29807 10.6376 7.39591 10.7745 7.55173C10.9006 7.69525 10.9651 7.88778 10.9345 8.11102C10.9045 8.3295 10.7799 8.5114 10.6084 8.62406C10.4378 8.73614 10.2207 8.77968 10.0041 8.7223C9.59727 8.61468 9.19137 8.50146 8.78739 8.38139L8.88188 8.6028C8.96316 8.7957 9.03812 8.9956 9.04695 9.19964C9.05521 9.39136 8.99819 9.57694 8.8995 9.73572C8.79445 9.90471 8.64212 10.0437 8.46906 10.1272ZM17.6118 5.51367C17.5115 5.64874 17.3962 5.76411 17.2813 5.87972C17.0331 6.12942 16.785 6.37911 16.5193 6.61139C16.4229 6.69564 16.3255 6.77865 16.2281 6.86169C16.192 6.8925 16.1558 6.92332 16.1197 6.95421L16.0629 7.00284L16.1115 7.05947C16.1246 7.07466 16.1369 7.09036 16.1472 7.10699C16.2932 7.34273 16.3742 7.59859 16.4563 7.85521C16.5125 8.03102 16.5691 8.20726 16.6449 8.37844L16.6694 8.43207C16.7681 8.64157 16.7947 8.86027 16.7422 9.05762C16.6928 9.24352 16.5729 9.40945 16.3806 9.53027C16.3323 9.56068 16.2498 9.59597 16.1939 9.60819C15.9735 9.65641 15.7504 9.62279 15.568 9.52066C15.3936 9.42302 15.2569 9.26257 15.1963 9.05213C15.1069 8.7412 15.0493 8.42532 15.0524 8.11745C15.0529 8.0653 15.0552 8.01296 15.059 7.96049C15.0242 7.99538 14.9842 8.02605 14.9388 8.05134C14.7976 8.13004 14.638 8.13779 14.4879 8.09761C14.3181 8.05216 14.16 7.94575 14.0504 7.80667C13.954 7.6842 13.895 7.53585 13.9026 7.38078C13.9093 7.24541 13.9672 7.10602 14.091 6.97471L14.2079 6.85731C14.2948 6.77032 14.4145 6.70339 14.542 6.66956C14.659 6.63852 14.7831 6.63519 14.8944 6.67263C15.0445 6.63214 15.1419 6.58438 15.2322 6.53997C15.2966 6.50834 15.3573 6.47847 15.4114 6.45523C15.675 6.34214 15.9376 6.22687 16.1994 6.10955C16.4263 6.00774 16.6568 5.91375 16.8874 5.81974C17.1302 5.72071 17.3731 5.62165 17.6118 5.51367Z" fill="black"/>
</svg>
