<svg width="21" height="22" viewBox="0 0 21 22" fill="none" xmlns="http://www.w3.org/2000/svg">
<path fill-rule="evenodd" clip-rule="evenodd" d="M10.6515 18.0899C10.163 17.884 9.72717 17.5405 9.40853 17.1017C9.29775 16.9492 9.26903 16.7881 9.29227 16.6408C9.3184 16.4752 9.41324 16.325 9.54258 16.2243C9.67233 16.1233 9.83462 16.0735 9.99152 16.0989C10.1279 16.121 10.2636 16.1981 10.371 16.3581L10.3934 16.3901C10.5829 16.6549 10.8297 16.8722 11.111 17.0122C11.3821 17.1472 11.6853 17.2102 11.9991 17.1736C12.5966 17.1038 13.0085 16.7699 13.4463 16.3164C13.5006 16.2591 13.5549 16.2001 13.6094 16.1401C13.6439 16.0857 13.6917 16.0507 13.7448 16.0324C13.8038 16.012 13.8704 16.0132 13.9315 16.0352C13.9904 16.0565 14.0431 16.0967 14.0784 16.1503C14.112 16.2012 14.131 16.2641 14.1248 16.3365C14.0847 16.8064 13.847 17.2259 13.5092 17.5552C13.1341 17.921 12.6368 18.174 12.1687 18.2628C11.6529 18.3605 11.1274 18.2905 10.6515 18.0899ZM12.412 10.8397C12.9607 11.1843 13.7968 11.988 13.2065 12.8424C12.5116 13.5958 11.5112 12.732 11.0183 12.3413C10.5611 12.0386 10.0476 12.8172 10.4717 13.1708C14.0339 15.896 15.4796 10.9298 12.6895 10.4345C12.3823 10.3799 12.2682 10.7331 12.412 10.8397ZM6.02833 7.66954C6.08896 6.89193 7.23507 6.71535 7.34908 7.48483C7.45117 8.17411 7.33099 8.8073 7.03052 9.42788C6.74342 10.0208 6.02183 9.74415 5.96726 9.20429C5.89411 8.48063 5.99062 8.15325 6.02833 7.66954ZM14.7527 7.32528C14.9125 7.10903 15.1432 6.96141 15.4196 7.04483C16.2832 7.3056 16.0287 8.57252 15.7254 9.18919C15.5606 9.52408 15.0279 9.609 14.7871 9.31414C14.3947 8.83329 14.2068 7.87302 14.7057 7.39939C14.7192 7.37491 14.7342 7.35021 14.7527 7.32528ZM7.01836 4.26698L7.15478 4.2423C7.5768 4.16688 8.10153 4.09442 8.40007 4.445C8.55841 4.63091 8.6129 4.97646 8.40007 5.15441C8.0257 5.46752 7.61181 5.34618 7.16318 5.37268C6.79346 5.39461 6.43813 5.45783 6.082 5.56302C5.30072 5.79376 4.6641 6.21499 3.99683 6.67752C3.90927 6.73818 3.81989 6.62248 3.86167 6.53786C4.24687 5.75825 4.99335 5.11784 5.74106 4.72747C6.14014 4.51911 6.57685 4.34627 7.01836 4.26698ZM13.9654 3.91775L14.0698 3.93983C15.2061 4.18525 16.6824 4.67551 17.2205 5.82878C17.241 5.99185 17.2193 6.0268 17.2017 6.04964L17.1958 6.05724C17.1813 6.07674 17.1697 6.10362 17.1013 6.12581C17.0823 6.12114 17.0632 6.11619 17.0438 6.11094C16.7972 6.04415 16.602 5.95214 16.4131 5.85666L16.2083 5.75239C15.9706 5.63198 15.7308 5.51595 15.4768 5.4303C14.9345 5.24754 14.3768 5.1188 13.8104 5.05006C13.6877 5.03517 13.5695 4.99236 13.4762 4.91899C13.3877 4.84935 13.3201 4.75293 13.2892 4.62476C13.2493 4.45889 13.2608 4.33331 13.3469 4.18368C13.4116 4.0713 13.5043 3.99341 13.6107 3.94868C13.7192 3.90309 13.8427 3.89234 13.9654 3.91775Z" fill="black"/>
</svg>
