<svg width="22" height="22" viewBox="0 0 22 22" fill="none" xmlns="http://www.w3.org/2000/svg">
<path fill-rule="evenodd" clip-rule="evenodd" d="M13.8672 16.3645C13.3843 16.1352 12.8319 16.1511 12.3255 16.3027C11.7261 16.4823 11.1954 16.8553 10.7231 17.2524C10.5388 17.4075 10.3636 17.5825 10.1878 17.7584C9.96445 17.9819 9.74031 18.2076 9.49147 18.3906C9.57355 17.7011 10.0641 17.0009 10.4853 16.4945C11.0021 15.8733 11.7218 15.3698 12.4998 15.1263C13.3283 14.8669 14.1832 15.0095 14.8542 15.4306C15.519 15.8479 16.0033 16.5391 16.1009 17.3843C16.1214 17.5619 16.0372 17.7244 15.9124 17.8475C15.7668 17.9912 15.5623 18.0857 15.3716 18.0857C15.177 18.0857 15.0044 18.0084 14.8764 17.8852C14.7422 17.7559 14.6565 17.5765 14.6442 17.3817C14.636 17.174 14.5872 16.9921 14.4103 16.773C14.2914 16.626 14.068 16.4598 13.8672 16.3645ZM15.0948 9.10806C14.8944 9.17991 14.6617 9.35339 14.594 9.54337C14.5791 9.58519 14.5707 9.62795 14.5701 9.67125C14.5048 9.54049 14.48 9.38654 14.4885 9.23417C14.5155 8.75017 14.9835 8.39889 15.3822 8.19364C15.5238 8.12068 15.6694 8.07221 15.8144 8.0467L16.328 7.95641L15.8458 7.76006C15.4012 7.57899 14.9843 7.32992 14.6122 7.02504C14.2568 6.73398 13.9283 6.35757 13.7354 5.94224C13.6484 5.75467 13.58 5.57118 13.5321 5.37295L13.5192 5.31727C13.4957 5.21048 13.4699 5.15602 13.441 5.09559C13.4241 5.06013 13.4056 5.02194 13.3858 4.95986C13.3747 4.925 13.3684 4.89582 13.3788 4.87308C13.3888 4.85108 13.4132 4.84164 13.437 4.83276C13.5944 4.77402 13.8479 4.81404 13.9556 4.85649C14.2159 4.9591 14.4446 5.18282 14.6648 5.39234C14.7722 5.49457 14.8774 5.59447 14.9819 5.67992C15.6487 6.22518 16.4809 6.53541 17.2943 6.61107L17.3432 6.61534C17.5582 6.63275 17.7577 6.71631 17.899 6.85571C18.0254 6.98033 18.1034 7.14987 18.1034 7.35292C18.1034 7.55068 18.0132 7.7411 17.873 7.87935C17.7391 8.01137 17.5581 8.09692 17.3615 8.09005C17.2235 8.08519 17.0864 8.07299 16.9503 8.05502L16.4441 7.98815L16.8306 8.3175C16.9073 8.38286 16.9794 8.45788 17.0443 8.54496C17.3965 9.01797 17.5477 9.73905 17.5346 10.3179C17.5321 10.4284 17.5012 10.5424 17.4441 10.6405C17.3942 10.7263 17.3241 10.8003 17.2337 10.8465C17.1255 10.9019 17.0339 10.9314 16.9107 10.9338C16.7767 10.9364 16.6632 10.8945 16.57 10.8245C16.4533 10.7369 16.3677 10.6078 16.3088 10.4668C16.2306 10.2795 16.226 10.0816 16.2182 9.88374C16.2129 9.74704 16.2071 9.61009 16.184 9.47513C16.1511 9.3028 16.0721 9.08321 15.9724 9.01389C15.8253 8.91144 15.4338 8.99033 15.1907 9.07413L15.0948 9.10806ZM13.0033 10.8399C13.5782 11.1845 14.454 11.9882 13.8356 12.8426C13.1077 13.596 12.0597 12.7322 11.5432 12.3415C11.0644 12.0388 10.5263 12.8174 10.9706 13.171C14.7025 15.8962 16.217 10.93 13.2941 10.4347C12.9722 10.3801 12.8527 10.7333 13.0033 10.8399ZM8.926 9.7458C8.76891 9.571 8.61593 9.40806 8.3796 9.31527C8.10001 9.20533 7.76122 9.19352 7.4704 9.27589C7.14066 9.36927 6.87959 9.58487 6.68617 9.86027C6.51624 10.1022 6.3992 10.3902 6.33247 10.6742C6.20791 10.5393 6.14965 10.3832 6.12153 10.2245C6.07523 9.96317 6.10804 9.69389 6.19834 9.43779C6.39938 8.86765 6.88369 8.36076 7.44843 8.14259C8.09322 7.89348 8.89105 7.97664 9.48337 8.3274C9.78555 8.50643 10.1339 8.81705 10.3093 9.1209C10.4291 9.32854 10.4361 9.54352 10.3599 9.7282C10.276 9.93149 10.0951 10.0966 9.86406 10.1795C9.75463 10.2187 9.64199 10.2156 9.53512 10.1877C9.39604 10.1514 9.2661 10.074 9.16012 9.98376C9.07182 9.90867 8.99821 9.82614 8.926 9.7458ZM9.88944 6.14999C9.7571 6.32465 9.56219 6.41389 9.35912 6.42326C9.3383 6.42422 9.31748 6.42434 9.29674 6.4236C9.28365 6.43846 9.26902 6.45488 9.25184 6.47418C9.21219 6.51872 9.18621 6.54796 9.15918 6.57634C9.06157 6.67887 8.95894 6.77675 8.852 6.86987C8.61385 7.0774 8.35735 7.25944 8.07993 7.4122C7.594 7.67996 7.06105 7.8888 6.51304 7.98849C5.96923 8.08738 5.43242 8.11778 4.88482 8.04031L4.75199 8.02149C4.43566 7.97578 4.02099 7.91613 3.76123 7.72289C3.86353 7.69074 3.96716 7.68917 4.06826 7.68476C4.13479 7.68186 4.2009 7.67892 4.26536 7.6731C4.57184 7.64563 4.86967 7.59545 5.1664 7.51443C5.74321 7.35699 6.26593 7.13956 6.77519 6.82793C7.2745 6.52251 7.73299 6.10681 8.09827 5.65144L8.14204 5.59623C8.16069 5.57246 8.17906 5.54878 8.19729 5.52528C8.34671 5.33268 8.48395 5.14915 8.71608 5.02693C8.90002 4.93015 9.08615 4.90399 9.26512 4.93184C9.47276 4.96416 9.66991 5.06727 9.84462 5.21156C9.97381 5.31824 10.0336 5.47187 10.0431 5.62943C10.0543 5.81478 9.99711 6.00785 9.88944 6.14999Z" fill="black"/>
</svg>
