<svg width="111" height="135" viewBox="0 0 111 135" fill="none" xmlns="http://www.w3.org/2000/svg">
<g clip-path="url(#clip0_38_114)">
<path fill-rule="evenodd" clip-rule="evenodd" d="M172.428 153.417C168.795 200.293 105.364 207.023 92.7018 161.857L92.6939 161.86C92.6494 161.685 92.5538 161.333 92.5028 161.159L92.511 161.158C91.3873 156.733 90.9685 151.944 91.2876 147.308L91.2883 147.308C91.8954 137.74 95.946 128.177 102.447 121.188L102.447 121.189C104.259 119.214 106.25 117.435 108.376 115.861C112.392 128.054 118.217 138.958 125.598 148.027L125.312 148.382C125.668 148.58 126.022 148.778 126.375 148.977C126.497 149.126 126.63 149.293 126.751 149.447C126.258 150.713 127.304 151.942 128.541 152.184C128.165 153.075 129.087 153.428 129.641 153.588C131.466 154.008 133.61 154.1 134.991 153.071C136.775 151.428 136.149 148.186 134.221 146.954C134.229 146.933 134.235 146.912 134.242 146.891C133.984 146.863 133.75 146.767 133.558 146.609C132.594 146.234 131.468 146.238 130.524 146.658C124.109 136.168 117.677 124.767 114.117 112.338C115.621 111.582 117.184 110.913 118.771 110.352L118.77 110.35C118.813 110.335 118.941 110.292 118.981 110.277L118.982 110.278C120.455 109.767 121.971 109.34 123.498 109.009L123.497 109.008C123.632 108.98 123.913 108.921 124.048 108.892L124.048 108.894C126.768 108.342 129.602 108.082 132.424 108.123L132.425 108.122C132.53 108.124 132.932 108.132 133.062 108.135L133.062 108.137C134.021 108.164 135.007 108.235 135.971 108.328C135.961 108.364 135.946 108.411 135.927 108.465C136.006 108.469 136.083 108.481 136.158 108.499C136.169 108.451 136.18 108.402 136.191 108.354C136.951 108.44 137.719 108.545 138.474 108.674L138.474 108.673L139.015 108.768L139.015 108.77C148.705 110.491 157.836 116.278 163.784 124.206L163.783 124.206C166.294 127.497 168.311 131.165 169.785 135.116L169.786 135.116L170.023 135.762L170.021 135.763C172.001 141.317 172.831 147.416 172.419 153.418L172.428 153.417ZM103.139 91.8817C88.5699 105.843 72.4088 118.831 60.0736 134.964L57.7669 133.563L57.9999 133.518C57.2289 133.441 56.5161 132.715 55.9452 132.243C57.1749 132.33 57.5665 132.56 58.2991 131.147C60.866 126.504 63.08 121.768 65.848 117.185C68.1126 113.145 70.379 109.143 72.6424 105.062C73.8382 103.304 75.8366 98.6228 72.543 96.2693C81.1722 92.3073 91.1141 87.548 100.33 81.7748C101.076 85.1686 102.239 88.4514 103.308 91.7231L103.139 91.8817ZM53.6294 67.3282C52.3944 66.1857 51.035 65.0829 50.415 63.4262C52.3227 63.7421 54.21 63.9243 56.3167 63.9591C56.4371 63.9591 56.548 63.8455 56.5494 63.719C56.5923 61.2753 56.5888 58.5856 56.369 55.9741C57.4048 56.4906 58.2366 55.9011 59.1745 55.395C60.1568 56.1335 61.1712 55.9145 62.3718 55.3951C62.3831 55.3917 67.2226 53.5878 67.2335 53.5862C68.3127 53.2463 68.7758 52.9226 69.0474 52.2324C69.1871 52.2698 69.4686 52.3439 69.6082 52.38C70.767 54.1096 87.5846 59.4797 89.0795 57.4881C90.6434 58.1561 92.5134 57.6156 94.1689 57.4963C95.4629 57.6058 96.7785 57.8986 98.0706 57.7338C98.3259 59.0815 98.584 60.4296 98.843 61.7764C95.3705 66.8682 94.8537 69.1744 95.8433 75.2921C96.0571 76.5579 96.4719 76.983 98.0204 77.1671C88.8186 82.2363 79.5652 87.0943 70.4787 92.5147C71.7641 89.4507 73.042 86.3279 74.2517 83.2656C74.681 82.3252 75.2557 80.9434 75.3015 79.6565C75.657 74.8779 60.8351 70.4958 55.0285 68.914C54.8643 68.2339 54.1188 67.833 53.6294 67.3282ZM100.899 76.0876C100.966 75.9713 101.228 75.4167 101.292 75.2884C101.44 75.5706 101.731 76.0935 101.917 76.3481C101.554 76.4789 100.667 76.9672 100.315 77.1539L100.899 76.0876ZM49.2811 100.418C49.1248 101.055 48.9829 101.66 48.8458 102.241C45.4128 104.042 41.9987 105.687 38.5543 107.452L38.6633 107.654C36.7141 108.802 34.5934 109.496 32.6788 110.688C31.1822 104.192 30.0412 97.6122 29.1931 90.9804C29.9834 90.951 30.769 90.8764 31.5675 90.7125C32.3646 90.7325 33.1113 90.6439 33.7457 90.4331C38.1754 93.7226 42.863 96.7674 47.6804 99.4898C48.2159 99.8486 48.7738 99.9651 49.3788 100.021L49.2811 100.418ZM48.7247 149.67C48.1874 149.616 47.7007 150.183 47.1832 150.369C45.5771 151.205 44.0084 152.056 42.4641 152.922C41.9293 149.794 40.5916 146.899 40.5002 143.665L40.4487 143.762C40.2544 143.383 39.8592 142.706 39.6319 142.341C40.0123 142.43 40.7315 142.596 41.1065 142.682L41.0644 142.741C41.5504 142.657 42.2135 142.967 42.6732 143.027C44.3405 143.344 46.0436 143.669 47.7345 143.917C47.2996 144.599 47.3231 144.636 48.1283 144.637C47.6677 145.567 47.5609 146.692 47.6049 147.671C47.618 147.848 47.6895 147.813 47.7795 147.883C47.9579 148.393 48.3075 148.745 48.9018 148.969L48.7247 149.67ZM34.0361 114.113L33.8852 113.639L34.0726 113.575C34.0428 113.501 33.9256 113.458 33.8339 113.477L33.8168 113.423C38.4377 111.438 42.9602 109.206 47.5179 107.092C44.8415 114.866 39.5228 121.587 38.1872 129.831L37.4829 129.878C35.914 124.547 34.631 119.087 33.3901 113.807L33.6108 113.732C33.5804 113.964 33.8097 114.168 34.0361 114.113ZM37.3623 152.613C36.8607 152.784 36.2539 152.846 35.6952 152.788C33.2655 152.317 30.7902 151.932 28.3754 151.551C29.7488 138.294 25.3557 124.788 16.3995 115.062C19.73 112.013 23.2634 108.803 27.0384 105.392C30.5659 122.617 34.5758 139.621 37.6763 152.507L37.3623 152.613ZM22.4142 147.39C22.3923 148.447 22.3263 149.515 22.2305 150.567C12.2236 148.994 1.46938 147.359 -9.33669 146.057L-8.85513 145.534C-8.24948 144.785 -9.26838 143.555 -9.87114 143.211C-11.0026 142.533 -12.2705 142.789 -13.5224 143.389L-13.9373 142.804C-11.6258 140.699 -9.31035 138.611 -7.00902 136.494C-4.33496 137.641 -1.6282 138.632 1.06938 139.682L0.963808 140.336C1.56657 140.338 2.17374 140.259 2.75059 140.318C9.41493 142.819 16.4477 145.226 22.4202 147.117L22.4142 147.39ZM21.7567 154.022C21.3495 156.313 20.7451 158.573 19.9737 160.755L19.9682 160.752C11.5514 187.56 -24.9523 196.676 -43.8973 175.361C-65.1763 154.394 -54.7936 112.765 -24.982 106.461C-23.2755 109.549 -21.842 112.664 -20.3112 115.791C-19.5751 117.6 -18.2464 119.206 -17.9451 121.187C-17.7463 121.914 -17.5604 122.642 -17.3814 123.369C-17.3522 123.383 -17.323 123.396 -17.2934 123.409C-17.2955 123.399 -17.2978 123.39 -17.3 123.381L-16.641 123.106C-15.3234 125.385 -13.6388 129.382 -12.1387 131.813C-10.1956 134.756 -10.2896 134.542 -8.84283 134.711C-10.5623 136.428 -12.3084 138.173 -14.0279 139.889C-15.5531 141.38 -16.9939 143.276 -19.2889 143.701C-20.0353 143.77 -20.6685 144.01 -21.1121 144.517C-21.2157 144.832 -21.3707 145.127 -21.5467 145.409C-22.334 148.39 -18.2791 150.707 -16.163 148.183C-3.42445 150.148 9.07759 151.631 21.822 153.656L21.7567 154.022ZM-5.53266 101.088C-0.43136 101.017 5.73919 101.641 12.4892 101.262C12.8912 101.154 13.3526 101.073 13.6608 100.848C15.4599 101.769 17.2883 102.718 19.1381 103.578C18.9957 104.385 19.8637 104.866 20.14 105.572C17.8828 107.709 15.5601 109.8 13.4181 112.087C8.01064 107.15 1.41627 103.585 -5.62803 101.805L-5.53266 101.088ZM177.729 143.762C175.154 122.556 156.575 103.705 135.214 102.599L135.106 101.897C136.125 101.498 137.019 100.676 137.765 99.4541C131.012 98.7736 124.041 99.5753 117.83 101.877C116.677 102.326 115.426 102.773 114.147 102.605C113.961 102.235 113.737 101.85 113.489 101.462C113.479 101.46 113.469 101.458 113.458 101.454C113.081 101.32 112.719 101.135 112.535 100.758C112.365 100.41 112.371 99.9901 112.3 99.6153C112.287 99.5473 112.303 99.489 112.335 99.444C111.744 98.4191 111.193 97.3825 109.924 97.2677L110.341 96.819C110.517 96.6145 110.412 96.252 110.111 96.1899C108.414 90.0164 106.339 84.102 104.726 77.8896L104.209 78.0394C104.142 77.8702 103.733 76.8449 103.658 76.6552L104.573 77.2947L104.464 76.8689C112.485 80.004 120.274 81.3855 127.756 80.072L127.76 80.05C128.644 79.7804 129.474 79.3967 130.161 78.9072C130.594 78.9395 130.71 78.6795 130.921 77.9661C131.362 76.5029 131.857 75.0284 132.327 73.6006C135.023 64.7373 138.736 56.2247 141.18 47.4079C141.244 47.3549 141.467 47.1406 141.423 47.1288C131.797 41.4778 108.628 43.1936 96.0655 45.0886C96.2835 48.4995 96.9326 51.839 97.5599 55.085C92.9977 51.8274 88.6396 47.9941 83.1621 46.359L84.4514 46.0947C84.6623 46.0598 84.7964 45.6492 84.5752 45.5627L84.3215 45.4713C84.7934 41.7883 80.6703 41.3554 78.3624 43.1681C77.8574 43.5882 77.2942 45.0353 78.2292 45.353L78.1876 46.0587C77.419 46.1751 76.4335 46.6113 75.6114 47.0347C75.796 45.9095 75.3833 44.3685 74.0787 45.4293C55.377 36.8204 63.4902 27.9778 61.9713 14.0197C61.8744 9.82892 61.3729 9.56546 57.4111 7.68768C55.1252 6.28371 52.6676 5.3006 50.3004 4.0661L50.4687 3.89706C50.2501 3.45788 49.7772 2.50749 49.5167 1.98401L49.4197 2.01281C49.0592 1.1372 48.7816 0.249664 48.6181 -0.672061C48.523 -1.74282 48.0251 -2.39193 46.8391 -2.59654C43.8564 -3.22819 40.8732 -2.74456 39.6778 0.424669L39.6629 0.427215C39.3729 1.26456 38.8133 2.11959 38.1162 2.52772L38.5477 2.91562C38.5297 2.94901 38.5117 2.98232 38.4934 3.01549L37.8163 2.81234C37.818 2.77553 37.822 2.72425 37.8251 2.68694C37.4448 2.861 36.994 2.99178 36.5329 2.99134C22.09 0.524828 17.7652 11.8904 19.9121 24.4251C19.0614 27.6598 18.3098 30.8998 17.5338 34.1193C15.2696 44.8659 8.47085 51.5452 6.15526 61.9333C5.54455 64.4579 3.00949 69.1008 5.23514 70.7199C4.85358 73.6869 6.09173 76.8745 8.30008 79.1055C4.96364 79.1996 0.314379 84.6729 4.24938 87.3657C5.68109 87.997 7.40079 87.9241 8.96261 88.1965L8.8422 88.5999C8.90624 88.9579 9.50502 88.9348 9.79381 88.8995C9.79308 89.7584 9.68454 90.6958 10.0333 91.4566C10.0717 91.8904 10.2487 92.0321 10.3367 92.0024C10.9129 92.0212 11.4975 91.9493 12.0797 91.9833C12.961 93.4115 14.2798 94.3134 15.6436 93.5841C16.4733 93.1494 16.4591 91.9884 17.2443 91.4C19.2998 90.1019 21.6351 90.3153 23.8077 90.35C24.7079 93.3892 25.1137 96.4738 25.8218 99.5417C24.8934 100.714 23.831 101.904 22.6121 103.15L22.4529 103.113L22.2917 103.163C21.3652 102.329 20.3366 100.907 19.0219 101.425C8.04589 91.4307 -9.61527 92.9674 -23.1857 93.0653C-29.3238 93.1383 -35.6617 93.2057 -41.8862 93.4907C-43.662 93.532 -44.8075 93.6641 -44.8686 95.0074C-46.0424 95.0589 -46.9141 95.3491 -48.0182 95.4352C-48.7079 95.4719 -49.0672 95.5275 -49.0908 95.7251C-48.9574 97.6424 -48.8824 99.6484 -48.2178 101.439C-47.5221 103.211 -45.4001 103.21 -43.78 102.556C-43.1721 102.294 -43.6962 101.536 -43.714 101.073C-44.0835 99.5547 -44.3143 98.0016 -44.3839 96.4057C-43.618 96.466 -42.9478 96.502 -42.0654 96.5139L-42.0504 96.9252C-40.4985 96.9861 -33.9026 97.1031 -32.2941 96.8772C-32.9539 97.6797 -33.2094 98.5036 -32.5758 99.4074C-30.9025 101.283 -27.8172 100.429 -25.6197 100.712L-25.5857 101.429C-60.1987 107.911 -73.3771 155.154 -48.2713 179.476C-23.7206 206.31 23.2192 190.332 27.9642 154.62C30.0069 154.965 32.0598 155.238 34.0972 155.673C32.894 156.775 31.1664 157.333 29.9857 158.387C27.9375 160.394 27.3304 161.712 28.2693 162.746L28.2867 162.732C29.0388 163.153 29.9564 163.117 30.7953 162.831C31.3268 162.903 31.8785 162.987 32.4068 162.988C33.266 162.97 34.0781 162.753 34.3051 162.07C34.3302 161.81 33.836 161.368 33.5953 161.152C34.9199 160.221 36.2518 159.152 37.7718 158.144C38.1441 157.958 38.3194 157.772 38.4496 157.444C44.9861 159.796 51.8295 154.767 55.9968 151.033C55.9918 151.054 55.9872 151.076 55.9822 151.098C56.4883 150.597 57.0204 150.109 57.5975 150.023C57.7653 149.852 57.9529 149.691 58.164 149.541L61.2446 149.651C62.075 149.681 63.1813 149.863 63.9354 149.582C65.6819 148.737 64.935 146.145 64.047 144.952C65.4463 144.868 66.867 144.891 68.2571 144.703C71.8196 144.283 70.8069 140.696 67.9507 139.884C67.159 138.858 63.6423 137.77 63.5458 136.48C76.8078 122.306 91.1377 108.799 104.419 95.4059C104.856 96.8491 104.947 98.3894 104.961 99.8476C104.963 103.355 105.889 106.827 106.729 110.176C76.0355 129.681 80.0952 180.671 113.854 194.534C146.929 209.776 182.859 178.565 177.729 143.762Z" fill="white"/>
<path fill-rule="evenodd" clip-rule="evenodd" d="M134.946 101.921C136.211 101.426 137.132 100.408 137.807 99.2873C137.958 99.0518 137.754 98.802 137.512 98.7776C131.33 98.1605 124.918 98.7469 119.006 100.678C117.39 101.096 115.819 102.1 114.084 101.945C113.834 101.467 113.547 101.005 113.245 100.559C119.384 94.9042 126.306 88.5716 127.788 80.0139C128.563 79.7628 129.311 79.4166 129.982 78.9552C130.717 78.9494 130.862 78.1162 131.037 77.5479C131.521 75.9815 132.04 74.4261 132.555 72.8696C134.956 65.5257 137.566 58.2534 140.164 50.9761C140.571 49.7623 141.026 48.5417 141.225 47.2801C142.281 46.351 139.918 45.8008 139.315 45.4875C134.539 43.538 129.368 42.8494 124.231 42.7845C114.701 42.6563 105.052 42.7203 95.654 44.4259C95.519 43.8894 95.3117 43.9708 95.3942 44.4897C95.345 44.5111 95.3537 44.5834 95.4007 44.5999C95.5838 47.7354 96.1439 50.8494 96.7401 53.9427C92.7623 51.0793 88.9308 47.7831 84.232 46.1361C84.8031 46.0191 84.9784 45.1121 84.4057 44.9056C84.6156 41.0135 80.3354 40.6646 77.844 42.5697C77.0818 43.2155 76.6017 45.0078 77.8318 45.3859C77.0734 45.5234 76.3925 45.7897 75.7145 46.1219C75.7795 44.9248 74.9513 43.851 73.7521 44.6951C55.835 36.1272 63.406 29.0998 62.0402 13.6727C61.9361 9.29067 61.2954 8.95709 57.2742 7.04411C55.1489 5.73128 52.8391 4.78824 50.6172 3.65398L49.3675 1.14237C49.661 2.16578 49.471 3.35852 50.1823 4.23515C50.1585 5.41218 49.8886 5.98506 48.8552 6.63227C45.475 9.09915 37.467 7.43754 37.8891 2.46313C38.7373 1.90683 39.047 0.835345 39.2487 -0.106819C39.2726 -0.198467 39.1286 -0.267931 39.0874 -0.174173C38.6376 1.18623 37.8211 2.21306 36.2913 2.31627C24.2155 0.618588 19.1304 6.90991 18.8138 17.3893C18.6769 20.347 18.8635 21.1531 19.2521 24.0867C18.412 27.2859 17.6638 30.5102 16.8888 33.7259C15.4042 40.4658 13.3685 43.4317 10.1975 49.5951C8.32506 53.447 6.42077 57.3283 5.51178 61.5331C4.95382 63.8569 2.34589 68.7654 4.56365 70.5643C4.27009 73.4548 5.35548 76.3828 7.29466 78.5393C3.68042 79.1321 -0.201608 84.913 3.78875 87.3733C5.16988 87.993 6.72685 87.9634 8.20393 88.1806C8.06348 88.6515 8.71754 88.9967 9.13404 88.9714C9.12174 89.7304 9.0789 90.5209 9.39049 91.2418C9.44823 91.6463 9.58542 92.0262 10.0307 92.051C10.5503 92.0716 11.0635 92.0089 11.5865 92.0259C12.4188 93.3264 13.9301 94.4446 15.5061 93.5982C16.4499 93.1513 16.4247 91.9801 17.1797 91.3683C18.8934 90.2522 21.2591 90.3345 23.242 90.3912C24.0687 93.2563 24.4757 96.2296 25.1384 99.1364C24.2174 100.289 23.2298 101.38 22.2042 102.435C22.1682 102.426 22.1306 102.427 22.0935 102.438C21.2215 101.62 20.1837 100.314 18.8201 100.706C8.59634 91.717 -5.94988 92.137 -18.8055 92.329C-26.2901 92.4315 -33.7785 92.4608 -41.2574 92.7679C-42.6528 92.9111 -45.2038 92.5302 -45.4759 94.3557C-46.1597 94.4168 -46.8331 94.5062 -47.5107 94.6499C-48.1269 94.8791 -49.713 94.5539 -49.7452 95.4108C-49.6087 97.3646 -49.5349 99.4088 -48.8452 101.26C-47.9678 103.308 -45.7917 103.276 -43.9709 102.59C-43.5562 102.469 -43.3515 102.067 -43.4368 101.66C-43.664 100.573 -43.9448 99.5092 -44.0989 98.4068C-44.1887 97.7689 -44.2502 97.1268 -44.2892 96.4839C-43.6489 96.5312 -43.0063 96.5534 -42.3623 96.5627C-48.6185 97.1156 -34.183 97.0936 -33.3224 97.0044C-33.7811 97.6823 -33.6292 98.6638 -33.1523 99.3174C-31.4923 101.299 -28.2639 100.506 -25.9504 100.758C-61.4798 108.121 -73.9331 154.275 -48.819 179.419C-22.9351 206.427 22.1546 190.77 27.9715 154.724C29.6324 155.003 31.3059 155.227 32.9564 155.559C31.8673 156.405 30.4325 156.869 29.444 157.81C28.3356 158.876 26.3347 160.987 27.5836 162.522C27.133 162.943 26.3051 163.94 27.0701 164.408C27.1101 164.423 27.1514 164.394 27.172 164.362C33.1654 166 39.5588 166.334 45.7416 165.898C51.3577 165.896 55.1014 162.307 55.8233 156.875C56.4303 154.459 55.7667 151.28 57.9878 149.594C58.9719 149.629 59.956 149.664 60.9401 149.7C61.8381 149.732 62.9119 149.924 63.7773 149.605C65.536 148.849 65.2189 146.321 64.3866 144.971C65.5961 144.912 66.8158 144.915 68.0169 144.748C71.9902 144.174 71.0255 140.316 67.8772 139.259C67.2182 138.41 63.8739 137.185 63.6155 136.182C63.6237 136.002 63.8604 135.829 63.983 135.704L64.4283 135.248C77.4914 121.994 90.7128 108.892 103.935 95.7924C104.423 97.6803 104.227 99.6357 104.397 101.558C104.663 104.306 105.348 107.027 106.024 109.701C75.2458 130.235 79.184 179.79 113.419 194.553C153.165 211.701 190.423 169.185 174.457 131.307C168.084 115.221 152.438 103.063 134.946 101.921ZM171.706 167.751C160.634 196.554 122.195 205.146 100.77 182.166C81.6685 163.098 84.5028 128.148 106.846 112.719C107.036 113.379 107.234 114.036 107.439 114.692C81.0539 133.508 85.2088 177.185 115.296 190.007C150.977 205.391 184.363 167.198 170.037 133.218C161.803 111.517 134.948 100.026 113.834 110.824C113.642 110.185 113.458 109.546 113.274 108.905C150.765 91.2421 186.931 131.631 171.706 167.751ZM136.097 150.591C136.702 151.098 137.31 151.6 137.921 152.1C137.199 152.031 136.477 151.962 135.754 151.897C135.941 151.481 136.053 151.04 136.097 150.591ZM134.628 151.405C134.659 151.357 134.688 151.309 134.715 151.259C134.691 151.317 134.665 151.374 134.636 151.431C134.634 151.422 134.631 151.414 134.628 151.405ZM134.374 151.775C134.431 151.702 134.484 151.627 134.535 151.551C134.539 151.565 134.542 151.579 134.546 151.593C134.508 151.657 134.465 151.72 134.419 151.779C134.403 151.778 134.388 151.776 134.374 151.775ZM132.171 150.863C132.165 150.863 132.16 150.841 132.164 150.776C132.181 150.781 132.189 150.783 132.188 150.783C132.203 150.786 132.183 150.863 132.171 150.863ZM132.191 149.512C132.005 148.723 131.202 148.185 130.968 147.546C130.956 147.52 130.998 147.447 131.01 147.432C132.248 146.996 133.931 147.978 133.832 149.367C133.059 149.033 132.703 149.948 132.207 150.342C132.236 150.062 132.258 149.798 132.191 149.512ZM130.491 151.74C130.471 151.793 130.462 151.851 130.462 151.907C130.211 151.984 129.868 152.085 129.761 152.314C129.664 152.287 129.564 152.26 129.468 152.23C129.848 152.152 130.2 151.993 130.491 151.74ZM129.068 147.202C129.064 146.906 129.55 146.864 129.775 146.749C129.66 146.951 129.573 147.226 129.569 147.465C129.397 147.392 129.219 147.332 129.039 147.291C129.08 147.286 129.152 147.189 129.068 147.202ZM128.069 149.439C127.834 149.054 127.557 148.698 127.359 148.282C127.38 148.262 127.402 148.242 127.424 148.223C130.736 147.796 131.076 151.115 129.058 151.378C129.024 150.838 128.963 150.845 129.005 151.382C128.232 151.395 127.392 151.128 127.001 150.45C127.041 150.433 127.013 150.38 126.978 150.408C126.933 150.324 126.895 150.234 126.866 150.14C127.378 150.863 128.512 150.199 128.069 149.439ZM102.164 121.403C103.906 119.472 105.851 117.687 107.901 116.14C111.729 127.589 117.371 138.525 125.026 147.942C124.742 147.795 124.461 147.642 124.18 147.487C123.525 146.603 122.776 145.777 122.069 144.933C115.457 137.075 108.929 129.121 102.164 121.403ZM92.6511 161.068C91.5001 156.678 91.055 152.005 91.3327 147.418C102.066 149.214 113.106 148.2 123.769 150.466C113.397 153.994 102.941 157.314 92.6511 161.068ZM95.8978 160.127C104.49 157.373 113.043 154.502 121.605 151.66C122.598 151.329 123.613 151.039 124.578 150.633C124.887 150.694 125.198 150.75 125.51 150.797C125.828 150.845 125.962 150.418 125.645 150.312C114.442 147.505 102.721 148.811 91.3363 147.36C91.8918 137.835 95.7262 128.505 102.137 121.433C108.911 129.972 115.952 138.326 122.866 146.763C113.924 141.861 104.606 137.625 94.9702 134.239C105.311 138.357 115.966 143.378 125.847 148.946C125.918 149.033 125.989 149.121 126.06 149.211C125.907 149.75 125.972 150.277 126.19 150.735C117.188 156.476 107.713 161.768 98.8543 167.737C98.7539 167.864 98.8436 168.05 99.0158 168.012C108.071 162.767 116.864 156.939 125.714 151.322C124.311 153.07 122.989 154.886 121.725 156.74C120.031 158.073 118.337 159.407 116.642 160.741C111.043 165.158 105.449 169.583 99.8921 174.052C106.87 168.923 113.955 163.271 120.931 157.921C115.78 165.666 111.406 173.911 107.955 182.532C107.798 182.918 108.425 183.078 108.583 182.703C112.373 173.707 116.999 165.06 122.338 156.871C124.005 155.363 126.219 154.182 127.668 152.534C127.635 152.385 127.46 152.253 127.313 152.362C125.908 153.396 124.547 154.494 123.182 155.585C124.21 154.031 125.261 152.492 126.302 150.945C126.628 151.488 127.184 151.919 127.822 152.117C127.645 152.886 128.414 153.362 129.107 153.579C129.796 166.183 130.526 178.802 131.575 191.379C131.636 191.677 132.07 191.587 132.088 191.31C131.343 178.744 130.378 166.172 129.271 153.628C131.093 154.036 133.335 154.205 134.913 153.05C138.13 165.171 140.475 177.49 142.252 189.891C142.286 190.08 142.605 190.038 142.592 189.846C141.322 177.335 138.74 164.919 135.102 152.874C135.322 152.647 135.506 152.386 135.654 152.106C136.564 152.247 137.478 152.373 138.393 152.486C146.651 159.067 155.12 165.482 163.975 171.244C164.143 171.327 164.337 171.112 164.185 170.974C155.731 164.861 147.133 158.914 138.862 152.543C149.773 153.755 160.779 154.052 171.737 153.487C167.415 199.8 105.471 206.304 92.6634 161.113C93.756 160.858 94.8313 160.471 95.8978 160.127ZM135.901 145.631C145.403 139.016 154.391 131.583 163.042 123.9C165.662 127.29 167.767 131.129 169.254 135.197C157.966 138.186 146.835 141.793 135.977 146.066C135.702 146.191 135.896 146.643 136.183 146.55C147.068 142.391 158.109 138.616 169.272 135.248C171.33 140.868 172.177 146.991 171.769 153.031C161.951 153.486 152.099 153.348 142.304 152.505C140.975 152.393 139.648 152.265 138.32 152.138C137.583 151.587 136.845 151.038 136.106 150.491C136.221 148.991 135.566 147.411 134.341 146.494C134.445 146.096 134.425 145.657 134.469 145.247C134.714 144.756 134.94 144.256 135.179 143.778C140.112 133.763 145.876 124.19 151.648 114.635C145.081 123.278 139.605 133.235 134.641 143.01C135.48 131.554 136.992 120.167 138.492 108.783C148.177 110.496 157.003 116.048 162.991 123.833C154.516 130.796 145.952 137.657 137.106 144.155C136.881 144.352 134.902 145.633 135.901 145.631ZM120.764 114.107C120.215 112.798 119.631 111.514 118.99 110.244C120.452 109.745 121.938 109.335 123.444 109.015C124.757 120.12 126.575 131.19 128.838 142.139C128.892 142.32 129.205 142.296 129.185 142.093C127.129 131.091 125.252 120.053 123.614 108.979C126.467 108.384 129.418 108.116 132.37 108.176C131.121 120.244 130.518 132.418 130.706 144.549C130.717 144.756 131.021 144.756 131.031 144.549C131.158 132.415 131.582 120.286 132.469 108.178C133.377 108.198 134.281 108.251 135.18 108.333C134.925 109.044 134.202 110.972 135.568 110.891C135.694 110.87 135.761 110.738 135.771 110.627C135.825 109.891 136.016 109.148 136.179 108.438C136.889 108.522 137.594 108.625 138.296 108.748C136.1 119.895 134.97 131.231 134.015 142.538C133.928 143.958 133.968 144.615 133.263 145.912C132.356 145.574 131.3 145.561 130.385 145.899C123.885 135.253 117.752 124.254 114.258 112.214C115.611 111.544 117.018 110.946 118.437 110.438C118.784 111.808 119.21 113.147 119.699 114.472C119.898 115.018 120.137 115.59 120.54 116.021C121.71 116.575 120.993 114.564 120.764 114.107ZM105.977 103.182C105.611 101.246 105.707 99.2762 105.509 97.328C106.538 97.2086 107.57 96.9897 108.614 96.9737C109.105 96.9549 109.615 97.0202 110.093 96.8992C111.28 97.7349 111.679 99.1751 112.345 100.39C112.906 101.406 113.271 102.518 113.582 103.63C113.721 104.127 113.985 104.797 114.654 104.598C115.055 104.479 115.363 103.933 114.986 103.611C114.705 103.401 114.651 102.977 114.462 102.68C116.441 102.132 118.388 101.489 120.33 100.827C125.694 99.3784 131.322 98.8912 136.859 99.3911C136.06 100.254 134.795 100.435 133.798 101.023C133.56 101.087 133.355 101.111 133.115 101.227C132.851 101.482 132.529 101.64 132.188 101.801C125.347 101.704 118.647 103.14 112.467 106.034C111.745 103.404 111.072 100.759 110.492 98.0983C110.47 97.993 110.306 98.0188 110.306 98.1234C110.957 112.319 120.742 135.101 129.665 146.256C129.42 146.463 128.629 146.869 128.876 147.256C128.289 147.123 126.727 147.058 126.937 147.991C126.934 147.991 126.932 147.991 126.929 147.992C116.426 135.019 108.977 119.568 105.977 103.182ZM105.074 94.9863C104.445 92.715 103.611 90.502 103.258 88.1627C102.619 84.4977 101.543 80.9338 100.459 77.3849C100.522 77.3703 100.573 77.3271 100.588 77.2454C100.683 76.6957 101.131 76.445 101.666 76.3366C102.59 76.0926 103.152 76.4161 103.937 76.8334C103.933 76.872 103.931 76.9105 103.934 76.9485C105.474 83.1379 107.598 89.3262 109.259 95.5354C107.918 95.6493 106.556 95.9887 105.432 96.741C105.344 96.1539 105.226 95.5691 105.074 94.9863ZM87.8847 110.593C80.1924 118.309 72.6493 126.173 64.8819 133.806C64.3427 134.505 63.0523 135.304 62.9259 136.135C62.5144 135.885 62.1031 135.635 61.6917 135.385C61.9461 135.236 61.773 134.919 61.5237 134.856C62.3918 134.82 60.7303 134.62 60.5312 134.623C60.5631 134.594 60.5927 134.561 60.6202 134.525C73.0789 118.874 89.1436 106.266 102.667 91.518C103.011 92.638 103.371 93.7487 103.7 94.8718C98.3928 100.076 93.1185 105.316 87.8847 110.593ZM67.315 139.633C67.3466 139.833 67.5507 139.93 67.7058 140.044C67.0496 140.292 66.3657 140.303 65.6673 140.269C64.1831 140.21 62.6996 140.144 61.2158 140.071C53.2508 139.741 45.315 138.904 37.3652 138.398C37.3137 136.54 37.2961 134.651 37.8522 132.847C37.8913 132.859 37.9311 132.869 37.9709 132.875C38.3878 134.499 40.7223 136.337 42.5114 136.095C44.6187 135.676 45.8587 133.642 47.6194 132.567C48.5133 131.94 49.4901 131.387 50.5709 131.159C50.8509 131.244 51.1527 131.256 51.4009 131.082C53.2244 130.916 54.9013 132.071 56.4017 132.98C55.4829 133.184 53.7087 133.548 53.306 134.457C53.1556 135.083 53.8807 135.205 54.3293 135.182C54.6173 135.168 54.6904 134.757 54.3987 134.675C54.3641 134.666 54.3007 134.636 54.236 134.609C54.2505 134.585 54.2681 134.561 54.2884 134.538C54.6108 134.608 54.988 134.35 55.2858 134.242C55.9847 133.986 56.6989 133.768 57.4259 133.605C58.0213 133.968 58.6165 134.331 59.2121 134.694C58.4451 134.87 57.0297 135.353 56.9993 136.282C57.0134 136.679 57.4767 136.754 57.6745 136.538C57.7722 136.49 57.8098 136.378 57.7931 136.276C58.3965 135.386 59.6429 135.73 60.5759 135.526C62.8218 136.896 65.068 138.265 67.315 139.633ZM37.3187 138.744C37.3287 138.69 37.3378 138.636 37.345 138.583C37.5245 138.643 37.7257 138.678 37.9295 138.703C37.7239 138.701 37.5184 138.708 37.3187 138.744ZM68.2199 140.39C70.4893 141.741 70.2783 143.739 67.4958 143.844C64.1451 144.128 60.7438 144.092 57.3872 143.963C50.8905 143.694 44.4407 142.727 38.1308 141.163C37.156 141.037 36.9475 140.326 36.9537 139.457C37.205 139.077 37.8118 139.134 38.2722 139.136C46.6446 139.312 54.9796 140.585 63.3692 140.777C64.0687 140.709 66.7857 141.213 66.9776 140.615C67.3579 140.579 67.8598 140.609 68.2199 140.39ZM62.6992 147.059C62.6963 147.285 62.697 147.51 62.6977 147.735C61.7107 147.777 60.7252 147.787 59.7404 147.765C59.8111 147.523 59.7631 147.251 59.6231 147.029C59.6618 146.76 59.5533 146.483 59.3605 146.305C59.3677 146.168 59.338 146.028 59.2787 145.9C60.4349 145.986 61.5891 146.102 62.7426 146.22C62.7469 146.499 62.7028 146.831 62.6992 147.059ZM55.5905 150.293C50.6986 154.489 44.0454 159.354 37.3442 156.306C36.2523 155.811 35.193 155.271 34.0237 154.969C17.3776 152.113 0.618155 149.653 -16.2143 148.143C-15.199 147.198 -15.3565 145.763 -15.1449 144.519C-15.1434 144.519 -15.142 144.518 -15.1405 144.517C-15.2058 144.975 -14.8453 145.295 -14.4176 145.337C-2.37718 146.57 9.58159 148.651 21.5546 150.44C21.5532 150.46 21.551 150.481 21.5488 150.501C24.4514 150.815 27.3239 151.41 30.211 151.853C32.054 152.16 33.8934 152.509 35.7422 152.775C35.874 152.794 35.98 152.738 36.0463 152.654C36.3978 152.669 36.7431 152.643 37.0831 152.559C38.1901 156.453 43.014 157.308 42.4649 152.262C44.0106 151.701 45.5483 151.118 47.0767 150.512C47.644 150.24 49.4892 149.955 48.6324 149.047C51.1125 149.594 53.5743 149.334 56.0732 149.526C55.8836 149.763 55.7244 150.02 55.5905 150.293ZM54.6701 154.969C54.2111 159.899 52.2635 164.298 46.6517 164.57C40.1969 165.185 33.6912 164.705 27.2421 164.232C27.2639 164.173 27.249 164.127 27.1875 164.183C27.1988 163.628 27.6375 163.189 28.0497 162.844C28.8239 163.209 29.7434 163.139 30.5352 162.887C31.7813 163.059 33.2305 163.283 34.1532 162.276C34.6103 161.791 34.2844 161.258 33.8724 160.872C35.0228 160.036 36.1725 159.197 37.3196 158.357C37.6554 158.112 38.1518 157.945 38.3421 157.568C44.578 159.528 50.5749 155.583 55.1072 151.707C54.8597 152.786 54.7996 153.948 54.6701 154.969ZM27.9433 161.36C28.2122 160.012 29.1962 158.864 30.1732 157.934C31.4299 157.416 32.5163 156.612 33.6636 155.906C34.4872 155.624 36.4738 156.911 37.3877 157.208C35.2779 158.972 32.9351 160.439 30.4594 161.651C30.1543 161.804 29.8371 161.959 29.5058 162.058C29.3543 161.977 29.0997 162.025 29.0072 162.153C28.4613 162.202 27.8642 162.032 27.9433 161.36ZM22.3079 163.459C11.4822 191.275 -25.8533 199.407 -46.6288 177.335C-69.7773 154.166 -58.8976 111.551 -26.344 103.932C-26.2745 104.374 -26.1609 104.805 -26.0148 105.228C-56.7622 112.731 -66.5666 153.842 -44.9818 175.776C-21.8911 200.173 17.2186 185.853 22.5387 153.864C23.3499 153.99 24.1603 154.117 24.9707 154.245C24.4201 157.401 23.5315 160.481 22.3079 163.459ZM-16.7049 102.799C-6.46298 102.762 3.53035 106.685 11.0897 113.516C11.0014 113.662 10.8395 113.799 10.8126 113.967C10.5255 114.254 10.2382 114.54 9.95171 114.827C0.688636 105.901 -13.06 102.039 -25.6052 105.127C-25.789 104.718 -25.9438 104.298 -26.0553 103.863C-23.0089 103.155 -19.8837 102.799 -16.7049 102.799ZM-26.3961 99.8578C-28.3212 99.6592 -31.8329 100.4 -32.9853 98.573C-33.2833 98.0954 -33.3723 97.4948 -33.119 97.0008C-21.343 96.9553 -9.53285 96.2363 2.23236 96.727C5.8264 96.925 9.11104 98.6329 12.1513 100.414C12.1084 100.445 12.0731 100.483 12.0457 100.524C2.45161 100.328 -7.125 100.32 -16.7049 99.7919C-19.9473 99.9152 -23.1556 99.9749 -26.3961 99.8578ZM-38.2631 95.612C-40.2839 95.6636 -42.3072 95.7785 -44.3153 95.9958C-44.3235 95.3291 -44.2364 94.2999 -45.1677 94.3192C-44.8049 93.0804 -41.0939 93.6716 -39.9622 93.4944C-33.1031 93.3592 -26.2416 93.2661 -19.3815 93.2139C-6.32868 92.8236 8.02737 92.8955 18.5524 101.394C18.5922 101.416 18.6407 101.419 18.687 101.387C19.6009 100.835 20.7474 102.476 21.364 103.012C20.8741 103.454 20.3312 103.831 19.8233 104.249C19.6011 103.987 19.3596 103.736 19.1848 103.438C19.4167 103.222 19.4678 102.829 19.1009 102.63C17.1588 101.575 15.1558 100.62 13.1811 99.6259C11.7464 98.991 10.5116 98.0111 9.06964 97.391C8.21001 97.0095 7.32215 96.6995 6.41621 96.4532C4.8829 95.9098 3.31341 95.5569 1.66723 95.4108C-11.6319 94.9873 -24.9616 95.2996 -38.2631 95.612ZM-45.7176 101.527C-45.4985 101.439 -45.3114 101.251 -45.2241 100.973C-45.1901 101.114 -45.1547 101.254 -45.1163 101.393C-45.3131 101.451 -45.5157 101.499 -45.7176 101.527ZM18.4897 103.741C18.6132 104.304 19.1297 104.691 19.3971 105.184C17.2759 107.189 15.11 109.148 13.1062 111.266C7.71897 106.42 1.19117 102.914 -5.83142 101.137C0.123647 101.255 6.07843 101.37 12.0335 101.483C12.2325 101.486 12.3672 101.391 12.4393 101.259C12.7581 101.176 13.1403 101.096 13.3836 100.949C15.0717 101.813 16.7582 102.687 18.4748 103.49C18.4706 103.589 18.4767 103.679 18.4897 103.741ZM-18.5914 120.947C-16.9963 126.772 -16.1247 132.842 -13.9953 138.501C-13.9846 138.527 -13.938 138.526 -13.9415 138.494C-13.969 138.193 -13.9437 137.893 -13.9791 137.591C-14.8179 132.675 -16.1345 127.847 -17.239 122.985C-15.8356 125.227 -12.1671 134.485 -9.94001 134.688C-11.4837 136.23 -13.0273 137.772 -14.5718 139.313C-16.0417 140.749 -17.4813 142.634 -19.6297 143.025C-20.3797 143.129 -21.1731 143.31 -21.6515 143.946C-22.0111 143.438 -21.8881 142.748 -21.5538 142.207C-19.9997 139.902 -16.6777 140.881 -14.6991 139.188C-14.3395 138.835 -14.9328 138.276 -15.3489 138.614C-16.1181 139.236 -17.1246 139.403 -18.0776 139.57C-21.2527 128.774 -24.3393 117.934 -27.7666 107.212C-27.0032 106.97 -26.2326 106.755 -25.4569 106.565C-23.8259 109.537 -22.4272 112.577 -20.9381 115.613C-20.2105 117.414 -18.871 119.04 -18.5914 120.947ZM-3.18522 158.156C-3.65889 157.653 -5.28257 158.434 -4.40094 158.957C-3.64398 159.08 -2.84947 159.072 -2.0839 159.105C5.0324 159.334 12.136 160.038 19.2094 160.679C9.99433 187.215 -24.3432 195.87 -43.9276 174.795C-64.0885 154.282 -56.0413 116.005 -27.8889 107.251C-24.9527 118.1 -21.6494 128.86 -18.4734 139.642C-19.3012 139.798 -20.116 140.01 -20.8548 140.43C-22.3596 141.186 -23.5227 143.399 -22.1001 144.744C-23.2588 148.142 -18.8852 150.908 -16.325 148.256C-3.86497 150.175 8.65654 151.671 21.1089 153.643C20.7283 155.776 20.1848 157.872 19.4786 159.92C18.8054 159.561 17.9787 159.639 17.2391 159.492C16.4554 159.392 15.671 159.299 14.8852 159.218C8.88896 158.603 2.86891 158.206 -3.16134 158.214C-3.157 158.195 -3.16352 158.172 -3.18522 158.156ZM23.9143 101.694C24.4007 101.235 24.9411 100.797 25.3772 100.29C25.7014 101.855 26.0268 103.42 26.355 104.985C12.6424 117.73 -1.41407 130.131 -15.0443 142.952C-15.1352 142.788 -15.3773 142.734 -15.5588 142.718C-15.5168 142.718 -15.7223 142.751 -15.7549 142.754C-15.7353 142.75 -15.7158 142.747 -15.6955 142.743C-16.0553 142.749 -16.3931 143.029 -16.4633 143.368C-16.6507 143.855 -16.3519 144.468 -15.8431 144.613C-15.8735 144.796 -15.8916 144.981 -15.9061 145.166C-16.1462 144.903 -16.5201 144.828 -16.8164 144.632C-17.2772 144.303 -17.8573 143.893 -18.4301 143.971C-19.5935 143.621 -20.475 144.689 -19.2737 144.731C-18.9458 144.679 -18.6348 144.594 -18.3303 144.614C-17.7739 145.36 -17.1914 146.984 -16.0204 146.359C-16.1424 146.992 -16.5719 147.892 -17.2287 148.065C-17.2965 148.093 -17.2092 148.123 -17.1731 148.12C-19.6234 149.89 -22.7457 147.009 -21.2469 144.465C-20.793 143.723 -19.865 143.714 -19.0993 143.547C-18.663 143.435 -18.2411 143.255 -17.8497 143.034C-13.4742 139.697 -9.96541 135.31 -5.95928 131.545C4.02464 121.621 13.8436 111.531 23.9143 101.694ZM-12.079 141.036C-10.4625 139.56 -8.84521 138.082 -7.22869 136.605C-4.63879 137.708 -1.98036 138.683 0.646956 139.707C-3.60476 139.91 -7.90793 140.126 -12.079 141.036ZM-9.98994 142.577C-11.2195 141.817 -12.7395 142.136 -13.9741 142.748C-13.4582 142.233 -12.8807 141.764 -12.3489 141.282C-8.11191 141.043 -3.89051 140.481 0.358241 140.395C1.01599 140.372 1.67446 140.355 2.33222 140.344C3.43281 140.758 4.53557 141.167 5.63979 141.57C10.9788 143.5 16.3486 145.352 21.7608 147.067C21.7406 147.995 21.6906 148.916 21.6118 149.833C11.4682 148.241 1.31325 146.707 -8.88139 145.467C-8.07559 144.592 -9.15245 143.035 -9.98994 142.577ZM25.6089 148.225C25.5807 148.97 25.5337 149.712 25.4693 150.45C24.661 150.319 23.8528 150.189 23.0445 150.061C23.119 149.217 23.1704 148.369 23.1972 147.516C23.9982 147.762 24.8014 148.001 25.6089 148.225ZM23.216 146.633C23.3746 136.255 19.7631 125.923 13.0263 118.06C13.4792 117.644 13.9329 117.229 14.3866 116.813C21.8621 125.089 25.891 136.186 25.635 147.339C24.826 147.113 24.0199 146.877 23.216 146.633ZM25.1234 128.307C23.0669 123.302 20.2094 118.757 16.6182 114.772C19.9092 111.761 23.2109 108.762 26.5199 105.772C29.6967 121.229 33.2685 136.622 36.9552 151.953C36.4785 152.115 35.9719 152.155 35.4721 152.116C33.1526 151.666 30.8125 151.298 28.4758 150.93C29.1945 143.241 28.0518 135.394 25.1234 128.307ZM37.8923 152.599C37.8544 152.491 37.8207 152.378 37.7934 152.266C37.8254 152.377 37.8584 152.488 37.8923 152.599ZM48.2873 146.486C48.8513 144.983 50.5143 144.347 51.4966 145.857C52.8156 148.668 47.6675 149.118 48.2873 146.486ZM47.3046 144.671C46.9634 145.511 46.9355 146.46 46.9515 147.363C46.9558 147.586 47.0578 147.737 47.1989 147.82C47.4413 148.422 47.9153 148.78 48.4826 148.994C47.8243 148.903 47.3219 149.493 46.7409 149.723C45.2931 150.477 43.8578 151.25 42.4332 152.046C41.8631 149.076 40.5989 146.231 40.5671 143.166C40.4784 142.339 41.94 143.087 42.3906 143.076C43.8718 143.379 45.3617 143.647 46.8567 143.879C46.6653 144.201 46.9256 144.659 47.3046 144.671ZM40.0945 142.575C40.1303 142.584 40.1662 142.591 40.202 142.599C40.1838 142.625 40.1672 142.651 40.1527 142.678C40.1338 142.644 40.1149 142.609 40.0945 142.575ZM24.4548 90.0583C25.6943 90.2065 26.9346 90.3518 28.1755 90.4849C29.4172 102.694 32.0307 114.757 35.4984 126.548C35.7053 127.261 35.9166 127.972 36.1272 128.684C36.4286 129.365 36.392 130.798 37.3703 130.786C37.3276 131.224 37.2987 131.663 37.2842 132.104C36.9434 132.814 36.6728 133.555 36.5143 134.31C36.2662 135.578 36.1909 136.878 36.1148 138.165C35.9237 141.362 36.4417 141.855 39.5705 142.455C40.3944 145.753 40.7872 149.217 41.479 152.569C41.5953 153.19 41.761 153.796 41.5878 154.404C41.1489 155.285 40.2368 155.195 39.4993 154.634C38.7829 153.938 38.5831 152.955 38.2994 152.046C35.395 142.407 33.4492 132.521 31.4809 122.663C29.4455 111.727 26.5362 100.984 24.4548 90.0583ZM33.6778 113.458C33.6821 113.45 33.6727 113.439 33.664 113.444C37.9861 111.59 42.2929 109.479 46.5824 107.478C43.8517 114.901 38.7878 121.529 37.5382 129.46C35.9787 124.16 34.7135 118.783 33.4506 113.409C33.4954 113.509 33.6156 113.579 33.6778 113.458ZM32.965 110.605C38.0235 107.882 43.1673 105.26 48.0926 102.298C47.7659 103.661 47.4243 105.02 46.979 106.349C44.3141 107.628 41.673 108.957 39.0216 110.267C37.3259 111.111 35.6219 111.944 33.9788 112.886C33.8268 112.977 33.444 113.11 33.4332 113.334C33.2234 112.428 33.0186 111.522 32.8189 110.614C32.8673 110.622 32.9173 110.62 32.965 110.605ZM29.6893 93.0041C29.4962 92.3533 29.4941 91.6836 29.3465 91.0073C30.0039 90.9743 30.6614 90.8899 31.308 90.762C32.0048 90.7742 32.7248 90.7169 33.3847 90.5186C37.8056 93.7919 42.3995 96.7728 47.1947 99.4819C47.6454 99.7698 48.1121 99.9502 48.6382 100.016C48.5021 100.57 48.3712 101.125 48.2402 101.68C43.1748 104.332 37.9309 106.759 32.9664 109.552C34.7219 108.745 36.4564 107.888 38.188 107.026C36.4028 108.083 34.423 108.753 32.6409 109.802C31.5152 104.235 30.0697 98.6685 29.6893 93.0041ZM50.1223 130.572C47.8419 131.294 45.8814 132.77 44.0526 134.259C42.3493 135.864 39.9863 134.765 38.7308 133.155C38.8443 132.984 38.4837 132.983 38.4184 132.792C41.738 128.429 45.1166 127.95 50.3553 127.953C50.0194 128.775 49.9614 129.699 50.1223 130.572ZM17.0893 89.8156C16.1156 90.2213 15.5241 91.0799 15.1689 92.027C14.7325 92.9461 13.6312 92.4665 13.1269 91.8816C12.4582 90.8922 11.6657 90.2712 10.4083 90.6568C10.0421 90.0191 9.9745 89.2728 9.81119 88.5765C12.303 89.1583 14.8175 89.5268 17.37 89.6925C17.276 89.7312 17.1819 89.772 17.0893 89.8156ZM5.70274 65.2463C5.89522 64.6392 6.15499 64.0522 6.48278 63.4975C6.53994 63.4008 6.42706 63.2848 6.33661 63.3177C8.03005 55.5613 12.4075 49.6085 15.0157 42.1682C17.079 35.7019 18.5962 31.8678 19.3997 25.1332C21.0228 33.2378 21.7926 39.4292 29.3563 44.4253C34.3752 47.687 40.2444 49.5828 46.123 50.6354C44.98 51.9236 44.7961 53.6965 44.6859 55.338C44.4743 58.2365 44.0749 61.213 44.5839 64.0945C41.9049 64.4609 39.1923 64.2619 36.5266 63.8797C25.9178 61.8584 14.5571 63.3093 5.3489 69.102C5.19622 67.807 5.30982 66.4855 5.70274 65.2463ZM21.1914 10.7415C22.9833 3.65674 27.8891 2.67094 35.5093 3.21436C36.2393 3.15755 36.9593 3.00786 37.5693 2.66715C35.6426 18.8432 45.4239 24.5831 47.9421 40.1136C38.2448 35.9265 32.0162 31.007 31.5426 20.669C31.4397 19.039 31.5193 17.4112 31.5113 15.7811C31.5106 15.7181 31.4238 15.7103 31.4042 15.7668C27.4932 30.0413 38.5569 40.2305 52.7395 43.2992C52.0355 44.9617 51.4796 45.8922 50.7757 47.555C50.7741 47.5574 50.7729 47.5598 50.7728 47.5621C50.7712 47.5645 50.7698 47.5685 50.7692 47.5701C50.4606 48.2883 50.1407 49.0258 49.699 49.6755C49.6425 49.7584 49.4631 49.9167 49.6476 49.7542C49.5991 49.7964 49.555 49.8572 49.5108 49.9066C48.74 49.9635 46.717 48.7721 46.1649 49.2187C38.8273 47.7277 30.3247 46.1891 25.844 39.7946C21.1056 30.4881 18.7108 20.9285 21.1914 10.7415ZM38.7929 6.4233C41.8944 9.55157 48.6795 9.87845 51.0818 5.80627C50.9339 19.8019 50.2518 25.1671 49.0318 39.1092C46.2248 24.8154 38.5804 20.2633 38.065 5.48193C38.2734 5.81987 38.5201 6.13766 38.7929 6.4233ZM52.1139 4.86316C53.6708 5.53038 55.1162 6.42206 56.4653 7.43282C57.9081 8.52584 60.0107 8.52387 60.4024 10.4815C60.8236 14.8994 60.6583 16.5212 60.5668 20.9576C59.4438 34.7603 59.1766 39.1073 73.2492 46.2106C73.2854 46.386 73.3418 46.56 73.4106 46.7289C71.5684 47.3895 69.4158 47.1172 67.7043 48.1299C66.9493 47.119 66.0556 46.0385 64.7643 45.7245C64.231 45.5964 63.7107 45.6529 63.1774 45.7453C62.8782 45.77 62.5514 45.9309 62.2932 45.7295C60.3694 44.6149 58.4337 44.2364 56.9495 42.5966C55.8456 41.5949 56.4172 39.2835 56.2011 37.8664C55.6998 28.5366 56.3709 24.2249 56.964 14.9171C56.9885 14.2155 57.0392 13.5133 56.9487 12.8153C56.9429 12.7702 56.8865 12.7609 56.8691 12.8046C54.6146 22.2683 54.8605 27.1991 54.8398 36.8792C54.8056 39.6516 55.2084 41.6048 55.6326 44.3343C55.6716 44.6951 56.2294 44.713 56.2157 44.3343C56.1886 43.5992 56.228 43.6478 56.2611 42.9093C56.8305 43.3219 57.1315 43.1082 57.529 43.665C58.1583 44.4534 58.9433 45.1083 59.7259 45.7424C57.6971 45.3965 55.781 44.4607 53.7559 44.0094C53.8718 43.7053 53.9878 43.4011 54.1144 43.1009C54.11 43.113 54.1064 43.1209 54.105 43.1259C54.1681 42.9689 54.2526 43.5836 54.3351 43.4337C54.7902 43.1181 54.7808 42.2032 54.1151 42.0744C52.9169 41.8436 51.7363 41.532 50.5825 41.1465C51.5069 26.1022 53.1101 19.5672 51.4381 4.51337C51.6643 4.63557 51.8923 4.75071 52.1139 4.86316ZM74.234 47.4928C74.834 47.2681 74.5376 46.7176 74.3382 46.2908C74.471 46.2034 74.5879 46.0583 74.6371 45.8992C74.6888 47.2625 75.1081 48.604 75.899 49.7256C73.5373 49.9943 71.1651 50.2005 68.8092 50.5008C68.7781 50.4257 68.7463 50.3519 68.713 50.2796C69.5931 49.838 68.356 48.9911 68.0357 48.553C70.0847 48.0869 72.2498 48.2252 74.234 47.4928ZM77.8462 46.3688C84.3147 46.1009 89.6195 50.2516 94.4991 53.9185C95.3052 54.4048 95.9761 55.3474 96.9984 55.2757C97.0867 55.7324 97.175 56.1884 97.2618 56.6437C95.1104 56.5803 92.7801 56.4114 91.0049 55.0745C87.251 51.2247 82.2558 47.9758 76.6016 48.903C76.1448 48.1549 75.8273 47.3059 75.7442 46.4346C76.4359 46.3573 77.1559 46.3581 77.8462 46.3688ZM79.1697 43.539C80.1183 43.1306 82.0449 42.5386 82.6003 43.7488C82.5959 43.7488 82.6574 43.9091 82.6567 43.907C82.7579 44.2097 82.7688 44.5181 82.7298 44.8791C81.5322 44.902 80.3286 44.8094 79.1465 44.6228C79.1494 44.3451 78.9562 44.0609 78.6784 43.9663C78.7992 43.7896 78.9642 43.6578 79.1697 43.539ZM90.4589 56.1632C90.4693 56.1539 90.4788 56.1445 90.4876 56.1349C91.0031 56.5014 91.5598 56.7947 92.1491 57.0263C91.2762 57.1191 90.3816 57.2341 89.52 57.0451C89.8384 56.7508 90.1464 56.4425 90.4589 56.1632ZM57.3626 54.3493C57.2244 54.4231 57.0876 54.4889 56.9523 54.5405C56.9234 54.524 56.8952 54.5069 56.8677 54.4889C56.4428 54.1558 55.8812 53.7456 55.9161 53.1481C56.4096 53.5333 56.8843 53.9427 57.3626 54.3493ZM63.943 46.5785C65.9152 46.6179 66.708 48.7419 67.9062 49.9639C67.2901 50.503 68.6112 51.5057 67.82 52.148C65.7856 53.0595 63.5959 53.6652 61.5082 54.4697C60.9574 54.6664 60.4328 54.874 59.8742 54.7159C59.886 54.6982 59.8962 54.6794 59.9072 54.6612C59.7474 54.5605 59.4084 54.5508 59.404 54.3194C59.0929 54.1563 58.7575 54.0099 58.5146 53.7352C58.49 53.7454 58.4654 53.7558 58.4408 53.7666C56.42 52.093 53.962 49.9378 51.1295 50.3913C52.1571 48.6021 52.789 46.6146 53.5046 44.685C55.8982 45.0828 57.9586 46.5018 60.422 46.703C61.6227 46.7524 62.8634 46.2302 64.0649 46.6464C64.0251 46.6228 63.9844 46.6003 63.943 46.5785ZM49.5268 51.5209C50.1577 51.493 50.5919 51.1451 50.9276 50.692C52.4691 51.1301 53.9778 51.7216 55.2772 52.6721C54.1774 53.222 54.6155 54.4587 55.2281 55.1998C55.4217 57.718 55.5283 60.2473 55.4407 62.773C53.3134 62.6206 51.2026 62.2899 49.1208 61.8345C48.4673 58.428 48.8965 54.9276 49.0608 51.4937C49.2149 51.5166 49.3705 51.5281 49.5268 51.5209ZM46.1302 61.9182C46.0317 59.9053 46.1923 57.8939 46.2785 55.8841C46.3446 54.2282 46.2832 52.4856 47.0086 50.9511C47.5769 51.1059 48.1068 51.2516 48.6657 51.4128C47.4869 54.2461 47.3547 57.4509 47.5027 60.4821C47.5015 62.9507 48.0672 63.2055 50.4117 63.5239C50.1576 65.129 51.2181 66.5609 52.3227 67.6251C49.1537 66.859 46.0593 65.7004 42.7901 65.4131C43.4052 65.3151 45.6729 65.2781 45.7981 64.6199C46.672 64.138 46.0804 62.7322 46.1302 61.9182ZM98.167 61.3791C94.7658 66.2607 94.1724 69.1817 95.1955 75.0402C95.3147 75.8793 95.751 76.8376 96.6743 77.0173C88.0753 81.7437 79.384 86.3281 70.9431 91.3297C72.0873 88.592 73.2053 85.844 74.2963 83.085C75.3667 80.7473 76.2811 77.8139 73.7316 76.0674C68.1022 72.2946 61.5658 69.9567 55.0116 68.2937C54.7731 67.6317 54.0713 67.2485 53.5927 66.7553C52.5861 65.7728 51.3669 64.8912 50.7438 63.5754C52.4874 63.8455 54.2516 63.9771 56.0153 64.0079C56.3445 64.0136 56.6159 63.7293 56.6195 63.4101C56.6584 60.9951 56.6596 58.578 56.4784 56.1677C57.3303 56.4375 58.1314 55.8815 58.8583 55.5026C59.8987 56.2103 61.1514 55.8926 62.2165 55.4173C63.8265 54.8182 65.4358 54.219 67.0451 53.6198C68.0166 53.329 69.1879 52.7721 69.0813 51.5889C71.0737 51.3748 73.0567 51.0961 75.0488 50.8738C76.0599 50.8664 77.6048 50.6027 76.8231 49.2731C81.9689 49.6075 86.4785 51.943 89.9144 55.6866C89.4108 56.1374 88.9135 56.5967 88.4016 57.0381C87.8232 57.5164 87.0347 57.0148 86.3733 56.9602C81.6361 55.9269 76.8317 55.0993 72.2789 53.3987C71.3339 52.9781 70.4248 52.4803 69.557 51.9178C69.1664 51.6645 68.8034 52.2842 69.1918 52.5359C71.6223 54.2302 74.5083 54.9191 77.2783 55.8439C79.3166 56.4892 87.4653 58.9729 88.8776 57.5928C90.4795 58.1762 92.229 57.6679 93.8756 57.5463C95.0492 57.6442 96.3042 57.9136 97.4847 57.8099C97.7105 59.0003 97.9384 60.1894 98.167 61.3791ZM68.462 97.4329C68.4086 97.4621 68.3544 97.4902 68.3012 97.5199C68.3081 97.504 68.3149 97.4881 68.3218 97.4724C68.3678 97.4584 68.4154 97.446 68.462 97.4329ZM99.1569 78.9652C99.3145 79.7503 99.4106 80.5387 99.6193 81.3147C98.8749 81.1016 96.8923 82.6861 96.0809 83.0383C95.0599 83.6155 94.036 84.1867 93.0092 84.7537C88.0874 87.4813 83.1221 90.1306 78.0781 92.6313C77.9478 92.1958 75.3577 94.1319 74.818 94.2439C72.8225 95.482 70.6118 96.344 68.4337 97.2133C69.2332 95.6923 69.6276 93.793 70.636 92.4606C73.9088 90.4779 77.2651 88.6339 80.601 86.7588C86.1956 83.6077 91.9841 80.7215 97.2547 77.0482C97.8796 76.8971 98.4867 76.9748 99.1005 77.1118C98.9241 77.7096 99.0358 78.3706 99.1569 78.9652ZM59.8878 135.107C59.8063 135.117 59.7248 135.126 59.6434 135.137C59.711 135.117 59.779 135.099 59.8474 135.082C59.8609 135.09 59.8743 135.099 59.8878 135.107ZM59.6195 133.934C59.5855 133.98 59.5623 134.03 59.5493 134.083C59.1892 133.864 58.8291 133.645 58.4689 133.426C58.6196 133.397 58.7702 133.367 58.9207 133.334C59.2141 133.269 59.1565 132.77 58.8483 132.805C58.0709 132.964 57.3528 132.881 56.736 132.363C57.6919 132.426 58.1329 131.262 58.5768 130.59C60.986 126.066 63.2303 121.458 65.8687 117.054C68.135 113.011 70.4192 108.977 72.6667 104.924C74.2987 102.288 75.5658 98.4748 72.9019 96.0552C82.0775 91.8344 91.239 87.3613 99.7995 82.0363C100.522 85.1834 101.597 88.2332 102.601 91.3011C87.9041 105.095 72.3954 118.323 59.6195 133.934ZM99.704 69.3368C99.9777 70.755 100.254 72.1743 100.526 73.5934C100.188 74.352 100.131 75.3575 99.4226 75.8892C99.1555 76.0273 98.8125 75.8348 98.5404 75.7882C97.9348 75.5942 97.2084 76.1073 96.6887 75.7318C96.3168 75.3465 96.3038 74.592 96.2336 74.0995C96.0115 72.541 95.811 70.9596 95.8559 69.3826C95.8286 66.7252 97.1827 64.458 98.3132 62.1387C98.7749 64.5383 99.2401 66.9372 99.704 69.3368ZM101.019 75.7646C101.039 75.8008 101.061 75.8362 101.084 75.8712C101.03 75.8946 100.977 75.9202 100.924 75.9481C100.957 75.8876 100.989 75.8266 101.019 75.7646ZM104.216 77.3713C104.228 77.4446 104.24 77.5177 104.253 77.5905C104.219 77.5042 104.185 77.4179 104.151 77.3317C104.171 77.3459 104.193 77.3591 104.216 77.3713ZM107.077 78.0568C113.498 80.0152 120.591 81.4014 127.275 80.1622C124.527 87.9392 118.714 94.0245 112.671 99.4713C112.021 98.5166 111.518 97.0619 110.314 96.7526C110.609 96.4359 110.54 95.8022 110.123 95.6135C108.418 89.4372 106.293 83.3724 104.704 77.1724C105.482 77.5001 106.277 77.7906 107.077 78.0568ZM128.723 47.7565C128.811 47.4951 129.23 47.6078 129.142 47.8708C127.255 54.348 125.474 60.8957 124.133 67.5038C124.195 67.958 123.478 68.0056 123.748 67.1095C125.165 60.6088 126.797 54.1283 128.723 47.7565ZM-46.5903 101.497C-46.8283 101.437 -47.0215 101.314 -47.1793 101.152C-47.0707 101.158 -46.96 101.146 -46.8551 101.115C-46.7254 101.32 -46.5236 101.482 -46.3124 101.544C-46.4065 101.536 -46.4991 101.521 -46.5903 101.497ZM-48.0129 95.5269C-48.1757 95.8354 -48.1902 96.2993 -48.2278 96.6307C-48.2437 96.7732 -48.2567 96.9164 -48.2661 97.0596C-48.3392 96.6142 -48.4188 96.1697 -48.5223 95.7309C-48.3522 95.6608 -48.1829 95.5927 -48.0129 95.5269ZM12.0412 78.9855C21.1702 80.3662 24.9591 80.5489 27.6803 80.7937C22.077 81.2146 9.33019 79.6654 9.41317 78.9229C9.41317 78.6476 11.6913 78.9325 12.0412 78.9855Z" fill="black"/>
</g>
<defs>
<clipPath id="clip0_38_114">
<rect width="111" height="135" fill="white"/>
</clipPath>
</defs>
</svg>
