<svg width="113" height="136" viewBox="0 0 113 136" fill="none" xmlns="http://www.w3.org/2000/svg">
<g clip-path="url(#clip0_38_139)">
<path fill-rule="evenodd" clip-rule="evenodd" d="M60.5633 60.7688C60.7282 62.4805 60.391 64.1151 59.5877 65.4971L59.3263 65.9467L59.8237 66.1198C60.7291 66.4347 61.7358 66.5878 62.9016 66.5878C64.1014 66.5878 65.349 66.4217 66.3515 66.288L66.9934 66.2026L66.6781 65.648C66.4245 65.2023 66.3776 64.6621 66.3279 64.0903C66.3145 63.9367 66.3007 63.7779 66.2826 63.6207C65.3327 55.1749 64.132 46.6189 62.9708 38.3446C62.6652 36.1673 62.3492 33.9158 62.0427 31.7011L61.1635 31.7348C60.9269 35.8341 60.6974 40.0027 60.4754 44.0341C60.3778 45.8069 60.2802 47.5797 60.1818 49.3522C59.8309 53.8335 59.9521 57.4621 60.5633 60.7688ZM60.9221 111.415C59.6308 111.415 58.3371 111.281 57.0769 111.018C53.1335 110.194 49.5508 108.251 46.5023 106.495C46.3467 106.407 46.1888 106.32 46.0266 106.229C44.8331 105.565 43.3478 104.739 42.417 103.73C41.3959 102.624 41.2201 101.522 41.864 100.262L41.9659 100.063L41.8595 99.8655C41.1927 98.6311 41.2423 97.1038 41.98 96.1516L42.5999 95.3514L41.5807 95.459C40.5529 95.5675 39.517 95.7145 38.5152 95.8566C37.4037 96.0144 36.2542 96.1775 35.1221 96.2866L34.8075 96.317L34.7352 96.6185C34.6949 96.7864 34.6452 96.8883 34.2959 96.8883C33.9931 96.8883 33.5861 96.8001 33.1554 96.7068C32.6208 96.591 32.0148 96.4597 31.4305 96.4597C31.1735 96.4597 30.9424 96.484 30.7237 96.5342L30.5965 96.5633L30.506 96.6556C30.4481 96.7146 30.3495 96.7512 30.2488 96.7512C30.1727 96.7512 30.102 96.7301 30.0548 96.6933L29.912 96.5822L29.7309 96.602C26.5749 96.9467 23.8536 97.5517 21.4116 98.4513L21.4006 98.4554L21.3476 98.4781C20.4646 98.8572 19.5517 99.2492 18.7203 99.2492C18.1125 99.2492 17.6189 99.0435 17.1669 98.6019L17.0392 98.4773L16.859 98.4755C15.0308 98.4588 14.1955 96.3382 14.08 94.9169L14.0655 94.7379L13.9261 94.6215C10.74 91.9618 8.85906 88.309 8.17561 83.4542C7.55315 79.0322 8.03108 74.3698 8.58068 70.3921C9.85204 60.0839 11.1781 50.8431 14.5488 42.0788L14.7063 41.6691L14.2866 41.5191C12.8308 40.9987 11.7182 40.3779 10.8851 39.621L10.8274 39.5684L10.7548 39.5388C9.56085 39.0508 8.97611 37.2497 8.82532 36.7093L8.81324 36.6657L8.79217 36.6256C8.54857 36.1607 8.49236 35.5141 8.63807 34.8515L8.65368 34.7801L8.64462 34.7075C8.56595 34.0784 8.82709 33.4206 9.10355 32.7242C9.22988 32.4061 9.36041 32.0772 9.45581 31.7497C9.78376 30.8137 10.1113 29.8611 10.4282 28.9397C11.1392 26.8726 11.8743 24.7351 12.6574 22.6558L12.7646 22.3714L12.5286 22.1754C12.1258 21.8407 12.2603 21.4468 12.8412 20.5048C12.9784 20.2823 13.1082 20.0718 13.2069 19.8644C13.9514 18.5847 14.7493 17.3562 15.5789 16.2127L15.596 16.1892L15.6097 16.1638C19.8666 8.25526 27.4177 3.89988 36.8717 3.89988L37.0644 3.90024L37.1709 3.8365C38.9428 2.77659 40.2077 0.957944 41.0378 -1.72324L41.0643 -1.80872L41.0541 -1.89751C41.0257 -2.14462 40.9945 -2.46862 41.0052 -2.78301C41.0322 -3.57921 41.346 -4.28971 41.8659 -4.73239C42.8523 -5.57226 44.3498 -5.64258 45.7992 -5.64258H46.0073C47.8603 -5.63695 49.1685 -5.31692 50.1243 -4.63493C51.2349 -3.84256 51.8486 -2.56348 52.0007 -0.724619C52.0462 -0.174377 52.0446 0.395646 52.0432 0.946898L52.0429 1.10074L52.0615 1.16181C52.1947 1.59886 52.3507 2.01879 52.5252 2.41007L52.7046 2.81261L53.1127 2.63112C53.3766 2.51381 53.7112 2.45346 54.1358 2.44667C54.2582 2.44386 54.3777 2.44256 54.4981 2.44256C55.4839 2.44256 56.5385 2.53207 57.5584 2.61863C58.3269 2.68389 59.1216 2.75139 59.8908 2.78135L59.9013 2.78178C59.9013 2.78178 60.0075 2.78113 60.0552 2.78113C61.9247 2.78113 63.28 3.07358 64.3202 3.70157C65.4402 4.37764 66.2456 5.46275 66.8546 7.11644C70.121 16.5954 71.4639 26.8055 72.6484 35.8133C73.3202 40.5239 73.5246 45.3531 73.7222 50.0232C73.9309 54.9526 74.1466 60.0498 74.9104 65.0324L74.9708 65.4263L75.3763 65.4002C77.1613 65.2857 79.0902 65.0388 81.1323 64.7775C84.235 64.3805 87.4433 63.97 90.5449 63.97C94.8814 63.97 98.1695 64.8188 100.595 66.5645C102.286 68.1498 103.161 70.2961 103.125 72.7731C103.075 76.2729 101.214 80.1423 98.3844 82.6306L98.3738 82.6404C94.7976 86.001 88.2698 88.9158 78.9718 91.3038C70.4217 93.4997 61.5776 94.6931 57.0667 95.2089L55.9502 95.3367L56.8564 95.9884C57.2232 96.2522 57.5579 96.4845 57.8795 96.6985L58.0871 96.8365L58.3144 96.7328C58.9626 96.4371 59.3743 96.375 59.6057 96.375C59.811 96.375 60.0587 96.4194 60.0723 96.6307C60.0812 96.7691 59.9822 96.9746 59.7732 97.0006L58.6635 97.1383L59.5696 97.7811C60.1748 98.2105 61.0778 98.728 62.1235 99.3273C65.5443 101.288 70.714 104.251 69.8249 106.853L69.7666 107.024L69.8492 107.185C70.0881 107.651 70.1085 108.083 69.9114 108.507C69.4893 109.415 68.1689 110.104 67.0475 110.385L67.0283 110.39L67.0095 110.396C65.0583 111.072 63.0101 111.415 60.9221 111.415Z" fill="white"/>
<mask id="mask0_38_139" style="mask-type:luminance" maskUnits="userSpaceOnUse" x="7" y="-4" width="97" height="116">
<path d="M7.36621 -3.95703H103.493V111.818H7.36621V-3.95703Z" fill="white"/>
</mask>
<g mask="url(#mask0_38_139)">
<path fill-rule="evenodd" clip-rule="evenodd" d="M67.4009 66.0924C67.63 64.8495 67.1954 63.5661 67.1202 62.3145C65.9828 53.3873 64.7269 44.466 63.0628 35.6168C62.6547 33.4991 62.2423 31.39 61.7693 29.2838C61.8408 28.0084 61.9034 26.733 61.9447 25.4568C64.254 24.0125 66.858 23.0778 69.5511 22.6065C70.2789 26.6398 71.006 30.6703 71.5106 34.7398C73.0833 44.8125 72.1861 55.062 73.7117 65.1231C71.5953 65.3591 69.4952 65.7084 67.4009 66.0924ZM71.463 73.9396C69.8715 74.3606 68.2785 74.7633 66.6742 75.1348C63.8195 75.7959 60.9655 76.4597 58.118 77.1504C56.6967 77.4951 55.2723 77.8295 53.854 78.1854C53.1809 78.3544 52.5122 78.5421 51.8536 78.7595C51.5249 78.8681 51.2036 78.9926 50.8825 79.1205C50.6011 79.2325 50.3356 79.3869 50.0262 79.3649C50.0078 79.3636 49.9963 79.3458 50.0053 79.3293C50.1672 79.0333 50.5007 78.8929 50.7951 78.7433C51.1197 78.5783 51.458 78.4367 51.7965 78.3015C52.5486 78.0012 53.3318 77.7807 54.113 77.5668C56.9523 76.7895 59.816 76.0932 62.6767 75.3964C65.5511 74.6964 68.4256 74.026 71.3381 73.4959C71.6315 73.4425 71.7584 73.8615 71.463 73.9396ZM57.365 97.873C57.4924 97.8391 57.6205 97.808 57.7481 97.7785C59.79 99.4696 69.4067 103.861 68.6753 106.484C68.4168 106.81 67.798 106.885 67.4067 106.99C66.7254 107.173 66.0373 107.332 65.3428 107.458C63.0974 107.864 60.7719 107.935 58.5295 107.471C57.7046 107.347 56.9598 106.997 56.2085 106.658C53.7805 105.596 51.1065 104.422 48.6903 103.368C45.6207 102.158 40.2367 99.772 42.4511 95.7466C44.549 98.0938 47.2119 97.8889 48.5534 94.9714C49.016 94.0858 49.4196 92.8919 50.5061 92.5339C51.0793 92.1485 51.8122 92.0684 52.291 92.4978C52.3257 92.4444 52.3566 92.3694 52.3735 92.3029C52.9134 93.0673 53.379 93.8721 54.0118 94.5708C53.7945 94.5824 51.533 96.2475 52.2004 96.2483C53.0034 95.8369 53.8012 95.494 54.6681 95.2724C55.2965 95.901 55.9875 96.4857 56.7035 97.0263C56.0081 97.4832 55.3834 98.0426 54.8811 98.6497C54.8376 98.7031 54.8906 98.7724 54.9555 98.7434C55.7356 98.3977 56.5378 98.0938 57.365 97.873ZM67.7162 109.215C59.9056 112.705 51.6368 108.819 44.9762 104.676C43.4389 103.822 41.4168 102.612 41.7276 100.601C42.8599 102.249 44.7265 103.188 46.518 104.001C49.5279 105.354 52.5576 106.664 55.575 108.001C55.86 108.942 57.2228 108.978 58.0464 109.186C61.7126 109.894 65.6536 109.542 69.104 108.132C68.9043 108.72 68.251 108.99 67.7162 109.215ZM36.5535 95.6261C36.3606 95.6506 36.1675 95.6729 35.9746 95.6947C35.9944 95.4406 35.8405 95.1865 35.593 95.1078C35.7042 94.5693 35.7454 94.0128 35.6858 93.4665C36.0084 94.2958 37.05 94.0439 37.7115 93.8049C38.6566 93.5494 39.5959 93.2745 40.5299 92.9814C40.8982 93.6621 41.2886 94.3326 41.7682 94.949C40.0223 95.1035 38.2928 95.4103 36.5535 95.6261ZM35.7852 93.0174C35.7388 93.115 35.6725 93.2182 35.6711 93.3351C35.6239 92.9316 35.5318 92.5331 35.3919 92.1513C35.5229 92.44 35.6541 92.7287 35.7852 93.0174ZM34.6832 90.8543C33.8242 89.7406 32.2369 88.8304 30.7695 89.1407C30.6751 89.161 30.6729 89.3118 30.7695 89.3306C32.7406 89.5969 34.4717 91.1523 34.5403 93.1633C34.6957 94.0735 34.0593 94.9671 34.2737 95.8405C34.2309 95.8434 34.1882 95.8455 34.1462 95.8484C34.1308 95.9069 34.1167 95.9588 34.0983 96.0043C34.3112 96.0396 34.3738 96.3804 34.1226 96.441C33.9739 96.4771 33.8183 96.4959 33.66 96.5038C32.8564 96.288 32.0085 96.2381 31.2401 95.9191C30.48 95.5849 30.67 94.6459 30.4018 93.9956C30.2052 93.2455 29.979 92.4986 29.694 91.7789C29.6734 91.7211 29.5945 91.7342 29.5879 91.7926C29.3868 93.2283 29.3934 94.6885 29.4421 96.1356C29.1784 96.1624 28.9161 96.192 28.6531 96.2245C28.6701 95.8202 27.4509 90.8954 26.8086 92.1593C27.132 93.5488 27.171 95.0003 27.2056 96.4302C25.2985 96.7427 23.4193 97.2083 21.591 97.842C20.3026 98.2303 18.7703 99.3794 17.5196 98.3407C16.5509 97.5439 16.2246 96.1536 16.3159 94.9707C17.5755 87.9715 27.5246 87.1537 33.3977 87.6712C33.9525 88.9444 34.5175 90.2134 35.0899 91.4794C34.9713 91.2614 34.8357 91.0521 34.6832 90.8543ZM14.6519 94.8343C14.5443 93.2449 14.8131 91.2665 15.997 90.0819C18.7063 87.8033 22.5 87.0865 25.8856 86.2615C27.4627 85.9519 29.0612 85.7462 30.6663 85.6437C31.2358 85.5989 31.9592 85.7273 32.3613 85.264C32.5684 85.7519 32.7782 86.2391 32.9882 86.7264C26.248 85.8479 12.1856 88.8996 16.1236 98.0844C15.2897 97.1858 14.7373 96.0916 14.6519 94.8343ZM9.94625 65.4139C10.1348 64.0497 10.341 62.687 10.5591 61.3264C11.4505 54.8187 13.2928 48.485 14.3911 42.0213C16.2923 42.6363 18.2393 43.1047 20.159 43.6583C15.9992 50.5399 12.5967 57.8474 9.94625 65.4139ZM25.5661 59.0105C25.2004 57.281 24.7902 55.5186 24.6038 53.7605C24.5954 53.6815 24.7176 53.6731 24.7394 53.7425C25.0449 54.7161 25.253 55.7254 25.5107 56.7125C25.7693 57.703 26.0098 58.698 26.2644 59.6895C26.3458 60.0062 26.4273 60.3226 26.5089 60.6391C26.5578 60.6412 26.6066 60.6429 26.6551 60.644C26.8417 60.6483 26.8976 60.8812 26.7475 60.9781C26.7037 61.0064 26.6598 61.0313 26.6157 61.0534C27.3955 64.0707 28.1946 67.0811 29.0666 70.0753C30.0827 73.5644 31.2267 77.0115 32.141 80.5288C32.1622 80.6102 32.1243 80.667 32.0689 80.6917C32.5445 82.2921 32.943 83.9137 33.3778 85.5264C33.4683 85.8622 32.9697 86.0798 32.7993 85.7654C32.5368 85.2811 32.4788 84.6194 32.3504 84.0873C32.2056 83.4879 32.0681 82.8871 31.9308 82.2861C31.7124 81.3301 31.5164 80.3624 31.3549 79.393C30.7529 77.8886 30.2138 76.366 29.7368 74.8148C28.6684 71.3407 27.683 67.8428 26.8058 64.3175C26.5468 63.2769 26.2929 62.2349 26.0507 61.1903C24.948 61.2072 23.7957 59.9662 22.6876 60.6269C22.6364 60.6575 22.5844 60.5879 22.6248 60.5472C23.0666 60.1019 23.6772 60.0631 24.2704 60.1733C24.6558 60.2449 25.0254 60.3807 25.4028 60.4831C25.5691 60.5282 25.7397 60.5612 25.9123 60.5859C25.7933 60.0615 25.6773 59.5365 25.5661 59.0105ZM49.3239 91.7566C48.7603 92.1232 48.3007 92.6652 47.9766 93.2478C45.8992 98.654 43.6776 95.7582 40.9173 92.8573C43.2532 91.9803 46.3471 91.3235 48.1386 89.5803C48.4488 90.3512 48.8281 91.0853 49.3239 91.7566ZM48.5807 78.5694C48.4003 77.68 48.2516 76.785 48.1164 75.888C47.9866 75.0277 47.7838 74.1061 47.8169 73.2352C47.8181 73.2005 47.8673 73.1944 47.8779 73.2271C48.1587 74.0952 48.2429 75.0552 48.421 75.9494C48.5933 76.8137 48.7826 77.6748 48.9733 78.5354C49.3649 80.3022 49.9186 82.0418 50.2538 83.8192C50.2898 84.0096 50.0311 84.0764 49.9608 83.8984C49.2897 82.1988 48.9419 80.3515 48.5807 78.5694ZM10.5878 38.4917C9.68033 37.5195 8.96719 36.278 9.10501 34.9607C9.65012 34.2375 9.8306 33.2941 10.1481 32.4582C11.3893 28.9604 12.5414 25.4358 13.8923 21.9756C16.766 22.8548 19.5932 23.9093 22.2599 25.2944C22.7504 25.5434 23.2359 25.8018 23.7155 26.0696C24.2178 26.3497 24.7659 26.8362 25.3684 26.6969C24.7099 27.6244 23.3538 28.5894 23.1246 29.6613C23.0753 30.0005 23.3169 30.3152 23.6882 30.2394C29.4994 34.3457 35.5009 38.3654 40.9939 42.9393C45.1073 46.1788 48.2653 48.8062 49.676 54.0623C50.627 57.467 50.6299 61.0254 50.49 64.5261C50.4627 65.2067 50.462 65.9033 50.4067 66.5883C50.4892 67.1008 50.3323 68.1438 49.7533 68.1625C49.7665 68.2867 49.8078 68.4014 49.8734 68.5025C49.855 68.527 49.8358 68.5501 49.816 68.574C49.7872 68.4339 49.7592 68.2946 49.7326 68.1546C49.2819 66.1682 49.2215 63.8635 49.2965 61.7487C49.3282 61.1424 48.3935 61.1568 48.3412 61.7487C48.2005 63.3474 48.0597 64.9462 47.9191 66.5443C47.7504 67.58 48.0163 68.9349 47.1839 69.7223C46.3376 68.9442 46.6174 67.4097 46.6587 66.4057C46.7249 64.7679 46.7965 63.1309 46.8576 61.4931C46.8768 60.9742 46.0126 60.8406 45.9147 61.3683C45.637 62.8725 45.3365 64.3724 45.013 65.8679C44.8179 66.4461 44.6837 69.0402 43.7085 68.5898C43.1272 68.195 43.5464 65.8802 43.4698 65.1137C43.5059 63.5965 43.5272 62.0814 43.6393 60.5678C43.6849 59.9572 42.6852 59.8272 42.5483 60.4234C42.3258 61.3885 42.1129 62.3535 41.9199 63.3251C41.4964 64.9628 41.6503 67.1831 40.1211 68.2715C39.5222 64.0173 40.384 59.7926 40.5049 55.5535C40.4326 54.1799 40.1955 52.8201 39.9863 51.4631C39.755 49.9625 39.6202 48.3291 40.1616 46.8819C40.0135 46.2337 39.4316 47.9869 39.377 48.1327C38.9388 47.2738 37.8714 47.2074 37.0272 46.9396C35.151 46.3355 33.229 45.88 31.3308 45.343C26.2966 43.9521 21.2565 42.5828 16.215 41.2165C14.2011 40.6621 12.081 40.006 10.5878 38.4917ZM60.9996 61.1207C60.3049 57.3752 60.3241 53.5801 60.6209 49.7936C60.9473 43.9211 61.2639 38.0471 61.6029 32.1753C63.0739 42.803 64.6422 53.4184 65.8414 64.0801C65.9268 64.8221 65.9137 65.6074 66.2901 66.2693C64.2098 66.5464 61.9925 66.8258 59.9697 66.122C60.8574 64.5954 61.1705 62.8573 60.9996 61.1207ZM15.8481 17.6932C19.3546 10.5323 26.5043 5.44868 34.5226 4.34C34.5315 4.34866 34.5411 4.35732 34.5499 4.36671C34.5234 4.39052 34.4991 4.41651 34.477 4.44322C34.6927 4.28514 34.9889 4.48364 34.8932 4.70227C35.0118 4.97157 35.0994 5.24874 35.2091 5.52013C35.2556 5.5158 35.3027 5.51147 35.3498 5.50425C35.8257 6.44403 36.0835 7.52744 36.5807 8.46433C39.3019 13.1546 46.0171 15.0586 51.0542 13.1653C55.0512 11.4425 55.6184 6.53642 55.2604 2.76504C55.2419 2.51097 55.1124 2.33124 54.9392 2.22514C57.119 2.57232 59.2987 2.92239 61.4806 3.25225C62.5317 3.41105 63.6117 3.64058 64.4234 4.35877C67.6182 7.62922 68.1883 16.4301 69.2631 21.0055C66.6916 21.2733 63.8172 22.7313 61.9741 24.499C62.0611 22.4895 61.9365 20.4902 61.7037 18.4951C61.7 18.3977 61.5366 18.3645 61.5211 18.4713C61.0607 20.4938 60.7064 22.5336 60.5605 24.6058C59.9542 32.9447 59.5941 41.3002 59.0747 49.6449C58.8972 52.7161 58.6755 55.8141 59.1152 58.8745C60.531 65.175 58.0346 68.2672 51.3342 67.2199C52.1481 59.2354 51.5581 50.0996 44.8363 44.5634C44.6314 44.3816 44.3855 44.3938 44.1991 44.5021C38.734 39.8826 32.9661 35.6038 26.827 31.8778C26.8712 31.1078 24.9346 30.4271 24.3924 29.8959C26.4056 27.8214 27.9386 25.2995 29.2755 22.7631C29.3934 22.4874 30.9307 19.7128 30.4416 19.8875C28.9809 22.0406 27.5283 24.2074 25.8082 26.1779C25.9018 25.2692 23.535 24.6599 22.8064 24.2449C19.9917 23.0655 17.0489 22.1423 14.0162 21.6644C14.562 20.3126 15.1587 18.9809 15.8481 17.6932ZM53.3047 3.08769C53.2126 2.93106 53.1249 2.77082 53.0409 2.60841C53.3253 2.61924 53.6023 2.62935 53.8821 2.67554C53.8697 3.12377 53.8946 3.57562 53.8999 4.02746C53.7598 3.69688 53.4859 3.39517 53.3047 3.08769ZM100.804 66.2094C94.087 61.3502 83.0536 64.446 75.2719 64.9455C73.7883 55.2684 74.3938 45.4332 73.0111 35.7402C71.7375 26.0566 70.3946 16.2381 67.1961 6.96011C65.8761 3.37279 63.5925 2.30742 59.8327 2.3363C57.9248 2.26195 55.9072 1.95808 54.0531 2.00138C53.6465 2.00788 53.2214 2.06129 52.8546 2.22442C52.3389 1.0681 52.0589 -0.173383 51.9176 -1.42425C51.9087 -1.50365 51.8071 -1.51809 51.7768 -1.4423C51.3407 -0.35311 51.2944 0.835686 51.5315 1.97612C51.7031 2.79319 52.7249 6.00879 53.9116 4.7507C54.0059 7.38886 53.4232 10.5395 50.8251 11.9087C46.2853 13.8778 40.0098 12.0849 37.3801 7.90566C36.8718 7.07055 36.4334 6.18195 35.8707 5.3801C39.7918 4.27576 41.9928 -0.397862 41.0691 -3.95703C40.4982 -1.18895 39.4573 1.90394 36.8651 3.45436C27.4258 3.43342 19.5778 7.71006 15.1432 15.9472C14.2755 17.1432 13.4733 18.3861 12.738 19.6507C12.3425 20.4966 11.1838 21.6732 12.1671 22.4902C11.0313 25.5059 10.0236 28.5634 8.95842 31.6029C8.6659 32.6156 7.99704 33.6781 8.13044 34.7427C7.98606 35.3988 7.99269 36.1748 8.32344 36.8056C8.63725 37.9302 9.3414 39.443 10.509 39.9201C11.4998 40.8202 12.7528 41.4402 14.0596 41.9072C10.5745 50.9672 9.24792 60.7381 8.06709 70.3106C6.90976 78.6849 6.31242 88.8715 13.5638 94.9237C13.7046 96.6554 14.7373 98.8619 16.7793 98.8807C18.1936 100.262 19.9173 99.5042 21.4916 98.8287C24.1486 97.8499 26.9353 97.3072 29.7043 97.0047C30.0012 97.2357 30.4844 97.1974 30.7488 96.9282C32.4262 96.5435 34.7509 98.1011 35.0899 96.69C37.2525 96.4814 39.3917 96.0902 41.5524 95.862C40.6418 97.0372 40.7074 98.7702 41.3932 100.04C39.6466 103.458 43.7151 105.437 46.2027 106.839C49.561 108.774 53.0682 110.609 56.9089 111.411C60.2857 112.118 63.8231 111.903 67.0812 110.774C68.7931 110.346 71.1842 108.941 70.1684 106.961C71.4561 103.193 62.4132 99.2892 59.7532 97.4024C60.8404 97.2674 60.8802 95.0227 58.0523 96.3125C57.7105 96.0851 57.3746 95.8505 57.0424 95.6117C68.4808 94.3038 90.3258 90.7056 98.6041 82.9276C103.152 78.9281 105.776 70.8382 100.804 66.2094Z" fill="black"/>
</g>
</g>
<defs>
<clipPath id="clip0_38_139">
<rect width="113" height="136" fill="white"/>
</clipPath>
</defs>
</svg>
