<svg width="111" height="136" viewBox="0 0 111 136" fill="none" xmlns="http://www.w3.org/2000/svg">
<g clip-path="url(#clip0_38_126)">
<path fill-rule="evenodd" clip-rule="evenodd" d="M25.6477 60.6574C24.2116 64.2901 22.4925 68.4137 20.911 71.9523C21.0376 73.0735 21.513 74.2201 21.141 75.3429C22.7802 74.2632 24.6231 73.5853 26.5043 73.0729L26.6101 73.7904C26.8195 73.7835 27.1968 73.7798 27.4088 73.7769C27.3758 73.4915 27.3311 72.9827 27.3108 72.6951L27.3101 72.6954C27.0478 69.6033 27.5379 66.4377 28.1366 63.416C28.2826 62.3257 27.9262 60.632 26.5693 60.604C26.3675 60.6351 26.0353 60.0826 25.913 59.9756L25.6477 60.6574ZM44.6257 102.448C37.7889 102.836 33.8796 97.171 30.5742 91.871C30.2263 92.1044 29.8407 92.3655 29.4893 92.5766C28.9487 93.4563 27.8481 93.723 26.8981 93.8206C23.5118 93.9959 22.7864 90.9165 21.9458 88.2675C21.7856 88.3812 21.4275 88.9603 21.1582 88.8333C19.6375 88.4919 18.1571 88.0839 16.5449 88.1858C14.6946 87.7858 5.10617 92.0625 5.99113 88.3328C6.42334 86.7108 8.80217 85.9423 10.0274 84.8227C11.809 82.77 11.3751 80.129 12.2262 77.6847C12.9338 75.2325 13.7606 72.9224 15.2907 70.6683C15.4288 62.2428 15.7404 51.9308 17.8942 44.4377C19.2674 39.1791 20.9687 33.7424 20.3148 28.2242L19.9433 28.2142C19.7809 28.1209 19.5312 28.0506 19.3318 28.0816C19.1637 27.8933 18.8519 27.9506 18.6234 27.8743C18.2116 23.9769 18.0527 20.6411 18.5754 17.1053C19.0608 11.2671 22.6989 8.87905 28.0127 7.60749C33.8523 5.66781 37.8146 3.6909 40.8401 -1.13234C41.4124 -2.11116 41.7601 -3.27009 42.5225 -4.0954C44.4157 -6.52185 49.8602 -6.12184 51.2663 -3.56693C51.8804 -2.07232 51.9332 -0.327917 52.4003 1.2259C54.2366 7.82541 62.6822 7.0481 67.1534 10.6565C69.1217 12.1346 69.7559 14.4167 70.0111 16.7396C70.3326 19.6608 70.9468 22.4735 70.868 25.3769C71.0735 25.4163 71.5437 25.2681 71.6233 25.5663C71.4363 26.1935 69.0386 26.1913 68.37 26.3022C69.2495 31.0186 68.4519 35.7547 69.1587 40.4861C70.2484 45.8019 72.3924 50.7388 74.0762 55.8744C74.7243 57.5716 75.1582 59.391 76.1222 60.9366L76.1049 60.95C76.2573 61.2064 76.4245 61.4557 76.5981 61.6959C76.7766 61.7611 76.9629 61.8674 77.1392 61.9327L77.1785 61.8657L77.2737 61.9952L77.5534 61.8755C77.9644 62.0835 78.4107 62.3245 78.849 62.5778C84.2367 65.8887 87.7623 69.2483 91.9864 73.4085L91.426 73.8689C91.6299 74.1564 91.8771 74.5369 92.0753 74.84C92.2407 74.6921 92.5938 74.4431 92.7973 74.3576C96.3989 78.6934 96.8393 86.209 95.0851 90.7778C94.5272 92.1469 93.6444 93.2709 92.5784 94.2177C92.1381 94.8879 91.3469 95.8135 90.3358 96.258C90.3358 96.258 90.2083 96.4408 90.204 96.4469C90.15 96.4543 89.8189 96.5313 89.7995 96.6094C87.1082 97.0689 84.4094 98.2684 81.6205 98.2858C77.0718 98.2456 73.1632 94.5058 69.5149 92.0359C67.2071 90.3692 64.518 89.2243 62.0259 88.11C62.2118 89.0706 62.1589 89.4001 61.1275 89.7634C60.2088 90.1336 59.1035 89.8441 58.2488 89.4373C58.2711 91.0296 58.3964 92.6196 58.3532 94.3178C58.3529 96.3735 58.4206 98.9011 56.2333 99.8501C52.5085 101.336 48.2999 102.403 44.6257 102.448Z" fill="white"/>
<path fill-rule="evenodd" clip-rule="evenodd" d="M41.2792 -3.17062C41.5715 -3.73704 42.455 -3.33842 42.2835 -2.74195C41.8465 -1.2236 40.7973 0.211796 39.785 1.39374C38.7669 2.58234 37.5722 3.61407 36.2864 4.49624C36.1453 4.97986 36.1756 5.44516 36.3667 5.91706C36.4398 6.09732 36.3638 6.23434 36.2379 6.30403C36.3667 6.78757 36.4463 7.29179 36.5809 7.77167C36.9318 9.02322 37.4948 10.2214 38.2307 11.2883C39.5549 13.2088 41.4297 14.6743 43.6967 15.2393C45.9196 15.7933 48.369 15.4752 50.3003 14.1972C52.0398 13.0461 53.2822 11.2391 53.4863 9.11848C53.5811 8.12925 53.4928 7.1371 53.2663 6.17206C53.1462 5.66059 52.9914 5.15792 52.809 4.66631C52.6165 4.14818 52.3589 3.6543 52.2171 3.12012C52.2041 3.07109 52.2005 3.022 52.2041 2.97356C51.9226 2.51119 51.8322 1.93158 51.9979 1.39667C52.0058 1.37036 52.0159 1.34611 52.0282 1.3242C52.0174 1.23326 52.0065 1.14167 51.9979 1.05007C51.9617 0.685891 51.9733 0.329111 51.9559 -0.032872C51.9385 -0.380273 51.8763 -0.686566 51.8987 -1.03536C51.9016 -1.08079 51.9559 -1.09391 51.9812 -1.05727C52.2069 -0.731115 52.247 -0.426821 52.3609 -0.0612835L52.3734 -0.0218805C52.4993 0.370145 52.5977 0.7599 52.7026 1.15852C52.8647 1.77631 53.0927 2.35812 53.4328 2.89816C54.0283 3.84196 54.8524 4.60615 55.7736 5.21734C59.3351 7.57822 63.9177 7.64563 67.3056 10.3576C68.1204 11.0097 68.8273 11.8268 69.3034 12.7654C69.8965 13.934 70.1065 15.2194 70.2923 16.5042L70.3237 16.7223C70.5379 18.2171 70.7304 19.7156 70.8975 21.2163C70.9807 21.9609 71.0574 22.7068 71.1284 23.4527C71.1754 23.9467 71.2962 24.4889 71.2383 24.9886C71.3035 24.9894 71.3679 24.9966 71.4315 25.0149C71.7051 25.0912 71.9308 25.2993 71.9402 25.5982C71.9636 26.3753 70.8654 26.4584 70.3059 26.5524L70.2723 26.5581C69.7745 26.6453 69.2723 26.7135 68.768 26.7509C68.9467 27.7291 69.0118 28.7242 69.0625 29.7222C69.1113 30.6793 69.1286 31.6395 69.1409 32.5991L69.1552 33.7761C69.1802 35.9983 69.1058 38.2602 69.4699 40.4593C69.7842 42.3608 70.3799 44.1951 70.9979 46.0152L71.2571 46.7764C72.0082 48.9814 72.7528 51.1884 73.5278 53.3844C73.9156 54.4828 74.3013 55.5827 74.6877 56.6819C74.8809 57.2314 75.072 57.7817 75.2673 58.3306C75.339 58.5306 75.42 58.73 75.4924 58.9307C75.5264 58.9681 75.5553 59.012 75.5734 59.0663C75.7579 59.6209 75.9996 60.1478 76.2883 60.6483C76.6371 60.9179 76.9743 61.1891 77.2949 61.4932C77.2977 61.4953 77.2992 61.499 77.3014 61.5019C77.3904 61.4638 77.4953 61.4602 77.6046 61.5151C78.0532 61.7416 78.4946 61.9819 78.9295 62.231C78.9345 62.2332 78.9389 62.2347 78.9432 62.2369C78.9447 62.2384 78.9454 62.2398 78.9461 62.2414C81.6213 63.7772 84.0511 65.719 86.3804 67.7472C87.5634 68.7775 88.7357 69.8231 89.892 70.8842C90.9882 71.8903 92.0592 72.9322 92.9933 74.0967C93.9217 75.2537 94.701 76.5162 95.222 77.915C95.777 79.4052 96.039 80.991 96.212 82.5691L96.2227 82.6677C96.5201 85.4434 96.4594 88.3898 95.3674 90.9956C94.8211 92.2991 94.0078 93.4591 92.9557 94.3941C92.9116 94.4337 92.866 94.471 92.8211 94.5099C92.2263 95.4016 91.4426 96.2054 90.507 96.6525L90.4017 96.8037L90.3486 96.8789L89.9817 96.9741L89.947 97.0092C89.8268 97.1287 89.6829 97.1367 89.5642 97.0833L88.2878 97.4162L87.0113 97.7487C85.308 98.1934 83.5836 98.6997 81.8144 98.7657C80.1567 98.8279 78.5662 98.3854 77.0698 97.69C75.6118 97.013 74.2717 96.1007 72.9569 95.1766C71.6783 94.2782 70.4207 93.3492 69.1479 92.4412C68.6978 92.1203 68.2455 91.8052 67.7889 91.4968C67.6888 91.4439 67.5896 91.3916 67.4909 91.3429L67.417 91.307C66.9582 91.0878 66.5147 90.8307 66.0632 90.5969C65.1601 90.1287 64.2426 89.6875 63.3222 89.2553C63.0284 89.1168 62.7303 88.9848 62.4307 88.8566C62.4416 88.9468 62.4408 89.0384 62.4271 89.1248C62.3374 89.7176 61.6572 90.0305 61.1651 90.2203C60.7527 90.38 60.2954 90.4365 59.8554 90.4137C59.4176 90.391 58.9741 90.3024 58.566 90.1352C58.566 90.1389 58.566 90.1418 58.5667 90.1455C58.6457 91.3276 58.6773 92.5148 58.6735 93.6999L58.6713 94.1056C58.666 95.2702 58.6812 96.4838 58.4379 97.6226C58.1774 98.8419 57.4096 99.7681 56.3004 100.294C55.3283 100.756 54.2702 101.057 53.2408 101.368L53.0283 101.433C50.7858 102.12 48.4877 102.659 46.149 102.861C43.9326 103.052 41.6214 102.89 39.5324 102.07C37.2914 101.189 35.4933 99.645 34.0041 97.7574C32.818 96.2538 31.7494 94.6521 30.6871 93.0514L30.3377 92.5248C30.1293 92.6648 29.918 92.801 29.7038 92.9329C29.6329 93.0751 29.5308 93.2034 29.3847 93.3221C29.1466 93.5162 28.8984 93.6914 28.6235 93.8269C28.0489 94.1098 27.444 94.2672 26.8065 94.3054C25.6249 94.375 24.4005 93.9522 23.5394 93.1241C22.42 92.0463 22.14 90.5229 21.6516 89.1248C21.4815 89.3007 21.2261 89.3556 20.9707 89.3131C20.2029 89.1886 19.4634 88.9277 18.6921 88.8053C17.9497 88.6866 17.1906 88.6507 16.4395 88.6712C15.0027 88.7106 13.637 89.058 12.2627 89.4501L11.9053 89.5526C10.6575 89.9099 9.3905 90.2533 8.0899 90.3148L7.92849 90.3219C7.31095 90.3465 6.56513 90.3431 6.0262 90.0605C5.34457 89.703 5.23313 88.9197 5.46324 88.2366C5.79392 87.2519 6.54574 86.5784 7.38511 86.0274C8.12101 85.5446 8.98933 85.1437 9.61235 84.5487C10.426 83.771 10.6609 82.5935 10.8575 81.523L10.8656 81.4784C11.103 80.18 11.3497 78.8918 11.6898 77.616C12.0292 76.3425 12.4684 75.0983 12.985 73.8878C13.4901 72.703 14.0668 71.4983 14.8237 70.4541C14.8244 70.4519 14.8252 70.4504 14.8259 70.4489C14.8179 70.4064 14.8114 70.3632 14.8085 70.3163C14.7962 70.128 14.8092 69.9345 14.8114 69.7455L14.8223 68.5313C14.8302 67.745 14.8396 66.9595 14.8526 66.1733C14.8787 64.5546 14.9134 62.9345 14.9865 61.3173C15.2448 55.5945 15.9127 49.9192 17.357 44.3715C18.0567 41.6816 18.823 38.9982 19.3505 36.2665C19.6349 34.7943 19.8151 33.3245 19.8954 31.8479C19.9222 30.7994 19.8903 29.7479 19.7992 28.6993C19.7463 28.6978 19.6906 28.6846 19.6342 28.6546C19.5589 28.6143 19.4793 28.5857 19.3976 28.5622L19.1834 28.5681C19.0582 28.5718 18.967 28.5212 18.9091 28.4458C18.873 28.4355 18.8368 28.4245 18.8013 28.4121C18.5937 28.3982 18.3882 28.3534 18.1826 28.2787C18.1291 28.2589 18.1016 28.22 18.0958 28.1629C18.0712 27.9373 18.0473 27.7108 18.0242 27.4843C17.9764 27.2807 17.9605 27.066 17.9612 26.8483C17.7666 24.7937 17.6494 22.7214 17.7138 20.658C17.6674 20.5613 17.6783 20.4579 17.7239 20.3701C17.7673 19.2701 17.8635 18.1739 18.0292 17.0843L18.0531 16.9296C18.4499 14.401 19.1795 11.7904 21.221 10.118C23.1104 8.57038 25.491 7.94753 27.7667 7.23309L27.9693 7.16905C30.8383 6.25596 33.6609 5.08859 36.1105 3.29451C37.235 2.47096 38.2647 1.50512 39.1504 0.423637C39.5954 -0.119411 39.997 -0.698217 40.3479 -1.30795C40.6974 -1.9132 40.9594 -2.55136 41.2792 -3.17062ZM67.3454 57.6265C67.1674 57.91 66.9561 58.1672 66.7122 58.387C66.5277 58.4793 66.3461 58.5782 66.1659 58.6786C66.0335 58.7256 65.9025 58.7746 65.7723 58.8259C65.5183 58.9153 65.2665 59.0128 65.0147 59.1118C64.9546 59.1051 64.8945 59.0949 64.8374 59.0772C64.2013 59.3579 63.5349 59.5653 62.8489 59.6942L62.8374 59.6957C62.2773 59.9434 61.7107 60.1743 61.1463 60.3941C59.6571 60.9744 58.1289 61.4477 56.5797 61.8331C53.8155 62.5205 50.9884 62.9345 48.1563 63.2034C45.4623 63.4584 42.7459 63.6269 40.0397 63.6086C36.311 63.5837 32.2979 63.1221 29.0728 61.1818C29.0635 61.2908 29.0483 61.4003 29.0359 61.5069L29.0236 61.6206C29.1046 62.3586 29.1162 63.1001 29.0641 63.8534C28.9816 65.0515 28.7501 66.2326 28.6466 67.4286C28.6256 67.6725 28.5258 67.8447 28.389 67.9539C28.1531 70.4314 28.1987 72.9653 28.6661 75.4031C28.7392 75.4434 28.8007 75.4998 28.8478 75.5651C28.8695 75.7138 28.8977 75.8597 28.9346 76.0033C28.9339 76.0076 28.9331 76.0128 28.9317 76.0172C28.9114 76.097 28.8811 76.1703 28.8441 76.2385C29.2523 77.9766 29.8854 79.6568 30.7986 81.2205C31.8962 83.098 33.3376 84.7228 34.7789 86.3337L35.1865 86.7894C35.9853 87.6828 36.7791 88.5818 37.5165 89.5285C37.9079 90.0312 38.2893 90.5426 38.6446 91.0724L38.7702 91.2597C39.083 91.7281 39.379 92.1999 39.5201 92.7534C39.6945 93.4386 38.8218 94.0042 38.3182 93.462C37.8464 92.9534 37.5331 92.3299 37.1438 91.7562C36.7864 91.23 36.405 90.7222 36.0063 90.2268C35.2279 89.2599 34.3982 88.3359 33.5739 87.4088L33.2628 87.0582C31.7485 85.3477 30.2523 83.5834 29.1611 81.559C28.4585 80.2554 27.9194 78.872 27.5286 77.4446C27.4302 77.5392 27.3333 77.6352 27.2407 77.7355C26.7168 78.3026 26.2898 78.9504 25.9744 79.659C25.6647 80.3558 25.462 81.1399 25.3948 81.9012C25.3607 82.2838 25.339 82.6669 25.3354 83.0502C25.6965 82.9593 26.0713 83.133 26.2877 83.4532L27.4252 85.1357L29.6802 88.4705L31.9346 91.8052C33.253 93.7543 34.4998 95.8069 36.0809 97.5537C37.5179 99.1416 39.2538 100.296 41.3262 100.824C43.3277 101.333 45.4645 101.277 47.5029 100.961C49.6347 100.631 51.7286 100.054 53.7926 99.4291L53.9436 99.3834C54.7946 99.1247 55.9154 98.9166 56.4921 98.1605C57.093 97.3727 57.0203 96.143 57.0488 95.199L57.05 95.1598C57.2128 90.339 56.7353 85.5087 55.6839 80.805C55.1585 78.4558 54.5268 76.1234 53.7439 73.8489L53.5464 73.275C53.2169 72.3183 52.8846 71.3615 52.5283 70.4138C52.0268 69.3535 51.4747 68.3173 50.8734 67.3091C50.6317 66.9038 51.2576 66.536 51.4978 66.939C52.3937 68.4419 53.1802 70.0056 53.8553 71.6199C53.9226 71.7576 53.9892 71.8961 54.055 72.0346C54.2294 71.4023 54.482 70.7948 54.7772 70.2078C55.1404 69.4853 55.5992 68.8171 56.1079 68.1913L56.1588 68.129C56.6785 67.4978 57.2619 66.9285 58.0971 66.7881C58.5558 66.7112 58.8836 67.1251 58.6832 67.5604C58.3554 68.2712 57.7968 68.7379 57.2794 69.2978C56.8091 69.807 56.4031 70.3632 56.042 70.9567C55.6665 71.5722 55.3517 72.2317 55.071 72.8963C54.9689 73.1381 54.8756 73.3837 54.7692 73.6225C56.0015 76.525 56.9169 79.5726 57.558 82.6457C57.5674 82.6889 57.5754 82.7329 57.584 82.7761C57.9827 83.0113 58.3641 83.3081 58.7454 83.5485L59.0403 83.734C59.4339 83.9811 59.8294 84.2258 60.2346 84.4527C60.7418 84.7363 61.2599 85.003 61.7881 85.2456C62.3554 85.5065 62.93 85.6743 63.4162 86.0758C63.6804 86.2942 63.4546 86.7426 63.1449 86.7382C62.616 86.7304 62.1403 86.5207 61.6702 86.29L61.3482 86.1308C60.7896 85.8567 60.2462 85.5533 59.7215 85.2169C59.1832 84.8718 58.6665 84.5025 58.1803 84.087L58.0453 83.9718C57.9543 83.8937 57.8617 83.8132 57.77 83.7302L57.8273 84.0396C57.8368 84.0913 57.8462 84.143 57.8554 84.1948C57.9458 84.2454 58.037 84.2929 58.1275 84.3384C58.1455 84.3985 58.1644 84.4585 58.1839 84.5179C58.113 84.5663 58.0652 84.6528 58.0891 84.7538C58.1746 85.1245 58.22 85.5015 58.2703 85.8771L58.283 85.971L58.1173 85.8435C58.1528 86.0883 58.1853 86.3337 58.2172 86.5791C60.1101 86.7206 61.9857 87.4042 63.7491 88.0587C64.739 88.4257 65.7064 88.8427 66.6616 89.2933L66.8921 89.4021C67.2763 89.5843 67.6595 89.7718 68.0292 89.9806C68.0702 90.0041 68.1109 90.0279 68.1512 90.052L68.2115 90.0884L68.3548 90.0496C68.5567 90.1133 68.7578 90.1785 68.959 90.2445C69.7665 90.8079 70.5632 91.3875 71.3563 91.9687L72.2354 92.6133C73.1885 93.311 74.1457 94.0033 75.1262 94.66L75.2741 94.7586C76.4837 95.5621 77.753 96.3112 79.1393 96.7499C80.6422 97.2262 82.1538 97.1991 83.6878 96.8891C85.3586 96.5505 87.0077 96.0816 88.6604 95.6646C89.2306 95.521 89.8008 95.3781 90.3717 95.2353C90.5627 95.0945 90.7473 94.9443 90.9238 94.7853C92.5845 92.5936 93.6916 89.9931 94.1735 87.2635C94.7242 84.1435 94.3913 80.9259 93.2162 77.9897C92.057 75.0939 90.138 72.5725 87.9281 70.419C85.6445 68.1928 83.0424 66.328 80.3521 64.6418C78.428 63.4365 76.4576 62.3022 74.462 61.217C74.1884 61.1129 73.9236 60.9861 73.6624 60.8513C73.1356 60.6204 72.6117 60.3852 72.0915 60.1427C71.5886 59.9163 71.0857 59.6876 70.5849 59.4569C70.185 59.2727 69.7858 59.087 69.3872 58.8999L68.9887 58.7123C68.5784 58.5189 68.1507 58.3409 67.7955 58.0499C67.6645 57.9423 67.5581 57.8265 67.4727 57.7033C67.4308 57.6777 67.3873 57.6528 67.3454 57.6265ZM43.1359 89.1856C43.1685 89.127 43.251 89.1783 43.2235 89.2376C42.9131 89.9183 42.7249 90.6907 42.552 91.4183C42.3959 92.0748 42.2784 92.7345 42.2224 93.407L42.2055 93.6245C42.1567 94.2352 42.0836 94.9271 42.3747 95.4829C42.5726 95.8607 42.9608 96.3122 43.3781 96.4343L43.4037 96.4413C43.9008 96.5696 43.8335 97.2379 43.4037 97.3955C42.5824 97.6951 41.7133 97.3053 41.264 96.5776C40.7915 95.8141 40.7958 94.8557 40.9782 94.0035C41.1627 93.1411 41.5346 92.2933 41.8899 91.4902C42.2481 90.6819 42.7112 89.955 43.1359 89.1856ZM26.821 73.5075L26.4987 73.5922C24.4515 74.1321 22.3063 74.754 21.0944 76.6635C20.0785 78.2653 19.9569 80.2921 20.0864 82.1402C20.1164 82.5675 20.1604 82.9942 20.2196 83.4187L20.2398 83.5602C20.3093 84.0299 20.3288 84.6351 20.5626 85.0528C20.7891 85.458 21.3252 85.6801 21.6581 85.9857C22.0083 86.3073 22.3021 86.7096 22.5336 87.1258C22.9939 87.9546 23.2507 88.8815 23.5496 89.7777L23.5811 89.8714C23.8449 90.6515 24.1509 91.4127 24.7471 91.9687C24.9801 92.1863 25.3217 92.3738 25.635 92.4749C26.0655 92.6135 26.3369 92.6465 26.8065 92.6178C27.0887 92.6002 27.554 92.4853 27.8232 92.3467C28.2812 92.1115 28.4932 91.7987 29.0272 91.6909C29.1893 91.658 29.3731 91.6865 29.5258 91.7663C29.5952 91.7166 29.6647 91.6682 29.7356 91.6227C29.6633 91.5151 29.5909 91.4074 29.5185 91.3004L24.8057 84.3303C24.6299 84.0702 24.6581 83.7265 24.8094 83.4606C24.7609 83.3338 24.7204 83.2077 24.6864 83.0913C24.5641 82.6691 24.4975 82.2405 24.4845 81.8008C24.4591 80.9164 24.5995 80.0297 24.8846 79.1937C25.1806 78.3261 25.6097 77.5164 26.1849 76.8064L26.2392 76.7399C26.4721 76.4562 26.7895 76.093 27.1466 75.8039C27.0663 75.3855 26.9968 74.9649 26.9396 74.5429C26.8926 74.1985 26.8535 73.8533 26.821 73.5075ZM58.2772 87.0613C58.3677 87.8103 58.4429 88.5613 58.5045 89.3124C58.9162 89.3549 59.3301 89.3175 59.7389 89.1717C60.0399 89.0655 60.3301 88.902 60.5942 88.7217C60.7852 88.5906 60.9502 88.439 61.142 88.3224L60.7063 88.1448C59.8839 87.8083 59.0651 87.4637 58.2772 87.0613ZM27.4903 28.8971C25.1712 28.6399 22.8397 28.5212 20.5076 28.5418C20.7087 30.7114 20.6574 32.8973 20.3585 35.0508C20.3042 35.7528 20.2304 36.4497 20.1458 37.1384C19.4591 42.7397 17.8657 48.1739 17.2384 53.7845C16.9185 56.6423 16.7644 59.514 16.6682 62.3871C16.6204 63.816 16.5915 65.2449 16.5719 66.6738C16.5618 67.4117 16.5538 68.1503 16.5473 68.8881L16.5386 69.9595C16.5372 70.1492 16.5538 70.3632 16.5032 70.5486C16.4562 70.7218 16.3452 70.865 16.2419 71.0084L16.2036 71.0622C15.9598 71.4118 15.5299 71.4617 15.2419 71.1912C14.8975 71.8199 14.5444 72.4428 14.2253 73.0861C13.8092 73.9259 13.4431 74.7891 13.1623 75.6808C12.9228 76.6935 12.7274 77.7186 12.5574 78.7438C12.3504 79.985 12.2115 81.2381 11.9959 82.4779C11.7947 83.6349 11.409 84.7429 10.595 85.6068C9.95895 86.281 9.15938 86.7323 8.39164 87.2306L8.26885 87.3107C7.9523 87.5185 7.71789 87.686 7.44517 87.9641C7.22447 88.1891 7.07035 88.414 6.98424 88.6815L7.04543 88.6972C7.07179 88.7036 7.0966 88.709 7.11811 88.7115C7.4184 88.7459 7.72303 88.754 8.02477 88.7474C8.65286 88.7328 9.27153 88.6375 9.88298 88.499C11.1377 88.2147 12.3555 87.7875 13.6088 87.5017C14.9055 87.2057 16.2427 87.0767 17.5705 87.1552L17.7073 87.1635C18.807 87.2333 20.0348 87.3772 21.0698 87.8168C21.0235 87.737 20.975 87.6586 20.9236 87.5808C20.6726 87.2057 20.234 86.9075 19.8484 86.599C19.3028 86.1623 19.0054 85.5929 18.8874 84.9026C18.695 83.7778 18.5799 82.6259 18.5734 81.4836C18.5604 79.2993 18.988 76.9639 20.5604 75.3533C20.5647 75.3496 20.5691 75.3453 20.5734 75.3409C20.577 75.2654 20.5792 75.1906 20.5799 75.1151C20.2804 75.003 20.0539 74.7158 20.0575 74.367C20.064 73.7822 20.0958 73.1976 20.1928 72.6208C19.9649 72.5248 19.7898 72.3087 19.7883 72.0104C19.7862 71.525 20.0238 71.0997 20.2158 70.666L20.2326 70.6277C20.4055 70.2314 20.5785 69.8341 20.7514 69.437L21.442 67.8495C21.5572 67.585 21.6726 67.3205 21.7883 67.0563C22.9931 64.3106 24.2652 61.5972 25.4953 58.8633C25.983 57.7795 26.457 56.6892 26.8926 55.5827C27.1799 54.3788 27.5301 53.191 27.8557 51.9973C28.1799 50.8066 28.4845 49.6086 28.685 48.3892C28.8926 47.1274 28.9787 45.8459 28.9932 44.5672C29.0222 42.0253 28.757 39.4855 28.4419 36.9664L28.4208 36.7984C28.0902 34.1671 27.7703 31.5358 27.4903 28.8971ZM82.9816 78.5635C82.9302 78.5247 82.978 78.4367 83.033 78.4741C84.4049 79.4018 85.6987 80.5324 86.7096 81.8573C87.7863 83.2671 88.6148 84.8447 89.2016 86.5235C89.4202 87.1508 88.3818 87.4497 88.2139 86.799C87.3948 83.6335 85.6003 80.5339 82.9816 78.5635ZM70.289 68.0917C70.3157 68.058 70.3693 68.1019 70.3476 68.1378C69.868 68.9216 69.5677 69.7828 69.2357 70.636L69.1688 70.8065C68.8251 71.6749 68.5342 72.5739 68.3034 73.4796C67.8338 75.3211 67.7043 77.2248 67.383 79.0948C67.3193 79.4648 66.7303 79.4516 66.6565 79.0948C66.2448 77.0863 66.6493 75.0426 67.3135 73.1382C67.6442 72.19 68.0516 71.2784 68.5494 70.4079C69.0299 69.5674 69.6942 68.8479 70.289 68.0917ZM37.4137 71.2513L37.514 71.1964C39.0585 70.3565 40.89 69.6544 42.6584 69.8136C43.1475 69.8576 43.2843 70.5559 42.7777 70.7039C41.1265 71.1868 39.4492 71.4506 37.8558 72.1343C36.2632 72.8172 34.8717 73.7984 33.4838 74.8257C33.4289 74.8667 33.3536 74.7869 33.3905 74.7319C34.3847 73.2547 35.8775 72.0991 37.4137 71.2513ZM25.9346 60.8644C25.546 61.8632 25.1422 62.8561 24.7392 63.8482C24.2105 65.1483 23.664 66.4427 23.1136 67.7337L21.9996 70.3427C21.8383 70.7186 21.6776 71.0953 21.517 71.4711C21.4287 71.6786 21.3506 71.8866 21.2464 72.0778C21.2682 72.2144 21.2816 72.3341 21.2928 72.3997L21.2948 72.4113C21.4012 72.9923 21.496 73.5756 21.6234 74.1523C21.6509 74.2754 21.6516 74.3978 21.6299 74.5135C21.7847 74.4205 21.9432 74.3355 22.106 74.2571C22.6574 73.9193 23.3079 73.6892 23.8593 73.4753C24.8021 73.1096 25.7739 72.8319 26.7472 72.5623C26.6372 70.7567 26.7052 68.9409 26.9418 67.1449C27.0257 66.5133 27.1227 65.8838 27.2399 65.2573C27.355 64.6441 27.5192 64.0336 27.588 63.413C27.6775 62.6056 27.5359 61.1583 26.4693 61.091L26.4367 61.0894C26.2095 61.0806 26.0424 60.9927 25.9346 60.8644ZM91.6626 73.6599C91.7987 73.8533 91.9311 74.049 92.0606 74.2468C92.0838 74.2285 92.1091 74.2116 92.1359 74.1977C91.9817 74.016 91.8233 73.8365 91.6626 73.6599ZM26.8029 73.3067L26.4816 73.3968C26.5916 73.3939 26.7009 73.3909 26.8101 73.3895C26.8072 73.3616 26.805 73.3345 26.8029 73.3067ZM76.3592 60.7684C76.4665 60.9481 76.5802 61.1245 76.7003 61.2973L76.7608 61.3833L76.9866 61.4793C77.0192 61.4924 77.0474 61.5093 77.0727 61.5284C77.106 61.5415 77.14 61.554 77.1733 61.5665C76.8867 61.3144 76.6212 61.0454 76.3592 60.7684ZM64.3301 26.2174C64.3012 27.1283 64.2657 28.0383 64.2296 28.9484C64.1087 32.0011 63.9343 35.0552 63.8721 38.1101L63.8681 38.3164C63.8191 40.9992 63.8952 43.7089 64.6565 46.3001C65.0358 47.5928 65.6172 48.7617 66.2821 49.9229L66.5167 50.331C67.1243 51.391 67.7255 52.4966 67.9829 53.6988C68.1023 54.255 68.1283 54.8719 68.0588 55.4853C68.1001 55.5571 68.1138 55.6487 68.0813 55.7542L68.0243 55.9403C67.9082 56.3235 67.7947 56.7656 67.9641 57.1318C67.9836 57.1743 68.0067 57.2138 68.0321 57.2519L68.4276 57.4313C68.6254 57.5212 68.8231 57.6122 69.0198 57.7063C69.5589 57.9649 70.0922 58.2375 70.6226 58.5138C70.7101 58.4778 70.8136 58.4764 70.92 58.5306C72.1537 59.1593 73.3845 59.8005 74.606 60.4592L74.8006 60.545C74.7876 60.5194 74.776 60.4944 74.7637 60.4688C74.6913 60.4416 74.6241 60.4028 74.564 60.3522C74.031 59.9017 73.9182 59.1494 73.7114 58.5014L73.1132 56.6687C72.7065 55.4244 72.3006 54.1795 71.8961 52.9345C71.179 50.7282 70.4192 48.535 69.6812 46.3353L69.6046 46.1062C68.9177 44.0441 68.2982 41.9675 68.0588 39.7962C67.8049 37.4924 67.9163 35.1578 67.9583 32.8459L67.9622 32.6103C67.9924 30.683 67.9842 28.6752 68.3541 26.775C68.273 26.778 68.1913 26.7802 68.1095 26.7817C67.4438 26.7912 66.786 26.7495 66.1261 26.6571C65.7752 26.608 65.4249 26.5508 65.0798 26.4688C64.9068 26.4278 64.7325 26.3859 64.5617 26.3354C64.4568 26.3039 64.4003 26.26 64.3301 26.2174ZM23.5662 40.1179C24.1538 40.1097 24.7426 40.1353 25.328 40.1953L25.6326 40.2285C26.2287 40.2944 26.8068 40.3741 27.2653 40.8118C27.5359 41.0712 27.4035 41.5643 27.0453 41.6559C26.4172 41.8171 25.8304 41.5937 25.2175 41.4618C24.6502 41.3387 24.0771 41.25 23.4982 41.1987C22.3101 41.0932 21.1219 41.0976 19.9301 41.0829C19.7731 41.0815 19.7702 40.8807 19.8961 40.8265C21.0503 40.3348 22.3187 40.1347 23.5662 40.1179ZM35.473 5.02463C35.4021 5.06786 35.3327 5.11329 35.261 5.15572C35.3377 5.15499 35.4072 5.16532 35.473 5.18364C35.4716 5.13081 35.4716 5.07731 35.473 5.02463Z" fill="black"/>
</g>
<defs>
<clipPath id="clip0_38_126">
<rect width="111" height="136" fill="white"/>
</clipPath>
</defs>
</svg>
