<svg width="111" height="136" viewBox="0 0 111 136" fill="none" xmlns="http://www.w3.org/2000/svg">
<g clip-path="url(#clip0_38_148)">
<path fill-rule="evenodd" clip-rule="evenodd" d="M59.4912 60.7688C59.6532 62.4805 59.3219 64.1151 58.5329 65.4971L58.2761 65.9467L58.7648 66.1198C59.6541 66.4347 60.643 66.5878 61.7882 66.5878C62.9667 66.5878 64.1923 66.4217 65.177 66.288L65.8075 66.2026L65.4978 65.648C65.2487 65.2023 65.2026 64.6621 65.1538 64.0903C65.1406 63.9367 65.1271 63.7779 65.1093 63.6207C64.1762 55.1749 62.9967 46.6189 61.8561 38.3446C61.5559 36.1673 61.2456 33.9158 60.9445 31.7011L60.0808 31.7348C59.8484 35.8341 59.623 40.0027 59.4049 44.0341C59.3091 45.8069 59.2131 47.5797 59.1164 49.3522C58.7718 53.8335 58.8908 57.4621 59.4912 60.7688ZM59.8437 111.415C58.5753 111.415 57.3044 111.281 56.0665 111.018C52.1929 110.194 48.6737 108.251 45.6791 106.495C45.5263 106.407 45.3711 106.32 45.2118 106.229C44.0395 105.565 42.5805 104.739 41.6661 103.73C40.6631 102.624 40.4904 101.522 41.1229 100.262L41.223 100.063L41.1185 99.8655C40.4635 98.6311 40.5122 97.1038 41.2368 96.1516L41.8458 95.3514L40.8446 95.459C39.835 95.5675 38.8175 95.7145 37.8334 95.8566C36.7416 96.0144 35.6124 96.1775 34.5003 96.2866L34.1913 96.317L34.1202 96.6185C34.0807 96.7864 34.0318 96.8883 33.6888 96.8883C33.3913 96.8883 32.9915 96.8001 32.5684 96.7068C32.0433 96.591 31.4481 96.4597 30.8741 96.4597C30.6216 96.4597 30.3946 96.484 30.1798 96.5342L30.0548 96.5633L29.9659 96.6556C29.909 96.7146 29.8122 96.7512 29.7133 96.7512C29.6385 96.7512 29.5691 96.7301 29.5227 96.6933L29.3825 96.5822L29.2045 96.602C26.1044 96.9467 23.4312 97.5517 21.0325 98.4513L21.0217 98.4554L20.9696 98.4781C20.1023 98.8572 19.2055 99.2492 18.3888 99.2492C17.7917 99.2492 17.3069 99.0435 16.8629 98.6019L16.7375 98.4773L16.5605 98.4755C14.7646 98.4588 13.9441 96.3382 13.8306 94.9169L13.8164 94.7379L13.6795 94.6215C10.5498 91.9618 8.70211 88.309 8.03076 83.4542C7.41932 79.0322 7.88879 74.3698 8.42867 70.3921C9.67753 60.0839 10.9801 50.8431 14.2911 42.0788L14.4458 41.6691L14.0336 41.5191C12.6035 40.9987 11.5106 40.3779 10.6923 39.621L10.6356 39.5684L10.5643 39.5388C9.39149 39.0508 8.81709 37.2497 8.66897 36.7093L8.65711 36.6657L8.63641 36.6256C8.39712 36.1607 8.34191 35.5141 8.48504 34.8515L8.50038 34.7801L8.49148 34.7075C8.41419 34.0784 8.67071 33.4206 8.94228 32.7242C9.06637 32.4061 9.1946 32.0772 9.2883 31.7497C9.61045 30.8137 9.93223 29.8611 10.2435 28.9397C10.9419 26.8726 11.664 24.7351 12.4333 22.6558L12.5385 22.3714L12.3067 22.1754C11.9111 21.8407 12.0432 21.4468 12.6137 20.5048C12.7485 20.2823 12.876 20.0718 12.973 19.8644C13.7043 18.5847 14.4882 17.3562 15.3031 16.2127L15.3199 16.1892L15.3332 16.1638C19.5148 8.25526 26.9322 3.89988 36.219 3.89988L36.4083 3.90024L36.5129 3.8365C38.2534 2.77659 39.4959 0.957944 40.3113 -1.72324L40.3374 -1.80872L40.3273 -1.89751C40.2994 -2.14462 40.2688 -2.46862 40.2793 -2.78301C40.3059 -3.57921 40.614 -4.28971 41.1247 -4.73239C42.0937 -5.57226 43.5647 -5.64258 44.9884 -5.64258H45.1928C47.013 -5.63695 48.2981 -5.31692 49.237 -4.63493C50.3279 -3.84256 50.9308 -2.56348 51.0802 -0.724619C51.1249 -0.174377 51.1234 0.395646 51.122 0.946898L51.1216 1.10074L51.1399 1.16181C51.2708 1.59886 51.424 2.01879 51.5954 2.41007L51.7716 2.81261L52.1725 2.63112C52.4318 2.51381 52.7604 2.45346 53.1775 2.44667C53.2978 2.44386 53.4151 2.44256 53.5334 2.44256C54.5018 2.44256 55.5377 2.53207 56.5396 2.61863C57.2944 2.68389 58.075 2.75139 58.8306 2.78135L58.841 2.78178C58.841 2.78178 58.9453 2.78113 58.9921 2.78113C60.8285 2.78113 62.1598 3.07358 63.1816 3.70157C64.2818 4.37764 65.073 5.46275 65.6712 7.11644C68.8797 16.5954 70.1989 26.8055 71.3624 35.8133C72.0224 40.5239 72.2231 45.3531 72.4173 50.0232C72.6223 54.9526 72.8341 60.0498 73.5844 65.0324L73.6437 65.4263L74.0421 65.4002C75.7955 65.2857 77.6902 65.0388 79.6962 64.7775C82.7439 64.3805 85.8955 63.97 88.9422 63.97C93.202 63.97 96.4318 64.8188 98.8147 66.5645C100.476 68.1498 101.335 70.2961 101.3 72.7731C101.25 76.2729 99.4221 80.1423 96.643 82.6306L96.6325 82.6404C93.1196 86.001 86.7074 88.9158 77.5739 91.3038C69.1751 93.4997 60.4876 94.6931 56.0565 95.2089L54.9598 95.3367L55.85 95.9884C56.2102 96.2522 56.539 96.4845 56.855 96.6985L57.0588 96.8365L57.2821 96.7328C57.9189 96.4371 58.3233 96.375 58.5506 96.375C58.7523 96.375 58.9955 96.4194 59.0089 96.6307C59.0177 96.7691 58.9204 96.9746 58.7151 97.0006L57.6251 97.1383L58.5151 97.7811C59.1096 98.2105 59.9966 98.728 61.0238 99.3273C64.3841 101.288 69.4623 104.251 68.5889 106.853L68.5316 107.024L68.6128 107.185C68.8475 107.651 68.8675 108.083 68.6739 108.507C68.2592 109.415 66.9622 110.104 65.8607 110.385L65.8418 110.39L65.8233 110.396C63.9067 111.072 61.8948 111.415 59.8437 111.415Z" fill="white"/>
<path fill-rule="evenodd" clip-rule="evenodd" d="M56.1565 94.6993C56.2889 94.5628 56.3446 94.3839 56.2209 94.1738C55.7426 93.5552 54.7505 93.9782 54.1333 94.1211C53.9002 93.9248 53.6688 93.7278 53.4459 93.5199C53.5233 93.0334 52.9459 92.71 52.7085 92.3346C52.4755 92.0582 52.2563 91.7443 51.9769 91.5126C51.2961 90.9748 50.3525 91.3385 49.5623 91.3141C48.9538 90.5301 48.3272 89.7709 47.7483 88.961C48.4154 87.8256 48.4625 86.4954 48.241 85.2301C58.4749 81.2977 67.3332 73.8524 78.4013 72.1317C78.782 72.0674 78.9954 71.599 78.9006 71.2554C78.1285 69.3896 67.0335 74.2039 65.3751 75.0759C60.4836 77.4477 55.9017 80.4042 51.1477 83.0127C50.1564 83.5461 49.0659 83.8327 47.982 84.1098C46.3163 78.5737 43.4985 73.4987 41.3379 68.1611C41.4782 67.9149 41.5977 67.6565 41.699 67.3909C41.6274 70.3265 44.4465 70.2853 44.8358 67.5006C44.6752 68.9522 45.7591 72.0609 47.3235 70.0211C47.6904 69.5087 47.8206 68.8526 47.8828 68.1907C47.9632 68.6483 48.0544 69.1037 48.1557 69.5577C48.5572 70.4571 49.6535 69.3636 49.9081 68.8944C50.0551 68.8677 50.1926 68.7999 50.2932 68.7169C53.0595 69.1059 56.3178 69.0835 58.3475 66.872C61.7904 68.2094 65.6009 67.0112 69.0828 66.4771C76.1683 65.6521 83.282 64.3947 90.4312 64.4907C93.623 64.6784 97.3885 65.2003 99.4074 67.9582C101.997 71.9339 100.533 77.3033 97.6766 80.7448C90.8045 89.5557 67.216 93.387 56.1565 94.6993ZM56.3497 97.873C56.4748 97.8391 56.6008 97.808 56.726 97.7785C58.7318 99.4696 68.1784 103.861 67.4598 106.484C67.2058 106.81 66.598 106.885 66.2137 106.99C65.5444 107.173 64.8685 107.332 64.1863 107.458C61.9807 107.864 59.6963 107.935 57.4936 107.471C56.6833 107.347 55.9517 106.997 55.2136 106.658C52.8287 105.596 50.202 104.422 47.8285 103.368C44.8133 102.158 39.5245 99.772 41.6997 95.7466C43.7605 98.0938 46.3763 97.8888 47.694 94.9714C48.1484 94.0858 48.545 92.8919 49.6123 92.5339C50.1752 92.1485 50.8952 92.0683 51.3655 92.4978C51.3996 92.4444 51.4299 92.3693 51.4465 92.3029C51.9769 93.0673 52.4343 93.8721 53.0558 94.5708C52.8424 94.5824 50.621 96.2475 51.2765 96.2483C52.0653 95.8368 52.8489 95.494 53.7006 95.2723C54.3178 95.901 54.9966 96.4857 55.6999 97.0263C55.0168 97.4832 54.4032 98.0426 53.9097 98.6496C53.867 98.7031 53.9191 98.7724 53.9828 98.7434C54.7491 98.3977 55.5371 98.0938 56.3497 97.873ZM66.5177 109.215C58.8453 112.705 50.7229 108.819 44.1801 104.676C42.6701 103.822 40.6838 102.612 40.9891 100.601C42.1013 102.249 43.9349 103.188 45.6947 104.001C48.6513 105.354 51.6274 106.664 54.5913 108.001C54.8713 108.942 56.21 108.978 57.019 109.186C60.6204 109.894 64.4916 109.542 67.881 108.132C67.6848 108.72 67.043 108.99 66.5177 109.215ZM35.9065 95.6261C35.717 95.6506 35.5273 95.6729 35.3378 95.6946C35.3574 95.4406 35.2061 95.1865 34.963 95.1078C35.0723 94.5693 35.1128 94.0128 35.0542 93.4665C35.3711 94.2958 36.3943 94.0439 37.0441 93.8049C37.9725 93.5494 38.895 93.2745 39.8126 92.9814C40.1744 93.6621 40.5579 94.3326 41.0289 94.949C39.3139 95.1035 37.615 95.4103 35.9065 95.6261ZM35.1519 93.0174C35.1063 93.115 35.0412 93.2181 35.0397 93.3351C34.9934 92.9316 34.903 92.5331 34.7655 92.1513C34.8942 92.44 35.0231 92.7287 35.1519 93.0174ZM34.0694 90.8542C33.2257 89.7406 31.6663 88.8303 30.2249 89.1407C30.1323 89.161 30.13 89.3117 30.2249 89.3306C32.1612 89.5969 33.8617 91.1523 33.9289 93.1633C34.0817 94.0735 33.4565 94.9671 33.667 95.8405C33.6251 95.8433 33.5831 95.8455 33.5419 95.8484C33.5267 95.9068 33.5129 95.9588 33.4948 96.0043C33.704 96.0396 33.7655 96.3804 33.5186 96.441C33.3725 96.4771 33.2199 96.4958 33.0643 96.5038C32.2748 96.288 31.442 96.2381 30.6873 95.9191C29.9405 95.5849 30.1272 94.6459 29.8638 93.9955C29.6706 93.2455 29.4484 92.4985 29.1684 91.7789C29.1482 91.7211 29.0708 91.7342 29.0642 91.7926C28.8667 93.2283 28.8732 94.6885 28.921 96.1356C28.6619 96.1624 28.4043 96.192 28.1459 96.2244C28.1626 95.8202 26.9651 90.8954 26.3341 92.1593C26.6518 93.5488 26.6901 95.0003 26.7241 96.4301C24.8507 96.7427 23.0048 97.2083 21.2089 97.842C19.9433 98.2303 18.4381 99.3794 17.2095 98.3407C16.258 97.5439 15.9374 96.1536 16.0272 94.9707C17.2645 87.9714 27.0374 87.1537 32.8067 87.6712C33.3516 88.9444 33.9066 90.2133 34.4688 91.4794C34.3523 91.2614 34.2192 91.0521 34.0694 90.8542ZM14.3926 94.8343C14.2869 93.2449 14.551 91.2664 15.7139 90.0819C18.3752 87.8033 22.1018 87.0865 25.4274 86.2615C26.9766 85.9519 28.5469 85.7462 30.1236 85.6437C30.6829 85.5989 31.3935 85.7273 31.7885 85.264C31.9919 85.7519 32.1981 86.2391 32.4044 86.7263C25.7834 85.8479 11.97 88.8996 15.8383 98.0844C15.0191 97.1858 14.4764 96.0916 14.3926 94.8343ZM47.2866 89.5803C47.5913 90.3512 47.9639 91.0853 48.4509 91.7565C47.8973 92.1232 47.4458 92.6652 47.1274 93.2478C45.0869 98.654 42.9045 95.7582 40.1932 92.8572C42.4877 91.9803 45.5268 91.3234 47.2866 89.5803ZM13.3216 93.7343C8.01549 88.4262 6.98581 79.5835 8.94603 72.6326C9.12042 70.0551 10.0104 67.5988 10.8079 65.1584C13.347 57.7557 16.6864 50.6337 20.6915 43.9095C25.6604 45.2917 30.6207 46.7107 35.6012 48.0475C36.2871 48.1984 36.9738 48.4965 37.678 48.5398C37.9298 48.7022 38.1823 48.8812 38.4442 49.0385C38.0629 50.9304 38.4146 52.8619 38.5036 54.7653C38.5846 56.2637 38.4247 57.7311 38.2285 59.2137C38.0094 61.3704 37.107 68.3855 38.9153 69.6696C39.5282 69.9692 40.076 69.0821 40.3401 69.3261C40.5781 69.1579 40.8003 68.9392 40.9812 68.6981C41.6795 70.9847 42.8206 73.1061 43.5254 75.3949C44.4631 78.7584 47.5428 84.203 46.859 87.4113C46.33 89.3926 44.016 89.8199 42.3459 90.4674C40.4161 91.1473 38.4645 91.7716 36.4811 92.2784C35.5129 90.1975 34.5875 88.097 33.6794 85.9886C29.5288 76.2611 25.8529 66.3306 22.5678 56.2818C22.5063 56.0587 21.7508 53.6422 21.6126 54.3163C21.601 54.247 21.5149 54.068 21.4824 54.2211C22.0395 56.5806 22.6046 58.9394 23.2161 61.286C21.7139 61.0731 20.0989 60.99 18.724 61.7357C18.6531 61.7739 18.7052 61.8684 18.7753 61.8569C20.4034 61.5711 21.9737 62.111 23.5374 62.4986C25.7335 70.0688 28.5671 77.4469 31.5664 84.7328C30.6388 84.4332 29.5621 84.7645 28.5939 84.7883C25.5447 85.1074 22.5301 85.783 19.6495 86.8338C16.0286 88.0227 13.4685 89.573 13.3216 93.7343ZM10.4004 38.4917C9.50899 37.5194 8.80848 36.278 8.94386 34.9607C9.47933 34.2375 9.65661 33.2941 9.96848 32.4582C11.1877 28.9603 12.3195 25.4358 13.6465 21.9756C16.4693 22.8548 19.2464 23.9093 21.8659 25.2943C22.3478 25.5434 22.8247 25.8018 23.2957 26.0696C23.7892 26.3497 24.3276 26.8362 24.9195 26.6969C24.2726 27.6244 22.9404 28.5894 22.7154 29.6612C22.6669 30.0005 22.9042 30.3152 23.2689 30.2394C28.9774 34.3457 34.8726 38.3654 40.2684 42.9393C44.309 46.1788 47.4111 48.8062 48.7968 54.0623C49.7309 57.467 49.7338 61.0254 49.5963 64.5261C49.5696 65.2067 49.5688 65.9033 49.5146 66.5883C49.5956 67.1008 49.4415 68.1438 48.8727 68.1625C48.8858 68.2867 48.9263 68.4014 48.9907 68.5025C48.9726 68.527 48.9538 68.5501 48.9343 68.5739C48.906 68.4339 48.8785 68.2946 48.8525 68.1546C48.4096 66.1682 48.3503 63.8635 48.4241 61.7487C48.4552 61.1423 47.537 61.1568 47.4856 61.7487C47.3474 63.3474 47.2092 64.9462 47.071 66.5443C46.9052 67.58 47.1665 68.9348 46.3488 69.7223C45.5174 68.9442 45.7924 67.4097 45.8329 66.4057C45.898 64.7679 45.9682 63.1309 46.0283 61.4931C46.0471 60.9742 45.1983 60.8406 45.102 61.3683C44.8293 62.8725 44.534 64.3724 44.2163 65.8679C44.0246 66.4461 43.8929 69.0402 42.9349 68.5898C42.364 68.195 42.7757 65.8802 42.7005 65.1137C42.7359 63.5964 42.7568 62.0814 42.8669 60.5678C42.9117 59.9572 41.9298 59.8272 41.7952 60.4234C41.5767 61.3885 41.3676 62.3535 41.178 63.3251C40.7619 64.9628 40.9132 67.183 39.411 68.2715C38.8227 64.0173 39.6692 59.7926 39.788 55.5535C39.7171 54.1799 39.4841 52.8201 39.2786 51.4631C39.0513 49.9625 38.9189 48.329 39.4508 46.8818C39.3053 46.2337 38.7337 47.9869 38.6801 48.1327C38.2496 47.2738 37.2011 47.2074 36.3719 46.9396C34.5289 46.3355 32.641 45.88 30.7763 45.343C25.8311 43.9521 20.8803 42.5828 15.928 41.2165C13.9497 40.6621 11.8672 40.006 10.4004 38.4917ZM59.9199 61.1207C59.2376 57.3752 59.2564 53.5801 59.548 49.7936C59.8685 43.921 60.1797 38.0471 60.5126 32.1753C61.9576 42.803 63.4981 53.4184 64.6761 64.08C64.76 64.8221 64.747 65.6074 65.1168 66.2693C63.0734 66.5464 60.8953 66.8258 58.9083 66.122C59.7803 64.5954 60.0878 62.8573 59.9199 61.1207ZM70.2449 34.7398C71.7898 44.8125 70.9085 55.0619 72.4071 65.123C70.3282 65.3591 68.2652 65.7084 66.2079 66.0924C66.433 64.8495 66.0061 63.5661 65.9323 62.3145C64.815 53.3873 63.5813 44.466 61.9467 35.6168C61.5458 33.4991 61.1406 31.39 60.6761 29.2838C60.7463 28.0084 60.8078 26.733 60.8483 25.4567C63.1168 24.0125 65.6747 23.0777 68.3202 22.6065C69.035 26.6398 69.7493 30.6703 70.2449 34.7398ZM52.3612 3.08768C52.2708 2.93105 52.1847 2.77082 52.1022 2.60841C52.3815 2.61924 52.6535 2.62934 52.9285 2.67554C52.9162 3.12377 52.9408 3.57562 52.9459 4.02746C52.8083 3.69688 52.5392 3.39517 52.3612 3.08768ZM99.0203 66.2093C92.4218 61.3502 81.5837 64.446 73.9396 64.9455C72.4823 55.2683 73.0771 45.4332 71.7188 35.7402C70.4678 26.0566 69.1487 16.2381 66.0068 6.96011C64.7101 3.37272 62.467 2.30742 58.7737 2.3363C56.8996 2.26195 54.9177 1.95808 53.0964 2.00131C52.697 2.00788 52.2794 2.06129 51.9191 2.22442C51.4126 1.0681 51.1376 -0.173384 50.9987 -1.42425C50.99 -1.50365 50.8901 -1.51809 50.8605 -1.4423C50.4321 -0.353111 50.3865 0.835685 50.6194 1.97612C50.7881 2.79319 51.7917 6.00879 52.9575 4.7507C53.05 7.38886 52.4776 10.5395 49.9256 11.9087C45.466 13.8778 39.3016 12.0849 36.7185 7.90566C36.2192 7.07055 35.7886 6.18195 35.2358 5.3801C39.0875 4.27576 41.2496 -0.397862 40.3422 -3.95703C39.7815 -1.18895 38.7589 1.90394 36.2127 3.45436C26.9404 3.43342 19.2313 7.71006 14.8752 15.9471C14.0228 17.1432 13.2348 18.386 12.5127 19.6507C12.124 20.4966 10.9859 21.6732 11.9519 22.4902C10.8361 25.5059 9.84619 28.5634 8.79987 31.6029C8.51253 32.6156 7.8555 33.6781 7.98654 34.7427C7.84472 35.3988 7.85123 36.1747 8.17613 36.8056C8.48438 37.9301 9.17607 39.443 10.323 39.9201C11.2963 40.8202 12.5271 41.4402 13.8108 41.9072C10.3874 50.9672 9.08424 60.7381 7.92431 70.3106C6.78747 78.6848 6.2007 88.8715 13.3238 94.9237C13.462 96.6554 14.4764 98.8619 16.4823 98.8807C17.8715 100.262 19.5648 99.5042 21.1112 98.8287C23.7212 97.8499 26.4586 97.3071 29.1786 97.0046C29.4702 97.2357 29.9449 97.1974 30.2046 96.9282C31.8523 96.5435 34.1359 98.1011 34.4688 96.69C36.5933 96.4813 38.6946 96.0902 40.8169 95.862C39.9225 97.0372 39.987 98.7701 40.6606 100.04C38.945 103.458 42.9414 105.437 45.385 106.839C48.6838 108.773 52.1289 110.609 55.9017 111.411C59.2187 112.118 62.6935 111.903 65.8939 110.774C67.5756 110.346 69.9244 108.941 68.9265 106.961C70.1914 103.193 61.3085 99.2892 58.6956 97.4023C59.7636 97.2674 59.8027 95.0226 57.0248 96.3125C56.6891 96.0851 56.3591 95.8505 56.0328 95.6116C67.2687 94.3037 88.7271 90.7056 96.8589 82.9275C101.326 78.9281 103.904 70.8382 99.0203 66.2093Z" fill="black"/>
</g>
<defs>
<clipPath id="clip0_38_148">
<rect width="111" height="136" fill="white"/>
</clipPath>
</defs>
</svg>
