<svg width="113" height="136" viewBox="0 0 113 136" fill="none" xmlns="http://www.w3.org/2000/svg">
<g clip-path="url(#clip0_38_152)">
<path fill-rule="evenodd" clip-rule="evenodd" d="M103.046 111.037C101.49 110.755 100.93 112.554 100.864 113.691C100.236 113.413 99.5835 113.096 99.0165 112.732C98.084 112.138 97.077 111.114 95.9757 111.141L95.9254 110.863C95.8691 110.375 94.8709 110.7 94.6015 110.871C94.1698 110.792 93.6958 110.36 93.4065 109.965C94.5715 109.536 95.0822 109.519 94.8982 108.031C94.8979 107.801 94.8404 107.587 94.904 107.382C93.5128 101.216 93.2409 95.0485 93.066 88.7645L93.7805 88.6214C96.0433 94.9172 98.1935 101.524 100.123 108.255C100.17 108.558 100.344 108.561 100.513 108.397C101.098 108.428 101.664 108.403 102.261 108.317L102.252 108.29C102.432 108.291 102.61 108.282 102.774 108.271C102.915 109.174 103.078 110.105 103.046 111.037ZM102.108 107.602C102.147 107.583 102.596 107.386 102.647 107.363L102.658 107.474C102.465 107.549 102.271 107.621 102.074 107.687L102.056 107.626L102.108 107.602ZM82.9136 121.086C82.1553 121.268 81.3519 121.497 80.6064 121.713L80.8989 121.01C79.2174 116.554 77.9325 111.847 76.9973 107.246C76.335 104.251 75.6478 101.153 74.7293 98.185C73.5697 93.5237 71.0672 88.7274 65.7794 88.3281C65.7794 88.3281 65.6904 88.1762 65.6905 88.1762L65.5863 88.0795C65.3282 84.8105 64.979 81.5529 64.6408 78.4244C67.4708 79.1978 69.9077 78.9462 72.6126 78.9252C73.489 78.8044 74.6555 79.0576 75.3547 78.6601C75.3547 78.66 75.8168 78.1932 75.8168 78.1932C78.8877 90.274 79.6869 102.724 80.7837 114.958C80.821 115.235 81.0334 115.329 81.2567 115.214C81.5146 115.496 82.0514 115.387 82.4189 115.428C82.1104 117.262 82.4735 119.447 83.3688 120.975L82.9136 121.086ZM75.7057 120.055C73.8136 118.47 71.5719 117.684 69.2307 117.773C68.4092 116.561 67.2481 115.108 65.9438 114.56C65.3326 112.527 65.4077 110.296 65.5369 108.381C65.8391 106.425 65.1623 106.197 63.5596 106.339C64.2487 105.511 64.1871 105.312 64.0473 104.225C64.5048 104.295 65.8894 105.196 66.0792 104.559C66.309 103.319 66.4652 102.242 66.5567 101.265C66.6053 100.431 66.0119 99.5536 66.0851 98.7046C65.8672 96.5212 66.0907 94.0778 65.0803 92.0665C69.1742 92.6112 70.1716 97.0567 71.2311 100.332C73.4108 107.078 74.9342 113.966 76.5567 120.767L75.7057 120.055ZM63.0953 104.611C62.9983 104.828 62.9842 105.035 62.9502 105.246C61.0245 104.895 61.3671 107.71 61.1871 109.25C60.8252 109.13 60.5702 109.093 60.1915 109.167C60.1361 108.66 60.4683 108.434 59.3043 108.379C53.8794 108.479 51.8166 114.125 49.9504 118.445C49.084 120.522 47.8538 120.845 46.0253 120.809C44.7988 120.833 43.5445 121.164 42.2913 121.124C46.8475 112.188 48.5052 99.3535 46.655 88.2208H46.6562C46.5437 87.5158 46.41 86.7823 46.2719 86.0725C50.1775 86.1133 54.7209 86.2066 58.4816 86.0452C58.9773 86.498 59.5879 86.7 60.2111 86.7046C60.2139 87.1988 60.2673 87.7421 60.3143 88.2348C56.7995 88.1479 52.8994 88.2016 49.339 88.2532C52.8993 88.3044 56.8177 88.3672 60.3193 88.2667C60.3134 89.2109 60.4088 90.0691 61.2522 90.5258C61.5744 92.9144 61.1581 95.4097 61.4492 98.188C61.6831 100.077 61.4907 103.695 63.2243 104.296L63.0953 104.611ZM38.3481 119.135L38.2125 119.372C37.9256 119.274 37.7495 119.296 37.4699 119.512C35.4361 120.606 32.5129 119.59 30.2891 119.518C30.7119 118.136 30.7283 115.932 28.802 115.904C29.4408 109.847 29.0105 103.838 29.109 97.7856C32.6167 97.1205 32.4988 96.7614 29.0918 96.1389C29.0706 92.7534 29.0449 89.3283 29.0471 85.9115C29.0466 84.2671 29.0314 82.6633 28.8804 81.0729C29.1976 80.42 29.127 79.7511 29.2907 79.0614C29.9821 78.6765 31.1798 79.1245 31.6099 78.4607C33.471 78.4334 35.3665 78.4161 37.2463 78.3167C37.4168 78.3219 37.4801 78.1642 37.5541 78.0493C37.8813 77.9636 38.4332 78.1595 38.7056 78.0207L39.0732 77.5486C40.6042 80.6585 41.792 84.3231 42.4935 88.0336C40.2815 88.0574 37.7491 88.0509 35.4668 88.0398C37.6891 88.2035 40.0878 88.3018 42.5456 88.3363C44.4525 97.7714 43.0868 111.01 38.3481 119.135ZM35.2879 123.61C30.6797 129.385 23.1543 131.31 16.9745 126.667C0.484947 114.189 1.22475 71.8936 22.8818 66.0429C22.294 68.2543 20.2544 77.4323 23.9413 77.694L23.9299 77.6642L24.1177 77.561C24.8918 77.8274 25.981 77.4573 26.2345 78.527C26.2444 78.529 26.6509 78.5643 26.6746 78.5667C26.4112 79.8957 26.4878 81.2736 26.4089 82.6237C26.0977 82.5056 25.7102 82.4356 25.3728 82.4633C24.1015 82.4043 24.1335 81.0223 24.1831 80.0609C24.2302 79.5905 24.0872 79.0519 24.1109 78.6104C24.1235 78.3037 24.1029 78.0647 23.986 77.8108C23.5949 79.0549 23.2252 80.6859 23.4575 81.9525C23.799 83.1351 25.3125 83.6999 26.4081 83.1205C26.3603 87.3774 26.3469 91.6015 26.3231 95.8212C25.6035 95.4454 24.9469 95.6836 24.2027 95.8842C23.2635 96.0811 22.1492 95.8024 21.2074 96.0285C21.0988 95.5656 20.6603 94.9992 20.1986 95.3731C19.611 95.3784 19.2881 95.9205 18.9964 97.1057C18.8146 98.0452 18.9208 99.2989 19.818 99.7502C20.3247 100.022 20.8319 99.8289 21.0816 99.2727C21.2232 99.3292 21.4491 99.5014 21.6101 99.446C23.1087 99.0843 24.7245 98.7185 26.3097 98.3775C26.3923 104.338 26.1267 110.256 26.6216 116.233C24.3598 116.423 20.0505 115.82 19.0653 117.8C18.16 118.189 17.5097 119.082 17.5122 119.981C17.4825 121.438 19.1087 121.928 20.3795 121.944C25.522 122.332 30.6159 123.023 35.7975 123.013L35.2879 123.61ZM44.608 78.1642C47.8789 78.6085 51.1637 78.6053 54.4414 78.7503C53.3718 85.9768 54.8671 81.7782 58.1924 85.84C54.3929 85.8356 49.805 85.7902 46.2323 85.8789C45.6771 83.1556 44.9276 80.5555 43.996 78.0726L44.608 78.1642ZM69.9302 41.4942C71.3722 43.4979 73.2672 45.2478 75.3933 46.4444C73.5568 46.5793 71.6871 46.7026 69.8765 46.955C69.6741 45.2199 69.4696 43.4843 69.2645 41.7497L69.9302 41.4942ZM132.395 117.324C132.224 115.618 130.284 114.989 128.865 115.459C128.068 113.353 125.345 113.609 123.592 112.68C120.074 110.986 116.473 107.67 112.401 108.975C112.036 107.977 111.627 107.019 111.187 106.182C111.359 106.269 111.58 106.26 111.735 106.107L111.736 106.108C111.888 105.935 112.035 105.742 112.054 105.529C112.583 104.939 112.804 104.006 112.94 103.311C112.295 101.115 111.512 99.0122 110.814 96.84C108.106 88.5573 106.201 80.8622 104.158 72.9411C101.885 67.0509 101.276 51.5954 93.0456 51.5658C93.019 51.154 93.0047 50.6796 92.8729 50.305C92.6377 50.6259 92.54 51.0999 92.508 51.5072C88.9854 51.4515 85.9407 52.1028 83.6171 53.106C79.1675 52.9096 75.2678 53.1737 70.1492 53.7752C70.7692 52.7109 70.355 51.5118 70.2964 50.3381C77.7179 50.6875 85.2611 50.0064 92.6477 49.5993C93.8395 49.4958 95.1044 49.561 96.2549 49.2629C97.503 48.9728 98.688 47.4177 97.4152 46.2338C96.554 45.7017 95.4836 45.99 94.5396 45.9428C89.7559 45.9425 84.8606 46.0359 80.2554 46.2039C85.9256 43.3339 88.7863 37.3404 92.1772 32.2284C93.8993 29.4356 95.1854 27.0857 96.2259 24.8302C96.4041 24.455 96.4539 24.0487 96.347 23.8422C96.307 23.6356 95.6641 23.6127 95.4901 23.5617C100.206 16.2295 107.448 19.4578 111.32 15.2094C110.586 15.2424 109.853 15.2766 109.12 15.3116L108.951 14.6116C110.335 13.9915 111.646 13.0286 113.078 11.5791C113.078 11.5761 113.076 11.5728 113.075 11.5696C110.7 12.3085 108.487 12.8465 106.309 13.2142L106.046 12.546C108.003 11.278 109.744 9.55341 111.082 7.55796C108.587 8.65468 106.241 10.2126 103.652 11.2108L103.262 10.6039C104.738 9.19978 108.046 7.09501 107.105 5.1296C103.428 6.89027 100.072 9.1693 96.5305 11.1587C96.5274 9.54454 97.6686 7.00612 96.9758 5.66034C96.2444 4.76249 95.8992 5.52639 95.5297 6.24471C95.5297 6.24471 93.9916 8.81706 93.6151 9.4465C92.2029 11.947 90.219 14.4186 90.2646 17.3748C89.037 16.7882 88.0717 18.9179 87.274 20.0808C85.0321 23.8714 77.4449 29.8222 75.7696 30.6329C68.9482 24.4834 69.9648 14.0696 62.7138 8.26148C60.3885 5.90112 58.6699 5.62766 55.9283 4.76014C55.2766 4.60443 54.5395 4.05494 53.9563 4.58216C53.0911 3.8683 52.2489 1.56326 51.8918 0.57851C51.671 -0.374149 51.3027 -2.71898 50.787 -3.15863C50.2714 -3.59829 41.8737 -3.96467 41.1371 -3.74484C40.4005 -3.52501 40.6951 -1.76639 40.6951 -1.76639L39.9196 1.42228L39.8529 1.40367C39.8408 1.40829 39.7371 1.48794 39.7241 1.49688C39.172 1.49285 38.6415 1.23323 38.1114 1.23352C37.5527 1.24532 37.1004 1.62452 36.6719 1.94921C35.9064 2.52494 35.1149 3.1203 34.1843 3.47965C23.3919 6.9094 21.966 12.0718 18.737 21.9903C16.0798 22.0652 13.8427 21.7349 11.5299 21.6067C10.7159 21.7096 10.9805 23.2826 11.0054 24.1815C10.9285 26.3931 12.5903 26.1652 14.2385 26.1454C15.3286 26.1584 16.4257 26.2664 17.504 26.1393C16.3426 31.4731 14.0063 39.8122 16.5629 44.7888C18.633 48.6881 20.3899 49.4287 22.0651 49.5425C22.4942 53.2751 22.0669 56.6178 22.1446 60.2275C-2.55397 66.8489 -3.69053 105.283 7.34951 123.997C16.2141 139.289 32.886 138.451 41.1495 123.232C43.1478 124.316 47.1099 124.241 49.7485 124.004C51.8249 123.882 52.5062 123.006 53.2479 121.088C54.0766 119.223 54.8645 117.383 55.7081 115.519C56.5133 113.547 58.1222 111.28 61.0253 111.369C61.0118 112.531 60.795 113.84 61.5852 114.763C58.6405 115.759 60.4104 120.399 61.2661 122.566C57.2221 128.054 58.5846 137.673 64.2416 141.654C73.5847 147.893 82.6032 136.093 79.8741 127.053C80.3214 127.263 81.1518 127.555 81.5091 127.095C81.6546 126.988 81.4535 126.513 81.4177 126.358C87.6839 125.992 93.8314 125.259 100.045 124.679C99.8335 130.42 105.557 136.079 111.301 135.952C118.796 136.298 123.287 126.472 121.019 120.11C123.886 120.031 126.795 119.791 129.784 119.388C131.418 119.226 132.459 118.841 132.395 117.324Z" fill="white"/>
<path fill-rule="evenodd" clip-rule="evenodd" d="M40.4288 -1.47331C40.2511 -1.41542 40.271 -1.79426 40.5193 -1.75608C40.7252 -1.72415 40.8015 -1.44888 40.839 -1.2742L40.8449 -1.24608C41.189 0.35749 40.7925 2.05148 39.9838 3.45896C39.7809 3.78812 39.5705 4.23986 39.1683 4.32802C39.3591 5.68435 39.6206 7.02962 39.9447 8.36031C41.1005 8.76333 42.1885 9.3606 43.3421 9.77395C45.5621 10.5592 47.9378 10.7693 50.2738 10.936C51.8809 11.0232 53.534 10.9527 55.0605 10.4047C55.7061 10.2294 56.2535 9.65561 56.9308 9.65737C56.4763 8.42267 55.9732 7.20622 55.4148 6.0119C53.6784 6.01138 52.3667 4.33527 51.851 2.84564C51.6631 2.25211 51.6086 1.63 51.4893 1.02181L51.445 0.794681C51.4061 0.592327 51.3707 0.388705 51.3552 0.183533C51.35 0.107326 51.4635 -0.561683 51.437 -0.656942C51.4341 -0.62917 51.3978 -0.651226 51.381 -0.652618C51.3353 -0.708894 51.3751 -0.821812 51.4657 -0.817489C51.6123 -0.821812 51.6852 -0.504528 51.7184 -0.418062C52.4227 1.02005 52.6911 2.78761 53.9484 3.86733C54.5761 3.47325 55.3491 3.98926 55.9872 4.14746L56.1719 4.20562C59.1549 5.14057 60.5356 5.36717 62.9314 7.74201C67.0241 10.9184 68.2301 14.9725 69.8411 19.6427L69.9363 19.8964C71.485 24.008 72.7353 26.5585 75.8174 29.9267C76.9359 29.4076 83.8846 23.8788 86.2701 20.6306L86.341 20.5329C87.0281 19.6019 88.5921 16.3434 89.8725 16.6529C89.9875 13.7881 91.9027 11.4168 93.2536 9.00375L95.1711 5.7972C95.356 5.4879 95.5327 5.06151 95.795 4.8101C96.2407 4.38297 96.981 4.77573 97.2477 5.20879C97.9813 6.43843 97.058 8.78868 96.922 10.2253C100.21 8.33093 103.41 6.25876 106.808 4.56177C107.094 4.42474 107.45 4.52952 107.541 4.85853C108.115 7.22051 104.984 9.19749 103.472 10.6106C105.945 9.62189 108.265 8.21446 110.659 7.0361L110.819 6.95789C111.144 6.79008 111.583 7.14694 111.353 7.48987C109.999 9.51441 108.248 11.2694 106.205 12.5928C108.484 12.2081 110.727 11.6439 112.94 10.9544C113.3 10.8422 113.557 11.3178 113.302 11.5727L113.181 11.694C111.971 12.9024 110.636 13.9796 109.06 14.6856C109.796 14.6503 110.532 14.6159 111.269 14.5829C111.634 14.5669 111.756 15.0124 111.548 15.2534C110.73 16.2008 109.628 16.8157 108.453 17.2197C103.534 18.5356 99.4043 18.4228 96.086 23.0433C96.9163 23.1921 96.7952 24.1138 96.5331 24.6916L96.5169 24.7266C95.332 27.295 93.9298 29.7588 92.445 32.1664C89.2649 36.8664 86.6529 42.5151 81.6192 45.5295C84.8693 45.4194 88.1211 45.3561 91.3737 45.3295C92.2748 45.3219 93.1759 45.3176 94.0769 45.3165L94.7527 45.3163C95.6462 45.3163 96.8255 45.1295 97.5961 45.6819C99.0765 46.8666 97.9215 49.0507 96.2819 49.3626C95.249 49.6387 94.1328 49.5971 93.0731 49.6777C93.2751 50.0659 93.3249 50.5441 93.3508 50.96C97.0742 51.1909 99.2475 54.0973 100.263 57.42C102.299 63.7827 103.858 70.2874 105.546 76.748L105.737 77.4973C107.366 83.8657 109.079 90.2157 111.122 96.4665C111.818 98.6311 112.612 100.766 113.252 102.948C113.309 103.142 113.267 103.319 113.169 103.46C113.048 104.312 112.501 105.742 111.581 105.968C111.959 106.706 112.298 107.506 112.587 108.275C116.738 107.176 120.225 110.421 123.715 112.093C125.472 113.008 128.035 112.752 129.023 114.772C130.617 114.375 132.558 115.257 132.72 117.031C132.86 118.856 131.299 119.384 129.768 119.493C127.014 119.866 124.244 120.11 121.466 120.201C123.035 125.464 120.435 133.127 115.072 135.291C108.019 138.252 99.8245 132.19 99.6439 124.821C93.7199 125.379 87.795 126.075 81.8578 126.436C82.1036 127.277 80.9827 127.626 80.3389 127.379C81.9081 134.471 77.2746 143.476 69.5607 143.447C59.6207 143.38 55.6029 129.619 60.8092 122.256L60.7594 122.128C59.9313 119.998 58.3733 115.616 61.0051 114.354C60.4496 113.509 60.5889 112.447 60.6074 111.492C58.1692 111.602 56.9092 113.346 56.0034 115.405C55.1684 117.249 54.3728 119.11 53.5496 120.96C52.7742 122.964 52.009 123.976 49.728 124.109L49.4943 124.126C46.9487 124.31 43.565 124.461 41.2677 123.444C35.8161 133.367 24.3774 139.254 14.4768 132.14C-5.84696 118.181 -5.09817 65.8712 21.7373 59.6754C21.7482 58.6783 21.7625 57.6816 21.78 56.6844C21.7225 56.0491 21.7351 55.4152 21.7926 54.7711L21.805 54.5077C21.8786 52.8821 21.8958 51.2392 21.6943 49.6234C18.4379 49.3604 16.4655 45.2143 16.137 44.5868C13.6266 39.7918 15.9486 30.9193 16.9933 26.2837C15.9799 26.3638 15.0536 26.2409 14.0629 26.2524L13.7193 26.2582C11.8781 26.2867 10.6415 26.2099 10.5949 23.9249C10.5972 22.997 10.1825 21.2768 11.4089 20.9887C11.9628 20.8781 12.617 21.0737 13.1717 21.128C14.9228 21.2691 16.6762 21.3762 18.4327 21.3654C19.9566 17.0193 21.1495 12.3687 24.0518 8.68939C26.5171 5.57634 30.4603 4.35044 34.0052 2.87935C34.9673 2.50865 35.7798 1.86653 36.6086 1.24589L36.6658 1.20168C37.0773 0.887012 37.5248 0.621424 38.0594 0.60714C38.5791 0.593291 39.0625 0.827774 39.5711 0.861994C39.6607 0.795533 39.7774 0.753839 39.8787 0.78205C40.1495 0.0364679 40.3499 -0.738351 40.4486 -1.5238L40.4402 -1.55995C40.425 -1.61979 40.4191 -1.60468 40.4235 -1.51361C40.4472 -1.51361 40.4508 -1.48056 40.4288 -1.47331ZM69.5604 118.606C68.4407 118.606 67.366 118.843 66.3664 119.275C66.1342 120.558 67.1947 122.358 67.5511 123.65C67.5655 124.184 67.6631 124.728 67.7885 125.256C67.8774 126.797 68.5326 128.21 68.8365 129.668C68.8929 129.945 69.319 129.828 69.2626 129.551C68.9962 128.243 68.6402 126.957 68.3338 125.658C68.4777 125.745 68.7215 125.628 68.6686 125.415C68.5549 124.955 68.5551 124.491 68.5733 124.025C76.1547 124.978 75.7113 137.521 67.9769 137.694C62.9576 137.819 60.1605 130.971 62.9977 126.87C62.532 125.874 62.0274 124.895 61.5502 123.896C57.486 130.662 61.7424 142.193 69.5604 141.981C82.1678 141.627 82.1735 118.964 69.5604 118.606ZM115.079 120.08C116.575 122.857 116.415 126.588 114.517 129.147C112.371 132.057 107.685 131.716 105.582 128.924C104.751 127.929 104.11 126.71 104.073 125.394C104.07 125.103 104.258 124.59 104.004 124.362L102.379 124.535C101.566 124.621 100.753 124.707 99.94 124.79C102.295 131.055 108.084 136.728 115.152 133.59C119.532 131.186 121.155 125.442 120.516 120.755C120.48 120.531 120.561 120.347 120.694 120.223C118.822 120.266 116.943 120.276 115.079 120.08ZM38.2978 72.5362C25.8054 52.8718 9.34948 65.6032 5.1371 83.6513C1.97369 96.0782 3.0964 111.249 9.70144 122.249C17.4581 135.349 30.5488 135.333 38.2976 122.249C44.1622 112.484 45.7047 99.4273 43.7626 87.9251C43.7633 88.0282 43.7271 88.1315 43.6522 88.2142C45.9348 102.022 43.3663 119.106 32.3648 127.496C24.2434 133.461 14.7471 128.584 10.188 120.412C1.364 105.595 2.04363 78.4266 16.5182 67.2895C20.6501 64.3583 25.5028 63.8018 29.978 65.8973C30.0237 65.6205 30.1961 65.9257 30.2631 66.0351C37.963 70.1037 41.7687 78.8424 43.5285 87.5408C43.6347 87.5995 43.7056 87.6894 43.7394 87.789C43.4985 86.3832 43.2054 85.0011 42.8618 83.6513C41.7856 79.4775 40.2497 75.7383 38.2978 72.5362ZM66.6003 130.411C65.9342 129.988 66.2512 131.257 66.4826 131.493C66.649 131.727 66.9789 131.529 66.8643 131.271C66.7222 131.065 66.9749 130.435 66.6003 130.411ZM22.3237 66.3077C3.63527 71.5327 2.41172 105.873 11.4525 119.659C15.6144 127.084 24.0696 131.759 31.5147 126.299C32.7345 125.441 33.8874 124.375 34.9651 123.113C30.1786 123.074 25.4013 122.435 20.625 122.076L20.5166 122.067C19.7933 122.004 19.0514 121.97 18.3849 121.659C16.3646 120.674 16.9152 118.146 18.751 117.264C19.7566 115.292 24.1969 115.731 26.1829 115.627C25.7371 109.957 25.9689 104.254 25.9045 98.5711C24.4842 98.8788 23.0684 99.2012 21.6548 99.542C21.4868 99.5829 21.3167 99.5588 21.173 99.4877C20.8281 100.03 20.1515 100.091 19.6092 99.8167C18.5123 99.2649 18.3871 97.8295 18.5941 96.7691L18.6158 96.6775C18.7966 95.928 19.1581 94.8112 20.0401 94.7534C20.5963 94.4086 21.2014 94.8157 21.4043 95.3571C22.3356 95.2023 23.1799 95.4465 24.0879 95.2649C24.6897 95.1437 25.2967 94.8372 25.9155 95.0486C25.9369 91.1563 25.9505 87.2636 25.9921 83.3714C24.8249 83.7606 23.4006 82.9561 23.0618 81.7945C22.8327 81.0215 23.0353 80.1348 23.1428 79.3588L23.1631 79.2135C23.2322 78.727 23.3185 78.2183 23.4846 77.7467C20.8562 77.3855 21.394 71.9042 21.5936 69.9677C21.8383 68.6977 21.9909 67.5944 22.3237 66.3077ZM65.7248 88.4071C64.5576 88.3963 63.7235 89.6539 64.3974 90.6551C65.7534 92.1788 67.7134 90.8053 69.8148 94.913C73.3015 103.134 74.9101 112.026 77.08 120.653C78.1712 121.782 78.8342 123.217 79.6354 124.558C79.9311 125.063 80.0214 125.774 80.5584 126.093C80.6623 126.142 80.7455 126.15 80.8273 126.137C79.713 125.523 79.9465 122.487 80.1761 121.383L80.1662 121.384C80.0649 121.39 79.6948 121.471 79.8645 121.297L80.045 121.239L80.2254 121.182L80.238 121.137C77.1029 113.894 76.4215 105.807 74.1748 98.2633L73.9744 97.5939C73.1982 95.0155 72.3021 92.3191 70.3378 90.4049C70.2629 90.4006 70.1864 90.3731 70.1161 90.3142L70.0454 90.2528C68.8861 89.2546 67.4614 88.4488 65.875 88.5944C65.8117 88.5989 65.8014 88.5022 65.8603 88.4868C65.8974 88.477 65.9348 88.4697 65.9721 88.4612C65.8893 88.4448 65.8069 88.4266 65.7248 88.4071ZM60.1492 108.878C59.8147 109.011 59.4744 108.918 59.0965 108.926C58.7009 108.936 58.3164 109.001 57.9365 109.109C51.6922 110.907 52.6129 120.246 48.0661 121.329C46.9297 121.549 45.7857 121.379 44.646 121.227C43.9188 121.253 43.2507 121.231 42.5546 121.081C42.2276 121.735 41.885 122.373 41.5285 122.995C42.357 122.866 43.201 122.9 44.0383 122.885C46.0073 122.916 47.9762 122.836 49.9313 122.592C50.6274 122.513 51.2698 122.32 51.6817 121.72C52.6113 120.156 53.2476 118.418 54.0838 116.801L54.1937 116.555C55.3904 113.876 56.9737 110.661 60.3407 110.653C60.3598 110.46 60.5116 110.305 60.684 110.257C60.7031 109.979 60.7223 109.7 60.7429 109.421C60.5483 109.235 60.405 108.996 60.1492 108.878ZM18.5889 117.994C18.2244 118.604 18.2621 119.674 18.9152 120.096C19.358 120.347 19.9893 120.319 20.4799 120.354L21.3249 120.416C21.6065 120.437 21.8881 120.458 22.1696 120.48L22.5918 120.514C26.6197 120.833 30.6435 121.182 34.666 121.546L34.6842 121.539C34.7402 121.519 34.8281 121.491 34.8281 121.491L34.8906 121.462C34.9799 121.42 34.8717 121.459 34.8611 121.464L34.8605 121.464C35.3091 121.177 35.7923 121.506 35.8984 121.942C36.3006 121.405 36.6903 120.84 37.0674 120.245C36.5374 120.4 35.9743 120.423 35.4262 120.388C35.0493 120.814 34.3725 120.658 33.869 120.648C30.3105 120.365 26.7615 119.957 23.2143 119.561C22.3133 119.456 21.4117 119.351 20.5108 119.245L20.3074 119.227C19.5109 119.152 18.5529 118.999 18.5889 117.994ZM96.0521 111.054C95.6786 111.458 94.9633 111.568 94.4867 111.804C93.9365 112.077 93.4113 112.408 92.9397 112.802C90.8045 114.77 88.6311 117.901 85.2884 116.518C84.586 116.247 83.9314 115.817 83.4924 115.199C83.297 115.295 83.0706 115.112 82.8726 115.086C83.0439 116.005 83.116 116.877 83.376 117.774C83.4887 118.166 83.6162 118.556 83.7731 118.933C83.9346 119.319 84.226 119.71 84.2151 120.143C86.7477 119.604 89.308 119.258 91.8753 118.945C92.8393 118.91 94.4674 118.395 95.2653 118.885C96.2108 119.47 95.7867 120.554 96.2907 120.956C97.0602 121.33 98.0545 121.048 98.8874 121.026C102.516 120.719 106.178 120.515 109.801 120.213C111.976 119.816 110.553 119.152 111.49 118.62C111.486 115.291 107.465 115.642 105.106 115.348C104.395 115.631 103.676 115.891 102.948 116.129C102.589 116.246 102.341 115.768 102.59 115.517L103.095 115.006C102.75 114.928 102.407 114.841 102.068 114.741C101.591 114.956 101.089 115.117 100.622 115.355L100.535 115.401C100.216 115.572 99.8399 115.223 100.031 114.899C100.179 114.649 100.296 114.391 100.387 114.123C99.9403 113.922 99.5069 113.693 99.0946 113.431L99.0124 113.378L97.673 114.123C97.4109 114.268 97.0164 114.023 97.132 113.709C97.2692 113.277 97.675 113.093 97.9835 112.803C97.949 112.729 97.9287 112.631 97.9453 112.556C97.3424 112.031 96.8164 111.361 96.0521 111.054ZM113.901 121.085L113.858 121.092C113.861 121.097 113.863 121.101 113.866 121.105L113.885 121.103L113.867 121.106C113.879 121.124 113.895 121.137 113.916 121.142C113.911 121.129 113.908 121.117 113.905 121.104L113.901 121.085ZM65.0213 78.6472L65.1291 79.649C65.415 82.3186 65.6871 84.9756 65.9001 87.6485C65.9283 87.6747 65.9514 87.7052 65.9707 87.7381L66.6045 87.8521C67.7108 88.0531 68.6274 88.2613 69.6305 89.0173C72.9728 90.7962 74.0927 94.7136 75.1176 98.0743C77.3645 105.443 78.1377 113.225 81.175 120.352C81.2641 120.557 81.2589 120.741 81.1971 120.89C81.723 120.739 82.2519 120.599 82.7838 120.469C82.0691 119.1 81.7606 117.05 81.9597 115.519L81.8819 115.517C81.6337 115.51 81.3341 115.51 81.1358 115.357C80.7445 115.466 80.413 115.095 80.3759 114.743L80.3744 114.726C79.292 102.654 78.5062 90.4584 75.5751 78.6568C75.1938 79.0419 74.5053 78.9533 73.9928 78.9757L73.9655 78.977C73.5036 78.999 73.041 79.0166 72.5784 79.0314L72.3777 79.0339C69.9341 79.0689 67.417 79.2446 65.0213 78.6472ZM47.0451 88.3315C48.7332 98.8959 47.2401 111.578 42.8463 120.485C43.9088 120.463 44.9425 120.179 46.0028 120.183C47.8896 120.214 48.8103 119.83 49.569 118.042C51.3914 113.907 53.2119 108.598 58.3518 107.813L58.5924 107.79C59.3103 107.723 60.5171 107.65 60.5175 108.496C60.6105 108.486 60.7168 108.495 60.8121 108.521C60.8276 108.323 60.8431 108.125 60.8593 107.928L60.8728 107.538C60.9176 106.307 61.05 104.603 62.5919 104.617C62.6125 104.481 62.6574 104.347 62.7119 104.213C61.1595 103.451 61.214 99.5361 61.0398 97.9592C60.8977 95.7155 60.9089 93.4638 60.9602 91.2171C60.9661 90.9942 61.0088 90.6975 60.9219 90.5158C60.1214 89.9942 59.9459 89.3135 59.9193 88.382C55.6334 88.4899 51.3342 88.3751 47.0451 88.3315ZM65.6784 92.3396C66.0527 93.1806 66.0784 94.151 66.1866 95.0567C66.2765 96.1346 66.3399 97.2125 66.4032 98.2918L66.4171 98.5391C66.4389 98.9158 66.47 99.2818 66.608 99.6423L66.6399 99.7265C66.8022 100.159 66.9263 100.561 66.8813 101.039C66.7767 102.156 66.5999 103.286 66.3952 104.388C66.1088 105.322 65.0423 104.726 64.4357 104.509L64.4422 104.571C64.4828 104.974 64.4813 105.378 64.2552 105.689C65.9301 105.635 66.0497 106.834 65.8596 108.172L65.8484 108.349C65.7317 110.234 65.6929 112.21 66.2087 114.033C67.0792 114.407 67.7112 115.109 68.317 115.805C68.6735 116.217 69.1192 116.656 69.3998 117.143C71.763 117.101 74.0158 117.937 75.9007 119.514L75.678 118.574C74.2201 112.407 72.7927 106.225 70.8408 100.191C69.8529 97.3363 69.0824 93.1696 65.6784 92.3396ZM29.3747 87.5086C29.3799 90.1927 29.3991 92.8761 29.416 95.5601C30.2256 95.6737 31.0071 95.9067 31.7607 96.2423C32.2388 96.4548 32.0193 97.0997 31.6288 97.2469C30.9173 97.5151 30.1733 97.6698 29.43 97.8243C29.3534 103.658 29.742 109.521 29.1611 115.334C30.9078 115.594 31.0348 117.554 30.7044 118.93C32.6384 119.1 34.588 119.586 36.5274 119.246C37.0988 119.215 37.4627 118.573 37.986 118.693C42.5549 110.717 44.0455 98.2895 42.1966 88.4377C37.9143 88.3689 33.6161 88.1064 29.3747 87.5086ZM28.2035 98.0816C27.7983 98.1666 27.3939 98.2523 26.9888 98.338C26.9288 104.104 27.1729 109.894 26.7155 115.646C26.8867 115.637 26.8511 115.749 26.7052 115.759C26.6963 115.858 26.6868 115.956 26.6772 116.054C26.6499 116.346 26.2492 116.345 26.2219 116.054C26.216 115.995 26.2109 115.936 26.2057 115.877C25.4337 116.045 24.65 116.165 23.872 116.294C22.7259 116.576 19.9714 116.393 19.7653 117.877L20.6566 117.954C23.6639 118.216 26.3059 118.462 29.2878 118.775C29.4366 117.864 30.1455 116.517 29.0278 115.939C28.8665 116.091 28.5556 116.023 28.529 115.734C27.9127 109.874 28.2892 103.964 28.2035 98.0816ZM116.818 109.957C113.256 108.539 111.404 110.191 108.55 112.006C107.076 112.836 105.065 113.196 103.581 112.232C102.9 112.271 102.581 111.526 102.638 110.932C102.637 110.891 102.636 110.851 102.636 110.81C101.806 111.308 102.32 112.688 102.143 113.502C103.837 114.031 105.599 114.161 107.358 114.287C109.637 114.338 112.385 115.453 112.653 117.986L112.66 118.063L112.835 118.058C112.835 117.802 112.997 117.538 113.32 117.512L113.341 117.511C118.049 117.216 122.807 117.231 127.492 116.755C128.055 116.596 128.256 116.227 128.105 115.679C127.742 114.359 125.882 114.295 124.787 113.987C123.467 113.618 122.283 112.97 121.121 112.274C120.626 112.412 120.125 112.529 119.62 112.626C119.375 112.673 119.054 112.458 119.167 112.175L119.249 111.969C119.331 111.764 119.433 111.529 119.561 111.331C119.183 111.106 118.801 110.887 118.413 110.682C117.756 110.914 117.133 111.217 116.541 111.593C116.184 111.819 115.818 111.32 116.085 111.027L116.095 111.017C116.404 110.702 116.643 110.347 116.818 109.957ZM93.163 110.39C89.988 111.934 86.6198 113.086 83.3721 114.481L83.4377 114.506C83.5514 114.549 83.6811 114.606 83.723 114.709C84.9445 115.671 86.6621 116.064 88.1119 115.38C90.2034 114.263 91.241 111.859 93.3803 110.773C93.2926 110.652 93.219 110.523 93.163 110.39ZM62.9793 106.129C62.8747 106.112 62.5661 105.977 62.4836 106.013C62.273 106.536 62.2666 107.155 62.2087 107.713C62.0129 109.891 61.6104 112.044 61.3875 114.215C62.4905 113.913 63.6247 113.734 64.7598 113.709C64.6675 113.036 64.5928 112.367 64.5535 111.69C64.4806 110.372 64.5341 109.043 64.7325 107.738L64.7462 107.667C64.9611 106.531 64.7903 106.48 63.7145 106.08C63.4832 106.159 63.2254 106.172 62.9793 106.129ZM87.2161 54.7608C85.3777 53.0135 82.6368 53.2257 80.2778 53.2162C75.248 53.2151 70.2292 53.6705 65.2688 54.478C65.1284 54.7237 64.7338 54.7793 64.5432 54.5967C63.1775 54.8239 61.8162 55.073 60.4578 55.339C60.8335 57.7029 61.1334 60.0799 61.4685 62.4497L61.49 62.5957C61.6377 63.6242 61.7103 64.7753 61.0073 65.624C60.9875 68.2498 60.8868 70.8849 60.877 73.5144C61.264 73.1478 61.8884 73.1897 62.3863 73.0989C63.4061 72.8657 64.377 72.6973 65.411 72.6402C66.4518 72.4819 67.4927 72.3236 68.5343 72.1661C68.6949 72.1411 68.8238 72.21 68.9041 72.3134C70.2367 72.1571 71.5638 71.8904 72.9015 71.8042L72.8222 71.5677C72.4268 70.3786 72.0655 69.0882 72.634 67.9062C72.7689 67.6293 73.2099 67.6455 73.3495 67.9062C73.8397 68.8209 73.8607 69.8636 74.049 70.8634C74.157 71.4368 74.3807 72.0466 74.4848 72.6512C75.0375 73.5607 75.3134 74.6273 75.6732 75.624C79.6041 87.9671 80.077 101.036 81.5573 113.815C83.8534 112.866 86.1782 111.978 88.4825 111.051C90.138 110.246 93.8942 109.615 93.7093 107.289C93.7179 107.099 93.7067 106.909 93.6848 106.721C93.7299 106.647 93.7931 106.585 93.8672 106.537C93.1069 103.561 92.785 100.489 92.5906 97.4308C92.0852 89.0255 91.8356 80.6047 91.5779 72.1887L91.5658 71.8324C91.3711 65.995 91.3084 59.3574 87.2161 54.7608ZM93.3916 88.4847C93.6928 94.0927 93.5595 99.7798 94.9066 105.271L94.9479 105.437C95.0781 105.964 95.4242 106.706 95.2044 107.257C95.1964 107.93 95.4349 108.98 94.8531 109.455C94.6045 109.636 94.2845 109.748 93.9846 109.862C94.1301 110.03 94.3337 110.146 94.5347 110.215L94.5683 110.199C95.126 109.939 96.1058 109.762 96.2458 110.538C97.3007 110.62 98.3209 111.625 99.1717 112.162C99.6071 112.437 100.058 112.679 100.521 112.891C100.668 111.777 101.323 110.365 102.635 110.401C102.635 109.727 102.52 109.062 102.419 108.398C101.809 108.495 101.2 108.535 100.583 108.509C100.173 108.803 99.768 108.479 99.7148 108.038C97.8242 101.495 95.7113 94.9245 93.3916 88.4847ZM110.541 105.524C108.023 106.31 105.259 106.327 102.841 107.411C103.567 108.446 103.846 109.698 104.023 110.928C104.189 111.056 104.3 111.26 104.309 111.481C104.314 111.558 104.306 111.636 104.283 111.709C106.973 112.27 108.946 110.001 111.11 108.854C110.815 107.781 110.674 106.633 110.541 105.524ZM104.031 111.027L104.031 111.043C104.028 111.167 104.126 111.128 104.031 111.027ZM102.288 107.643C102.247 107.661 102.207 107.681 102.165 107.699C102.208 107.693 102.251 107.687 102.293 107.68C102.291 107.668 102.29 107.655 102.288 107.643ZM96.0322 53.3144C93.0963 51.3387 87.2404 52.2617 83.7613 52.4944C90.6347 53.0125 91.7723 62.4053 92.3181 67.8113C92.7571 73.6184 92.9203 79.446 93.2412 85.2611C95.9784 92.5348 98.1997 99.9954 100.54 107.403C102.442 106.343 104.52 105.668 106.673 105.319L106.983 105.274C108.786 105.012 110.619 104.683 112.104 103.564C106.787 90.6454 104.561 76.6995 100.519 63.3684C99.3314 60.0326 98.9393 55.6559 96.0322 53.3144ZM111.741 104.992C111.64 105.052 111.536 105.108 111.43 105.16C111.486 105.148 111.545 105.146 111.605 105.154C111.651 105.102 111.701 105.042 111.741 104.992ZM63.4626 77.0909C62.9772 76.2821 61.9044 75.5492 60.9529 75.9005C62.3862 76.7712 62.0748 79.2884 62.1802 80.7606L62.1779 80.8437C62.1428 82.2327 62.2613 85.1645 61.4935 86.1551C61.5472 86.7938 61.5482 87.4557 61.6136 88.0984C61.6335 88.3337 61.5871 88.7733 61.7263 88.9814C63.2633 89.8382 62.5179 91.893 62.6096 93.3193C62.5399 96.0498 62.7318 98.7753 62.8114 101.503C62.8064 102.208 62.7375 102.96 62.9734 103.635C63.2755 102.993 64.1358 103.036 64.3229 103.686C64.4737 103.489 64.7767 103.474 65.036 103.509C65.1274 102.644 65.2681 101.779 65.2983 100.913C65.313 100.482 65.0581 100.127 64.9645 99.7156C64.7763 98.153 64.9905 96.5563 65.0095 94.9848L65.0141 94.9379C65.0746 94.2881 65.1217 92.6797 65.4905 92.2854C63.1037 91.8586 62.3485 88.8685 64.678 87.7642C64.6461 87.6183 64.6767 87.4643 64.7775 87.354C64.5791 84.9884 64.3226 82.6258 64.0975 80.2616C64.001 79.1968 64.0047 78.0465 63.4626 77.0909ZM20.1767 97.2468C20.3571 97.0038 19.9679 96.7414 19.8094 96.9993C19.6459 97.2746 19.5508 97.6113 19.6175 97.9284C19.6544 98.1041 19.9436 98.153 20.0214 97.9809C20.0883 97.8395 20.1119 97.6879 20.1451 97.5365C20.2343 97.4677 20.2354 97.338 20.1767 97.2468ZM21.5355 95.8187C21.5428 95.8605 21.5495 95.903 21.5553 95.9456C21.6216 95.9213 21.6902 95.9016 21.7609 95.884C21.6857 95.8634 21.6106 95.8415 21.5355 95.8187ZM27.3239 78.407C27.1427 78.5198 26.9284 78.5909 26.7037 78.6239C27.1136 84.212 26.8814 89.8394 26.9799 95.4414C27.384 95.5338 27.8054 95.4566 28.2153 95.4883C28.3155 90.599 28.128 85.7136 28.4429 80.828C28.1679 80.1288 27.9922 79.2799 28.1961 78.5352C27.9015 78.5066 27.6098 78.4648 27.3239 78.407ZM58.3135 86.1566C54.6793 86.2983 51.0203 86.2358 47.3811 86.1911C47.1512 86.1845 46.9148 86.1829 46.6754 86.1816C46.7689 86.6703 46.8566 87.1626 46.9376 87.6572C51.2454 87.6078 55.5626 87.5069 59.8678 87.5994L59.8495 87.399C59.8314 87.1969 59.8151 86.9901 59.8096 86.7846C59.2747 86.7441 58.7518 86.5161 58.3135 86.1566ZM38.9547 77.9849C38.6902 78.3246 38.1107 78.1066 37.7267 78.1388C37.6288 78.2949 37.4608 78.4099 37.2236 78.4224C35.3975 78.519 33.5677 78.5381 31.7386 78.5645C31.205 79.18 30.2567 78.8249 29.57 79.0745C29.4858 79.5001 29.4814 79.9418 29.3843 80.3693C29.3431 80.5437 29.2819 80.7086 29.2134 80.8705C29.3622 82.4877 29.3733 84.1269 29.3733 85.7484C30.2772 85.486 31.2549 85.5304 32.1887 85.4707C34.2136 85.4193 36.2391 85.4396 38.2645 85.4356C39.1593 85.4194 40.171 85.4732 41.0438 85.4619C41.2673 85.3816 41.5835 85.5093 41.6294 85.766C41.7969 86.4205 41.052 86.4693 40.607 86.4366C40.07 86.4248 39.533 86.4131 38.9967 86.4021C36.8 86.3479 34.6029 86.3079 32.4082 86.2094C31.4016 86.127 30.3443 86.1537 29.3733 85.8532L29.3737 87.0745C29.374 87.1962 29.3743 87.3081 29.3747 87.4016C33.5835 87.3851 37.7946 87.4492 42.0044 87.4111C41.3589 84.1486 40.3025 80.8209 38.9547 77.9849ZM93.3111 86.7325C93.294 86.947 93.3706 87.1273 93.4716 87.3121C93.4177 87.1191 93.3635 86.926 93.3111 86.7325ZM44.5112 78.2663C45.3185 80.4807 45.9792 82.8181 46.4883 85.2458C50.1118 85.1673 53.7289 85.2059 57.3522 85.212C56.0172 83.6513 54.6005 84.08 53.9356 83.0878C53.454 82.3187 53.8562 79.7989 53.982 78.8393C51.161 78.7202 48.3271 78.7062 45.5188 78.3879C45.2006 78.3462 44.8544 78.3175 44.5112 78.2663ZM24.563 77.4228C24.496 77.4786 24.4231 77.5284 24.3457 77.5709C24.5395 78.0773 24.3409 78.5874 24.5121 79.1033C24.5194 79.7126 24.4883 80.3259 24.5188 80.905C24.5164 81.4564 24.8607 81.8022 25.3571 81.8377C25.5369 81.848 25.7748 81.8063 26.0201 81.8788C26.0689 80.7998 26.0265 79.7032 26.2043 78.6364C26.0906 78.6262 25.9789 78.6071 25.8718 78.5799C25.8555 78.0718 25.3568 77.5824 24.8449 77.842C24.7427 77.7065 24.6495 77.5637 24.563 77.4228ZM57.5519 77.0394C57.3975 77.0576 57.2479 77.0918 57.1041 77.1503C57.1377 78.5278 59.1367 77.5605 59.4102 79.2508C59.4556 79.6491 59.4063 80.0495 59.3929 80.4485C59.3865 80.6527 59.2253 80.9733 59.4488 81.0926C59.5638 81.2588 59.879 81.2263 59.851 80.9872C59.8459 80.9433 59.8424 80.8984 59.8393 80.8534C59.9378 80.6799 59.9976 80.4978 60.0298 80.31C60.1484 80.2489 60.1129 80.0922 60.0602 79.9818C60.0295 79.7424 60.1298 79.3207 59.8666 79.1933C59.8396 77.6037 59.2465 77.3513 57.7631 77.222C57.6624 77.2115 57.5985 77.261 57.5698 77.3299C57.5306 77.2448 57.5318 77.1428 57.5519 77.0394ZM56.2369 56.1215C55.1753 56.4579 53.9898 56.528 52.8874 56.7378C45.768 57.7296 38.9277 60.6517 31.6679 60.573C31.4196 60.5614 31.1868 60.5247 30.9688 60.4654C30.9695 60.5782 30.985 60.694 31.0093 60.8061C31.1456 60.9219 31.2303 61.1043 31.2568 61.289C36.7061 64.0378 40.8196 69.624 43.3995 75.5045C46.5962 75.0715 49.79 74.5803 52.9935 74.1826L53.5749 74.1077L54.7378 73.9591C55.3043 73.8879 55.9354 73.709 56.4984 73.8287C56.7552 71.2718 56.7559 68.7784 56.9492 66.2057C56.3835 65.7552 56.5168 64.7931 56.4941 64.1284C56.3649 61.4607 56.3536 58.7888 56.2369 56.1215ZM59.9105 66.3494C59.7175 66.4 59.5186 66.4183 59.3322 66.3912C58.8348 66.6329 58.0984 66.5077 57.5474 66.4513C57.6115 67.0448 57.6667 67.6398 57.6903 68.2362C57.7831 70.5621 57.7463 72.9362 57.5363 75.2605C58.291 75.3133 59.0459 75.4054 59.7993 75.4663C59.8063 72.433 59.9484 69.3867 59.9105 66.3494ZM31.1522 68.2392C31.7526 70.7289 34.4733 74.5383 37.2081 74.7659C35.5433 72.0854 33.6296 69.9729 31.5147 68.4861C31.3939 68.4011 31.2738 68.3199 31.1522 68.2392ZM55.5783 49.4425C55.4914 49.4447 55.4045 49.4454 55.3176 49.4439C55.8409 50.2007 55.7477 51.3796 55.115 52.046C57.3233 53.4076 57.2539 56.4535 57.3279 58.739C57.4158 60.9505 57.5339 63.1572 57.6269 65.366C57.6269 65.3258 57.7595 65.3822 57.8067 65.3903C58.1055 65.4289 58.4081 65.4421 58.7098 65.4291C59.1656 65.2484 59.7664 65.2448 60.0807 64.807C60.4534 64.3101 60.3679 63.5672 60.3039 62.9919C60.1484 61.5997 59.9385 60.2125 59.7618 58.8231C59.2749 55.8547 59.3361 50.0801 55.5783 49.4425ZM54.7555 52.3655C52.9821 53.473 50.649 53.0416 48.6459 53.1642C47.1822 53.1854 45.7177 53.192 44.2534 53.1868C39.3211 53.1591 34.3919 52.9634 29.4638 52.7612L29.4748 52.9649C29.5655 54.5948 29.7331 56.2263 30.2101 57.7922C30.4811 58.865 30.8858 59.2626 32.02 59.1677C38.0805 59.0783 43.8305 56.9274 49.7376 55.8467C51.8492 55.4966 53.9956 55.198 56.1153 54.9499L56.092 54.8184C55.9222 53.8807 55.6479 52.821 54.7555 52.3655ZM56.0446 5.03952C56.1286 5.19655 56.177 5.3379 56.1397 5.48424C63.2381 20.6109 61.3635 37.8166 65.1112 53.7701C65.1847 53.8133 65.2264 53.8816 65.2651 53.9533C66.4769 53.7116 67.6975 53.5019 68.9225 53.3203C68.7823 52.9607 68.9983 52.6351 69.2452 52.4014C69.2488 52.3655 69.2982 52.2526 69.3011 52.2526C68.8393 46.5943 68.1669 40.9366 67.5884 35.2841C67.2271 31.3449 66.568 27.3691 66.7465 23.4097C66.7531 23.3635 66.8135 23.3775 66.8269 23.4097C67.7823 26.8315 68.3351 32.025 69.2901 38.9317C76.1851 46.9812 80.2473 48.3895 86.8781 39.0608L87.2185 38.5625C90.3176 34.0191 93.3413 29.3886 95.6933 24.4129C92.7511 24.3188 91.1629 21.2414 89.9056 18.9839C89.693 18.8695 89.5512 18.6967 89.4349 18.4644C88.4387 19.7007 87.6502 21.2257 86.6415 22.4812C84.1374 25.7571 78.3853 29.8191 78.2593 29.9493L78.2352 29.9708C77.8571 30.3152 76.7182 31.6163 76.3661 31.5814C74.8321 32.9968 71.4212 26.4039 71.0109 25.1618C70.0105 22.7422 69.2039 21.9985 68.3361 19.5306L68.1866 19.086C66.9913 15.5202 65.7898 11.7637 62.7981 9.27128L62.6808 9.14721C60.766 7.12974 58.9038 5.55584 56.0446 5.03952ZM92.6282 49.7048C91.7781 49.7569 90.9273 49.8073 90.0772 49.858L89.2907 49.9043C83.0853 50.2743 76.8669 50.7312 70.6492 50.4618C70.7077 51.3321 71.0132 52.2339 70.6764 53.0799C74.9662 52.5805 79.2843 52.2731 83.5926 52.4798C86.1529 51.2755 89.2604 50.8978 92.1391 50.8823C92.1876 50.4821 92.3545 50.0297 92.6282 49.7048ZM48.9899 42.8675C44.8143 41.0114 40.7306 42.9009 39.2611 47.39C39.3641 47.4744 39.435 47.6228 39.4527 47.7725C39.8394 48.2864 40.5484 48.2705 41.1292 48.3434C42.2975 48.4972 43.4305 48.8724 44.4632 49.4403C45.0334 49.7503 45.5235 50.1988 46.1121 50.4694L46.4288 50.7655C46.9574 51.258 47.4995 51.7321 48.2 51.9921C48.9256 52.0299 47.9884 50.6222 47.8358 50.3486L47.7791 50.2578C47.4735 49.7749 47.0806 49.225 47.4988 48.6765C48.261 49.0402 48.875 49.5649 49.4881 50.1505L49.5989 50.2575C50.1954 50.8384 50.8813 51.5674 51.738 51.6623C51.8824 51.6784 51.9875 51.5092 51.9512 51.384C51.5666 50.115 50.4425 49.2277 49.3962 48.4658C49.4052 48.1041 49.6577 47.8274 49.9881 47.7485C51.4566 48.5907 52.4819 49.9244 53.9177 50.7881C54.0726 50.8794 54.2352 50.7588 54.2503 50.5983C54.2414 49.475 53.0915 48.6143 52.2988 47.9489C52.134 47.8221 51.9653 47.6993 51.7935 47.5807C51.8325 47.3556 52.0392 47.1586 52.2975 47.1222C52.7685 47.2554 55.5923 49.4386 55.6001 48.4295L55.5948 48.402C55.5196 48.0471 55.1103 47.2771 54.7149 47.3721C53.2514 45.5723 51.1498 43.7011 48.9899 42.8675ZM38.011 1.60948C36.5356 2.45296 35.12 3.3662 33.6428 4.20125C31.7599 5.27547 29.7371 6.10935 27.9277 7.31159C22.4178 11.3546 20.8208 19.8761 18.817 26.0909L18.5334 27.2974C17.3849 32.1914 15.6605 39.9869 17.7411 43.9754L17.7558 44.0069C18.0156 44.5556 19.2511 46.7807 19.8876 47.176C21.7527 48.3346 25.6534 48.7283 29.0433 48.5016C32.2707 48.3523 35.4481 47.7374 38.5981 47.0911C38.6702 46.0108 39.2009 45.1082 39.7595 44.2283L39.8173 44.1373L39.8821 44.0419C40.6721 42.8866 41.5632 41.95 42.8684 41.44C38.508 40.1403 31.329 41.813 26.4681 38.4108C26.0799 38.1391 26.4187 37.5637 26.8399 37.7781C27.0933 37.907 27.3507 38.0252 27.6112 38.1349C27.3816 37.311 27.9799 36.8203 28.3372 36.1049L28.3514 36.0762C31.4209 29.9094 33.836 22.9777 35.9773 16.6948C35.3541 21.0902 34.3489 25.4436 32.9231 29.6485C34.2297 30.6471 35.3202 31.9059 36.4981 33.0477C37.7597 34.3804 39.2904 35.5133 40.2534 37.0962C40.4633 37.4648 40.05 37.8371 39.6913 37.6553C38.8456 37.2274 38.1436 36.5489 37.4947 35.874L37.231 35.5879C35.6204 33.837 34.032 32.0345 32.803 29.9936C31.9832 32.3582 30.9715 34.3189 29.8896 36.5485L29.7511 36.8347C29.5117 37.3278 29.2885 37.8781 28.8945 38.2422C29.1552 38.7625 29.8224 38.8832 30.3368 39.0351C34.5169 40.203 38.9553 39.2271 43.1524 40.2905L43.4292 40.3618C43.7057 40.4333 43.9853 40.52 44.1499 40.7714C47.8107 40.9046 51.3755 42.3975 54.2288 44.6986L54.3024 44.7569C55.5045 45.7152 56.7363 46.9798 56.9522 48.5654C56.9927 48.8644 56.8814 49.2872 56.5227 49.3546C57.2174 49.4403 57.8442 49.7964 58.3591 50.2888C53.4491 33.3284 39.0652 19.8241 38.011 1.60948ZM53.5565 49.8246C53.6246 49.9272 53.6864 50.0345 53.7314 50.1461C53.7093 50.1308 53.6881 50.1142 53.6661 50.0987C53.6722 50.0433 53.6308 49.9816 53.5911 49.9368L53.5915 49.9364C53.5725 49.914 53.5547 49.8903 53.5362 49.8673C53.5446 49.8538 53.5511 49.8394 53.5565 49.8246ZM69.5883 41.4466C69.7788 43.0589 69.9687 44.6705 70.1571 46.2828C71.4997 46.1063 72.8521 46.0003 74.2037 45.901L74.1288 45.8545C73.4455 45.4293 72.8151 44.9319 72.2239 44.3878C71.5741 43.7898 70.9549 43.1434 70.3844 42.4698C70.1048 42.1397 69.84 41.798 69.5883 41.4466ZM37.5932 24.1752C37.8015 26.0223 38.9577 27.5882 40.032 29.042C40.3133 29.4226 39.6738 29.7878 39.3959 29.4118L39.2841 29.2601C38.1551 27.7245 37.075 26.112 36.8566 24.1752C36.8038 23.7065 37.541 23.7118 37.5932 24.1752ZM106.708 5.81991C103.378 7.90117 99.8936 9.72581 96.4874 11.6797C96.0705 11.915 95.6484 11.5281 95.7265 11.098C95.9003 10.1436 96.0728 9.18924 96.2423 8.23453L96.3732 7.49447C96.4224 7.22745 96.6262 6.26375 96.4315 5.90198C95.5871 7.3249 94.7143 8.73206 93.8373 10.1359L92.8802 11.6666C91.8555 13.3064 90.7085 14.9705 90.3012 16.8802C90.5497 17.1151 90.6779 17.4561 90.7085 17.791C90.9948 17.9052 91.1906 18.2227 91.1123 18.5581C92.3388 20.0184 93.1763 22.1166 95.1386 22.7305C97.3642 19.5409 101.022 17.6748 104.847 17.2106L105.526 17.0924C107.184 16.8007 108.912 16.4443 110.233 15.4176C108.922 15.4805 107.611 15.5407 106.299 15.5971C105.86 15.6162 105.767 14.9274 106.195 14.8358C108.1 14.4276 110.036 13.5593 111.56 12.2755C109.018 13.168 106.35 13.6977 103.662 13.9059C103.108 13.9123 103.012 13.1166 103.533 12.9614C105.903 11.9898 108.027 10.4443 109.657 8.48249L109.709 8.41974L106.294 10.2113C104.87 10.9587 103.347 11.882 101.684 11.8798C101.201 11.8791 101.094 11.2775 101.452 11.0277L101.92 10.6816C103.497 9.51185 106.483 7.23272 106.708 5.81991Z" fill="black"/>
</g>
<defs>
<clipPath id="clip0_38_152">
<rect width="113" height="136" fill="white"/>
</clipPath>
</defs>
</svg>
