<svg width="113" height="135" viewBox="0 0 113 135" fill="none" xmlns="http://www.w3.org/2000/svg">
<g clip-path="url(#clip0_38_110)">
<path fill-rule="evenodd" clip-rule="evenodd" d="M111.111 104.81C108.925 101.738 104.316 101.229 101.356 99.0761C99.7959 97.8952 98.1455 97.1135 96.9334 95.5234C98.8632 93.2842 96.4766 88.035 95.9856 85.0037C94.0395 77.0673 92.2395 69.004 89.9248 61.077C93.936 62.3103 92.891 54.9261 92.3182 53.2186C92.2785 52.9838 91.9842 52.937 91.8038 52.863C91.8542 52.5278 91.9932 52.4543 91.5718 52.3617C91.4309 50.3526 92.0064 48.1029 90.9662 46.3281C89.7938 44.391 86.9912 42.7698 84.6756 42.7431C83.049 36.3633 82.7509 33.3542 75.0445 36.0586C75.2149 35.4372 75.2679 34.8673 74.971 34.2396C73.8121 30.7811 72.3558 26.9977 71.0893 23.493C69.6298 19.4598 68.1205 15.2892 66.1684 11.414C64.8088 8.95319 60.5554 8.29528 57.6724 8.70268C56.9847 7.50434 55.2511 4.18971 53.0581 4.95607C53.0416 3.95637 53.0259 2.95667 53.0128 1.9569C53.0015 1.08784 53.094 0.196735 52.7557 -0.628394C52.3973 -1.50248 51.6675 -1.96377 50.8103 -2.29836C48.2159 -3.14473 45.2352 -4.50448 42.4975 -3.66313C40.1055 -2.58495 40.3841 1.46927 39.2265 3.67313C37.6043 1.29761 34.8378 2.89041 34.2526 5.4381C27.5886 8.0615 21.8607 5.08125 21.4343 15.3794C21.8017 17.2567 22.1141 19.0176 21.94 20.9133L21.7384 20.9336C20.0328 30.0584 19.3769 39.8397 19.7892 50.0084C19.7066 54.0121 18.2293 57.749 16.8006 61.362C15.7498 64.0186 14.6648 66.7657 14.1504 69.5842C13.58 71.9316 11.4833 83.2201 16.1456 79.4724C16.3242 92.315 27.9119 93.9593 38.3467 91.1226C49.4243 88.8482 61.8949 89.5021 68.8085 78.499C71.1539 82.4629 71.9631 84.9102 72.5518 89.0553C73.1979 92.0917 74.1361 95.5403 75.8606 97.5488C74.3757 100.189 73.6484 103.404 73.7201 105.5C73.7482 106.323 73.367 106.705 73.9149 107.216C76.5434 109.671 82.4078 109.699 86.8672 110.792C89.9248 111.176 100.981 112.647 102.671 111.688C103.849 112.014 102.479 108.985 103.657 108.92C104.06 108.923 104.114 108.416 104.528 108.435C107.171 108.554 112.869 109.321 111.491 107.216L111.111 104.81Z" fill="white"/>
<path fill-rule="evenodd" clip-rule="evenodd" d="M110.455 107.784C108.507 108.2 106.502 108.084 104.528 108.246C104.592 108.083 104.646 107.916 104.687 107.746C106.727 107.502 108.867 107.386 110.812 106.72C110.858 106.937 110.892 107.156 110.906 107.377C110.907 107.407 110.903 107.738 110.951 107.677C110.892 107.752 110.544 107.768 110.455 107.784ZM100.611 102.789C97.0646 101.637 93.3038 100.647 90.5704 97.974C90.5758 97.9593 90.5811 97.9444 90.5862 97.9294C91.1489 97.772 91.7677 97.436 92.3091 97.8014C94.0431 97.7423 95.854 97.142 97.0684 95.8732C97.1513 95.8906 97.2316 95.9151 97.3097 95.9455C99.6462 99.8723 104.624 100.62 108.27 102.896C109.748 103.745 112.5 106.034 108.979 106.085C107.589 106.293 106.191 106.448 104.789 106.554C104.681 104.343 102.464 103.374 100.611 102.789ZM103.09 108.453C102.385 109.403 101.111 109.778 99.9596 109.685C99.1125 109.571 98.3649 109.277 97.4839 109.34C90.8045 109.09 84.2364 107.723 77.7231 106.327C71.8894 105.246 76.3465 100.991 75.8607 97.5487C76.6841 98.0447 77.6174 98.407 78.5786 98.6726C79.8167 102.077 83.2005 101.188 85.5965 99.5568C86.521 99.5273 87.6467 99.6674 88.4028 99.0608C88.4469 99.0966 88.4934 99.1268 88.5415 99.1527C89.1414 98.8035 89.6905 98.438 90.3198 98.1687C92.4464 101.721 96.9635 102.532 100.588 103.903C102.805 104.493 104.621 106.186 103.09 108.453ZM102.969 111.495C101.094 112.049 99.1104 111.953 97.1764 111.797C90.8228 111.253 84.5114 110.183 78.3475 108.565C76.8857 108.181 74.0496 107.735 73.915 105.922C75.2163 107.608 77.5394 107.807 79.4909 108.242C85.8969 109.482 92.4584 111.084 99.0099 110.775C100.394 111.164 101.902 110.857 103.072 110.1C103.035 110.565 103.001 111.03 102.969 111.495ZM68.3281 52.2805C69.2769 49.7936 70.3059 47.3402 71.3012 44.8686C73.1478 45.8912 75.2325 46.2651 77.3615 46.5037C77.4115 46.5284 77.4646 46.5502 77.522 46.5677C77.6229 46.5881 77.7076 46.5786 77.7754 46.5481C80.6144 46.8448 83.5101 46.9612 86.0074 48.1083C86.9738 48.552 87.8806 49.1499 88.7012 49.9732C89.5991 50.8228 90.3225 51.8484 90.808 52.9802C90.9597 53.3293 91.0401 53.6923 91.2795 53.9796C91.3517 54.3658 91.4333 54.7492 91.4886 55.139C91.6286 56.6629 91.8194 58.2682 91.2242 59.7302C90.8551 60.6256 90.0986 59.9055 89.5969 59.5549C88.7808 58.9919 88.0294 58.346 87.2803 57.7001C84.979 55.5624 82.2896 53.7447 79.0616 53.4443C75.5766 52.9656 71.8005 52.3677 68.3281 52.2805ZM66.9314 52.2856C66.7399 52.7685 66.552 53.253 66.3672 53.7381C65.4515 53.5832 63.5024 53.218 62.7045 52.802C62.9889 52.8114 63.2703 52.6652 63.3425 52.3299C63.3742 52.1815 63.4242 52.0426 63.4633 51.8979C63.9444 50.3493 64.3546 48.7694 65.0339 47.2849C65.6983 45.7174 66.4887 44.1943 67.0927 42.6035C68.1167 42.5395 69.7343 43.795 70.4657 44.307C69.1612 46.9059 68.0024 49.5717 66.9358 52.2739C66.9159 52.2739 66.8953 52.2739 66.8754 52.2746C66.8939 52.2783 66.913 52.2819 66.9314 52.2856ZM60.8991 52.1023C55.6468 51.7778 50.324 52.1197 45.1322 51.1996C44.148 51.0345 43.2309 50.7363 42.3793 50.3297C39.9012 49.147 37.9757 47.047 36.5577 44.6431C31.4351 37.0239 25.7984 29.4556 23.2769 20.5285C21.7829 16.208 21.492 9.74964 26.714 7.89048C29.0299 7.03655 31.827 7.08892 33.8204 5.53962C33.5949 6.35864 33.4682 7.21548 33.3519 7.97413C33.1559 9.21139 32.9628 10.4916 33.122 11.7426C33.1235 11.7535 33.125 11.7645 33.1271 11.7746C32.8657 12.4787 33.6884 13.1436 34.4958 13.0745C36.199 13.0359 37.0342 11.0138 38.741 10.952C39.3642 10.9294 39.7363 11.2968 40.1179 11.7339C41.0415 12.7937 41.9462 13.8738 43.0621 14.7423C43.1418 14.8041 43.2478 14.7292 43.2029 14.6347C42.6393 13.4454 41.849 12.3922 41.0652 11.3353C39.4402 8.77133 37.2531 9.95112 35.4041 11.5099C35.0438 11.7681 34.6778 11.9776 34.3072 11.8859C34.3315 11.7979 34.3381 11.6961 34.3227 11.5826C34.185 10.5788 34.3197 9.52052 34.4597 8.52475C34.7795 6.66632 34.6844 4.24272 36.4987 3.11748C37.2906 2.67524 38.2482 2.61923 39.0187 3.12111C38.8773 3.46371 38.7086 3.84921 38.6843 4.21144C38.5296 4.10379 38.425 4.13725 38.397 4.37074C38.9974 6.11934 39.9801 7.7261 40.8139 9.37505C41.4651 10.6123 42.12 11.8481 42.7882 13.0766C42.9855 13.4571 43.152 13.86 43.5365 14.071C43.5373 14.0746 43.538 14.0782 43.5387 14.0819C43.7988 14.9292 43.7988 15.8399 43.9991 16.7019C44.1222 17.2285 44.2637 17.758 44.4146 18.2846C44.5575 18.7785 44.7086 19.2702 44.8618 19.7539C46.6856 25.9955 48.4131 32.2661 50.1914 38.5215C48.0861 37.4465 47.0186 35.4367 46.0551 33.3826C43.5137 28.0896 40.8516 22.3121 38.0073 17.4285C40.6527 22.9805 44.2813 35.9866 48.7999 39.2198C49.4893 39.6708 50.2407 40.0104 51.0252 40.2796C51.353 40.5727 51.6963 40.636 51.9268 40.5582C53.3471 40.9517 54.8344 41.1779 56.2302 41.4666C58.6509 41.9685 61.0722 42.4668 63.4943 42.9628C64.3134 43.1301 65.1362 43.3542 65.9731 43.3934C66.015 43.3956 66.0556 43.3942 66.0931 43.3891C64.2493 45.4825 63.0081 48.3403 62.2987 51.0192C61.7211 50.8548 61.0663 51.4636 60.8991 52.1023ZM40.1105 52.3328C36.014 58.4042 29.5942 62.1705 24.3074 67.0715C21.1398 70.3673 18.6139 74.194 15.7249 77.7203C15.6358 77.8294 15.5458 77.9385 15.456 78.0468C15.2335 78.3174 14.9242 78.6149 14.7451 78.8775C14.74 78.8855 14.7349 78.8928 14.7304 78.8986C14.312 78.0352 14.541 76.9311 14.5256 75.9469C14.5897 74.2609 14.8129 72.5894 15.1481 70.9368C16.2427 64.3017 20.0114 58.3962 20.8312 51.7233C20.8039 44.6263 20.4467 37.509 21.0522 30.4142C21.2732 27.176 21.5052 23.9363 21.8337 20.706C24.1027 29.0308 30.728 38.0109 34.4892 43.76C36.0066 45.9574 37.3651 48.3548 39.502 50.0358C40.0184 50.4388 40.5635 50.785 41.1307 51.0832C40.7469 51.4593 40.4183 51.8877 40.1105 52.3328ZM53.5283 19.8666C54.0926 19.7204 55.3382 19.5742 55.9857 19.1538C56.3207 20.2882 56.683 21.4138 57.0654 22.5328C56.1375 22.262 55.1332 22.3889 54.1775 22.492C52.9321 22.6263 51.6884 22.7723 50.4453 22.9253C49.3066 23.0653 48.1686 23.2107 47.0311 23.3602C46.6253 21.9232 46.2167 20.4871 45.8017 19.0527C48.1744 20.1387 50.9884 20.29 53.5283 19.8666ZM54.8196 9.05646C54.8174 8.96117 54.7946 8.86152 54.7444 8.75896C54.7372 8.74442 54.7304 8.72987 54.7231 8.71532C54.5293 8.03232 54.3327 7.35005 54.1324 6.6685C54.1022 6.55358 53.918 6.57612 53.9216 6.69687C53.9201 6.78124 53.9195 6.86489 53.9187 6.94927C53.9055 6.91435 53.893 6.87944 53.8804 6.8438C53.6322 6.13316 53.4502 5.40142 53.3302 4.65805C55.4561 5.09083 57.2071 9.67327 58.1964 12.9493C57.3831 12.6991 56.3165 12.6424 56.0005 13.3079C55.6085 11.8903 55.2196 10.4719 54.8196 9.05646ZM51.5212 36.1912C52.0511 36.1569 52.5811 36.1243 53.1108 36.088C54.1948 36.0138 55.2784 35.9364 56.3622 35.8606C56.6222 35.8424 56.8822 35.8236 57.1421 35.8047C57.8782 35.7647 58.6143 35.7244 59.3504 35.6856C60.1642 35.6429 60.9876 35.5699 61.8075 35.5402C61.9619 35.5368 62.1163 35.5343 62.2706 35.5327C62.301 35.5938 62.3325 35.6539 62.3665 35.711C61.2859 36.0063 60.2988 36.3481 59.5076 36.6929C57.7102 37.4705 55.9821 38.4939 54.5058 39.7806C54.2326 39.7246 53.9593 39.6679 53.6859 39.6104C52.9361 39.4504 52.1766 39.2794 51.4451 39.0358C51.2579 38.5826 51.1969 38.0502 51.0378 37.6036C50.9116 37.156 50.7854 36.7083 50.6592 36.2607C50.9475 36.2559 51.2423 36.2091 51.5212 36.1912ZM49.7327 32.5307C49.7424 32.5297 49.752 32.5286 49.7617 32.5275C49.7629 32.5275 49.7641 32.5274 49.7653 32.5274C49.8836 32.5237 50.0018 32.5192 50.1201 32.5137C50.3564 32.5029 50.5928 32.4889 50.8289 32.4723C51.3016 32.4391 51.7734 32.3947 52.2446 32.344C53.1884 32.2421 54.1293 32.1148 55.0711 31.9964C55.626 31.9266 56.179 31.8665 56.7315 31.8154C58.0234 31.7307 59.3193 31.6658 60.6098 31.6479C61.0228 32.6189 61.442 33.587 61.8648 34.553C61.9047 34.6431 61.9434 34.7412 61.9828 34.8429C60.0856 34.8072 58.1804 34.9849 56.29 35.0966C55.2303 35.1592 54.1704 35.2201 53.1108 35.2845C52.5808 35.3167 52.051 35.3523 51.5212 35.3865C51.1675 35.4092 50.7873 35.3942 50.4336 35.4602C50.3587 35.1946 50.2839 34.929 50.209 34.6635C50.013 33.9755 49.8191 33.2867 49.6247 32.5981C49.6627 32.5801 49.6991 32.5578 49.7327 32.5307ZM48.1183 27.2322C47.8142 26.1459 47.5099 25.0596 47.2039 23.9737C47.2614 23.9659 47.3189 23.958 47.3762 23.9502C47.591 23.9209 47.8059 23.8919 48.0208 23.863C48.4942 23.7993 48.9676 23.7365 49.4412 23.6745C49.8082 23.6265 50.1754 23.5793 50.5426 23.5322C50.948 23.4984 51.3536 23.4662 51.7594 23.4366C53.5941 23.303 55.4433 23.179 57.2841 23.1688C57.6707 24.2747 58.0777 25.3738 58.4995 26.4675C56.934 26.5617 55.37 26.6863 53.8066 26.8103C52.9072 26.8816 52.0081 26.9557 51.1092 27.0323C50.6719 27.0696 50.2347 27.1076 49.7975 27.1462C49.5546 27.1676 49.3118 27.1892 49.0689 27.211C48.9286 27.2236 48.7455 27.2707 48.5877 27.2717C48.5672 27.2557 48.5459 27.2402 48.5232 27.2247C48.4081 27.1464 48.2385 27.1601 48.1183 27.2322ZM48.4844 28.1491C49.5169 28.0248 50.5472 27.8909 51.579 27.767C52.1513 27.7121 52.7236 27.6579 53.2961 27.6051C55.1153 27.4375 56.9366 27.2922 58.7559 27.1268C59.2495 28.3861 59.7622 29.6384 60.287 30.8854C58.0592 30.7403 55.7906 31.1098 53.5878 31.3655C52.4119 31.502 51.2328 31.6252 50.0491 31.6687C49.8617 31.6756 49.5998 31.666 49.375 31.7151C49.0692 30.6283 48.7645 29.5411 48.4602 28.4538C48.4647 28.3527 48.4727 28.2512 48.4844 28.1491ZM66.7745 42.6777C66.6964 42.7512 66.6198 42.8268 66.544 42.9047C66.5454 42.8799 66.5461 42.8559 66.5454 42.8312C66.5469 42.8305 66.5484 42.8297 66.549 42.829C66.6168 42.7635 66.692 42.7134 66.7745 42.6777ZM65.3962 11.5615C67.6865 17.0474 69.6643 22.6881 71.8094 28.2409C72.4974 30.1262 73.1752 32.0152 73.816 33.9173C74.0591 34.5457 74.1483 35.2513 74.6477 35.7451C74.6683 35.7655 74.6912 35.7844 74.7155 35.8004C74.0445 36.0786 73.4383 36.3879 72.95 36.7006C73.1746 37.4524 73.4457 38.1903 73.7695 38.9024C73.8852 39.1567 73.5042 39.3784 73.3879 39.1226C72.9763 38.2176 72.6441 37.2761 72.3839 36.3158C72.0597 35.8843 71.6847 35.4972 71.1988 35.2556C70.261 34.9188 69.0787 34.8025 67.8043 34.8403C67.7837 34.8039 67.7565 34.769 67.7233 34.7363C67.3011 34.3348 67.134 33.6961 66.9241 33.1644C66.3134 31.613 65.794 30.0251 65.3675 28.414C64.9477 26.8189 64.6876 25.1859 64.2515 23.5944C64.1632 23.3158 63.8883 21.9702 63.632 22.0444C63.6372 22.0749 63.6416 22.1048 63.646 22.1353C63.6328 22.1266 63.618 22.1229 63.6033 22.1237C63.5002 25.4158 64.3716 28.7318 65.3698 31.8603C65.646 32.9026 66.2736 33.878 66.4747 34.9298C65.6003 35.0192 64.7089 35.1662 63.8448 35.3516C63.8324 35.2825 63.8146 35.2142 63.794 35.1451C63.7823 35.0491 63.7528 34.9734 63.71 34.9159C63.601 34.6526 63.4566 34.3959 63.3499 34.1587C63.1304 33.6685 62.9123 33.1783 62.6965 32.6858C61.5215 29.9931 60.4092 27.2713 59.428 24.5029C58.2178 21.1461 57.2285 17.7245 56.2738 14.2935C56.9132 14.6318 58.1425 13.956 58.8962 15.5002C59.059 15.8894 59.4206 16.1672 59.8693 16.0458C60.2627 15.9388 60.5603 15.4857 60.4218 15.0849C60.4019 15.0194 60.3805 14.9547 60.3562 14.8914C59.6217 12.7406 59.0273 10.533 57.968 8.50875C60.6869 8.78006 63.903 8.97281 65.3962 11.5615ZM90.7218 47.5147C90.9568 48.6123 90.8057 49.7667 90.7425 50.8839C89.6677 49.4735 88.3056 48.2697 86.7123 47.4682C86.6062 46.7626 86.1561 46.148 85.9484 45.4628C85.5646 44.4961 85.2537 43.5084 84.9739 42.5111C87.572 43.0458 90.1008 44.9093 90.7218 47.5147ZM81.3019 55.9226C82.1841 60.623 83.5852 65.2054 84.6115 69.8741C84.6718 70.1484 84.2456 70.2645 84.1853 69.9901C83.159 65.3214 81.7579 60.7391 80.8757 56.0386C80.8242 55.7636 81.2502 55.6468 81.3019 55.9226ZM80.8492 99.1378C81.5533 99.2352 82.2559 99.3203 82.9642 99.3945C81.5542 99.977 80.2393 99.8347 79.0922 98.8052C79.6794 98.9463 80.2712 99.0542 80.8492 99.1378ZM111.916 106.064C111.876 105.878 111.772 105.757 111.64 105.691C111.66 101.779 103.333 100.508 100.81 98.0167C99.6554 97.2109 98.8155 95.8799 97.4749 95.381C98.2335 94.2218 98.0296 92.7301 97.8613 91.4276C97.4931 89.0512 96.568 86.3953 96.3261 84.9263C94.5008 77.3755 92.7306 69.8065 90.665 62.3153C90.623 62.172 90.545 61.8883 90.447 61.5748C90.6695 61.6279 90.8823 61.6454 91.082 61.6199C93.9792 60.9856 93.3287 55.1987 92.6481 53.1017C92.5751 52.8544 92.405 52.698 92.2053 52.6245C92.2311 52.4965 92.2076 52.3605 92.1155 52.2303C92.0662 52.1604 91.9902 52.1103 91.9077 52.0848C91.8201 50.0947 92.3232 47.9555 91.2625 46.1371C90.0706 44.1485 87.2272 42.5031 84.9392 42.3875C84.6114 41.215 84.3241 40.0308 84.0073 38.8561C83.6597 37.6261 83.1646 36.3045 82.1238 35.4797C80.7772 34.2969 77.9028 34.6577 75.5184 35.4935C75.6488 34.8774 75.3518 34.3202 75.17 33.7427C74.5769 32.0145 73.9663 30.292 73.343 28.5747C71.1059 22.7849 69.2687 16.7833 66.4703 11.232C65.3116 9.35032 63.0832 8.5022 60.9441 8.32763C59.9407 8.22798 58.8734 8.18943 57.8605 8.30654C57.8281 8.24544 57.7949 8.18507 57.761 8.1247C56.9309 6.70414 55.2461 4.05942 53.3073 4.5133C53.1025 3.16257 53.0995 1.77839 53.2682 0.426933C53.2801 0.33092 53.1209 0.28946 53.0811 0.376745C51.7964 3.22222 52.0352 6.72378 53.6027 9.41796C53.7176 9.6049 53.8738 9.70164 54.0358 9.72928C54.2855 12.558 54.9095 15.3497 55.6793 18.0897C55.5637 18.094 55.4524 18.118 55.3595 18.1588C52.9037 19.0469 50.2031 19.1916 47.647 18.673C46.9273 18.5232 46.2304 18.3217 45.5299 18.1166C45.3973 17.6627 45.2647 17.2103 45.1313 16.7571C44.7969 15.3257 44.7115 13.9502 43.8629 12.7973C43.8128 12.7122 43.7613 12.6278 43.7118 12.5435C43.0305 11.3229 42.338 10.109 41.6405 8.89789C41.471 8.69932 40.3381 6.49466 39.4563 5.16139C39.5668 5.15848 39.681 5.13084 39.7922 5.07556C40.4139 4.76934 40.4073 3.88122 40.5207 3.2855C40.8684 1.43434 41.2707 -0.419726 41.3812 -2.30289C41.387 -2.3989 41.2383 -2.43963 41.1948 -2.35235C40.347 -0.69249 39.7591 1.08375 39.1315 2.83308C39.1189 2.86799 39.1057 2.90363 39.0917 2.94C38.5098 2.21554 37.4881 2.04315 36.5981 2.23809C35.111 2.62141 34.361 3.81503 33.9286 5.1723C29.6524 7.18784 24.5637 5.12938 21.9686 10.4617C20.7996 13.2483 20.8217 16.408 21.5789 19.6964C19.6069 29.6651 18.9896 39.8628 19.4 50.006C19.254 56.8673 14.9919 62.8201 13.7705 69.4973C13.1613 72.129 12.779 74.8268 12.8262 77.5304C12.7327 78.959 13.3706 81.0683 15.2239 80.5126C15.4353 80.4377 15.6269 80.3228 15.8036 80.1839C16.5778 91.752 25.6061 93.9894 36.0119 91.9971C36.4331 92.0044 36.8471 91.9083 37.2899 91.7854C37.505 91.7221 37.7186 91.6559 37.9322 91.5861C38.0929 91.5483 38.2541 91.5097 38.4154 91.4697C38.535 91.4457 38.6548 91.4228 38.7746 91.3995C41.7415 89.4624 44.8232 87.698 47.7545 85.7063C47.9611 85.5658 48.2142 85.8921 48.0223 86.049C46.0641 87.6481 44.1473 89.317 42.1099 90.8201C47.9147 89.9089 53.8217 90.0642 59.2417 87.7027C63.0449 86.0596 66.6242 82.7668 68.7797 79.2143C68.8122 79.2707 68.844 79.3274 68.8762 79.3839C68.7715 79.09 68.6669 78.796 68.5634 78.5017C66.726 73.277 65.0635 67.9909 63.0551 62.8258C62.9529 62.5629 63.3803 62.4503 63.4812 62.7098C64.0443 64.1579 64.5811 65.6158 65.1013 67.0795C66.9628 72.3177 68.6268 77.6239 70.6095 82.8201C70.6209 82.85 70.6248 82.8777 70.6238 82.9033C71.0379 83.9117 71.3766 84.939 71.6113 85.9919C71.8546 87.0937 72.2104 89.4471 72.5624 91.4276C72.8707 93.0609 73.0952 94.9555 74.2439 96.2093C74.2426 96.2119 74.2414 96.2145 74.24 96.2171C74.1995 96.2951 74.1608 96.3724 74.123 96.4492C74.2044 96.5293 74.3077 96.5818 74.4033 96.6416C74.4182 96.573 74.4325 96.5047 74.4488 96.4348C74.7282 96.7275 75.0383 96.9906 75.3713 97.2281C74.9958 99.9713 72.1976 102.629 73.6465 105.5C72.9559 107.07 74.6509 108.347 76.0459 108.671C78.1844 109.346 80.3913 109.854 82.5815 110.336C86.9175 111.134 100.488 114.085 103.737 111.788C103.69 111.298 104.301 109.705 103.58 109.681C103.9 109.37 104.164 109.006 104.365 108.611C106.353 109.25 108.563 109.021 110.587 108.785C112.224 108.82 112.164 107.245 111.916 106.064Z" fill="black"/>
</g>
<defs>
<clipPath id="clip0_38_110">
<rect width="113" height="135" fill="white"/>
</clipPath>
</defs>
</svg>
