<svg width="113" height="135" viewBox="0 0 113 135" fill="none" xmlns="http://www.w3.org/2000/svg">
<g clip-path="url(#clip0_38_118)">
<path fill-rule="evenodd" clip-rule="evenodd" d="M111.111 104.81C108.925 101.738 104.316 101.229 101.356 99.0761C99.7959 97.8952 98.1455 97.1135 96.9334 95.5234C98.8633 93.2842 96.4766 88.035 95.9856 85.0037C94.0395 77.0673 92.2395 69.004 89.9248 61.077C93.936 62.3103 92.8911 54.9261 92.3182 53.2186C92.2785 52.9838 91.9842 52.937 91.8038 52.863C91.8542 52.5278 91.9932 52.4543 91.5718 52.3617C91.4309 50.3526 92.0064 48.1029 90.9662 46.3281C89.7938 44.391 86.9912 42.7698 84.6756 42.7431C83.049 36.3633 82.751 33.3542 75.0445 36.0586C75.2149 35.4372 75.2679 34.8673 74.971 34.2396C73.8121 30.7811 72.3558 26.9977 71.0893 23.493C69.6298 19.4598 68.1205 15.2892 66.1684 11.414C64.8089 8.95319 60.5554 8.29528 57.6724 8.70268C56.9847 7.50434 55.2511 4.18971 53.0581 4.95607C53.0416 3.95637 53.0259 2.95667 53.0128 1.9569C53.0015 1.08784 53.0941 0.196735 52.7557 -0.628394C52.3973 -1.50248 51.6675 -1.96377 50.8103 -2.29836C48.2159 -3.14473 45.2352 -4.50448 42.4975 -3.66313C40.1055 -2.58495 40.3841 1.46927 39.2265 3.67313C37.6043 1.29761 34.8378 2.89041 34.2526 5.4381C27.5886 8.0615 21.8607 5.08125 21.4343 15.3794C21.8017 17.2567 22.1141 19.0176 21.94 20.9133L21.7384 20.9336C20.0328 30.0584 19.3769 39.8397 19.7892 50.0084C19.7066 54.0121 18.2293 57.749 16.8006 61.362C15.7498 64.0186 14.6648 66.7657 14.1504 69.5842C13.58 71.9316 11.4833 83.2201 16.1456 79.4724C16.3242 92.315 27.9119 93.9593 38.3467 91.1226C49.4243 88.8482 61.8949 89.5021 68.8085 78.499C71.1539 82.4629 71.9631 84.9102 72.5518 89.0553C73.1979 92.0917 74.1361 95.5403 75.8606 97.5488C74.3757 100.189 73.6484 103.404 73.7201 105.5C73.7482 106.323 73.367 106.705 73.9149 107.216C76.5434 109.671 82.4078 109.699 86.8672 110.792C89.9248 111.176 100.981 112.647 102.671 111.688C103.849 112.014 102.479 108.985 103.657 108.92C104.06 108.923 104.114 108.416 104.528 108.435C107.171 108.554 112.869 109.321 111.491 107.216L111.111 104.81Z" fill="white"/>
<path fill-rule="evenodd" clip-rule="evenodd" d="M110.455 107.784C108.507 108.2 106.502 108.084 104.528 108.246C104.592 108.083 104.646 107.916 104.687 107.746C106.727 107.502 108.867 107.386 110.812 106.72C110.858 106.937 110.892 107.156 110.906 107.377C110.907 107.407 110.903 107.738 110.951 107.677C110.892 107.752 110.544 107.768 110.455 107.784ZM100.611 102.789C97.0515 101.634 93.2755 100.638 90.5397 97.9455C93.0707 97.0386 94.8927 98.1946 97.0683 95.8732C97.1512 95.8906 97.2316 95.9151 97.3097 95.9455C99.6462 99.8723 104.624 100.62 108.27 102.896C109.748 103.745 112.5 106.034 108.979 106.085C107.589 106.293 106.191 106.448 104.789 106.554C104.681 104.343 102.464 103.374 100.611 102.789ZM103.09 108.453C102.385 109.403 101.111 109.778 99.9596 109.685C99.1125 109.571 98.3649 109.277 97.4839 109.34C90.8046 109.09 84.2364 107.723 77.7231 106.327C71.8888 105.246 76.3473 100.99 75.8606 97.5476C76.6838 98.0437 77.6174 98.4059 78.5782 98.6719C79.8164 102.077 83.1999 101.188 85.5965 99.5568C87.9411 99.7409 88.3472 98.9596 90.2642 98.055C92.3253 101.703 96.9392 102.517 100.588 103.903C102.805 104.493 104.621 106.186 103.09 108.453ZM102.969 111.495C101.094 112.049 99.1104 111.953 97.1764 111.797C90.8228 111.253 84.5114 110.183 78.3475 108.565C76.8857 108.181 74.0496 107.735 73.915 105.922C75.2163 107.608 77.5394 107.807 79.4909 108.242C85.8969 109.482 92.4585 111.084 99.0099 110.775C100.394 111.164 101.902 110.857 103.072 110.1C103.035 110.565 103.001 111.03 102.969 111.495ZM82.9642 99.3945C81.5531 99.9776 80.2371 99.834 79.0898 98.8031C80.4001 99.1193 81.6527 99.2493 82.9642 99.3945ZM74.7191 94.1414C74.0864 92.5819 73.441 87.9049 73.125 86.2741C72.5003 83.1726 71.0639 80.3272 69.3807 77.5675C65.9316 71.9133 61.4458 66.6209 60.7712 60.2305C60.7839 59.8561 60.7981 59.4818 60.8053 59.1073C60.8204 58.3285 60.8922 57.4841 60.7434 56.7194C60.7384 56.694 60.7044 56.6996 60.6968 56.7194C60.401 57.4852 60.3108 58.3947 60.1967 59.2074C60.0912 59.9595 60.0045 60.7086 59.9984 61.4686C59.9927 62.1908 60.04 62.9257 60.2081 63.6306C60.2148 63.6589 60.2219 63.6872 60.2288 63.7155C60.1296 63.9964 60.0214 64.2744 59.9024 64.5479C59.6208 65.1951 59.3067 65.8312 58.9916 66.463C58.3515 67.7459 57.7074 69.0269 57.0595 70.306C56.3993 71.6095 55.742 72.9144 55.0675 74.2108C54.8574 74.6145 54.6602 75.0248 54.4682 75.4379C52.7996 77.9366 50.9851 80.3396 49.0245 82.622C47.3214 84.4412 45.8046 86.6175 43.4961 87.7201C41.2044 88.8716 38.7035 89.5939 36.3537 90.602C27.1095 92.2007 18.6773 92.2095 16.3525 79.6427C16.586 79.3677 16.7988 79.0739 17.0096 78.8171C18.1543 77.4198 19.2519 75.9855 20.3517 74.554C22.4268 71.8533 24.521 69.1329 27.0521 66.8264C32.1481 62.5546 37.7673 58.7431 41.5122 53.1417C41.8658 52.6805 42.1553 52.1794 42.3491 51.6397C44.8589 52.6281 47.6861 52.8631 50.3667 52.9671C53.9688 53.1068 57.5724 53.2537 61.176 53.349C62.1859 54.7761 65.3166 54.9019 66.8039 55.1412C67.1089 55.1739 67.3638 54.9092 67.4544 54.6524C67.7049 53.9418 67.9649 53.2355 68.2322 52.5321C71.4086 53.1211 74.5999 53.6265 77.7835 54.1815C77.9978 54.3581 78.0831 54.6002 78.1652 54.9038C78.2914 55.371 78.4129 55.8393 78.5409 56.3059C78.784 57.1915 79.057 58.071 79.3086 58.9551C79.4488 59.4477 79.5714 59.9644 79.7359 60.4632C82.4947 72.0304 86.3842 84.8584 89.1786 95.7314C89.2704 96.1336 89.3508 96.6583 89.2815 97.0944C88.7895 97.4724 88.2713 97.7796 87.715 98.0363C83.7887 97.7648 76.6928 98.3224 74.7191 94.1414ZM47.2904 88.6505C46.1509 88.7952 44.9914 88.9836 43.8223 89.1931C44.8449 88.7406 45.8054 88.174 46.5826 87.3565C52.1419 81.8073 56.6531 75.1621 59.5658 67.8971C59.9632 66.9204 60.3656 65.9326 60.7078 64.9301C60.77 65.0229 60.8394 65.111 60.9172 65.1933C62.2654 69.5845 65.3309 73.5899 67.8934 77.7341C63.884 85.0376 55.0634 87.4794 47.2904 88.6505ZM15.7289 80.2388C15.7538 80.2205 15.7793 80.2031 15.8036 80.1839C15.806 80.2183 15.8093 80.2517 15.8117 80.2861C15.7841 80.2702 15.7563 80.2546 15.7289 80.2388ZM35.4994 13.0625C35.8496 14.0998 36.2071 15.1359 36.7611 16.0852C37.6679 15.5037 38.4209 14.7032 39.3635 14.1817C40.3369 13.6433 41.3248 13.7887 42.2715 14.3147C42.5197 14.4525 42.2966 14.8294 42.0484 14.6915C41.5703 14.4258 41.0439 14.2123 40.4842 14.262C40.0466 14.3009 39.6526 14.5005 39.2927 14.7381C38.4273 15.3096 37.6958 16.046 36.798 16.5768C36.6936 16.6386 36.5575 16.5982 36.4957 16.4986C35.8547 15.4663 35.4591 14.3212 35.0732 13.1785C34.9828 12.911 35.4099 12.7973 35.4994 13.0625ZM44.3081 38.07C44.5442 38.2249 44.3226 38.6028 44.0851 38.4468C41.4147 36.6931 41.257 33.2067 39.6779 30.7015C39.527 30.4621 39.9095 30.2432 40.0595 30.4812C41.5813 32.8956 41.7438 36.3859 44.3081 38.07ZM53.5283 19.8666C54.0926 19.7204 55.3382 19.5742 55.9857 19.1538C57.5422 24.4243 59.6608 29.5174 61.8648 34.553C62.0166 34.8963 62.1521 35.3509 62.3665 35.711C61.2858 36.0063 60.2988 36.3481 59.5075 36.6929C58.5218 37.1194 57.5572 37.6203 56.6432 38.1975C55.8408 38.661 55.0744 39.1774 54.3505 39.7484C54.1289 39.7027 53.9075 39.6569 53.6859 39.6104C52.9361 39.4504 52.1765 39.2794 51.4451 39.0358C51.2579 38.5826 51.1969 38.0502 51.0378 37.6036C50.7615 36.6238 50.4853 35.6433 50.209 34.6635C48.7277 29.4636 47.3044 24.2469 45.8017 19.0527C48.1744 20.1387 50.9884 20.29 53.5283 19.8666ZM56.458 15.4506C56.6614 14.603 57.0761 13.5571 58.1249 13.5881C58.9285 13.6121 59.6976 14.0776 60.4255 14.4274C60.3914 14.171 60.2082 13.9523 60.0444 13.7334C59.875 13.5071 60.2588 13.2897 60.426 13.5131C60.7264 13.9145 60.9794 14.3023 60.8302 14.8125C60.7869 14.9604 60.6355 14.9985 60.5055 14.9429C59.7968 14.6395 59.0815 14.1683 58.309 14.0432C57.3714 13.8915 57.0604 14.8321 56.8841 15.5666C56.8185 15.8402 56.3924 15.7237 56.458 15.4506ZM70.1719 36.0477C71.1384 36.2499 71.5988 37.1068 72.0841 37.872C73.2915 39.7741 74.4495 41.7067 75.5611 43.6648C75.8624 44.195 76.16 44.7274 76.4539 45.2621C76.5334 45.3937 76.6035 45.5363 76.6757 45.6767C74.8848 45.5188 73.1162 45.2584 71.4301 44.6082C71.7836 43.8175 71.1832 43.6822 70.5099 43.2225C69.7888 42.7766 69.0263 42.3671 68.1984 42.1511C67.7247 42.0274 66.6352 42.0005 66.5071 42.6217C66.4474 42.4537 66.3214 42.306 66.1314 42.2347C64.7855 41.7976 63.3558 41.6361 61.9775 41.3117C59.6477 40.8268 57.3143 40.3608 54.9836 39.8793C55.6112 39.4841 56.2515 39.1087 56.9034 38.7563C58.9486 37.7414 61.1224 36.9441 63.355 36.4609C65.5914 35.9757 67.8875 35.8062 70.1719 36.0477ZM65.0308 20.4781C65.6671 23.7548 66.193 27.0555 67.0674 30.2819C67.1411 30.554 66.7146 30.669 66.6412 30.398C65.7668 27.1715 65.241 23.8709 64.6045 20.5942C64.5512 20.3193 64.9772 20.2026 65.0308 20.4781ZM81.4144 36.087C83.3871 37.8749 83.2575 40.8709 84.1053 43.2247C84.4641 44.4496 84.8729 45.6614 85.3753 46.8368C85.3864 46.863 85.3973 46.8892 85.4084 46.9154C83.038 46.0716 80.512 45.9552 77.9986 45.7792C77.9794 45.6956 77.9514 45.6185 77.9154 45.5552C77.5117 44.7885 77.0734 44.0372 76.6505 43.28C75.5264 41.3015 74.3485 39.3536 73.1235 37.4341C73.0469 37.3148 72.9703 37.1919 72.8923 37.069C75.4816 36.2325 79.1367 34.6628 81.4144 36.087ZM90.7218 47.5147C90.9568 48.6123 90.8057 49.7667 90.7425 50.8839C89.6677 49.4735 88.3056 48.2697 86.7123 47.4682C86.6062 46.7626 86.1561 46.148 85.9484 45.4628C85.5646 44.4961 85.2537 43.5084 84.9738 42.5111C87.5719 43.0458 90.1008 44.9093 90.7218 47.5147ZM66.544 42.9047C66.5454 42.8799 66.5461 42.8559 66.5454 42.8312C66.5469 42.8305 66.5484 42.8297 66.549 42.829C66.6168 42.7635 66.692 42.7134 66.7744 42.6777C66.6964 42.7512 66.6198 42.8268 66.544 42.9047ZM66.9314 52.2856C66.7399 52.7685 66.552 53.253 66.3672 53.7381C65.4515 53.5832 63.5023 53.218 62.7045 52.802C62.9889 52.8114 63.2703 52.6652 63.3425 52.3299C63.3742 52.1815 63.4242 52.0426 63.4633 51.8979C63.9443 50.3493 64.3546 48.7694 65.0339 47.2849C65.6983 45.7174 66.4887 44.1943 67.0927 42.6035C68.1167 42.5395 69.7343 43.795 70.4657 44.307C69.1611 46.9059 68.0024 49.5717 66.9358 52.2739C66.9159 52.2739 66.8953 52.2739 66.8754 52.2746C66.8939 52.2783 66.913 52.2819 66.9314 52.2856ZM91.2795 53.9796C91.3517 54.3658 91.4333 54.7492 91.4886 55.139C91.6286 56.6629 91.8194 58.2682 91.2242 59.7302C90.8551 60.6256 90.0986 59.9055 89.5969 59.5549C88.7808 58.9919 88.0293 58.346 87.2803 57.7001C84.979 55.5624 82.2896 53.7447 79.0616 53.4443C75.5766 52.9656 71.8005 52.3677 68.3281 52.2805C69.2769 49.7936 70.3059 47.3402 71.3012 44.8686C73.1478 45.8912 75.2325 46.2651 77.3615 46.5037C77.4115 46.5284 77.4646 46.5502 77.522 46.5677C77.6229 46.5881 77.7076 46.5786 77.7755 46.5481C80.6144 46.8448 83.5101 46.9612 86.0074 48.1083C86.9738 48.552 87.8806 49.1499 88.7012 49.9732C89.5991 50.8228 90.3225 51.8484 90.808 52.9802C90.9597 53.3293 91.0401 53.6923 91.2795 53.9796ZM95.2728 86.8633C95.7198 89.156 97.5762 94.2643 94.7865 95.5357C93.5408 96.2176 91.9722 95.8241 90.738 96.4486C90.7064 96.0573 90.632 95.6696 90.5428 95.3103C86.9461 83.7023 83.6212 68.5062 79.4322 56.907C79.3004 56.4359 79.1667 55.9655 79.0239 55.4975C78.9046 55.1064 78.8106 54.6892 78.6355 54.3303C79.8008 54.5416 80.9596 54.79 82.0184 55.3325C84.2534 56.2301 87.3833 60.1281 89.72 61.2984C89.8127 62.1596 90.0691 63.0172 90.2003 63.8675C91.8584 71.5391 93.5888 79.1961 95.2728 86.8633ZM111.916 106.064C111.876 105.878 111.772 105.757 111.64 105.691C111.66 101.779 103.333 100.508 100.81 98.0167C99.6553 97.2109 98.8155 95.8799 97.4748 95.381C97.499 95.3476 97.5241 95.3151 97.5474 95.2812C98.9692 92.9667 96.7239 87.3419 96.3261 84.9263C94.5008 77.3755 92.7306 69.8065 90.665 62.3153C90.6231 62.172 90.545 61.8883 90.447 61.5748C90.6695 61.6279 90.8823 61.6454 91.082 61.6199C93.9792 60.9856 93.3287 55.1987 92.6481 53.1017C92.5751 52.8544 92.405 52.698 92.2053 52.6245C92.2311 52.4965 92.2076 52.3605 92.1155 52.2303C92.0662 52.1604 91.9902 52.1103 91.9077 52.0848C91.8201 50.0947 92.3232 47.9555 91.2625 46.1371C90.0706 44.1485 87.2272 42.5031 84.9392 42.3875C84.6114 41.215 84.3241 40.0308 84.0073 38.8561C83.6597 37.6261 83.1646 36.3045 82.1238 35.4797C80.7772 34.2969 77.9028 34.6577 75.5184 35.4935C75.6488 34.8774 75.3518 34.3202 75.17 33.7427C74.5769 32.0145 73.9663 30.292 73.343 28.5747C71.1059 22.7849 69.2687 16.7833 66.4703 11.232C65.3116 9.35032 63.0832 8.5022 60.944 8.32763C59.9407 8.22798 58.8734 8.18943 57.8605 8.30654C57.8281 8.24544 57.7949 8.18507 57.761 8.1247C56.9309 6.70414 55.2461 4.05942 53.3073 4.5133C53.1025 3.16257 53.0995 1.77839 53.2682 0.426933C53.28 0.33092 53.1209 0.28946 53.0811 0.376745C51.7964 3.22222 52.0352 6.72378 53.6027 9.41796C53.7176 9.6049 53.8738 9.70164 54.0358 9.72928C54.2855 12.558 54.9095 15.3497 55.6793 18.0897C55.5636 18.094 55.4524 18.118 55.3595 18.1588C52.9037 19.0469 50.2031 19.1916 47.647 18.673C46.9273 18.5232 46.2304 18.3217 45.5299 18.1166C45.3973 17.6627 45.2647 17.2103 45.1313 16.7571C44.7969 15.3257 44.7115 13.9502 43.8629 12.7973C43.8128 12.7122 43.7613 12.6278 43.7118 12.5435C43.0304 11.3229 42.338 10.109 41.6405 8.89789C41.471 8.69932 40.3381 6.49466 39.4563 5.16139C39.5668 5.15848 39.681 5.13084 39.7922 5.07556C40.4139 4.76934 40.4073 3.88122 40.5207 3.2855C40.8684 1.43434 41.2707 -0.419726 41.3812 -2.30289C41.387 -2.3989 41.2383 -2.43963 41.1948 -2.35235C40.347 -0.69249 39.7591 1.08375 39.1315 2.83308C39.1189 2.86799 39.1057 2.90363 39.0917 2.94C38.5098 2.21554 37.4881 2.04315 36.5981 2.23809C35.1109 2.62141 34.361 3.81503 33.9286 5.1723C29.6524 7.18784 24.5637 5.12938 21.9685 10.4617C21.3185 12.0114 21.0371 13.6765 21.0454 15.415C21.1376 15.8101 21.2076 16.2109 21.2709 16.608C21.424 17.569 21.5252 18.5377 21.6976 19.4955C21.886 20.5423 22.1869 21.5719 22.5185 22.5823C23.2502 24.8116 24.221 26.9523 25.1666 29.0986C25.279 29.3539 24.8981 29.5757 24.7849 29.3189C24.2641 28.1368 23.7361 26.9577 23.2423 25.7643C22.5274 24.0367 21.8532 22.2536 21.4382 20.4234C19.5782 30.1606 18.9996 40.1092 19.4 50.006C19.254 56.8673 14.9919 62.8201 13.7705 69.4973C13.1613 72.129 12.779 74.8268 12.8262 77.5304C12.742 78.8158 13.2506 80.6513 14.7034 80.6017C14.958 80.7033 15.2118 80.7949 15.4685 80.8824C15.5407 80.9093 15.6098 80.9325 15.6736 80.9517C15.7456 80.9735 15.8119 80.9689 15.8697 80.9476C16.9856 91.8487 25.8399 93.9445 36.0119 91.9971C36.4331 92.0044 36.8471 91.9083 37.2899 91.7854C37.505 91.7221 37.7186 91.6559 37.9322 91.5861C38.0929 91.5483 38.2541 91.5097 38.4154 91.4697C45.373 90.071 52.6657 89.8404 59.2417 86.9753C63.0449 85.3322 66.6242 82.7668 68.7796 79.2143C70.0363 81.3942 71.0846 83.6287 71.6113 85.9919C71.9876 87.6961 72.633 92.395 73.1176 94.0759C73.3438 94.9124 73.7342 95.6165 74.2439 96.2093C74.2426 96.2119 74.2414 96.2145 74.24 96.2171C74.677 96.4591 75.0654 96.7788 75.3764 97.1633C75.0452 99.9366 72.1827 102.604 73.6465 105.5C72.9559 107.07 74.6509 108.347 76.0459 108.671C78.1844 109.346 80.3912 109.854 82.5815 110.336C86.9175 111.134 100.488 114.085 103.737 111.788C103.69 111.298 104.301 109.705 103.58 109.681C103.9 109.37 104.164 109.006 104.365 108.611C106.353 109.25 108.563 109.021 110.587 108.785C112.224 108.82 112.164 107.245 111.916 106.064Z" fill="black"/>
</g>
<defs>
<clipPath id="clip0_38_118">
<rect width="113" height="135" fill="white"/>
</clipPath>
</defs>
</svg>
