<svg width="110" height="135" viewBox="0 0 110 135" fill="none" xmlns="http://www.w3.org/2000/svg">
<g clip-path="url(#clip0_38_122)">
<path fill-rule="evenodd" clip-rule="evenodd" d="M120.322 52.974C119.774 52.8145 119.091 52.7734 118.492 52.7443C116.375 52.618 114.217 53.6417 112.141 54.1031C111.233 54.3309 110.271 54.5992 109.299 54.799C108.436 54.9179 107.543 55.007 106.646 55.0637C105.921 55.0857 105.077 55.0294 104.83 55.8027C103.372 56.0894 102.082 56.2086 100.693 55.9649C100.823 55.5159 100.897 55.0464 100.762 54.5628C100.83 54.4481 100.923 54.2931 100.972 54.1886H100.805C98.3663 53.1984 95.7292 52.5221 93.2777 51.4962C90.078 50.3263 85.3655 48.0661 81.6684 46.5227C81.919 45.1304 82.0119 43.7157 81.9056 42.3404L82.0541 42.2186C82.1029 41.9483 82.1788 41.6249 82.3162 41.38C82.4907 40.9106 82.4947 40.2698 82.564 39.7392C82.7084 38.7015 82.8048 37.1389 82.542 35.9068C82.4272 34.2358 81.3168 32.9477 80.1195 31.9145C78.6495 30.4397 77.1776 29.0009 75.7425 27.4692C67.8 19.2557 67.1719 8.91087 54.7383 5.76684L54.7322 5.71802C54.6342 5.60716 54.5942 5.51921 54.4826 5.69443C54.072 5.53483 53.5601 5.5482 53.2163 5.27841C52.606 4.71367 52.173 4.06173 51.8898 3.28804C51.6717 1.82553 51.8261 -0.428537 50.5629 -1.36431C49.16 -2.21679 41.7059 -2.82374 41.0631 -0.959928C40.6642 -0.579955 40.4828 -0.097235 40.3581 0.493791C39.9428 1.29069 39.6808 2.17434 39.2624 2.98348C38.3729 4.79832 37.7964 4.39611 36.226 4.81086C36.0555 4.42548 35.538 4.50314 35.1609 4.5591C30.594 5.21013 25.026 6.98682 23.0707 11.3411L23.2371 11.3196C19.8619 17.7521 22.0508 25.9326 22.6544 32.7494C23.1427 38.8087 22.5843 44.8969 21.2573 50.5489C19.6285 56.5449 19.535 63.2518 22.7667 68.6792C23.0952 69.3004 23.4951 70.1783 24.2028 69.7886C24.5905 70.086 25.0262 70.2915 25.6278 70.4704C25.7937 70.5924 25.9655 70.7975 26.1392 70.885C26.1473 70.8969 26.4269 70.7334 26.4416 70.729C26.97 71.494 55.9801 74.05 58.9906 74.4468C61.6429 74.7712 65.1476 75.5996 67.309 73.6589C69.0952 73.1411 70.9643 71.7934 72.3918 70.4552C73.258 83.1983 73.737 109.296 74.5099 109.478C74.8482 109.594 75.3047 109.733 75.6876 109.845C75.6899 110.76 75.757 111.801 75.6861 112.701C75.5674 113.717 75.2667 114.917 75.1307 115.986C74.546 115.946 74.374 116.541 74.306 116.945C73.8012 120.284 73.8162 122.975 73.8524 126.645C79.7877 130.191 86.7438 132.141 93.4222 134.433C94.0619 134.921 95.448 134.394 96.1866 134.262C98.7509 133.75 101.665 132.235 101.017 129.457C100.543 127.366 98.5536 126.162 96.8786 124.932C95.046 123.585 93.1141 122.239 91.4288 120.636C90.0767 119.344 89.067 118.341 87.9394 116.883C87.4393 116.205 86.906 115.091 86.2332 114.591C86.944 113.736 85.5078 114.538 84.9642 114.587C84.6443 113.06 84.2483 111.594 83.7734 110.129L84.235 110.15C85.7506 108.714 86.6002 101.821 86.7058 99.7765C87.4655 86.4462 87.4474 71.0819 84.3998 59.8555C86.7147 61.3015 89.2533 62.5093 91.5554 63.9395C93.0071 64.8022 94.48 66 96.1073 66.4183C96.2133 66.7271 96.6013 66.8471 96.813 66.5448C97.1043 66.5812 97.4796 66.4586 97.5117 66.3239C97.8095 65.706 98.2412 65.0401 98.1892 64.3687L97.7895 63.4281C98.6849 63.7975 99.6585 64.5744 100.614 64.6456C102.545 71.1852 106.349 67.5218 110.009 64.9767C112.218 63.4109 114.634 61.6818 116.959 60.0124C118.932 58.4208 122.782 56.9105 120.895 53.7579" fill="white"/>
<path fill-rule="evenodd" clip-rule="evenodd" d="M37.3478 4.41156C39.2123 3.95187 39.5309 -0.582957 40.6568 0.0628268C41.3076 0.63704 40.243 1.72036 40.0546 2.36847L39.972 2.53309C39.59 3.28795 39.158 4.0403 38.4052 4.47554C37.9213 4.99238 36.4749 4.48493 36.6876 5.3081C37.4303 7.78895 41.3716 9.50679 43.6945 10.2793C47.305 11.6552 53.1457 11.1896 53.994 6.57744C52.0136 6.2096 50.5495 2.5843 51.77 1.07495C51.8116 2.54112 52.2064 4.05423 53.3408 5.04758L53.4034 5.10588C53.603 5.29068 53.8615 5.51131 54.1192 5.47024C54.3704 5.11525 54.8581 5.31719 55.0017 5.69186C66.2773 7.66939 68.7892 20.0076 75.8901 27.27C77.3085 28.7851 78.7913 30.2357 80.255 31.7047C81.7498 32.9081 82.8077 34.5856 82.8814 36.5554C83.015 37.6509 82.9488 38.7474 82.8059 39.8447L82.796 39.9439C82.7297 40.6239 82.6904 41.3543 82.3714 41.958C82.3163 42.1626 82.3386 42.4212 82.1641 42.5656C82.2404 43.8175 82.1678 45.092 81.9591 46.3401L82.5031 46.5864C88.4895 49.2915 94.5451 51.8411 100.787 53.8689C101.321 53.7706 101.277 54.3999 101.019 54.686C101.087 55.0224 101.094 55.3724 101.014 55.7051C102.157 55.8717 103.318 55.7332 104.447 55.5218C104.804 54.7243 105.752 54.7669 106.485 54.7445C107.396 54.6866 108.306 54.5964 109.21 54.4682C111.438 53.9631 113.627 53.2986 115.834 52.7146C117.31 52.2931 118.903 52.313 120.384 52.7011C120.636 52.9872 120.868 53.2929 121.065 53.6173C122.419 55.7476 121.084 57.6997 119.194 58.8187C116.161 60.9997 113.128 63.1779 110.081 65.3388L109.86 65.499C106.236 68.1308 102.158 71.4622 100.222 65.0565C99.5718 64.9791 99.0017 64.5361 98.3955 64.2747C98.5586 65.0434 98.0717 65.8199 97.736 66.4789C97.5915 66.8542 97.1963 66.9781 96.8315 66.9746C96.5191 67.2855 95.9329 67.1631 95.7286 66.7943C94.0717 66.3132 92.7028 65.1897 91.2362 64.3168C89.1509 63.032 86.9635 61.9366 84.8481 60.706C88.3622 75.4662 87.5027 90.8411 86.5676 105.866L86.561 106.002C86.4451 108.195 85.9493 109.233 84.1559 110.577C84.4683 111.544 84.7478 112.515 84.9609 113.509C85.0362 113.74 85.3825 113.523 85.3853 113.84C86.0224 113.688 87.3173 113.85 86.8655 114.744C88.1447 115.833 89.0107 117.309 90.132 118.55C92.1068 120.952 94.6883 122.739 97.2194 124.5C103.038 127.508 103.371 132.721 96.5637 134.501L96.4954 134.517C95.558 134.746 94.4289 135.27 93.5201 134.829C92.1606 134.563 90.8115 134.026 89.4814 133.616C84.1257 131.818 78.8875 129.713 73.812 127.294C73.628 127.206 73.5238 127.005 73.519 126.804C73.5756 125.144 73.1313 116.046 74.8281 115.85C75.207 113.992 75.2665 112.073 75.1977 110.176C74.6472 110.001 74.0907 109.831 73.5206 109.721C72.967 109.545 72.1014 109.505 71.7308 109.05C71.5976 109.001 71.4998 108.88 71.5198 108.69C71.8196 105.839 72.0469 102.98 72.2127 100.118C72.7805 90.5201 72.5877 80.8918 71.941 71.3041C70.6083 72.4732 69.0897 73.4969 67.3991 74.0415C66.4659 74.99 64.9696 75.1935 63.6958 75.3084C62.0577 75.4113 60.4484 75.0793 58.8318 74.8728C56.0867 74.5222 53.3607 74.8326 50.6355 75.1764L49.7042 75.2943C43.0324 76.0366 35.822 76.1901 29.6037 73.2972C28.4329 73.4027 26.9794 72.119 26.249 71.2613C25.9265 71.4633 25.6096 71.0686 25.3526 70.861C24.9285 70.7303 24.4473 70.5426 24.0624 70.2684C23.0859 70.5926 22.5592 69.3065 22.1883 68.6072C16.3011 58.3797 22.8574 48.1991 22.3643 37.3537C22.6629 28.8509 18.8399 19.9924 22.5348 11.8374C23.2822 8.38637 27.6539 6.00135 30.9444 5.12426C32.0048 4.94665 36.0191 3.47424 36.4611 4.71241C36.6703 4.43371 37.0274 4.41284 37.3478 4.41156ZM86.1816 115.143C85.6299 115.203 85.0919 115.237 84.5466 115.339C82.5562 115.67 80.6576 116.452 78.9472 117.538C78.3933 117.888 77.8988 118.33 77.2632 118.525C75.9569 119.006 74.6731 117.812 74.7688 116.52C74.4047 119.766 74.4671 123.106 74.6561 126.369C79.7656 128.714 84.9894 130.805 90.3082 132.621C91.506 133.13 92.9242 133.293 94.0242 133.982C95.8999 133.862 97.788 133.194 99.3635 132.149C101.977 130.309 100.242 127.392 98.0755 126.108C93.3066 123.925 89.2474 119.507 86.1816 115.143ZM75.7331 110.342C75.6334 111.304 76.3541 112.803 76.2524 114.721C76.1742 115.32 75.9901 115.948 76.054 116.549C76.3475 118.779 78.7279 115.945 79.7116 115.634C81.108 114.855 82.6256 114.325 84.1852 114.035C84.1757 113.52 83.84 113.315 83.796 112.807C83.7327 112.058 83.7359 111.339 83.7026 110.583C81.6741 111.518 77.8848 110.857 75.7331 110.342ZM86.6625 114.997C86.6272 115.021 86.5899 115.042 86.5515 115.06C86.8334 115.406 87.0776 115.79 87.412 116.088L87.2697 115.864C87.0792 115.565 86.8844 115.267 86.6625 114.997ZM23.662 35.2047C23.5598 35.6261 23.3736 36.0224 23.0948 36.3594C24.5348 48.204 17.126 58.0783 23.9377 69.0911C24.0238 69.1317 24.1023 69.1823 24.178 69.2457C24.218 69.2187 24.2581 69.1901 24.2974 69.1616C27.4901 63.4303 32.035 58.4864 35.6562 53.0018C36.3513 51.6251 37.4955 50.2394 37.9335 48.6488C30.6563 45.7337 27.7494 41.4803 23.662 35.2047ZM119.432 53.1708C119.124 53.2828 118.781 53.1903 118.451 53.1843C117.282 53.159 116.14 53.4685 115.022 53.7812C111.769 54.6835 108.5 55.4824 105.168 56.0168C105.101 56.0874 105.037 56.1596 104.978 56.2355C105.036 56.3348 105.045 56.4588 104.961 56.582C104.458 57.5561 104.865 58.7487 104.499 59.7913C103.97 61.9021 102.563 64.2829 100.463 65.0321C101.163 65.7092 101.665 66.5806 102.387 67.234C104.16 68.467 106.113 66.6293 107.561 65.644C110.317 63.6687 113.08 61.7073 115.851 59.7537C117.093 58.7099 119.839 57.3944 120.433 56.0115C120.813 54.9513 120.121 53.9185 119.432 53.1708ZM100.438 55.8621C99.2514 58.3167 98.5665 60.9263 97.8814 63.5617C98.594 63.7605 99.2504 64.0721 99.9508 64.2815C100.937 64.5066 102.33 62.5725 102.825 61.8047C103.335 60.9461 103.692 60.0027 103.857 59.0143C103.997 58.0462 103.848 57.0409 104.263 56.1443C102.978 56.2775 101.674 56.3054 100.438 55.8621ZM29.9069 50.7976C31.021 50.481 28.4866 53.0378 28.3406 53.3107C26.6927 55.2845 25.1829 57.3692 23.6846 59.4604L23.2304 60.0951C23.1868 60.1594 22.886 60.6104 23.1035 60.5531C23.1234 60.5478 23.1327 60.5743 23.1168 60.5854C21.7312 60.834 29.2388 50.9714 29.9069 50.7976ZM57.0672 49.5906C57.1573 49.3153 56.7296 49.1975 56.6394 49.4714L56.3554 50.339C55.2837 53.6173 54.2185 56.9001 52.9376 60.1019C52.8304 60.3704 53.2589 60.4875 53.3653 60.2219C54.7586 56.7377 55.897 53.1574 57.0672 49.5906ZM69.5252 48.4429C69.1345 50.3237 68.1473 52.0193 67.5489 53.8171C68.6728 53.5658 69.5386 52.5033 70.1938 51.5895L70.2134 51.5591C70.5225 51.0764 70.8818 50.3225 71.5836 50.663C72.6491 51.2909 71.8858 53.5178 71.866 54.5734C71.7308 56.0202 71.2672 57.3737 70.9511 58.7791C71.7634 58.216 71.9968 57.1057 72.3926 56.2404L73.9162 52.5323C75.0363 50.9755 74.5161 55.6377 74.4583 56.0778C74.3672 57.0442 73.9658 58.0166 74.1233 58.9898C74.7549 58.3002 75.1529 57.4337 75.4872 56.5545C75.951 55.3317 76.3742 54.0931 76.8155 52.8622C76.9681 52.4679 77.5465 52.6062 77.4627 53.0406C77.4342 54.4376 77.4116 55.8345 77.3896 57.2315L77.3732 58.2792C77.3702 58.4778 77.2733 59.058 77.6115 58.8976C79.3876 57.0064 79.843 53.2248 79.612 50.684C76.1206 50.7696 72.5585 50.3102 69.5252 48.4429ZM100.594 55.4984C100.58 55.5445 100.563 55.5907 100.547 55.6369C100.557 55.639 100.568 55.6411 100.578 55.6439C100.584 55.5949 100.59 55.5466 100.594 55.4984ZM23.1066 55.4984C22.7194 55.2082 29.2287 46.7292 28.807 49.1769C26.991 51.3567 24.8732 53.2669 23.1066 55.4984ZM80.5931 36.7621C74.5055 35.3114 69.1447 40.7312 63.0313 39.9124C63.1021 41.8535 63.2004 43.8078 63.1618 45.7499C71.2802 46.4292 70.3565 49.9347 79.7022 49.5818C80.9099 48.7612 81.4059 43.7318 81.3039 42.2135C81.3819 40.4183 79.8593 39.6125 78.3425 39.2976C77.7944 39.6333 76.8111 38.6318 77.625 38.2794C78.6961 37.9525 79.6983 37.4385 80.5931 36.7621ZM35.6832 4.94612C33.5175 5.16268 31.3725 5.76156 29.382 6.68694C22.0241 8.84196 20.9632 17.5803 21.8479 24.2021C22.2145 29.2378 23.63 34.1628 26.606 38.2577C34.529 50.5163 47.6517 48.5752 60.0817 46.9538C60.5297 46.6375 61.289 46.8621 61.7208 46.4443C61.6756 46.4285 61.6349 46.4068 61.6002 46.3797C61.8077 46.2155 61.9682 45.9273 62.0161 45.6211L62.1056 45.6301C62.1934 43.7289 62.1232 41.8651 62.1515 39.9788C58.0672 38.8424 53.687 38.2616 49.5477 37.1298C49.0772 37.4627 48.5347 37.0796 48.075 36.8987C46.8836 36.3845 45.6816 35.8961 44.4707 35.4311L44.1678 35.3153C43.3785 35.0152 42.5897 34.7073 41.8078 34.3865L41.5149 34.2656C41.067 34.0797 39.9358 33.3917 39.4471 33.8213L39.4866 33.9075C39.7763 34.5489 40.7744 36.9221 39.5474 36.4528C38.5511 35.7429 38.0345 30.793 37.0476 30.7493C36.7082 31.6708 36.4651 32.6273 36.4095 33.6124C36.3895 33.8341 36.1023 34.021 35.9297 33.8139C34.7593 32.25 36.5273 30.5466 36.5745 28.8959C36.686 26.9765 35.849 25.1806 35.432 23.3434L35.4064 23.2167C35.1619 22.0249 34.7814 20.5798 34.8823 19.5108L35.1252 20.4387C35.3688 21.3672 35.6183 22.2958 35.9047 23.2113C36.6152 25.4977 37.8982 27.8533 37.1852 30.2998C38.6155 30.3481 38.8573 32.6385 39.3945 33.6845C40.2637 32.5401 46.3804 35.2841 47.7761 35.7243L48.0453 35.4144C52.4166 30.3855 55.5722 26.982 62.3474 30.96C61.177 27.1293 61.064 23.0605 60.8643 19.0825C60.9327 18.3258 60.5016 16.3295 61.1096 15.9164C61.2151 15.932 61.3177 15.9644 61.4146 16.0074L61.4145 16.3996C61.4174 17.1591 61.4523 18.4186 61.7662 18.7047L61.9103 20.2087C62.2875 24.1194 62.7154 28.0272 63.8664 31.7959C66.6293 33.3631 69.1505 35.3255 71.5222 37.4427L71.7924 37.3426C74.7229 36.254 78.2489 34.8587 81.2451 36.2173C81.195 35.4503 80.9033 34.7162 80.4963 34.0675C79.8174 33.8966 79.3732 33.1703 78.8875 32.6867C77.3474 31.0081 75.7663 29.368 74.2617 27.6555C67.8413 20.6475 65.1098 9.14001 55.0274 6.42182C54.3609 12.0847 47.2206 12.9883 42.9179 11.0503L42.7546 10.9868C40.0798 9.93935 37.0571 8.35847 36.1177 5.47837L36.0787 5.395C35.9821 5.19188 35.8669 4.98483 35.6832 4.94612ZM37.2702 37.1717C37.278 37.163 37.2932 37.1747 37.2865 37.1844C36.0329 38.7806 35.0128 40.9576 36.2587 42.8643C36.489 43.2936 35.9508 43.7059 35.6062 43.3787C33.877 41.3862 35.7956 38.6855 37.2702 37.1717ZM80.8847 37.5323C80.1954 38.0317 79.4562 38.4465 78.6732 38.7737C78.6757 38.8652 78.6317 38.9631 78.592 39.0349C79.6227 39.118 80.6961 39.3882 81.4197 40.1509C81.4548 39.8719 81.4892 39.5921 81.5155 39.3124C81.5821 38.5927 81.4607 37.9486 80.8847 37.5323ZM33.4824 30.4764L33.4904 30.438C33.4959 30.3943 33.5613 30.3913 33.5594 30.438C33.5354 31.0085 33.1262 31.4144 32.7797 31.8207C32.2654 32.4235 31.7511 33.0261 31.2366 33.6286C30.3764 34.6787 29.1092 35.7343 29.3942 37.2556C29.3995 37.7959 28.7321 37.9117 28.4614 37.5144C27.3846 35.4307 30.7742 33.6578 31.9168 32.3135C32.4534 31.7316 33.2989 31.3035 33.4824 30.4764ZM49.6219 36.7322C49.638 36.7581 49.6495 36.7862 49.6556 36.815C49.8361 36.8345 50.0159 36.8554 50.1956 36.8777L49.6219 36.7322ZM22.6598 31.8588C22.6919 32.0766 22.722 32.2948 22.7509 32.5132L22.7793 32.7317L22.7837 32.7126C22.7984 32.6559 22.8262 32.6067 22.8625 32.5673L22.8749 32.5545C22.8001 32.3238 22.7285 32.0919 22.6598 31.8588ZM72.1478 29.6051C72.5797 29.5584 70.6226 30.9862 70.5144 31.1629C70.3566 31.3021 70.1723 31.0548 70.3406 30.9342C70.9487 30.4989 71.548 30.0521 72.1478 29.6051ZM68.3401 25.4048C68.6406 25.2799 68.8448 25.7878 68.5597 25.9292C67.5213 26.4447 66.4234 26.8093 65.4666 27.4874C65.4247 27.5171 65.372 27.4478 65.4118 27.4159L65.5268 27.3237C66.408 26.6136 67.2883 25.8418 68.3401 25.4048ZM23.0183 18.9844C23.3085 20.371 24.8786 20.8264 26.0972 21.1958L26.4779 21.343C27.554 21.7608 28.6688 22.2309 29.4429 23.1139C29.7464 24.1099 27.5813 22.3749 27.279 22.2871C25.8005 21.3568 23.129 21.1988 23.0183 18.9844ZM55.0717 6.03718C55.0799 6.10769 55.084 6.17968 55.086 6.25168C55.1771 6.25168 55.2675 6.25242 55.3586 6.25539C55.2525 6.1923 55.1553 6.1203 55.0717 6.03718Z" fill="black"/>
</g>
<defs>
<clipPath id="clip0_38_122">
<rect width="110" height="135" fill="white"/>
</clipPath>
</defs>
</svg>
