<svg width="113" height="136" viewBox="0 0 113 136" fill="none" xmlns="http://www.w3.org/2000/svg">
<g clip-path="url(#clip0_38_134)">
<path fill-rule="evenodd" clip-rule="evenodd" d="M26.1098 60.6574C24.6478 64.2901 22.8978 68.4137 21.2878 71.9523C21.4167 73.0735 21.9006 74.2201 21.522 75.3429C23.1907 74.2632 25.0668 73.5853 26.9819 73.0729L27.0895 73.7904C27.3027 73.7835 27.6868 73.7798 27.9027 73.7769C27.8691 73.4915 27.8235 72.9827 27.8029 72.6951L27.8022 72.6954C27.5351 69.6033 28.0341 66.4377 28.6436 63.416C28.7922 62.3257 28.4294 60.632 27.048 60.604C26.8426 60.6351 26.5044 60.0826 26.3799 59.9756L26.1098 60.6574ZM45.4298 102.448C38.4698 102.836 34.4901 97.171 31.1251 91.871C30.7709 92.1044 30.3784 92.3655 30.0207 92.5766C29.4703 93.4563 28.3499 93.723 27.3827 93.8206C23.9354 93.9959 23.197 90.9165 22.3412 88.2675C22.1782 88.3812 21.8136 88.9603 21.5394 88.8333C19.9914 88.4919 18.4842 88.0839 16.843 88.1858C14.9594 87.7858 5.1982 92.0625 6.0991 88.3328C6.53909 86.7108 8.96079 85.9423 10.2081 84.8227C12.0218 82.77 11.5801 80.129 12.4465 77.6847C13.1669 75.2325 14.0086 72.9224 15.5662 70.6683C15.7068 62.2428 16.024 51.9308 18.2166 44.4377C19.6146 39.1791 21.3465 33.7424 20.6808 28.2242L20.3027 28.2142C20.1373 28.1209 19.8831 28.0506 19.6802 28.0816C19.509 27.8933 19.1916 27.9506 18.959 27.8743C18.5397 23.9769 18.378 20.6411 18.9101 17.1053C19.4043 11.2671 23.108 8.87905 28.5174 7.60749C34.4622 5.66781 38.4959 3.6909 41.576 -1.13234C42.1585 -2.11116 42.5126 -3.27009 43.2887 -4.0954C45.216 -6.52185 50.7586 -6.12184 52.1901 -3.56693C52.8152 -2.07232 52.8689 -0.327917 53.3444 1.2259C55.2138 7.82541 63.8116 7.0481 68.3634 10.6565C70.3672 12.1346 71.0128 14.4167 71.2726 16.7396C71.5999 19.6608 72.2252 22.4735 72.145 25.3769C72.3541 25.4163 72.8327 25.2681 72.9139 25.5663C72.7234 26.1935 70.2826 26.1913 69.6019 26.3022C70.4972 31.0186 69.6852 35.7547 70.4049 40.4861C71.5142 45.8019 73.6968 50.7388 75.411 55.8744C76.0707 57.5716 76.5125 59.391 77.4938 60.9366L77.4761 60.95C77.6313 61.2064 77.8015 61.4557 77.9782 61.6959C78.16 61.7611 78.3496 61.8674 78.5292 61.9327L78.5691 61.8657L78.666 61.9952L78.9508 61.8755C79.3691 62.0835 79.8235 62.3245 80.2698 62.5778C85.7545 65.8887 89.3436 69.2483 93.6438 73.4085L93.0733 73.8689C93.281 74.1564 93.5325 74.5369 93.7343 74.84C93.9027 74.6921 94.2622 74.4431 94.4693 74.3576C98.1358 78.6934 98.5842 86.209 96.7984 90.7778C96.2304 92.1469 95.3318 93.2709 94.2465 94.2177C93.7983 94.8879 92.9928 95.8135 91.9635 96.258C91.9635 96.258 91.8337 96.4408 91.8293 96.4469C91.7744 96.4543 91.4373 96.5313 91.4176 96.6094C88.6777 97.0689 85.9303 98.2684 83.0911 98.2858C78.4605 98.2456 74.4815 94.5058 70.7674 92.0359C68.4181 90.3692 65.6805 89.2243 63.1435 88.11C63.3327 89.0706 63.2789 89.4001 62.2289 89.7634C61.2936 90.1336 60.1685 89.8441 59.2984 89.4373C59.3211 91.0296 59.4487 92.6196 59.4046 94.3178C59.4043 96.3735 59.4733 98.9011 57.2465 99.8501C53.4546 101.336 49.1702 102.403 45.4298 102.448Z" fill="white"/>
<path fill-rule="evenodd" clip-rule="evenodd" d="M93.7196 74.2468C93.5877 74.049 93.4529 73.8533 93.3144 73.6599C93.4779 73.8365 93.6393 74.016 93.7962 74.1977C93.7689 74.2116 93.7431 74.2285 93.7196 74.2468ZM78.4616 61.5283C78.4358 61.5093 78.4071 61.4924 78.374 61.4792C78.2973 61.4477 78.2207 61.4147 78.1441 61.3832C77.999 61.1832 77.8627 60.978 77.7353 60.7684C78.002 61.0454 78.2723 61.3143 78.564 61.5664C78.5301 61.554 78.4955 61.5415 78.4616 61.5283ZM75.9504 60.4592C74.707 59.8005 73.454 59.1593 72.198 58.5306C72.0897 58.4764 71.9844 58.4778 71.8952 58.5137C71.3553 58.2375 70.8124 57.9649 70.2636 57.7062C69.9299 57.5494 69.5932 57.4014 69.2581 57.2519C69.2323 57.2138 69.2087 57.1743 69.1888 57.1318C68.9877 56.7046 69.1785 56.174 69.3082 55.7542C69.3413 55.6487 69.3273 55.5571 69.2853 55.4852C69.3561 54.8719 69.3295 54.2549 69.208 53.6988C68.9192 52.374 68.2054 51.1664 67.5262 50.0079C66.8287 48.8186 66.2172 47.6242 65.8217 46.3001C65.0268 43.6424 64.9657 40.8601 65.0232 38.1101C65.0865 35.0552 65.264 32.0011 65.3871 28.9484C65.4239 28.0383 65.46 27.1282 65.4894 26.2174C65.5609 26.2599 65.6184 26.3039 65.7252 26.3354C65.899 26.3859 66.0765 26.4277 66.2526 26.4687C66.604 26.5508 66.9605 26.608 67.3178 26.6571C67.9896 26.7494 68.6592 26.7912 69.3369 26.7816C69.4201 26.7802 69.5034 26.778 69.5859 26.775C69.194 28.7527 69.219 30.847 69.1829 32.8459C69.1402 35.1578 69.0268 37.4924 69.2853 39.7962C69.538 42.0479 70.2069 44.1978 70.9369 46.3353C71.6882 48.535 72.4617 50.7282 73.1917 52.9345C73.6035 54.1795 74.0168 55.4244 74.4307 56.6686C74.6296 57.268 74.8293 57.8674 75.0282 58.4661C75.2462 59.1219 75.3552 59.8935 75.9077 60.3522C75.9688 60.4028 76.0373 60.4416 76.111 60.4687C76.1235 60.4944 76.1353 60.5193 76.1486 60.5449C76.0823 60.5164 76.0167 60.4878 75.9504 60.4592ZM67.7222 55.5321C67.6353 55.9374 67.4879 56.3382 67.2868 56.6496C67.2868 56.6848 67.2795 56.7221 67.2618 56.7602C67.0614 57.1948 66.5826 57.4476 66.1686 57.6432C65.6699 57.8792 65.155 58.0821 64.6519 58.3093C63.8991 58.6486 63.1271 58.9124 62.3359 59.1007C62.3212 59.1065 62.3064 59.1131 62.291 59.119C61.0026 59.6334 59.6833 60.0679 58.3455 60.438C55.6347 61.189 52.8525 61.669 50.0577 61.9826C47.3505 62.286 44.6235 62.4596 41.9009 62.5417C39.4295 62.6172 36.919 62.563 34.4822 62.1138C32.7371 61.7921 31.0222 61.2601 29.4495 60.4519C29.3228 60.254 29.1453 60.0848 28.9965 59.8994C29.0149 59.6012 28.8337 59.2685 28.5597 59.163C28.4536 58.9277 28.3703 58.683 28.3114 58.4317C28.3755 57.8161 28.4617 57.2036 28.5877 56.588C28.8359 55.3819 29.16 54.1927 29.4856 53.0056C30.1648 50.5281 30.7077 48.0587 30.7983 45.4831C30.8904 42.8745 30.6267 40.2746 30.2657 37.6946C29.8996 35.075 29.4598 32.4649 28.9876 29.8629C28.7195 28.3834 28.461 26.9011 28.1773 25.4238C27.8908 23.9297 27.6646 22.4063 27.2912 20.9305C27.2794 20.8829 27.2013 20.8917 27.2035 20.943C27.2551 22.2693 27.4392 23.5985 27.5681 24.9197C27.6588 25.8466 27.7567 26.7721 27.8562 27.6976C27.6543 27.6514 27.4363 27.6785 27.2006 27.6829C26.8138 27.691 26.4271 27.6866 26.0404 27.6888C25.2676 27.6917 24.4942 27.6954 23.7207 27.699C22.3911 27.7049 21.0563 27.7247 19.7289 27.8199C19.6471 27.8002 19.5646 27.7804 19.4814 27.7555C19.1639 27.6602 19.0622 27.4345 19.0416 27.1187C18.9878 26.3258 19.102 25.5037 19.116 24.7079C19.1307 23.8623 19.1256 23.0167 19.099 22.1718C19.0821 21.6186 19.1366 20.9401 18.8154 20.4594C18.8464 20.0212 18.8839 19.583 18.9303 19.1463C19.1042 17.5064 19.4011 15.8591 19.9115 14.2874C20.2806 13.1516 20.8861 12.1096 21.7568 11.2816C23.4651 9.65925 25.8275 9.01736 28.0344 8.37399C30.7018 7.5958 33.3596 6.63736 35.7647 5.23339C35.7352 5.29714 35.7536 5.38068 35.8406 5.39826C35.9805 5.42684 36.0837 5.50231 36.1603 5.60563C36.1942 5.7771 36.2442 5.94636 36.312 6.11197C36.326 6.14567 36.3437 6.17572 36.3636 6.2021C36.3975 6.44904 36.4012 6.70184 36.4188 6.8799C36.4778 7.48369 36.5875 8.07356 36.754 8.65684C37.0892 9.82999 37.6144 10.9577 38.3083 11.9638C39.702 13.9818 41.783 15.5228 44.1734 16.1456C46.5866 16.7736 49.2628 16.5105 51.4322 15.2531C53.4388 14.0902 54.9939 12.1653 55.4491 9.87615C55.6915 8.65977 55.6524 7.42141 55.424 6.20649C55.3872 6.01158 55.3467 5.81154 55.301 5.61003C56.831 6.918 58.7934 7.72037 60.6866 8.33955C62.7101 9.00124 64.7845 9.54494 66.6283 10.6419C67.4776 11.1468 68.2835 11.7755 68.8736 12.5749C69.6058 13.5671 69.9218 14.7219 70.1199 15.9221C70.3859 17.5342 70.5796 19.1609 70.7623 20.784C70.8536 21.6003 70.9383 22.418 71.0157 23.2358C71.0562 23.6689 71.0952 24.1019 71.1313 24.5357C71.1579 24.842 71.1873 25.086 71.2875 25.3183C70.7085 25.4722 70.1222 25.588 69.5314 25.692C68.8338 25.8158 68.1237 25.8877 67.4165 25.9309C67.0519 25.9529 66.6865 25.9602 66.3211 25.9661C66.1392 25.969 65.9572 25.9646 65.7753 25.9661C65.6714 25.9668 65.5867 25.9946 65.4961 26.013C65.5771 23.4358 65.6036 20.8565 65.4467 18.2831C65.443 18.2179 65.337 18.1944 65.3252 18.267C64.8066 21.2933 64.5326 24.3643 64.3219 27.425C64.1149 30.4264 63.8976 33.4277 63.7149 36.4313C63.5477 39.1909 63.4851 41.9776 63.9587 44.713C64.19 46.048 64.5716 47.3428 65.113 48.5863C65.6464 49.8122 66.3999 50.9202 67.0135 52.105C67.5749 53.1902 67.9734 54.3729 67.7222 55.5321ZM63.8775 83.3735C62.783 83.0576 61.7501 82.6043 60.7304 82.1007C59.7468 81.6149 58.7037 81.0975 57.8701 80.3802C57.8521 80.3647 57.8712 80.3321 57.8937 80.34C58.9215 80.7052 59.8957 81.247 60.897 81.6835C61.9372 82.1369 63.0011 82.5338 64.0452 82.9781C64.2764 83.0764 64.1074 83.4398 63.8775 83.3735ZM61.6862 88.7217C61.4173 88.902 61.1219 89.0654 60.8155 89.1717C60.3993 89.3174 59.9779 89.3549 59.5588 89.3124C59.4962 88.5613 59.4196 87.8102 59.3275 87.0613C60.2711 87.5346 61.2582 87.9281 62.2438 88.3224C62.0486 88.4389 61.8807 88.5905 61.6862 88.7217ZM57.8206 84.8519C57.7924 85.1553 57.3859 85.1486 57.351 84.8519C57.1931 83.509 57.114 82.1551 56.9784 80.8096C56.7381 78.4237 56.3404 76.0753 55.7936 73.7404C55.6556 73.1507 55.5116 72.5629 55.3523 71.9785C55.2697 71.6755 54.989 71.1434 55.1779 70.8335C55.4102 70.4523 55.7315 70.9917 55.4834 71.0224C55.4582 71.0255 55.4584 70.9896 55.4779 70.9819C55.285 71.0582 55.419 71.2308 55.4696 71.3674C55.5183 71.4988 55.5684 71.6297 55.6168 71.7613C55.7135 72.0241 55.8078 72.2878 55.8995 72.5524C56.0982 73.1254 56.2846 73.7014 56.4494 74.2848C56.7717 75.4258 57.055 76.5803 57.273 77.7456C57.7076 80.0691 58.0401 82.4858 57.8206 84.8519ZM30.058 91.7663C29.9025 91.6865 29.7154 91.6579 29.5504 91.6908C29.0068 91.7986 28.791 92.1114 28.3247 92.3467C28.0506 92.4852 27.577 92.6002 27.2897 92.6178C26.8116 92.6464 26.5354 92.6134 26.0971 92.4749C25.7781 92.3738 25.4304 92.1862 25.1932 91.9686C24.5619 91.3904 24.2503 90.5902 23.9741 89.7776C23.6699 88.8814 23.4084 87.9545 22.9399 87.1258C22.7041 86.7095 22.4051 86.3073 22.0485 85.9856C21.7097 85.68 21.1638 85.458 20.9333 85.0528C20.6953 84.6351 20.6754 84.0299 20.6047 83.5602C20.534 83.089 20.4824 82.6149 20.4486 82.1401C20.3167 80.2921 20.4405 78.2652 21.4747 76.6634C22.7734 74.6535 25.1247 74.0702 27.3044 73.5074C27.3376 73.8533 27.3774 74.1984 27.4252 74.5428C27.4834 74.9649 27.5542 75.3855 27.6359 75.8039C27.2433 76.1161 26.8978 76.5147 26.6569 76.8063C26.0713 77.5164 25.6345 78.3261 25.3332 79.1936C25.043 80.0297 24.9001 80.9164 24.9258 81.8008C24.9391 82.2405 25.0069 82.6691 25.1314 83.0912C25.166 83.2077 25.2072 83.3337 25.2566 83.4605C25.1026 83.7265 25.0739 84.0702 25.2529 84.3303C26.8521 86.6539 28.4514 88.9768 30.0506 91.3003C30.1243 91.4073 30.1979 91.515 30.2716 91.6227C30.1994 91.6681 30.1287 91.7165 30.058 91.7663ZM27.2934 73.3895C27.1822 73.3909 27.0709 73.3939 26.9589 73.3968C27.068 73.3668 27.177 73.3367 27.286 73.3067C27.2882 73.3345 27.2904 73.3616 27.2934 73.3895ZM27.2293 72.5622C26.2385 72.8318 25.2492 73.1096 24.2894 73.4752C23.7281 73.6892 23.0658 73.9193 22.5045 74.2571C22.3388 74.3355 22.1774 74.4205 22.0198 74.5135C22.0419 74.3977 22.0412 74.2754 22.0132 74.1523C21.8835 73.5756 21.787 72.9923 21.6787 72.4112C21.667 72.3489 21.653 72.2229 21.6294 72.0778C21.7355 71.8866 21.815 71.6785 21.9049 71.4711C22.0684 71.0952 22.232 70.7186 22.3962 70.3427C22.7041 69.6341 23.0121 68.9255 23.32 68.2177C23.9513 66.7661 24.5796 65.3108 25.1851 63.8482C25.5954 62.8561 26.0065 61.8632 26.4021 60.8644C26.5118 60.9927 26.682 61.0806 26.9133 61.0894C28.0293 61.129 28.1773 62.5974 28.0853 63.413C28.0153 64.0336 27.8481 64.644 27.7309 65.2573C27.6116 65.8838 27.5129 66.5133 27.4275 67.1449C27.1866 68.9409 27.1173 70.7567 27.2293 72.5622ZM17.8873 87.1551C16.5355 87.0767 15.1742 87.2057 13.8542 87.5017C12.5783 87.7874 11.3386 88.2146 10.0612 88.499C9.43879 88.6374 8.80897 88.7327 8.16957 88.7474C7.86239 88.7539 7.55227 88.7459 7.24656 88.7114C7.20826 88.707 7.15964 88.6939 7.11028 88.6814C7.19794 88.414 7.35485 88.1891 7.57952 87.964C7.89186 87.6512 8.15483 87.4782 8.54304 87.2305C9.32461 86.7323 10.1386 86.2809 10.7861 85.6067C11.6148 84.7428 12.0074 83.6349 12.2122 82.4779C12.4317 81.238 12.5732 79.985 12.7839 78.7437C12.957 77.7186 13.1559 76.6935 13.3997 75.6808C13.6855 74.789 14.0582 73.9259 14.4818 73.0861C14.8067 72.4427 15.1661 71.8199 15.5168 71.1912C15.81 71.4616 16.2475 71.4118 16.4958 71.0622C16.6107 70.9003 16.747 70.7435 16.8007 70.5486C16.8523 70.3632 16.8354 70.1492 16.8368 69.9594C16.8398 69.6026 16.8427 69.2457 16.8457 68.8881C16.8523 68.1502 16.8604 67.4116 16.8707 66.6737C16.8906 65.2449 16.9201 63.816 16.9687 62.3871C17.0667 59.514 17.2236 56.6423 17.5492 53.7845C18.1878 48.1738 19.8099 42.7396 20.509 37.1384C20.5951 36.4496 20.6703 35.7528 20.7255 35.0508C21.0298 32.8972 21.0821 30.7114 20.8773 28.5417C23.2515 28.5212 25.6249 28.6399 27.9858 28.8971C28.2709 31.5358 28.5965 34.1671 28.9331 36.7984C29.2631 39.3726 29.546 41.9688 29.5158 44.5671C29.5011 45.8458 29.4134 47.1274 29.202 48.3892C28.998 49.6085 28.6878 50.8066 28.3578 51.9973C28.0263 53.191 27.6698 54.3788 27.3774 55.5827C26.9339 56.6892 26.4514 57.7795 25.9549 58.8633C24.7026 61.5972 23.4076 64.3106 22.1811 67.0562C21.8275 67.8491 21.4776 68.6434 21.1255 69.437C20.9495 69.8341 20.7734 70.2313 20.5974 70.6277C20.3992 71.0747 20.1429 71.5107 20.1451 72.0104C20.1465 72.3086 20.3248 72.5248 20.5568 72.6208C20.4581 73.1975 20.4257 73.7822 20.4191 74.367C20.4154 74.7158 20.646 75.003 20.9509 75.1151C20.9502 75.1906 20.948 75.2653 20.9443 75.3408C20.9399 75.3452 20.9355 75.3496 20.9311 75.3533C19.3303 76.9639 18.895 79.2992 18.9083 81.4835C18.9149 82.6259 19.032 83.7778 19.228 84.9026C19.348 85.5928 19.6508 86.1622 20.2062 86.5989C20.5988 86.9074 21.0452 87.2057 21.3008 87.5808C21.3531 87.6585 21.4025 87.737 21.4496 87.8168C20.3521 87.3588 19.0416 87.2217 17.8873 87.1551ZM36.1124 5.02455C36.1109 5.07731 36.1109 5.1308 36.1124 5.18356C36.0454 5.16524 35.9746 5.15499 35.8966 5.15572C35.9695 5.11322 36.0402 5.06779 36.1124 5.02455ZM97.9567 82.6677C97.7806 81.0571 97.5147 79.4362 96.9379 77.915C96.4076 76.5161 95.6142 75.2536 94.6691 74.0966C93.7181 72.9322 92.6279 71.8902 91.5119 70.8842C90.3347 69.8231 89.1414 68.7775 87.937 67.7472C85.5657 65.719 83.0921 63.7771 80.3688 62.2413C80.368 62.2398 80.3673 62.2384 80.3658 62.2369C80.3614 62.2347 80.357 62.2332 80.3518 62.231C79.9091 61.9819 79.4598 61.7415 79.003 61.5151C78.8918 61.4602 78.785 61.4638 78.6944 61.5019C78.6922 61.499 78.6907 61.4953 78.6878 61.4931C78.3614 61.189 78.0182 60.9179 77.6631 60.6483C77.3692 60.1478 77.1231 59.6209 76.9353 59.0662C76.9169 59.012 76.8874 58.968 76.8528 58.9307C76.7791 58.7299 76.6966 58.5306 76.6237 58.3305C76.4248 57.7817 76.2303 57.2314 76.0337 56.6818C75.6403 55.5827 75.2477 54.4828 74.8528 53.3844C74.0639 51.1883 73.3059 48.9813 72.5413 46.7764C71.823 44.7056 71.0864 42.6261 70.7218 40.4593C70.3439 38.2171 70.4301 35.9096 70.3999 33.6454C70.3829 32.3381 70.3748 31.0272 70.307 29.7222C70.2555 28.7242 70.1892 27.7291 70.0072 26.7508C70.5207 26.7135 71.0319 26.6453 71.5387 26.5581C72.0963 26.4614 73.261 26.3911 73.2367 25.5982C73.2271 25.2993 72.9972 25.0912 72.7188 25.0149C72.654 24.9966 72.5884 24.9893 72.5221 24.9886C72.581 24.4888 72.458 23.9466 72.4101 23.4527C72.338 22.7068 72.2599 21.9608 72.1752 21.2163C72.005 19.7156 71.809 18.2171 71.591 16.7223C71.3928 15.3652 71.1903 14.0001 70.5523 12.7654C70.0676 11.8268 69.3479 11.0097 68.5185 10.3576C65.0696 7.64563 60.4044 7.57822 56.7787 5.21727C55.841 4.60615 55.002 3.84188 54.3957 2.89809C54.0495 2.35805 53.8174 1.77624 53.6524 1.15852C53.5456 0.759899 53.4454 0.370071 53.3173 -0.0219545C53.1913 -0.405187 53.1559 -0.719541 52.918 -1.05734C52.8922 -1.09398 52.837 -1.08079 52.834 -1.03536C52.8112 -0.686567 52.8746 -0.380274 52.8922 -0.032946C52.9099 0.329037 52.8981 0.68589 52.935 1.05007C52.9438 1.14167 52.9548 1.23326 52.9659 1.32412C52.9534 1.34611 52.9431 1.37029 52.935 1.39667C52.7663 1.93158 52.8583 2.51119 53.1449 2.97356C53.1412 3.02192 53.1449 3.07102 53.1582 3.12011C53.3025 3.6543 53.5648 4.14818 53.7607 4.66624C53.9464 5.15792 54.104 5.66059 54.2263 6.17205C54.4568 7.1371 54.5467 8.12925 54.4502 9.11848C54.2425 11.2391 52.9777 13.0461 51.2068 14.1972C49.2407 15.4752 46.7472 15.7932 44.4843 15.2392C42.1764 14.6743 40.2678 13.2087 38.9197 11.2882C38.1706 10.2213 37.5975 9.02322 37.2402 7.77167C37.1032 7.29171 37.0221 6.78757 36.891 6.30395C37.0192 6.23434 37.0965 6.09731 37.0221 5.91705C36.8277 5.44516 36.7967 4.97986 36.9404 4.49624C38.2494 3.61399 39.4656 2.58227 40.502 1.39374C41.5326 0.211796 42.6007 -1.22368 43.0456 -2.74195C43.2202 -3.33842 42.3208 -3.73704 42.0232 -3.17062C41.6976 -2.55144 41.4309 -1.9132 41.0751 -1.30795C40.7178 -0.698291 40.309 -0.119412 39.856 0.423563C38.9543 1.50511 37.9061 2.47089 36.7614 3.29451C34.2089 5.1308 31.2587 6.31055 28.2672 7.23309C25.9505 7.94753 23.527 8.57037 21.6036 10.118C19.4828 11.8246 18.7528 14.5079 18.3543 17.0843C18.1856 18.1739 18.0876 19.2701 18.0434 20.37C17.997 20.4579 17.986 20.5612 18.0331 20.658C17.9676 22.7214 18.0869 24.7936 18.2851 26.8483C18.2843 27.0659 18.3005 27.2806 18.3491 27.4843C18.3727 27.7108 18.397 27.9372 18.4221 28.1629C18.428 28.22 18.456 28.2589 18.5105 28.2787C18.7197 28.3534 18.9289 28.3981 19.1403 28.412C19.1764 28.4245 19.2132 28.4355 19.25 28.4457C19.309 28.5212 19.4018 28.5718 19.5292 28.5681C19.6022 28.5659 19.6751 28.5644 19.7473 28.5622C19.8305 28.5857 19.9116 28.6143 19.9882 28.6546C20.0456 28.6846 20.1023 28.6978 20.1561 28.6993C20.2489 29.7478 20.2813 30.7993 20.2541 31.8479C20.1723 33.3244 19.9889 34.7943 19.6994 36.2665C19.1624 38.9982 18.3823 41.6815 17.67 44.3715C16.1996 49.9192 15.5197 55.5944 15.2567 61.3173C15.1823 62.9345 15.147 64.5546 15.1205 66.1733C15.1072 66.9595 15.0976 67.745 15.0895 68.5313C15.0858 68.9358 15.0822 69.3402 15.0785 69.7455C15.0763 69.9345 15.063 70.128 15.0755 70.3163C15.0785 70.3632 15.0851 70.4064 15.0932 70.4489C15.0925 70.4504 15.0917 70.4518 15.091 70.454C14.3205 71.4982 13.7334 72.7029 13.2192 73.8877C12.6933 75.0983 12.2461 76.3425 11.9006 77.616C11.5544 78.8918 11.3032 80.1799 11.0616 81.4784C10.8598 82.5607 10.6255 83.7602 9.78575 84.5486C9.1515 85.1436 8.26754 85.5445 7.51838 86.0274C6.66388 86.5784 5.89852 87.2518 5.56187 88.2366C5.32762 88.9196 5.44107 89.7029 6.13498 90.0605C6.73239 90.3682 7.57952 90.3448 8.23586 90.3147C9.62295 90.2502 10.9725 89.8765 12.3014 89.5014C13.7621 89.0888 15.2096 88.7122 16.7359 88.6712C17.5005 88.6506 18.2733 88.6865 19.0291 88.8053C19.8143 88.9277 20.5672 89.1885 21.3487 89.313C21.6088 89.3555 21.8688 89.3006 22.0419 89.1247C22.5391 90.5228 22.8242 92.0462 23.9638 93.1241C24.8404 93.9521 26.0868 94.3749 27.2897 94.3053C27.9387 94.2672 28.5545 94.1097 29.1394 93.8268C29.4193 93.6913 29.672 93.5161 29.9143 93.322C30.0631 93.2033 30.167 93.075 30.2392 92.9329C30.4572 92.801 30.6723 92.6648 30.8845 92.5247C32.0845 94.2995 33.2771 96.0889 34.617 97.7574C36.133 99.6449 37.9636 101.189 40.2449 102.07C42.3716 102.89 44.7244 103.052 46.9807 102.861C49.3615 102.659 51.7011 102.12 53.9839 101.433C55.0992 101.097 56.2572 100.787 57.315 100.294C58.4443 99.768 59.2258 98.8418 59.491 97.6225C59.7518 96.4237 59.7208 95.1421 59.7297 93.9221C59.7385 92.6632 59.7076 91.4014 59.6221 90.1455C59.6214 90.1418 59.6214 90.1389 59.6214 90.1352C60.0369 90.3023 60.4884 90.3909 60.9341 90.4137C61.382 90.4364 61.8475 90.3799 62.2674 90.2202C62.7683 90.0304 63.4608 89.7175 63.5521 89.1247C63.5661 89.0383 63.5668 88.9467 63.5558 88.8565C63.8607 88.9848 64.1642 89.1167 64.4633 89.2552C65.4003 89.6875 66.3344 90.1286 67.2537 90.5968C67.7134 90.8306 68.1649 91.0878 68.6319 91.3069C68.7572 91.3655 68.8831 91.4307 69.0106 91.4967C69.4754 91.8052 69.9358 92.1202 70.394 92.4412C71.6897 93.3491 72.97 94.2782 74.2716 95.1766C75.6101 96.1006 76.9743 97.0129 78.4587 97.69C79.982 98.3853 81.6012 98.8279 83.2888 98.7656C85.0899 98.6997 86.8453 98.1933 88.5793 97.7486C89.4456 97.5273 90.3119 97.3053 91.1782 97.0832C91.299 97.1367 91.4456 97.1287 91.5678 97.0092C91.5796 96.9975 91.5914 96.9858 91.6032 96.974C91.7277 96.9425 91.8522 96.9103 91.9767 96.8788C92.0312 96.804 92.0842 96.7278 92.138 96.6524C93.0905 96.2054 93.8883 95.4015 94.4938 94.5098C94.5394 94.4709 94.5858 94.4336 94.6308 94.394C95.7018 93.459 96.5298 92.299 97.086 90.9955C98.1976 88.3898 98.2595 85.4433 97.9567 82.6677Z" fill="black"/>
</g>
<defs>
<clipPath id="clip0_38_134">
<rect width="113" height="136" fill="white"/>
</clipPath>
</defs>
</svg>
