<svg width="113" height="136" viewBox="0 0 113 136" fill="none" xmlns="http://www.w3.org/2000/svg">
<g clip-path="url(#clip0_38_156)">
<path fill-rule="evenodd" clip-rule="evenodd" d="M15.4579 23.1492C14.587 23.6354 13.8642 23.9675 13.1832 24.1944L12.1817 24.5279L13.1236 25.0033C13.7634 25.3263 14.3718 25.7381 14.9835 26.2625L15.4556 26.6674L15.6834 26.0902C15.9826 25.3321 16.1283 24.4698 16.1162 23.5271L16.1066 22.7871L15.4579 23.1492ZM57.2912 25.5978C56.4762 27.0625 55.4923 28.5044 54.5408 29.8988C52.4408 32.9764 50.2693 36.1589 49.6006 39.9645C49.5486 40.2799 49.5115 40.993 49.4891 42.1037L50.1116 41.8513C52.1902 41.0082 54.3956 40.381 56.5283 39.7746C57.3527 39.5402 58.205 39.2979 59.0404 39.0458C59.3806 38.9551 59.7189 38.8492 60.0463 38.7467C60.8405 38.498 61.5907 38.2631 62.3795 38.2231L62.6197 38.211L62.7398 38.0037C63.8266 36.1293 63.0116 34.3426 62.0783 32.6731C61.5177 31.456 60.7967 30.3126 60.0993 29.2065C59.3764 28.0602 58.6289 26.8749 58.0828 25.6344L57.7241 24.8199L57.2912 25.5978ZM17.1811 41.1247C18.4166 42.4141 19.5642 43.7242 20.5921 45.0186L21.3726 44.6614C20.9953 42.7494 19.8239 41.4024 17.686 40.4221L17.1811 41.1247ZM58.5127 69.929C58.389 69.929 58.273 69.9768 58.1861 70.0635C58.0979 70.1515 58.0495 70.27 58.0499 70.3971L58.5127 70.3956V69.929ZM7.10123 101.808C6.37535 100.567 6.26868 98.6191 7.35655 97.563C6.99066 95.2822 7.70947 92.7333 9.30142 90.9174L9.3051 90.9229C11.6687 87.396 11.8424 86.1394 10.1155 82.1969C7.02911 82.0794 3.85001 82.0443 0.836508 81.3259L0.949214 80.6548C0.837687 80.6252 0.267898 80.4763 0.145543 80.4447C0.161897 80.5697 0.246831 81.1395 0.244768 81.2536C0.103997 81.407 -0.236255 81.5495 -0.299532 81.2476C-2.19527 73.174 -3.89189 65.2605 -5.73539 57.199C-7.66479 49.0626 -11.5449 36.049 -2.04705 31.5649L-2.24315 30.7312C-2.76763 30.7314 -2.97838 30.1619 -3.21882 29.3574C-4.29048 26.4791 -2.20668 23.657 -0.258059 21.8768C2.40547 19.2199 4.86267 16.2701 7.23972 13.4185C14.0203 5.20458 23.2463 -5.75647 35.0396 -3.89431L34.9999 -3.41047C36.8448 -3.17936 38.771 -2.69332 40.639 -3.03185C47.0165 -4.13267 53.9549 -1.64232 57.8773 3.47094L58.0214 2.51792C58.035 2.42801 58.0672 2.34484 58.2101 2.34484C58.397 2.33824 58.4958 2.49058 58.5648 2.63113C65.3348 5.29749 68.1392 13.9764 70.3026 19.925C70.5788 20.9305 70.5009 21.228 70.4768 21.2872L70.084 21.5204C74.1641 26.9293 76.4062 33.4351 78.3296 39.6037C78.9653 41.2482 79.0316 42.3877 77.9699 43.3823C84.9706 47.5741 90.464 54.1068 87.358 61.5545C83.3044 68.8014 72.5706 73.3995 64.5083 77.5619C61.3068 79.2904 56.6502 80.2107 53.7042 83.0413C53.5073 83.331 53.2249 83.6135 53.0538 83.5903C51.6864 83.7918 49.6514 75.2814 49.9607 74.5999C48.5173 75.1142 46.9117 75.0869 45.402 75.3552C45.5373 75.6513 45.9802 76.0523 45.6488 76.3818C45.6713 77.3813 45.517 78.4618 45.2963 79.4805C47.108 79.1911 47.0669 80.1383 45.3238 79.637C45.2764 80.0784 45.1556 81.2038 45.1093 81.6304C45.6296 81.4025 46.6652 81.2425 47.0278 81.599C46.8797 82.0741 45.5964 81.6267 45.1022 81.7675C44.813 83.9042 44.7187 86.0048 44.5159 88.1355C46.0584 89.5997 48.4678 89.9457 49.8443 91.5293C51.0106 92.7346 50.8425 94.7574 49.4742 95.727C50.3122 96.7064 49.6415 98.3322 48.4178 98.598C46.7507 98.9857 45.0082 98.4495 43.3644 97.999C40.6321 97.1023 37.7705 95.7046 34.6168 93.7261C33.3692 92.9517 32.4399 91.7349 31.9984 90.299C28.7988 80.4724 27.9438 73.7953 29.454 70.4439C30.3159 69.7951 31.2765 70.1955 32.0723 69.8412C32.4515 69.6723 32.7933 69.4453 33.0691 68.6399C28.918 68.2337 22.8669 68.9884 19.5394 67.0064L19.6565 66.7582C19.3492 66.5628 18.6741 65.7452 18.4172 65.4823C18.8802 71.0317 19.2523 76.7247 19.4365 82.2547C20.0469 83.2777 20.5652 84.3365 21.1341 85.5179C21.5299 85.9051 22.2222 86.5689 21.816 87.0081C21.816 87.0081 25.2325 94.9803 26.2766 99.0101C27.2707 99.0519 27.6737 100.73 27.6359 101.844C27.4847 103.873 24.8725 104.088 22.5825 104.287C21.0156 104.451 19.4045 104.535 17.8174 104.535C14.9497 104.537 7.7796 104.341 7.10123 101.808Z" fill="white"/>
<path fill-rule="evenodd" clip-rule="evenodd" d="M21.06 -0.949338C25.9274 -4.1704 32.2466 -5.86644 37.8915 -3.75734C37.9585 -3.73389 37.9319 -3.63644 37.8619 -3.65183C36.9699 -3.84674 36.0638 -3.95592 35.1527 -3.99329C36.9995 -3.76863 38.7916 -3.28603 40.6619 -3.6113C46.9087 -4.63885 53.533 -2.52814 57.6833 2.30624C57.7907 1.5959 58.6769 1.62228 58.9658 2.12451C64.4854 4.06083 67.6116 11.3351 69.6965 16.3833C69.9415 17.2831 71.6426 21.0196 70.8257 21.5045C74.714 26.8095 76.9018 33.0911 78.8431 39.3047L78.8987 39.4558C79.3394 40.672 79.6756 42.0482 78.7423 43.1304C82.614 45.4878 86.1939 48.6543 87.8862 52.945C90.5814 59.2742 87.1469 64.6364 81.792 68.0655C76.4851 71.8921 70.7357 75.0782 64.7926 77.8141C62.7941 78.733 60.7706 79.5954 58.7353 80.4308L58.5328 80.5132C56.934 81.1679 55.3206 81.9374 54.1247 83.197C51.7992 86.5767 49.6512 76.4529 49.6276 75.0421C48.537 75.3685 47.336 75.3758 46.2102 75.5463C46.3532 75.7903 46.3642 76.1076 46.1903 76.3677C46.1929 77.1937 46.105 78.0261 45.9428 78.8443C47.6706 78.6918 47.6108 80.4272 45.8096 80.027L45.7196 80.866C46.542 80.6123 48.2789 81.0176 47.2615 81.9938C46.7287 82.2559 46.161 82.0143 45.5929 82.0421C45.3481 83.9599 45.255 85.879 45.0759 87.8052C46.6191 89.1411 48.9101 89.495 50.2801 91.0983C51.4773 92.4017 51.5071 94.4409 50.1366 95.6678C50.8728 96.9194 49.9828 98.5499 48.6213 98.8788C46.8664 99.294 45.0286 98.7407 43.3351 98.2735C40.2555 97.2641 37.3411 95.7379 34.5992 94.0261L34.4801 93.9516C33.1234 93.1094 32.1414 91.7988 31.6748 90.2812L31.575 89.9736C29.9178 84.8488 26.9703 74.7966 29.1814 70.0484C30.2232 68.899 31.9025 70.2374 32.5095 68.8832C28.5928 68.578 22.2816 69.2571 19.0902 67.0286C19.4036 71.5113 19.8684 75.9913 19.8498 80.4872C19.7703 81.0784 20.1715 81.4483 20.0103 82.045C20.5929 83.0366 21.0959 84.0703 21.5949 85.1051L21.6264 85.1344C22.1445 85.623 22.8105 86.6144 22.1289 87.1956C24.4488 90.5776 25.7074 94.5691 26.7358 98.4947C27.8297 98.7443 28.2429 100.77 28.1752 101.739C27.8681 104.341 24.767 104.358 22.7292 104.577C21.5388 104.702 20.3447 104.78 19.1484 104.812C16.7279 104.877 14.3043 104.75 11.9037 104.436C9.94798 104.265 7.78595 103.757 6.8119 101.872C6.02657 100.519 5.904 98.4893 6.99024 97.2754C6.67272 94.9506 7.41708 92.5272 8.87159 90.6942L8.91588 90.6388L8.91217 90.6374C8.87882 90.6228 8.88179 90.568 9.01791 90.5405L9.03301 90.5377L9.09834 90.4371C11.2355 87.1416 11.5018 86.2381 9.91616 82.4796L8.47527 82.4283C5.80522 82.331 3.10719 82.1911 0.52331 81.5306C0.157276 81.834 -0.486618 81.7989 -0.630262 81.2039C-2.50994 73.2022 -4.23462 65.1634 -6.0673 57.1501C-7.97209 48.7169 -12.0766 35.9146 -2.14405 31.0245C-3.15854 31.0247 -3.38462 29.8138 -3.63117 29.0497C-4.5351 26.0802 -2.54331 23.3365 -0.460025 21.4085C6.85323 14.1055 12.3555 4.90474 21.06 -0.949338ZM7.11326 98.1694C6.9758 102.101 9.96691 103.044 13.3335 103.144C15.4314 103.343 17.5448 103.403 19.6508 103.321L20.6428 103.264C22.2996 103.167 23.969 103.046 25.5814 102.67C26.6433 102.453 26.9095 101.508 26.5259 100.585C26.3602 100.658 26.1641 100.663 26.0109 100.556C25.8393 100.437 25.7149 100.31 25.6205 100.16C20.1651 102.575 13.3004 102.311 8.01343 99.5323C7.33594 99.4993 7.24799 98.6943 7.11326 98.1694ZM20.375 85.725C18.3922 84.532 14.3766 84.0134 12.4613 85.5147C12.5926 86.269 12.2857 86.9667 11.998 87.6389C12.8718 87.4314 20.4733 86.4126 19.3996 88.2714C18.7985 88.7534 17.9802 88.4216 17.2855 88.3563C15.4223 88.2022 13.5462 88.2512 11.6886 88.4611C11.5267 88.9127 11.4641 89.4192 11.2627 89.8453C13.1442 89.2277 15.1125 88.9322 17.0867 88.8266L17.1963 88.8209C18.0582 88.7754 19.0667 88.5856 19.7083 89.2861C20.2551 90.0299 19.0415 90.5417 18.4163 90.4688C15.7533 90.3894 13.0849 90.4875 10.4244 90.6015L10.3075 90.7935C8.42743 93.8896 8.0226 95.109 8.78248 98.8223C8.77813 98.8186 8.77364 98.8157 8.76995 98.812C8.76701 99.0129 8.70226 99.1938 8.56443 99.3286C14.2979 101.179 19.6381 101.074 25.3354 99.2386C24.5024 95.0758 22.8492 91.144 21.6199 87.0967C21.2954 86.916 21.1991 86.5167 20.9561 86.2525C20.7105 86.2317 20.4671 86.0386 20.375 85.725ZM34.1148 68.9295C31.6167 70.6866 32.7449 72.7631 33.4356 75.149C34.4451 78.6564 35.2207 82.2295 36.0846 85.774C36.5934 88.9221 38.5946 91.6527 41.4737 93.0687C42.7687 93.7475 44.1896 94.1866 45.6416 94.3671C46.2022 94.4237 46.8233 94.364 47.1988 94.8639C47.4118 95.0933 47.4353 95.4699 47.1988 95.6949C46.4563 96.5323 44.2982 95.7769 43.2971 95.568C35.8782 93.331 34.7506 87.9836 33.3196 81.2793C32.6262 77.5558 30.9224 73.6341 31.9504 69.8578C31.3287 70.1885 30.3735 70.0751 29.9326 70.6997C28.9146 77.1157 31.1599 83.6243 32.8904 89.758C33.2747 91.0468 34.0858 92.1803 35.266 92.857C37.7836 94.3864 40.4224 95.7841 43.2144 96.7494L43.2991 96.7733C44.716 97.1778 47.7769 98.2689 48.8644 97.1281C49.0913 96.7947 49.081 96.4379 48.7952 96.2165L48.6566 96.1641C48.3907 96.0618 48.0775 95.9178 48.029 95.6086L48.0261 95.5872L48.0363 95.5835C47.8051 95.1615 48.2539 94.6888 48.6559 94.5855C49.2224 94.5651 49.4859 94.1898 49.6873 93.6387C50.0485 90.9415 46.2414 90.2208 44.9793 88.3754C44.8455 89.049 43.8033 88.9207 43.8087 88.2412C43.7675 86.1775 44.2184 84.0949 44.5271 82.059C44.052 82.0387 43.5472 82.2298 43.0847 82.1263C43.0164 81.7011 44.3507 81.2556 44.7179 81.1152C44.7937 80.7634 44.874 80.4132 44.9595 80.0645C41.9917 80.2428 43.3703 79.2961 45.2446 78.9719C45.3029 78.7741 45.3541 78.571 45.4006 78.3701L45.4236 78.2699C45.5421 77.7665 45.6048 77.2909 45.6254 76.7992C44.3133 77.3974 42.8372 77.7603 41.4155 77.4558C38.8465 76.8621 37.5149 73.7598 38.5462 71.4318C38.3116 70.606 38.7722 69.7278 39.1886 69.0312C37.4974 69.0254 35.8052 68.9792 34.1148 68.9295ZM8.99912 90.578C8.97697 90.5912 8.9561 90.6061 8.93589 90.6222L8.91588 90.6388L8.92092 90.6402C8.94525 90.6452 8.98069 90.6315 9.00207 90.5802C8.99757 90.5846 8.99757 90.5824 8.99912 90.578ZM9.15529 90.526C9.11477 90.5272 9.0804 90.5305 9.05045 90.5349L9.03301 90.5377L9.02745 90.5464C9.01704 90.5621 9.01057 90.5686 9.0028 90.5795C9.0456 90.545 9.10365 90.529 9.15529 90.526ZM12.2219 88.0668C12.0836 88.0851 11.9454 88.1016 11.8064 88.1189L11.7791 88.1929C11.9264 88.1489 12.0738 88.1071 12.2219 88.0668ZM18.3617 82.0993C15.8935 82.3493 13.406 82.1952 10.9371 82.4744C11.4213 83.1396 11.7666 83.8759 12.0562 84.6529C14.084 82.748 17.337 83.3307 19.7768 84.0323C19.6126 83.5552 19.4613 83.0737 19.3259 82.588C18.9609 82.6466 18.544 82.4425 18.3617 82.0993ZM78.5618 43.3634C75.188 46.7836 70.089 47.7238 65.7253 49.2336C64.6658 49.8938 65.1836 51.2019 65.3186 52.1954C65.5713 53.8261 65.7719 55.4647 65.9175 57.1085C66.4566 56.4883 67.8689 56.4073 68.6592 56.1552L68.7645 56.1316C69.8188 55.8909 70.9146 55.5299 71.9904 55.7639C72.4242 55.8577 72.4536 56.455 72.1089 56.6674C71.2356 57.2069 70.1672 57.2225 69.1662 57.3405L68.9102 57.371C68.0244 57.4758 67.1316 57.5715 66.2416 57.5343C66.1296 57.5518 66.0169 57.5093 65.9462 57.4339C66.057 59.1523 66.2794 60.8953 66.204 62.6167C66.1628 62.9222 66.0641 63.2549 65.846 63.4813L65.8388 63.5075C65.7154 63.9422 65.3139 64.7183 64.8516 64.1437L64.7648 63.9884C64.0858 62.7696 63.4421 61.4952 63.1139 60.1341C63.0047 62.8866 62.9163 65.6378 62.8059 68.3894L62.8023 68.4555C62.7742 68.9225 62.6824 69.4843 62.3772 69.8439C62.4041 70.0575 62.2117 70.1819 62.0399 70.1055L62.0171 70.116C61.8523 70.1894 61.5872 70.2571 61.4866 70.0571C60.9069 68.7081 60.2896 67.3803 59.7238 66.0277C59.7537 66.7219 59.72 67.4176 59.7422 68.1124C59.7534 68.9052 59.9014 69.8373 59.5212 70.5708C59.1967 71.2132 58.3882 71.3813 57.9543 70.8222C57.6067 70.2881 57.4097 69.6281 57.0934 69.062C56.2021 73.4439 53.9453 67.0027 53.5309 65.6752C52.2573 66.416 50.9145 67.0418 49.5258 67.5423C49.9078 68.1179 49.8154 68.9003 49.9355 69.5618C50.0437 70.548 50.1291 71.5351 50.2146 72.5236L50.2461 72.7128C50.7663 75.8045 51.5239 78.9646 53.1914 81.6559C54.6031 80.2807 56.4553 79.4695 58.2668 78.741C60.448 77.8463 62.6115 76.9106 64.7455 75.9104C70.5138 73.2121 76.068 70.0487 81.2454 66.3456L81.4214 66.2231C84.2986 64.2087 87.2969 61.5674 87.3705 57.809C87.6187 51.6477 82.44 47.4446 78.5618 43.3634ZM14.982 39.8711C10.0566 35.274 2.51554 29.3301 -4.28714 33.6975C-10.6414 39.0476 -5.6069 51.8759 -4.30895 58.7843C-2.65852 66.0462 -0.914161 73.2882 0.703787 80.5568C6.47327 81.3143 12.3295 81.711 18.1275 81.0287C18.062 75.9037 17.7143 70.7852 17.6007 65.6583C17.4951 63.0169 17.5318 60.3651 17.1339 57.749C16.7962 55.6217 17.2299 53.052 16.0391 51.1938C15.5983 50.5171 14.8815 49.9248 14.7213 49.1091C14.7176 49.0709 14.7676 49.0584 14.792 49.0797C15.1405 49.3845 15.4204 49.748 15.7901 50.0403L16.062 50.2498C16.5042 50.5923 16.9447 50.9579 17.2185 51.445C17.2466 51.2374 16.7188 49.3873 17.0349 49.608L17.0945 49.7702C17.5196 50.9334 17.9028 52.1101 18.0119 53.3546C18.4291 57.5963 18.6622 61.8589 19.0195 66.1068C19.8812 66.4933 20.673 67.0614 21.614 67.2668C23.1553 67.4185 24.6987 67.3327 26.2427 67.3124L26.3874 67.3107C30.8923 67.2438 35.3831 67.4954 39.8847 67.4244C44.4861 67.6021 49.1897 66.4028 53.1169 63.9935C50.9653 54.3252 58.3529 47.4296 61.7687 39.1648C57.834 40.1523 53.9182 41.2129 49.9943 42.2533C50.5239 43.5414 48.8112 47.1917 48.1667 48.4853C44.7181 55.2498 37.7439 59.6707 31.4724 53.2146C31.4754 53.2344 31.4775 53.2542 31.4798 53.2747C31.2692 53.0835 31.0365 52.9152 30.802 52.7537C30.487 55.3261 29.635 57.919 28.0271 59.9846L27.8517 60.2035C27.3501 60.8258 26.624 61.6441 25.8209 61.1739C25.2296 60.8557 25.1184 60.2364 25.2331 59.6116C23.3012 61.7035 21.1963 62.1761 22.5164 58.5763L22.4727 58.6214C21.7337 59.3764 19.7724 61.0448 19.5727 59.0723C19.6598 58.0903 20.2678 57.2136 20.5768 56.2937C20.2467 56.4967 19.8755 56.5971 19.4976 56.4527C18.484 56.0658 19.0056 54.9125 19.2317 54.1864C19.8041 52.3507 20.3882 50.5181 20.9821 48.6891C20.7762 47.6019 21.428 46.52 20.817 45.5749C20.5555 45.7112 20.2033 45.6826 19.9507 45.347C18.4686 43.3832 16.7677 41.5638 14.982 39.8711ZM0.772294 80.8902C0.773841 80.9013 0.773841 80.9108 0.774504 80.9217C0.831298 80.9255 0.887282 80.9305 0.94393 80.9356C0.886177 80.9217 0.829162 80.905 0.772294 80.8902ZM49.4279 73.8301C48.5188 64.5166 50.8777 68.9027 41.2969 69.0085C41.34 69.2418 41.0318 69.2149 41.1407 69.15C41.002 68.6353 40.2153 70.1436 40.1057 70.3392C39.8988 70.7759 39.8044 71.3196 39.7316 71.7973C39.2181 74.473 41.1315 76.8171 43.9215 75.6796C43.5624 75.6497 43.1589 75.7789 42.8608 75.5506C42.8623 75.5499 42.863 75.5484 42.8644 75.5469C42.5975 75.0712 44.0614 75.0506 44.3525 74.9234C45.4869 74.6876 46.6242 74.4684 47.752 74.2038C48.3016 74.0748 48.8644 73.8726 49.4279 73.8301ZM58.6388 70.2315C58.5571 70.1839 58.599 70.3399 58.6263 70.2608C58.63 70.2505 58.6351 70.241 58.6388 70.2315ZM68.9554 20.5021C64.8549 20.7934 62.2001 22.8085 59.29 25.3925C59.0727 25.5794 58.8524 25.7626 58.627 25.9399C59.8985 28.1582 61.2694 30.3178 62.5945 32.5054L62.8428 32.9169C63.2293 33.5587 63.6066 34.212 63.8367 34.9265C64.6204 37.3939 61.8833 41.7368 60.8887 44.1594C56.1293 52.5164 51.6587 58.3183 55.9891 68.2164C56.2216 67.5918 55.708 65.4113 56.4761 65.3264L56.4606 65.1714C56.2151 62.6554 56.2041 59.6249 56.9702 57.4032C56.5462 61.7023 57.0058 66.2078 58.6432 70.2213C59.0717 66.4164 58.504 62.1659 58.6358 58.2575C58.6307 57.6566 59.5441 57.6632 59.5699 58.2575L59.6011 59.2666C59.7081 62.6866 59.893 66.2678 61.8917 69.1609C62.0842 64.7568 61.2769 60.1176 62.828 55.8951C62.9548 55.591 63.4114 55.6144 63.4247 55.9757C63.4532 57.4131 64.0642 62.2784 65.1182 63.1223C65.4078 62.2422 65.3782 61.2794 65.3318 60.3576C65.1883 57.0171 64.7041 53.7576 64.1099 50.4639C64.0024 49.8131 64.1949 49.0121 64.8722 48.761C65.3753 48.2847 66.07 47.9468 66.6446 47.6758C70.296 45.8808 75.3193 46.2265 77.7892 42.5296L77.909 42.3496C78.197 41.9161 78.4669 41.488 78.5883 40.968C78.2555 39.731 77.777 38.5253 77.3707 37.3109C77.0074 36.2379 76.6346 35.1685 76.2435 34.1053L76.1125 33.7511C74.3667 29.0091 72.144 24.4574 68.9554 20.5021ZM40.6811 69.0239C40.5876 69.0541 40.5136 69.1472 40.4341 69.2165L40.4169 69.231L40.4655 69.1925C40.517 69.1512 40.5635 69.1127 40.635 69.0585L40.6811 69.0239ZM19.0556 66.5809L19.0777 66.8681C19.2191 66.8968 19.3577 66.9326 19.4962 66.9678C19.3355 66.852 19.1861 66.7238 19.0556 66.5809ZM39.9466 60.0923C39.9304 60.036 40.0115 60.003 40.0417 60.0526C41.2335 62.1386 43.5795 62.969 45.8383 63.2996C46.2228 63.3891 46.1756 63.9174 45.8383 64.0287C44.5757 64.445 43.1179 63.8843 42.0844 63.1377C41.0251 62.3734 40.3025 61.3409 39.9466 60.0923ZM62.6668 58.9016C62.4431 60.5072 62.4634 62.1448 62.4442 63.7656C62.5179 62.1448 62.579 60.5224 62.6668 58.9016ZM29.7648 61.7293C29.9992 61.8099 30.2415 61.8627 30.4801 61.8832C30.2268 62.0034 29.9372 61.9432 29.7648 61.7293ZM11.3894 9.80675C7.80717 13.8419 4.67109 18.259 0.818112 22.0512C-1.43953 24.081 -3.57548 26.8551 -1.81477 29.91C-1.44343 30.0558 -1.37817 30.6 -1.69838 30.856C-1.62192 30.8462 -1.13051 30.6093 -1.24093 30.8032C-2.22795 31.2224 -3.09578 31.8298 -3.84347 32.5648C0.815019 29.1556 6.99201 31.885 11.055 34.9404C13.0602 36.3978 14.9245 38.004 16.6704 39.7327C17.2951 39.844 17.9411 40.1759 18.4618 40.4353C22.0533 42.1517 22.6161 44.471 22.3197 48.1784C21.2418 50.2224 20.7319 52.5598 19.9809 54.7513C19.2085 56.4549 20.7281 55.3067 20.9459 54.5636C21.4747 53.9088 21.7299 53.0387 22.0541 52.2775L22.0774 52.2233C22.1694 52.0056 22.3669 51.8436 22.621 51.9162C22.825 51.9744 23.0142 52.2254 22.935 52.4428L22.7723 52.8597C21.9844 54.8743 21.1704 56.8994 20.5429 58.9639C22.663 57.7007 23.7127 55.3097 24.8257 53.1985C25.1315 52.6372 25.9543 53.1318 25.6788 53.6946C25.4232 54.2141 25.1624 54.7322 24.8862 55.2415C24.1642 56.7718 23.6408 58.3865 23.2074 60.0198C25.5903 58.6059 26.4209 55.7254 27.1063 53.2946C27.1486 52.6011 28.1537 52.7375 28.05 53.4183C27.7951 54.7696 27.4062 56.101 26.7977 57.3386L26.6368 58.2744C26.5298 58.8983 26.4237 59.5225 26.3226 60.1473C26.38 60.1194 26.4419 60.1158 26.5015 60.1304C28.6128 58.0155 29.4579 55.0975 30.195 52.2929C29.8445 51.1067 30.2735 49.8937 30.2245 48.6708C30.4109 47.1051 29.9033 45.6461 29.2003 44.2481C28.7791 39.9234 24.592 38.0476 21.6728 35.5056C18.0974 31.9905 16.2175 26.6085 11.192 24.8664C10.6695 24.8995 10.1658 24.7879 9.67675 24.6202C9.65539 24.6143 9.65171 24.5777 9.67675 24.574C10.1742 24.4932 10.6714 24.3669 11.17 24.2765C11.3043 23.8405 11.8416 23.7873 12.2455 23.9822C16.591 22.0875 20.1927 18.7559 23.6457 15.586C20.2741 12.4832 15.9088 10.5569 11.3894 9.80675ZM31.3848 53.7906C31.4569 53.8704 31.5202 53.9569 31.5674 54.0515C31.5803 54.0758 31.5789 54.1046 31.5829 54.1314C31.521 54.0156 31.4554 53.9012 31.3848 53.7906ZM17.6001 40.6749C18.8005 41.9279 19.9531 43.2336 21.038 44.5996C20.6489 42.6281 19.3745 41.4886 17.6001 40.6749ZM57.777 25.6644C55.1705 30.3482 51.0893 34.4627 50.1351 39.8938C50.0585 40.3584 50.0533 40.8289 50.0437 41.2978C52.9533 40.1176 56.0165 39.3824 59.0181 38.4766C60.1559 38.1742 61.2607 37.6983 62.456 37.6377C63.4412 35.9385 62.65 34.2752 61.7827 32.7253C60.6529 30.2649 58.8656 28.137 57.777 25.6644ZM15.7732 23.3862C15.0196 23.807 14.2423 24.1918 13.4226 24.4649C14.1283 24.821 14.7735 25.2709 15.371 25.7831C15.6712 25.0226 15.7836 24.1989 15.7732 23.3862ZM34.9353 -3.61445C34.544 -0.183093 34.563 3.3576 35.4791 6.70652C36.8449 11.9256 41.9023 16.805 47.6246 15.7817C53.3982 14.5813 56.236 8.63295 57.4263 3.40244C54.3859 -0.435161 49.6262 -2.83575 44.7208 -3.02898C41.5312 -3.15868 37.9254 -2.13575 34.9353 -3.61445Z" fill="black"/>
</g>
<defs>
<clipPath id="clip0_38_156">
<rect width="113" height="136" fill="white"/>
</clipPath>
</defs>
</svg>
