<svg width="21" height="18" viewBox="0 0 21 18" fill="none" xmlns="http://www.w3.org/2000/svg">
<g clip-path="url(#clip0_38_36)">
<path fill-rule="evenodd" clip-rule="evenodd" d="M22.8954 1.01787C22.6468 0.66969 22.2 0.212725 21.7481 0.237299C21.6903 0.24043 21.6686 0.305777 21.7033 0.349995C21.8511 0.538369 22.0531 0.672351 22.2012 0.864638C22.3765 1.09222 22.503 1.36668 22.5853 1.64427C22.7049 2.04755 22.7379 2.50397 22.6313 2.91406C22.4435 3.63687 21.8497 4.1667 21.2019 4.43725C20.5606 4.70506 19.789 4.79654 19.1826 4.40414C18.2874 3.82486 17.5282 2.98981 16.4031 2.9733C16.14 2.96946 15.9545 3.09523 15.844 3.27476C15.733 3.10165 15.5499 2.97917 15.2933 2.97612C14.032 2.96133 13.0906 3.86735 12.032 4.43216C11.3166 4.81392 10.3908 4.69543 9.65276 4.44319C8.95654 4.20536 8.20076 3.72773 7.93811 2.97353C7.79313 2.55703 7.82561 2.07072 7.97448 1.66016C8.07236 1.39016 8.22348 1.12932 8.41046 0.917151C8.60433 0.697082 8.85918 0.558716 9.05778 0.350073C9.09836 0.307421 9.06633 0.241134 9.01301 0.237299C8.16956 0.177586 7.40793 1.22847 7.24871 1.99089C7.09188 2.74173 7.32573 3.4906 7.79906 4.06355C8.76153 5.22839 10.5437 5.61257 11.9307 5.27026C13.0534 4.99329 14.1197 4.35531 15.2933 4.44687C15.5505 4.46699 15.7352 4.35507 15.8466 4.1854C15.9582 4.36 16.1441 4.47419 16.4031 4.44805C17.4969 4.33746 18.4732 5.14574 19.5349 5.34312C20.3802 5.50019 21.2934 5.28833 22.0177 4.81313C22.7748 4.31641 23.3078 3.51964 23.3429 2.56971C23.3631 2.02321 23.2094 1.45778 22.8954 1.01787Z" fill="black"/>
</g>
<defs>
<clipPath id="clip0_38_36">
<rect width="21" height="18" fill="white"/>
</clipPath>
</defs>
</svg>
