<svg width="21" height="18" viewBox="0 0 21 18" fill="none" xmlns="http://www.w3.org/2000/svg">
<path fill-rule="evenodd" clip-rule="evenodd" d="M8.82936 7.44989C9.43657 5.96549 10.7619 4.87455 12.2877 4.47569C13.4082 4.18355 14.5842 4.19287 15.7264 4.30882C16.3249 4.36915 16.9668 4.41858 17.5308 4.65048C18.0124 4.84861 18.4049 5.2231 18.7 5.66269C19.0513 6.18361 19.2902 6.77981 19.458 7.3909C19.4818 7.47778 19.5042 7.56529 19.5251 7.65327C19.4521 8.11433 19.2972 8.50676 18.888 8.79663C18.4886 9.07969 18.0121 9.19548 17.5371 9.23662C17.4905 9.21327 17.4455 9.1893 17.4042 9.1647C16.6639 8.72252 16.1429 7.67756 15.2086 7.81897C14.3748 7.94526 13.826 9.03997 13.3301 9.68193C11.7385 9.87544 10.1481 9.37638 8.85303 8.42669C8.78726 8.10164 8.78344 7.77384 8.82936 7.44989ZM20.6069 6.32384C20.4795 5.951 20.3192 5.58991 20.1291 5.24974C19.5007 4.12479 18.5359 3.22845 17.3907 2.71608C14.6816 1.50565 11.1762 2.3589 8.98837 4.34408C8.24101 5.0227 7.48534 6.01994 7.25682 7.09264C7.18859 7.10674 7.12417 7.1438 7.07114 7.19597C5.49044 6.15752 3.86263 5.15839 2.58887 3.71889C1.66385 2.67299 1.02046 1.43522 0.62648 0.0750808C0.594273 -0.0368735 0.421253 -0.0204995 0.426496 0.103363C0.427994 0.132351 0.429492 0.16126 0.43099 0.190247C0.414512 0.136973 0.336615 0.164394 0.330623 0.216101C0.118655 1.86839 -0.146493 3.62017 0.0976826 5.28108C0.243739 6.27214 0.675165 6.99768 1.2519 7.78113C1.86983 8.62091 2.5694 9.402 3.2847 10.1511C3.7386 10.6265 4.21272 11.1749 4.76848 11.5236C5.41487 11.9286 6.14814 12.2366 6.83798 12.5491C7.53979 12.868 8.2521 13.1625 8.97788 13.4179C10.4287 13.9303 11.9282 14.2844 13.4539 14.4396C14.6756 14.5633 16.0717 14.6982 17.2424 14.2186C18.1397 13.8512 18.864 13.1869 19.4385 12.3877C20.0639 11.5173 20.5583 10.5259 20.8316 9.48035C21.1157 8.39433 20.6667 6.49894 20.6069 6.32384Z" fill="black"/>
</svg>
