<svg width="21" height="18" viewBox="0 0 21 18" fill="none" xmlns="http://www.w3.org/2000/svg">
<g clip-path="url(#clip0_38_45)">
<path fill-rule="evenodd" clip-rule="evenodd" d="M22.0792 2.56095C21.9792 2.24932 21.4648 2.27647 21.4965 2.64328C21.5327 3.06237 21.3952 3.52974 21.0105 3.73322C20.6076 3.94625 20.1543 3.75474 19.9085 3.38926C19.6948 3.0716 19.5474 2.72608 19.2786 2.44904C19.0286 2.1914 18.7245 1.9927 18.3919 1.87476C18.1329 1.78296 17.8641 1.75854 17.6035 1.78867C16.954 1.63552 16.2015 1.98385 15.7967 2.51227C15.7706 2.54632 15.7464 2.5813 15.723 2.61659C15.6828 2.55962 15.6408 2.50319 15.5964 2.44755C15.4817 2.30418 15.3393 2.27342 15.2108 2.31247C14.4787 1.74438 13.4528 1.66909 12.6213 2.18178C11.9552 2.59257 11.4042 3.19799 10.585 3.24511C9.9362 3.28244 9.22947 2.89614 9.18372 2.15212C9.15972 1.76363 8.65242 1.43978 8.3678 1.79947C7.76945 2.55578 7.64975 3.56042 7.9808 4.4749C8.33015 5.43978 9.0419 6.11947 9.9431 6.51931C10.9163 6.95107 12.0567 7.10102 13.1095 7.06682C14.1591 7.0327 15.1134 6.61158 15.746 5.71572C15.8215 5.60882 15.8879 5.50019 15.9461 5.39031C16.5603 6.20642 17.5232 6.54944 18.5039 6.57409C19.5299 6.59976 20.7428 6.41185 21.4682 5.58041C22.1673 4.77902 22.4085 3.58726 22.0792 2.56095Z" fill="black"/>
</g>
<defs>
<clipPath id="clip0_38_45">
<rect width="21" height="18" fill="white"/>
</clipPath>
</defs>
</svg>
