<svg width="21" height="18" viewBox="0 0 21 18" fill="none" xmlns="http://www.w3.org/2000/svg">
<g clip-path="url(#clip0_38_24)">
<path fill-rule="evenodd" clip-rule="evenodd" d="M26.3236 -1.33021C26.1646 -1.57986 25.7138 -1.42803 25.8301 -1.11343C27.0918 1.87395 26.5081 4.19751 22.962 3.7911C20.8242 3.64624 18.748 1.67368 16.601 2.65523C16.0474 3.11924 15.683 3.17676 15.0981 2.67464C12.7771 1.6149 10.1491 3.50397 7.81731 3.7591C4.16894 4.13342 2.18466 2.8598 4.02764 -1.04534C4.14306 -1.31064 3.80781 -1.66047 3.60231 -1.38812C1.05749 1.70185 0.929686 5.8507 5.02596 7.45144C8.03234 8.49607 13.7818 9.36046 15.8453 6.21101C17.1625 8.48527 19.9776 8.62137 22.2406 8.21441C27.7048 7.6881 29.3791 3.25791 26.3236 -1.33021Z" fill="black"/>
</g>
<defs>
<clipPath id="clip0_38_24">
<rect width="21" height="18" fill="white"/>
</clipPath>
</defs>
</svg>
