<svg width="21" height="18" viewBox="0 0 21 18" fill="none" xmlns="http://www.w3.org/2000/svg">
<g clip-path="url(#clip0_38_70)">
<path fill-rule="evenodd" clip-rule="evenodd" d="M17.246 2.66064C18.1245 2.72568 18.9555 3.29448 19.7113 3.73415C20.4386 4.1876 20.977 4.85942 21.407 5.60845L21.4349 5.65741C21.4602 5.69644 21.4152 5.74035 21.3782 5.72545L21.3725 5.7226C20.6587 5.34891 19.9055 5.04604 19.2047 4.63837C18.5204 4.19691 17.6801 4.04602 16.9907 3.64446C16.5966 3.33964 16.7149 2.6842 17.246 2.66064ZM14.9608 3.10542C14.9929 3.31454 14.9119 3.64644 14.6488 3.74341C14.1866 3.91355 13.7656 4.00528 13.3013 4.13802L12.6995 4.31391C11.5434 4.65372 10.3699 5.0185 9.3464 5.55382L9.3143 5.5391C8.57083 5.05373 12.6781 3.02881 14.0963 2.70622C14.3569 2.64689 14.9125 2.78988 14.9608 3.10542Z" fill="black"/>
</g>
<defs>
<clipPath id="clip0_38_70">
<rect width="21" height="18" fill="white"/>
</clipPath>
</defs>
</svg>
