<svg width="21" height="18" viewBox="0 0 21 18" fill="none" xmlns="http://www.w3.org/2000/svg">
<g clip-path="url(#clip0_38_48)">
<path fill-rule="evenodd" clip-rule="evenodd" d="M17.0996 8.16321C16.4011 7.51388 15.6182 6.20849 14.6147 7.24138C14.3666 7.53321 14.2661 8.18747 13.8866 8.31582C13.3826 8.48643 12.8831 7.92999 12.7113 7.50269C12.0086 5.12849 14.9136 4.47728 16.5686 4.86084C17.3771 5.2073 17.9726 6.60191 18.0086 7.32973C18.0318 7.81886 17.6351 8.53808 17.0996 8.16321ZM22.3691 4.50373C22.3622 4.47219 22.3527 4.44371 22.3412 4.4178C22.0323 4.29595 21.7879 4.42023 21.6368 4.65235C21.6418 4.71003 21.6583 4.76849 21.6687 4.8257C21.5522 5.08192 21.447 5.39896 21.2891 5.62036C21.2579 5.62286 21.2255 5.61942 21.1945 5.61003C18.576 5.89537 19.8544 3.03658 17.1986 2.32652C15.1456 1.97309 11.435 2.37793 10.4666 4.60766C9.70277 8.16916 5.81905 5.68751 4.5439 3.83531C3.18332 2.14965 2.30357 0.0898201 1.45532 -1.90896C1.27607 -2.33196 0.716647 -2.02948 0.777472 -1.62362C-0.00657819 0.0175853 0.0195219 1.98898 -0.174653 3.78694C-0.504953 7.37403 -0.826778 12.4045 2.36725 14.5948C6.52877 19.5031 16.9206 21.2351 21.7205 16.7253C23.382 12.9977 23.1772 8.45019 22.3691 4.50373Z" fill="black"/>
</g>
<defs>
<clipPath id="clip0_38_48">
<rect width="21" height="18" fill="white"/>
</clipPath>
</defs>
</svg>
