<svg width="21" height="18" viewBox="0 0 21 18" fill="none" xmlns="http://www.w3.org/2000/svg">
<g clip-path="url(#clip0_38_67)">
<path fill-rule="evenodd" clip-rule="evenodd" d="M19.3978 3.02601C18.9033 2.92905 18.392 2.95628 17.9008 2.84343C17.4215 2.73324 17.0409 2.40556 16.5778 2.25303C16.1704 2.11874 15.6928 2.20967 15.3754 2.46997C15.0806 2.32777 14.7456 2.29701 14.4102 2.34397C13.9015 2.41519 13.4269 2.6398 12.9739 2.88272C12.9214 2.91089 12.8688 2.93774 12.8163 2.96489C11.9791 2.94306 11.1209 2.94478 10.2994 3.13198C9.57202 3.29781 8.88435 3.6838 8.45055 4.32851C7.96507 5.05015 7.8774 5.96909 7.80255 6.82182C7.75492 7.36307 8.47537 7.47287 8.7195 7.08094C8.97262 6.67461 9.2361 6.26734 9.57337 5.93067C9.95647 5.5482 10.4224 5.39763 10.9447 5.36273C12.0973 5.28572 13.2575 5.35028 14.4112 5.29699C15.08 5.26607 15.8246 4.99772 16.0942 4.39104C16.3819 4.86147 17.0338 5.14117 17.5699 5.18359C18.1366 5.22851 18.7119 5.12106 19.2729 5.24424C19.8088 5.36194 20.4459 5.77845 20.3267 6.4446C20.2567 6.83591 20.7307 7.06662 20.9489 6.71836C21.8398 5.29534 20.962 3.33287 19.3978 3.02601Z" fill="black"/>
</g>
<defs>
<clipPath id="clip0_38_67">
<rect width="21" height="18" fill="white"/>
</clipPath>
</defs>
</svg>
