<svg width="21" height="18" viewBox="0 0 21 18" fill="none" xmlns="http://www.w3.org/2000/svg">
<g clip-path="url(#clip0_38_51)">
<path fill-rule="evenodd" clip-rule="evenodd" d="M-0.868291 -1.271C-0.338208 -1.271 -0.1211 0.0167674 -0.1211 0.0167674C1.22709 2.44253 2.52483 4.86145 4.8403 6.53038C7.41068 7.60518 9.93889 9.43569 12.8676 9.6364C14.188 9.49174 14.5752 8.23071 16.2058 8.67442C17.2462 8.93818 18.4143 9.45836 19.3761 8.70699C20.1891 8.15247 20.7611 7.3124 21.4623 6.63323C21.4981 6.51068 21.731 7.80388 21.6606 8.241L21.6062 8.4892C21.172 10.4905 20.7329 12.8456 18.79 13.9457C18.1981 14.2711 17.3676 14.5851 16.7107 14.4017C13.24 14.9792 9.47516 14.5567 6.43437 12.7501C5.36385 12.4598 4.56756 11.569 3.72457 10.8961C1.66273 9.01167 -0.700139 6.6245 -0.920332 3.76165C-1.14052 0.898803 -1.04247 -1.271 -0.868291 -1.271ZM9.61865 4.38182C10.8 2.40231 13.1471 2.72379 14.9734 3.62565C15.9822 2.91089 17.3133 3.04247 18.4079 3.54602L18.4077 3.54666C19.416 4.12226 20.1796 5.06737 20.8816 5.97131C21.0524 6.21148 21.1203 6.53415 20.8801 6.65255C19.7486 7.62567 17.3978 7.05457 16.331 6.33103C15.5612 6.26632 15.73 5.12602 14.8416 5.92407C14.2487 6.50558 13.504 6.86615 12.695 7.07983C10.8863 7.7278 9.22092 7.62016 7.64569 6.61011C7.44308 6.5896 6.61301 6.09969 6.90794 5.92535C7.22876 6.01575 9.00611 4.95128 9.61865 4.38182Z" fill="white"/>
<path fill-rule="evenodd" clip-rule="evenodd" d="M-1.14429 0.857004C-1.13223 0.752885 -0.977333 0.747727 -0.973863 0.857004C-0.902074 3.14737 -0.18732 5.65839 1.02153 7.6194C3.92665 12.5692 9.85625 15.0488 15.5633 14.1968C19.734 14.1379 20.1795 11.6719 21.2162 8.22845C21.7543 7.76749 22.0186 7.93264 21.8515 8.473C20.5664 12.6281 20.1264 15.0113 15.0418 14.9661C6.87761 16.182 -1.97619 9.21648 -1.14429 0.857004ZM10.3899 2.7039C11.7219 2.0834 13.3069 2.17096 14.4195 3.02898L14.498 3.04763C14.6928 3.09308 14.8798 3.12767 15.0988 3.10441C18.0429 1.48716 20.0084 4.30765 21.5178 6.41944C21.6317 6.42348 21.7244 6.5167 21.6936 6.62592L21.742 6.67984C21.5518 7.21198 21.2082 7.72567 20.7385 8.04841C19.1981 10.1885 18.0479 9.51949 16.0412 8.63835C13.9776 8.31601 13.8941 10.8542 11.0153 9.69145L10.9067 9.65454C9.95973 9.32813 8.87254 8.83308 8.18398 8.1177C8.16147 8.09425 8.18348 8.04906 8.21791 8.06078C9.81539 8.56332 11.8694 10.2042 13.4954 9.09869C13.9065 8.81088 14.2757 8.46146 14.7352 8.24471C17.3585 7.3288 18.2804 10.9459 20.5758 7.19063C18.7067 7.53051 16.5999 7.19257 15.2027 5.86459C13.1141 8.48943 9.04905 8.06887 6.46444 6.43852C6.11093 6.49163 5.58787 6.12677 5.91341 5.77946C6.26948 5.48413 6.83284 5.5999 7.27059 5.43974C8.6679 4.92103 8.99782 3.26772 10.3899 2.7039ZM15.0595 3.80152C13.5832 2.70572 11.3753 2.5212 9.96247 3.81388C9.08015 4.73858 8.50777 6.06554 7.08541 6.31011C9.52814 7.77729 13.038 7.80194 14.9189 5.46753C14.978 5.26571 15.2841 5.35276 15.3211 5.52814C16.6678 6.50869 18.3904 7.02976 20.068 6.7291C20.3384 6.68278 20.6054 6.61691 20.8658 6.53229L20.6182 6.17721C19.3017 4.29767 17.6081 2.10899 15.0972 3.65482C15.0404 3.68481 15.0165 3.60811 15.0094 3.56875L14.9785 3.59227C15.0008 3.64084 15.1858 3.80079 15.0595 3.80152ZM21.1047 7.06523C21.117 7.07675 21.1272 7.08934 21.1358 7.10243C21.1771 7.08001 21.22 7.05722 21.264 7.03536L21.2521 7.02622C21.2048 7.04025 21.1554 7.05321 21.1047 7.06523ZM-0.954197 -1.98514L-0.954758 -2.06025C-0.954691 -2.81622 -0.760004 -1.86313 -0.672581 -1.67563C-0.296707 -0.969532 0.0175402 -0.27077 0.415719 0.41759C2.01231 3.41489 2.25956 4.71403 5.47671 6.42146C5.7157 6.635 5.46465 7.01829 5.16775 6.9395C4.72364 6.82168 4.30481 6.52645 3.91795 6.28832C1.72723 5.10933 0.910054 2.70427 -0.0728347 0.610969C-0.361473 -0.219078 -1.02731 -1.10461 -0.954197 -1.98514Z" fill="black"/>
</g>
<defs>
<clipPath id="clip0_38_51">
<rect width="21" height="18" fill="white"/>
</clipPath>
</defs>
</svg>
