<svg width="22" height="18" viewBox="0 0 22 18" fill="none" xmlns="http://www.w3.org/2000/svg">
<g clip-path="url(#clip0_38_41)">
<path fill-rule="evenodd" clip-rule="evenodd" d="M19.2789 2.56903C18.1768 2.38391 17.0318 2.65751 15.9693 2.94903C14.2813 1.84514 12.0941 2.95937 10.8852 4.33854C10.4715 4.67793 9.60264 5.12873 10.0604 5.77624C9.88687 6.23396 9.84047 6.44935 10.1996 5.91425C12.2321 6.14732 14.4129 5.70702 16.4244 5.29175C17.1093 5.52115 17.7141 6.05751 18.467 5.8738C19.1789 6.02457 19.9495 6.16533 20.5922 5.71044C21.0815 5.69068 22.1702 6.56593 22.1527 5.54809C22.0013 4.57244 20.0592 2.94903 19.2789 2.56903Z" fill="white"/>
<path fill-rule="evenodd" clip-rule="evenodd" d="M20.1051 5.70114C18.9086 5.83301 17.6953 5.63923 16.6934 4.94725C16.5888 4.87501 16.4857 4.8758 16.4017 4.91814C16.2994 4.90687 16.1949 4.94748 16.1342 5.06378C15.8826 5.54642 15.0487 5.43888 14.5903 5.44875C13.091 5.47755 11.5393 5.39514 10.0963 5.84662C11.4763 3.15961 13.3849 1.99963 16.3382 3.05451C16.0715 3.2684 17.4022 2.76768 17.5189 2.75814C19.5623 2.24819 21.248 3.95521 22.0715 5.64675C21.4485 5.49907 20.7504 5.63 20.1051 5.70114ZM22.9591 6.15842C22.0582 4.13701 20.2817 1.91441 17.8038 2.26376C17.295 2.33835 16.7599 2.68449 16.2477 2.62204C14.7646 2.07648 13.5405 1.79928 12.0552 2.68144C11.4251 2.72832 7.87901 7.1013 9.56413 6.74428C11.6326 5.56113 15.2291 6.67556 16.5136 5.61732C19.0354 7.2662 21.0858 5.47504 22.507 6.50574C22.7541 6.73152 23.1007 6.45033 22.9591 6.15842Z" fill="black"/>
</g>
<defs>
<clipPath id="clip0_38_41">
<rect width="22" height="18" fill="white"/>
</clipPath>
</defs>
</svg>
