<svg width="21" height="18" viewBox="0 0 21 18" fill="none" xmlns="http://www.w3.org/2000/svg">
<g clip-path="url(#clip0_38_27)">
<path fill-rule="evenodd" clip-rule="evenodd" d="M15.7172 10.8052C13.4977 11.1455 11.8912 11.0752 10.8977 10.5942C9.41199 9.87499 7.96674 9.17913 6.61899 8.22647C5.23824 7.25046 4.06674 6.09145 3.23049 4.60786C2.45274 3.22744 1.80624 1.76267 1.15524 0.309198C1.1172 0.22426 0.74349 -0.62012 0.61149 -0.903283C0.40824 -1.34234 -0.185967 -1.20452 -0.185967 -0.522971C-0.185967 0.158579 -0.21501 5.32 0.92649 7.35034C1.95624 9.18412 3.70149 10.4654 5.43549 11.5838C7.35399 12.8203 9.90249 14.1571 12.1915 14.5103C14.263 14.8296 16.627 13.9327 18.127 12.4543C19.6952 10.9082 20.1392 8.8078 20.9485 6.79629C21.1292 6.34669 20.4885 6.07554 20.3005 6.5177C20.0645 7.0728 18.5368 8.50196 15.7172 10.8052Z" fill="black"/>
</g>
<defs>
<clipPath id="clip0_38_27">
<rect width="21" height="18" fill="white"/>
</clipPath>
</defs>
</svg>
