<svg width="21" height="18" viewBox="0 0 21 18" fill="none" xmlns="http://www.w3.org/2000/svg">
<g clip-path="url(#clip0_38_55)">
<path fill-rule="evenodd" clip-rule="evenodd" d="M39.0248 -4.57884C37.825 -3.43678 38.5958 -0.575718 39.0637 -1.34917C39.1334 -2.06541 39.3478 -3.4378 40.0435 -3.71547C45.1607 -3.94321 44.104 9.2598 34.5716 7.63479C28.4981 7.20717 22.0833 -1.97095 16.3719 3.61437C10.1664 -1.66018 3.15937 6.2473 -3.23086 7.33027C-8.42648 9.08355 -16.1908 5.86406 -14.7926 -0.819501C-14.4433 -2.78072 -11.8441 -5.02422 -10.2522 -3.03389C-9.78196 -2.56112 -10.3793 -0.829597 -9.88493 -1.18756C-9.11528 -2.07481 -9.31584 -3.49172 -10.0271 -4.37536C-11.2052 -5.83868 -13.3052 -5.19851 -14.5268 -4.16508C-20.0381 1.49248 -13.4001 10.0325 -6.75676 9.46836C0.52319 10.3975 10.4233 -0.159604 15.4274 4.96899C15.9377 5.49193 16.8966 5.49214 17.3402 4.96938C21.5945 -0.0435446 29.8051 10.2017 35.7359 9.47008C42.0435 10.0696 47.0916 2.12569 43.451 -3.49101C42.544 -4.91896 40.3642 -5.99521 39.0248 -4.57884Z" fill="black"/>
</g>
<defs>
<clipPath id="clip0_38_55">
<rect width="21" height="18" fill="white"/>
</clipPath>
</defs>
</svg>
