<svg width="21" height="18" viewBox="0 0 21 18" fill="none" xmlns="http://www.w3.org/2000/svg">
<g clip-path="url(#clip0_38_58)">
<path fill-rule="evenodd" clip-rule="evenodd" d="M19.3899 2.91446C18.7111 2.58326 17.9815 2.38612 17.2319 2.31623C16.9078 2.28595 16.271 2.19039 15.9263 2.41101C15.765 2.51431 15.6287 2.65862 15.5207 2.83487C15.4785 2.77406 15.423 2.72225 15.3879 2.65651C15.1991 2.30262 14.0405 2.29526 13.6907 2.32531C12.8612 2.39653 12.0539 2.59977 11.2935 2.94146C9.92844 3.55503 8.78169 4.82982 9.14229 6.44825C9.19329 6.67748 9.43937 6.76662 9.64209 6.72702C11.0085 6.45976 12.3749 6.19242 13.7414 5.92516C14.0586 5.86317 14.3759 5.80111 14.693 5.73905C14.9799 5.68294 15.3315 5.66517 15.6038 5.53604C15.7133 5.58488 15.8352 5.61587 15.9654 5.64279C17.6095 5.98354 19.2557 6.31411 20.9008 6.64977C21.098 6.69008 21.3568 6.58568 21.3922 6.35763C21.6283 4.83592 20.6996 3.55338 19.3899 2.91446Z" fill="black"/>
</g>
<defs>
<clipPath id="clip0_38_58">
<rect width="21" height="18" fill="white"/>
</clipPath>
</defs>
</svg>
