<svg width="21" height="18" viewBox="0 0 21 18" fill="none" xmlns="http://www.w3.org/2000/svg">
<g clip-path="url(#clip0_38_33)">
<path fill-rule="evenodd" clip-rule="evenodd" d="M20.9644 14.9372C21.1158 15.087 21.4445 15.4169 21.7595 15.5619H22.054C22.1172 15.5496 22.1793 15.5307 22.241 15.5094C22.3211 15.3041 22.3366 15.065 22.2972 14.8241C22.0746 13.4901 21.8758 12.1392 21.9818 10.7814C22.0816 9.50134 22.4347 8.22748 22.3394 6.93516C22.2064 3.88557 19.3844 1.77386 16.9138 2.39126C16.5948 2.42076 16.2829 2.51444 16.0051 2.68098C12.1511 0.993987 7.38782 3.8444 8.28497 8.50734C8.45694 9.76813 8.73429 10.9639 8.64909 12.2488C8.60829 12.8638 8.51447 13.4721 8.40437 14.0772C8.32172 14.5312 8.10294 15.0911 8.30394 15.5393C9.11139 16.0714 9.95319 14.9656 10.4925 14.0165C10.7748 13.2189 11.0093 12.4022 11.2738 11.5984C11.7509 10.1536 11.8615 9.35569 13.4361 8.96173C14.1162 8.71967 14.7233 8.3628 15.2438 7.89229C15.644 7.69234 15.872 7.2918 16.0084 6.8868C16.0763 7.0862 15.9824 7.32827 15.9653 7.53527C17.1074 9.11473 18.5206 8.81569 19.029 9.914C19.418 10.9479 19.6367 12.0501 19.9343 13.12C19.9751 13.2664 20.7286 14.7038 20.9644 14.9372Z" fill="black"/>
</g>
<defs>
<clipPath id="clip0_38_33">
<rect width="21" height="18" fill="white"/>
</clipPath>
</defs>
</svg>
