<svg width="22" height="18" viewBox="0 0 22 18" fill="none" xmlns="http://www.w3.org/2000/svg">
<g clip-path="url(#clip0_38_30)">
<path fill-rule="evenodd" clip-rule="evenodd" d="M19.496 8.74349C19.2218 8.65412 18.9525 8.55011 18.6819 8.44986C17.2983 7.75764 15.627 7.63211 14.176 8.21507C13.4638 8.5012 12.7998 9.01529 12.0852 9.3522C11.9154 9.41528 11.7443 9.47257 11.5713 9.52062C11.4652 9.48384 11.3592 9.44471 11.2539 9.40558C10.4959 9.12102 9.78293 8.77002 9.09072 8.38388C9.01686 8.28034 8.94026 8.1797 8.85791 8.08305C9.35881 8.01222 9.84925 7.89452 10.2929 7.77306C11.6554 7.40132 12.9392 6.79558 14.2969 6.4074C15.5612 6.04506 16.933 5.84706 18.2027 6.29706C18.8054 6.51071 19.3357 6.8848 19.9219 7.1368C20.2252 7.26671 20.5889 7.39427 20.9433 7.41306C20.7147 7.95854 20.4255 8.46801 20.0303 8.89219C19.8496 8.85384 19.6704 8.79984 19.496 8.74349ZM22.4441 4.47107C22.3228 4.57148 21.8221 4.89548 21.6597 5.08863C21.6178 5.07274 21.576 5.05647 21.5345 5.03972C21.4631 4.95238 21.3579 4.91403 21.2507 4.91638C20.502 4.56953 19.8354 4.07938 19.2407 3.4648C18.8179 3.02888 18.385 2.57262 17.8201 2.31984C17.1546 2.02088 16.5001 2.15862 15.8008 2.20401C15.0567 2.25332 14.3221 2.0428 13.5788 2.14375C13.0351 2.2181 12.5259 2.4474 12.0859 2.77062C11.1879 3.43036 10.5687 4.35697 9.80973 5.15601C8.94858 6.06227 7.88944 6.6414 6.71166 6.93723C6.69751 6.92784 6.68258 6.91845 6.66766 6.90984C5.79944 6.12723 5.0153 5.24366 4.32151 4.30219C3.64423 3.38262 1.8583 -0.756596 1.42694 -1.11973C1.2478 -1.27077 1.05137 -1.33573 0.863585 -1.33025C0.523371 -1.32242 0.209085 -1.08686 0.068442 -0.7159C-0.170415 -0.0851173 -0.0509866 0.730361 -0.0321295 1.3901C-0.00855804 2.19775 0.0448705 3.00462 0.129728 3.80836C0.213799 4.60271 0.32537 5.39471 0.464442 6.18123C0.53437 6.5788 0.612156 6.97558 0.697799 7.3708C0.724513 7.49523 0.758299 7.60636 0.799156 7.70966C0.840799 7.90453 0.885585 8.09862 0.933513 8.29114C1.24623 9.55193 1.73966 10.8143 2.68173 11.7448C3.6623 12.7144 4.99487 13.3585 6.23237 13.9345C7.41094 14.4831 8.64608 14.9707 9.91344 15.3526C11.0142 15.8496 12.1928 16.2424 13.3761 16.4491C14.6788 16.6768 16.0483 16.6909 17.3062 16.2401C17.9246 16.0186 18.5092 15.7095 19.0395 15.3244C19.7914 14.9355 20.4679 14.401 21.0219 13.6935C22.014 12.4256 22.4876 10.8869 22.6948 9.30028C22.7478 8.89419 22.9472 7.33779 22.9629 7.09547C23.0135 6.31292 23.0641 5.53038 23.1148 4.7478C23.1387 4.37849 22.6836 4.27307 22.4441 4.47107Z" fill="black"/>
</g>
<defs>
<clipPath id="clip0_38_30">
<rect width="22" height="18" fill="white"/>
</clipPath>
</defs>
</svg>
