<svg width="22" height="18" viewBox="0 0 22 18" fill="none" xmlns="http://www.w3.org/2000/svg">
<path fill-rule="evenodd" clip-rule="evenodd" d="M16.336 2.45175C15.4622 2.05975 13.8932 2.40182 13.3235 2.53784C11.9992 2.85417 10.6669 3.53778 10.2552 4.60878C9.79126 5.8158 10.717 6.19575 10.8532 6.13369C11.7699 6.19802 12.8617 5.62398 13.8224 5.47583C14.6023 5.35453 15.425 5.24864 16.1557 4.83589C16.6892 5.1282 17.8942 5.28621 18.8667 5.54181C19.6949 5.75937 20.0537 6.23121 20.8215 6.13088C21.7417 6.01067 21.3651 4.08287 20.3395 3.3019C19.217 2.44722 17.3186 2.1006 16.336 2.45175ZM18.0662 10.6946C17.3017 10.8803 17.2503 9.21133 17.1647 8.62171C17.0978 8.16107 16.7204 6.97315 15.7638 7.0244C14.8071 7.07566 14.4475 8.07093 14.496 8.68995C14.5275 9.09137 14.8989 11.1247 13.7135 11.382C12.9577 11.3793 12.0833 11.3285 11.2887 11.1826C10.3533 10.9716 9.13712 10.2329 8.81586 11.6877C8.70024 12.2112 12.8203 13.7668 14.6486 13.9075C16.5028 14.2818 18.6721 13.7063 19.9922 12.2935C20.2926 11.9721 21.1384 10.638 21.1987 10.3111C21.3253 9.62438 21.0321 9.18246 20.179 9.42451C19.5764 9.74507 18.5578 10.5752 18.0662 10.6946Z" fill="black"/>
</svg>
