<svg width="21" height="18" viewBox="0 0 21 18" fill="none" xmlns="http://www.w3.org/2000/svg">
<path fill-rule="evenodd" clip-rule="evenodd" d="M17.8198 5.15597C18.0253 5.37588 18.2225 5.61145 18.4085 5.85484C18.4603 6.24145 18.4723 6.63275 18.425 7.03658C18.356 7.62197 18.203 8.19406 17.996 8.74345C17.8738 8.72545 17.753 8.68945 17.6353 8.6331C17.2618 8.45388 17.0533 8.0931 16.8005 7.77458C16.2973 7.14145 15.3793 6.76736 14.7373 7.42397C14.4583 7.70962 14.2798 8.10484 14.0308 8.41867C13.757 8.7638 13.4495 9.09171 13.1285 9.3891C13.0888 9.42667 13.0475 9.46736 13.0048 9.50728C12.8263 9.29441 12.6508 9.07997 12.479 8.86241C11.9683 8.21441 11.5273 7.49675 11.2955 6.68754C11.222 6.43084 11.1763 6.16319 11.1583 5.89319C11.3855 5.59893 11.645 5.33128 11.9398 5.1098C12.8285 4.44067 13.8523 4.33188 14.9173 4.27397C16.019 4.21449 17.0113 4.29275 17.8198 5.15597ZM20.5078 8.26058C20.465 7.81293 20.399 7.34728 20.3015 6.88241C19.9453 5.15754 19.1735 3.43815 17.6263 2.65006C16.8943 2.27675 16.0625 2.14528 15.2735 2.32528C13.889 1.78449 12.3515 2.33623 11.2618 3.32545C9.97628 4.49232 9.38303 6.32362 9.18353 8.0391C9.04478 9.23258 8.99251 10.8271 9.31703 11.6931C9.64156 12.5591 11.704 14.8747 14.648 14.8908C18.8413 14.9138 19.8605 11.9631 19.9843 11.7048C20.501 10.6311 20.621 9.44545 20.5078 8.26058Z" fill="black"/>
</svg>
