<svg width="69" height="61" viewBox="0 0 69 61" fill="none" xmlns="http://www.w3.org/2000/svg">
<g clip-path="url(#clip0_5_50)">
<path fill-rule="evenodd" clip-rule="evenodd" d="M59.8988 16.3585C59.1636 13.5456 58.4875 12.353 57.1814 11.3754C55.9597 10.4609 54.1764 9.69287 51.5743 9.13185C48.8642 8.66445 48.7873 7.27503 48.1078 5.04191C47.9095 4.37057 46.9271 4.19194 46.5032 4.67582C46.4434 4.61218 46.3811 4.5539 46.3165 4.50123C46.3743 4.18106 45.9017 3.26338 45.9175 2.95712C46.0823 -0.239568 45.0222 -1.84483 42.3765 -2.44157C41.8011 -2.5714 37.8929 -2.64782 37.3319 -2.49482C34.8793 -1.82596 32.4648 0.297695 32.8343 2.85594C32.0644 3.84835 31.311 4.45407 30.1232 4.77383C27.4799 5.10489 24.8369 5.39926 22.1929 5.65126C17.0174 6.45193 12.1649 9.1541 8.84833 13.095C8.54243 13.4588 8.45405 13.9526 8.72403 14.3405C8.51255 15.234 7.32207 17.4013 8.25878 18.0139C6.71843 21.6477 3.17432 28.6715 3.16708 30.6781C3.13974 39.1079 4.06291 50.0804 12.4962 54.7454C12.8338 55.0729 12.8821 55.4352 13.0283 55.9223C13.3991 57.457 14.7456 58.5538 16.2194 58.4643C23.4796 58.6234 30.5116 57.7498 37.772 57.7074C40.9738 57.6888 44.8243 58.1602 47.6057 58.4742C50.3871 58.7883 53.1948 58.5105 55.8639 57.7074C56.089 58.057 56.5441 58.2606 57.0057 58.1602C59.7728 57.6179 62.0104 55.9359 63.9593 54.0976C64.5549 53.0289 66.8807 49.9841 65.9562 48.9242C66.7943 45.4296 66.7507 41.6747 65.2615 38.347C65.4726 37.737 65.0878 37.0667 65.2615 36.4368C65.3872 35.9809 65.7091 35.7924 65.8711 35.341C66.0991 34.7058 65.8511 33.8537 65.5944 33.2055C65.4893 32.8825 65.7881 32.5348 65.8711 32.2051C66.2649 30.6503 65.3631 30.7874 64.7129 29.748C64.7226 29.7448 64.8917 29.0027 64.8909 29.0064C64.9905 28.4767 64.7411 27.798 64.5235 27.3558C64.3765 27.0569 64.0615 26.8698 63.7486 26.9041C64.0638 25.8488 64.4623 24.9707 64.8909 23.954C65.6489 22.1618 66.6084 20.4456 67.6968 18.8234C68.1425 18.1591 67.5439 17.3895 66.8226 17.3443C64.4879 17.198 62.1788 16.8664 59.8988 16.3585Z" fill="white"/>
<path fill-rule="evenodd" clip-rule="evenodd" d="M53.0851 29.9113C52.1513 29.5501 51.1458 29.3505 50.1353 29.273C50.6793 29.179 51.225 29.0883 51.7751 29.0417C52.1589 29.0092 52.5148 29.0126 52.8032 29.2997C52.9956 29.4911 53.0859 29.7374 53.2124 29.9638C53.1711 29.9454 53.1281 29.928 53.0851 29.9113ZM63.1078 26.5343C61.5785 26.6109 60.0475 26.9696 58.6641 27.6195C58.0981 27.8858 57.5852 28.2702 57.4351 28.9027C57.3592 29.2257 57.3777 29.5594 57.4181 29.8856C57.4486 30.1327 57.4562 30.4481 57.6738 30.6154C57.7109 30.6437 57.7506 30.6653 57.7919 30.6811C57.2816 30.9083 56.7956 31.1813 56.3637 31.4625C55.9691 31.7197 55.5633 32.1158 55.3811 32.5627C55.3659 32.5119 55.3508 32.4646 55.3356 32.4196C55.0252 31.5142 54.5469 30.7727 53.7936 30.2742C53.9269 30.2152 54.0188 30.0753 53.9758 29.8823C53.797 29.0758 53.042 28.3751 52.1892 28.425C51.2555 28.4791 50.2525 28.8145 49.4081 29.2381C49.1003 29.2314 48.7931 29.2356 48.4896 29.2489C48.4373 29.2506 48.4398 29.3205 48.4896 29.3263C48.7359 29.3572 48.9822 29.3912 49.2285 29.4311C49.8139 29.5236 50.3976 29.6409 50.9686 29.7865C51.6536 29.9613 52.3622 30.1368 53.0024 30.4423C54.244 31.0357 55.0125 32.5869 54.8548 33.9367C54.8286 34.158 54.7417 34.8271 54.4304 34.758C54.1673 34.6998 54.0627 34.158 53.9708 33.9575C53.7245 33.4249 53.2808 33.077 52.7485 32.8415C52.1234 32.5644 51.4545 32.3771 50.8066 32.1592C50.4398 32.0352 50.0728 31.9111 49.7051 31.7879C49.3289 31.6607 48.9712 31.485 48.5705 31.5741C48.3284 31.6281 48.3006 31.9128 48.4364 32.0759C48.6431 32.3247 48.9501 32.3979 49.2479 32.5003C49.641 32.6351 50.0332 32.77 50.4254 32.9047C51.0319 33.1128 51.6671 33.2884 52.2583 33.543L52.2399 33.5846C52.1917 33.5713 52.1352 33.6188 52.1445 33.677C52.2331 34.2154 52.3563 34.8379 52.2195 35.3773C52.1116 35.8049 51.7311 36.2785 51.2369 36.1528C51.3145 36.0829 51.3432 35.9622 51.2909 35.8507C51.0951 35.4379 48.5309 33.8085 48.3023 34.4136C48.2947 34.4351 48.3182 34.451 48.3369 34.4477C48.5317 34.4077 48.8582 34.7356 49.0141 34.8396C49.2394 34.9895 49.468 35.1359 49.6907 35.2898C49.9345 35.458 50.1724 35.6344 50.4044 35.8166C50.5866 35.9598 50.724 36.1087 50.9332 36.1812C50.8236 36.2327 50.7366 36.3284 50.6996 36.4507C50.6051 36.7695 50.4229 37.0399 50.1066 37.1806C49.7751 37.327 49.4014 37.2347 49.0522 37.2705C48.5764 37.3179 48.1614 37.541 47.8147 37.8597C47.0868 38.5304 46.7215 39.7122 45.7034 40.0292C45.0952 40.2182 44.4204 40.0991 43.8046 40.0134C43.1172 39.9177 42.4474 39.8419 41.7549 39.9418C41.0919 40.0376 40.4652 40.2638 39.8595 40.5401C39.2918 40.7989 38.6642 41.092 38.1607 41.478C38.0569 41.1626 37.9523 40.8505 37.8729 40.5285C37.6857 39.7671 37.5845 38.9914 37.56 38.2092C37.5373 37.4644 37.5795 36.7163 37.6443 35.9747C37.6765 35.6044 37.7271 35.2357 37.7591 34.8654C37.7675 34.7722 37.7844 34.6723 37.7971 34.5725C38.6963 34.049 39.6409 33.648 40.5933 33.2352C40.5959 33.2344 40.5984 33.2326 40.601 33.2319C40.6305 33.2185 40.6592 33.2061 40.6887 33.1936C40.6878 33.1918 40.687 33.1903 40.6853 33.1885C40.7941 33.1229 40.87 33.0354 40.9156 32.9372C42.288 32.0392 43.4352 30.8135 44.2905 29.3837C44.649 28.7845 44.994 28.1629 45.463 27.6378C45.9624 27.0777 46.5554 26.7448 47.2892 26.5717C48.1471 26.3687 49.0311 26.2472 49.91 26.1781C50.39 26.1407 50.9264 26.0824 51.4495 26.085C51.8139 26.0874 52.1706 26.1182 52.498 26.2072C52.983 26.3387 53.2664 26.7025 53.5709 27.0702C53.8619 27.4231 54.1513 27.7768 54.4229 28.1447C54.6801 28.4933 54.9231 28.8536 55.134 29.2314C55.2605 29.4578 55.3778 29.6909 55.4764 29.9313C55.511 30.0163 55.5566 30.1127 55.5777 30.2009C55.5988 30.29 55.56 30.3841 55.6612 30.3841C55.2436 30.3898 55.2478 31.0481 55.6629 31.024C57.2875 30.9308 54.9602 27.8018 54.6202 27.3656C54.1385 26.7481 53.6418 25.9426 52.8708 25.6555C52.8598 25.6513 52.848 25.6472 52.8371 25.6438C53.0614 25.4341 53.2386 25.1829 53.4081 24.9273C53.5827 24.6643 53.791 24.3631 53.8484 24.051C53.8847 23.8522 53.6342 23.7389 53.5153 23.9129C53.3423 24.1667 53.2588 24.4879 53.1298 24.7668C52.9982 25.0496 52.8379 25.3168 52.7114 25.6022C52.4069 25.5098 52.0779 25.4675 51.743 25.4533C52.1656 24.8891 52.8876 23.8005 52.9746 23.6607C53.3744 23.0132 53.7548 22.3459 54.1184 21.6776C54.5114 20.9536 54.848 20.1996 55.2242 19.4673C55.4376 19.0521 55.6527 18.6334 55.8898 18.2306C55.9716 18.0925 56.0593 17.9543 56.1589 17.8287C56.1783 17.8038 56.2027 17.783 56.2255 17.7596C56.2516 17.7454 56.2786 17.7296 56.2938 17.7214C56.4304 17.644 56.4785 17.4642 56.5746 17.3501C56.7282 17.1663 56.9087 17.1447 57.1399 17.1421C57.6324 17.1371 58.1268 17.1562 58.6186 17.1696C59.3415 17.1895 60.0635 17.2178 60.7856 17.2553C61.004 17.2669 61.2217 17.2786 61.4401 17.2919C62.4903 17.3536 63.5397 17.4342 64.5865 17.5333C65.5127 17.6206 66.4388 17.763 67.3659 17.8312C66.1107 20.7731 64.7189 23.6616 63.1431 26.4495C63.1272 26.4777 63.1153 26.506 63.1078 26.5343ZM56.1437 34.1131C55.9412 34.2047 55.7447 34.3186 55.5616 34.4485C55.592 34.2463 55.5996 34.0332 55.5912 33.8193C55.7422 33.9791 55.9353 34.0706 56.1437 34.1131ZM64.7855 29.0526C64.7712 29.0542 64.7577 29.0617 64.751 29.0758C64.4709 29.6459 64.5881 30.2825 65.0453 30.7294C65.2849 30.9624 65.807 31.2254 65.7901 31.6082C65.7757 31.9177 65.4342 32.1774 65.2883 32.4329C65.1525 32.6709 65.1019 32.9322 65.2107 33.1903C65.3499 33.5206 65.7387 33.652 65.872 33.9767C66.0407 34.3885 65.7666 34.8854 65.5742 35.244C65.3954 35.5761 65.1642 35.9081 65.0108 36.2593C63.9825 36.7845 63.0622 37.5901 62.271 38.4081C61.4047 39.3027 60.6616 40.3554 59.2858 40.3288C59.1483 40.3263 59.0437 40.3979 58.9813 40.4969C58.5983 40.5143 58.2145 40.5218 57.8316 40.5236C57.1584 40.5268 56.4853 40.5202 55.813 40.4994C55.7658 40.3387 55.8004 40.1208 55.7977 39.9851C55.7894 39.5482 55.7852 39.1121 55.7666 38.6752C55.7616 38.5538 55.7565 38.4314 55.7514 38.3099C55.9935 38.7418 56.4659 38.9382 57.0041 38.9082C57.8695 38.8584 58.74 38.7185 59.597 38.5928C60.0483 38.5271 60.4988 38.4522 60.9484 38.3723C61.3178 38.3074 61.8391 38.3241 62.0972 38.0319C62.158 37.9637 62.1613 37.8389 62.066 37.7931C61.8104 37.6691 61.6493 37.7381 61.3684 37.7915C61.026 37.8571 60.6827 37.9195 60.3384 37.9779C59.6779 38.091 59.0159 38.1958 58.352 38.2882C57.9741 38.3406 57.5954 38.3922 57.2166 38.433C56.886 38.468 56.5131 38.5154 56.2466 38.27C55.7093 37.7739 56.0104 36.9426 56.3503 36.4416C56.3571 36.4317 56.3571 36.4224 56.3545 36.4141C56.6751 36.34 56.9948 36.2535 57.3136 36.1927C57.9269 36.0762 58.5443 35.9781 59.1626 35.8907C60.433 35.7117 61.7117 35.5936 62.9888 35.4746C63.3051 35.4446 63.3084 34.9537 62.9888 34.9828C61.1541 35.1484 59.3102 35.3056 57.5001 35.6544C57.0462 35.7409 56.5957 35.8391 56.1479 35.9497C55.9362 36.0014 55.7093 36.0821 55.4874 36.0846C55.4739 36.0846 55.4603 36.0846 55.4469 36.0837C55.0125 36.0705 54.9492 35.7035 55.188 35.3981C55.2175 35.3605 55.2479 35.3231 55.2791 35.2874C55.7008 34.7913 56.2262 34.4601 56.7678 34.1172C57.3744 34.0357 57.9792 33.8543 58.573 33.7211C60.039 33.3916 61.5051 33.062 62.972 32.7333C63.2595 32.6684 63.1373 32.2323 62.8497 32.2964C61.7362 32.5453 60.6228 32.7941 59.5092 33.0429L57.8796 33.4075C57.554 33.4798 57.1474 33.6254 56.7644 33.6779C56.5756 33.7036 56.3925 33.707 56.2272 33.6688C55.6932 33.5439 55.6662 32.8856 55.8965 32.4945C56.1546 32.0551 56.6422 31.7804 57.0749 31.5316C57.8248 31.0997 58.6228 30.7893 59.4022 30.4314C59.5405 30.4015 59.6789 30.3715 59.8172 30.3416C60.6219 30.1668 61.5414 30.0811 62.2988 29.7608C62.5257 29.6658 62.4017 29.313 62.1774 29.318C61.5894 29.3305 60.9745 29.5368 60.4001 29.6592C59.7784 29.7923 59.1559 29.9246 58.5342 30.057C58.4718 30.0703 58.1023 30.1868 58.0467 30.161C58.0112 30.1443 57.9986 30.0229 57.9868 29.9429C57.9487 29.68 57.921 29.4038 57.9623 29.1399C58.0534 28.5482 58.5536 28.2702 59.0597 28.043C60.1867 27.5379 61.4224 27.2217 62.6523 27.0952C62.9357 27.066 63.2191 27.0478 63.5042 27.0386C63.839 27.0286 64.1149 26.9703 64.2845 27.2957C64.551 27.8084 64.6978 28.4675 64.7855 29.0526ZM63.2205 47.6392C62.9749 46.8013 63.0417 45.9067 62.8735 45.0521C62.7867 44.6112 62.6682 44.1738 62.5388 43.7434C62.4344 43.3957 62.2602 43.0259 62.2405 42.6631C62.2393 42.6389 62.2682 42.6249 62.2881 42.636C62.6346 42.8318 62.9006 43.2549 63.0982 43.587C63.3347 43.9843 63.5153 44.4004 63.661 44.8379C63.9513 45.7095 64.1897 46.7608 63.8152 47.6392C63.7038 47.9007 63.3124 47.953 63.2205 47.6392ZM55.6317 36.5414C55.8392 36.5215 56.0467 36.4823 56.2542 36.4366C56.0222 36.6597 55.8079 36.9284 55.6889 37.2264C55.6705 36.9976 55.6468 36.7695 55.6156 36.5423C55.6207 36.5423 55.6266 36.5423 55.6317 36.5414ZM53.6374 53.9819C53.2715 53.73 53.0048 53.3778 52.6945 53.0669C52.3893 52.7613 52.8664 52.2905 53.1717 52.5963C53.4365 52.8613 53.6663 53.1925 53.9779 53.407C54.1279 53.5101 54.1973 53.6966 54.0991 53.8624C54.0122 54.0088 53.787 54.0848 53.6374 53.9819ZM51.5968 44.2995C52.2647 44.0146 52.9217 43.7042 53.6208 43.499C54.0386 43.3763 54.2155 44.019 53.8002 44.1409C53.1563 44.33 52.5525 44.612 51.9374 44.8743C51.5424 45.0427 51.1992 44.469 51.5968 44.2995ZM44.5424 44.1001C44.379 43.7025 45.0321 43.5311 45.1931 43.9232C45.3784 44.3744 45.5908 44.814 45.7761 45.2653C45.9393 45.6629 45.2864 45.8343 45.1254 45.4423C44.9401 44.9911 44.7276 44.5514 44.5424 44.1001ZM37.5795 52.0408C37.4707 52.184 37.2893 52.2615 37.1179 52.1603C36.9743 52.0755 36.8867 51.8498 36.9968 51.7049C37.3185 51.282 37.6443 50.8641 38.0213 50.487C38.3269 50.1814 38.8038 50.6525 38.4985 50.9578C38.1618 51.2945 37.8669 51.6631 37.5795 52.0408ZM36.5839 7.48579C36.8937 7.69451 37.165 7.94808 37.4297 8.20897C37.7373 8.51231 37.26 8.983 36.9524 8.67966C36.7294 8.45979 36.5046 8.2366 36.2433 8.06067C36.0924 7.95898 36.0247 7.76982 36.1223 7.60521C36.2098 7.45775 36.4334 7.38443 36.5839 7.48579ZM46.7139 18.1992C46.5388 18.5452 46.3811 18.8843 46.3711 19.2775C46.3605 19.7058 45.6857 19.7061 45.6964 19.2775C45.7093 18.763 45.9016 18.3167 46.1312 17.8632C46.3253 17.4793 46.9072 17.8169 46.7139 18.1992ZM50.4306 9.59491C50.7934 9.35632 51.1309 9.93328 50.7713 10.1698C50.4798 10.3614 50.1882 10.5533 49.8966 10.745C49.534 10.9835 49.1965 10.4066 49.556 10.1701C49.8475 9.97839 50.1391 9.78665 50.4306 9.59491ZM34.3096 24.6388C34.2477 25.0619 33.5975 24.8809 33.6589 24.4618C33.7538 23.8142 33.8696 23.1752 34.0476 22.5444C34.1642 22.1316 34.815 22.308 34.6983 22.7214C34.5203 23.3522 34.4045 23.9912 34.3096 24.6388ZM31.9436 32.265C31.5093 32.256 31.5092 31.5902 31.9436 31.5993C32.3367 31.6075 32.7231 31.7095 33.1023 31.8029C33.5241 31.9068 33.3442 32.5487 32.9229 32.4449C32.6024 32.3659 32.276 32.272 31.9436 32.265ZM31.0703 47.6274C30.921 47.699 30.768 47.7635 30.6171 47.8316C30.3151 47.9678 30.0132 48.1042 29.7114 48.2409C29.0826 48.5257 28.4542 48.8114 27.8263 49.0981C26.5695 49.6721 25.3029 50.2258 24.0431 50.7935C22.7583 51.3726 21.4769 51.9593 20.1971 52.549C19.5942 52.8267 18.9867 53.0942 18.3803 53.3647C17.8619 53.596 17.2211 54.0001 16.652 54.0381C16.6227 54.0401 16.6129 54.0036 16.6296 53.9849C16.8446 53.7436 17.1876 53.6033 17.4702 53.4465C17.7588 53.2862 18.0529 53.1355 18.3456 52.9826C18.9558 52.6637 19.5668 52.3473 20.1829 52.0395C21.4152 51.4243 22.65 50.8134 23.885 50.2034C25.1445 49.5811 26.4025 48.9547 27.6731 48.3546C28.2713 48.072 28.8701 47.7903 29.4693 47.5095C29.7939 47.3573 30.1186 47.2054 30.4434 47.0538C30.5836 46.9883 30.7225 46.9177 30.8659 46.8591C31.0564 46.7813 31.2013 46.7972 31.3978 46.7492C31.7183 46.6712 31.8571 47.0733 31.611 47.2484C31.4084 47.3926 31.3018 47.5159 31.0703 47.6274ZM26.5653 54.454C26.496 54.2879 26.641 54.086 26.801 54.0444C26.9925 53.9947 27.1461 54.1095 27.2161 54.277C27.401 54.7209 27.6646 55.1283 28.0037 55.4723C28.3069 55.7797 27.83 56.2507 27.5266 55.9431C27.1015 55.5119 26.7961 55.0079 26.5653 54.454ZM23.251 43.7676C22.9434 43.4642 23.4206 42.9935 23.7282 43.297L24.6027 44.1597C24.9104 44.4632 24.433 44.9339 24.1256 44.6305L23.251 43.7676ZM14.2785 42.361C13.6497 42.5429 12.9164 42.7102 12.4877 43.2394C12.4668 43.2652 12.4316 43.232 12.4441 43.2062C12.9929 42.0838 14.5668 41.6901 15.6564 41.2969C16.4272 41.0187 17.218 40.788 18.0154 40.5819C17.9357 39.6844 18.1555 38.7225 18.232 37.8293C18.3135 36.8758 18.3799 35.9198 18.414 34.9633C18.4488 33.9875 18.4573 33.0052 18.4247 32.0292C18.3923 31.0568 18.2644 30.0962 18.2083 29.1271C18.203 29.0334 18.3352 29.0289 18.3637 29.1063C18.6949 30.0057 18.8363 31.0019 18.9442 31.9502C19.0552 32.9271 19.092 33.9012 19.0779 34.8838C19.0632 35.8941 19.0036 36.9019 18.9219 37.909C18.8832 38.3863 18.8382 38.863 18.7958 39.34C18.7634 39.704 18.7484 40.0651 18.6731 40.4176C19.1541 40.3011 19.6362 40.1909 20.1167 40.0838C21.6491 39.7427 23.1878 39.4262 24.7137 39.0572C25.4628 38.8762 26.2011 38.6594 26.9468 38.4668C27.6489 38.2855 28.3901 38.0656 29.1109 37.9847C29.3682 37.9557 29.4009 38.3029 29.2306 38.4208C28.6447 38.8266 27.8666 39.1093 27.1898 39.3364C26.5106 39.5644 25.8046 39.7284 25.1084 39.8973C23.6566 40.2495 22.1911 40.5376 20.7278 40.8376C19.2665 41.1372 17.8024 41.4347 16.3575 41.8044C15.6617 41.9825 14.9682 42.1613 14.2785 42.361ZM10.8329 24.5501C10.4572 24.7677 10.1181 24.1921 10.4924 23.9752C10.9822 23.6916 11.5043 23.4784 12.0306 23.2706C12.4344 23.1111 12.6082 23.7552 12.21 23.9126C11.737 24.0993 11.2731 24.2952 10.8329 24.5501ZM9.47251 49.2842C9.09579 49.4997 8.75636 48.9242 9.13198 48.7094C9.65952 48.4077 10.2372 48.2064 10.7839 47.9424C11.1729 47.7545 11.5145 48.329 11.1245 48.5173C10.5779 48.7813 10 48.9825 9.47251 49.2842ZM8.86062 35.244C9.22485 35.5853 9.71097 35.746 10.1693 35.9254C10.569 36.0816 10.3937 36.7252 9.98993 36.5673C9.41886 36.3439 8.83717 36.1399 8.38344 35.7146C8.0678 35.4189 8.54582 34.9489 8.86062 35.244ZM12.8902 16.1763C13.2906 16.3312 13.1153 16.9748 12.7108 16.8183C12.2622 16.6447 11.7989 16.5125 11.3504 16.3389C10.95 16.184 11.1253 15.5405 11.5298 15.6969C11.9784 15.8705 12.4416 16.0027 12.8902 16.1763ZM19.9988 8.6026C20.4243 8.53186 20.6055 9.17349 20.1782 9.24464C19.6482 9.33293 19.1262 9.43621 18.6234 9.62811C18.2175 9.78307 18.0433 9.13912 18.444 8.98616C18.9469 8.79425 19.4688 8.69089 19.9988 8.6026ZM22.3476 27.0427C21.9575 26.8534 22.2998 26.2795 22.6881 26.4679C23.0974 26.6663 23.5214 26.8198 23.968 26.9136C24.3932 27.003 24.2121 27.6447 23.7886 27.5556C23.286 27.4499 22.8078 27.2659 22.3476 27.0427ZM24.566 16.6556C24.986 16.5421 25.1637 17.1845 24.7454 17.2976C24.0094 17.4965 23.2517 17.6 22.5103 17.777C22.0878 17.8778 21.909 17.2357 22.3309 17.135C23.0723 16.9579 23.8301 16.8547 24.566 16.6556ZM33.9768 13.3961C34.4039 13.474 34.2219 14.1156 33.7975 14.0381C33.3456 13.9556 32.8876 13.9543 32.4295 13.954C31.9946 13.9539 31.9954 13.2881 32.4295 13.2883C32.95 13.2885 33.4638 13.3024 33.9768 13.3961ZM64.6691 16.8742C63.5667 16.7702 62.4625 16.687 61.3566 16.6246C61.3051 16.622 61.2546 16.6187 61.203 16.6162C61.1972 16.6046 61.1896 16.5937 61.1819 16.582C60.821 16.0594 60.5553 15.5369 60.325 14.9459C60.1048 14.3834 59.8914 13.8034 59.5523 13.2958C59.1656 12.7174 58.6434 12.2648 58.0712 11.8726C57.7241 12.1029 57.4019 12.3725 57.1072 12.6583C56.7971 12.959 56.3198 12.4883 56.63 12.1875C56.892 11.9335 57.1715 11.699 57.467 11.487C57.1258 11.2824 56.7777 11.0902 56.4381 10.899C55.1651 10.1825 53.8619 9.52001 52.5317 8.91426C51.9134 8.63206 51.2875 8.38157 50.6574 8.12775C50.3182 7.99135 49.9834 7.81567 49.6443 7.65764C49.6688 7.42121 49.5971 7.15657 49.4132 7.00095C49.2774 6.88694 49.172 6.8445 49.01 6.76386C48.9737 6.75129 48.9518 6.7438 48.9417 6.73964C48.9493 6.74131 48.9712 6.74797 49.0074 6.75962C49.0935 6.79881 49.1003 6.78708 49.0277 6.7255C49.0235 6.59076 48.7543 6.30615 48.6928 6.16718C48.4786 5.69024 48.412 5.18593 48.0956 4.75153C47.6595 4.15318 46.9274 3.9269 46.2449 4.12988C46.1741 3.41003 46.1555 2.65864 45.8806 2.0161C45.873 1.9987 45.8485 1.99113 45.8375 2.01027C45.5507 2.4922 45.5263 3.02888 45.5043 3.58479C45.4833 4.10657 45.5034 4.64001 45.5727 5.15847C45.5288 5.19176 45.4841 5.22347 45.4377 5.25417C45.2201 5.39565 44.9856 5.50466 44.7393 5.58547C44.2703 5.73851 43.7785 5.80509 43.2867 5.82839C42.0172 5.88831 40.7089 5.76181 39.4605 5.54711C38.1978 5.3299 36.2619 5.00368 35.1383 4.38037C34.3968 3.96935 33.7128 3.46745 33.0193 2.98144C33.2708 2.18254 33.3349 1.32371 33.0818 0.648798C33.0514 0.568075 32.9232 0.553095 32.8988 0.648798C32.7402 1.29292 32.6938 1.94037 32.4829 2.577C32.4795 2.58615 32.4762 2.59622 32.4728 2.60529C32.407 2.56127 32.3412 2.51791 32.2754 2.47464C32.1236 2.37561 31.9169 2.44975 31.8258 2.59114C30.369 4.85555 28.062 4.98537 25.6394 5.3899C22.9882 5.83255 20.3236 6.31023 17.7744 7.17655C15.3367 8.0055 13.0069 9.21218 11.1612 11.0147C10.7434 11.4228 10.3527 11.8577 9.98394 12.3116C10.3407 12.356 10.6946 12.425 11.0439 12.5333C11.4575 12.6615 11.2798 13.304 10.8645 13.1753C10.4156 13.0361 9.96167 12.9673 9.50313 12.933C8.24907 14.6255 7.27126 16.5447 6.42571 18.4337C4.80388 22.0555 3.74821 25.9125 3.26243 29.8394C3.52915 29.6817 3.80068 29.5315 4.07895 29.3918C4.46562 29.1978 4.80666 29.7723 4.41957 29.9667C3.98971 30.1824 3.57217 30.4201 3.16761 30.6779C2.9909 32.3968 2.9224 34.1268 2.9639 35.854C3.0626 39.9717 3.62607 44.2101 4.90063 48.1389C5.52568 50.0671 6.35401 51.9796 7.58809 53.609C8.1465 54.3471 8.78082 55.0129 9.52818 55.5679C9.89005 55.8376 10.273 56.0782 10.6771 56.2811C11.1975 56.5441 11.8757 56.6307 12.3245 57.0026C12.4721 57.1251 12.5859 57.2864 12.672 57.4687C12.6222 57.8149 12.6163 58.1619 12.7125 58.5081C12.7428 58.6164 12.8255 58.7045 12.9276 58.7469C12.9293 58.7769 12.9293 58.806 12.9293 58.8343C12.9293 58.8476 12.9495 58.851 12.952 58.8377C12.9563 58.8118 12.9605 58.786 12.9647 58.7595C12.9976 58.7702 13.0322 58.7753 13.0676 58.7753C14.3489 58.7801 15.6318 58.7493 16.9148 58.7063C16.8156 58.4065 16.7081 58.1092 16.605 57.8094C16.4649 57.4021 17.1168 57.2289 17.2557 57.6325C17.3764 57.983 17.5026 58.3304 17.6148 58.6822C18.9895 58.6318 20.3638 58.5712 21.7356 58.5265C24.6534 58.4307 27.5702 58.3991 30.4887 58.3384C35.0211 58.2436 39.5864 58.0496 44.1257 58.2394C44.2827 57.9107 44.4584 57.5895 44.625 57.2653C44.8215 56.8826 45.4035 57.2199 45.2077 57.6013C45.0919 57.8266 44.9719 58.0491 44.8579 58.2739C45.7773 58.321 46.6957 58.3833 47.6122 58.4682C49.1761 58.6129 50.7249 58.8701 52.2871 59.03C53.8754 59.193 55.4292 59.1639 57.0049 58.9051C57.2883 58.8585 57.4553 58.6895 57.5245 58.4798C57.527 58.479 57.5287 58.4774 57.5303 58.4748C57.6113 58.3816 57.6873 58.3043 57.7657 58.2368C57.8594 58.177 57.9606 58.1261 58.0796 58.0812C58.3014 57.998 58.5325 57.9472 58.767 57.9131C59.0251 57.8749 59.2866 57.8715 59.5447 57.8399C59.7623 57.8125 59.9749 57.7716 60.1874 57.7217C60.5696 57.6319 60.9323 57.5145 61.2934 57.3588C61.608 57.2233 61.8922 57.0285 62.1605 56.8162C62.7155 56.4159 63.1963 55.9051 63.6164 55.374C63.861 55.0636 64.0913 54.7416 64.3005 54.4063C64.6649 53.8253 64.9753 53.222 65.2891 52.6136C65.403 52.4334 65.5069 52.2488 65.6019 52.0603C64.9887 51.8821 64.3695 51.7368 63.7194 51.7264C63.2848 51.7195 63.2849 51.0538 63.7194 51.0607C64.465 51.0724 65.1703 51.2443 65.871 51.449C65.9051 51.3595 65.9379 51.2694 65.9682 51.1781C66.0517 50.9876 66.1208 50.792 66.1782 50.5939C66.2119 50.504 66.2457 50.4141 66.2794 50.3243C66.3553 50.013 66.4312 49.701 66.508 49.3889C66.6607 48.8896 66.7812 48.3828 66.8699 47.8693C66.9441 47.5314 67.0015 47.1911 67.0403 46.8465C67.1584 46.0118 67.2545 45.1788 67.2613 44.335C67.2512 43.8148 67.2174 43.2955 67.16 42.7787C67.1356 42.4276 67.0943 42.078 67.0386 41.731C66.966 41.215 66.8943 40.7042 66.7737 40.1948C66.6835 39.8503 66.5932 39.5057 66.5029 39.1612C66.2777 38.4431 66.012 37.739 65.7057 37.0507C65.689 37.0075 65.6037 36.9126 65.5523 36.9118C65.5135 36.9109 65.4594 36.9459 65.4771 36.9926C65.4789 36.9966 65.4805 37.0016 65.4823 37.0058C65.4646 36.9667 65.4477 36.9267 65.43 36.8876C65.4148 36.851 65.3558 36.7779 65.3102 36.7787C65.3077 36.7787 65.3051 36.7787 65.3018 36.7794C65.3136 36.7712 65.3245 36.7603 65.3355 36.7479C65.6383 36.3942 65.8349 35.9289 66.0517 35.5195C66.2313 35.1816 66.4009 34.8254 66.4498 34.4435C66.4927 34.1082 66.4346 33.7777 66.2212 33.5064C65.9783 33.1977 65.5211 33.0529 65.775 32.6068C66.0635 32.0992 66.4878 31.6589 66.0652 31.0822C65.8501 30.7885 65.5093 30.6271 65.2562 30.3715C64.9652 30.0761 64.8268 29.6808 64.8345 29.2772C64.8522 29.2872 64.8758 29.2823 64.8842 29.2572C65.1289 28.5282 64.9517 27.7277 64.7012 27.0178C64.5645 26.6326 64.2751 26.5268 63.9386 26.5077C65.3962 23.6991 66.7601 20.8454 67.9757 17.926C68.0162 17.8303 68.0559 17.7347 68.0954 17.6389C68.1546 17.4958 68.0297 17.3053 67.8855 17.2736C66.8345 17.0464 65.7396 16.974 64.6691 16.8742Z" fill="black"/>
</g>
<defs>
<clipPath id="clip0_5_50">
<rect width="69" height="61" fill="white"/>
</clipPath>
</defs>
</svg>
