<svg width="69" height="61" viewBox="0 0 69 61" fill="none" xmlns="http://www.w3.org/2000/svg">
<g clip-path="url(#clip0_5_2)">
<path fill-rule="evenodd" clip-rule="evenodd" d="M6.55137 59.4558C17.5715 61.1072 28.7916 61.1902 39.9034 60.5906C44.301 60.2657 48.712 60.2072 53.1061 60.6225C55.7026 60.813 67.0868 61.6715 68.0169 59.3772C67.4315 47.1602 66.2458 34.8391 62.6086 23.0893C61.1128 18.9172 59.8281 15.4545 56.9086 12.002C55.9885 11.0594 54.0042 9.08243 52.8672 8.43764C51.8822 7.87916 51.4705 8.0784 50.9049 7.13502C50.3428 6.09288 49.9282 4.35243 49.1301 3.61707C48.3176 2.86835 47.1133 3.13622 45.6207 3.37738C45.895 -0.278509 44.1844 -1.2096 41.828 -1.90482C37.6859 -3.46444 33.5951 -2.68093 32.5526 2.29369C30.6196 2.29369 29.5338 3.11437 28.36 3.90293C27.8801 4.22527 28.2139 5.04654 27.6408 5.2999C26.5803 5.67239 24.7064 5.58115 23.6853 6.03958C19.0423 8.12421 14.9069 11.1472 12.1911 15.5622C6.10252 24.9881 1.92016 44.844 2.6439 56.0159C2.32681 56.5065 2.7653 57.2099 2.87675 57.7375C3.01744 58.1963 3.47303 58.5016 3.9485 58.4494C4.612 59.1534 5.63826 59.3101 6.55137 59.4558Z" fill="white"/>
<path fill-rule="evenodd" clip-rule="evenodd" d="M52.1653 8.16138C52.0977 8.12418 52.1572 8.02881 52.2252 8.06035C55.4934 9.57295 58.0006 12.2267 59.7648 15.293C61.5915 18.4679 62.6327 22.0727 63.5303 25.5959L63.5626 25.7232C64.5198 29.4922 65.3336 33.3002 66.0663 37.1175C66.8083 40.9831 67.4039 44.8727 67.8831 48.7784C68.1201 50.7095 68.3314 52.644 68.4962 54.5825C68.5786 55.5511 68.6534 56.5206 68.7206 57.4904C68.7475 57.8783 68.7728 58.2661 68.7945 58.6544L68.81 58.9456C68.8234 59.2097 68.8552 59.4745 68.7891 59.7351C68.732 59.9597 68.6115 60.1631 68.5054 60.3693C68.2957 60.7769 67.7209 60.7098 67.4949 60.3693L67.4293 60.2701C67.2794 60.0416 67.1549 59.8293 67.1079 59.5449C67.0624 59.2696 67.0607 58.981 67.0403 58.7029C67.0028 58.1912 66.9708 57.679 66.9344 57.1671C66.8579 56.0896 66.7719 55.0127 66.6768 53.9367C66.4886 51.8124 66.2867 49.6901 66.0388 47.5716C65.5983 43.8068 65.0456 40.0519 64.3939 36.317C63.7573 32.6685 62.9524 29.0569 62.1127 25.45L62.0257 25.0769C60.5556 18.7793 58.2897 11.5269 52.1653 8.16138ZM17.3543 32.8212C17.3783 32.7582 17.4817 32.7437 17.4992 32.8212C17.7194 33.7991 17.7411 34.8063 17.7748 35.8076C17.8079 36.7952 17.8066 37.7874 17.792 38.7756C17.7382 42.4075 17.6371 46.0364 17.5497 49.6678C17.506 51.4842 17.465 53.3009 17.4336 55.1176C17.4217 55.799 17.4117 56.4803 17.4034 57.1617L17.3932 58.0604C17.3882 58.4577 17.3776 58.8502 17.3285 59.2471C17.2961 59.5082 17.2271 59.7572 17.081 59.981C16.9773 60.1398 16.8295 60.2204 16.6855 60.3284L16.6586 60.349C16.4748 60.4922 16.2813 60.4932 16.0994 60.349L16.0466 60.3077C15.8727 60.1736 15.7225 60.0689 15.6116 59.8568C15.4572 59.5619 15.4325 59.2416 15.4063 58.9167C15.3664 58.4241 15.3929 57.9242 15.398 57.4301C15.4083 56.439 15.4222 55.448 15.4398 54.4569C15.5045 50.8226 15.6324 47.1877 15.8655 43.5599C15.9753 41.8511 16.1241 40.1368 16.3238 38.4349L16.3619 38.1159C16.4225 37.6152 16.4777 37.1055 16.54 36.5942C15.6106 35.9494 14.7938 35.1669 14.0972 34.2793C14.0459 34.214 14.1304 34.1224 14.1923 34.1856C14.904 34.9127 15.7201 35.4923 16.6236 35.9481C16.7717 34.8778 16.9752 33.8133 17.3543 32.8212ZM32.8795 0.42498C32.8922 0.415243 32.9121 0.410999 32.9243 0.42498C33.124 0.654727 33.0835 1.006 33.09 1.29714L33.0907 1.32425C33.1051 1.74992 33.1078 2.17426 33.1063 2.60018L33.1019 3.95591C33.1013 4.14232 33.0859 4.33636 33.0956 4.52388L33.1007 4.59645C33.2056 4.70247 33.2544 4.85568 33.2188 5.00955C33.2124 5.20695 33.1078 5.37164 32.9552 5.47516L33.2822 5.93291L33.6096 6.39041C34.2843 7.33454 34.9665 8.27026 35.6774 9.18842C36.4023 10.1246 37.1756 11.0254 37.9849 11.8916C38.3803 12.3148 38.7824 12.7322 39.1938 13.1402C39.361 13.306 39.5324 13.4677 39.7019 13.6313L39.8705 13.7956C39.9701 13.8939 40.0955 13.9911 40.1616 14.1157C40.2005 14.1892 40.2094 14.3703 40.2233 14.4002C40.3481 14.6709 40.1351 15.1026 39.7812 14.9675L39.7972 14.957C39.8617 14.9128 39.8204 14.9121 39.6733 14.9551C39.5805 14.9548 39.4935 14.9338 39.4122 14.892L39.388 14.8789C39.2736 14.8215 39.1714 14.7105 39.0784 14.6216L39.0553 14.5999C38.8427 14.4034 38.64 14.1949 38.4362 13.9894C38.0108 13.5608 37.595 13.123 37.1925 12.6734C36.3895 11.7765 35.6282 10.8432 34.9072 9.8809C34.1729 8.90082 33.4903 7.87039 32.9033 6.79769C32.6805 6.39058 32.4763 5.97565 32.2805 5.55589C31.8994 5.43522 31.8109 5.03535 31.8375 4.58488C31.6969 4.26182 31.5702 3.93211 31.4953 3.59523C31.4851 3.54905 31.5452 3.50552 31.5812 3.54588C31.7031 3.68253 31.816 3.828 31.9245 3.97721C31.9899 3.66139 32.0728 3.37071 32.1117 3.18538L32.2807 2.36749C31.3286 2.31856 30.2853 2.70445 29.629 3.38003C29.5937 3.55595 29.4565 3.68186 29.3227 3.84631C29.1699 4.0343 29.0365 4.24526 28.9371 4.46588C28.7165 4.95487 28.841 5.67547 28.4129 6.03423C28.3683 6.0716 28.3184 6.09756 28.267 6.11363C28.4701 7.09626 28.3779 8.17902 28.3735 9.17592L28.3733 9.26366C28.3743 10.3794 28.3365 11.496 28.2929 12.6108L28.2484 13.7142C28.1908 15.1856 28.1534 16.6578 28.2983 18.1212C28.9601 17.543 29.6443 16.9912 30.3521 16.4655C30.8175 16.1197 31.2923 15.7863 31.7756 15.4654L32.1684 15.2065C32.639 14.8951 33.121 14.5747 33.6363 14.3518C34.3103 14.0603 34.9512 14.1605 35.6019 14.4595C36.2499 14.7573 36.8785 15.1033 37.5141 15.4261C38.1606 15.7543 38.8084 16.0798 39.4558 16.4061C39.8847 16.6223 40.5131 16.8174 40.8277 17.2154C40.8477 17.1273 40.8711 17.0395 40.8984 16.9521C40.8672 16.8187 40.8793 16.6745 40.9551 16.5371C42.012 14.6212 42.9899 12.6594 43.961 10.7001C44.4525 9.70855 44.9198 8.70525 45.4123 7.71427L45.891 6.74911C45.971 6.58833 46.0512 6.42767 46.1319 6.26725C46.2527 6.02708 46.3784 5.78924 46.5006 5.54965C46.5522 5.44843 46.6169 5.34788 46.6672 5.2457L46.691 5.19446C46.6921 5.19179 46.8081 4.83195 46.7185 4.86625L46.7108 4.86991C46.6651 4.89546 46.6285 4.8387 46.6581 4.8025C46.7848 4.64796 46.9612 4.78486 47.0335 4.92791C47.2327 5.3216 46.8677 5.9396 46.7274 6.31658L46.7197 6.33765C46.284 7.55424 45.7907 8.74803 45.2852 9.93765C44.3161 12.2185 43.2751 14.4642 42.2363 16.7139L42.2239 16.7526C42.4454 16.5851 42.682 16.433 42.8845 16.2851C43.3954 15.9117 43.9213 15.5566 44.4463 15.2028C45.4091 14.5538 46.398 13.9477 47.4032 13.3654L47.6045 13.2493C48.1067 12.9607 48.6041 12.7267 49.2001 12.8133C49.7538 12.8938 50.2686 13.1873 50.7689 13.4257L50.8206 13.4501L52.3663 14.1751C52.2011 13.525 52.0222 12.8781 51.8355 12.2335C51.4715 10.9763 51.0709 9.72969 50.6365 8.49421C50.2307 7.33987 49.7921 6.19816 49.3282 5.06548L49.1885 4.72553C48.9993 4.25917 48.8113 3.75063 48.2706 3.60705C47.7304 3.4635 47.1106 3.67637 46.6168 3.37254C46.572 3.34491 46.5775 3.27192 46.6319 3.25844L46.9366 3.18268C47.5087 3.04227 48.1794 2.90103 48.7204 3.03758C49.3091 3.18637 49.7961 3.67379 50.0818 4.18052C50.3993 4.7442 50.6232 5.37504 50.8642 5.97612L50.9024 6.07077C51.179 6.751 51.4451 7.43532 51.6996 8.12396C52.2086 9.50042 52.672 10.8934 53.0914 12.299C53.2935 12.9764 53.4852 13.6571 53.6695 14.3394C53.7225 14.5356 53.8099 14.7735 53.8816 15.0217C53.9637 15.1008 54.0415 15.189 54.1145 15.2896C54.2355 15.4565 54.1486 15.6523 53.9981 15.7522C53.9923 15.923 53.9539 16.0836 53.8619 16.2212C53.503 16.7587 52.5541 16.6203 52.5927 15.8977C52.5985 15.7871 52.6422 15.6815 52.7083 15.5923L52.7065 15.5778L52.6989 15.5513C52.5342 15.4734 52.3688 15.3866 52.1944 15.3017L50.5722 14.5108C50.1023 14.2817 49.5815 13.9278 49.0591 13.8405C48.572 13.7591 48.0581 14.1171 47.6395 14.3332L47.6124 14.347C46.6005 14.8587 45.5963 15.3873 44.5959 15.9202C44.1076 16.1805 43.6256 16.4515 43.1392 16.7148C42.7324 16.935 42.2934 17.2511 41.8363 17.3753C41.641 17.5251 41.409 17.5051 41.2226 17.3918C41.3078 17.9123 41.3026 18.4465 41.3287 18.9787C41.3639 19.6902 41.3692 20.4036 41.3809 21.1161L41.3856 21.3832C41.4163 22.9582 41.4327 24.5336 41.4388 26.109C41.4604 31.7186 41.3975 37.33 41.3829 42.9397C41.3754 45.7581 41.3188 48.579 41.2446 51.3964C41.2131 52.5903 41.1474 53.7827 41.0763 54.9747L41.0372 55.6249C40.9544 56.9968 40.9056 58.3838 40.6482 59.7372C40.6146 59.9137 40.3118 59.9182 40.2821 59.7372C40.0451 58.287 40.032 56.805 39.9864 55.3378L39.9768 55.0445C39.9221 53.4692 39.8961 51.8948 39.9016 50.3187C39.9219 44.7067 40.0698 39.0983 40.1907 33.488C40.2515 30.6692 40.2924 27.8491 40.3869 25.0312C40.4342 23.6212 40.4876 22.2121 40.5511 20.8027C40.5794 20.1734 40.6067 19.5448 40.649 18.9164L40.6681 18.6472C40.6813 18.4715 40.6919 18.298 40.7048 18.126C40.1293 18.3334 39.6029 17.9495 39.0852 17.6867C38.4885 17.3839 37.892 17.0806 37.2951 16.7783L36.6976 16.4766L35.502 15.8747C34.9637 15.6037 34.5489 15.3339 33.9747 15.6518C31.9062 16.7968 30.0053 18.3202 28.2826 19.9188C27.9523 20.2253 27.2543 20.143 27.1706 19.6292C26.8132 17.4342 27.0306 15.2075 27.2131 13.0058L27.2803 12.1885C27.3619 11.2122 27.4506 10.2359 27.5689 9.26366C27.6219 8.82872 27.6745 8.39404 27.7328 7.95994L27.7777 7.63446C27.8506 7.11992 27.8982 6.60845 28.0535 6.11496C28.0045 6.09931 27.9574 6.07368 27.9152 6.03423C27.4481 5.597 27.6733 4.83828 27.8864 4.31816C28.0969 3.80478 28.4179 3.35672 28.8198 2.97109C28.9074 2.88687 29.031 2.83269 29.1552 2.82986C30.1297 2.1929 31.1988 1.875 32.3115 2.22269C32.3427 2.07527 32.3746 1.92808 32.4081 1.78126L32.4423 1.63458C32.5288 1.27033 32.561 0.668647 32.8795 0.42498ZM42.8673 57.948C43.1697 57.8659 43.5007 57.9524 43.7223 58.171C43.9439 58.3896 44.0316 58.7162 43.9482 59.0145C43.9066 59.1614 43.8312 59.2889 43.7223 59.3971C43.6205 59.4969 43.5017 59.5681 43.3661 59.6108L43.3345 59.6201L43.2851 59.6404C43.1335 59.6806 42.9818 59.6806 42.8303 59.6404C42.6854 59.6003 42.5596 59.528 42.4528 59.4234C42.3468 59.3181 42.2735 59.194 42.2329 59.0509C42.1921 58.9014 42.1921 58.7519 42.2329 58.6023L42.2535 58.5535C42.2952 58.4067 42.3705 58.2791 42.4794 58.171C42.5891 58.0635 42.7184 57.9891 42.8673 57.948ZM60.8232 28.2187C60.8729 28.1624 60.9535 28.2345 60.9226 28.2943C60.4516 29.2053 59.9266 30.1099 59.4106 30.9977C59.4519 31.2438 59.4929 31.4879 59.5401 31.7258C59.7411 32.7399 59.9873 33.7357 60.1478 34.7595C60.7248 38.4394 61.0243 42.1592 61.2814 45.8722C61.5391 49.5984 61.5721 53.3263 61.6108 57.0599C61.6142 57.3834 61.3619 57.7595 61.0238 57.8205C60.869 57.8484 60.7532 57.843 60.5988 57.8205C60.2469 57.7694 60.0269 57.3718 60.0118 57.0599C59.9109 54.9732 59.7752 52.8892 59.6179 50.8058C59.3392 47.1122 59.1689 43.4089 58.9438 39.7115L58.8645 38.4192C58.7794 37.019 58.7016 35.6177 58.6762 34.2154C58.6593 33.2863 58.7097 32.3575 58.6788 31.4295C58.6502 30.5728 58.5621 29.6412 58.7536 28.7995C58.7607 28.7679 58.8112 28.7599 58.8258 28.7902C59.0248 29.2036 59.151 29.653 59.2481 30.1117C59.7612 29.4716 60.2836 28.83 60.8232 28.2187ZM27.2177 5.58728C27.2897 5.58218 27.2868 5.68896 27.2177 5.69686C26.2108 5.81207 25.2382 6.21629 24.2875 6.55985L24.2061 6.58914C23.2457 6.93292 22.3093 7.33271 21.4082 7.80923C19.6463 8.74095 18.0284 9.94231 16.598 11.3176C10.8869 16.8078 8.28424 24.7248 6.37712 32.1648C5.31749 36.2984 4.56398 40.5019 4.07558 44.7376C3.83408 46.8324 3.66335 48.9352 3.56381 51.0412C3.51286 52.1206 3.48073 53.201 3.46731 54.2814C3.4604 54.8348 3.45837 55.3884 3.45905 55.9418C3.45938 56.1955 3.50527 56.5148 3.43653 56.761C3.37276 56.9891 3.19292 57.19 3.05989 57.3801C2.90224 57.6056 2.6189 57.5937 2.45905 57.3801L2.40011 57.3023C2.22963 57.0792 2.06283 56.8659 2.03847 56.5744C2.01241 56.2618 2.0308 55.9396 2.02962 55.6256C2.02692 54.993 2.03485 54.3604 2.04767 53.728C2.07238 52.5158 2.1208 51.3041 2.19275 50.0938C2.33885 47.6376 2.57934 45.1863 2.92366 42.7494C3.53572 38.4178 4.45314 34.1276 5.65482 29.918C6.78851 25.9469 8.13156 21.9874 10.0448 18.309C11.8213 14.8936 14.1518 11.7164 17.2269 9.32948C18.6569 8.2195 20.2136 7.29443 21.892 6.5978C22.7385 6.24644 23.6274 5.95959 24.5314 5.79606C25.4253 5.63436 26.3154 5.65692 27.2177 5.58728ZM43.0406 50.9287C43.2003 50.9275 43.3783 50.9621 43.5153 51.0493L43.6984 51.1888C43.748 51.2517 43.7973 51.3147 43.8465 51.378C43.9609 51.5251 43.9761 51.7632 43.9523 51.9386C43.9469 52.0556 43.9116 52.1645 43.8465 52.2654L43.7071 52.4435C43.5732 52.5512 43.4615 52.6281 43.2993 52.68C43.2145 52.707 43.1328 52.7127 43.0514 52.7086L43.0243 52.7068L43.0406 52.709L43.0121 52.7058C42.9856 52.7036 42.959 52.7008 42.9324 52.6972C42.9142 52.6949 42.896 52.6936 42.8779 52.6911C42.8604 52.6897 42.8435 52.689 42.8259 52.6906C42.6197 52.7098 42.4125 52.5944 42.2661 52.4619C42.1343 52.3425 42.016 52.0893 42.0343 51.9098L42.0422 51.8347C42.0561 51.7082 42.0675 51.6584 42.1218 51.5313C42.1746 51.4076 42.2484 51.2985 42.3489 51.2063C42.5412 51.0298 42.7766 50.9305 43.0406 50.9287ZM42.4024 41.6677C42.6761 41.3736 43.146 41.3519 43.4853 41.5298C43.568 41.5733 43.6439 41.6429 43.7168 41.701C43.9004 41.8475 43.9726 42.1117 43.9827 42.3343C43.9927 42.5544 43.875 42.8158 43.7168 42.9678L43.6784 43.0045C43.5839 43.0952 43.4484 43.1741 43.3161 43.1981C43.1028 43.2368 42.9236 43.2356 42.725 43.1529C42.5543 43.0818 42.4072 42.9676 42.3072 42.8127L42.2909 42.7865C42.2841 42.7756 42.2776 42.7645 42.2715 42.7532L42.2627 42.7361C42.0725 42.3754 42.1236 41.9672 42.4024 41.6677ZM42.5442 32.358C42.6676 32.3198 42.7909 32.3144 42.9143 32.3417C42.9981 32.3419 43.0762 32.3627 43.1485 32.4041C43.2272 32.4258 43.2955 32.4651 43.3533 32.5219C43.423 32.5626 43.4786 32.6173 43.5199 32.6861C43.6019 32.7746 43.6573 32.8784 43.686 32.9975L43.7191 33.241L43.686 33.4845L43.5924 33.7032C43.5667 33.7364 43.5408 33.7695 43.5146 33.8024C43.4733 33.8714 43.4176 33.9264 43.3477 33.9672C43.3022 34.0118 43.2501 34.0452 43.1918 34.0683C42.9851 34.2145 42.7098 34.2621 42.4649 34.1956C42.3195 34.1555 42.1933 34.0828 42.0862 33.9779C41.9798 33.8722 41.9062 33.7476 41.8655 33.6042L41.8488 33.4897C41.8272 33.3361 41.8237 33.251 41.8678 33.0557C41.8871 32.9698 41.9432 32.8487 41.9726 32.7977C42.0981 32.58 42.3032 32.4308 42.5442 32.358ZM53.2596 25.6603C53.614 25.6578 53.9683 25.6585 54.3226 25.6624L54.5883 25.6659C55.0333 25.6728 55.4144 25.6275 55.7642 25.9321C56.0181 26.1531 55.9062 26.524 55.6653 26.6905C55.3001 26.9426 54.8421 26.8158 54.4223 26.788C53.9796 26.7587 53.5366 26.7344 53.0934 26.7148C52.2353 26.6769 51.3769 26.6528 50.5179 26.649C49.6608 26.6455 48.8025 26.6534 47.9454 26.6671C47.0734 26.6811 46.1654 26.7612 45.2983 26.6722C45.1792 26.6599 45.1524 26.5054 45.27 26.4652C46.0871 26.1863 47.0063 26.096 47.8626 25.9894C48.7459 25.8793 49.6291 25.8014 50.5179 25.7508C51.4309 25.6992 52.3452 25.6666 53.2596 25.6603ZM42.5425 22.9212L42.5718 22.9218C42.7277 22.9222 42.8737 22.9584 43.0098 23.0304L43.0388 23.0464L43.2261 23.189C43.3407 23.303 43.4201 23.4372 43.464 23.5919L43.497 23.8345C43.5019 23.9602 43.4753 24.0774 43.4174 24.1862C43.38 24.2994 43.3163 24.3973 43.2261 24.48C43.1422 24.5689 43.043 24.6319 42.9283 24.6687C42.8265 24.7214 42.7175 24.7479 42.601 24.7479L42.5718 24.7474C42.4048 24.7468 42.2491 24.7053 42.1049 24.6227L41.9175 24.48C41.8029 24.3661 41.7235 24.2318 41.6797 24.0772L41.6465 23.8345C41.6418 23.7089 41.6683 23.5915 41.7263 23.4828C41.7636 23.3697 41.8274 23.2717 41.9175 23.189C42.0014 23.1 42.1006 23.0371 42.2154 23.0003C42.3172 22.9476 42.4262 22.9212 42.5425 22.9212ZM45.2856 1.47797C45.4849 1.19311 45.8462 1.44643 45.7945 1.67545C45.8081 2.31866 45.8414 2.94289 45.9898 3.57295C46.0577 3.86139 46.1467 4.15016 46.2839 4.41438L46.3416 4.52564C46.5192 4.87189 46.6571 5.19844 46.4179 5.57829C46.3051 5.75738 46.1013 5.89186 45.8804 5.88246C44.9007 5.84076 44.766 4.49535 44.7065 3.7443C44.6451 2.97077 44.836 2.12068 45.2856 1.47797Z" fill="black"/>
</g>
<defs>
<clipPath id="clip0_5_2">
<rect width="69" height="61" fill="white"/>
</clipPath>
</defs>
</svg>
