<svg width="67" height="61" viewBox="0 0 67 61" fill="none" xmlns="http://www.w3.org/2000/svg">
<g clip-path="url(#clip0_5_106)">
<path fill-rule="evenodd" clip-rule="evenodd" d="M9.36215 59.2305C10.3427 59.2921 11.3231 59.3407 12.3035 59.3779C25.1245 59.8632 37.9351 58.3782 50.7481 58.0533C55.2101 57.934 59.6493 57.9936 64.0999 58.3576C64.536 58.3932 65.0347 57.9165 64.9811 57.4623C64.1588 50.251 63.1302 43.0588 62.597 35.8179C62.5966 35.4349 62.6453 35.0525 62.7748 34.6917C62.7992 34.6634 62.9259 34.3461 63.0385 34.3265C63.0017 34.3541 63.1684 34.3055 63.0622 34.3138C63.7057 34.2068 64.3368 33.5011 63.8699 32.8258C59.0593 25.3346 52.4925 18.4973 50.3798 9.5996C49.8806 7.19406 48.0777 7.04534 46.157 6.05295C45.5577 5.69086 44.0923 4.68773 43.8538 3.99035C43.2841 1.47687 44.2873 -0.985519 41.3565 -2.00255C39.4216 -2.54755 36.0019 -3.00867 34.0442 -2.43387C31.6562 -1.62639 31.8349 1.1077 30.4498 2.98872C29.7334 4.07671 28.5122 5.56635 27.3845 5.73305C26.8379 5.81384 26.4353 4.69055 25.8896 4.76787C17.3832 6.86692 5.79387 21.1862 2.13786 29.1129C1.31396 31.6075 3.97108 30.8549 3.80784 33.3623C3.6066 38.1192 3.16645 44.2089 3.42749 48.9715C3.67198 51.7357 3.49105 54.632 4.33674 57.2923C4.10912 57.5731 4.43618 57.8568 4.70303 57.9788C5.03926 58.5597 8.34765 59.1501 9.36215 59.2305Z" fill="white"/>
<path fill-rule="evenodd" clip-rule="evenodd" d="M31.5081 -0.00739541C31.7292 -1.01843 33.3125 -0.584856 33.0414 0.422018C32.6212 1.97914 31.7497 3.45046 30.5195 4.48322C29.5693 5.28046 28.2744 5.99191 26.9901 6.1234C27.1105 6.24248 27.226 6.36981 27.3472 6.49123C27.6207 6.76752 27.9115 7.02383 28.2113 7.27016C28.8273 7.77614 29.4678 8.23135 30.1672 8.61249C32.9611 10.1355 36.1171 10.4867 39.2376 10.1321C40.7185 9.96398 42.2215 9.67862 43.6139 9.12846C44.2594 8.87389 44.8868 8.53926 45.4405 8.11659L45.5854 8.00606C45.8766 7.78269 46.2651 7.46753 46.4471 7.12295C45.8934 7.24936 45.1931 6.65018 44.809 6.30157C44.3889 5.91876 44.0349 5.42518 43.7736 4.91921C43.2617 3.92648 42.9906 2.64573 43.4199 1.58127C43.4485 1.51053 43.5402 1.52226 43.5484 1.59883C43.6754 2.83963 44.0046 4.00304 44.8811 4.92179C45.2702 5.32873 45.7361 5.66993 46.2448 5.90702L46.3164 5.94043C46.5331 6.04229 46.7612 6.16176 46.8525 6.37971C46.8878 6.37555 46.923 6.37888 46.9566 6.38812C46.9869 6.39636 47.0147 6.40559 47.0417 6.41558C46.9811 6.29491 46.9493 6.15261 46.9549 5.98442C46.9763 5.33281 47.8568 5.31292 47.9788 5.89296C47.9566 5.8164 47.9272 5.89046 47.9829 5.91376C47.982 5.90701 47.9805 5.89959 47.9788 5.89296L47.9804 5.89905L47.9837 5.91372L47.9829 5.91376C47.9851 5.92425 47.9869 5.93518 47.9881 5.94621L47.9892 5.96072L47.9885 5.94857C47.9878 5.93959 47.9867 5.93155 47.9855 5.92423L47.9837 5.91372C47.9919 5.9178 48.0033 5.92042 48.0164 5.92042L48.0218 5.92259C48.0424 5.93158 48.1147 5.96586 48.1361 5.97452C48.2826 6.02944 48.4464 6.04683 48.5963 6.09427C48.9216 6.19588 49.2083 6.36398 49.4065 6.65018C49.549 6.85581 49.6284 7.09132 49.6611 7.33591C51.1002 8.03919 52.4624 8.95286 53.6034 10.0839C56.1499 12.607 57.9256 15.7652 59.3827 19.0342C60.1243 20.6984 60.7852 22.3978 61.4316 24.1019L61.5336 24.371C62.2265 26.2026 62.8392 28.0543 62.9899 30.0233C63.0038 30.1998 62.9465 30.3654 62.8474 30.5027C62.8826 30.6508 62.9007 30.7989 62.8957 30.9437C62.8949 30.9662 62.8933 30.9887 62.8916 31.0111C63.1242 31.007 63.3519 31.106 63.5681 31.384C63.6558 31.3557 63.7508 31.3523 63.8442 31.3831C64.4134 31.5678 64.5052 32.2028 64.6124 32.7346C64.7231 33.2839 64.7713 33.8464 64.7722 34.4064C64.7722 34.6071 64.6591 34.8601 64.4675 34.9458C64.1071 35.1071 63.7189 35.2129 63.3462 35.3594C63.066 35.4692 62.7851 35.5732 62.5017 35.6706C62.659 35.9493 62.7097 36.3372 62.7949 36.631C62.9284 37.0895 63.0357 37.5497 63.1259 38.0191C63.7369 41.2105 64.1603 44.4361 64.732 47.6343C65.0179 49.2362 65.3505 50.8274 65.6895 52.4186C65.8566 53.2008 66.0344 53.9813 66.2252 54.7586C66.3268 55.173 66.4324 55.5876 66.5414 55.9994C66.573 56.1198 66.6051 56.2398 66.6375 56.3597L66.6945 56.5696C66.819 56.6395 66.9255 56.7451 66.9992 56.8899C67.2688 57.4192 67.1139 58.0159 66.5971 58.3138C66.0352 58.6384 65.3644 58.3321 65.0547 57.8053C64.8369 57.4334 64.7656 56.9407 64.6583 56.527C64.5371 56.0627 64.4216 55.5959 64.3102 55.129C63.5535 51.9573 63.0467 48.73 62.6647 45.4906L62.6377 45.2592C62.4436 43.5915 62.256 41.9196 62.1348 40.2444C62.075 39.4213 62.0275 38.5983 61.998 37.7735C61.9832 37.3491 62.007 36.9222 62.0307 36.4986C62.0414 36.3131 62.0569 36.1266 62.0627 35.9411L62.0645 35.9147C62.066 35.8959 62.0682 35.8711 62.0699 35.8452L62.0717 35.8137C61.5065 35.9935 60.9332 36.1433 60.3542 36.2697C59.1222 36.5402 57.8617 36.6909 56.6044 36.6143C56.7797 38.7298 57.0082 40.8401 57.3276 42.9364C57.6356 44.9554 57.9911 46.9701 58.3924 48.9724C58.5932 49.9786 58.8102 50.9822 59.0387 51.9825C59.1615 52.5168 59.3016 53.0476 59.4122 53.5845C59.4777 53.9039 59.4982 54.1711 59.3663 54.4699C59.5115 54.8716 59.6405 55.2754 59.7673 55.6557L59.8053 55.769C60.0297 56.4347 60.4557 57.1154 60.0109 57.7696C59.7808 58.1074 59.4057 58.3005 59.028 58.3122C59.0215 58.3162 59.0141 58.3213 59.0067 58.3254C58.8036 58.4361 58.5693 58.4578 58.3466 58.4104C58.0083 58.4777 57.6692 58.5427 57.3293 58.6018C56.4897 58.7491 55.6461 58.8705 54.8008 58.9729C53.1913 59.1676 51.5712 59.2742 49.952 59.3333C44.0235 59.5504 38.0885 59.1693 32.1577 59.2791C29.136 59.3349 26.1145 59.473 23.0978 59.6562C21.5924 59.7477 20.0861 59.8459 18.5798 59.9216L18.1136 59.9447C16.7666 60.0101 15.4185 60.0607 14.0725 59.9608C14.0463 59.959 14.0258 59.9482 14.0119 59.9333C13.5475 59.88 13.0807 59.4455 13.1273 58.9438C13.328 56.8066 13.5286 54.6696 13.7301 52.5317C14.0881 48.7228 14.4493 44.9138 14.8146 41.1056L14.8674 40.5559C14.9901 39.2727 15.1073 37.9865 15.1668 36.6983C14.867 36.6767 14.5681 36.6493 14.2691 36.6159C11.0292 36.2555 7.92329 35.2599 4.9411 33.9521L4.82027 33.8989C4.55162 33.7798 4.25757 33.6608 3.95615 33.5335C3.96115 34.1152 3.94223 34.6977 3.93977 35.2736C3.93567 36.2298 3.94305 37.186 3.9455 38.1413C3.95124 40.1103 4.02495 42.0801 4.1216 44.0458C4.29115 47.5177 4.49019 50.9846 4.7916 54.4482C4.86778 55.3195 4.97106 56.1892 5.04388 57.0605C5.08737 57.5739 4.98327 58.0018 4.52057 58.2714C4.29279 58.4045 4.11669 58.3488 3.89063 58.2414C3.33857 57.9784 3.32301 57.3568 3.27059 56.8159C3.23054 56.408 3.1936 56.0003 3.15756 55.5917C3.08065 54.7204 3.01422 53.849 2.96016 52.976C2.74647 49.5075 2.68413 46.0423 2.83157 42.5695C2.90002 40.9452 2.99884 39.3172 3.12999 37.6957L3.16083 37.3217C3.26895 36.0259 3.33857 34.6661 3.56218 33.3621C2.66038 32.956 1.76677 32.4392 1.35232 31.5803C0.815096 30.4651 1.40556 29.5115 2.24675 28.8548C2.23856 28.7442 2.24675 28.6343 2.26968 28.5345C2.51131 27.4717 2.91593 26.4215 3.30663 25.408C3.7006 24.3893 4.13553 23.3866 4.61387 22.4053C6.53377 18.4749 9.15643 14.8832 12.2828 11.8572C13.8358 10.3544 15.5354 8.96535 17.3496 7.80027C18.2489 7.22364 19.1712 6.69095 20.1262 6.21668L20.2674 6.14683C20.9323 5.81902 21.678 5.47048 22.4173 5.28795C22.4942 5.2297 22.572 5.17477 22.6506 5.12235C22.9414 4.92586 23.3362 5.06817 23.5082 5.34862C23.5918 5.28288 23.6884 5.22471 23.799 5.17219L23.9083 5.12151C24.5716 4.81803 25.3682 4.53425 26.0883 4.73371C26.5355 4.85771 26.8877 5.19225 27.0458 5.61834C27.4086 5.4236 27.7649 5.22304 28.113 4.97754C28.6724 4.58475 29.1794 4.097 29.6348 3.5852C30.5481 2.55585 31.2116 1.35 31.5081 -0.00739541ZM63.1971 32.4483C63.1348 32.4667 63.0693 32.4733 63.0013 32.4649C63.1242 32.4796 62.8781 32.5533 62.8106 32.5887L62.8056 32.5915C62.6827 32.663 62.5591 32.732 62.4337 32.7987C62.1413 32.9551 61.8424 33.0957 61.5385 33.2281C60.9397 33.4869 60.3213 33.6858 59.6866 33.8315C59.0657 33.9737 58.4145 34.0569 57.7781 34.0702C57.3522 34.0785 56.8468 34.0586 56.4062 33.9312C56.457 34.716 56.5135 35.4999 56.5765 36.283L57.4468 36.0803C58.3172 35.8774 59.1866 35.6695 60.0453 35.4167C60.6899 35.227 61.3255 35.0049 61.9537 34.7651C62.283 34.6394 62.6098 34.5064 62.9325 34.3632C63.0931 34.292 63.2437 34.2072 63.3925 34.1214L63.5198 34.0478C63.4903 33.6975 63.4363 33.3538 63.3577 33.0076C63.3168 32.8245 63.2471 32.6364 63.1971 32.4483ZM3.60313 28.7525C3.49256 29.1171 3.32301 29.4574 2.93641 29.5398C2.79962 29.5689 2.68504 29.5531 2.58994 29.5057L2.56714 29.5524C2.24927 30.2153 2.15592 30.915 2.88726 31.4256C3.21743 31.6561 3.57692 31.8558 3.94878 32.0347C4.61376 32.3562 5.32194 32.6146 5.98962 32.8775L6.12259 32.9302C7.3168 33.4062 8.52984 33.8398 9.76173 34.2025C11.0117 34.5695 12.2836 34.8641 13.5713 35.0514C14.1143 35.1297 14.6614 35.1846 15.2094 35.2204C15.2184 34.4714 15.2143 33.7216 15.2118 32.9726C15.0169 32.9476 14.8236 32.921 14.6369 32.8985C14.0684 32.8312 13.5016 32.7488 12.9381 32.6464C11.7611 32.4325 10.5964 32.1371 9.46031 31.7593C7.3553 31.0577 5.3969 30.0549 3.60313 28.7525ZM26.6821 5.81049C26.2038 5.29628 25.2889 5.48186 24.7115 5.73151C24.5369 5.80724 24.3608 5.88381 24.1938 5.97618L24.1614 5.99457C23.9668 6.10844 23.9678 6.17612 24.0628 6.40301C24.1864 6.70186 24.3584 6.99054 24.5222 7.26767C25.2234 8.45696 26.1464 9.49221 27.2006 10.3668C30.9339 13.4625 36.2972 14.5545 40.9659 13.5175C43.2065 13.0204 45.3679 12.017 47.0173 10.3712L47.1675 10.2193C47.8326 9.54316 48.7456 8.56444 48.6815 7.56235C48.6512 7.08042 48.2638 7.05296 47.8682 6.95984C47.7061 6.92155 47.5512 6.86738 47.4169 6.7909C47.525 7.26442 46.9493 7.96837 46.6519 8.26389C46.0286 8.88379 45.2783 9.36813 44.4847 9.73022C42.9742 10.4201 41.3313 10.7463 39.6955 10.9526C37.8395 11.1874 35.9433 11.1666 34.1012 10.8196C32.4983 10.5175 30.9183 9.94576 29.539 9.05531C28.9067 8.64745 28.2834 8.18225 27.7559 7.64057L27.6438 7.52546C27.263 7.13343 26.8198 6.65956 26.592 6.14512C26.5052 6.14595 26.4192 6.14337 26.3332 6.13754C26.2726 6.1343 26.2399 6.04683 26.3004 6.01438C26.3684 5.97776 26.4364 5.94123 26.5044 5.90544C26.493 5.86708 26.4831 5.82971 26.4749 5.79143C26.4683 5.75898 26.5019 5.72902 26.5314 5.74733C26.5723 5.77221 26.6117 5.79892 26.6502 5.82713C26.6608 5.82222 26.6714 5.8164 26.6821 5.81049Z" fill="black"/>
</g>
<defs>
<clipPath id="clip0_5_106">
<rect width="67" height="61" fill="white"/>
</clipPath>
</defs>
</svg>
