<svg width="69" height="59" viewBox="0 0 69 59" fill="none" xmlns="http://www.w3.org/2000/svg">
<g clip-path="url(#clip0_5_70)">
<path fill-rule="evenodd" clip-rule="evenodd" d="M34.54 -4.18604C35.6736 -4.48547 36.9767 -4.45061 38.1398 -4.37407C39.3209 -4.29623 40.5883 -4.16278 41.6966 -3.74197C42.66 -3.37614 43.4725 -2.76094 43.9676 -1.8794C44.3746 -1.15474 44.5655 -0.359974 44.6851 0.447272C44.734 0.777631 44.775 1.10877 44.8139 1.44022L44.894 2.12979C44.9254 2.39348 44.9527 2.59117 45.0077 2.88535C45.1598 3.69903 45.3716 4.37886 45.8445 4.97087C46.9897 6.4041 48.8596 6.88383 50.56 7.49556C51.6482 7.88699 52.5098 8.59112 52.7489 9.72259C52.9795 10.8141 61.749 19.9717 62.6099 20.7437L62.6336 20.7645C63.3014 21.3383 63.2228 22.4168 63.3163 23.2042C63.4164 24.0485 63.5117 24.8934 63.6022 25.7385C63.7859 27.4557 63.9497 29.1746 64.0933 30.8951C64.655 37.6236 64.9098 44.3756 64.8556 51.1252L64.8522 51.5072C64.8439 52.3638 64.8505 53.2242 64.8103 54.08C64.7716 54.9024 64.5108 55.7256 63.7121 56.1552C62.9722 56.5532 62.0366 56.5182 61.2097 56.5579L61.1602 56.5604C60.2729 56.6067 59.3853 56.6447 58.4972 56.6761C54.8881 56.8035 51.2758 56.8173 47.6646 56.8014C40.5005 56.77 33.3293 56.6197 26.1721 57.0024C24.3476 57.1 18.5312 56.5072 16.7125 56.6761C14.9742 56.8375 16.4657 57.651 15.3918 57.5974C11.8601 57.4211 8.51018 56.6692 5.12648 55.7634C4.70379 55.6503 4.38056 55.2589 4.38581 54.8358C4.44871 50.1884 4.58621 45.5422 4.80105 40.899C4.99245 36.7629 5.24466 32.6293 5.55752 28.5C5.69355 26.7051 5.84101 24.9109 5.9999 23.1177L6.0687 22.3492C6.15845 21.3582 6.21007 20.349 6.41429 19.3718C6.61631 18.4052 7.07459 17.5671 7.73912 16.8182C8.3354 16.1463 15.0865 10.8867 16.7125 9.89097C18.2688 8.9378 19.903 8.13369 21.5007 7.2503C22.1654 6.88278 22.8038 7.01503 23.3717 6.56388C23.671 6.3261 28.0149 4.72368 29.1869 4.19493L29.2214 4.17924C30.1184 3.76858 30.9439 3.3233 31.5637 2.61321C31.7714 2.3752 32.179 0.875565 32.1797 0.396402C32.1811 -0.459541 32.1132 -1.3612 32.3838 -2.19034C32.7073 -3.18183 33.4873 -3.90802 34.54 -4.18604ZM36.4618 17.884L29.5207 30.7827H34.0342L30.7989 37.9494H37.9038L35.3835 47.9878L49.7965 30.7827H44.388L49.7965 24.0087H46.0453L49.7965 18.272L36.4618 17.884Z" fill="white"/>
<path fill-rule="evenodd" clip-rule="evenodd" d="M59.7783 25.1372C59.7623 25.1524 59.7455 25.1678 59.7294 25.1839C59.748 25.1589 59.764 25.1331 59.7783 25.1074V25.1372ZM46.2888 21.3798C45.6654 22.1397 45.0058 23.6859 44.4001 24.4595C44.3132 24.5705 44.228 24.6816 44.1437 24.7934C43.8923 25.1291 44.228 25.6426 44.6414 25.6209C45.4672 25.579 46.2921 25.5203 47.1171 25.4608C45.4225 27.2629 44.0155 29.5014 42.4592 31.4106C42.3537 31.5386 42.25 31.6674 42.1462 31.7961C41.7523 32.2863 42.1471 32.5086 42.6852 32.3765C42.7966 32.3492 42.9079 32.3218 43.0193 32.2953C43.8021 32.1037 44.584 31.9121 45.3668 31.7214C45.7995 31.615 46.2348 31.4839 46.6734 31.4026C46.8539 31.3696 47.0268 31.397 47.1972 31.4058C47.1154 31.5249 47.0007 31.7398 46.9779 31.7728C46.7223 32.1527 46.4651 32.531 46.2061 32.9077C45.7017 33.6403 45.1947 34.3719 44.6692 35.0906C42.6194 37.8933 40.4086 40.5689 38.2171 43.2694C37.6655 43.9487 37.1062 44.6209 36.5377 45.2865C36.5402 45.2824 36.5419 45.2784 36.5444 45.2745C37.0564 44.323 37.5684 43.3725 38.0805 42.421C39.0539 40.6132 40.018 38.8006 41.0016 36.9976C41.0522 36.9034 41.1036 36.81 41.1551 36.7158C41.3592 36.3423 41.0244 35.9544 40.6051 36.0332C38.5599 36.4177 36.5345 36.8902 34.5343 37.4497C34.4443 37.5412 34.312 37.568 34.1938 37.5459C34.1134 37.5688 34.0327 37.5909 33.9523 37.6141C33.9767 37.5659 34.0019 37.5182 34.0264 37.4701C33.9447 37.4023 33.904 37.2975 33.9572 37.1665C35.1082 34.3326 36.6862 31.5968 38.556 29.0912C38.4807 29.0926 38.4056 29.0937 38.3301 29.0957C36.2779 29.1489 34.2644 29.4298 32.2863 29.9634C32.277 29.7887 32.3875 29.5183 32.4474 29.3895C32.687 28.8751 32.962 28.3729 33.2193 27.8666C33.7456 26.8266 34.272 25.7876 34.7983 24.7475C35.3129 23.7317 35.8232 22.7128 36.3074 21.6825C36.5613 21.1423 36.8152 20.6014 37.0682 20.0606C37.2749 19.6203 37.4377 19.1767 37.6089 18.7261C38.1117 18.8669 44.5671 18.8974 46.1361 19.0014C46.5207 19.0271 46.9062 19.0505 47.2917 19.0706C47.5988 19.0875 48.0315 19.1519 48.2432 18.8871L48.3233 18.9514C47.6266 19.7466 46.9585 20.5637 46.2888 21.3798ZM21.0852 6.60492C21.1173 6.59123 21.1485 6.57755 21.1797 6.56386C21.1957 6.5856 21.2151 6.60572 21.2354 6.62584C21.286 6.67494 21.3357 6.72799 21.388 6.77636C21.2868 6.71994 21.1856 6.66279 21.0852 6.60492ZM66.2001 51.8401C66.1419 50.6674 66.0769 49.4945 66.0077 48.3218C65.8711 46.0295 65.7302 43.7371 65.5421 41.4479C65.16 36.8092 64.804 32.172 64.2313 27.5502C63.9909 25.6128 63.6552 23.69 63.3186 21.7661C63.3616 21.7291 63.4055 21.6921 63.4485 21.656C63.4021 22.1823 64.1512 22.5156 64.5223 21.9907C64.5501 21.9514 64.5771 21.9119 64.6041 21.8709C64.9255 21.375 65.6661 18.9425 65.6147 18.7365C65.5219 18.3654 65.2638 18.0355 65.0622 17.7087C64.8859 17.4228 64.7079 17.1371 64.5274 16.8538C64.1672 16.2863 63.796 15.7246 63.4072 15.1747C62.6016 14.0367 61.721 12.9436 60.6834 11.9882C59.6096 10.9981 58.3773 10.1843 57.1044 9.44625C56.4928 9.09201 55.8619 8.77093 55.2191 8.47142C54.5848 8.17683 53.8906 7.85084 53.2073 7.68342C53.1685 7.67376 53.1289 7.72535 53.1643 7.75272C53.3457 7.88955 53.5354 8.01826 53.7286 8.14222C53.2056 7.96924 52.6666 7.8444 52.1234 7.80013C51.0715 7.44758 50.007 7.12489 48.9602 6.75696C47.9311 6.39475 46.9172 5.98755 46.2331 5.12951C45.6485 4.39616 45.2791 3.49876 44.9948 2.62463C44.6827 1.66115 44.5587 0.659761 44.2702 -0.305328C44.2474 -0.383404 44.1133 -0.392258 44.0956 -0.305328C43.8898 0.70725 43.8991 1.84548 44.0163 2.86763C44.1395 3.93977 44.4558 4.99187 45.1441 5.86359C45.9438 6.87698 47.0285 7.44114 48.2491 7.89108C49.2335 8.25498 50.2305 8.62516 51.2385 8.95035C51.107 9.03253 50.9737 9.11455 50.8362 9.19263C50.2896 9.5026 49.721 9.77788 49.1399 10.025C48.0787 10.4765 46.9611 10.8146 45.8366 11.0891C43.7439 11.5977 41.5979 11.8562 39.4402 11.89C35.1231 11.9584 30.7579 11.0955 26.8093 9.42935C25.6976 8.96009 24.612 8.44406 23.5373 7.90243C23.2016 7.73332 22.8642 7.56268 22.5285 7.38721C22.5563 7.38568 22.585 7.38326 22.6128 7.38077C23.3627 7.31324 24.1033 7.1756 24.8288 6.98081C26.3142 6.58077 27.7381 5.95696 29.1366 5.34273C30.3226 4.82196 31.544 4.22874 32.2686 3.1438C32.6558 2.56346 32.8338 1.8825 32.978 1.21603C33.1391 0.473907 33.3289 -0.271522 33.4462 -1.02081C33.4875 -1.28321 33.4259 -1.63818 33.1307 -1.76214C33.0126 -1.81132 32.9156 -1.85156 32.7832 -1.85156C32.4905 -1.85156 32.1902 -1.64864 32.1201 -1.37015C31.9472 -0.675507 31.8426 0.0384497 31.7068 0.740252C31.5896 1.34715 31.4824 1.9807 31.1391 2.51428C30.5394 3.44886 29.3635 3.9269 28.3699 4.38175C27.1105 4.95807 25.8503 5.51981 24.542 5.98755C23.9658 6.19353 23.3796 6.38035 22.7849 6.5332C22.8085 6.39403 22.7883 6.24745 22.7022 6.13718C22.5588 5.95527 22.396 5.83454 22.2113 5.69537C22.0105 5.54396 21.7406 5.46516 21.5036 5.53197C21.5036 5.53269 21.5027 5.53197 21.5027 5.53197C21.4066 5.51185 21.3003 5.51981 21.1906 5.5673C20.8516 5.71549 20.5133 5.86512 20.175 6.01733C15.3088 8.20186 10.5808 10.7678 7.0001 14.6757C6.48386 15.2391 6.00053 15.8316 5.54756 16.4425C5.10724 17.0358 4.56232 17.6797 4.44086 18.4153C4.43073 18.4766 4.52436 18.5047 4.54039 18.4419C4.56907 18.3284 4.60787 18.2173 4.65595 18.1094C4.55558 18.4444 4.56148 18.8001 4.70319 19.1502C4.87105 19.5623 5.17894 19.8352 5.5678 19.9438C5.17725 21.5771 4.91491 23.232 4.70403 24.9053C4.40121 27.316 4.18611 29.7324 4.02416 32.1551C3.70025 36.9903 3.556 41.8496 3.6606 46.6935C3.69012 48.0626 3.73905 49.4318 3.81328 50.8002C3.85039 51.4844 3.89088 52.1676 3.93727 52.8518C3.98282 53.5248 3.94571 54.2661 4.56064 54.6211C4.56823 54.6477 4.57666 54.6733 4.58425 54.6999C4.73356 55.1965 5.3991 55.0372 5.46152 54.5864C5.46236 54.5816 5.4632 54.5759 5.46405 54.5712C5.96679 54.2049 5.89087 53.5948 5.85375 53.0096C5.81411 52.3778 5.77193 51.7468 5.7365 51.1157C5.66902 49.905 5.61166 48.6945 5.56021 47.4831C5.45983 45.0876 5.40331 42.6891 5.38476 40.292C5.34764 35.4971 5.63781 30.7095 5.98197 25.9284C6.12621 23.9281 6.29492 21.9368 6.34637 19.9374C6.61545 19.8038 6.69812 19.4239 6.56315 19.168C9.74998 21.243 12.7074 23.7237 15.0819 26.607C15.4783 27.0882 15.8571 27.584 16.2198 28.0888C16.3379 28.2529 16.4501 28.4236 16.5631 28.5942C16.4534 29.0699 16.3682 29.5537 16.2569 30.01C16.0275 30.9527 15.9305 31.9306 15.7989 32.8885C15.5315 34.834 15.3434 36.7971 15.1839 38.753C14.8701 42.6158 14.6373 46.4778 14.5639 50.3518C14.5235 52.5427 14.4695 54.7474 14.5707 56.9376C14.4956 57.3658 14.8997 57.7844 15.3223 57.8383C15.6926 57.8857 16.0384 57.7023 16.2004 57.4068C17.3543 57.5436 18.5386 57.6065 19.685 57.6145C21.2294 57.6249 22.7739 57.6234 24.3184 57.5919C27.4082 57.5275 30.4972 57.452 33.5862 57.3642C39.7641 57.1904 45.9421 57.0157 52.1209 56.841C53.8341 56.7927 55.5472 56.7444 57.2604 56.6962C58.0331 56.6744 58.9964 56.8868 59.6054 56.3178C59.71 56.2196 59.791 56.1045 59.8484 55.9813C60.0306 56.0248 60.2541 55.9821 60.3739 55.8477C60.5974 55.5958 60.7619 55.3624 60.7535 55.0131C60.7459 54.6862 60.6514 54.3418 60.6025 54.0182C60.5097 53.4105 60.4203 52.8027 60.3351 52.1942C60.1672 50.9917 60.0103 49.7876 59.8661 48.5826C59.5708 46.1188 59.3026 43.6493 59.0934 41.1774C58.6784 36.2892 58.5611 31.3753 58.5755 26.4717C58.5772 26.0331 58.5797 25.5944 58.5822 25.1556C58.6016 25.179 58.6227 25.2007 58.6455 25.2193C58.6641 25.2345 58.6826 25.2498 58.7012 25.266C58.9171 25.4471 59.2765 25.5405 59.5354 25.369C59.8534 25.1725 60.0727 24.8779 60.3207 24.6116C60.5814 24.3323 60.8496 24.0601 61.1204 23.7898C61.6451 23.2666 62.1874 22.765 62.7408 22.2692C62.7855 22.2299 62.8302 22.1896 62.8749 22.1509C62.8783 23.7116 62.8766 25.2716 62.9205 26.8315C62.9863 29.1489 63.1178 31.4638 63.2385 33.7779C63.478 38.3602 63.726 42.9409 63.9647 47.5225C64.0314 48.8016 64.0946 50.0813 64.1613 51.3603C64.195 52.0002 64.2279 52.6401 64.26 53.2801C64.2768 53.6261 64.2937 53.9731 64.3106 54.3193C64.3291 54.6911 64.3047 55.0887 64.4363 55.4421C64.7357 56.2501 66.0297 56.3644 66.2785 55.4421C66.4346 54.8634 66.3148 54.1936 66.287 53.5996C66.2583 53.0137 66.2296 52.4268 66.2001 51.8401Z" fill="black"/>
</g>
<defs>
<clipPath id="clip0_5_70">
<rect width="69" height="59" fill="white"/>
</clipPath>
</defs>
</svg>
