<svg width="69" height="62" viewBox="0 0 69 62" fill="none" xmlns="http://www.w3.org/2000/svg">
<g clip-path="url(#clip0_5_74)">
<path fill-rule="evenodd" clip-rule="evenodd" d="M4.77212 55.3061C4.65732 55.3098 4.69351 55.2762 4.73568 55.2681C4.74783 55.2807 4.75998 55.2935 4.77212 55.3061ZM8.16181 57.8328C11.3695 58.2141 14.5811 57.8653 17.773 57.5156C24.2394 57.0349 30.6604 58.4352 37.1395 58.0082C45.2367 57.666 53.3558 57.0235 61.426 58.1063C63.6582 58.1577 67.2186 58.7617 66.409 55.2968C65.3457 46.3886 63.924 37.5252 62.4011 28.6855C61.1105 23.7298 61.0172 15.1581 57.483 11.7119C56.9662 11.2388 55.1129 9.7085 54.6229 9.50304C52.1869 8.5936 47.7954 7.88394 45.9836 5.9561C44.516 3.46612 45.1987 0.0683002 42.9167 -1.93634C40.9167 -3.57371 36.5515 -3.2276 34.4133 -1.99808C32.7262 -0.9012 32.462 1.2293 31.4108 2.80484C31.1515 3.18234 30.5355 4.09236 30.1877 4.38595C29.3411 5.20327 26.3676 6.06194 25.5089 6.21968C20.6632 7.21541 18.2469 7.83065 14.4357 11.0596C4.47723 21.254 5.88886 39.2848 3.13333 52.6157C3.02055 54.0812 2.13207 56.0699 3.71722 57.0135C5.08246 57.6693 6.68768 57.5979 8.16181 57.8328Z" fill="white"/>
<path fill-rule="evenodd" clip-rule="evenodd" d="M44.8728 2.56723C44.8847 2.53255 44.9403 2.52663 44.9487 2.56723C45.0846 3.19053 45.3393 3.87405 45.5974 4.45853C45.8597 5.05061 46.2182 5.59449 46.6712 6.05632C47.6202 7.02396 48.8407 7.46548 50.1794 7.46633L50.2115 7.46718C50.2177 7.42206 50.2246 7.37695 50.231 7.33184L50.2402 7.26417C50.3625 6.33714 51.4599 6.3642 51.6741 7.06371C51.783 7.09839 51.8918 7.13307 51.9997 7.16944L52.0213 7.17722C52.2031 7.2466 52.8188 7.55405 52.9318 7.47225C53.1807 7.29285 53.4649 7.49847 53.5594 7.72769C53.7138 8.103 53.7396 8.56686 53.7897 8.97404L53.7964 9.02682L53.804 9.09026C57.3257 10.0081 59.3021 13.5411 60.3109 16.7959C60.8575 18.5604 61.2152 20.3806 61.5745 22.1907C61.9592 24.1268 62.3135 26.068 62.6888 28.005C63.4286 31.8222 64.1287 35.648 64.7369 39.4881L64.9132 40.6033C65.4704 44.1344 66.0131 47.6635 66.4695 51.2106C66.7158 53.123 66.9469 55.0372 67.1696 56.953C67.2095 57.2946 67.2491 57.6364 67.2883 57.9784L67.3468 58.4916C67.399 58.9517 67.4876 59.4068 67.2607 59.8373C66.7689 60.771 65.2793 60.7643 65.1949 59.5683C65.1781 59.3306 65.2582 59.1488 65.3906 59.0219L65.3888 59.0018C65.3875 58.9899 65.3862 58.981 65.3856 58.9771C65.3417 58.7394 65.3299 58.4882 65.3029 58.2479C65.2439 57.7354 65.1865 57.2228 65.1283 56.7094C65.0161 55.7315 64.9031 54.7538 64.7858 53.7769C64.5489 51.7951 64.2983 49.8158 64.0326 47.8382L63.7693 45.8829C62.8887 39.3651 61.9708 32.8487 60.7631 26.3827C60.4341 24.6225 60.0959 22.8648 59.7492 21.108C59.4202 19.4443 59.0507 17.7881 58.4991 16.1819C57.5982 13.5581 56.0233 11.1009 53.8369 9.37877C53.8707 9.7078 53.8951 10.0385 53.9263 10.3676C54.0065 11.2126 54.0917 12.0567 54.1777 12.9008C54.4907 15.9594 54.9149 19.0129 55.6387 22.0037C55.9972 23.4857 56.4341 24.9481 56.9664 26.3768C57.2287 27.0805 57.5147 27.7749 57.8285 28.4567C58.1389 29.1308 58.683 29.8515 58.7158 30.6026C58.731 30.9502 58.3683 31.2589 58.0327 31.2217C58.1895 32.6055 58.2781 34.0037 58.3717 35.3841C58.5083 37.3836 58.6172 39.3866 58.7766 41.3845C59.0617 44.9632 59.4193 48.5369 59.7939 52.1072C59.8681 52.815 59.9488 53.5222 60.0286 54.2294L60.0955 54.8231C60.1405 55.2081 60.2085 55.6694 60.0047 56.0107C60.1869 56.4514 60.3118 56.9039 60.3844 57.3759C60.4763 57.9629 60.1415 58.621 59.4581 58.5956C59.3805 58.593 59.3029 58.5862 59.2253 58.5778C58.5918 58.725 57.9601 58.8544 57.3021 58.8587C56.462 58.8646 55.6201 58.8477 54.78 58.8417C53.1546 58.8307 51.529 58.8198 49.9036 58.8062C44.0192 58.7589 38.1323 58.7614 32.2487 58.6667L29.8947 58.6292C27.7366 58.5944 25.5782 58.5543 23.4213 58.4755C21.9358 58.4214 20.4505 58.3664 18.9658 58.3063L18.6635 58.2948C17.3535 58.2469 16.042 58.2223 14.7465 58.0213C14.714 58.0158 14.7 57.982 14.705 57.9523L14.7068 57.9443L14.6503 57.9316C14.6174 58.0737 13.9342 57.4766 13.9392 57.0799C13.6558 56.7102 13.7882 56.1198 13.8186 55.6918C13.8481 55.2748 13.8853 54.857 13.9181 54.44C13.9882 53.5493 14.0481 52.6578 14.1198 51.7671C14.4091 48.1757 14.6588 44.575 14.8207 40.9759C14.9025 39.1616 14.9683 37.3464 15.0375 35.5321C15.0686 34.7061 15.112 33.8793 15.1928 33.057L15.2138 32.8516C15.3024 32.0177 15.2939 31.1211 15.6001 30.3352C15.6043 30.3243 15.6187 30.3243 15.6229 30.3352C15.9325 31.0999 15.962 31.9889 16.0244 32.828C16.0354 32.8246 16.0464 32.8229 16.0582 32.8204C16.4858 32.6165 16.9177 32.433 17.3226 32.1809C17.3774 32.1471 17.4306 32.1115 17.4846 32.0769C18.1214 30.123 18.8595 28.2012 19.5385 26.26C21.7325 19.9831 22.9438 13.2983 23.2121 6.65179C21.5385 7.73364 19.7159 8.5753 17.9441 9.47909L17.7781 9.56401C16.0329 10.4589 14.3618 11.4748 13.1193 13.0269C12.0363 14.3785 11.3285 16.0254 10.6664 17.613C9.95529 19.3191 9.31421 21.0556 8.72797 22.8082C7.5386 26.3641 6.61748 30.0071 5.8988 33.6873C5.1894 37.3194 4.68244 40.9784 4.34335 44.6629C4.17042 46.5424 4.01269 48.4235 3.88025 50.3072C3.81277 51.2605 3.75288 52.2146 3.69721 53.1695C3.67022 53.6331 3.64997 54.0974 3.61961 54.561C3.60105 54.8282 3.59767 55.1039 3.50995 55.3577C3.43656 55.5691 3.30666 55.746 3.18519 55.9329C2.96335 56.2738 2.40325 56.3355 2.1949 55.9329L2.10468 55.7585C1.98527 55.5263 1.87622 55.2924 1.86002 55.0245C1.84484 54.7707 1.87605 54.506 1.89039 54.2513C1.91822 53.7363 1.95028 53.2203 1.98233 52.7052C2.04981 51.6217 2.12489 50.5381 2.20924 49.4555C2.3771 47.2867 2.59304 45.1239 2.86465 42.9653C3.82036 35.3841 5.20036 27.8426 7.83383 20.6479C8.48503 18.8691 9.2113 17.1046 10.0312 15.3969C10.8241 13.7458 11.8271 12.187 13.283 11.0501C14.6232 10.0035 16.181 9.30291 17.7289 8.62292L17.9223 8.53801C19.6575 7.7776 21.3892 6.95883 23.2011 6.39381C23.1606 6.39888 23.121 6.40396 23.0865 6.4158C23.0467 6.42849 23.0232 6.37689 23.0477 6.34898C23.1505 6.23479 23.1935 6.11722 23.3117 6.00472C23.3933 5.9269 23.4781 5.85342 23.5655 5.78253L23.6911 5.68227C23.921 5.4993 24.1627 5.31235 24.452 5.24854C24.8612 5.15888 25.062 5.5319 24.9472 5.82371C25.0062 5.74674 25.1648 5.76958 25.2061 5.87531C26.5524 9.35678 27.4364 13.0421 29.2483 16.3316C30.5861 18.7617 32.3811 21.0057 34.7632 22.4732C36.0429 23.2615 37.5073 23.8671 39.0196 23.9627C40.3777 24.0482 41.6843 23.7021 42.8392 22.9875C45.0779 21.6028 46.5397 19.1719 47.5822 16.8162C48.7286 14.2229 49.5468 11.4595 50.0276 8.65812C48.5042 8.67926 46.8964 7.98229 45.8834 6.84633C45.3503 6.24832 44.953 5.52005 44.7514 4.74357C44.5481 3.96033 44.613 3.31664 44.8728 2.56723ZM32.0926 0.532962C32.2783 0.200548 32.6899 0.0905886 33.0265 0.225923C33.4001 0.376482 33.5123 0.740193 33.4592 1.10982C33.3975 1.54289 33.12 2.01073 32.9042 2.38873C32.6781 2.78459 32.3871 3.14923 32.0859 3.49002C31.5191 4.13285 30.9125 4.71225 30.1931 5.18601C29.4769 5.65706 28.6671 6.00977 27.8346 6.20685L27.6367 6.25316C26.9891 6.40164 26.0678 6.57174 25.5283 6.21878C25.5023 6.20178 25.503 6.1671 25.5283 6.15018C25.8202 5.94633 26.2108 5.90996 26.5465 5.81362C26.9126 5.70789 27.2796 5.58778 27.6296 5.43714C28.3205 5.1394 28.9818 4.74693 29.5705 4.27834C30.1619 3.80814 30.7337 3.24734 31.1294 2.60019C31.3285 2.27548 31.498 1.93452 31.6607 1.59119C31.8253 1.24685 31.9079 0.864531 32.0926 0.532962Z" fill="black"/>
</g>
<defs>
<clipPath id="clip0_5_74">
<rect width="69" height="62" fill="white"/>
</clipPath>
</defs>
</svg>
