<svg width="69" height="62" viewBox="0 0 69 62" fill="none" xmlns="http://www.w3.org/2000/svg">
<g clip-path="url(#clip0_5_30)">
<path fill-rule="evenodd" clip-rule="evenodd" d="M7.229 60.1553C7.67379 60.8329 8.54868 60.7287 8.9243 60.2038C13.2015 61.2031 17.5863 60.8093 21.923 60.5643C34.1433 60.0657 46.4325 61.6287 58.6035 59.9936C59.8946 59.7347 61.3973 59.8585 62.4537 58.9605C64.1434 56.9751 63.7795 53.9606 63.5103 51.5424C61.3528 37.9105 58.2855 24.1536 56.7555 10.4341C56.67 9.12728 57.2071 7.50351 57.6886 6.27502C57.8075 6.04647 58.5592 5.82249 58.9492 5.55884C60.1463 4.69727 59.9522 3.15328 58.9145 2.2473C55.5546 -0.127476 50.8775 0.702353 47.3134 1.57851C46.6303 -0.993925 45.8626 -2.68581 44.5621 -2.85336C42.0868 -3.17227 36.0824 -4.14679 34.2328 -2.85336C33.348 -2.23458 32.7801 -0.0542534 32.1431 1.00789C27.4981 0.92517 18.0707 -5.30646 16.1325 1.71087C14.5578 1.8199 12.9982 3.19845 13.2994 4.85274C11.2571 6.66233 12.8679 9.37569 12.8397 11.6281C12.5712 16.407 9.99237 20.6808 8.9195 25.2973C6.46713 34.2509 3.69144 50.5374 6.73309 59.2771C6.66763 59.2428 6.52466 59.2944 6.61728 59.3671C6.96169 59.4645 7.00648 59.8995 7.229 60.1553Z" fill="white"/>
<path fill-rule="evenodd" clip-rule="evenodd" d="M60.6326 57.8784C60.0621 53.286 59.6654 47.7421 59.6608 43.1114C59.6604 42.6753 60.3352 42.6761 60.3356 43.1114C60.3402 47.7421 60.7369 53.286 61.3074 57.8784C61.361 58.3101 60.6855 58.3048 60.6326 57.8784ZM56.4065 29.4037C55.525 29.9442 54.3675 29.5693 53.4951 29.2113C53.0979 29.0483 53.2728 28.394 53.6744 28.5588C54.3384 28.8313 55.3088 29.2324 56.0095 28.8524C56.7088 28.4732 56.7404 27.4299 56.7456 26.7415C56.7489 26.3055 57.4236 26.3059 57.4204 26.7415C57.4133 27.6781 57.2884 28.8627 56.4065 29.4037ZM54.7749 50.4192C53.8856 49.9621 53.1267 49.3372 52.516 48.544C52.2506 48.1991 52.8371 47.8626 53.0987 48.2024C53.6362 48.9006 54.3365 49.4346 55.1155 49.835C55.5025 50.0339 55.1606 50.6176 54.7749 50.4192ZM50.5003 26.8032C48.9743 32.9348 47.9503 39.1762 47.4484 45.476C47.3463 46.7549 47.2746 48.0321 47.2342 49.3102C47.1937 49.6434 47.1549 49.9775 47.1186 50.3116C46.9811 51.5752 46.8757 52.8593 46.8849 54.1314C46.8892 54.7024 46.9069 55.2708 46.9457 55.8399C46.8782 55.6496 46.8158 55.4586 46.755 55.2682C46.631 54.8783 46.5492 54.474 46.4227 54.0866C46.3181 53.766 46.1831 53.459 46.0574 53.1486V53.1477C46.0954 51.8764 46.0094 50.5933 45.9655 49.3279C45.909 47.6887 45.839 46.0511 45.8027 44.4111C45.7302 41.1309 45.7664 37.8482 45.8845 34.5698C46.1215 27.9637 46.7204 21.3891 47.3244 14.8101C47.4923 12.9805 47.6728 11.1518 47.7976 9.3188C47.9233 7.4665 47.9739 5.61073 47.9883 3.75335C47.9891 3.61962 47.7867 3.58418 47.7495 3.71351C47.7166 3.27283 47.6584 2.83299 47.5614 2.40753C49.0165 3.33796 50.5509 4.14235 52.0549 4.98819C52.8469 5.43395 53.6356 5.88731 54.4522 6.28655C54.9009 6.50638 55.3539 6.70862 55.8161 6.89978C56.2953 7.09771 56.7533 7.37007 57.2805 7.23211C57.326 7.22036 57.3691 7.20344 57.4104 7.18145C57.3505 7.29555 57.2906 7.40898 57.2332 7.5241C57.0342 7.92071 56.8444 8.3191 56.6605 8.72087C56.6116 8.75725 56.5686 8.80724 56.5348 8.87228C56.4454 9.04737 56.3585 9.22415 56.2742 9.40338C56.2573 9.3874 56.2404 9.37133 56.2236 9.35525C56.1527 9.28843 56.0548 9.389 56.1173 9.46183C56.1459 9.49473 56.1738 9.52696 56.2016 9.55995C55.6516 10.7467 55.2046 11.9943 54.744 13.2124C54.178 14.7094 53.6415 16.2175 53.1363 17.7358C52.1401 20.7225 51.2611 23.748 50.5003 26.8032ZM28.6843 49.0551C25.8719 50.5654 23.2438 52.3702 20.7161 54.3169C20.3716 54.5823 20.0358 53.9942 20.3755 53.7326C22.9032 51.786 25.5314 49.9811 28.3438 48.4707C28.7269 48.2651 29.0673 48.8494 28.6843 49.0551ZM19.1854 31.3671C19.0392 31.3562 18.8972 31.2712 18.8601 31.1188C18.6322 30.1834 18.4538 29.1645 18.6657 28.2105C18.7602 27.785 19.4106 27.9661 19.3164 28.3904C19.1493 29.1426 19.2821 29.9558 19.4556 30.706C21.9085 30.8137 24.3284 29.931 26.6752 29.3384C27.0972 29.2318 27.2754 29.8846 26.8546 29.9908C24.3652 30.6195 21.7903 31.5605 19.1854 31.3671ZM68.0168 56.3162C68.0193 56.3103 68.0219 56.3035 68.0236 56.2976C68.1678 55.8595 68.1712 55.3503 68.1872 54.8911C68.215 54.0739 68.1855 53.2551 68.1121 52.4406C67.9569 50.7261 67.6229 49.0395 67.2239 47.3672C66.4335 44.055 65.3167 40.8323 64.7102 37.4752C63.52 30.8852 63.8026 24.0238 61.4669 17.6674C60.496 15.0249 59.1092 12.4849 57.2248 10.3855C57.3623 9.96595 57.4964 9.54557 57.6272 9.12349C57.8558 8.38931 58.0894 7.63143 58.2303 6.87525C58.2337 6.85495 58.2379 6.83381 58.2404 6.81266C59.0426 6.46587 59.7722 5.81204 59.8971 4.94251C59.9511 4.56696 59.8886 4.15081 59.7267 3.78794C60.0574 3.48175 60.2699 3.0842 60.2193 2.55133C60.1248 1.54816 58.9566 1.2901 58.1434 1.09395C57.2189 0.87149 56.2598 0.809744 55.3142 0.914628C54.8368 0.96707 54.3644 1.05504 53.903 1.18699C53.5024 1.30118 53.0663 1.41875 52.7449 1.69449C52.7069 1.72663 52.7381 1.78922 52.7837 1.78922C53.434 1.78677 54.0819 1.54732 54.739 1.51593C55.4273 1.48388 56.1139 1.54055 56.7887 1.68265C57.4483 1.82137 58.1063 2.02437 58.706 2.33817C58.8747 2.42699 59.1219 2.48704 58.9237 2.66636C58.7786 2.79747 58.4935 2.80855 58.3071 2.82792C57.8946 2.87105 57.5386 3.11296 57.4863 3.55449C57.4399 3.94442 57.6719 4.38595 58.0852 4.47392C58.108 4.47908 58.1291 4.48491 58.1476 4.49253C58.1586 4.51367 58.1755 4.53143 58.1738 4.50268C58.1738 4.50268 58.1746 4.50183 58.1746 4.50268C58.1847 4.56442 58.1881 4.58887 58.1881 4.59318C58.1856 4.58811 58.1814 4.56696 58.178 4.55004C58.1805 4.56527 58.1856 4.5898 58.1923 4.62617C58.1831 4.58641 58.1906 4.68377 58.1831 4.69891C57.9637 5.10491 57.3151 5.21919 56.9372 5.39419C56.8638 5.42794 56.8005 5.46778 56.7465 5.51252C56.6571 5.48131 56.566 5.45002 56.4741 5.41534C56.0211 5.24532 55.569 5.08038 55.1101 4.9272C54.2244 4.6304 53.3277 4.36565 52.442 4.06791C50.7651 3.50459 49.1439 2.79324 47.4982 2.14871C47.4459 1.95416 47.3851 1.76385 47.3134 1.57861C47.2991 1.53979 47.2299 1.52701 47.2223 1.57861C47.197 1.7427 47.1768 1.90764 47.1599 2.07343C47.1532 2.08865 47.1515 2.10557 47.1549 2.12164C47.0595 3.0859 47.0849 4.07299 47.0359 5.0364C46.9752 6.23749 46.8056 7.43012 46.7576 8.63206V8.65405C46.5804 9.68006 46.4202 10.7094 46.2751 11.7422C46.1123 11.6915 45.9258 11.7016 45.7352 11.804C44.3873 12.5255 42.8723 12.9272 41.3481 13.0169C40.5805 13.0616 39.8204 13.0364 39.0571 12.9475C38.5552 12.89 38.0609 12.7851 37.5657 12.6853C37.8264 11.59 38.1064 10.4997 38.4227 9.42047C38.6834 8.5331 38.9736 7.65004 39.332 6.79659C39.6939 5.93468 40.1444 5.11168 40.5636 4.27599C40.7568 3.88944 40.529 3.2982 40.0271 3.3388C39.8787 3.35064 39.7302 3.35995 39.5809 3.36671C38.1283 3.43616 36.6176 3.27376 35.1836 3.12903C33.5514 2.96325 31.8973 2.79146 30.2794 2.52172C30.1596 2.50227 30.1107 2.66551 30.2288 2.70527C30.9964 2.9641 31.7547 3.25667 32.5417 3.45045C33.3515 3.65092 34.1663 3.83362 34.9879 3.97656C35.7749 4.11283 36.5653 4.22693 37.3582 4.32336C37.8753 4.3868 38.3983 4.41894 38.9187 4.46123C38.2178 5.5845 37.7344 6.85149 37.3135 8.0991C36.7728 9.7012 36.3755 11.3497 35.9866 12.9949C35.1549 16.5212 34.4692 20.083 33.9327 23.6668C33.548 26.2365 33.2368 28.8163 33.0031 31.4029C32.9339 30.6171 32.8496 29.8339 32.7543 29.0515C32.4354 26.4538 31.9698 23.8732 31.3473 21.3315C31.403 21.2334 31.4291 21.1158 31.4105 21.0016C31.2984 20.3029 31.0031 19.6948 30.7442 19.0469C30.4869 18.1418 30.2094 17.2427 29.9108 16.3503C29.5717 15.1349 29.1912 13.938 28.7045 12.7691C28.3325 11.8784 27.9082 11.0105 27.4359 10.169C26.8716 8.99239 26.2516 7.84129 25.5708 6.74077C25.5354 6.63842 25.4781 6.54284 25.3962 6.46248C25.2722 6.26625 25.1466 6.07255 25.0183 5.88055C24.9348 5.75536 24.6953 5.83149 24.7585 5.99051C24.7881 6.06503 24.8176 6.13937 24.848 6.21305C22.0753 5.51768 19.3566 6.5809 16.7156 7.36584C16.0492 7.56461 15.3761 7.74393 14.6928 7.87334C14.1555 7.97484 13.5296 8.09834 12.994 7.9866C12.6355 7.91225 12.4769 7.74901 12.6515 7.365C12.832 6.96754 13.3246 6.70609 13.7523 6.53024C13.9134 6.49547 14.072 6.43373 14.2247 6.34068C14.5806 6.12415 14.7367 5.67247 14.5688 5.28762C14.4161 4.93998 13.9708 4.64055 13.5768 4.79957C13.5203 4.8224 13.4646 4.8444 13.409 4.86639C13.4031 4.85793 13.3963 4.84609 13.3904 4.82917C13.3339 4.67438 13.3094 4.85971 13.3339 4.63801C13.3744 4.27599 13.7565 3.94696 14.018 3.73973C14.6683 3.22292 15.608 2.8406 16.4473 3.03599C16.5106 3.05037 16.5739 3.06813 16.6363 3.09013C17.5009 3.3904 17.9218 2.14194 17.231 1.67673C17.1888 1.64882 17.1356 1.61329 17.0774 1.57184C16.7898 1.37138 16.3689 1.03389 16.4836 0.729473C16.6253 0.351299 17.4612 0.133918 17.7776 0.00535069C18.9214 -0.459861 20.1571 -0.723762 21.3904 -0.777896C22.6312 -0.83203 23.888 -0.695004 25.085 -0.35929C25.6721 -0.195113 26.2752 0.0544094 26.8302 0.306554C27.3287 0.532308 28.4135 0.830889 28.4827 1.46358C28.4979 1.60323 28.6961 1.65051 28.7391 1.49826C29.0791 0.283632 27.7598 -0.500461 26.8893 -1.00204C26.3182 -1.33201 25.6704 -1.53746 25.0436 -1.73961C24.4431 -1.93416 23.8298 -2.0771 23.2039 -2.16346C21.8602 -2.34777 20.5004 -2.32409 19.1677 -2.06526C17.9539 -1.82919 16.6034 -1.42665 15.6224 -0.643408C15.0201 -0.162971 14.7476 0.601667 14.9897 1.3477C14.9982 1.37223 15.0066 1.3976 15.015 1.42213C13.9311 1.61667 12.9054 2.23921 12.2196 3.10704C11.6561 3.82008 11.3609 4.81225 11.8653 5.64211C11.8442 5.65725 11.8231 5.67332 11.8029 5.69023C11.3221 6.07594 10.9644 6.63597 10.8582 7.24827C10.6498 8.45613 11.3778 9.30112 12.3959 9.62423C12.1437 9.8713 11.9016 10.1334 11.6646 10.3956C11.134 10.9835 10.627 11.6237 10.18 12.2768C9.27403 13.5997 8.49968 15.0401 7.82233 16.4916C6.42968 19.4723 5.55157 22.6806 5.08595 25.9337C4.85145 27.5729 4.69455 29.2206 4.63466 30.8751C4.5655 32.7613 4.63551 34.6484 4.59924 36.5354C4.56381 38.3489 4.36389 40.1184 3.95985 41.8863C3.57267 43.5771 3.05644 45.2341 2.58913 46.9029C2.06193 48.7823 1.48158 50.6533 1.20322 52.5912C1.06235 53.5773 0.961131 54.5662 1.03958 55.5634C1.11887 56.5793 1.48664 57.448 1.82574 58.3928C1.91178 58.6339 2.17411 58.7311 2.38415 58.6795C2.43139 59.132 2.60178 59.5736 2.85568 59.9559C3.39469 60.7662 4.22471 61.283 5.17536 61.4708C6.24663 61.6814 7.3508 61.6315 8.43557 61.5926C9.61228 61.5503 10.7898 61.5122 11.9665 61.4632C13.1985 61.4122 14.4304 61.3597 15.6623 61.307C15.6216 60.0409 15.573 58.7752 15.5181 57.5096C15.2211 50.6681 14.7534 43.8226 14.741 36.9722C14.7171 36.9581 14.6936 36.9414 14.6712 36.9196C14.1166 36.3821 13.4357 36.029 12.796 35.6083C12.4339 35.3702 12.7724 34.7846 13.1366 35.0241C13.6759 35.3788 14.238 35.6939 14.7434 36.0914C14.7464 35.3783 14.7526 34.6652 14.7667 33.952C14.7753 33.5165 15.4501 33.5165 15.4415 33.952C15.3992 36.1014 15.4133 38.2512 15.4618 40.4003C15.6188 47.3648 16.1123 54.3163 16.337 61.2781C19.6436 61.1364 22.9504 60.9937 26.2575 60.8727C28.9475 60.7746 31.6375 60.6765 34.3274 60.5784C34.8918 60.5582 35.2089 60.1537 35.2781 59.6251C35.4046 58.6524 35.1667 57.6467 34.6286 56.8288C34.5729 56.7442 34.5071 56.6689 34.4337 56.6047C34.4464 56.0219 34.47 55.4382 34.4371 54.8555C34.3882 53.9656 34.3148 53.0758 34.2507 52.1868C34.1208 50.4064 34.0204 48.6225 33.9808 46.8378C33.8998 43.2683 33.9588 39.6955 34.1604 36.1311C34.5645 29.01 35.505 21.9346 37.0444 14.9691C37.1566 14.4616 37.2696 13.9541 37.3869 13.4474C38.5838 14.0708 40.0398 14.2949 41.3481 14.3034C42.9879 14.3136 44.5914 13.9354 46.0726 13.2479C46.0625 13.3248 46.0524 13.4009 46.0431 13.4779C45.6298 16.7766 45.2814 20.0821 44.9777 23.392C44.3721 29.9903 44.0009 36.6158 44.0524 43.2437C44.0667 45.0801 44.1367 46.9105 44.2236 48.7443C44.3122 50.6094 44.448 52.5802 44.9659 54.3793C45.0233 54.5779 45.1507 54.6922 45.2974 54.7337C45.305 54.9959 45.3219 55.2589 45.3404 55.5178C45.4003 56.3594 45.5716 58.1077 45.9377 58.8706C46.2945 59.615 46.8892 60.2054 47.6475 60.5303C48.6108 60.9421 49.6525 60.8237 50.6698 60.7577C55.0932 60.4685 59.5133 60.0811 63.9342 59.741C64.5499 59.6937 65.1657 59.6471 65.7806 59.5989C66.3281 59.5566 66.8941 59.5193 67.38 59.2344C67.9325 58.9104 68.3635 57.3194 68.1729 56.6613C68.1383 56.5412 68.086 56.4228 68.0168 56.3162Z" fill="black"/>
</g>
<defs>
<clipPath id="clip0_5_30">
<rect width="69" height="62" fill="white"/>
</clipPath>
</defs>
</svg>
