<svg width="69" height="61" viewBox="0 0 69 61" fill="none" xmlns="http://www.w3.org/2000/svg">
<g clip-path="url(#clip0_5_86)">
<path fill-rule="evenodd" clip-rule="evenodd" d="M34.5132 -2.43863C39.0392 -2.75838 45.2445 -1.87329 46.5536 3.21806C46.9595 5.07074 47.7595 5.88391 49.1034 7.09558C57.6337 17.8672 27.8712 19.6777 26.3412 9.174C23.1179 10.3322 19.6092 10.5774 16.384 11.748C14.6348 12.3855 13.0487 13.3914 11.5287 14.4432C5.33061 18.7863 -0.779764 23.2534 -6.95577 27.6277C-4.56582 28.7134 -0.0219459 32.8589 -1.87347 35.6446C-2.30478 36.1872 -2.94502 36.5613 -3.51136 36.958L-3.81 37.1683C-4.45248 37.6225 -5.53401 38.3967 -6.13207 38.8175L-6.24237 38.8967C-6.28562 38.9276 -6.3344 38.9622 -6.37847 38.9933C-2.06554 45.2142 2.982 50.9543 8.58095 56.0791C9.05771 56.5164 8.86244 57.494 8.17244 57.6079L7.3504 57.7269C4.69613 58.1083 1.99143 58.4515 -0.683351 58.2445C-3.2884 57.9649 -4.85819 55.6899 -6.63903 54.0419C-10.1952 50.4558 -13.5056 46.6305 -16.5209 42.5895L-16.5837 42.5042C-17.5221 41.239 -18.7677 39.946 -18.8589 38.3123C-19.0251 37.8211 -18.5876 37.1173 -18.1672 36.7825L-18.0237 36.5781C-15.7688 33.3787 -13.2169 30.2933 -10.0196 27.9763C-10.0315 27.6311 -9.86971 27.2682 -9.54935 27.0394L3.8127 17.4995C7.26034 15.1587 10.4648 12.4078 14.2018 10.5176C18.0229 8.7025 22.3351 8.63117 26.2509 7.11633C26.3339 6.02449 28.6606 5.74582 28.5872 5.91441C31.0421 4.45257 32.3058 2.71323 32.6956 1.11463C33.0853 -0.483955 32.601 -1.94179 34.5132 -2.43863ZM67.5565 31.8121C71.6883 25.6786 75.6266 32.4648 77.3467 36.5548C79.379 42.152 75.1703 49.0371 72.4515 53.8623C71.4501 55.2024 70.133 58.0288 68.3678 58.2337C63.9208 58.2158 59.4676 57.9069 55.0179 57.8149C52.1446 57.1116 56.1758 52.8518 58.9605 54.4078C59.8042 54.7192 60.2257 55.6642 61.0483 55.9674C61.3481 56.0305 61.3688 55.8986 61.4907 55.6041L61.508 55.5629C61.7254 55.0534 61.9362 54.541 62.1502 54.0301C63.9619 49.6287 65.8771 45.266 67.7814 40.9052C68.1882 39.9585 67.6177 39.1784 66.876 38.6149C66.308 38.1537 63.8666 37.0278 66.1669 37.5234C65.2811 35.495 66.3455 33.4363 67.5565 31.8121ZM57.2986 23.416C57.6964 23.367 58.2073 23.7625 58.2685 24.1457C58.776 27.3218 58.2106 30.4619 57.5328 33.5689L57.4081 34.1377C57.1581 35.2709 56.8787 36.4264 56.2552 37.4196C55.6189 38.4333 54.6564 39.1972 53.5514 39.6616C50.0065 41.0553 45.5979 39.677 42.9902 37.0714C41.3219 34.817 42.7885 31.9849 43.0684 29.514C42.8038 28.8482 42.7063 28.0781 42.5532 27.3916L42.5346 27.3096L41.94 24.7488C41.8089 24.184 42.2261 23.411 42.9117 23.4886C47.6921 24.0295 52.524 24.0052 57.2986 23.416Z" fill="white"/>
<path fill-rule="evenodd" clip-rule="evenodd" d="M73.9936 31.0096C73.9792 30.9465 74.056 30.8981 74.1058 30.9456C74.9467 31.7453 75.5406 32.7672 76.1926 33.7143C76.8135 34.6164 77.4891 35.4835 77.9522 36.4789C78.3824 37.4042 78.6599 38.3429 78.7426 39.3599C78.8253 40.3694 78.7181 41.3814 78.5376 42.3758C78.1825 44.3347 77.4233 46.1897 76.5899 47.9915C75.7797 49.743 74.8641 51.4447 73.8973 53.1155L73.5508 53.712C73.1281 54.4382 72.7008 55.163 72.2433 55.8666C71.6739 56.7421 71.1543 57.6458 70.4035 58.3765C69.8704 58.8966 68.8658 58.3765 69.1087 57.6333C69.2142 57.3096 69.2968 57.0049 69.4605 56.7045C69.5845 56.4757 69.7245 56.2535 69.8561 56.028C70.1193 55.577 70.3799 55.1243 70.6431 54.6732C71.1956 53.7253 71.7776 52.7949 72.3251 51.8437C73.2749 50.1943 74.1716 48.514 74.9645 46.7848L75.0578 46.5807C75.7874 44.9794 76.4787 43.3207 76.7991 41.5885C77.1365 39.7636 76.8345 38.0434 76.1774 36.3282C75.8375 35.4411 75.4554 34.5739 75.0581 33.7101L74.9817 33.5451C74.598 32.7206 74.1913 31.9006 73.9936 31.0096ZM33.1545 -0.557295C33.1621 -0.589668 33.2178 -0.592164 33.2228 -0.557295C33.459 0.992421 32.9335 2.63176 32.0773 3.92084C31.61 4.62487 31.0339 5.26067 30.3549 5.77164L30.302 5.81102C29.6083 6.32264 28.671 6.81669 27.81 6.48492C27.783 6.47476 27.7577 6.4632 27.734 6.44996C27.831 6.59801 27.9205 6.75363 28.0116 6.90925C28.2823 7.37279 28.5253 7.85296 28.7893 8.32066C29.2617 9.15702 29.8243 9.90516 30.5354 10.5601C33.3788 13.1785 37.3715 13.8008 41.121 13.771L41.3859 13.7685C43.0329 13.7571 45.187 13.84 46.4585 12.664C47.1418 12.0323 47.518 11.1343 47.8579 10.2913C48.1919 9.46493 48.4205 8.61193 48.6981 7.77141C48.1186 7.37953 47.5871 6.90102 47.1696 6.3417C46.7343 5.75916 46.4054 5.10339 46.2156 4.40351L46.1876 4.29894C46.0408 3.74084 45.8932 3.00256 46.1295 2.47531C46.1565 2.41456 46.2578 2.41872 46.2864 2.47531C46.4138 2.72747 46.4383 3.01208 46.5167 3.28171C46.6078 3.59545 46.7107 3.90752 46.8465 4.20462C47.1089 4.7805 47.4556 5.32808 47.8714 5.80743C48.2147 6.2043 48.5867 6.56889 49.0118 6.87513C49.2624 6.44822 49.8436 6.3908 50.3303 6.53144C50.9827 6.71946 51.6262 6.96088 52.2553 7.21592L52.3809 7.2671C53.0025 7.52175 53.7052 7.7556 54.2872 8.10262C54.6407 8.26906 54.9798 8.43633 55.2986 8.58446C56.8874 9.32079 58.4526 10.1021 60.0108 10.8985L60.3445 11.0694C60.9974 11.4048 61.6444 11.7435 62.2121 12.2112C62.7899 12.6872 63.2387 13.338 63.6604 13.948C64.6246 15.3427 65.533 16.7774 66.4862 18.1797C68.4111 21.0092 70.3361 23.8386 72.2719 26.6614C72.7401 27.3448 73.2681 28.0113 73.6882 28.7236C74.0906 29.4044 74.0796 30.1034 74.0011 30.8632L73.9865 31.0027C73.836 32.3965 73.5774 33.735 72.7848 34.9301C71.5372 36.8092 69.5718 37.9793 67.4925 38.7848C67.7464 38.9713 67.9852 39.1727 68.288 39.3009C68.7536 39.4972 69.2504 39.5988 69.754 39.6395C70.2913 39.6821 70.897 39.5497 71.3323 39.91C71.5069 40.0539 71.5119 40.4002 71.3323 40.5441C70.9138 40.8811 70.3729 40.7845 69.863 40.7281L69.8325 40.7247C69.3593 40.6731 68.8928 40.5866 68.4483 40.4151C68.3386 40.3726 68.2298 40.3253 68.1243 40.2728C68.1277 40.282 68.1294 40.2929 68.1277 40.3045C68.0518 40.8778 67.8872 41.4199 67.7133 41.9679L67.603 42.3151C67.3787 43.0241 67.1526 43.7315 66.9198 44.4388C66.4768 45.7854 65.9942 47.1193 65.5099 48.4515L65.0919 49.6011C64.6625 50.7804 64.2277 51.9581 63.7473 53.1178C63.4504 53.8334 63.1518 54.5492 62.854 55.264C62.563 55.9622 62.3209 56.7162 61.9599 57.3811C61.663 57.9287 60.8532 57.5367 60.9831 56.9742C61.1535 56.2361 61.4749 55.5037 61.7203 54.7855C61.97 54.0565 62.2146 53.3267 62.4685 52.5992C62.9101 51.3357 63.3992 50.089 63.8907 48.8434L64.3779 47.6087C64.8558 46.399 65.3394 45.1903 65.8561 43.9962L65.9126 43.8653C66.4495 42.6162 67.0038 41.2117 67.9793 40.2438C67.9919 40.2305 68.0096 40.2237 68.0273 40.2221C67.7878 40.0939 67.5634 39.9383 67.366 39.7544L67.3564 39.7448C67.2784 39.6633 66.9561 39.2617 66.8523 39.0212C66.7173 39.0687 66.5824 39.1144 66.4474 39.1593C66.2121 39.2376 66.0172 39.181 65.8797 39.057L65.6178 39.2169C65.3378 39.3855 65.0368 39.5456 64.7275 39.5538C64.3378 39.5638 64.0316 39.3516 63.8232 39.0387C63.636 38.7591 63.5246 38.457 63.2876 38.2065C63.0546 37.9603 62.7848 37.7525 62.5091 37.5541L62.1842 37.3209C61.5884 36.8917 61.0107 36.4581 60.531 35.8913C60.2897 35.6051 59.9666 35.2655 59.8199 34.9217C59.7912 34.8553 59.7735 34.7929 59.7701 34.7321C59.7381 34.9468 59.7052 35.1623 59.6723 35.377C59.2117 38.3987 58.8397 41.4412 58.7208 44.4971C58.6626 46.0041 58.6364 47.5129 58.7047 49.0208C58.7385 49.774 58.7942 50.5263 58.8709 51.277C58.9089 51.6531 58.9485 52.0284 58.9949 52.4029L59.0056 52.4897C59.019 52.6044 59.0278 52.7154 59.0177 52.8207C59.3888 53.0012 59.6022 53.4573 59.7507 53.8135C59.8637 54.0848 59.776 54.3486 59.5938 54.5392C59.8114 54.7348 60.0055 54.9644 60.1683 55.2273C60.2011 55.2807 60.1303 55.3223 60.0881 55.289C59.8207 55.0793 59.5331 54.907 59.2328 54.7747C59.0751 54.8338 58.903 54.8496 58.7444 54.8063C58.5723 54.7597 58.4238 54.6465 58.3167 54.5026C57.4639 54.3644 56.5774 54.5334 55.8098 55.0601C55.6504 55.17 55.5061 55.294 55.3686 55.4287C55.345 55.4522 55.3205 55.4821 55.2961 55.5112L55.4635 55.5747C55.5329 55.6006 55.5899 55.6209 55.6116 55.6252C55.7578 55.6546 55.9062 55.6703 56.0547 55.683L56.2771 55.7009C57.1316 55.7708 57.9835 55.7941 58.7781 56.147C58.9451 56.2211 58.8869 56.4749 58.7292 56.5172C58.149 56.6726 57.5732 56.6605 56.9825 56.619L56.8557 56.6097C56.3066 56.5681 55.717 56.5706 55.1814 56.4208C55.3096 56.7669 55.135 57.2189 54.5993 57.2896C52.9907 57.501 51.372 57.4012 49.7617 57.2613C48.1354 57.1198 46.51 56.9858 44.8794 56.9019C39.6052 56.6281 34.3229 56.6807 29.0439 56.755L26.0608 56.7976C23.6817 56.8307 21.3023 56.8565 18.9233 56.8385L17.8098 56.8283C17.3391 56.8238 16.8683 56.8181 16.3982 56.8045L16.1162 56.7953C15.5561 56.7753 14.8147 56.8585 14.328 56.5314C13.9264 56.2618 13.837 55.7675 14.0791 55.369C14.1491 55.254 14.2453 55.1517 14.3457 55.0518C14.5515 53.3168 14.6671 51.5732 14.7851 49.8306C15.1951 43.7324 14.9555 37.6656 14.01 31.6288C11.4726 32.3937 8.97413 33.3531 6.53973 34.3826C5.223 34.9393 3.91301 35.5168 2.61821 36.1227C1.43643 36.6761 0.2496 37.3676 -1.01315 37.7272C-1.12794 37.8276 -1.28844 37.8755 -1.43079 37.8309L-1.44925 37.8245H-1.45009C-1.58 37.8545 -1.72424 37.8362 -1.86595 37.7521C-1.89463 37.735 -1.92331 37.7178 -1.95199 37.7L-1.99501 37.6731C-2.43954 37.3968 -2.88661 37.0564 -3.20124 36.6403C-3.58336 36.9898 -3.99415 37.3103 -4.3982 37.6348C-4.83683 37.9876 -5.27377 38.3421 -5.70734 38.7C-5.87942 38.8423 -6.06921 38.9779 -6.22105 39.1419L-6.2431 39.166C-6.24663 39.1699 -6.25001 39.1738 -6.2531 39.1777C-5.596 39.5971 -5.02072 40.2337 -4.50533 40.7871C-3.95189 41.3811 -3.41759 41.994 -2.88766 42.6092L-2.37465 43.206C1.25303 47.4322 4.91781 51.8116 9.61437 54.9178C10.3567 55.4088 9.64895 56.6047 8.91171 56.1029C7.51653 55.155 6.19642 54.1023 4.92861 52.9945C2.70678 51.0548 0.707632 48.8786 -1.16414 46.6108C-2.11141 45.4632 -3.03085 44.2874 -3.93173 43.104L-4.23749 42.7026C-4.64495 42.1672 -5.05024 41.6302 -5.43826 41.0809L-5.51945 40.9658C-5.8598 40.4813 -6.22173 39.9369 -6.44121 39.3791C-6.52556 39.4631 -6.62088 39.5338 -6.76006 39.5871C-6.99793 39.6787 -7.28979 39.4864 -7.34799 39.2576C-7.4897 38.7025 -7.00046 38.3721 -6.60232 38.0774C-6.11898 37.7213 -5.62637 37.3776 -5.13291 37.0356L-4.95664 36.9126C-4.33956 36.4809 -3.71924 36.0378 -3.04688 35.6966C-3.02664 35.67 -3.00217 35.645 -2.97434 35.6234C-2.94228 35.5984 -2.91107 35.5743 -2.87902 35.5501C-3.68205 34.2652 -4.56269 33.0302 -5.54539 31.8634C-6.28431 30.9856 -7.06879 30.1475 -7.89881 29.3536L-8.27168 28.9974C-8.83569 28.46 -9.42213 27.915 -10.0481 27.4479L-10.2441 27.6671C-10.5057 27.959 -10.77 28.2488 -11.0494 28.5231C-11.5993 29.0623 -12.1417 29.6125 -12.6816 30.1625C-13.5781 31.0777 -14.4443 32.021 -15.3077 32.9656L-15.7393 33.4379C-16.6385 34.4224 -17.6018 35.3887 -18.4192 36.4405L-18.46 36.4937C-18.8169 36.9659 -19.0709 37.4885 -18.9051 38.0883C-18.7451 38.6666 -18.3647 39.1793 -18.0368 39.6787L-18.0042 39.7286C-16.6655 41.7858 -15.2315 43.7905 -13.6955 45.7088C-10.6192 49.5511 -7.11012 53.1927 -2.92288 55.864C-2.34254 56.2344 -2.88492 57.1548 -3.46611 56.7803C-5.91148 55.2033 -8.15777 53.3093 -10.2244 51.2753C-12.1215 49.4087 -13.8406 47.3532 -15.4517 45.2436C-16.237 44.2141 -16.9894 43.1631 -17.7106 42.0888C-18.4099 41.046 -19.2189 39.9733 -19.7258 38.8232C-19.9913 38.2181 -20.0894 37.5632 -19.8717 36.9257C-19.6722 36.3399 -19.2775 35.8534 -18.8668 35.3957L-18.8283 35.3529C-17.8844 34.3068 -16.9236 33.2732 -15.9544 32.2496C-14.9819 31.2227 -13.9646 30.2324 -12.9262 29.2712C-12.1105 28.5147 -11.2602 27.8481 -10.3509 27.2307C-10.4327 27.1732 -10.5146 27.1183 -10.5981 27.0651C-10.852 26.9019 -10.9161 26.5533 -10.6934 26.3319C-10.0852 25.726 -9.38425 25.1992 -8.72462 24.6476C-8.10463 24.1291 -7.48464 23.6098 -6.86465 23.0905C-5.60275 22.0353 -4.34084 20.9792 -3.07893 19.9231C-0.812392 18.0266 1.4415 16.1167 3.70044 14.2118C4.64238 13.4177 5.59309 12.6335 6.54137 11.847L8.22615 10.4482L9.05017 9.76573C9.47237 9.41687 9.90355 9.07188 10.3837 8.80583C11.5133 8.17978 12.8715 7.90893 14.1161 7.57725L14.1989 7.55504C15.5949 7.17814 16.9985 6.82354 18.4098 6.5073C19.8227 6.19107 21.2415 5.90313 22.6662 5.64257C23.9466 5.40797 25.2575 5.20658 26.5632 5.17662C26.8871 5.05512 27.2937 5.01268 27.6126 5.1425C27.7442 5.19659 27.8817 5.27565 28.004 5.37552C28.6425 5.15415 29.2726 5.04846 29.869 4.67397C30.4645 4.3004 30.9917 3.80932 31.4354 3.26839C32.3523 2.14826 32.8323 0.825066 33.1545 -0.557295ZM47.8326 37.3735C47.3265 37.3386 46.871 37.5449 46.4189 37.7646C46.6736 37.8736 46.9283 37.9818 47.1831 38.0892L48.8786 38.8032C49.4387 39.0387 50.0317 39.2434 50.5639 39.5338C50.6019 39.5546 50.6323 39.5796 50.655 39.6087C51.2084 39.2593 51.7938 38.9472 52.3547 38.6151C52.4829 38.5394 52.612 38.4636 52.7411 38.3879C52.073 38.6084 51.388 38.7191 50.6626 38.5119C49.6951 38.2365 48.855 37.4442 47.8326 37.3735ZM49.2194 35.6991L49.1284 35.6381C48.6375 35.3059 48.0518 34.8789 47.4556 35.1773C47.1747 35.3179 46.9444 35.5451 46.6677 35.6966C46.3893 35.8497 46.0831 35.9671 45.7727 36.0378C45.2573 36.1551 44.6669 36.1726 44.1127 36.0593L44.1211 36.7984C44.5403 36.969 44.957 37.1439 45.3737 37.3202C45.6443 37.229 45.9047 37.1193 46.1784 36.9991L46.3632 36.9174C46.8904 36.6835 47.4227 36.5272 48.0055 36.6012C49.1029 36.7402 49.9321 37.5449 50.9815 37.8129C52.2678 38.1425 53.4285 37.1954 54.644 36.9615C54.8445 36.9226 55.051 36.8998 55.2564 36.8963L55.3248 36.8958L55.3551 36.8783C55.6166 36.7269 56.008 36.5821 56.1902 36.3274C56.3884 36.0511 56.4053 35.5884 56.4703 35.2639C56.477 35.2314 56.4838 35.1981 56.4897 35.1657C56.3749 35.1657 56.2585 35.1714 56.1404 35.1931C55.7693 35.2605 55.4201 35.3903 55.0742 35.5352C54.4205 35.8089 53.7811 36.121 53.0928 36.3033C52.4188 36.4821 51.7145 36.5671 51.0203 36.468C50.3429 36.3714 49.7803 36.0702 49.2194 35.6991ZM49.325 33.1009L49.2233 33.0363C48.9553 32.8675 48.6478 32.6927 48.3193 32.7548C48.0258 32.8105 47.7736 33.0411 47.518 33.1834C46.957 33.4954 46.3278 33.666 45.6858 33.7093C45.1519 33.7451 44.5977 33.681 44.084 33.5246L44.1017 35.1607C44.2898 35.2197 44.4847 35.2622 44.6896 35.2772C45.3122 35.3229 45.9195 35.1756 46.4416 34.8369L46.7058 34.6639C47.1578 34.3709 47.5819 34.1384 48.1801 34.2453C48.7723 34.3518 49.2691 34.7263 49.7533 35.0525L49.8327 35.1051C50.3887 35.4672 50.9524 35.701 51.6344 35.7066C52.3707 35.7123 53.0987 35.5102 53.7845 35.2614C54.4652 35.0151 55.1122 34.7196 55.8401 34.6289C56.0628 34.6014 56.3345 34.5931 56.59 34.6364C56.6238 34.4508 56.6558 34.2661 56.6862 34.0805C56.752 33.6818 56.8085 33.2841 56.8574 32.8854C55.566 32.5426 54.3733 33.6519 53.1738 33.9939C52.4779 34.192 51.7204 34.1896 51.0245 33.9981C50.3806 33.8208 49.8744 33.4528 49.325 33.1009ZM49.3282 30.3456C49.0523 30.2931 48.7799 30.4188 48.5454 30.5478C47.9473 30.8749 47.4311 31.3301 46.7537 31.5023C45.8824 31.7237 44.9292 31.5331 44.0638 31.1711C44.0671 31.6762 44.0713 32.1814 44.0756 32.6865C44.2384 32.7474 44.4054 32.7964 44.5758 32.8355C45.1814 32.972 45.8233 32.9537 46.4197 32.7814C47.0279 32.6057 47.4944 32.1315 48.1042 31.9833C48.7278 31.8314 49.3157 32.127 49.8183 32.4631L49.9695 32.5649C50.544 32.9495 51.1011 33.2837 51.8199 33.349C52.5799 33.418 53.2404 33.1834 53.9195 32.8722L54.0775 32.8C54.9372 32.4104 56.0532 31.9669 56.9114 32.4103C56.9789 31.7811 57.0278 31.1521 57.0607 30.522C56.9426 30.4787 56.8203 30.4471 56.6795 30.4463C56.3429 30.4447 55.9894 30.5495 55.6757 30.6585C54.9899 30.8973 54.3513 31.2534 53.6723 31.509C53.0287 31.752 52.3159 31.8785 51.6293 31.7695C50.9933 31.6688 50.5158 31.3409 50.0764 30.8915L50.0125 30.8251C49.8198 30.6228 49.6136 30.4002 49.3282 30.3456ZM49.8318 28.0096C49.5137 27.8441 49.1266 27.69 48.7588 27.7383C48.4079 27.784 48.174 28.0188 47.9579 28.2698L47.8409 28.4073C47.4544 28.8585 47.0739 29.2378 46.4779 29.4235C45.8605 29.6149 45.2059 29.54 44.6314 29.2596C44.4273 29.1597 44.2375 29.0357 44.0469 28.9134L44.057 30.2406C44.4383 30.4279 44.8263 30.5969 45.2523 30.6993C46.0384 30.8882 46.7065 30.7484 47.3788 30.3206L47.4494 30.2753C47.9557 29.9472 48.4749 29.5566 49.1004 29.52C49.7108 29.484 50.1689 29.8178 50.5709 30.2264L50.6179 30.2748C51.1249 30.8024 51.6369 31.0596 52.391 30.9988C53.1221 30.9399 53.8063 30.6214 54.4761 30.3471L54.5369 30.3223C55.1493 30.0742 55.8553 29.8188 56.5276 29.9137C56.6887 29.9361 56.8971 29.9852 57.0827 30.0709C57.1096 29.45 57.1223 28.8285 57.1248 28.206C56.7427 27.879 56.148 27.8248 55.6698 27.9588C54.9207 28.1685 54.3075 28.7095 53.5922 29.0032C52.9578 29.2637 52.2965 29.322 51.6495 29.0756C50.9815 28.821 50.4576 28.3358 49.8318 28.0096ZM57.0827 25.3948C55.9633 25.4331 54.8684 26.1513 53.7997 26.4251C52.6058 26.7307 51.6314 26.3141 50.5679 25.8515L50.4306 25.7919C49.8849 25.5555 49.2986 25.3432 48.6938 25.4398C48.1042 25.5347 47.5829 25.8567 47.076 26.148L46.9788 26.2032C46.0553 26.7219 45.1149 27.0769 44.0368 26.9884C44.0427 27.3222 44.0401 27.6551 44.041 27.9813C44.2181 28.0812 44.3885 28.1943 44.5505 28.2975L44.6086 28.3339C45.1226 28.651 45.6525 28.8594 46.2653 28.6637C46.8575 28.474 47.1359 27.9655 47.5424 27.5469C47.9161 27.1624 48.4037 26.9287 48.9503 26.951C49.5382 26.9743 50.0941 27.2298 50.58 27.5419C51.0658 27.854 51.5357 28.2575 52.1042 28.414C53.3796 28.7635 54.472 27.4329 55.6782 27.2257C56.1843 27.1383 56.7427 27.249 57.1248 27.5501C57.1206 26.8329 57.1046 26.1139 57.0827 25.3948ZM47.448 25.0936C47.2902 25.0994 47.1325 25.1061 46.9747 25.1127C46.391 25.1377 45.8073 25.166 45.2236 25.1984C44.8195 25.22 44.3227 25.3424 43.9263 25.2209C43.9161 25.2609 43.9026 25.2992 43.8849 25.3366C43.9448 25.6312 43.9819 25.9358 44.0047 26.2437C44.3708 26.2828 44.7428 26.2695 45.1038 26.1954C45.9701 26.0181 46.6736 25.4789 47.448 25.0936ZM57.0658 24.8464C54.9343 24.9913 52.7864 24.9414 50.6514 24.9869L50.3952 24.9929C50.3851 24.9929 50.375 24.9938 50.3649 24.9938C50.6097 25.0874 50.8526 25.1946 51.0947 25.3037L51.3366 25.4131C51.9085 25.6728 52.4905 25.885 53.1308 25.8392C53.8165 25.7901 54.4627 25.5139 55.1038 25.2908C55.7153 25.0778 56.4196 24.9346 57.0717 25.0278C57.07 24.9671 57.0683 24.9072 57.0658 24.8464Z" fill="black"/>
</g>
<defs>
<clipPath id="clip0_5_86">
<rect width="69" height="61" fill="white"/>
</clipPath>
</defs>
</svg>
