<svg width="69" height="61" viewBox="0 0 69 61" fill="none" xmlns="http://www.w3.org/2000/svg">
<g clip-path="url(#clip0_5_26)">
<path fill-rule="evenodd" clip-rule="evenodd" d="M33.2522 0.26406C35.3345 -1.30022 40.562 -2.00368 42.7843 -0.497483C44.9794 1.01503 45.2186 3.46098 46.2415 5.71107C47.2066 5.2621 48.8003 5.9051 49.0801 6.78856C49.4271 7.20524 49.4427 8.37592 49.682 8.93608C60.0946 10.5713 61.6754 18.5802 62.9287 27.6726C64.5867 36.8991 68.3506 46.1054 66.7166 55.5996C66.9295 55.9035 67.0974 56.199 67.2526 56.5498C67.6245 57.1741 67.1455 58.0579 66.3953 58.0237C65.4244 57.9395 64.463 57.8247 63.4875 57.7888C60.7832 57.6962 58.0764 57.7072 55.3711 57.7411L55.0022 57.7459C41.3681 57.9133 27.7348 58.2433 14.1001 58.3308C13.6054 58.3315 13.3633 57.8938 13.4293 57.4621C13.5623 56.5929 13.6857 55.7232 13.8146 54.8536C10.5896 55.6939 7.1612 55.9054 3.94536 54.9419C3.72039 54.7158 4.46952 54.8384 4.58837 54.8041C1.6288 52.8089 2.51264 48.6057 2.77481 45.5783C4.40499 35.2049 4.97968 23.7274 11.2782 14.8756C14.003 11.2632 17.9978 8.40311 22.5882 7.75957L22.7155 7.74237C24.0577 7.5658 25.5536 7.50893 26.7272 6.78856C28.047 5.74904 28.6095 3.82828 29.9981 3.8103C30.4566 3.80436 31.0803 4.37662 31.7515 4.76516C31.8016 3.91044 32.2685 3.18914 32.3716 2.52643L32.3799 2.46975C32.4875 1.69713 32.3402 1.00201 33.2522 0.26406ZM55.6298 27.9467C52.7036 25.9411 45.1446 26.9488 44.9715 27.0611C44.5905 27.3084 44.4264 27.3303 44.2204 27.6513C44.0169 27.6779 43.8136 27.7056 43.6105 27.734C43.203 27.8654 43.505 28.3598 43.9756 28.1834C43.6925 29.388 44.5257 30.2446 44.8574 31.4354C44.9651 31.8221 44.8613 32.5175 44.8574 32.9125C44.8895 33.4163 45.4541 34.0113 45.36 34.5166C45.0255 36.3133 43.2104 38.0659 43.9756 39.8082C44.4826 40.7923 46.0074 41.2941 47.0211 41.6286C49.1214 42.4239 52.7809 41.5987 54.0012 39.8082C54.6522 38.8532 55.4062 36.4442 55.7944 35.697L55.8804 34.5116C56.0925 31.5651 56.2812 28.3931 55.6298 27.9467Z" fill="white"/>
<path fill-rule="evenodd" clip-rule="evenodd" d="M29.4881 3.63655C29.6902 3.46004 29.9891 3.68182 29.8607 3.92025C29.5722 4.4561 29.2763 4.96382 28.8892 5.43751C28.6544 5.7247 28.403 5.99633 28.1481 6.26496C28.8021 6.82312 29.363 7.51609 29.8926 8.16553C30.5699 8.99615 31.2102 9.86196 31.9705 10.622C32.7202 11.3716 33.5493 11.8956 34.5517 12.245L34.7542 12.3143C35.7612 12.6631 36.8375 13.1341 37.4051 14.0748C37.517 14.2603 37.2916 14.4895 37.1022 14.3737C36.1159 13.7712 34.9569 13.65 33.8833 13.2519C32.8462 12.8674 31.9421 12.2755 31.1433 11.5201C30.3458 10.766 29.6762 9.90799 28.9778 9.06813C28.2871 8.23768 27.5435 7.5284 26.7265 6.82578C25.4659 7.6625 24.0268 8.02658 22.5636 8.38417L22.4038 8.42318C20.9388 8.78102 19.4816 9.19662 18.1072 9.81977C16.8954 10.3691 15.7035 11.0251 14.7164 11.9191C13.6686 12.8678 12.8531 14.0795 12.1066 15.2644C10.437 17.9155 9.26313 20.8198 8.22973 23.7595C7.15492 26.8171 6.2559 29.936 5.53013 33.092C5.16101 34.6973 4.86122 36.314 4.61483 37.942C4.49623 38.7261 4.39087 39.5119 4.29834 40.2994C4.19956 41.1403 4.17687 42.0055 3.91538 42.814C3.80327 43.1606 3.53858 43.3044 3.27363 43.2921L3.21981 43.9561C3.14845 44.8414 3.08193 45.727 3.05946 46.6178C3.02218 48.0989 3.03908 49.5758 3.14707 51.0538L3.16237 51.2553C3.24723 52.334 3.43685 53.546 4.25903 54.3359C5.11048 55.1539 6.41988 55.4112 7.56749 55.4259C10.2403 55.4603 12.8133 54.2143 15.1785 53.1212C17.6144 51.9955 19.9838 50.746 22.2964 49.3908C23.4741 48.7007 24.6391 47.9875 25.7892 47.2536C26.3536 46.8934 26.9141 46.527 27.4703 46.1548C27.7889 45.9416 28.0908 45.7078 28.4151 45.5187C28.2562 45.3727 28.1852 45.1432 28.3183 44.9428C27.3808 44.1399 26.9906 42.7071 26.9449 41.5478C26.9081 40.612 27.0477 39.6788 27.1578 38.7518C27.2134 38.2844 27.2821 37.8178 27.3534 37.3524C27.3815 37.1686 27.403 36.9719 27.4359 36.7779C24.9043 38.1504 22.3017 39.3727 19.6302 40.4587C18.2608 41.0153 16.8739 41.5158 15.4678 41.9744L15.1828 42.0669C13.8506 42.4972 12.4865 42.9036 11.1092 43.1496C11.0355 43.1627 10.9757 43.0555 11.0543 43.0213C12.3966 42.437 13.7852 41.9441 15.1476 41.406L15.3715 41.3161C15.3458 41.3147 15.3191 41.3112 15.2913 41.3046C14.4923 41.1144 13.6995 40.8212 12.9159 40.5743C12.1886 40.3452 11.3715 40.2014 10.6917 39.8555C10.6394 39.8289 10.6687 39.7571 10.7196 39.7537C11.4837 39.7015 12.3131 39.9212 13.0623 40.0504L13.3437 40.099C13.8151 40.181 14.297 40.2692 14.7662 40.3842C14.7831 40.2292 14.8709 40.0734 14.9959 39.9822C16.3706 38.9778 16.2309 36.9492 16.378 35.4533L16.487 34.3428C16.6788 32.3992 16.8816 30.4558 17.1899 28.5267C17.2063 28.4237 17.3678 28.4532 17.3685 28.5505C17.3844 30.9418 17.2014 33.3221 17.1097 35.7096L17.0955 36.1013C17.0448 37.5745 17.0051 39.1043 16.0646 40.2379C16.1961 40.1621 16.3739 40.1621 16.4805 40.2871C16.6114 40.4408 16.687 40.6134 16.6846 40.7827C17.5344 40.4312 18.3806 40.0705 19.2226 39.7025C21.9297 38.5193 24.58 37.1952 27.1603 35.7625C27.438 35.6083 27.7019 35.7295 27.8392 35.9328L27.859 35.93C27.8624 35.9295 27.8657 35.9292 27.8692 35.9291L27.8888 35.9283C27.8896 35.9283 27.8903 35.9284 27.891 35.9284C28.2542 35.7315 28.749 35.8717 29.0607 36.1589C29.0699 36.1675 29.0778 36.1769 29.086 36.186C29.4806 36.0112 29.849 35.7753 30.1834 35.4763C30.8676 34.8645 31.4472 34.1079 31.9525 33.3493C32.883 31.952 33.6734 30.3982 34.9303 29.2481C35.9515 28.3136 37.2177 27.7318 38.546 27.3666C38.5404 27.3283 38.5552 27.2875 38.5821 27.2604C38.6503 27.1914 38.699 27.1675 38.7871 27.2094C38.7941 27.2128 38.7983 27.2174 38.8012 27.2224L38.9308 27.0039C39.0016 26.8854 39.0742 26.766 39.0994 26.7346C39.2502 26.5473 39.4054 26.3613 39.563 26.1793C39.8301 25.8712 40.1346 25.5671 40.4871 25.3534C41.2589 24.8856 42.0703 25.1503 42.8638 25.406C43.3432 25.5605 43.8211 25.7201 44.2997 25.8769L44.3491 25.8928C44.7059 26.006 45.1236 26.1049 45.2832 26.4779C45.3463 26.6256 45.3561 26.7788 45.3267 26.9274C48.7163 26.077 52.4811 26.4677 55.7888 27.466C55.9157 27.5043 56.0425 27.6073 56.0693 27.7426C56.4482 29.6601 56.617 31.6265 56.4455 33.5767C56.2976 35.26 55.9195 36.9097 55.2071 38.4508L55.1666 38.5378C54.497 39.9661 53.4359 41.7268 51.8152 42.1744C50.8366 42.4447 49.7543 42.2853 48.7563 42.2358C47.7863 42.1876 46.7948 42.1807 45.8341 42.0302C44.9784 41.8962 44.2287 41.5178 43.6999 40.8314C43.2437 40.2392 43.0035 39.5235 42.8067 38.8116C42.7166 38.8399 42.6271 38.8699 42.539 38.904C42.1673 39.0472 41.8523 39.2784 41.5675 39.5504C40.9662 40.125 40.4997 40.8228 39.8705 41.371C39.301 41.8673 38.652 42.2533 37.9558 42.5501C36.5133 43.165 34.9658 43.4107 33.4399 43.7366L33.3335 43.7595C32.1848 44.0082 31.0123 44.3135 29.9984 44.9035C29.9786 45.0772 29.8983 45.2406 29.7698 45.3477C29.9486 45.5133 30.0244 45.7757 29.8672 46.0219C29.4283 46.7092 28.6722 47.1002 27.9934 47.5397L27.9492 47.5685C27.2815 48.0052 26.6079 48.4333 25.9289 48.8526C24.5485 49.7053 23.1392 50.511 21.71 51.2813C19.4114 52.5202 17.0633 53.6888 14.6728 54.7489C14.8163 55.4453 14.7639 56.1634 14.8717 56.8645L14.8882 56.9645C14.9343 57.2247 14.8721 57.4424 14.6904 57.6124L14.6712 57.6298L14.6715 57.6275L14.6545 57.6429L14.6488 57.6476L14.6507 57.6461C14.6298 57.665 14.6082 57.6826 14.5861 57.6977L14.5581 57.7155C14.3831 57.8204 14.1579 57.8192 13.9787 57.7266L13.9583 57.7155L13.9238 57.696C13.6871 57.5617 13.5239 57.2289 13.6221 56.9645C13.8634 56.3148 13.9546 55.6213 14.1775 54.9672L14.0007 55.0452L13.7677 55.1454C11.2474 56.2205 8.44788 57.126 5.70187 56.393C4.48855 56.069 3.35452 55.3838 2.74744 54.2669C2.15006 53.1679 2.06562 51.8918 2.03391 50.6693C1.99477 49.1604 2.07676 47.6285 2.27844 46.1327C2.41383 45.1285 2.57755 44.1054 2.8301 43.1117C2.7002 42.9986 2.60472 42.8364 2.57949 42.6355C2.4603 41.6864 2.66891 40.6997 2.79662 39.7555C2.92137 38.8336 3.0592 37.9135 3.21509 36.9962C3.5298 35.1438 3.89547 33.2954 4.3212 31.4647C5.07885 28.2066 6.07935 25.0064 7.28389 21.8826L7.38938 21.6105C8.50244 18.7554 9.79121 15.9611 11.5858 13.4528C12.4442 12.2528 13.3517 11.1648 14.5647 10.3C15.701 9.48981 16.9829 8.90644 18.3057 8.46055C19.6299 8.01432 20.991 7.71531 22.3762 7.52932C23.7829 7.34041 25.2678 7.22457 26.58 6.65534C26.414 6.36175 26.5565 5.96537 26.8359 5.78329C27.776 5.17046 28.6455 4.37321 29.4881 3.63655ZM59.5854 30.2853C59.6248 30.2263 59.7184 30.2635 59.7011 30.3334C59.2438 32.1816 58.8145 34.0336 58.5342 35.9171C58.0283 39.3166 58.1213 42.7605 58.1627 46.1851L58.1648 46.3622C58.186 48.2069 58.2156 50.0517 58.2774 51.8956C58.3086 52.8275 58.3703 53.7685 58.3368 54.7009C58.3185 55.2067 58.1818 55.6851 58.1334 56.1849C58.091 56.6219 58.1288 57.0656 58.1499 57.5032C58.1641 57.7941 57.7289 57.7817 57.6992 57.5032L57.6614 57.1429C57.6122 56.687 57.5514 56.2338 57.4 55.7974C57.2179 55.2725 57.1305 54.7571 57.0673 54.206C56.9705 53.3615 56.9275 52.5086 56.8901 51.6582L56.8646 51.07C56.7086 47.5162 56.7141 43.9457 56.9666 40.3956L56.985 40.142C57.2351 36.7863 57.6689 33.1605 59.5854 30.2853ZM49.8381 9.13526C49.7187 9.08682 49.7605 8.90865 49.8928 8.93969L50.1333 8.9963C51.8958 9.41279 53.6264 9.86404 55.2714 10.639C56.9176 11.4145 58.3112 12.5721 59.4186 13.9957C61.5713 16.7628 62.4658 20.1257 63.172 23.4855C63.9568 27.2188 64.6714 30.9658 65.463 34.6979L65.61 35.3931C66.3425 38.8692 67.0341 42.3472 67.5437 45.8644L67.5803 46.1195C68.0942 49.7364 68.4033 53.4785 67.8426 57.1047C67.7317 57.8222 66.5216 57.6435 66.5689 56.9347C66.7055 54.8856 66.8034 52.8472 66.7088 50.7935C66.6142 48.7394 66.4189 46.6943 66.1278 44.6581C65.8828 42.9446 65.5177 41.2524 65.1945 39.5525L65.1438 39.2841C64.8732 37.8383 64.5943 36.3939 64.3159 34.9494L63.8999 32.7867C63.2765 29.5483 62.6408 26.3072 61.9226 23.0892L61.88 22.8998C61.1771 19.8039 60.1408 16.5609 58.0324 14.1024C55.8929 11.6074 52.8299 10.3508 49.8381 9.13526ZM42.0637 41.9735C42.1151 41.8604 42.2951 41.8728 42.3505 41.9735C42.5673 42.3682 42.5914 42.872 42.6324 43.3175L42.6367 43.3634C42.6888 43.9071 42.7349 44.4526 42.7632 44.998C42.8168 46.0332 42.8424 47.067 42.8391 48.1035C42.8357 49.1657 42.8141 50.2267 42.756 51.2873L42.7403 51.5715C42.6873 52.4932 42.5984 53.5213 42.1545 54.3271C41.9931 54.6201 41.5543 54.534 41.4608 54.2377C41.1546 53.2677 41.3118 52.1176 41.3904 51.1241L41.4514 50.3489C41.5117 49.5736 41.5693 48.7981 41.615 48.0219C41.6776 46.9599 41.7292 45.897 41.7789 44.8346C41.795 44.4895 41.8125 44.1443 41.8309 43.7992L41.8593 43.2817C41.8835 42.8488 41.8815 42.3737 42.0637 41.9735ZM7.63556 43.3483L7.77111 43.2191C8.18722 42.8174 8.71305 42.1986 9.32819 42.237C9.57349 42.2523 9.72979 42.4532 9.67893 42.6913C9.57028 43.2003 9.04401 43.4644 8.66518 43.7752C8.25017 44.1154 7.85903 44.4792 7.46865 44.8464C7.12232 45.1721 6.78925 45.507 6.46417 45.8523L6.34263 45.9823C6.22611 46.1078 5.39633 46.8482 5.48605 47.0403L5.49093 47.0489C5.5159 47.0857 5.47431 47.1363 5.4329 47.1234C5.07457 47.0117 5.09692 46.7087 5.23239 46.4017C5.4927 45.8119 5.94854 45.2662 6.3466 44.7625C6.74358 44.26 7.17326 43.792 7.63556 43.3483ZM43.3621 28.5558C43.085 27.9096 42.0643 27.9232 41.4848 27.9618C40.0255 28.0591 38.4466 28.4234 37.1482 29.0963C35.802 29.7939 34.8952 30.9117 34.0839 32.1478L34.0459 32.2058C33.2551 33.4185 32.4935 34.8542 31.2552 35.688C30.6245 36.1129 29.8881 36.5007 29.1228 36.6688C29.0703 36.7599 28.9852 36.832 28.8736 36.8583L28.8217 36.87C28.6037 36.9174 28.2651 36.97 27.9727 36.9386C27.9746 37.0797 27.9731 37.2198 27.9767 37.3535C27.987 37.7367 27.9914 38.1216 27.9914 38.5051C27.9916 39.3086 27.9478 40.1136 27.9818 40.917C28.0119 41.6277 28.1136 42.3701 28.4595 43.0054C28.7131 43.4714 29.0479 43.7798 29.452 44.0742C30.4462 43.4765 31.5704 43.1121 32.7113 42.8382C34.0911 42.5069 35.504 42.2858 36.8524 41.8365C37.5014 41.6202 38.1254 41.3372 38.6907 40.9528C39.2907 40.5446 39.749 39.9924 40.2205 39.4522L40.2942 39.3683C40.7754 38.8238 41.3005 38.3028 41.9806 38.0076C42.5663 37.7533 43.3382 37.708 43.8503 37.3145C44.118 37.1087 44.1404 36.8099 44.1686 36.504C43.8406 36.5503 43.4935 36.4761 43.1666 36.4383L42.9972 36.4187C42.6882 36.3825 42.3862 36.3427 42.0819 36.2651C42.0254 36.2507 42.0254 36.1666 42.0819 36.1522C42.4415 36.0606 42.7979 36.0216 43.1666 35.979L43.2532 35.9683C43.5867 35.9251 43.9373 35.86 44.2645 35.9324C44.3232 35.7121 44.408 35.5017 44.5269 35.291C44.6939 34.995 45.0098 34.6593 45.0524 34.3136C45.0652 34.2103 45.0408 34.0885 44.9915 33.9972L44.9745 33.9661C44.9537 33.9294 44.9291 33.8924 44.8932 33.8695C44.8892 33.8741 44.8808 33.8793 44.8625 33.885C44.6107 33.9632 44.391 33.8416 44.2745 33.6542C43.7796 33.7148 43.2395 33.6944 42.7754 33.7146L42.3061 33.737C41.8047 33.7597 41.2805 33.7696 40.8094 33.6697C40.7436 33.6558 40.7237 33.5478 40.7895 33.52C41.3688 33.2756 42.0714 33.1976 42.6916 33.1037C43.038 33.0512 43.3868 33.0113 43.7342 32.9651C43.9655 32.9343 44.2109 32.8834 44.4506 32.8712C45.0514 32.1333 44.7277 30.9692 43.8915 30.6515C43.5869 30.7836 43.313 30.7067 42.9803 30.6785C42.6481 30.6504 42.3151 30.6313 41.9815 30.6328C41.3132 30.6357 40.605 30.8091 39.9432 30.7345C39.8355 30.7222 39.7355 30.5809 39.8425 30.4947C40.3491 30.0868 41.0752 29.9538 41.7183 29.8669L41.8515 29.8493C42.0671 29.8215 42.3293 29.7808 42.6013 29.7565C42.6628 29.6382 42.7731 29.5487 42.9388 29.5265C42.9881 29.5199 43.0376 29.516 43.087 29.5118L43.0863 29.507C43.4905 29.4878 43.473 28.8142 43.3621 28.5558ZM15.6888 41.1573C15.6817 41.1682 15.6739 41.1785 15.6655 41.1885L15.6527 41.2032L15.7192 41.1765L15.6888 41.1573ZM50.4158 27.112C48.7144 26.9316 47.0106 26.9697 45.3042 27.0181C45.1677 27.4585 44.6926 27.8338 44.2323 27.848C44.5928 28.3893 44.63 29.122 44.3772 29.6961C44.9139 29.9069 45.3764 30.2856 45.6571 30.8248C46.0464 31.5724 45.9954 32.4043 45.6107 33.0951C45.9391 33.3884 46.1328 33.8647 46.1134 34.3136C46.0918 34.8141 45.7893 35.2417 45.5381 35.6561C45.2665 36.1044 45.2574 36.499 45.174 37.001C45.0519 37.7356 44.5497 38.1812 43.9035 38.4595L43.9378 38.5928C44.1044 39.2326 44.3117 39.9077 44.7879 40.3755C45.4005 40.9774 46.3508 40.9718 47.1601 41.0099L47.1991 41.0118C47.9402 41.0484 48.681 41.0912 49.4218 41.1326L49.9774 41.1633C50.8304 41.2096 51.6495 41.2151 52.3459 40.6588C53.4827 39.7507 54.262 38.2479 54.7553 36.9174C55.7906 34.1249 55.803 31.0603 55.3278 28.152C53.734 27.6452 52.0802 27.2884 50.4158 27.112ZM36.2667 31.7449L36.2792 31.7458C36.6295 31.7853 36.8702 32.0652 36.9559 32.3971C37.0804 32.8796 37.0193 33.3159 37.3188 33.7514C37.627 34.1993 37.8164 34.5579 37.8612 35.1112C37.8796 35.3389 37.8712 35.566 37.9225 35.7889L37.9598 35.945C37.9994 36.1115 38.0317 36.2719 38.012 36.4507C37.9941 36.6137 37.9136 36.7407 37.7479 36.7929C37.2077 36.9634 36.7907 36.5707 36.6512 36.0742C36.5307 35.6453 36.6916 35.1341 36.5215 34.7313C36.4273 34.5081 36.2536 34.3213 36.1554 34.0965C36.0581 33.8738 36.0093 33.641 35.9937 33.3988C35.9641 32.9408 36.3747 32.3905 36.1456 31.9754C36.0968 31.8869 36.1521 31.7423 36.2667 31.7449ZM29.0923 27.0182C29.4581 26.9449 29.873 26.7769 30.2337 26.9165C30.4191 26.9884 30.5107 27.2115 30.3541 27.3665C30.0821 27.6355 29.6868 27.6504 29.3205 27.7139L29.2883 27.7196C28.8551 27.7987 28.4212 27.8736 27.9867 27.9447C27.1693 28.0783 26.3499 28.1964 25.5276 28.2967C24.6831 28.3998 23.8362 28.4916 22.9881 28.5607L22.6598 28.5873C21.9434 28.6438 21.198 28.6864 20.4951 28.5782C20.3929 28.5624 20.4094 28.4157 20.4951 28.39C21.2651 28.1601 22.1098 28.0984 22.9059 28.0011C23.7523 27.8975 24.5973 27.7881 25.44 27.6583C26.2815 27.5286 27.1218 27.3895 27.959 27.2357C28.3374 27.1663 28.7152 27.0938 29.0923 27.0182ZM42.2896 26.28C41.9686 26.1679 41.6155 26.0018 41.2677 26.0573C40.668 26.1532 40.1342 26.7297 39.6595 27.1093L39.8979 27.0636C41.1175 26.8323 42.7327 26.5832 43.7565 27.3482C43.7592 27.3438 43.7612 27.3394 43.7641 27.335C43.8468 27.2112 43.9425 27.1146 44.0471 27.0086C44.057 26.9993 44.0667 26.9897 44.0762 26.98L44.1326 26.9207L44.0036 26.8767C43.7274 26.7803 43.4001 26.6559 43.3484 26.6378L43.3448 26.6366C42.9927 26.5189 42.6401 26.4025 42.2896 26.28ZM32.2684 1.05822C32.2182 0.421335 33.2229 0.426578 33.2727 1.05822C33.3813 2.43717 33.0667 3.80305 32.3897 5.01198C32.3847 5.0208 32.3792 5.02863 32.374 5.03695C32.7975 5.25432 33.2257 5.46287 33.6635 5.64928C34.2235 5.88778 34.7941 6.10499 35.3748 6.28924C35.9002 6.45601 36.5474 6.52184 36.9891 6.86886C37.9204 7.60053 37.5705 9.11895 37.3914 10.1032L37.3634 10.2586C37.2742 10.765 37.2097 11.2847 37.4261 11.7707C37.6572 12.29 38.1246 12.6751 38.5416 13.0466L38.6258 13.1219C38.9952 13.4539 39.4173 13.8573 39.6882 14.3074C39.9355 13.8029 40.2727 13.3906 40.6291 12.9265C40.8835 12.5953 40.7024 12.4861 40.5197 12.1625C40.3439 11.8511 40.258 11.5192 40.313 11.1639C40.4145 10.5078 40.946 10.0339 41.475 9.67777C42.0998 9.25743 42.7972 8.94602 43.443 8.55497C44.7702 7.75157 46.0628 6.83299 47.2272 5.8128C47.2594 5.78459 47.3151 5.82154 47.2893 5.86007C46.3695 7.24044 45.2909 8.43322 43.9653 9.44567C43.4278 9.85621 42.8631 10.1967 42.2947 10.5547L42.1313 10.6582C41.903 10.804 41.6184 10.999 41.5152 11.2473C41.4113 11.497 41.6328 11.6856 41.7519 11.8925C42.1304 12.5495 41.9478 13.1625 41.4991 13.7196L41.4782 13.7453C41.0323 14.2874 40.6944 14.7915 40.5328 15.4841C40.1855 16.9718 40.6692 18.5214 41.1756 19.9181L41.1956 19.9731C41.4694 20.7259 41.7605 21.4732 41.9985 22.2381L42.064 22.4496C42.2796 23.1533 42.4561 23.8474 42.2143 24.5709C42.132 24.817 41.7918 24.8752 41.6506 24.6436C41.1521 23.8269 41.0279 22.844 40.7154 21.9461C40.4109 21.071 40.0613 20.2116 39.7671 19.3329C39.3884 18.2015 39.1349 16.9837 39.2725 15.797C39.2685 15.7901 39.264 15.7836 39.2606 15.7763L39.1642 15.5682C38.9013 15.0048 38.6474 14.5128 38.1693 14.0638C37.6706 13.5953 37.1293 13.1807 36.7369 12.6136C35.8845 11.3818 36.4117 10.0116 36.5146 8.66482L36.5264 8.49967C36.5451 8.22003 36.5554 7.84 36.3702 7.64647C36.1619 7.4286 35.6735 7.37301 35.3972 7.27655C34.6831 7.02723 33.9793 6.73671 33.3091 6.38785C32.671 6.05581 32.053 5.68897 31.4775 5.25923L31.1859 5.04275C30.7257 4.70019 30.2485 4.32611 29.94 3.85981C29.9044 3.80613 29.9649 3.7195 30.0294 3.74521C30.5443 3.95135 31.0147 4.27923 31.4964 4.56451C31.5039 4.54712 31.5126 4.52956 31.5225 4.51191C32.1185 3.4477 32.3636 2.26865 32.2684 1.05822ZM48.7157 8.34952C48.9208 7.79453 49.8558 7.83739 49.8185 8.49682C49.7899 9.00343 49.5719 9.46069 49.3725 9.92068L49.3513 9.96998C49.1454 10.4492 48.9077 10.8992 48.6233 11.3384C48.0798 12.1781 47.4432 12.9574 46.7633 13.6928C46.1468 14.3596 45.3377 14.7673 44.4054 14.6995C44.0125 14.671 43.616 14.5724 43.2717 14.3788C42.8629 14.1488 42.4189 13.4581 41.8972 13.6254C41.8468 13.6415 41.7997 13.5686 41.8433 13.5341C42.4455 13.0557 43.129 13.7975 43.7056 13.9763C44.5743 14.2455 45.4658 13.9478 46.025 13.2549C46.6088 12.5315 47.1461 11.7215 47.6368 10.9338C47.886 10.5339 48.1133 10.1188 48.3097 9.69094C48.5078 9.25911 48.5529 8.78984 48.7157 8.34952ZM47.3153 4.93399C47.29 4.85734 47.3865 4.78444 47.4547 4.82822C47.8504 5.08237 48.1933 5.41816 48.5583 5.71251C48.9633 6.03906 49.3712 6.35896 49.7855 6.67394C50.3894 7.13323 49.689 7.97875 49.1574 7.47701C48.4299 6.7907 47.6332 5.89326 47.3153 4.93399ZM45.1428 2.2477C45.3036 1.63614 46.2544 1.88833 46.1158 2.49275L46.1113 2.51117C45.8488 3.50953 46.2226 4.52593 47.0205 5.17316L47.0498 5.19667C47.5546 5.59521 46.8395 6.29192 46.3397 5.89721C45.2486 5.03572 44.7947 3.57231 45.1428 2.2477Z" fill="black"/>
</g>
<defs>
<clipPath id="clip0_5_26">
<rect width="69" height="61" fill="white"/>
</clipPath>
</defs>
</svg>
