<svg width="67" height="59" viewBox="0 0 67 59" fill="none" xmlns="http://www.w3.org/2000/svg">
<g clip-path="url(#clip0_5_58)">
<path fill-rule="evenodd" clip-rule="evenodd" d="M3.93138 28.2361L62.6155 32.8143L62.677 33.2062C63.6603 39.4998 64.157 43.7696 64.1671 46.0155L64.1672 46.0843C64.1672 48.3112 64.8629 51.8529 66.2542 56.7095L66.3402 57.0084L3.84947 57.1154L3.1123 42.4973L3.93138 28.2361ZM38.6739 -3.13176C41.06 -3.01604 43.4648 -2.01078 43.6506 -1.36829C44.0642 0.0625917 44.7295 6.18771 46.9172 7.12875C49.1049 8.06979 53.7754 7.21188 55.1107 9.45916C56.4461 11.7064 60.8314 20.8674 60.8314 23.0019C60.8314 24.425 46.5401 24.9189 17.9574 24.4838C18.3223 13.0217 19.8436 6.99651 22.5211 6.40811L22.7602 6.3562C26.6324 5.52496 28.9466 5.49816 30.2675 4.1582C31.6154 2.79089 31.86 0.443882 32.4192 -1.36829C32.7273 -2.36679 35.7458 -3.27375 38.6739 -3.13176Z" fill="white"/>
<path fill-rule="evenodd" clip-rule="evenodd" d="M43.9068 0.450676C43.9158 0.444013 43.9249 0.441822 43.9346 0.446651C44.1205 0.534386 44.159 0.709857 44.2229 0.892572C44.3163 1.1598 44.4244 1.42059 44.5243 1.68541C44.7235 2.21665 44.9134 2.74709 45.1354 3.26948C45.3631 3.80716 45.599 4.33518 45.8693 4.85435C45.9995 5.10548 46.1396 5.35178 46.2821 5.59647C46.3804 5.76631 46.4721 5.99973 46.6015 6.15911C46.6113 6.1084 46.6253 6.0601 46.6416 6.01503C46.6245 6.02308 46.6081 6.03193 46.5925 6.04159C46.5597 6.06171 46.5204 6.02147 46.5401 5.99008C46.6105 5.87578 46.7023 5.79851 46.8071 5.74619C47.097 5.42986 53.4882 6.93947 55.2353 8.63502C58.3997 11.7058 60.5355 15.5025 61.9402 19.5416C62.7159 21.7704 63.4301 24.0209 64.1681 26.2618C64.9479 28.6314 65.762 30.9906 66.5434 33.3587C66.7146 33.8795 66.3411 34.3527 65.8693 34.5242C64.9905 34.8429 64.1051 35.1432 63.2123 35.4209C63.6456 37.0556 63.9486 38.725 64.1665 40.3992C64.6162 43.8515 64.6727 47.3738 65.3812 50.7898C65.5439 51.5739 65.7498 52.3468 65.9672 53.1177L66.0176 53.2955C66.147 53.7479 66.265 54.2043 66.4238 54.647C66.5606 55.0277 66.7375 55.4116 66.8334 55.8044C66.9456 56.2665 66.7801 56.7711 66.3403 57.0086C65.9873 57.1993 65.4819 57.1205 65.269 56.7623C65.2255 56.689 65.1993 56.6093 65.1887 56.5289C65.1567 56.462 65.1273 56.3936 65.101 56.3236C65.0908 56.2966 65.0818 56.2687 65.0732 56.2406L65.0478 56.157C64.9856 55.9574 64.9282 55.7561 64.8709 55.5549C64.7775 55.232 64.6835 54.9103 64.5797 54.5903L64.5269 54.4304C64.2697 53.661 64.0395 52.885 63.8389 52.0994C63.1207 49.2825 62.9684 46.366 62.7712 43.4792L62.761 43.3299C62.5824 40.7429 62.4759 38.1616 62.6946 35.5802L62.6647 35.5898L62.6348 35.5987C62.3507 35.6841 62.0656 35.7678 61.7797 35.8491C61.7707 35.8523 61.7625 35.8555 61.7535 35.8579C61.5706 35.9136 61.3825 35.9665 61.1913 36.0156L61.0761 36.0447L60.995 36.0664L60.9097 36.0903C60.6388 36.1675 60.3626 36.2562 60.0818 36.2475C59.6165 36.3207 59.1431 36.365 58.6779 36.3666C58.8212 38.6695 58.9867 40.9707 59.1841 43.2695C59.3823 45.5804 59.6452 47.8825 59.918 50.1845C60.0523 51.3219 60.1964 52.4568 60.3553 53.5901C60.4356 54.1648 60.5192 54.7363 60.6256 55.3062C60.7354 55.8889 60.9295 56.5119 60.8124 57.1011C60.8099 57.1003 60.8075 57.0995 60.805 57.0995C60.7657 57.2702 60.6609 57.4231 60.4782 57.5286C60.1432 57.7209 59.6747 57.6082 59.4822 57.2718C59.4658 57.2436 59.4503 57.2146 59.4355 57.1849C59.2382 57.2678 59.0219 57.3 58.7565 57.3024L55.1575 57.3378C53.5218 57.3539 51.8862 57.3708 50.2497 57.3941C45.1117 57.4685 39.9738 57.5544 34.8358 57.6155L32.9091 57.6372C30.0194 57.667 27.1281 57.7258 24.2384 57.7249C22.7928 57.7249 21.3487 57.7201 19.9031 57.6855C19.2028 57.6686 18.5041 57.642 17.8046 57.6139L17.6811 57.6083C17.1227 57.5812 16.5298 57.5304 15.9838 57.6533C15.8331 57.9415 15.4481 58.001 15.2467 57.7064C14.7862 57.0324 14.6606 56.0919 14.5755 55.268L14.5455 54.9714C14.4513 54.0481 14.3686 53.1249 14.3072 52.2C14.0893 48.9232 14.0099 45.6432 14.1098 42.36C14.1606 40.6866 14.317 39.0228 14.5021 37.3591C14.5603 36.8399 14.6209 36.3216 14.6864 35.804L14.6875 35.62C14.6876 35.5611 14.6872 35.505 14.6856 35.4522L14.6693 34.9529C14.6557 34.5366 14.6431 34.1201 14.6378 33.7036L14.6356 33.4537L14.6332 32.9884C14.2285 32.9506 13.7969 32.8186 13.448 32.755C12.8821 32.6512 12.3177 32.5393 11.755 32.421C10.6279 32.1827 9.51316 31.901 8.40577 31.5895L8.17026 31.523C7.14844 31.2337 6.11255 30.9251 5.14587 30.4924C4.76746 30.3225 4.38987 30.131 4.05814 29.8798C4.03848 30.1439 4.00818 30.4071 3.99016 30.6687C3.9542 31.1862 3.91153 31.7022 3.87631 32.2197L3.84263 32.7122C3.7873 33.5327 3.73748 34.3523 3.71495 35.1754C3.61502 38.7653 3.59782 42.3705 3.79113 45.9579C3.88696 47.7537 4.02374 49.5495 4.22114 51.338C4.31779 52.2177 4.42017 53.0999 4.54631 53.9765C4.67654 54.8772 4.91161 55.7722 4.98369 56.6794C5.05249 57.5543 3.6912 57.6815 3.46759 56.8814C3.19984 55.9221 3.13164 54.8871 2.99051 53.9007L2.97451 53.7913C2.81807 52.7434 2.69275 51.6913 2.58463 50.6377C2.21141 47.0035 2.11449 43.3508 2.31024 39.703C2.40332 37.9559 2.62399 36.2156 2.89107 34.4869L2.92209 34.2875C3.04368 33.5134 3.1575 32.7392 3.29519 31.9685L3.34801 31.6796C3.47169 31.0172 3.5667 30.2968 3.76737 29.6343L3.70772 29.5803C3.5962 29.4782 3.47534 29.3601 3.38732 29.2327C3.08427 29.1925 2.82626 28.9783 2.8582 28.5896C2.96223 27.3122 3.43729 26.0131 3.86075 24.8073C4.28584 23.5951 4.77892 22.4054 5.33753 21.2464C7.30248 17.1727 10.1324 13.4741 13.5929 10.5113C15.4285 8.93927 17.4401 7.54516 19.6631 6.55271C20.759 6.06252 21.8926 5.6834 23.0802 5.47896C23.6683 5.37754 24.2622 5.29866 24.8601 5.28175C25.3452 5.00032 25.9211 5.11875 26.3908 5.42733L26.4163 5.44435H26.4172L26.5375 5.46769C26.567 5.47332 26.5662 5.5192 26.5375 5.52564C26.5359 5.52564 26.5335 5.52645 26.5318 5.52725C26.6088 5.58682 26.6817 5.6504 26.7497 5.71882C26.9741 5.9442 26.9733 6.21626 26.8578 6.436C27.545 7.06222 27.9791 7.86632 28.4337 8.67687C28.921 9.54456 29.5591 10.2947 30.3356 10.9274C33.1819 13.2472 37.3681 14.2734 40.9344 13.1779C43.557 12.373 45.7972 10.1941 46.4164 7.57092C46.2698 7.62244 46.1109 7.63049 45.9602 7.57736C45.2524 7.32942 44.9826 6.56931 44.7119 5.9338L44.6988 5.90315C44.4342 5.28739 44.2123 4.66197 44.037 4.01643C43.8602 3.36445 43.7561 2.67626 43.7126 2.00335C43.6959 1.73729 43.7033 1.47123 43.7173 1.20517L43.7297 0.985175C43.7393 0.785833 43.7363 0.582144 43.9068 0.450676ZM32.3915 -1.34347C32.4013 -1.36762 32.4398 -1.3805 32.4546 -1.35152C33.0811 -0.081371 32.67 1.65885 32.0777 2.87024C31.4577 4.13717 30.524 5.09823 29.4174 5.92971C29.2651 6.04401 29.1086 6.15669 28.9498 6.26697C28.0266 6.90767 27.2042 5.18033 28.2699 4.85032C29.3806 4.29574 30.2832 3.30731 30.9105 2.26897C31.2497 1.70795 31.5503 1.12358 31.7805 0.510239C32.0098 -0.101494 32.1474 -0.738179 32.3915 -1.34347Z" fill="black"/>
</g>
<defs>
<clipPath id="clip0_5_58">
<rect width="67" height="59" fill="white"/>
</clipPath>
</defs>
</svg>
