<svg width="68" height="61" viewBox="0 0 68 61" fill="none" xmlns="http://www.w3.org/2000/svg">
<g clip-path="url(#clip0_5_102)">
<path fill-rule="evenodd" clip-rule="evenodd" d="M8.04475 58.9955C13.1349 59.1382 17.9434 59.2955 23.0237 58.9955C31.1535 58.4921 55.0116 59.3996 60.2558 58.9955C60.6515 58.965 62.0126 59.3996 62.0409 58.9955C62.2714 56.1821 62.4209 27.7179 61.736 25.7594C61.0511 23.8008 57.6704 14.3859 53.3627 9.99572C52.1615 8.80967 50.3337 8.35026 49.324 6.97963C48.4534 5.48505 48.5211 4.60784 47.6613 3.8215C47.2882 3.48027 46.4083 3.34193 45.7545 2.86829C45.0971 2.21427 45.7196 0.774565 45.4497 -0.136191C44.8936 -2.41025 42.8447 -3.86917 40.6053 -4.21295C37.4927 -4.95853 34.2068 -4.2536 32.7159 -1.80605C32.1609 -0.894997 32.4563 0.212389 31.7738 1.67226C31.8225 2.7755 30.5359 3.04205 29.7668 3.4792L28.2396 5.02437C23.5345 7.67459 17.9994 9.10568 13.8768 12.6663C10.3717 16.2259 6.88542 20.3401 5.33023 25.156C5.00827 26.4683 4.90319 27.8246 4.76977 29.1655C4.38887 33.0842 3.32822 36.8876 2.41546 40.7046C1.37467 45.5138 0.404497 50.6189 1.80723 55.4736C2.21165 56.5011 7.12409 58.9475 8.04475 58.9955Z" fill="white"/>
<path fill-rule="evenodd" clip-rule="evenodd" d="M32.4462 -1.41436C32.4869 -1.54759 32.6624 -1.51014 32.6757 -1.38356C32.8079 -0.128611 32.6416 1.18293 32.482 2.42956C32.4055 3.03124 32.3614 3.65705 32.245 4.25032C32.23 4.31365 32.2159 4.37765 32.2026 4.44098C32.2409 4.50914 32.354 4.5857 32.4079 4.63813L32.6426 4.86654L33.1129 5.32228C34.0332 6.21439 34.9534 7.10725 35.8736 7.99945L37.2245 9.31016C37.6876 9.75946 38.2138 10.1898 38.6202 10.6908C38.8406 10.9628 38.8904 11.2965 38.6734 11.5878C38.5662 11.7318 38.3734 11.8366 38.178 11.8583C38.2544 11.9648 38.3135 12.0855 38.3509 12.2195C38.4274 12.4925 38.1515 12.8278 37.858 12.7138C37.5247 12.5856 37.2494 12.3559 36.9102 12.2461C36.5677 12.1346 36.1954 12.113 35.8404 12.1728C35.6774 12.2003 35.5178 12.2412 35.3624 12.2928C37.0259 13.0592 38.8255 13.4994 40.661 13.5626C41.0351 13.5752 41.4085 13.5701 41.78 13.5452C42.4052 13.5043 43.0261 13.4096 43.6363 13.2564C44.116 13.1358 44.5907 12.9842 45.0512 12.8011C45.2773 12.7113 45.5009 12.6123 45.7171 12.5L45.736 12.4888C45.7849 12.4582 46.6881 11.9454 46.7038 11.8683C46.7196 11.7913 46.7196 11.7644 46.6902 11.6973C46.6706 11.6526 46.6336 11.6148 46.5793 11.584C46.3002 11.4646 46.0111 11.3535 45.7063 11.3515C45.0046 11.3473 44.2389 11.8667 43.6588 12.2204C43.0212 12.609 42.435 13.0633 41.8215 13.4845C41.8074 13.4944 41.7917 13.4986 41.7766 13.4986C41.7119 13.4986 41.652 13.4186 41.6935 13.3562C42.1332 12.7081 42.7267 12.1685 43.3475 11.6973L43.5976 11.5096C44.1662 11.0852 44.8312 10.6151 45.5225 10.5126C46.3696 10.3878 47.2541 10.9163 48.0098 11.2258L49.3481 11.7742C49.5867 11.8716 49.8461 11.9548 50.0863 12.0655L49.5254 10.3088C49.2452 9.43037 48.9657 8.5517 48.689 7.6724L48.6352 7.50014C48.3595 6.60758 48.1064 5.67911 47.6473 4.86374C47.5375 4.66817 47.412 4.48425 47.2881 4.29859C47.1593 4.10644 47.1111 3.89423 46.9491 3.72271C46.6282 3.38234 46.1684 3.18262 45.7295 3.05204C45.6222 3.02042 45.6539 2.87895 45.7545 2.86813C46.2049 2.82061 46.6344 2.92578 47.0414 3.11596L47.2106 3.19674C47.5955 3.37905 47.9708 3.54861 48.2566 3.87584C48.9083 4.62316 49.2467 5.56411 49.5576 6.49269L49.6408 6.742C49.7571 6.70372 50.5477 6.94506 50.6466 7.0024C53.6102 8.2566 55.893 10.5917 57.5622 13.3279C59.3911 16.3263 60.3869 19.7525 61.209 23.1429C61.4627 24.1893 61.7054 25.2388 61.9385 26.2907C60.8999 26.6908 59.7962 26.9001 58.824 27.4636C58.4536 27.6782 58.7881 28.2538 59.1595 28.0385C60.0701 27.5107 61.1074 27.3157 62.082 26.9451C62.6105 29.3803 63.0806 31.8289 63.4743 34.2877C64.6839 41.8341 65.4478 49.5035 65.3996 57.1531C65.3987 57.3221 65.349 57.5109 65.2566 57.6732C65.3107 57.6466 65.3531 57.6149 65.3772 57.5767C65.6839 57.0948 66.4528 57.5418 66.1444 58.0261L66.0994 58.0963C65.868 58.4535 65.6519 58.7264 65.245 58.9281C64.8351 59.1313 64.3912 59.1654 63.9391 59.177C62.402 59.2176 60.8639 59.244 59.3252 59.2629C59.1142 57.6153 59.0284 55.952 58.7377 54.3141C58.663 53.8929 58.022 54.0714 58.0965 54.4911C58.3772 56.0728 58.4671 57.6784 58.663 59.2709C55.3736 59.3064 52.0823 59.3068 48.7954 59.316C44.3409 59.3291 39.8869 59.3199 35.4326 59.3174L33.5236 59.3168C28.3779 59.3168 23.2321 59.3001 18.0865 59.266L16.8627 59.2574C16.3759 56.3845 16.0446 53.4871 16.0384 50.5678C16.0375 50.1395 15.3725 50.1386 15.3734 50.5678C15.3795 53.4839 15.7072 56.3816 16.1895 59.2536C14.9712 59.2483 13.7534 59.2527 12.535 59.296L11.9148 59.3181C10.6741 59.3606 9.43077 59.3868 8.1923 59.2877C6.81734 59.177 5.42666 58.9241 4.19385 58.2758C3.63863 57.9833 3.14974 57.6094 2.73193 57.1697C3.15664 56.9224 3.58742 56.6851 3.99883 56.4157C4.35554 56.182 4.02277 55.6053 3.66315 55.8408C3.21982 56.1313 2.7538 56.3842 2.29733 56.6528C1.96681 56.2113 1.69556 55.7212 1.48956 55.1925C1.16453 54.3577 1.039 53.4598 0.930101 52.576C0.801333 51.535 0.748047 50.4855 0.748047 49.437C0.748047 47.2317 0.979978 45.033 1.30344 42.8543C1.61275 40.7671 2.02162 38.6967 2.45382 36.6329L2.51289 36.3515C2.93934 34.3226 3.34585 32.2879 3.83465 30.2731C4.28662 28.4101 4.80893 26.5558 5.4314 24.7373C5.98546 25.0803 6.56529 25.3803 7.1107 25.7376C7.4699 25.9729 7.8035 25.3967 7.44638 25.1628C6.86447 24.7815 6.24383 24.4647 5.6566 24.0922C6.35264 22.145 7.16964 20.2433 8.14916 18.4219C10.1109 14.7744 12.7545 11.5112 16.1404 9.10294C17.8353 7.89784 19.6949 6.91177 21.6477 6.19433C23.6387 5.46208 25.7019 5.06088 27.8117 4.89619C27.872 4.89141 27.9058 4.94723 27.9033 4.99884L27.9024 5.00845L27.9855 5.02185C28.0163 4.81297 28.0795 4.61066 28.2 4.42517C28.4743 4.00241 28.9946 3.73112 29.4103 3.47147L29.5088 3.4101C30.0034 3.10325 30.5252 2.80095 31.1004 2.69337C31.1204 2.68996 31.1327 2.71076 31.1194 2.72665C30.7401 3.16199 30.2551 3.49462 29.8106 3.86284L29.7085 3.94813C29.3401 4.25161 28.8263 4.59606 28.8126 5.10333C28.7969 5.70093 28.919 6.32249 28.9631 6.91843C29.0072 7.51253 29.0379 8.10589 29.0537 8.70174C29.1111 10.8364 29.0421 12.9718 28.8533 15.0981L29.6879 14.5387C30.9867 13.6684 32.2898 12.8005 33.62 11.9856C34.4248 11.4922 35.3292 11.0702 36.2934 11.0894C36.5636 11.0943 36.8687 11.1335 37.1614 11.2167C36.8463 10.918 36.5446 10.6001 36.2361 10.2996C35.7281 9.8044 35.2202 9.30933 34.7124 8.815L33.2479 7.38691L31.7828 5.95882C31.329 5.51526 30.7969 5.10674 30.8451 4.40769C30.8843 3.85012 31.1677 3.29504 31.3613 2.75745C31.3888 2.68005 31.4137 2.60349 31.437 2.52776C31.8278 1.22787 32.0497 -0.119541 32.4462 -1.41436ZM51.374 54.359C51.0711 54.0555 50.6008 54.5261 50.9039 54.8296L51.0641 54.9894C51.3318 55.2568 51.5971 55.5323 51.7824 55.8628L51.8096 55.9128C52.0092 56.2919 52.5834 55.9559 52.3837 55.5767C52.1369 55.1081 51.7443 54.7298 51.374 54.359ZM38.3949 54.2733C37.4305 54.089 36.501 54.089 35.5366 54.2733C35.1167 54.3536 35.2945 54.9954 35.7134 54.9154C36.5569 54.7541 37.3745 54.7541 38.218 54.9154C38.6363 54.9953 38.8154 54.3538 38.3949 54.2733ZM25.3708 47.5625C24.9558 47.4572 24.7787 48.0992 25.194 48.2045L25.3985 48.2558C26.0936 48.4278 26.7556 48.5559 27.4776 48.3963C27.8898 48.305 27.7232 47.6787 27.3172 47.751L27.3008 47.7542C26.6327 47.9019 26.0172 47.7264 25.3708 47.5625ZM48.5012 43.2382C48.1941 42.9393 47.7233 43.4096 48.0309 43.7088C48.4147 44.0825 48.867 44.3664 49.4152 44.3816C49.8369 44.3934 49.8429 43.7475 49.434 43.7168L49.4152 43.7158C49.0478 43.7056 48.7551 43.4854 48.5012 43.2382ZM9.36168 41.4601C9.74458 41.2684 9.40815 40.694 9.02609 40.8853L6.72772 42.0356C6.34483 42.2273 6.68125 42.8018 7.06332 42.6105L9.36168 41.4601ZM54.778 41.6068C54.3499 41.5947 54.3502 42.2605 54.778 42.2726C55.1803 42.2838 55.5925 42.4363 55.9509 42.6105C56.3343 42.7969 56.6719 42.223 56.2866 42.0356C55.8181 41.8079 55.3037 41.6214 54.778 41.6068ZM33.303 38.3924C33.655 38.1529 33.3226 37.5757 32.9673 37.8175C32.4825 38.1472 32.0433 38.5369 31.5662 38.8766L31.4351 38.9679C31.0831 39.2073 31.4155 39.7844 31.7708 39.5428C32.2995 39.183 32.7742 38.7519 33.303 38.3924ZM58.0341 33.5537C57.6061 33.5535 57.6054 34.2193 58.0341 34.2195L58.1152 34.2192C58.4684 34.2172 58.8407 34.2075 59.1692 34.3488L59.2069 34.3658C59.592 34.5474 59.9299 33.9736 59.5426 33.791C59.061 33.5639 58.5575 33.554 58.0341 33.5537ZM21.1012 33.0781L21.1571 33.0571C21.557 32.9134 21.3845 32.2698 20.9803 32.4153C20.3711 32.6344 19.8972 33.0482 19.3687 33.4074C19.0166 33.6468 19.349 34.2239 19.7043 33.9824C20.1597 33.6728 20.5833 33.2808 21.1012 33.0781ZM46.0458 31.3461L46.1355 31.298C46.5162 31.1019 46.1801 30.5273 45.7999 30.7232C45.498 30.8786 45.2279 31.0855 44.9318 31.2503L44.8421 31.2984C44.4615 31.4944 44.7975 32.0691 45.1778 31.8733C45.4796 31.7177 45.7497 31.5109 46.0458 31.3461ZM35.9286 24.8976L35.8602 24.8314C35.5541 24.5314 35.0835 25.0018 35.3899 25.3021C36.1552 26.052 37.0599 26.6212 37.9726 27.1716L38.1386 27.2715C38.5065 27.4925 38.8413 26.9171 38.4743 26.6967L38.2307 26.55C37.4192 26.0601 36.6172 25.5544 35.9286 24.8976ZM17.5253 24.2761C17.7831 23.9408 17.2223 23.6128 16.9602 23.9285L16.951 23.94C16.6826 24.2889 16.364 24.6047 16.0312 24.8929L15.9686 24.9466C15.7704 25.1154 15.4097 25.477 15.1313 25.5008C14.708 25.5368 14.7042 26.2029 15.1313 26.1666C15.5621 26.1299 15.9327 25.8264 16.2582 25.5663C16.7319 25.1879 17.1556 24.7564 17.5253 24.2761ZM52.9063 21.8508C53.2153 21.5602 52.7589 21.0976 52.447 21.3702L52.4361 21.3801C51.8586 21.9232 51.0279 22.0689 50.2845 22.2531C49.8692 22.3561 50.0451 22.9982 50.4613 22.8951L50.8 22.8114C51.5597 22.6216 52.322 22.4005 52.9063 21.8508ZM39.7356 17.6514C39.3206 17.5458 39.1435 18.1878 39.5588 18.2934C40.2642 18.4728 40.9323 18.7047 41.5861 19.0268C41.9688 19.2152 42.3062 18.6413 41.9218 18.4519C41.2184 18.1054 40.495 17.8447 39.7356 17.6514ZM46.5292 3.61709C46.5192 3.58713 46.5509 3.55301 46.5815 3.56374C47.3279 3.84231 46.9311 4.82083 46.6992 5.40658L46.6572 5.51366C46.2939 6.45238 45.7861 7.36613 45.2324 8.20665C44.653 9.08628 44.0096 9.92847 43.313 10.7191C43.0107 11.0623 42.6973 11.3957 42.3733 11.7191L42.2513 11.8399C41.9239 12.1621 41.5016 12.728 40.9936 12.6656C40.4466 12.5997 40.1415 12.0148 40.5405 11.5704C40.8224 11.2558 41.2131 11.0052 41.5281 10.7191C41.8407 10.436 42.1433 10.144 42.4384 9.84358C43.042 9.22693 43.6139 8.57532 44.1368 7.88875C44.6425 7.22482 45.1264 6.54252 45.5665 5.83316L45.6539 5.69092C45.9888 5.13918 46.762 4.32778 46.5292 3.61709ZM20.0874 10.5907C19.7331 10.3482 19.4001 10.925 19.7517 11.1655C20.3983 11.6079 20.9672 12.1439 21.667 12.5077C22.0417 12.7026 22.375 12.1441 22.016 11.9401L22.0027 11.9329C21.3033 11.5692 20.7336 11.0328 20.0874 10.5907Z" fill="black"/>
</g>
<defs>
<clipPath id="clip0_5_102">
<rect width="68" height="61" fill="white"/>
</clipPath>
</defs>
</svg>
