<svg width="67" height="61" viewBox="0 0 67 61" fill="none" xmlns="http://www.w3.org/2000/svg">
<g clip-path="url(#clip0_5_6)">
<path fill-rule="evenodd" clip-rule="evenodd" d="M34.5251 61.6575C27.786 61.6575 21.0831 61.321 14.5955 60.6572L14.5926 60.6441L14.2481 60.6018C13.2678 60.4777 12.2656 60.3798 11.2964 60.2852C8.73965 60.0355 6.09569 59.7773 3.62963 59.0106L3.19396 58.8751L3.15129 58.986C3.08716 58.9522 3.01983 58.9172 2.94824 58.8836C3.33624 52.4455 3.98347 46.1264 4.56795 40.7765L4.59195 40.5575L4.44886 40.3919C3.6225 39.4358 3.31805 38.6347 3.51922 37.9442C5.16711 34.4496 5.51644 29.9911 5.85431 25.6789C6.55469 16.7415 7.21617 8.29977 18.6407 7.93435L18.6589 7.93352L18.7794 7.92503C21.1618 7.75918 23.6254 7.58758 25.826 6.47468L26.0825 6.34511L26.0977 6.05451C26.1162 5.70382 26.5412 5.28672 26.8826 4.95168C27.0001 4.83634 27.111 4.7274 27.2108 4.6183L27.2316 4.59542L27.2496 4.5702C27.7646 3.84303 28.3695 3.40904 28.8677 3.40904C29.5932 3.40904 29.9447 4.33419 30.0897 4.88569L30.3183 5.75508L30.9234 5.09781C32.3451 3.55384 33.0253 1.85591 32.9489 0.0452144L33.0005 0.0289034L32.9343 -0.403672C32.8094 -1.1544 32.8925 -1.7113 33.1815 -2.05866C33.5197 -2.46536 34.1831 -2.66309 35.2095 -2.66309C35.8877 -2.66309 36.6257 -2.5762 37.2768 -2.49956C37.4897 -2.47451 37.6949 -2.45038 37.8887 -2.43015C39.1921 -2.29068 40.5247 -2.03969 41.8132 -1.79702L41.9941 -1.76298L41.8717 -1.42436L42.1848 -1.2045C42.6019 -0.911479 42.9126 -0.323698 43.0372 0.408052L43.0427 0.44109L43.0527 0.473213C43.238 1.0699 43.3083 1.73624 43.3827 2.44169C43.5079 3.62865 43.6372 4.85589 44.3366 5.91245L44.7567 6.54717L45.1596 5.90088C45.3561 5.58556 45.6195 5.43219 45.965 5.43219C46.897 5.43219 48.0351 6.47926 48.2374 7.29082L48.3023 7.55146L48.5522 7.63976C50.2683 8.24684 51.6822 8.68991 52.9298 9.08079C56.062 10.0622 57.6343 10.5549 58.6431 11.9988C59.6809 13.4842 60.2061 16.0768 61.0798 21.235C62.0359 26.8248 62.6747 32.5702 63.2923 38.1264C64.0681 45.1052 64.8701 52.319 66.3096 59.3167C66.2094 59.4214 66.1335 59.5256 66.0817 59.6292C65.4463 59.6862 64.8001 59.7379 64.1714 59.7882C63.1251 59.8719 62.0432 59.9585 60.9861 60.0711L60.7515 60.096L60.6995 60.1782C60.603 60.1865 60.5079 60.1961 60.4144 60.2057C60.2654 60.2209 60.1216 60.2356 59.9811 60.2439L59.9386 60.1575L59.5976 60.1964C51.1072 61.166 42.6716 61.6575 34.5251 61.6575Z" fill="white"/>
<path fill-rule="evenodd" clip-rule="evenodd" d="M20.0296 27.107C20.0489 27.0727 20.1136 27.0847 20.1083 27.1287C19.8268 29.0277 19.144 30.8676 18.7284 32.7423L18.741 32.778C18.9531 33.3946 19.4406 35.6188 18.2483 35.0003L18.153 35.5073C16.6021 43.7904 15.3502 52.1619 15.5248 60.6178C15.5505 61.2908 15.2038 63.2845 14.2671 62.3079C13.579 61.1353 13.882 59.6975 13.8278 58.3956C13.9461 51.2487 14.6625 44.0466 16.5022 37.1326L16.5783 36.8935C17.7953 33.0921 17.7907 34.3097 17.2188 30.0652C17.205 29.6735 16.9263 28.8223 17.2932 28.5872C17.6237 28.7991 17.7333 29.4215 17.8531 29.7903L17.8613 29.8151C18.0392 30.3424 18.1979 30.8743 18.355 31.4083C18.8774 29.9748 19.2973 28.4472 20.0296 27.107ZM39.474 59.8795C40.1496 59.6767 40.7579 60.4577 40.5219 61.0973C40.3691 61.7644 39.093 62.1783 39.0444 61.2482C38.6954 60.8691 38.8087 60.1719 39.2854 59.9613C39.2806 59.9604 39.43 59.8993 39.474 59.8795ZM55.8411 22.0462C55.8663 21.958 55.9383 22.0384 55.9189 22.0945C56.0696 22.8703 55.9471 23.7236 55.9817 24.5296C56.0782 24.2988 56.2031 24.0782 56.3656 23.8714C56.5064 23.6924 56.7618 23.9482 56.6154 24.1252C56.2517 24.5648 56.0926 25.0949 56.0234 25.6457C56.557 37.1475 58.1283 48.6291 60.8238 59.8155C61.4081 61.3583 59.0517 61.9832 59.3103 60.3033C57.527 52.4574 56.1051 44.4459 55.7871 36.3805C55.3582 32.8413 55.5272 29.1537 55.586 25.5684C55.5883 24.4003 55.6995 23.2034 55.8411 22.0462ZM31.8455 -1.41455C32.5076 -1.36121 32.8915 -0.244399 33.0235 0.368264C33.5076 2.76965 32.2061 5.2689 30.4933 6.84375C33.0223 9.15875 35.7687 11.2219 38.7326 12.9303C39.1357 12.4663 39.8479 12.533 40.3441 12.8128C41.9489 11.2704 43.5747 9.76077 45.1371 8.17526C42.7081 6.61427 42.5052 3.40031 42.9915 0.785357L43.0064 0.706302C43.0432 0.481858 43.351 0.56333 43.3684 0.75615L43.3794 0.880338C43.5251 2.58097 43.5382 4.41703 44.469 5.90304C45.5281 4.20361 48.0661 5.94273 48.4385 7.43752C59.0828 11.2027 59.1824 8.98358 61.289 21.4196C63.4187 34.1331 64.0212 47.0649 66.516 59.7204C66.5468 60.0793 66.226 60.3729 65.9066 60.4216C64.6863 60.5867 64.6484 57.2363 64.3671 56.3007C63.7667 52.8077 63.3132 49.2903 62.9224 45.7673C61.7224 35.3317 61.3117 24.7376 58.9882 14.4724C58.7545 13.6088 58.4217 12.7543 57.8335 12.0731C55.3818 9.36248 51.1293 9.95508 48.4721 7.53938C48.7294 8.34445 48.7501 9.23432 48.6995 10.0753C48.4088 14.5569 48.2333 19.047 47.921 23.527C47.8848 24.0301 47.2854 24.1955 47.0048 23.7791C44.7812 20.4817 42.499 17.2341 40.3315 13.8968C39.9822 14.0651 39.6096 14.1418 39.2097 14.0611C38.5755 14.8747 38.8495 17.0028 38.6424 18.1186L38.5656 18.9723C37.3814 32.2054 36.5122 45.4715 36.5767 58.766L36.5791 59.1948C36.5785 59.6027 36.6093 60.0256 36.5793 60.4322C36.3085 61.7536 35.0282 61.2807 35.1001 60.1022C35.0431 45.2066 35.6489 30.2141 38.068 15.5043C35.8841 18.301 33.7027 21.0998 31.5179 23.8959C31.3544 24.1068 31.0437 24.0141 30.914 23.8188L30.9058 23.8059L30.9595 23.9524C30.8281 23.9096 30.7134 23.8284 30.5943 23.7583C29.4958 21.0179 28.785 18.1436 27.922 15.324C27.2017 12.5593 26.1218 9.84748 25.7239 7.01443L25.7059 7.00678C24.6251 7.55886 23.4276 7.91321 22.2174 7.93426C20.8488 8.29244 19.4094 8.46137 18.0442 8.64346C8.11972 9.07487 6.15764 19.0867 6.24839 27.3854L6.23116 27.7816C6.12744 30.2495 6.07853 32.7604 5.47633 35.161C5.25404 35.6139 4.5507 38.5271 3.84327 37.4923C3.24682 38.3023 3.43357 38.774 4.22848 39.2744C5.61689 40.4854 6.97163 42.4135 7.23881 44.4005C7.28853 44.7673 6.77038 45.0895 6.58617 44.6801L6.49422 44.4765C5.95625 43.29 5.38746 42.1295 4.61918 41.0985C4.58518 41.1563 4.53891 41.2049 4.48354 41.2373C4.29892 46.1544 3.92509 51.0625 3.59083 55.9709C3.40806 56.6743 3.75255 61.1394 2.35173 60.0363L2.30874 60.0011C1.98879 59.3129 2.1813 58.4809 2.2467 57.7461L2.44356 55.3929C2.86874 50.5897 3.21684 45.7771 3.80428 40.9907L3.75816 40.9369C3.08257 40.1415 2.45137 39.0914 2.78405 38.0302C2.95458 37.3921 3.51998 37.0744 3.90249 36.5868C5.97777 25.4654 2.39245 8.24533 18.3499 7.70457L19.0179 7.6576C21.169 7.50257 23.3844 7.2817 25.3318 6.297C25.3684 5.60261 26.149 5.01425 26.5754 4.54772C27.8887 2.69375 29.6516 2.6008 30.2891 5.02607C31.9843 3.17401 32.6691 1.02354 31.8455 -1.41455ZM38.9899 52.4689C39.8162 51.6596 40.9234 53.1339 39.425 54.1753C39.1531 54.6815 38.4101 54.3245 38.5364 53.7946L38.5349 53.7054C38.5239 53.2443 38.4791 52.675 38.9899 52.4689ZM39.0779 41.6683C40.5866 41.1744 40.2107 43.9662 39.2153 44.3471C38.6139 44.6506 38.4077 43.8909 38.5176 43.4274C38.1269 42.8243 38.4847 42.0307 39.0779 41.6683ZM39.0536 33.6458C38.7752 32.4496 40.465 32.2505 40.4747 33.5C40.5293 34.0253 40.0577 34.3672 39.9385 34.824C39.9133 35.1212 39.5543 35.3306 39.3246 35.0824C38.9413 34.6679 38.8589 34.1056 39.0536 33.6458ZM38.8414 23.0169C39.0136 21.6166 40.5734 22.2069 40.0226 22.4401C40.0114 22.4523 39.9999 22.4642 39.9877 22.4763C40.6176 22.5384 40.5735 23.2901 40.5034 23.7709C40.2562 24.8474 38.6548 23.868 38.8414 23.0169ZM29.2487 18.5629C29.3769 19.0339 29.506 19.5047 29.6381 19.9746C29.9784 21.1852 30.3828 22.3635 30.8092 23.54C30.2875 21.8815 29.7675 20.2223 29.2487 18.5629ZM30.1109 5.22979C28.6175 2.68185 27.8116 5.55434 26.7285 6.68339C27.4937 12.2415 29.8093 17.4335 31.3853 22.7914C33.5812 19.9397 35.7794 17.0899 37.9758 14.2387C38.1072 14.0678 38.2338 13.8886 38.3649 13.7133C35.6077 12.0944 33.0079 10.1804 30.8195 7.80585C30.3986 7.89731 30.0758 7.32559 29.7737 7.08767L29.742 7.06118C29.4625 6.82191 29.2034 6.4444 29.3794 6.07222C29.356 6.02179 29.3915 5.97535 29.4397 5.96004C29.6583 5.71629 29.8901 5.48128 30.1109 5.22979ZM47.5287 10.5688C47.6745 8.75031 47.3793 6.14321 44.9725 6.55806C45.4011 7.15458 46.207 7.25094 46.6315 7.82366C46.7868 8.08589 46.5961 8.41069 46.3137 8.46046C44.4456 10.1794 42.6795 11.9403 40.7721 13.6327C42.8917 16.4207 44.9265 19.2616 46.9877 22.0927C47.13 18.2498 47.3803 14.4108 47.5287 10.5688Z" fill="black"/>
</g>
<defs>
<clipPath id="clip0_5_6">
<rect width="67" height="61" fill="white"/>
</clipPath>
</defs>
</svg>
