<svg width="68" height="59" viewBox="0 0 68 59" fill="none" xmlns="http://www.w3.org/2000/svg">
<g clip-path="url(#clip0_5_118)">
<path fill-rule="evenodd" clip-rule="evenodd" d="M84.5418 22.8075C85.3933 22.3772 86.2247 21.9096 87.043 21.4229C87.6193 21.0891 87.109 20.2483 86.5181 20.5521C86.2159 20.7075 85.9149 20.8645 85.6128 21.0189C85.8505 20.8206 86.0709 20.6047 86.2685 20.3695L86.2549 20.3563C87.0167 19.6954 86.0382 18.4485 85.1718 18.9914C84.4078 19.5276 83.6367 20.0748 82.7597 20.4279C80.9432 21.1737 78.9395 21.2971 76.9898 21.3187C76.2763 21.2668 75.5948 21.3865 74.9025 21.5199C75.1739 20.4655 75.8531 19.6694 76.2134 18.6483C76.4793 17.6174 74.9424 16.9151 74.3977 17.9061C74.264 18.1494 74.1366 18.3956 74.012 18.643C72.8347 19.6798 70.8688 19.5885 69.6815 20.7017C69.0052 21.2829 68.6742 22.0716 68.5435 22.863C68.4547 23.4005 68.5927 23.9393 68.2571 24.4154C66.6345 26.6375 64.0706 30.15 62.7686 32.5955C61.8467 26.7842 59.3851 19.5964 56.8421 14.2827C56.0011 12.5833 55.0391 10.9227 53.7762 9.48223C53.9193 9.00182 53.414 8.1491 53.0927 8.41163C52.1038 7.24181 50.3555 6.93898 48.9498 6.35742C47.0522 5.57176 45.4778 3.9387 44.7039 2.08261C43.7095 -1.45192 41.2616 -1.90089 37.8667 -1.74467C34.6176 -1.74862 32.2138 -0.403085 31.5048 2.79935C30.0646 5.22999 26.6641 4.82802 24.2177 5.47149C22.4248 5.86806 20.6848 6.48123 19.0312 7.25963C17.1916 5.57007 10.6031 12.6609 10.0043 14.4858C10.3568 14.552 10.7072 14.6316 11.0545 14.7286C11.3637 14.8152 11.2339 15.2675 10.9219 15.1951C10.5338 15.1048 10.1432 15.0427 9.75074 14.9996C9.73876 15.0359 9.72829 15.072 9.72048 15.1077C9.67642 15.1048 9.63244 15.1012 9.58838 15.0983C9.68606 15.1476 9.78008 15.2047 9.87169 15.2784C10.0931 15.4564 9.80485 15.8 9.56951 15.6582C9.34781 15.4975 9.05744 15.5229 8.7915 15.469C8.77571 15.9985 6.82441 15.4061 6.52132 15.2307C5.1742 15.0675 3.78835 15.2426 2.53077 14.6135C0.857451 14.2723 -0.828417 13.895 -2.48295 13.4605C-2.92095 13.6258 -3.33261 14.2175 -2.98472 14.6516C-2.78903 14.8492 -3.04058 15.1717 -3.28697 15.0313C-4.11337 14.5603 -4.75247 13.8251 -5.2943 13.0331C-5.54935 12.784 -6.00207 12.8376 -6.34473 12.7342C-6.39053 12.8139 -6.41755 12.9027 -6.41714 12.9938C-7.87066 13.2254 -6.83378 14.7626 -6.10307 15.2415C-6.49071 15.4859 -6.50542 15.9645 -6.4715 16.3641C-6.55363 16.5065 -6.58107 16.6829 -6.50958 16.8424C-6.23625 17.4523 -5.64511 17.9659 -5.19563 18.46C-4.69935 19.0057 -4.25685 19.5544 -3.65299 19.9967C-1.3513 21.6956 1.42631 22.6453 4.27582 23.0168C5.28759 23.1673 6.74294 23.3976 7.36941 24.2259C7.2157 25.2091 6.93347 26.1519 6.67743 27.1106C6.3194 28.3831 6.34375 29.7154 6.33901 31.0127C6.28897 30.9738 6.19287 30.9818 6.17857 31.056C6.09528 31.5938 6.03335 32.1437 5.69576 32.5955C5.39982 33.4359 5.20288 34.3321 5.09224 35.2149C4.64899 39.4001 4.54317 43.7086 5.54255 47.8286C5.92819 49.357 6.5554 50.8096 7.40997 52.1472C7.66477 52.5461 8.07443 52.663 8.44228 52.5846C9.67343 53.2039 11.2244 53.4024 12.5514 53.2451C17.0754 52.0051 15.4991 54.9911 21.8421 54.0767C32.7908 52.7262 43.8557 55.3801 54.7812 53.822C55.0503 55.8344 58.5728 55.2572 59.7964 54.4064C63.4652 51.7655 65.2869 43.4044 67.1282 39.1629C68.3938 35.8198 70.5131 29.8986 73.2886 27.6553C74.1208 27.025 75.1267 26.6932 76.1333 26.4254C79.8897 25.4881 83.6607 24.6018 87.4243 23.6905C88.0625 23.5384 87.9478 22.4844 87.2653 22.552C86.3595 22.6417 85.4507 22.723 84.5418 22.8075Z" fill="white"/>
<path fill-rule="evenodd" clip-rule="evenodd" d="M0.917973 22.1805C0.663597 22.15 0.414208 22.0623 0.166482 21.993C-0.211757 21.886 -0.582515 21.7612 -0.947454 21.6188C-1.70061 21.3267 -2.43132 20.9813 -3.1163 20.5587C-4.22276 19.8753 -5.20036 18.9996 -5.93772 17.9451L-5.98835 17.8716C-6.4093 17.2508 -7.1858 15.8722 -6.31513 15.4008C-6.87628 14.9468 -7.40665 14.1314 -7.37672 13.502C-7.33432 12.6118 -6.20709 12.6239 -5.62435 13.0014C-5.24278 13.2485 -4.95682 13.5946 -4.67002 13.9351C-4.35247 14.3134 -4.0133 14.674 -3.66083 15.0209C-3.56731 15.1126 -3.47285 15.2026 -3.37676 15.2911L-3.2801 15.3791C-3.29506 15.3445 -3.30836 15.3091 -3.32 15.2728C-3.51452 14.6861 -3.28259 13.9222 -2.67657 13.6534C-2.30572 13.4887 -1.92056 13.5892 -1.56119 13.729L-1.50611 13.7508C-1.0223 13.9447 -0.532663 14.1162 -0.0288976 14.2538C2.0244 14.8148 4.16748 14.9082 6.27149 15.1883C7.08201 15.297 7.90748 15.4337 8.71384 15.635C9.0214 14.3705 9.77539 13.1584 10.5934 12.1611C14.5104 7.39029 20.9704 5.81355 26.8801 4.79292C27.4188 4.70036 27.8652 5.39094 28.1786 5.22754C28.773 4.91846 29.2959 4.48058 29.7548 4.00488C30.7332 2.98989 31.4273 1.79621 32.2429 0.665305C32.646 0.106696 33.5738 0.606546 33.1997 1.20621L33.0164 1.49927C32.2619 2.69969 31.4263 3.9368 30.3442 4.86775C29.7689 5.36196 29.1305 5.75234 28.4006 5.99615C27.8478 6.18056 27.0722 6.33591 26.467 6.15713L26.3944 6.0547C26.4184 6.08895 26.4426 6.12306 26.467 6.15713C28.0465 8.37305 30.0282 10.2485 32.1165 12.0185C34.2243 13.8041 36.4981 15.4031 38.7857 16.9665L38.9763 17.0967C42.703 14.4648 45.8511 11.0318 48.0598 7.10947C47.5969 7.05548 47.1388 6.76821 46.7431 6.55402C46.2668 6.29492 45.8187 5.98575 45.4696 5.57364C44.709 4.67616 44.8079 3.5195 44.6707 2.43046C44.6624 2.36285 44.7547 2.34594 44.7971 2.37975C45.2094 2.71137 45.3541 3.25469 45.5261 3.72395C45.7157 4.2399 45.9301 4.66497 46.3649 5.02791C46.7697 5.36605 47.2635 5.61469 47.7432 5.83604C47.9906 5.94961 49.2185 6.24149 49.3584 6.48323C51.4799 6.00107 53.5465 6.83415 55.1184 8.23953C56.6372 9.59741 57.752 11.3626 58.7363 13.1052C59.7862 14.9646 60.6466 16.9027 61.3881 18.8949C62.1396 20.9169 62.7157 22.9831 63.0324 25.1113C63.2997 26.9055 63.4636 28.728 63.5697 30.5423L63.5827 30.769C65.1522 28.384 66.7607 26.024 68.4025 23.685C68.0293 22.7199 68.4424 21.7347 69.1416 20.9893C69.9163 20.1643 70.9879 19.7811 72.0129 19.3352L72.1476 19.2762C72.6416 19.058 73.134 18.8177 73.5607 18.4909C73.9714 18.1753 74.2731 17.7407 74.7054 17.4501C75.3339 17.0267 76.4744 17.1169 76.5035 18.0417C76.5185 18.5497 76.2932 19.1066 76.087 19.563C75.8534 20.079 75.5384 20.5466 75.1643 20.9764C75.147 20.9965 75.1281 21.0123 75.1089 21.0248L75.0945 21.0336C75.6115 21.1165 76.1328 21.1833 76.664 21.2066C77.7355 21.2541 78.8187 21.1777 79.8678 20.9587C80.9418 20.735 81.9826 20.3712 82.9486 19.864C83.774 19.431 84.5388 18.8708 85.4765 18.7388C85.563 18.7259 85.6503 18.7179 85.74 18.713C85.8897 18.705 86.0393 18.8756 85.9803 19.0188C85.9479 19.0978 85.9138 19.1759 85.8764 19.2547C85.5522 19.9461 85.0549 20.6169 84.4346 21.1259L84.3867 21.1648C84.6053 21.0915 84.8207 21.0094 85.0326 20.9169C86.2787 20.3736 87.4093 19.5525 88.7452 19.2225C88.8084 19.2064 88.8724 19.1919 88.9364 19.1783C89.3495 19.0921 89.5673 19.5268 89.3246 19.8246C89.2855 19.8729 89.2465 19.9204 89.2057 19.9679C88.6097 20.6842 87.9521 21.3491 87.2272 21.9463C86.9787 22.1508 86.7227 22.3488 86.4616 22.538C86.3516 22.6182 86.241 22.6966 86.1293 22.7738L86.0742 22.8116C86.2047 22.7223 86.3336 22.6314 86.4616 22.538C87.2796 22.2981 88.0859 22.0139 88.8748 21.6993C89.1882 21.5745 89.4318 21.8819 89.4651 22.1347C89.5765 22.9815 88.6055 23.5941 87.9737 24.0013C87.3403 24.4102 86.6428 24.7209 85.9287 24.9704C84.5558 25.4508 83.1137 25.669 81.674 25.8645L80.9746 25.9588C78.2067 26.3336 75.3157 26.7816 73.3296 28.867C72.2165 30.0357 71.4634 31.4877 70.7742 32.9165C70.0859 34.3436 69.4816 35.8086 68.908 37.2816C68.3136 38.806 67.7957 40.3587 67.2454 41.8985C66.7399 43.3123 66.1362 44.7081 65.5383 46.0897L65.444 46.3078C64.1746 49.2442 62.6583 52.0098 60.5451 54.4615C60.1968 54.8664 59.634 54.2918 59.9557 53.8908C62.1661 51.1316 63.7041 47.8758 64.9734 44.6279C65.5512 43.1502 66.035 41.6369 66.5903 40.151L66.9207 39.2683C67.362 38.0916 67.807 36.9165 68.2712 35.749C68.8589 34.2719 69.5048 32.8126 70.2439 31.4008L70.3223 31.2522C71.0458 29.8902 71.9054 28.5478 73.0885 27.5171C75.2181 25.6611 78.0518 25.2158 80.7916 24.8632L81.6536 24.7532C82.8119 24.6042 83.9735 24.4396 85.0999 24.1397C85.75 23.9675 86.3851 23.7469 86.982 23.4427C87.2197 23.3219 87.4517 23.1892 87.6761 23.0443C87.036 23.2262 86.3868 23.375 85.7259 23.4918C85.4025 23.5489 85.0825 23.5916 84.7633 23.6214C83.9411 23.7002 83.1256 23.697 82.2835 23.6544C82.212 23.6503 82.1888 23.5417 82.2653 23.528C82.8517 23.4271 83.4388 23.3008 84.0235 23.1638L84.1988 23.1223C84.2022 23.0282 84.2404 22.9283 84.3202 22.8334C84.6112 22.4905 85.164 22.315 85.5472 22.0727C85.9487 21.8191 86.3378 21.5456 86.7085 21.2525C87.0477 20.9845 87.3736 20.7011 87.687 20.405L87.7809 20.3156C87.7497 20.3455 87.7184 20.3754 87.687 20.405C86.8407 20.7834 86.0385 21.2686 85.1548 21.5681C84.4524 21.8071 83.7159 21.9681 82.9727 22.0252L82.9265 22.0288L82.8804 22.0317C82.1048 22.0856 81.3242 22.0639 80.5602 22.2265C80.4746 22.245 80.448 22.1339 80.5245 22.1025C81.192 21.8337 81.8862 21.7298 82.5878 21.6043C82.6027 21.5511 82.641 21.5036 82.7075 21.4731L82.887 21.3901C83.4216 21.1415 83.9198 20.8905 84.3642 20.487C84.7566 20.1305 85.0833 19.7136 85.3285 19.2515C84.3468 19.46 83.4847 20.1804 82.5919 20.5852C81.6193 21.0271 80.5902 21.3443 79.5328 21.5247L79.4123 21.5446C77.4362 21.8638 75.06 21.8231 73.2897 20.8283C73.2332 20.7961 73.2739 20.723 73.3321 20.7317C73.8342 20.8114 74.3313 20.9056 74.8285 20.9893C74.7312 20.9032 74.688 20.7486 74.8002 20.6247C75.2467 20.1293 75.5997 19.563 75.8255 18.9434L75.8686 18.8222C75.9726 18.5348 76.1482 18.0885 75.969 17.8292C75.7977 17.5821 75.3946 17.6159 75.1535 17.7206C74.6522 17.9395 74.3189 18.4861 73.8966 18.816C73.436 19.1766 72.9123 19.4439 72.3761 19.6829L72.2629 19.7327C71.3355 20.1367 70.3446 20.4767 69.6154 21.1897C69.223 21.5729 68.8855 22.0518 68.7725 22.5887C68.7209 22.835 68.7209 23.0885 68.7891 23.3324C68.8431 23.5232 68.9562 23.6408 68.8913 23.8347C68.8065 24.085 68.5064 24.3844 68.3518 24.6074C68.1723 24.865 67.9935 25.1233 67.8148 25.3817C67.4582 25.8985 67.1032 26.4168 66.7483 26.9344C66.0383 27.9711 65.3359 29.0127 64.6393 30.0574C64.4126 30.3976 64.1867 30.7382 63.9615 31.0791L63.6243 31.5908L63.4461 31.8606L63.1421 32.3232C63.1529 32.3659 63.1521 32.411 63.138 32.4504C63.0861 32.5933 62.9891 32.691 62.8685 32.7618L62.847 32.774C61.073 35.489 59.3273 38.2217 57.5641 40.9431C57.4702 41.7737 57.382 42.6052 57.3056 43.4366C57.1318 45.3185 57.0129 47.2053 56.9747 49.0944C56.9564 50.0088 57.0321 50.9288 57.0728 51.8423C57.0928 52.2784 57.12 52.7139 57.1557 53.1492L57.1819 53.4578C57.217 53.8819 57.237 54.3029 57.0795 54.7071C56.9398 55.062 56.5142 55.1417 56.2623 54.8713C52.9762 54.7433 49.6876 54.6459 46.399 54.5855C40.5126 54.476 34.6237 54.4929 28.7364 54.6032C25.7795 54.6588 22.8218 54.7368 19.8657 54.8334C18.4092 54.8801 16.952 54.9461 15.4947 54.9654C14.7096 54.9758 13.4739 54.699 13.4106 53.8437L13.409 53.8176C13.3109 53.8434 13.2095 53.8643 13.1056 53.8796C13.0593 53.8865 13.0149 53.8845 12.9738 53.8752L12.9534 53.87C11.7831 54.2154 10.3027 53.7225 9.19055 53.4353L9.09875 53.4119C8.03718 53.1439 7.18427 52.7607 6.48848 51.9091C5.27063 50.4177 4.85498 48.415 4.63884 46.5694C4.43601 44.8324 4.42437 43.0632 4.67126 41.3295C4.52578 39.9169 4.66793 38.4592 4.83336 37.0545C4.91483 36.3599 5.01043 35.666 5.12514 34.9754C5.18915 34.5899 5.27312 34.2083 5.35874 33.8276C5.39293 33.6755 5.42138 33.5117 5.46472 33.3534L5.48426 33.2859C5.35125 33.3028 5.20577 33.2746 5.06528 33.1999C4.7311 33.022 4.63384 32.6621 4.62802 32.3177C4.60973 31.2793 4.73775 30.2112 4.85081 29.1793C4.9647 28.149 5.12098 27.1147 5.32548 26.0973L5.3784 25.8349C5.53335 25.0739 5.71066 24.2882 6.02294 23.573C4.85 23.3799 3.68037 23.1747 2.54233 22.8253C1.98702 22.6538 1.44003 22.4406 0.917973 22.1805ZM62.1395 32.9865C62.1213 32.9906 62.1038 32.9954 62.0864 33.0002C61.6175 33.1274 61.1437 33.2352 60.6715 33.3512C59.8552 33.55 59.0571 33.7721 58.2981 34.1174C58.1391 36.0605 57.9034 37.9972 57.6794 39.935L57.6348 40.3226C57.9789 39.7043 58.3314 39.091 58.6996 38.4849C59.8211 36.6376 60.9683 34.8048 62.1395 32.9865ZM5.77022 33.1789C5.77272 33.4099 5.72285 33.6498 5.69624 33.8719C5.65302 34.2326 5.6181 34.5948 5.57404 34.9553C5.48426 35.6797 5.40779 36.4049 5.35209 37.1326C5.31634 37.5971 5.29307 38.0631 5.27228 38.5292C5.74364 36.8235 6.36794 35.155 6.96148 33.4839C6.86227 33.4738 6.76085 33.4503 6.65623 33.4234L6.48011 33.3775C6.37626 33.3516 6.03937 33.2714 5.77022 33.1789ZM63.6243 31.5908L63.6276 31.6673C63.6401 31.9385 63.4721 32.0915 63.2685 32.1309C63.3865 31.9506 63.5054 31.7703 63.6243 31.5908ZM9.68978 18.7348C10.1861 18.7774 10.6724 18.8797 11.1362 19.0568L11.181 19.0737C11.5241 19.2019 12.0257 19.363 12.1379 19.7176C12.1695 19.8182 12.0847 19.901 11.9875 19.9092C11.6151 19.9382 11.1761 19.5517 10.8312 19.4213C10.4471 19.2764 10.0447 19.1686 9.63741 19.1114C8.72215 18.9818 7.76783 19.0801 6.9066 19.4029C6.85589 19.4222 6.82431 19.344 6.87003 19.3207C7.7379 18.8635 8.70303 18.6503 9.68978 18.7348ZM-0.826917 21.0368C-0.884309 20.9877 -0.941669 20.9362 -0.998197 20.8847C-1.44389 20.4765 -1.83857 20 -2.1308 19.4765L-2.20771 19.3348C-2.44572 18.8886 -2.73799 18.2529 -2.17864 17.9314C-1.84446 17.7391 -1.44211 17.7874 -1.06969 17.9041C-1.04558 17.9113 -1.02147 17.9194 -0.997366 17.9274C-0.831106 17.9838 -0.670666 18.0514 -0.527683 18.1158C0.0932947 18.3918 0.641119 18.7935 1.21471 19.1477C1.83622 19.5317 2.44991 19.7772 3.16721 19.9209L3.23476 19.9341C3.90811 20.0629 4.63799 20.1457 5.10767 20.6818C5.22571 20.8171 5.11765 21.0706 4.91398 21.0038C3.61549 20.5797 2.24136 20.4862 1.04928 19.79C0.555495 19.5018 0.0883066 19.1711 -0.41629 18.8981C-0.683967 18.7531 -0.960334 18.6264 -1.25485 18.5394L-1.41575 18.4935C-1.50999 18.4669 -1.6225 18.4406 -1.69815 18.4668C-1.84215 18.5151 -1.79619 18.5897 -1.75164 18.7199L-1.74719 18.7331C-1.39722 19.7812 -0.399663 20.6585 0.524737 21.2388C0.736718 21.3724 0.953686 21.4949 1.17481 21.6084C2.6716 22.3808 4.34639 22.7404 5.99129 23.1671C6.62534 23.3385 7.04739 23.4564 7.25743 23.5208C7.60823 23.4925 8.00809 23.6125 8.27244 23.7558C8.52931 23.895 8.7363 24.0818 8.89259 24.3016C8.89259 24.3016 9.04305 24.4231 9.07048 24.6114C9.14946 24.7861 9.20266 24.9744 9.22926 25.1709C9.24422 25.286 9.2143 25.3744 9.15777 25.4372C9.3278 27.964 8.6229 30.4767 7.82819 32.8781L7.74945 33.1149L7.69884 33.265C6.84178 35.8109 5.85836 38.3384 5.41943 40.9929C5.12598 42.7662 5.13513 44.6013 5.35043 46.3826L5.36561 46.5055C5.57775 48.1896 5.98592 50.0789 7.092 51.4343C7.65617 52.126 8.32458 52.4334 9.17914 52.6562L9.22593 52.6683C9.99904 52.8654 10.7971 53.1448 11.5943 53.2293C12.3342 53.3073 12.9543 53.0409 13.6202 52.7913L13.621 52.7906C15.0234 51.5888 15.6602 49.839 16.1307 48.0729C17.3502 43.5027 17.1989 38.7586 16.5072 34.1215C16.1465 31.6987 15.656 29.2968 15.1672 26.8958C14.9228 25.6956 14.6593 24.4979 14.4406 23.2938L14.3108 22.5851C14.2391 22.1914 14.1698 21.7974 14.1106 21.4014C14.0308 20.8694 14.0067 20.3462 13.9793 19.8109C13.3076 18.7332 12.3325 17.8453 11.2027 17.2087C10.3939 16.7523 9.53766 16.4359 8.654 16.2065C6.12768 15.5473 3.3736 15.594 0.831493 15.0869C-0.0225003 14.9168 -0.833141 14.6641 -1.64335 14.3614L-1.75384 14.3198C-2.12543 14.1798 -2.5045 14.1017 -2.68904 14.5259C-2.82039 14.8277 -2.74225 15.1416 -2.54523 15.3952C-2.06225 16.0166 -1.09129 16.3047 -0.360584 16.5285C0.0791711 16.6637 0.528071 16.7708 0.981958 16.8505C1.43585 16.9302 1.8914 16.9503 2.32699 17.1056C2.49492 17.1652 2.52817 17.4236 2.32699 17.4694C1.77501 17.5942 1.21971 17.4872 0.671053 17.3833C0.0683639 17.2681 -0.525181 17.1048 -1.1021 16.898C-1.20851 16.86 -1.31864 16.8199 -1.43079 16.7773L-1.51525 16.745C-1.42797 16.8062 -1.34068 16.8666 -1.25257 16.927C-1.22929 16.943 -1.24342 16.9857 -1.27418 16.9752C-2.63069 16.4852 -3.86495 15.6011 -4.82113 14.555L-4.8687 14.5026C-5.20538 14.129 -5.97266 12.9989 -6.61941 13.3137C-7.22672 13.6088 -6.19147 14.7467 -5.79804 15.2119L-5.75235 15.2664C-5.30511 15.2777 -4.87201 15.5473 -4.50957 15.7646C-3.88027 16.1422 -3.22272 16.4674 -2.55269 16.7715C-1.22096 17.3776 0.193075 17.8051 1.51068 18.4417C1.52814 18.4507 1.51484 18.4723 1.49821 18.47C0.659432 18.3403 -0.170201 18.1335 -0.980714 17.8768L-1.01688 17.8658L-1.05304 17.8541C-1.5593 17.6932 -2.05891 17.5113 -2.5502 17.3173C-3.09636 17.1016 -3.63005 16.8594 -4.14795 16.5849C-4.6168 16.337 -5.13719 15.8902 -5.68086 15.8242C-5.73905 15.817 -5.79059 15.8161 -5.83548 15.8202C-6.45978 15.8709 -5.94354 16.8722 -5.76897 17.1716C-5.48384 17.6634 -5.13968 18.1174 -4.74481 18.5319C-3.94428 19.3739 -2.97415 20.0411 -1.92423 20.5603C-1.56594 20.7374 -1.19934 20.8935 -0.826917 21.0368Z" fill="black"/>
</g>
<defs>
<clipPath id="clip0_5_118">
<rect width="68" height="59" fill="white"/>
</clipPath>
</defs>
</svg>
