<svg width="68" height="62" viewBox="0 0 68 62" fill="none" xmlns="http://www.w3.org/2000/svg">
<g clip-path="url(#clip0_5_38)">
<path fill-rule="evenodd" clip-rule="evenodd" d="M47.9354 7.96311C45.877 6.01591 46.5379 4.13772 45.8499 1.76506C44.5199 -1.17059 41.776 -4.06184 38.5989 -4.6881C37.0125 -5.63341 34.9388 -5.09757 33.8549 -3.61524C32.8368 -3.34076 32.8031 -1.90842 32.4628 -1.06106C31.8337 0.603215 31.3528 2.29887 30.9585 4.02785C18.7038 6.62373 9.30445 15.1136 7.34484 27.9902C7.00983 29.8615 6.73566 31.7452 6.47813 33.629C6.32725 35.2518 5.52837 37.8271 7.1706 38.8772C7.21757 40.0413 7.3549 41.2169 7.7905 42.3128C7.95775 43.4048 8.09292 44.5039 8.44639 45.5566C9.22565 47.3792 9.34577 49.3785 10.2209 51.1954C10.8324 52.5357 11.7301 53.6117 12.8403 54.549C13.3093 54.9671 13.9535 55.4209 14.052 56.0752C14.0226 57.0614 14.758 58.4869 15.9196 58.0238C16.744 58.3392 17.6293 58.4212 18.5026 58.4148C33.3014 57.7638 48.1312 57.7088 62.9305 58.4366C63.4495 58.4612 63.9423 57.9547 63.9207 57.429C63.6848 51.697 63.1022 45.9815 62.1855 40.3208C60.1402 28.5989 57.9552 15.4878 47.9354 7.96311Z" fill="white"/>
<path fill-rule="evenodd" clip-rule="evenodd" d="M32.1027 2.1394L32.1581 1.98414C32.4932 1.04188 32.9038 0.971675 32.7059 1.88518L32.676 2.02281C32.5046 2.8044 32.2996 3.61209 31.8797 4.29582C31.1556 5.47501 29.2585 5.91222 27.9934 6.33167C27.9975 6.36136 27.9975 6.39105 27.9941 6.41896C28.7672 6.53907 29.5611 6.91792 30.2087 7.34262C30.8014 7.73247 31.3368 8.16977 31.7358 8.75086L33.6878 7.8881C34.332 7.6039 34.9812 7.26556 35.6811 7.15138C36.6679 6.99067 38.1891 7.52862 38.0728 8.79493C38.0578 8.9657 37.9522 9.09258 37.8226 9.15517C37.9215 9.14679 38.0213 9.14409 38.1201 9.14756C38.7802 9.17039 39.7129 9.76502 39.368 10.5491C39.2798 10.7512 39.0255 10.6185 39.0055 10.4493C38.875 9.33711 37.7452 9.59847 36.9614 9.78024C36.2522 9.94434 35.5515 10.1456 34.8657 10.3917C34.1324 10.6548 33.4233 10.9898 32.7691 11.4203C32.0942 11.8652 31.4632 12.4049 31.5048 13.293C31.5064 13.3116 31.4773 13.3209 31.4689 13.3031C31.1206 12.547 31.799 11.7494 32.3502 11.3137C33.1482 10.6837 34.0826 10.2302 35.0269 9.87667C35.5124 9.69524 36.013 9.55246 36.5154 9.42599L36.6314 9.39708C36.9265 9.32434 37.2323 9.2406 37.5399 9.18985C37.4263 9.16153 37.327 9.07757 37.2829 8.92583L37.2772 8.90472C36.8333 7.11585 34.4541 8.55471 33.4907 8.98685C32.8015 9.29558 32.1041 9.59162 31.4225 9.91896L31.3346 9.96155C30.8062 10.2196 30.2555 10.5244 29.9003 11.0101C28.9892 12.2535 29.8072 13.9325 30.0948 15.2452C30.1771 15.6216 30.2561 16.0208 30.2611 16.4075C30.2651 16.7239 30.1697 17.0223 30.0925 17.3268L30.0475 17.5061C30.0873 17.5071 30.1281 17.5494 30.1148 17.5924C29.7915 18.6666 29.2444 19.6851 28.7115 20.6646C28.1679 21.6643 27.6084 22.6591 27.0082 23.6241C24.8734 27.0565 22.4294 30.2969 19.7485 33.3056C18.4633 34.7478 17.0734 36.0935 15.819 37.5643C15.2354 38.2486 14.6893 38.9659 14.2337 39.7475C13.9876 40.1696 13.7665 40.6077 13.5803 41.0619L13.5435 41.1518C13.3909 41.523 13.2408 41.8503 12.9568 42.1471C12.8156 42.2951 12.5329 42.2325 12.488 42.0211C12.2793 41.0264 12.971 39.9522 13.4731 39.1402C14.0151 38.2639 14.6485 37.4468 15.3219 36.6712C15.5122 36.4512 15.7059 36.2348 15.9021 36.0206C15.0243 36.266 14.0999 36.331 13.2054 36.4918C12.2893 36.6559 11.379 36.8513 10.4913 37.1355C9.67569 37.396 8.89926 37.7403 8.157 38.1717C7.80112 38.3789 7.45289 38.6064 7.12702 38.861C7.09618 38.8847 7.06626 38.9101 7.03633 38.9347C7.56836 40.2948 7.97736 41.7056 8.40464 43.1005C8.69636 44.054 8.9815 45.0101 9.26478 45.9668L9.90098 48.1197C10.3599 49.6717 10.7422 51.36 11.5512 52.7718C11.9003 53.3807 12.3724 53.9313 12.9128 54.3729C13.1747 54.5877 13.4598 54.751 13.7557 54.9091C13.9419 55.009 14.1065 55.1384 14.2794 55.2567C14.3932 55.1247 14.5659 55.0429 14.7778 55.0774L14.8015 55.0817C15.4707 55.2153 16.1607 54.9743 16.7558 54.6765C17.376 54.3653 17.9937 53.9999 18.5182 53.5398C19.5498 52.6338 20.4052 51.5046 21.2391 50.4152C24.2117 46.5277 26.7431 42.2698 28.8063 37.8156C29.8546 35.5504 30.8331 33.2472 31.7524 30.9244C32.2122 29.7641 32.6652 28.6011 33.1066 27.4329L33.1649 27.2767C33.5603 26.2049 33.9066 25.0413 34.5422 24.0961C34.5472 24.0875 34.554 24.0808 34.5614 24.0759C34.563 24.0487 34.5714 24.0233 34.5847 24.0013C34.7817 23.6808 35.1591 23.5868 35.4859 23.438C35.854 23.2696 36.2215 23.1022 36.5889 22.9348C36.8783 22.8028 37.3021 22.6911 37.5191 22.4408C37.7652 22.1592 37.8476 21.6575 37.9672 21.309C38.2383 20.5216 38.5316 19.7434 38.8251 18.9644C39.0828 18.2801 39.3057 17.5459 39.6672 16.9082C39.9759 16.3642 40.417 16.0773 40.9269 15.764L41.0376 15.696C41.2507 15.5638 41.478 15.4055 41.5625 15.1581C41.7005 14.7538 41.3938 14.3671 41.0679 14.1744C40.3439 13.7471 39.4768 14.2403 38.8418 14.6168C38.2033 14.9957 37.5807 15.4507 36.8981 15.7443C36.8832 15.7502 36.8724 15.7273 36.8832 15.7172C37.4318 15.2058 38.1024 14.7845 38.7325 14.3687L38.8891 14.2649C39.3072 13.9865 39.7837 13.7151 40.2873 13.6398C40.1827 13.6043 40.215 13.4664 40.3148 13.4538C41.3057 13.331 42.3116 13.4884 43.2926 13.2533C44.1678 13.0435 44.9318 12.5402 45.5436 11.8779C46.1205 11.2537 46.5777 10.5313 47.0042 9.79555C47.252 9.36747 47.4939 8.9361 47.7449 8.50971C47.7823 8.44551 47.8198 8.37446 47.858 8.29825C47.409 8.19252 46.9518 7.85258 46.6467 7.58867C46.1729 7.17929 45.8271 6.62611 45.5861 6.04925C45.0208 4.69506 45.0656 3.14633 45.4888 1.76084C45.5145 1.67626 45.6376 1.67203 45.6617 1.76084C45.9867 2.94756 46.0158 4.23416 46.5262 5.36581C46.7307 5.81918 47.0159 6.22687 47.3666 6.57367C47.5445 6.74876 47.7241 6.89585 47.9419 7.01773C48.1755 7.14884 48.4249 7.19189 48.6103 7.40005C48.6211 7.41189 48.631 7.42374 48.6402 7.43642C48.7488 7.4215 48.8423 7.43738 48.9171 7.48495L48.9328 7.49563L48.9361 7.49064C48.6011 7.25804 48.2644 7.02788 47.9078 6.82488C47.8131 6.77075 47.8821 6.64133 47.9768 6.65825L48.2115 6.70047C48.9954 6.84259 49.7941 7.0042 50.5098 7.35861C51.3037 7.75277 52.0618 8.20783 52.785 8.72294C54.2099 9.73618 55.5067 10.9331 56.6414 12.2721C58.7346 14.7428 60.2143 17.7134 61.1296 20.8277C62.2734 24.7195 62.7157 28.8074 63.1988 32.8276C63.4296 34.7521 63.6367 36.6801 63.8208 38.6103L63.8704 39.1368C63.9626 40.1298 64.0624 41.1211 64.1563 42.1116C64.3226 42.3772 64.3343 42.6927 64.2361 42.9668C64.3085 43.7694 64.3734 44.573 64.4249 45.3791C64.5563 47.459 64.641 49.5457 64.6776 51.6307C64.7141 53.7453 64.6385 55.8565 64.6144 57.9711C64.6045 58.861 63.2793 58.8575 63.2585 57.9711C63.2054 55.6349 63.0407 53.2978 62.9235 50.9633C62.8088 48.6846 62.7024 46.4069 62.5653 44.1299C62.5519 43.9132 62.5395 43.6959 62.5278 43.4793C62.3345 43.5543 62.0951 43.5853 61.892 43.6262L61.842 43.6367C61.4336 43.725 61.0244 43.7885 60.6095 43.8272L60.4751 43.8387C60.0987 43.8652 58.1693 43.9073 57.0288 43.6959C57.1194 45.1854 57.2109 46.6749 57.3114 48.1636C57.4262 49.8612 57.4478 51.5613 57.5318 53.2606C57.5741 54.1098 57.6248 54.9531 57.7312 55.7973C57.7798 56.1815 57.8294 56.5663 57.8887 56.9492L57.9192 57.1405C57.9724 57.4695 58.0388 57.7512 57.9017 58.0447C58.0214 58.4211 57.8352 58.8956 57.3448 58.8575C54.2007 58.6181 51.0493 58.5166 47.897 58.5024C42.4547 58.4761 37.0156 58.6979 31.5757 58.8502L30.1055 58.8906C25.01 59.0325 19.8893 59.1839 14.8173 58.6105C14.8065 59.2711 13.5928 59.2636 13.6576 58.5268L13.6735 58.3492C13.7465 57.5475 13.8412 56.7171 14.0857 55.9453C13.8829 55.9512 13.6792 55.9428 13.488 55.8785C13.2163 55.7881 12.9552 55.6239 12.7191 55.4615C12.1937 55.1011 11.7498 54.6571 11.3666 54.1445C10.6142 53.1388 10.1146 51.9471 9.71975 50.7569C9.29991 49.4885 8.91576 48.2054 8.55685 46.9179L8.17058 45.5236C7.68024 43.7502 7.19876 41.9499 6.90665 40.1298C6.87514 40.1721 6.83183 40.2085 6.77455 40.2347C5.21164 40.9452 3.87491 39.4878 3.61056 38.0144C3.45493 37.1454 3.49127 36.2561 3.50451 35.3765L3.50582 35.2823C3.51912 34.2691 3.52327 33.2557 3.57407 32.2432C3.7419 28.8581 4.5175 25.5781 5.72371 22.4247C6.8601 19.4566 8.2334 16.4649 10.0025 13.8284C10.8428 12.5766 11.8121 11.3738 12.9801 10.4222C14.2121 9.41992 15.5971 8.65773 17.0477 8.03697C18.5299 7.40259 20.0669 6.90101 21.6057 6.42734C23.3032 5.90469 25.0207 5.45547 26.7672 5.13997C26.8943 5.11713 27.019 5.1552 27.0898 5.27361C27.1512 5.37765 27.2086 5.48423 27.2643 5.59249C27.5028 5.44024 27.8694 5.40303 28.1081 5.32859C28.857 5.0926 30.2045 4.95135 30.7982 4.41339C31.475 3.80047 31.8003 2.98326 32.1027 2.1394ZM6.77281 39.1706C6.66732 39.2687 6.56166 39.3668 6.45284 39.459C6.59491 39.3981 6.72376 39.4387 6.81853 39.5284C6.80199 39.4091 6.78694 39.2899 6.77281 39.1706ZM41.1319 16.295C40.9707 16.3964 40.811 16.4979 40.6656 16.6197C40.143 17.0595 39.9663 17.7774 39.7486 18.4035L39.7346 18.4433C39.4668 19.2012 39.1967 19.9608 38.9132 20.7127C38.8243 20.9487 38.7412 21.2016 38.6522 21.4562C39.8509 22.6285 41.0763 23.7882 42.3589 24.8649C44.7065 26.8349 47.2644 28.546 49.9827 29.94C51.3802 30.6572 52.8233 31.3102 54.308 31.8169C54.8442 31.9996 55.3903 32.1603 55.9449 32.2796L55.9457 32.271C55.9481 32.2508 55.9806 32.2415 55.9839 32.266L55.9873 32.2889C56.2249 32.3388 56.4644 32.3811 56.7047 32.4141C57.1601 32.4758 57.6207 32.5036 58.0804 32.4996C58.3655 32.4969 58.6482 32.4613 58.9291 32.4758C57.6848 31.3348 56.4336 30.2022 55.1792 29.0747C52.8017 26.9364 50.4109 24.815 48.0159 22.6971C46.9526 21.7565 45.8774 20.8273 44.8185 19.8803L43.7988 18.9639C42.8977 18.153 42.0021 17.3292 41.2215 16.4024L41.1319 16.295ZM30.5055 22.5812C30.4331 22.4907 30.543 22.3757 30.6319 22.4526C31.1631 22.9101 31.7632 23.1107 32.4008 23.3568C32.5496 23.4143 32.5381 23.6554 32.3618 23.6529C31.6211 23.6393 30.9535 23.1521 30.5055 22.5812ZM37.9473 11.3145L38.0004 11.293C38.7494 10.9941 39.7212 10.8455 40.3107 11.5388C40.7379 12.0421 40.8468 12.9945 40.2899 13.4335C40.156 13.5392 39.8725 13.4487 39.9574 13.2364C40.2017 12.6299 40.2533 11.8356 39.4843 11.6022C38.8174 11.3996 38.0372 11.7948 37.4298 12.0698L37.256 12.1478C36.0714 12.6829 34.8949 13.3313 34.169 14.4645C34.1499 14.4932 34.0991 14.4747 34.1117 14.4399C34.691 12.8075 36.4651 11.9286 37.9473 11.3145ZM29.1713 7.81874L28.8833 7.70793C28.151 7.42974 27.239 7.14725 26.7847 7.94816C26.6144 8.24751 26.4679 8.61806 26.4046 8.96284L26.3965 9.00968C26.379 9.11618 26.3565 9.23045 26.4314 9.31249C26.5468 9.44106 26.9226 9.50357 27.0739 9.55948L28.0253 9.91097L28.5004 10.0873C28.7165 10.1676 28.9958 10.248 29.1555 10.4248C29.7141 9.67874 30.6027 9.25413 31.4415 8.88112C30.6859 8.52333 29.9536 8.11825 29.1713 7.81874Z" fill="black"/>
</g>
<defs>
<clipPath id="clip0_5_38">
<rect width="68" height="62" fill="white"/>
</clipPath>
</defs>
</svg>
