<svg width="68" height="61" viewBox="0 0 68 61" fill="none" xmlns="http://www.w3.org/2000/svg">
<g clip-path="url(#clip0_5_22)">
<path fill-rule="evenodd" clip-rule="evenodd" d="M63.6411 53.7171C63.4395 51.842 63.3152 49.9539 63.2439 48.0694C63.1726 46.1871 63.2658 44.2817 63.3067 42.3987C63.3901 38.5682 63.5256 34.7286 63.2209 30.9039C62.933 27.2892 62.2721 23.6998 61.229 20.2267C60.7211 18.5353 60.1858 16.7758 59.3505 15.2129C58.5105 13.6416 57.1799 12.5952 55.7183 11.6355C54.1622 10.6139 52.6186 9.57287 51.0685 8.54169C49.7674 7.67612 47.4259 6.66871 46.3583 5.51154C45.235 4.29395 45.0238 1.27581 44.2758 -0.166553C43.5472 -1.57147 41.4849 -2.48793 39.897 -2.48793C37.2687 -2.48793 35.2772 -2.62239 33.116 -0.188465C32.0378 1.02596 32.8957 2.25364 31.7655 3.41921C30.7263 4.49083 28.0689 5.59214 26.7296 6.21396C25.1255 6.95869 23.481 7.61621 21.8126 8.20191C20.1107 8.79942 18.3658 9.24473 16.6544 9.80863C15.0139 10.3491 12.8718 12.577 11.5982 13.7558C10.4142 14.8518 10.1204 14.7291 9.22026 16.0605C7.24477 18.9824 5.26712 21.9379 3.69397 25.1015C2.91039 26.6773 2.15167 28.335 1.86737 30.0851C1.56411 31.9517 1.86479 33.7556 2.35659 35.5629C2.85719 37.4021 4.44688 39.1532 4.96478 40.9878C5.20344 41.8332 4.3842 42.7559 4.76103 43.5526C4.94923 43.9505 5.18623 44.3048 5.45607 44.6514C5.66398 44.9186 6.47477 44.8594 6.57968 45.1864C6.68567 45.5166 6.09908 46.2018 6.09035 46.5436C6.07796 47.0327 6.05851 47.5218 6.04247 48.0109L5.9477 50.9023C5.88544 52.8024 5.82317 54.7025 5.76091 56.6026C5.74054 57.2229 5.71086 57.8289 5.85942 58.4174C5.8058 58.3676 5.75484 58.3134 5.70829 58.2526C5.57204 58.0745 5.28308 58.2255 5.39871 58.4338C5.59174 58.7814 5.86931 59.0261 6.19543 59.2018C6.57441 59.7611 63.9691 61.0104 64.2515 59.3752C64.4099 58.4577 64.1215 57.4754 64.0062 56.5638C63.8862 55.6144 63.7435 54.669 63.6411 53.7171Z" fill="white"/>
<path fill-rule="evenodd" clip-rule="evenodd" d="M5.33929 30.0882C5.47969 29.6856 6.12195 29.8598 5.98055 30.2651C5.25366 32.3494 5.76932 34.6176 6.55514 36.6073C6.71284 37.0065 6.06941 37.178 5.91388 36.7842C5.08724 34.6912 4.57582 32.2771 5.33929 30.0882ZM10.2131 41.9938C12.2631 42.2825 14.3147 42.4605 16.3788 42.6045C16.4711 42.6112 16.5509 42.5971 16.6199 42.5671C16.5584 43.5133 16.5085 44.4603 16.4694 45.4074C15.9066 45.3916 15.3322 45.429 14.7744 45.414C14.0454 45.394 13.3171 45.3574 12.5898 45.3017C11.1815 45.1951 9.77583 45.0254 8.38341 44.7907C7.86302 44.7033 7.20214 44.6501 6.60942 44.477C6.04913 44.3131 5.55035 44.0417 5.28849 43.5307C5.06571 43.098 5.02497 42.568 5.02497 42.0895C5.02497 41.7598 5.0815 41.4253 5.11559 41.0932C5.15798 41.0634 5.19622 41.0275 5.22698 40.9876C5.84546 41.1831 6.48722 41.3205 7.11568 41.4536C8.13901 41.6716 9.1773 41.8481 10.2131 41.9938ZM9.05692 34.299C9.06823 34.9351 9.24405 35.5129 9.58613 36.0484C9.81756 36.4108 9.24172 36.7443 9.01187 36.3844C8.60919 35.7539 8.40519 35.0461 8.39189 34.299C8.38424 33.8697 9.04928 33.8711 9.05692 34.299ZM61.6055 41.238C61.883 41.2536 62.1623 41.2631 62.4407 41.2779C62.6863 41.4881 63.0263 41.5959 63.3368 41.529C63.3475 41.5559 63.3572 41.5861 63.3661 41.6209C63.421 41.8347 63.4484 42.0644 63.48 42.2825C63.5116 42.4972 63.5357 42.7136 63.5524 42.93C63.5607 43.0389 63.613 43.2853 63.5465 43.3802C63.4867 43.4658 63.3545 43.4583 63.2631 43.4692C63.017 43.4958 62.7676 43.5084 62.5199 43.5292C62.0519 43.5699 61.5838 43.6106 61.1167 43.6514C60.6586 43.6914 60.1557 43.679 59.7076 43.7996C59.6311 42.8999 59.5613 42.0004 59.4965 41.0999C60.1906 41.2023 60.9163 41.1998 61.6055 41.238ZM3.40478 39.746C3.68409 40.286 3.9418 40.817 4.47632 41.1415C4.54615 41.1831 4.62429 41.2056 4.70409 41.2114C4.64424 41.4686 4.60683 41.7315 4.57358 41.9745C4.50043 42.5097 4.48463 43.0631 4.61847 43.5907C4.74898 44.1041 4.96512 44.5628 5.38908 44.8915C5.5861 45.0446 5.8014 45.161 6.02752 45.2534C5.98928 45.3608 5.96683 45.4674 5.97847 45.5847C5.92444 45.8567 5.88869 46.1339 5.84962 46.3993C5.764 46.9885 5.67837 47.5786 5.61104 48.1711C5.47637 49.3495 5.37079 50.5279 5.28184 51.7104C5.1929 52.8896 5.12889 54.0706 5.07568 55.2523C5.04825 55.8565 5.02414 56.4606 5.0017 57.0656C4.97925 57.6873 4.87867 58.323 5.15299 58.8998C5.37412 59.3659 6.12145 59.3392 6.35089 58.8998C6.64184 58.3414 6.55622 57.6781 6.5637 57.0656C6.57118 56.4889 6.58116 55.9114 6.59363 55.3346C6.61857 54.1538 6.65514 52.9737 6.68424 51.7929C6.7125 50.6403 6.74742 49.4884 6.77069 48.3359C6.78233 47.7325 6.78316 47.1292 6.78649 46.5258C6.78815 46.1913 6.80228 45.8344 6.77734 45.4856C6.98517 45.5347 7.19466 45.5763 7.40165 45.6187C8.98194 45.9433 10.5789 46.1796 12.1858 46.3261C12.9929 46.3993 13.8026 46.4509 14.6123 46.4801C15.2075 46.5017 15.8243 46.5433 16.4287 46.5209C16.3813 47.9655 16.3597 49.4111 16.3622 50.8567C16.3638 51.8993 16.378 52.9421 16.4038 53.9848C16.4179 54.5332 16.4295 55.0816 16.4461 55.6301C16.4536 55.8765 16.4536 56.1252 16.4703 56.3707C16.4752 56.4473 16.486 56.5214 16.5002 56.5947C16.4453 56.7503 16.3996 56.9041 16.3622 57.0482C16.1793 57.7472 16.1793 58.4188 16.2608 59.1311C16.3306 59.7353 16.8385 60.2953 17.5094 60.0832C17.6183 60.049 17.7272 60.0132 17.8352 59.9766C18.8228 60.089 19.8162 60.1148 20.8179 60.1339C22.2818 60.1623 23.7466 60.1713 25.2113 60.1788C28.0843 60.1939 30.9581 60.2014 33.8319 60.2096C39.6069 60.2263 45.3819 60.2421 51.1569 60.2587C52.7596 60.2638 54.3624 60.2679 55.9651 60.273C56.7947 60.2754 57.6227 60.2762 58.4515 60.3079C58.8381 60.3229 59.2255 60.3437 59.612 60.3495C60.0601 60.357 60.4566 60.2279 60.8847 60.1107C61.1266 60.0432 61.2222 59.8002 61.1707 59.5947C61.5581 59.687 62.0278 59.4907 62.1599 59.0538C62.2564 58.7366 62.2206 58.3929 62.0768 58.0992V58.0983C61.7992 56.3432 61.4467 54.5965 61.1699 52.8405C60.8664 50.9173 60.5746 48.99 60.3178 47.0593C60.1249 45.6013 59.9661 46.6348 59.829 45.1702C60.4267 45.2168 61.1025 45.0346 61.6944 44.9571C62.1192 44.9023 62.5473 44.8581 62.9729 44.7998C62.9413 45.2293 62.9505 45.667 62.9389 46.0789C62.9164 46.897 62.9264 47.7117 62.9472 48.5298C62.9871 50.1084 63.076 49.1897 63.2182 50.7617C63.362 52.3454 63.5382 53.9232 63.7519 55.4995C63.8616 56.3109 63.9788 57.1213 64.1027 57.9311C64.16 58.3089 64.2191 58.686 64.2797 59.0638C64.3521 59.5089 64.3753 59.9309 64.7087 60.2654C64.9622 60.5192 65.4801 60.4976 65.648 60.1439C65.8609 59.697 65.7644 59.3142 65.6855 58.8449C65.6214 58.4678 65.5599 58.0909 65.4992 57.714C65.3696 56.9058 65.2465 56.0969 65.131 55.2873C64.9082 53.7269 64.6979 52.164 64.51 50.5995C64.3205 49.0224 64.1243 49.9437 63.9381 48.3667C63.8441 47.5711 63.7502 46.7771 63.6405 45.9841C63.5848 45.5763 63.5499 45.142 63.4767 44.7216C63.5 44.7184 63.5233 44.7141 63.5465 44.71C64.052 44.6176 64.4834 44.3322 64.6106 43.8112C64.732 43.3127 64.5873 42.7393 64.4851 42.2501C64.3978 41.8333 64.3189 41.3013 64.0509 40.9442C64.9952 39.74 65.6095 38.2247 66.0013 36.768C66.4281 35.1809 66.6067 33.5243 66.6445 31.8842C66.6884 29.9841 66.5454 28.095 66.2201 26.2372C66.2124 25.8435 66.1943 25.45 66.1651 25.0568C65.8791 21.1988 64.6788 16.6326 60.8731 14.83C60.8581 14.8226 60.8423 14.8158 60.8265 14.8092C60.5281 14.4521 60.1557 14.1309 59.8547 13.8306C59.3219 13.2979 58.7649 12.7886 58.1747 12.3192C57.0059 11.3897 55.724 10.6474 54.3915 9.97908C53.0439 9.30251 51.6765 8.66763 50.3597 7.92939C49.2125 7.28527 48.18 6.50966 47.1999 5.63419C46.0985 4.6497 45.3146 3.32235 45.007 1.87349C44.9912 1.79784 44.879 1.81865 44.8773 1.89097C44.7967 4.54651 46.5873 6.8933 48.648 8.37794C51.112 10.1514 54.0872 10.991 56.5861 12.7104C57.2071 13.1374 57.7881 13.6192 58.341 14.1309C57.4939 14.0444 56.6318 14.0993 55.8379 14.334C55.5254 14.3148 55.2111 14.3091 54.8977 14.294C54.1812 14.2582 53.4637 14.225 52.7463 14.1933C51.2841 14.1285 49.821 14.0694 48.3579 14.0178C45.4875 13.9162 42.6162 13.8396 39.7449 13.789C33.9748 13.6865 28.1973 13.6665 22.4282 13.8339C20.8637 13.8788 12.6371 13.5668 11.8757 13.6549C12.9954 12.6846 14.2241 11.8924 15.5749 11.2407C17.265 10.4276 19.0115 9.88505 20.8163 9.38906C24.533 8.36795 28.3927 7.38346 31.3671 4.78951C32.1061 4.14456 32.7628 3.40315 33.3007 2.58177C33.8144 1.79784 34.3855 0.794133 34.3996 -0.162061C34.4096 -0.84105 33.4653 -1.0883 33.1294 -0.506591C32.9208 -0.146249 32.8177 0.249044 32.6473 0.626861C32.4777 1.00135 32.2765 1.36252 32.0529 1.70797C31.6131 2.38704 31.0678 2.9928 30.4743 3.53955C29.209 4.70629 27.6761 5.56095 26.09 6.20757C22.4888 7.67473 18.5502 8.29389 15.1377 10.228C13.6447 11.0743 12.2157 12.2419 11.3187 13.7315C11.1741 13.754 11.0303 13.7806 10.8864 13.8105C10.9937 13.6749 11.1017 13.5393 11.2106 13.4044C11.2821 13.3162 11.1716 13.1998 11.0843 13.2779C9.38761 14.7892 7.82478 16.4211 6.40825 18.2004C5.05324 19.903 3.78967 21.6873 2.89519 23.6813C1.28747 27.2631 0.933336 31.3599 1.7638 35.1897C1.98991 36.2332 2.30913 37.2552 2.71563 38.243C2.92512 38.7531 3.15206 39.2558 3.40478 39.746Z" fill="black"/>
</g>
<defs>
<clipPath id="clip0_5_22">
<rect width="68" height="61" fill="white"/>
</clipPath>
</defs>
</svg>
