<svg width="67" height="61" viewBox="0 0 67 61" fill="none" xmlns="http://www.w3.org/2000/svg">
<g clip-path="url(#clip0_5_10)">
<path fill-rule="evenodd" clip-rule="evenodd" d="M60.2471 18.9265C59.1101 13.4538 55.078 9.20713 49.6551 7.0916C48.6127 6.49258 47.6022 3.92228 46.2013 3.45156C45.9768 3.37611 46.3312 3.97661 46.2013 4.01248C45.738 4.14039 45.2189 4.15375 44.7074 3.69181C43.7931 2.86623 43.5063 0.454251 42.9505 -0.635882C40.0189 -6.38519 32.6995 -4.13566 31.7189 2.22007C31.0352 2.67286 30.0687 3.07174 29.3244 3.43661C28.558 3.81232 27.8839 4.72236 27.0941 5.04771C26.3894 5.33801 25.2283 5.13236 24.5182 5.38543C21.2522 6.54944 18.486 8.0182 16.3174 10.9941C15.8604 11.6217 15.3453 12.3933 14.9295 13.0274C12.7856 15.5349 11.2965 18.3454 9.92509 21.3607C6.08807 30.2112 5.04441 40.0106 4.10805 49.5464C4.12935 51.2149 3.03965 55.8414 4.65134 56.6413C4.55502 56.7428 4.58991 56.9466 4.76863 56.9448C8.85522 56.9029 12.9323 57.2744 16.9555 57.9969C18.8966 58.3455 20.8273 58.8235 22.8046 58.9021C26.909 58.8733 30.9987 58.1745 35.0978 58.8357C40.0255 58.8357 46.0142 58.6898 51.4962 58.4757C56.6197 58.2756 61.7706 58.7276 66.8306 57.8423C67.2311 57.7779 67.4267 57.2816 67.3428 56.9259C66.7491 54.7281 66.4577 52.466 66.1246 50.2165C66.1909 48.7736 66.0722 47.2674 65.5469 45.9235C64.1743 36.851 62.4142 27.8377 60.2471 18.9265Z" fill="white"/>
<path fill-rule="evenodd" clip-rule="evenodd" d="M58.5935 30.8516C58.4854 31.385 58.3339 31.9185 58.1324 32.4237C57.9383 32.9113 57.6459 33.3482 57.4444 33.83C57.4174 33.8949 57.3732 33.944 57.3199 33.9815L57.3365 34.1126L57.3518 34.2436C57.4523 35.1281 57.5653 36.0102 57.6631 36.8946L57.7106 37.337C57.903 39.1835 58.2069 41.021 58.4428 42.8627C58.6738 44.6661 58.9089 46.4694 59.1603 48.2703C59.42 50.1269 59.6845 51.9811 59.9933 53.8302C60.1237 54.6111 60.2597 55.3915 60.4015 56.1711L60.511 56.7679C61.638 57.0433 61.946 58.6395 60.7985 59.2287C60.2776 59.495 59.6084 59.4309 59.1792 59.0124C58.7331 58.5762 58.7145 57.7896 58.611 57.1989L58.5113 56.6499C57.765 52.5219 57.1173 48.3464 56.8145 44.1601C56.7367 43.0791 56.6712 41.9973 56.6286 40.9145C56.5881 39.8961 56.6074 38.8778 56.592 37.8593L56.5868 37.5816C56.5631 36.4955 56.5827 35.4112 56.6105 34.3252C56.6138 34.1929 56.6196 34.0605 56.6261 33.9274C56.5885 33.8824 56.5614 33.8292 56.55 33.7776L56.5352 33.7094C56.4983 33.5338 56.5401 33.3282 56.6729 33.2025C56.7301 32.4627 56.8055 31.7237 56.826 30.9847C56.8276 30.924 56.9136 30.9257 56.9186 30.9847C56.9669 31.6139 57.0635 32.2447 57.1601 32.8747C57.7818 32.367 58.2413 31.5298 58.5124 30.8291C58.5321 30.7784 58.6051 30.7967 58.5935 30.8516ZM43.8846 1.44005C43.9878 1.91939 44.1918 2.34972 44.4653 2.75001C44.5957 2.94141 44.7438 3.11951 44.9216 3.26847C45.074 3.39571 45.2476 3.47893 45.4097 3.5897C45.6456 3.55216 45.8922 3.64296 46.0576 3.8193L46.0315 3.5614C46.0232 3.47818 46.1593 3.46154 46.1748 3.54218C46.8914 7.21397 47.5449 10.8881 48.1106 14.5865L48.3586 16.2197L48.5919 17.753C48.9793 20.308 49.354 22.862 49.6362 25.4356C50.0122 28.8702 50.3283 32.3138 50.5592 35.7623C50.791 39.2352 50.9336 42.7103 51.0352 46.1898C51.0605 47.067 51.0876 47.9433 51.1137 48.8203L51.2887 47.7717C51.4633 46.7229 51.6345 45.673 51.7813 44.6195C52.3079 40.8488 52.729 37.0514 52.9345 33.2483C53.123 29.7681 53.0599 26.2188 52.1884 22.8283C51.9689 21.9753 51.7002 21.1356 51.3759 20.3176C51.0613 19.5221 50.6322 18.7847 50.2939 18.0008C49.9007 17.0888 49.7828 16.2283 49.9851 15.2463C50.1621 14.3908 50.4725 13.586 50.5281 12.7056C50.6322 11.0711 50.1087 9.48822 49.3692 8.05776C49.1742 7.68077 48.9686 7.30878 48.754 6.94004C48.1046 5.82581 47.3722 4.75219 46.6122 3.72285C46.5713 3.66792 46.658 3.60717 46.7023 3.65211C47.3952 4.34783 48.1528 5.03189 48.7762 5.79169C49.0792 6.16118 49.3749 6.53809 49.655 6.92514C52.7282 7.44693 55.3689 9.39169 57.1741 11.9599C59.2225 14.8743 60.2587 18.382 61.0254 21.8364C61.8781 25.6754 62.5972 29.5492 63.363 33.4072C64.1558 37.3993 64.9446 41.3914 65.7424 45.3826C66.1388 47.364 66.5353 49.3455 66.9308 51.3278C67.1315 52.3315 67.3421 53.3326 67.5623 54.3329C67.6754 54.8455 67.7967 55.3573 67.9015 55.8716C68.0194 56.4517 67.9096 56.8227 67.5231 57.2489C67.3805 57.407 67.1553 57.4045 66.9783 57.3205L66.923 57.294L66.8696 57.2678C66.6507 57.1585 66.479 57.0452 66.3428 56.8019C66.1928 56.5349 66.1691 56.2386 66.1176 55.9415C66.0225 55.3947 65.9284 54.848 65.8334 54.3004C65.6914 53.4815 65.537 52.665 65.3799 51.8487L64.5917 47.769C64.3815 46.6812 64.171 45.5935 63.9592 44.5063C63.2032 40.6183 62.4464 36.7311 61.6897 32.8439C60.9631 29.1114 60.3201 25.3533 59.4929 21.6425L59.4459 21.4334L59.3981 21.2246C58.6584 18.0256 57.6249 14.9312 55.7497 12.2204C54.3065 10.1358 52.3023 8.27413 49.9417 7.332C50.108 7.57509 50.2677 7.82308 50.4201 8.07607C51.3767 9.6639 52.0753 11.5488 51.9115 13.4396C51.8313 14.3633 51.4857 15.2712 51.5184 16.2025C51.5487 17.0297 52.0525 17.7562 52.4006 18.4759C53.1909 20.1071 53.7627 21.8406 54.1313 23.6189C54.8709 27.1899 54.8684 30.8641 54.6136 34.4891C54.3368 38.4296 53.811 42.3692 53.2123 46.2713C52.9051 48.2727 52.4964 50.2576 52.1835 52.2557C52.0287 53.241 51.8181 54.2239 51.6339 55.2042L51.546 55.6726C51.4968 55.9325 51.4458 56.1916 51.3869 56.4479L51.3505 56.6014V56.6288C51.3489 56.8178 51.298 56.9743 51.2161 57.0991C51.104 57.4644 50.9648 57.8206 50.7796 58.1627C50.6846 58.3374 50.5469 58.4355 50.3971 58.4714C50.2463 58.8217 49.9048 59.0913 49.497 59.0897L44.1328 59.0689C41.0171 59.0563 37.9013 59.0355 34.7856 59.0181C33.9993 59.014 33.2138 58.999 32.4284 58.9782C31.692 58.9574 30.986 58.8675 30.2578 58.7743C29.4354 58.6695 28.9899 58.0778 29.1128 57.2431C29.1398 57.0591 29.1692 56.8761 29.1971 56.693C29.0333 56.7479 28.8384 56.7221 28.7065 56.5915L28.5829 56.4685C28.4115 56.2963 28.2582 56.1271 28.1495 55.8973C28.0373 55.6611 27.9463 55.4114 27.8472 55.1701C27.6334 54.6508 27.4255 54.1298 27.2231 53.6064C26.8177 52.5595 26.4123 51.5084 26.0354 50.4506C25.2893 48.356 24.6291 46.2297 24.055 44.0794C23.0312 40.243 22.2906 36.3325 21.8238 32.387L21.7121 31.4467L21.6797 31.1689C21.5026 29.6397 21.3536 28.0868 21.4241 26.5608C21.4675 25.6054 21.6133 24.6426 21.9647 23.7504C22.289 22.9274 22.7894 22.2234 23.2653 21.4877L23.3198 21.4028L23.3745 21.3158C23.7907 20.6477 24.1219 19.9491 24.1385 19.1376C24.1553 18.3142 23.9192 17.5127 23.6552 16.7418L23.5894 16.5517L23.5452 16.4259C22.9836 14.8326 22.3444 13.2618 22.5552 11.528C22.8665 8.97484 24.3899 6.91682 26.3066 5.32982C24.6021 5.67268 22.9148 6.35001 21.4258 7.20892C19.6671 8.2242 18.0839 9.56404 16.7185 11.0761C14.1384 13.9338 12.2963 17.3625 10.7885 20.9027C9.21007 24.6077 8.03962 28.4899 7.15756 32.4228C6.27051 36.3782 5.67668 40.3969 5.27116 44.4314C5.06893 46.4395 4.90995 48.4525 4.77816 50.4665C4.71099 51.4984 4.66021 52.532 4.58158 53.5623C4.50295 54.5917 4.46765 55.6369 4.22029 56.6389C4.1048 57.1058 3.32586 57.1532 3.2424 56.6389C3.05717 55.4903 3.10894 54.3025 3.16063 53.1395L3.16533 53.0338C3.21619 51.8754 3.28253 50.7178 3.36108 49.5602C3.5217 47.1943 3.73622 44.8317 4.01634 42.4766C4.99841 34.2095 6.80945 25.9858 10.3618 18.4394C12.0343 14.8851 14.1811 11.4315 17.1674 8.86499C18.5893 7.64407 20.1922 6.66957 21.9196 5.96395C23.4644 5.33232 25.0338 5.03356 26.6752 5.03439C27.4984 4.3936 28.3821 3.83519 29.265 3.35826C29.3183 3.32922 29.374 3.39912 29.3298 3.44406C29.3069 3.46653 29.2847 3.48975 29.2618 3.51147C29.3618 3.51813 29.4649 3.56556 29.5574 3.66459C29.8819 4.00987 30.1554 4.44187 30.4003 4.89034C30.7729 5.36311 31.1284 5.85152 31.5003 6.31922C32.0957 7.06819 32.7051 7.80635 33.322 8.53869C34.3579 9.76945 35.4275 10.9769 36.543 12.1358L36.7293 12.3285C37.3075 12.9236 37.8932 13.6359 38.577 14.1069L38.6136 14.1316C38.9021 14.3226 39.1067 14.3573 39.3527 14.072C39.5764 13.8124 39.7626 13.5111 39.9539 13.2249L39.9982 13.1591C40.9754 11.7169 41.8813 10.2215 42.7011 8.68191C43.0749 7.98127 43.4304 7.27046 43.7677 6.55178L43.8683 6.33594C44.0518 5.93982 44.2508 5.55118 44.4023 5.14332C44.4375 5.0477 44.4719 4.952 44.5055 4.85713C43.9895 4.51343 43.5898 3.76945 43.4449 3.18691C43.2942 2.58191 43.3703 1.961 43.6389 1.40768C43.6897 1.30365 43.86 1.32937 43.8846 1.44005ZM18.4289 26.0256C18.3575 28.3259 18.3141 30.6286 18.2076 32.9271L18.1708 33.7118C18.337 33.9 18.4345 34.1171 18.3566 34.4151C18.3264 34.5291 18.2371 34.6323 18.1257 34.6706L18.0909 35.4002C17.9329 38.6827 17.7476 41.9585 17.409 45.2328C16.9855 49.3306 16.4957 53.4216 16.0068 57.5119C15.9372 58.0911 15.5407 58.5504 14.9239 58.4656C14.2999 58.3798 14.0468 57.828 14.1287 57.253C14.4506 54.997 14.7601 52.7392 15.0313 50.4757L15.3401 47.8968C15.7273 44.6731 16.1236 41.4499 16.5802 38.2365C16.771 36.8934 16.9692 35.5511 17.1682 34.2086L17.0986 34.1171C16.8143 33.7419 16.5203 33.3749 16.2295 33.0054C15.671 32.293 15.1198 31.5864 14.6078 30.8407C14.5824 30.8033 14.634 30.7484 14.6708 30.7767C15.3883 31.3152 16.0674 31.891 16.7505 32.4761L17.3484 32.9903C17.6925 30.671 18.0332 28.3508 18.337 26.0256C18.3444 25.9675 18.4304 25.9632 18.4289 26.0256ZM28.7499 4.01245C28.3182 4.42597 27.8768 4.8305 27.4418 5.24161L27.2824 5.39291L27.1238 5.5449C26.3593 6.28149 25.6269 7.04825 25.0166 7.92877C23.8961 9.54573 23.2286 11.5171 23.6945 13.4912C24.0812 15.1264 24.9683 16.6086 25.2066 18.2846C25.3261 19.1243 25.268 19.9682 24.9567 20.7612C24.6389 21.5701 24.1311 22.2634 23.6749 22.9932C22.6838 24.5794 22.5486 26.3203 22.647 28.1578C22.7502 30.0768 22.9672 31.9966 23.2351 33.8983C23.7772 37.7514 24.5947 41.5645 25.6767 45.2986C26.2182 47.1685 26.8578 48.9985 27.4943 50.836C27.8112 51.7506 28.1807 52.6435 28.5614 53.5322C28.7621 54 28.9678 54.4651 29.1766 54.9295C29.0996 54.2738 29.0996 53.6005 29.0619 52.9489C29.0078 52.0152 28.939 51.0832 28.876 50.1503C28.7475 48.257 28.6328 46.3621 28.5304 44.4672C28.1675 37.7098 27.9005 30.9465 27.9201 24.1782C27.93 20.7937 27.998 17.4092 28.1413 14.0279C28.2085 12.4356 28.3387 10.8448 28.4563 9.2548L28.4813 8.91409C28.5853 7.48687 28.7098 6.05633 28.9235 4.64159C28.8602 4.49653 28.8053 4.34963 28.7645 4.19896L28.7499 4.14227L28.7606 4.14394C28.7507 4.09975 28.7474 4.05573 28.7499 4.01245ZM32.4832 -1.80295C32.4922 -1.84207 32.5471 -1.83874 32.5569 -1.80295C32.8001 -0.970758 32.7141 -0.0553416 32.5045 0.781848C32.3915 1.2354 32.231 1.67563 32.0369 2.10005L31.9689 2.24858C31.8026 2.61003 31.6153 2.98245 31.2914 3.2077C31.1564 3.30174 30.9146 3.30756 30.7795 3.2077L30.7106 3.15456C30.6992 3.14556 30.688 3.13641 30.6771 3.12698C30.5511 3.01962 30.4887 2.78245 30.5469 2.626C30.6968 2.22238 31.0368 1.92612 31.2718 1.56661C31.4799 1.24705 31.6642 0.910006 31.8173 0.559652C32.1473 -0.198479 32.2956 -1.00321 32.4832 -1.80295Z" fill="black"/>
</g>
<defs>
<clipPath id="clip0_5_10">
<rect width="67" height="61" fill="white"/>
</clipPath>
</defs>
</svg>
