<svg width="67" height="61" viewBox="0 0 67 61" fill="none" xmlns="http://www.w3.org/2000/svg">
<g clip-path="url(#clip0_5_46)">
<path fill-rule="evenodd" clip-rule="evenodd" d="M81.5863 17.4324C80.4167 17.5491 79.2471 17.6656 78.0776 17.7823C72.4761 18.2171 66.8768 19.1252 61.3183 19.6702C61.1799 19.4413 60.909 19.479 60.7445 19.6381C60.1898 19.5887 59.5682 19.158 59.0658 19.606C59.0494 19.6037 59.0331 19.6009 59.0166 19.5994C58.1221 17.8548 57.5037 15.9941 56.9035 14.1309C56.5205 12.9854 56.0051 11.8765 55.0527 11.1074C53.4273 9.96102 49.7032 7.63645 47.7946 7.73415C47.763 7.38696 47.6037 7.02911 47.3421 6.79793C47.9186 5.79937 45.6136 5.14785 45.451 5.26361C45.5552 1.9275 44.0107 -0.969712 40.605 -1.63405C37.5539 -2.28001 33.2143 -2.38852 31.5733 0.851134C31.393 0.830496 29.5491 0.820742 29.3707 0.841048C29.0934 0.484119 26.0473 3.86634 27.2957 5.04381C16.134 10.0605 9.78748 9.46187 6.69811 23.565C6.28045 24.8899 6.25003 26.3396 5.80901 27.635C4.23997 31.3575 2.96732 35.3213 2.6506 39.3718C1.88563 39.5709 1.79766 40.9413 2.68372 41.1395C3.02217 41.2153 3.3052 41.3189 3.55199 41.5152C3.35907 44.8345 4.14921 52.4169 4.64705 52.3936C5.66217 55.676 10.1901 56.6024 13.3958 55.4489C12.8431 56.5052 13.3958 57.1693 13.3958 57.7337C24.9305 58.1771 37.5425 57.9218 49.0741 58.5298C50.5491 58.5085 52.1006 58.8979 53.5555 58.6738C54.4428 58.4577 54.4443 57.0402 53.5443 56.865L57.4769 55.9971C57.389 55.9634 59.0979 54.8085 60.3895 52.6504C61.5917 50.2362 60.7735 47.322 61.3183 44.6959C65.5729 44.3424 69.8978 44.1913 74.1059 43.4592C74.6797 45.2034 77.1634 43.1174 77.9529 42.2783C77.9519 42.277 77.9509 42.2757 77.9499 42.2744C78.332 42.1682 78.6384 41.8044 78.6486 41.3736C78.9166 40.9846 78.9728 40.4364 78.7159 40.0605C79.8936 33.1559 81.689 26.1062 82.3379 19.1367C82.5673 19.0851 82.7834 18.9829 82.9665 18.8255L82.9517 18.8104C83.262 18.4589 83.3224 17.8522 82.805 17.5535C82.3877 17.3123 82.0392 17.3871 81.5863 17.4324Z" fill="white"/>
<path fill-rule="evenodd" clip-rule="evenodd" d="M31.7858 0.0986172C32.1333 -0.788754 33.3081 -0.443808 33.1771 0.488418C33.0987 1.04682 32.7977 1.6366 32.5273 2.12601C32.3072 2.52439 32.056 2.91319 31.7156 3.21178C32.3217 3.78633 32.9508 4.33991 33.5959 4.86552C34.2998 5.43899 35.04 5.9676 35.8051 6.45344C36.476 6.87952 37.1772 7.257 37.8096 7.74317C38.3976 8.19514 38.9333 8.73873 39.2059 9.44834C39.4963 10.204 39.3701 10.9844 39.1562 11.7396L39.1317 11.8249C38.9132 12.5731 38.5351 13.4749 39.0594 14.1798C39.3264 14.5386 39.7144 14.7928 40.0495 15.0797C40.3473 15.3346 40.6269 15.6119 40.8833 15.9098C41.4423 16.559 41.8969 17.2896 42.1839 18.1037L42.2095 18.1776C42.4554 18.8983 42.6352 19.7811 42.3029 20.4886C42.2075 20.6914 41.9 20.6255 41.8466 20.428C41.7259 19.9806 41.7322 19.5121 41.631 19.0584C41.5257 18.5865 41.3504 18.1386 41.1214 17.7149C40.6785 16.8951 40.0786 16.1949 39.3699 15.6028L39.1577 15.4276C38.6048 14.9665 38.0969 14.4775 37.9846 13.7145C37.8646 12.8982 38.1865 12.1206 38.3934 11.348C38.5377 10.8096 38.5848 10.2934 38.4289 9.80685C38.2385 10.1227 37.9787 10.4224 37.7732 10.6898C37.3639 11.2225 36.9507 11.7519 36.5387 12.2824C36.1162 12.8263 35.7041 13.3788 35.3117 13.9456C35.1362 14.1992 34.9625 14.4543 34.7894 14.7096C34.6593 14.9015 34.4778 15.0932 34.3359 15.2889C34.3704 15.3936 34.3678 15.5143 34.3053 15.6C33.553 16.6328 32.4827 14.4779 32.2036 13.9335C31.6351 12.8247 31.2121 11.6468 30.6418 10.5384C30.0508 9.38926 29.3778 8.27079 28.6278 7.22172C28.1741 6.58717 27.6657 5.99115 27.2506 5.33646C26.2729 6.23723 24.9863 6.84107 23.8046 7.38866C22.5061 7.99022 21.1572 8.48165 19.8259 9.00349L19.4327 9.15867C17.1389 10.0682 14.7891 11.0675 12.8825 12.683C10.6421 14.5815 9.31667 17.2275 8.32993 19.9676C7.19405 23.1221 6.25433 26.3617 5.37833 29.5991C4.93005 31.2556 4.50471 32.9196 4.10484 34.5889C3.75248 36.0596 3.46039 37.5449 3.0525 39.0004C3.87976 38.9707 4.82325 39.2961 5.52953 39.39C8.7484 39.8181 11.9239 40.5005 14.9629 41.682C15.3383 41.8279 15.4469 42.2088 15.3652 42.5176C15.5817 42.4555 15.798 42.3926 16.0145 42.3308C15.7773 41.9616 15.8905 41.3015 15.9091 40.8922L15.9103 40.8641C15.9294 40.3188 15.9877 39.7728 16.0254 39.2285C16.0973 38.1908 16.1909 37.1608 16.3154 36.129L16.3472 35.8711C16.4882 34.7486 16.5925 33.6196 16.7464 32.499L16.7646 32.3708C16.6908 32.0841 16.6048 31.8009 16.5147 31.5189C16.2743 30.7679 15.9352 30.0609 15.6379 29.3335C15.6029 29.2479 15.723 29.1987 15.7791 29.25C16.2825 29.7102 16.6823 30.2939 17.0036 30.9044C17.0091 30.8756 17.0141 30.8467 17.0199 30.8179L17.0565 30.6346C17.1469 30.1875 17.2569 29.7172 17.5268 29.3546C17.5555 29.316 17.6124 29.308 17.6396 29.3546C17.8979 29.7987 17.9268 30.3612 17.9666 30.8666C18.0115 31.4383 18.0172 32.0173 18.0092 32.5906C17.9937 33.7109 17.916 34.8345 17.8541 35.953C17.7933 37.0523 17.674 38.1375 17.5203 39.2258L17.4911 39.43C17.4159 39.948 17.3544 40.4725 17.2553 40.987L17.2273 41.1271C17.1743 41.3822 17.1417 41.742 17.0362 42.0408C19.7504 41.2716 22.4688 40.52 25.1924 39.7816C27.1609 39.2478 29.1314 38.722 31.1011 38.1929C31.205 38.0026 31.3344 37.8248 31.496 37.666C32.0281 37.1423 32.7333 36.9087 33.3802 37.3118C33.4327 37.3446 33.4372 37.4284 33.3802 37.4601C33.2562 37.5289 33.1321 37.5995 33.0101 37.673L34.1928 37.3476C35.0769 37.1041 35.9714 36.8 36.8763 36.6303C38.5428 35.7947 40.3353 35.1898 42.0909 34.5921L42.2978 34.521C43.1967 34.2096 44.1265 33.861 45.0552 33.6884C45.7351 33.5621 46.5332 33.7145 46.8066 34.4222C47.1528 34.654 47.4784 34.9264 47.7927 35.1943C48.0199 35.3878 48.2377 35.5936 48.4592 35.794L48.5 35.8304C48.6811 35.99 48.8245 36.0969 48.869 36.351C48.8919 36.4822 48.8098 36.6597 48.6505 36.6423C48.1631 36.5893 47.7667 36.0152 47.4361 35.6724C47.1808 35.4075 46.9233 35.1335 46.6902 34.8423C46.5543 34.9175 46.3681 34.904 46.2816 34.7375C45.8331 33.8746 44.6044 34.4726 43.9245 34.6772L42.9507 34.9701C42.4638 35.1167 41.9771 35.2641 41.4912 35.414C40.1558 35.8261 38.8269 36.2872 37.4794 36.6656C37.5999 36.8002 37.5833 37.0397 37.3543 37.1309C36.2995 37.5514 35.1423 37.7688 34.0465 38.0573C33.3546 38.2397 32.6631 38.4231 31.9719 38.6076C31.8534 38.8027 31.7681 39.0234 31.7323 39.2803C31.6004 40.2248 31.8548 41.3147 32.1026 42.2283L32.1399 42.3646C32.3436 43.0991 32.6433 43.9995 33.267 44.4633C33.4193 44.5764 33.6132 44.6552 33.8086 44.673C35.0296 44.0344 36.2505 43.396 37.4722 42.7587C37.6985 42.6406 37.9076 42.8004 37.9584 42.9905C38.3891 42.9187 38.8189 42.8055 39.2103 42.6705C39.868 42.4436 40.3816 42.0108 40.9982 41.7114C42.1912 41.1324 43.4096 41.8437 44.4778 42.3844L44.724 42.5073C45.203 42.7435 46.1996 43.1971 46.4294 42.5513C46.6517 41.9265 45.9489 41.2587 45.4949 40.9775C44.9539 40.6422 44.3238 40.4628 43.7123 40.3133C43.3632 40.228 43.0097 40.1583 42.6542 40.1075C42.2509 40.0498 41.8343 40.0584 41.446 39.9255C41.253 39.8596 41.2233 39.5482 41.446 39.4968C42.0437 39.3586 42.7572 39.5093 43.381 39.6634L43.707 39.745C44.3355 39.9017 44.97 40.0984 45.5425 40.411C45.9587 40.6383 46.3981 40.9837 46.6851 41.4064C46.9343 41.1712 47.2445 41.1792 47.5676 41.2664L47.743 41.3159C48.0326 41.3975 48.2674 41.4536 48.5492 41.3971C48.5869 41.1888 48.625 40.9804 48.6659 40.772C49.0675 38.7237 49.5079 36.6831 49.9939 34.6535C50.8321 31.1526 51.802 27.6902 52.8955 24.2632L53.0053 23.9207C53.2575 23.1368 53.4604 22.2828 53.867 21.5627C54.2516 20.8818 54.8677 20.4896 55.5997 20.2819C56.4304 20.0462 57.3032 19.9229 58.1507 19.7637C58.3397 19.7282 58.5292 19.6945 58.7184 19.6596C58.5585 19.3663 58.4392 19.0334 58.3317 18.7778L58.3128 18.7336C58.0819 18.1986 57.8744 17.6539 57.6741 17.1064L57.5242 16.6948C57.1625 15.7036 56.7891 14.7286 56.2805 13.8016C55.7451 12.8259 55.0349 12.0282 54.1496 11.3681C52.3445 10.0219 50.1688 9.33525 48.4181 7.89663C48.3463 7.83771 48.4383 7.73693 48.5111 7.77421C49.6933 8.37772 50.9695 8.78808 52.199 9.27941L52.4416 9.37664C53.4135 9.76808 54.4004 10.1942 55.2416 10.828C56.1795 11.5347 56.9181 12.4123 57.4733 13.456C58.0204 14.4847 58.3704 15.6362 58.7564 16.7351L58.8597 17.0278C59.0154 17.4669 59.1762 17.9046 59.3605 18.3319C59.5068 18.6711 59.7798 19.0583 59.9039 19.4458C60.2434 19.3859 60.5828 19.3259 60.9226 19.2683C68.2834 18.0196 75.7264 17.286 83.1859 17.0713C83.4777 17.0629 83.6287 17.3459 83.5857 17.6045C82.8698 21.9054 82.2336 26.221 81.5356 30.5251C81.2309 32.4036 80.9202 34.2807 80.6021 36.1569C80.441 37.1075 80.2548 38.0543 80.1022 39.0063C79.979 39.7751 79.8895 40.5499 79.6781 41.3008C79.4884 41.9742 79.1973 42.6234 78.7192 43.1372C78.2038 43.6909 77.4845 43.9589 76.7604 44.0856C74.9224 44.407 73.037 44.5382 71.184 44.7524L61.3186 45.8927C61.4627 47.2241 61.4735 48.5348 61.4074 49.8817L61.3697 50.617C61.3389 51.2084 61.302 51.8007 61.2184 52.386C61.1136 53.1203 60.783 53.742 60.2961 54.2904C59.8489 54.7941 59.3057 55.2238 58.7773 55.6356C58.2289 56.0632 57.6622 56.4758 57.0173 56.7402L56.9336 56.774C56.3679 56.9984 55.3067 57.3459 54.5334 57.2189C54.6345 57.7335 54.8301 58.2867 54.6567 58.7958C54.5762 59.0323 54.272 59.1502 54.0855 58.9491C53.7162 58.5503 53.6874 58.0237 53.5999 57.5036C53.5089 56.9623 53.4304 56.4192 53.3607 55.8747C53.2259 54.8219 53.121 53.7594 53.089 52.6977C53.056 51.6073 53.0687 50.5155 53.1266 49.4263C53.1563 48.867 53.1932 48.308 53.263 47.7523C53.2928 47.5153 53.3233 47.2781 53.3581 47.0417C53.3708 46.9554 53.3849 46.8696 53.4 46.784L52.5146 46.8855C51.1568 47.0395 49.7984 47.1786 48.4311 47.2002C48.2691 47.2027 48.1446 47.1278 48.0631 47.0187C47.9764 47.1622 47.8254 47.2649 47.6091 47.2641C45.6996 47.2569 43.9214 46.6225 42.1846 45.8748C41.3092 45.4978 40.4473 45.0897 39.5706 44.716C38.7523 44.3671 37.8774 44.1182 37.0788 43.7253L34.9804 44.8436C34.965 44.8986 34.9452 44.9506 34.9243 44.9941C34.7876 45.2775 34.5183 45.4312 34.2431 45.5469C33.9791 45.6583 33.7056 45.6929 33.4391 45.6648C31.8477 46.5121 30.2558 47.3587 28.6629 48.2032L27.0696 49.0471C23.8952 50.7264 20.7334 52.4332 17.539 54.073L17.3038 54.1933C16.2005 54.7554 15.0157 55.3252 13.7913 55.7504C13.7695 56.0653 13.7832 56.3716 13.8092 56.7049L13.8154 56.7775C13.8519 57.1713 13.9302 57.6649 13.6192 57.9453C13.4575 58.0911 13.1685 58.0916 13.0585 57.8718C12.8589 57.4731 13.0381 56.8445 13.1014 56.4114C13.1238 56.2573 13.1512 56.0989 13.1916 55.9453C11.7879 56.3699 10.3417 56.5758 8.9132 56.3374C7.52241 56.1054 6.44525 55.2152 5.57687 54.1264C4.66042 52.9774 4.00917 51.6383 3.65976 50.2028C3.2621 48.5694 3.23613 46.8825 3.24547 45.2094C3.25538 43.4278 3.32025 41.6373 3.53354 39.8676C3.29986 39.8118 3.0407 39.7635 2.80456 39.7802C2.6876 39.9703 2.46072 40.0504 2.2557 40.0257C1.80988 40.5252 2.94069 41.0358 3.30207 41.1636C3.42755 41.208 3.41412 41.4151 3.26939 41.4088L3.17822 41.4044C2.61983 41.3743 2.04294 41.2774 1.71463 40.7502C1.45154 40.3276 1.53058 39.8269 1.8442 39.4823C2.05135 37.4924 2.54656 35.5546 3.00745 33.6134C3.45974 31.7081 3.96273 29.815 4.49586 27.9315L4.73487 27.0885C5.57428 24.1351 6.45167 21.158 7.60956 18.322C8.18774 16.9059 8.85381 15.5159 9.75667 14.2812C10.5983 13.1301 11.5919 12.1452 12.734 11.3041C14.8632 9.73573 17.3615 8.7881 19.8163 7.88527L19.9262 7.84487C21.1983 7.37734 22.4673 6.90424 23.7249 6.39768C24.8371 5.94971 25.9026 5.38173 27.0096 4.92702C26.9736 4.86069 26.9389 4.79362 26.9055 4.7258L26.885 4.74328C26.8815 4.74611 26.8779 4.74885 26.8742 4.75143C26.7629 4.82982 26.599 4.79129 26.5072 4.70333C26.2482 4.455 26.3359 4.17933 26.5088 3.9218L26.5313 3.88902C26.7428 3.58802 26.9314 3.26978 27.1266 2.95788L27.2489 2.76282C27.5765 2.24173 27.9208 1.71717 28.3576 1.28649C28.5599 1.08693 28.7814 0.937638 29.0161 0.826373C28.996 0.783265 29.1719 0.695135 29.2218 0.739492C29.9653 0.463036 30.8206 0.520957 31.6312 0.597186M60.8412 45.9478L59.8076 46.0672C58.6704 46.1987 57.5327 46.3258 56.3949 46.4517L53.9236 46.7246C53.9173 46.8677 53.9002 47.0077 53.8971 47.1158C53.8809 47.6731 53.8689 48.2307 53.8575 48.7882C53.8346 49.9057 53.8597 51.0242 53.9321 52.1395C54.0023 53.2202 54.0947 54.3011 54.2384 55.3745L54.2678 55.5891L54.2848 55.7019C54.402 55.7134 54.5172 55.77 54.6129 55.8862C54.822 56.1398 55.5789 55.8933 55.8745 55.7865C56.3606 55.6107 56.8184 55.3138 57.2408 55.016C57.6533 54.7253 58.0247 54.3862 58.3816 54.0291L58.6737 53.7357C58.9642 53.4423 59.255 53.1299 59.433 52.7609C59.6744 52.2606 59.7056 51.6464 59.7764 51.1015C59.8635 50.4313 59.9673 49.7611 60.077 49.0942M30.8342 38.9123L30.7269 38.9409C26.8322 39.9924 22.9432 41.0749 19.0365 42.0799C17.1032 42.5774 15.1607 43.0387 13.2249 43.5266L12.9116 43.6063C11.3845 43.9984 9.83908 44.4703 8.66969 45.5957C8.62652 45.6372 8.56386 45.5735 8.60449 45.5295C9.86479 44.1663 11.6572 43.5893 13.3783 43.0891C13.6964 42.9966 14.0149 42.9063 14.3332 42.8143C11.9926 41.9666 9.61506 41.229 7.18266 40.703C6.55632 40.5675 5.92269 40.468 5.29683 40.3321C4.86036 40.2372 4.4341 40.1 4.00224 39.9862L3.66254 39.8994L3.65803 40.9902C3.65238 42.5352 3.65508 44.0789 3.73265 45.6237L3.74734 45.9098C3.83785 47.6289 3.97913 49.3837 4.57957 51.0047C5.06749 52.3219 5.8452 53.5627 6.86224 54.5222C7.37686 55.0076 7.93015 55.3855 8.61407 55.5721C9.2491 55.7453 9.91443 55.7656 10.5672 55.7194C13.6985 55.4974 16.4858 53.7692 19.2057 52.3383C23.6547 49.9979 28.1041 47.6587 32.5576 45.3273C32.4372 45.2437 32.3238 45.1473 32.2207 45.0391C31.6235 44.4124 31.3085 43.5546 31.1016 42.7238C30.8813 41.8395 30.7496 40.8917 30.7343 39.9788M36.5007 46.2308C36.5401 46.2093 36.5856 46.2362 36.5874 46.2813C36.6012 46.6269 36.4132 46.9677 36.2727 47.279L36.2579 47.3123C36.0873 47.6979 35.9004 48.0784 35.7072 48.4529C35.321 49.2011 34.9197 49.9414 34.5008 50.6711C33.6585 52.1392 32.7224 53.5454 31.616 54.8237C31.3661 55.1125 30.9551 54.7422 31.1155 54.4313C31.8887 52.9325 32.7901 51.5174 33.7179 50.1145C34.1824 49.4122 34.6466 48.7091 35.1157 48.0099C35.3114 47.7182 35.5096 47.4275 35.7131 47.1411L35.8359 46.9699M82.6926 17.9298C78.7843 18.0497 74.8805 18.3087 70.9907 18.7145C67.3732 19.0919 63.769 19.5943 60.1851 20.2206C59.4365 20.3514 58.6889 20.4876 57.9422 20.6291L57.4943 20.7147C56.7474 20.8585 55.8351 20.9178 55.1701 21.3232C54.4691 21.7505 54.2797 22.6436 54.0464 23.3801C53.7722 24.2463 53.5049 25.1149 53.2448 25.9857C52.2122 29.4429 51.2688 32.93 50.4273 36.4402C50.0096 38.1826 49.639 39.9347 49.2484 41.6834C48.9015 43.2371 48.5186 44.7733 48.1187 46.3114C48.168 46.2725 48.2284 46.2428 48.3014 46.227C50.2875 45.7977 52.3148 45.6111 54.3306 45.3739L54.5256 45.3508C56.6109 45.1016 58.6962 44.8543 60.7827 44.616L74.597 43.0375C75.4118 42.9445 76.2846 42.9319 77.0774 42.7097C78.4254 42.3319 78.7414 40.8007 78.9676 39.5812L78.9744 39.5444C79.6563 35.86 80.1991 32.1436 80.835 28.4499M48.4402 42.0284C47.9038 41.9925 47.1698 41.4934 46.7629 41.5292C46.9765 41.8934 47.0729 42.3087 46.9498 42.7523C46.6072 43.9866 45.0577 43.348 44.3114 42.9709C43.6995 42.6616 43.1086 42.2831 42.4311 42.1382C41.6637 41.9742 41.1437 42.2843 40.4953 42.6417C39.9628 42.9353 39.3828 43.1461 38.7864 43.2552C38.4692 43.3132 38.168 43.3194 37.8673 43.2968C37.8492 43.3117 37.8288 43.3256 37.8055 43.338L37.6465 43.4228C38.3657 43.4563 39.0983 43.6818 39.7676 43.8883C40.4612 44.1021 41.1421 44.36 41.8194 44.6236L42.4857 44.8838C44.1292 45.5233 45.8304 46.1305 47.6091 46.1252C47.7369 46.1248 47.8417 46.1608 47.9242 46.2194M45.4394 38.1609C45.9693 38.095 46.4584 38.1656 46.8817 38.516C47.3924 38.9386 47.7354 39.6395 48.4694 39.6855C48.6835 39.6989 48.7332 40.0047 48.5205 40.0686C47.9741 40.233 47.5317 39.9326 47.1594 39.5426L46.9091 39.2769C46.5412 38.8899 46.2019 38.5907 45.5777 38.6138C44.9092 38.6386 44.2395 38.7956 43.5753 38.8754C42.8229 38.9658 42.0707 39.0428 41.3159 39.1093C41.2809 39.1124 41.2749 39.0563 41.3077 39.0481L42.1531 38.8343M44.928 35.96L45.0154 35.9511C45.7848 35.8752 46.4884 35.8723 47.1756 36.2928L47.3074 36.3738C47.9269 36.7564 48.6013 37.2071 48.9887 37.8266C49.0521 37.928 48.9473 38.0473 48.8413 38.0215C48.0966 37.8399 47.5523 37.2848 46.9261 36.8694C46.2233 36.4032 45.4974 36.4801 44.6961 36.5525C43.9203 36.6226 43.1449 36.719 42.3767 36.8504C41.6548 36.9737 40.9307 37.1685 40.2015 37.2305L40.2017 37.229C40.1184 37.2289 40.0709 37.1018 40.1558 37.0587C40.8958 36.6833 41.7528 36.5056 42.5577 36.3341M68.3014 28.2335C68.227 27.8721 68.6646 27.7045 68.8674 27.9912L68.9105 28.0516C69.3486 28.6615 69.9823 29.4268 69.95 30.2024C70.3351 30.211 70.7344 30.4487 70.8845 30.8018C70.9539 30.9652 70.9774 31.1588 70.9621 31.3592C71.3121 31.3868 71.6939 31.6203 71.9079 31.8477C72.2627 32.2246 72.2907 32.7572 72.0362 33.1976C71.4813 34.1576 70.2692 34.5068 69.2459 34.5847L69.2094 34.5874C68.1525 34.6616 66.6295 34.6416 65.9048 33.7203C65.2057 32.8316 65.9783 32.112 66.7706 31.7213C66.5644 31.53 66.4576 31.2556 66.558 30.9663C66.7343 30.4577 67.3569 30.2612 67.7087 29.9077C68.1376 29.4767 68.421 28.8854 68.3079 28.2673M68.8823 29.015C68.7657 29.5297 68.4794 30.0003 68.0806 30.3733C67.928 30.516 67.7612 30.643 67.584 30.7521L67.5627 30.7646C67.4053 30.8544 67.0187 31.0225 67.0485 31.2238C67.0791 31.4306 67.709 31.7545 67.8807 31.7546C67.9198 31.7546 67.9419 31.8166 67.902 31.8346C67.5908 31.9742 67.3191 32.0341 67.0148 31.8865C66.8115 32.0974 66.614 32.3156 66.4184 32.5319C66.0725 32.9146 66.1909 33.3187 66.5996 33.6037C67.2563 34.0615 68.2546 34.0504 69.0209 34.0171C69.7921 33.9837 70.6165 33.8089 71.2189 33.2869L71.2452 33.2637C71.5726 32.9679 71.8716 32.4665 71.3702 32.1816C71.1739 32.07 70.9617 32.0766 70.7753 32.0223C70.6008 32.3698 70.3179 32.6481 69.9725 32.7017C69.6935 32.7451 69.5013 32.3887 69.7551 32.2183L69.8122 32.1823C70.1309 31.9755 70.403 31.6571 70.3957 31.2425C70.3908 30.9546 69.9952 30.5911 69.7375 30.8616L69.7257 30.8745C69.51 31.1215 69.1301 30.8102 69.272 30.5365L69.2788 30.5241M18.5815 14.703C18.5806 14.6411 18.6662 14.618 18.6961 14.6715C19.1967 15.5664 19.4584 16.6633 19.7251 17.6492C20.0044 18.6819 20.2299 19.7252 20.4324 20.7761C20.8427 22.9041 21.0613 25.0199 21.0761 27.1887C21.0782 27.4984 20.5817 27.5808 20.5331 27.2635C20.2106 25.1538 19.9017 23.0419 19.5767 20.9328C19.4133 19.872 19.223 18.8153 19.0409 17.7576M23.5376 16.2616C23.5007 16.1382 23.6775 16.0969 23.7227 16.2098C24.7274 18.7154 25.0676 21.5551 24.4226 24.1985C24.3239 24.6029 23.741 24.4277 23.8154 24.0284M36.4967 14.0352C36.4916 13.9428 36.6097 13.9282 36.6542 13.9918C37.1302 14.6733 37.3277 15.586 38.1629 15.9382C38.5799 16.114 39.0491 16.0834 39.4175 16.3804C39.6638 16.579 39.8527 16.8926 39.6678 17.1935C39.6082 17.2907 39.4413 17.3393 39.3604 17.2337C39.2423 17.0799 39.1798 16.8956 39.0193 16.7803C38.793 16.6176 38.4878 16.6075 38.2283 16.531C37.8927 16.4322 37.5968 16.2591 37.3545 16.0021M44.4498 2.66872C44.4988 2.64334 44.5459 2.65957 44.5773 2.70268C44.6221 2.76409 44.6166 2.82384 44.5617 2.86595C44.635 3.01816 44.7216 3.39947 44.734 3.45498C44.7841 3.68001 44.8374 3.9037 44.8932 4.12723C45.0057 4.57803 45.1044 5.03233 45.217 5.48329C45.3364 5.96131 45.4787 6.43425 45.637 6.90036C45.6472 6.93054 45.6584 6.96135 45.6702 6.99261L45.6883 7.03983L45.6927 7.03268C45.7249 6.981 45.7919 7.01712 45.7839 7.07171C45.7766 7.12147 45.7667 7.17099 45.7583 7.22075L45.7749 7.26534C45.8785 7.54855 45.9494 7.84682 45.7594 8.09672C45.6883 8.19018 45.6101 8.24552 45.5126 8.262C45.3563 8.78545 45.1602 9.29916 44.9503 9.79249L44.8888 9.93656C44.58 10.6564 44.2506 11.3668 43.759 11.9797C43.2221 12.6488 42.4837 13.1056 42.0161 13.8388C41.7986 14.1798 41.6472 14.5384 41.5244 14.9236L41.4781 15.0698C41.3909 15.3422 41.2903 15.6062 41.0388 15.766C40.9586 15.8169 40.8383 15.8007 40.7736 15.7312C40.2578 15.1769 40.7978 14.1418 41.1088 13.6051C41.5411 12.8588 42.1668 12.3814 42.7933 11.8183C43.4686 11.2114 43.8993 10.3995 44.316 9.59967C44.5712 9.10967 44.8176 8.60911 45.077 8.11695C44.806 7.87358 44.7192 7.39016 44.6274 7.05415L44.6191 7.02402C44.4673 6.48592 44.3467 5.93385 44.2705 5.37935C44.1972 4.8462 44.1667 4.32071 44.1861 3.78457L44.1916 3.648M45.4574 5.20624C45.3975 5.12285 45.4966 5.0284 45.5788 5.04579C46.0783 5.15073 46.5666 5.45792 47.0149 5.70631L47.0628 5.73269C47.4206 5.92875 47.7807 6.16892 47.9686 6.54982C48.173 6.9638 48.1561 7.44062 48.1282 7.8905L48.1256 7.9326C48.0915 8.47211 48.086 9.03268 47.9736 9.56245C47.9161 9.83358 47.6744 9.90998 47.4677 9.8459C47.2218 10.6347 46.5311 11.2159 46.0266 11.8384C45.3833 12.632 45.5043 13.7035 45.5716 14.6592C45.5988 15.0462 45.125 15.1562 44.881 14.9498L44.3187 14.4752C44.2251 14.396 44.1315 14.3167 44.0383 14.237C43.9584 14.1687 43.8792 14.0999 43.8007 14.0302L43.6835 13.925C43.6314 13.8777 43.402 13.6173 43.3349 13.6065C43.1725 13.5803 42.7864 14.0153 42.6543 14.1518L42.6376 14.1688C42.3889 14.4166 42.1642 14.6831 41.955 14.9658C41.9165 15.0178 41.8412 14.9746 41.8687 14.9146C42.0562 14.5065 42.2743 14.1163 42.5332 13.7511L42.5855 13.6784C42.7577 13.4426 42.989 13.0261 43.293 12.9565C43.6643 12.8715 44.035 13.2498 44.3051 13.4597L44.3222 13.4729C44.4507 13.5708 44.5777 13.6705 44.7045 13.7709C44.6912 13.0593 44.7797 12.3402 45.1413 11.727C45.3963 11.2945 45.7783 10.9742 46.1052 10.6025C46.4691 10.1887 46.6591 9.68004 46.9886 9.24905C47.031 9.19363 47.0895 9.16375 47.1528 9.15426C47.1655 8.80777 47.2157 8.45783 47.2545 8.11509L47.2657 8.01249C47.305 7.64008 47.3977 7.1852 47.2182 6.83643C47.0487 6.507 46.6598 6.27447 46.3718 6.05096L46.1366 5.86561M29.2468 1.26844C29.0964 1.35682 28.9559 1.46675 28.8283 1.60414C28.4269 2.0368 28.1399 2.57523 27.8606 3.09319C27.7102 3.37214 27.5652 3.65418 27.4136 3.93246C27.3477 4.05355 27.2799 4.1733 27.2113 4.29289C27.1796 4.34798 27.0854 4.4575 27.0387 4.52499C27.0906 4.59884 27.1443 4.67155 27.199 4.74348C27.2198 4.77093 28.6598 6.3647 29.1618 6.98845C29.9304 7.9439 30.6174 8.9531 31.2048 10.0333C31.7799 11.0911 32.2178 12.2111 32.7506 13.2893C33.0173 13.8292 33.3151 14.3652 33.6948 14.8324C33.7094 14.8506 33.7249 14.8679 33.7399 14.8858C33.8848 14.4881 34.256 14.0623 34.4384 13.8178L34.4554 13.7947C34.869 13.2283 35.3057 12.679 35.7519 12.139C36.1595 11.6459 36.5774 11.1634 37.0055 10.689L37.1665 10.5114C37.4647 10.1841 37.8435 9.69434 38.2801 9.46049C38.2333 9.37578 38.1792 9.29197 38.1169 9.20925C37.7079 8.66618 37.1297 8.27206 36.5591 7.91643L36.1891 7.68776C34.7944 6.8242 33.4214 5.92063 32.2106 4.79861C31.57 4.20492 30.9383 3.58302 30.3998 2.89055L30.2094 2.64571M31.5739 0.840936C30.9208 0.89661 30.2155 0.883378 29.6119 1.09958C30.1485 1.61496 30.6585 2.17145 31.1825 2.69549C31.2291 2.34105 31.3245 1.99095 31.4052 1.64534" fill="black"/>
</g>
<defs>
<clipPath id="clip0_5_46">
<rect width="67" height="61" fill="white"/>
</clipPath>
</defs>
</svg>
