<svg width="68" height="59" viewBox="0 0 68 59" fill="none" xmlns="http://www.w3.org/2000/svg">
<g clip-path="url(#clip0_5_66)">
<path fill-rule="evenodd" clip-rule="evenodd" d="M21.1826 6.97891C25.3212 6.09631 27.7758 6.09631 29.1648 4.729C30.5537 3.36168 30.8057 1.01468 31.3819 -0.797495C31.6994 -1.79599 34.8098 -2.70295 37.827 -2.56096C40.2857 -2.44524 42.7637 -1.43998 42.9551 -0.797495C43.3814 0.633392 44.0669 6.75851 46.3212 7.69955C48.5755 8.64059 53.3881 7.78267 54.7641 10.03C56.1401 12.2772 60.6589 21.4382 60.6589 23.5727C60.6589 24.9958 45.9326 25.4897 16.48 25.0546C16.856 13.5925 18.4235 7.56731 21.1826 6.97891Z" fill="white"/>
<path fill-rule="evenodd" clip-rule="evenodd" d="M3.14133 56.7012C3.20451 56.7447 3.15463 56.7455 3.14133 56.7012ZM2.8961 56.5242C2.90026 56.5274 2.90525 56.5306 2.91023 56.5338C2.86036 56.5298 2.8296 56.4807 2.8961 56.5242ZM68.2775 50.8648C67.9999 49.7162 67.723 48.5668 67.4454 47.4182C66.866 45.0163 66.2857 42.6137 65.7063 40.211C64.5716 35.512 63.4377 30.8129 62.303 26.1138C61.7269 23.7256 61.0685 21.356 60.4741 18.9718C59.9537 16.8823 59.524 14.7428 58.6303 12.7652C57.7184 10.7464 56.1165 9.05935 53.995 8.20373C52.2086 7.48414 50.1993 7.08571 48.2541 6.99475C48.4985 6.70499 48.5559 6.27597 48.1992 5.92583C47.757 5.49198 47.6672 4.84725 47.5492 4.27335C47.402 3.55617 47.1734 2.78748 46.7328 2.1838C46.5466 1.92864 46.2756 1.80952 45.9564 1.87793C45.7602 1.91979 45.5673 1.96889 45.377 2.02443C45.3155 1.96486 45.2548 1.90128 45.2016 1.824C45.081 1.64531 45.0029 1.38372 44.83 1.24688C44.7128 1.15351 44.5797 1.13098 44.4426 1.19859C44.0743 1.37969 44.0436 1.92784 44.1225 2.26429C44.1383 2.32949 44.1574 2.39469 44.1807 2.45827C44.1558 2.46954 44.13 2.48081 44.1043 2.49208H44.1034C43.6229 2.40354 43.0094 2.59028 42.5406 2.63535C41.996 2.68767 41.4491 2.72229 40.9021 2.73919C39.7824 2.7738 38.6609 2.7416 37.5462 2.63294C36.4597 2.5283 35.3806 2.36008 34.3074 2.17012C33.6391 2.05179 32.8244 1.95359 32.2375 1.56482C32.2283 1.37084 32.2234 1.17605 32.2192 0.982067C32.2108 0.644809 32.2292 0.379993 32.0438 0.0837861C32.0412 0.0805664 32.0372 0.0797615 32.033 0.0813713C31.8036 0.197279 31.639 0.395287 31.5184 0.630321C31.2982 0.573172 31.0612 0.581221 30.8559 0.664127C30.5657 0.780839 30.3496 0.915259 30.1244 1.13098C29.7894 1.45053 29.6913 1.824 29.5932 2.25302C29.5225 2.5605 29.4784 2.78024 29.3521 2.9863C29.3247 3.03057 29.2956 3.07725 29.264 3.11991C29.2523 3.13118 29.2307 3.15291 29.1941 3.18994C29.1576 3.22535 29.121 3.25997 29.0836 3.29458C29.062 3.3155 28.9556 3.39922 28.9721 3.38795C28.5116 3.71957 28.0952 3.84433 27.5266 4.0029C26.3029 4.34418 25.0493 4.56714 23.8298 4.92935C22.4972 5.32537 21.1938 5.80671 19.9194 6.35324C14.9624 8.47901 10.5257 11.8443 7.50065 16.2271C3.97762 21.3318 2.6808 27.5321 2.0382 33.5431C1.33493 40.1313 1.38398 46.7944 1.23019 53.41C1.21107 54.2374 1.19195 55.0649 1.17283 55.8923C1.15371 56.7012 1.10217 57.5722 1.84368 58.1171C2.50456 58.6016 3.30926 58.4495 4.0408 58.2314C4.82388 57.9988 5.62109 57.8136 6.42828 57.6808C7.95121 57.4321 9.52236 57.4023 11.0586 57.5472C11.8841 57.6253 12.8941 57.9215 13.5724 57.2953C13.816 57.0699 13.9565 56.7841 14.0712 56.4839C14.2142 56.1137 14.3813 55.7506 14.5475 55.3868C14.6847 55.0874 14.821 54.7864 14.9574 54.4861C15.1785 55.4238 15.3996 56.3616 15.6207 57.3001C15.708 57.6696 16.1062 57.6977 16.3465 57.5182C16.7388 57.7219 17.2542 57.7178 17.6998 57.7678C18.4164 57.8474 19.1387 57.8748 19.8587 57.899C21.2694 57.9456 22.6801 57.9714 24.0917 57.9891C26.9696 58.0245 29.8475 58.0116 32.7247 57.9996C38.4248 57.9754 44.1242 57.8627 49.8219 57.7195C51.4263 57.6792 53.0307 57.643 54.635 57.6052C55.4365 57.5866 56.2386 57.5681 57.0409 57.5464C57.2811 57.54 57.5238 57.5182 57.7516 57.4667H57.7524C57.8539 57.5528 57.9786 57.6188 58.1274 57.6583C58.6602 57.7999 59.1897 57.4844 59.3493 56.9862C59.4234 56.7576 59.4749 56.5483 59.4566 56.3262C59.4841 56.1587 59.5115 55.9913 59.5389 55.8239C60.4284 56.3688 61.4958 56.5169 62.5491 56.4493C63.7403 56.3728 64.9315 56.162 66.1137 56.005C67.2234 55.8577 69.0224 55.9052 69.0756 54.4209C69.0947 53.8776 68.8577 53.2683 68.7314 52.7451C68.58 52.1181 68.4288 51.4919 68.2775 50.8648Z" fill="black"/>
</g>
<defs>
<clipPath id="clip0_5_66">
<rect width="68" height="59" fill="white"/>
</clipPath>
</defs>
</svg>
