<svg width="68" height="61" viewBox="0 0 68 61" fill="none" xmlns="http://www.w3.org/2000/svg">
<g clip-path="url(#clip0_5_90)">
<path fill-rule="evenodd" clip-rule="evenodd" d="M66.5768 53.9581C66.4443 51.492 66.2813 49.0278 66.0863 46.5657C65.6977 41.6616 65.1888 36.7536 64.3421 31.9058C63.5067 27.1227 62.3376 22.4716 60.6532 17.9138C59.8718 15.7992 59.0255 13.9952 57.7979 12.0943C56.637 10.297 55.1558 9.07917 53.3103 7.99424C51.6475 7.01674 49.7158 5.32072 48.1211 4.22605C47.4553 3.76909 46.0855 3.79955 45.6289 3.12356C45.0311 2.23835 45.4187 0.883454 44.816 0.00115879C44.1271 -1.00763 43.162 -1.79131 42.0737 -2.36061C40.8858 -3.16585 39.4867 -3.53035 38.0839 -3.48017C36.0153 -3.60575 33.9319 -2.94648 32.6039 -1.26095C31.9412 -0.419766 31.5542 0.550742 31.5007 1.62536C31.4867 1.90489 31.5764 2.12526 31.724 2.28437C31.6365 2.40155 31.5494 2.5188 31.4628 2.63672C31.1912 2.23394 30.5562 2.0199 30.1331 2.3239C28.7488 3.31863 27.2527 4.10955 25.6737 4.68934C25.3043 4.51433 24.857 4.59538 24.5405 4.88108C24.4121 4.99692 24.2759 5.09603 24.1335 5.18017C23.548 5.33903 22.9534 5.47177 22.3501 5.57438C22.1612 5.60642 22.0012 5.71377 21.8798 5.85849C21.7 5.69022 21.4529 5.60941 21.1769 5.71477C17.9901 6.93086 14.9806 8.82003 12.6932 11.3795C10.1589 14.2151 8.82781 17.7423 7.81446 21.3561C6.71748 25.268 6.01645 29.2772 5.42764 33.2933C4.83102 37.3625 4.24338 41.4475 3.83288 45.5403C3.60186 47.8435 3.51375 50.1675 3.61832 52.4809C3.67045 53.637 3.77594 54.7894 3.94394 55.9345C3.9831 56.2024 4.02408 56.511 4.09008 56.819C3.88949 56.7799 3.65058 56.9497 3.69123 57.2214C3.97437 59.1139 6.25993 59.6651 7.83624 59.883C10.4147 60.2394 13.0065 60.4371 15.6097 60.4523C18.1678 60.4672 20.7256 60.3029 23.2784 60.1556C25.8956 60.0048 28.5128 59.8531 31.13 59.6995C41.6159 59.0841 52.1023 58.4754 62.5883 57.8597C63.5463 57.8034 64.6402 57.7273 65.4608 57.1711C66.5856 56.4084 66.6434 55.1966 66.5768 53.9581Z" fill="white"/>
<path fill-rule="evenodd" clip-rule="evenodd" d="M15.4583 32.7905C15.4219 32.7222 15.5064 32.6609 15.5624 32.7101C16.8353 33.8284 17.5018 35.6243 17.6415 37.2844C17.7896 39.0448 17.5797 40.8674 17.4995 42.627C17.4102 44.5869 17.33 46.5477 17.221 48.5068C17.1103 50.4944 16.9911 52.4813 16.889 54.4694L16.6591 58.9414C16.6347 59.418 16.6876 60.0041 16.5049 60.4489C16.2218 61.1385 15.3807 61.0317 15.204 60.4554L15.1984 60.4365L15.1823 60.4489C15.0264 59.9296 15.1431 59.3127 15.1695 58.7757L15.4103 53.8896C15.5805 50.436 15.7322 46.9824 15.915 43.5294L15.9771 42.3785C16.0626 40.829 16.1281 39.2835 16.1807 37.7346L16.1977 37.2182C16.2477 35.663 16.208 34.1947 15.4583 32.7905ZM46.3168 4.12015C47.026 4.05274 47.5615 4.28817 48.2054 4.53616C48.4858 4.6441 48.7514 4.76885 49.0205 4.898C49.3574 5.0597 49.574 5.3456 49.7815 5.64787L49.8924 5.81076C50.7562 7.07769 51.3373 8.53936 51.9929 9.91873C52.7599 11.5323 53.5345 13.1423 54.285 14.7635L54.6555 15.5623C54.8406 15.9616 55.0252 16.3613 55.2071 16.7622L55.5214 17.4599C55.8371 18.1675 56.1201 18.9161 55.6701 19.646C55.2518 20.3249 54.51 20.8502 53.9227 21.375C53.4327 21.8129 52.9427 22.2507 52.4525 22.6884C53.4657 23.7042 54.146 24.9832 54.5458 26.3549C55.1139 26.1179 55.8073 26.0725 56.3947 25.97C57.2169 25.8265 57.3177 27.0726 56.5417 27.0574C55.9686 27.0462 55.2962 27.1047 54.7083 26.9839C54.8105 27.4346 54.8847 27.8922 54.9318 28.351C55.1788 30.7556 54.639 33.1742 54.076 35.5008L54.0297 35.6918C53.4183 38.2101 52.8385 40.7349 52.3199 43.274C51.8001 45.8185 51.3324 48.3738 50.9174 50.9375C50.4949 53.547 50.196 56.171 49.8747 58.7943C49.8261 59.1913 49.5765 59.5316 49.1382 59.5316C48.7731 59.5316 48.3558 59.1905 48.4017 58.7943C48.7332 55.9375 49.2034 53.0957 49.6705 50.2585C50.4751 45.3725 51.4877 40.5289 52.6526 35.7171L52.8561 34.8792C53.3802 32.706 53.8557 30.4667 53.5928 28.225C53.3787 26.3996 52.6163 24.4533 51.1095 23.3196L51.0636 23.2855C50.7116 23.0271 50.5762 22.5329 50.9229 22.1926C51.1435 21.9761 51.3643 21.7598 51.5853 21.5436L52.9117 20.2472L53.1792 19.9854C53.4021 19.7674 53.6262 19.5508 53.8569 19.3409C53.9966 19.2139 54.3752 18.9717 54.4029 18.7628C54.4209 18.6265 54.2597 18.387 54.1943 18.2614L53.8949 17.6565C53.7249 17.3115 53.5602 16.9641 53.3941 16.6172C53.0502 15.8985 52.7012 15.182 52.3647 14.4597L50.3429 10.1229C49.7725 8.89945 49.2644 7.6078 48.5188 6.47668L48.3717 6.25623C48.249 6.07057 48.1406 5.89186 48.063 5.66479C47.9885 5.44634 47.8949 5.2065 47.757 5.02009C47.4341 4.5826 46.8168 4.33444 46.3003 4.24282C46.2256 4.2295 46.2527 4.12631 46.3168 4.12015ZM30.7671 2.98109C30.812 2.98109 30.8188 3.04526 30.7775 3.05774C30.1543 3.24532 29.5589 3.54799 29.073 3.98489C28.8406 4.19394 28.6066 4.4312 28.4631 4.71265C28.4082 4.82035 28.3778 4.93412 28.3555 5.05208L28.3484 5.09155C28.3114 5.30465 28.2584 5.42327 28.1502 5.59388L28.1317 5.62282C27.5143 6.57727 27.0816 7.6374 26.686 8.69887L25.8244 11.0133L24.9635 13.328C24.686 14.0739 24.4085 14.8198 24.131 15.5656C23.9777 15.9773 23.8201 16.3874 23.6626 16.7975C23.5944 16.9751 23.5211 17.1515 23.4587 17.3313C23.4502 17.3559 23.4229 17.5039 23.4024 17.5399L23.4094 17.5521C23.5831 17.8445 24.0462 18.0889 24.3087 18.3013L25.2127 19.0329C25.8572 19.5546 26.5182 20.0617 27.1434 20.6067C27.5361 20.9489 27.2917 21.5617 26.8538 21.7046C26.12 21.9439 25.401 22.2304 24.6781 22.5012C24.3861 22.6105 24.082 22.7057 23.7934 22.8263L23.6177 22.9023C23.5491 22.9332 23.5821 22.9329 23.5848 23.0597C23.5876 23.1927 23.6252 23.3312 23.6468 23.4619C23.8903 24.9357 24.1484 26.407 24.4209 27.8758C25.3845 33.0696 26.5358 38.2254 27.8488 43.3417C28.512 45.9254 29.2233 48.4964 29.901 51.0763C30.5771 53.6493 31.4667 56.1854 32.3161 58.7054C32.5558 59.416 31.4301 59.722 31.1963 59.0144C30.2174 56.0506 29.3219 53.0609 28.397 50.0803C26.7539 44.7842 25.4591 39.3731 24.3139 33.949C23.7463 31.2606 23.2271 28.562 22.7569 25.8548C22.6679 25.3424 22.5806 24.8295 22.4951 24.3164L22.3705 23.5617C22.2851 23.0237 22.2364 22.4634 22.6541 22.0376C23.062 21.6221 23.7621 21.4749 24.2988 21.28L24.3378 21.2656C24.6793 21.138 25.0233 21.0151 25.366 20.8884C24.8612 20.4906 24.3627 20.084 23.8592 19.6864C23.453 19.3657 23.0404 19.0515 22.6401 18.7234C22.31 18.4528 22.0408 18.1054 22.0064 17.6653C21.9713 17.2155 22.1638 16.7982 22.3191 16.3857L22.334 16.3458C22.4864 15.9339 22.6393 15.5223 22.7961 15.112L23.7662 12.5722C24.3827 10.9584 24.9732 9.33142 25.6216 7.73011C25.8781 7.09639 26.1577 6.47266 26.488 5.87365C26.6473 5.58479 26.8182 5.30209 27.0038 5.02947C27.2118 4.72372 27.4006 4.57467 27.7229 4.40598C28.2382 4.13627 28.6426 3.68405 29.1601 3.40602C29.668 3.13306 30.1906 2.98742 30.7671 2.98109ZM32.4401 0.101823C32.4598 0.0679522 32.512 0.0830128 32.5126 0.121546C32.5261 0.923616 32.3358 1.74325 32.2186 2.53633C32.101 3.33224 32.0633 4.17234 31.8931 4.95977C31.8896 4.99645 31.8825 5.0326 31.8725 5.06809L31.8643 5.09508C31.7925 5.3157 31.6057 5.50269 31.3765 5.56111C31.4486 5.9609 31.5165 6.36135 31.5736 6.76397C31.6717 7.456 31.7612 8.14905 31.8493 8.84233L31.9547 9.67433C32.0542 10.4584 32.151 11.2429 32.2466 12.0274C32.49 12.1292 32.7383 12.2133 32.9926 12.2861C33.5782 12.4539 34.1781 12.5221 34.7824 12.5814C36.0132 12.7023 37.2534 12.7583 38.4885 12.8269L38.7531 12.8418C40.1417 12.9215 41.5379 12.9356 42.923 12.793C43.6098 12.7222 44.2912 12.6036 44.961 12.4354C45.3013 12.3499 45.6321 12.2223 45.9717 12.1387C46.0844 12.111 46.1851 12.0471 46.2979 11.9788C46.3481 11.9154 46.4184 11.8674 46.51 11.8489L46.5348 11.8445L46.5594 11.841L46.5679 11.8371L46.5672 11.8398C46.6367 11.8304 46.7027 11.8305 46.765 11.839C46.7897 11.2273 46.8166 10.6156 46.8503 10.0041C46.9406 8.3617 47.1901 6.64838 46.8571 5.02027C46.8459 4.96551 46.9203 4.9462 46.9397 4.99747C47.5932 6.72103 47.5198 8.6057 47.5527 10.4197C47.5849 12.1937 47.5654 13.969 47.5566 15.7434C47.6836 15.7975 47.7968 15.8708 47.8865 15.9736C48.0656 16.1792 48.1172 16.5365 47.8865 16.7349C47.7842 16.8229 47.6711 16.884 47.551 16.9263C47.5446 18.4678 47.5338 20.0095 47.5183 21.551C47.8112 21.7775 47.8385 22.3151 47.5072 22.5386C47.4521 27.5308 47.3615 32.5231 47.2864 37.5145L47.1289 47.9867C47.108 49.382 47.0732 50.7772 47.0607 52.1723L47.0706 52.1762L47.1055 52.1924C47.1642 52.2199 47.2515 52.2645 47.2696 52.3102C47.2743 52.3221 47.2756 52.3303 47.275 52.3365C47.3711 52.3499 47.4662 52.3954 47.5486 52.4736C47.752 52.667 47.7106 52.9585 47.5486 53.1555L47.5053 53.2082C47.4043 53.3309 47.2125 53.3782 47.0559 53.3532C47.0575 54.224 47.0631 55.0949 47.0603 55.9656C47.0594 56.2315 47.0554 56.4975 47.0508 56.7635L47.0399 57.4012C47.0326 57.7651 47.0004 58.2275 46.6281 58.391C46.208 58.5755 45.8313 58.4244 45.6613 57.9973C45.6152 57.8816 45.6251 57.7739 45.6419 57.6595C45.6366 57.4877 45.6098 57.2885 45.6131 57.1291L45.627 56.4642C45.6292 56.3617 45.6333 56.2593 45.6362 56.1567L45.6241 56.158C44.1315 56.2305 42.6285 56.1951 41.1336 56.1942L40.4687 56.1952C39.9139 56.1957 39.3579 56.1927 38.804 56.1715L38.5963 56.1626C38.1816 56.1432 37.7454 56.1369 37.3155 56.0998C37.3702 56.5416 37.4215 56.9838 37.4671 57.4263C37.5103 57.846 37.0776 58.2026 36.6917 58.2026C36.2333 58.2026 35.9711 57.8419 35.9162 57.4263C35.6572 55.466 35.5512 53.4874 35.3037 51.5258C35.082 49.7689 34.8899 48.0079 34.6945 46.2476L34.6292 45.6609C33.9143 39.255 33.2202 32.8466 32.5562 26.4352L32.2471 23.438C31.9349 20.4172 31.6208 17.3961 31.356 14.3708C31.2045 12.6412 31.0649 10.9112 30.9336 9.17992C30.8373 7.90799 30.7767 6.64314 30.7373 5.3737C30.582 5.21367 30.5041 4.97999 30.5729 4.73865C30.6131 4.59785 30.6599 4.45779 30.7093 4.31798C30.7062 4.18058 30.703 4.04327 30.7003 3.90571C30.6978 3.77555 30.8299 3.70856 30.9355 3.73012C31.1275 3.26467 31.339 2.80322 31.5155 2.34226C31.8011 1.59611 32.0366 0.79213 32.4401 0.101823ZM16.4879 8.16591C19.4738 6.29264 23.0281 4.94465 26.588 5.08978C26.669 5.09311 26.6917 5.21661 26.6077 5.23533C24.7088 5.65975 22.7891 6.17671 20.9915 6.9291C19.1885 7.68374 17.4742 8.69985 15.9474 9.92093C13.1303 12.1739 10.9407 15.1043 9.49888 18.4075C8.65436 20.3425 8.0624 22.3854 7.5455 24.429C6.99851 26.5918 6.54769 28.7779 6.17286 30.9772C5.43251 35.3213 5.00148 39.7133 4.77213 44.1129C4.53878 48.5883 4.63496 53.0668 4.46854 57.5429C4.43978 58.3184 3.33249 58.3033 3.27621 57.5429C2.89914 52.4539 3.10804 47.2837 3.45677 42.1983C3.77033 37.6267 4.31791 33.0647 5.19966 28.5667L5.27647 28.1769C6.10077 24.0153 7.09503 19.753 9.0878 15.9842C10.7891 12.7667 13.4157 10.0934 16.4879 8.16591ZM57.9521 28.0552C57.9676 28.0106 58.0265 28.0112 58.0422 28.0552C58.3826 29.009 58.3948 30.0854 58.4853 31.0909L58.4924 31.1681C58.5792 32.0852 58.6445 33.0034 58.7052 33.9224L58.7278 34.2671C58.9716 38.0161 59.2764 41.761 59.7357 45.4904C60.1933 49.2056 60.8121 52.895 61.4812 56.577C61.5557 56.987 61.3743 57.4046 60.9449 57.5227C60.5663 57.6268 60.0803 57.3933 60.0003 56.9858C59.5849 54.8724 59.249 52.7561 58.9493 50.6243C58.4217 46.8706 58.028 43.0995 57.7749 39.3171C57.6479 37.4175 57.5697 35.5186 57.5386 33.6148C57.5242 32.7316 57.5471 31.8462 57.5941 30.9638L57.6054 30.7602C57.6573 29.8584 57.652 28.9152 57.9521 28.0552ZM25.6872 51.9344C25.7271 51.9128 25.7765 51.9572 25.7512 51.9985C25.1731 52.9391 24.3909 53.7502 23.6349 54.5496C22.8446 55.3852 22.0738 56.246 21.2676 57.0652C20.685 57.657 19.7479 56.7024 20.3627 56.1594C21.2272 55.3961 22.1307 54.6708 23.0105 53.9245L23.3953 53.598C24.1167 52.9879 24.8595 52.3832 25.6872 51.9344ZM53.1484 51.4633C53.1052 51.381 53.2038 51.3143 53.2708 51.3688C53.7372 51.7484 54.1551 52.2013 54.6055 52.6019C55.0515 52.9988 55.5141 53.369 55.9893 53.73C56.4666 54.0925 56.9542 54.4405 57.455 54.7698C57.8704 55.0429 58.2985 55.2617 58.7335 55.4885C58.9349 55.5145 59.1215 55.6134 59.2708 55.8011C59.5069 56.0978 59.532 56.6574 59.2045 56.915L59.1458 56.9612C58.7636 57.2619 58.31 57.2985 57.9338 56.9612C57.5138 56.5847 57.1168 56.1703 56.7134 55.7724L56.5922 55.6536C56.1587 55.2318 55.7359 54.7964 55.3372 54.3415L54.9762 53.9305C54.3067 53.1661 53.6097 52.3423 53.1484 51.4633ZM51.0001 7.39571C50.9225 7.34428 50.9703 7.2058 51.0661 7.23884L51.2418 7.29961C51.9756 7.5549 52.731 7.83801 53.3972 8.23107C54.1132 8.65341 54.7744 9.15655 55.406 9.69631C56.7134 10.8135 57.8256 12.1874 58.7709 13.6194C60.6676 16.4929 61.8405 19.7837 62.7875 23.0765C63.7973 26.5873 64.5748 30.1738 65.2095 33.7703C65.8545 37.4254 66.3521 41.1135 66.6792 44.8108C66.8403 46.6322 66.9484 48.4546 67.0028 50.2823C67.0308 51.2225 67.0299 52.162 67.0221 53.1026C67.0201 53.3445 67.0217 53.5862 67.0244 53.828L67.0336 54.5534C67.0385 55.012 67.0934 55.4939 66.9845 55.942C66.8093 56.6632 65.618 56.5287 65.6572 55.7915C65.6213 55.5463 65.6199 55.2928 65.6292 55.0388C65.6235 55.006 65.6174 54.9727 65.6105 54.9387C65.591 54.8412 65.6076 54.751 65.6459 54.6735C65.652 54.5516 65.6576 54.4305 65.6596 54.3115C65.6674 53.8273 65.6669 53.3449 65.6535 52.8608C65.6253 51.8401 65.5848 50.8193 65.5438 49.799C65.4619 47.7601 65.348 45.7204 65.1829 43.6865C64.6085 36.607 63.3956 29.4871 61.3581 22.6762C60.4119 19.5133 59.1073 16.4085 57.2365 13.6754C56.406 12.462 55.4691 11.3413 54.4304 10.3012C53.3851 9.2545 52.2333 8.21326 51.0001 7.39571ZM36.9024 53.0333L37.0436 54.0557C37.1141 54.5669 37.184 55.0783 37.2504 55.5901C37.701 55.5283 38.1621 55.5025 38.5963 55.4639C39.3565 55.3965 40.122 55.3639 40.8845 55.3324C42.4612 55.2673 44.0458 55.1544 45.6241 55.1623C45.6403 55.1623 45.6556 55.1634 45.6709 55.1647L45.7492 53.1475L44.6403 53.1458C43.7007 53.1443 42.7614 53.1363 41.8218 53.1282C40.9757 53.1209 40.1292 53.1198 39.2832 53.1021L38.9206 53.0935C38.279 53.0762 37.5706 53.1119 36.9024 53.0333ZM45.8422 50.1054C45.797 50.1107 45.751 50.1152 45.702 50.1173C45.4824 50.1266 45.261 50.1202 45.0412 50.122C44.5732 50.1261 44.1052 50.1292 43.6371 50.1291C42.7011 50.1291 41.7651 50.1347 40.8293 50.146C39.8658 50.1577 38.903 50.1744 37.9394 50.1763C37.4726 50.1772 37.0072 50.1648 36.5405 50.1517C36.616 50.8156 36.6949 51.479 36.782 52.1409C37.5067 52.0429 38.2862 52.0923 38.9945 52.0855L39.0865 52.0843C40.0532 52.0677 41.0207 52.08 41.9877 52.0811C42.9824 52.0823 43.977 52.0856 44.9719 52.0937L45.7891 52.1004L45.7907 52.0593C45.8146 51.4086 45.8301 50.7572 45.8422 50.1054ZM36.181 46.9293C36.2716 47.7129 36.3566 48.498 36.4433 49.2827C36.501 49.2738 36.5593 49.2662 36.6188 49.2599C37.0863 49.211 37.5528 49.169 38.022 49.1399C38.9573 49.0819 39.8925 49.0513 40.8293 49.0261C41.7926 49.0003 42.756 48.9805 43.7197 48.9668C44.1879 48.9602 44.6556 48.9609 45.1238 48.9641C45.3435 48.9656 45.5653 48.9587 45.7845 48.9735C45.8106 48.9752 45.8357 48.978 45.8604 48.9808L45.8769 47.8026C45.8797 47.6062 45.8827 47.4099 45.8859 47.2136C45.1623 47.2583 44.4266 47.2412 43.7036 47.2414L43.537 47.2418C42.6284 47.246 41.7196 47.2335 40.8112 47.2146C39.8741 47.1951 38.9389 47.1644 38.0034 47.1044C37.6244 47.0801 37.2482 47.0478 36.8713 47.0062L36.6828 46.9846C36.5187 46.9652 36.3498 46.9496 36.181 46.9293ZM45.9605 43.6043C44.2179 43.7428 42.4845 43.8006 40.7373 43.8178L40.475 43.8201C38.931 43.8318 37.3742 43.8956 35.8265 43.8546C35.9191 44.6578 36.0113 45.4609 36.1043 46.2639C36.326 46.2536 36.5487 46.2535 36.7653 46.2457C37.206 46.2298 37.6452 46.2258 38.0861 46.2248C38.9944 46.2227 39.9028 46.2306 40.8112 46.2288C41.7474 46.2268 42.6835 46.211 43.6195 46.1934C44.3784 46.1791 45.1454 46.1219 45.9063 46.124L45.9605 43.6043ZM46.0343 40.1778C45.8323 40.2449 45.5939 40.2493 45.3325 40.2613L44.6579 40.2949C44.3453 40.3102 44.0326 40.3247 43.7197 40.3361C42.6772 40.3743 41.6346 40.41 40.5919 40.4432C39.5235 40.4772 38.4498 40.4969 37.3812 40.4632C36.8578 40.4466 36.3387 40.4192 35.8168 40.3755C35.6878 40.3646 35.5563 40.3576 35.4245 40.3483C35.546 41.4124 35.6679 42.4763 35.7903 43.5403C37.3306 43.3511 38.8828 43.2332 40.4212 43.0375L41.8122 42.8597C43.2026 42.6821 44.5918 42.5078 45.9873 42.3608L46.0343 40.1778ZM46.1085 36.7135C45.8122 36.7867 45.4745 36.783 45.19 36.801L45.1373 36.8047C44.5982 36.8456 44.0577 36.8661 43.5173 36.8794C42.4583 36.9055 41.3985 36.9186 40.3391 36.9251L39.7021 36.9291C38.8528 36.934 38.004 36.9362 37.1545 36.9164C36.6096 36.9037 36.0659 36.877 35.5214 36.8497C35.3583 36.8415 35.1916 36.8361 35.0243 36.8276C35.1381 37.8351 35.2531 38.8423 35.3678 39.8496C35.5467 39.8211 35.7264 39.7995 35.8978 39.7705C36.3366 39.6963 36.7746 39.6371 37.2166 39.584C38.1739 39.4692 39.1362 39.3866 40.0981 39.3168C41.0855 39.2452 42.0737 39.1846 43.0613 39.1153L43.7607 39.0659C43.9939 39.0497 44.227 39.0341 44.4603 39.0197C44.8586 38.9953 45.3217 39.0229 45.7168 38.9361C45.8238 38.8915 45.9426 38.8813 46.0615 38.9067L46.1085 36.7135ZM46.1982 32.6584C46.0957 32.7887 45.9426 32.8571 45.76 32.8807C44.8091 33.0042 43.8337 33.024 42.8747 33.0822L42.7057 33.0929C41.7155 33.1582 40.7248 33.2095 39.7339 33.2622C38.7159 33.3163 37.6982 33.3604 36.6794 33.3959C36.2469 33.411 35.8123 33.4128 35.3791 33.4072L35.1936 33.4044C35.0157 33.4014 34.8294 33.4018 34.6427 33.3958C34.746 34.3378 34.8503 35.2798 34.9562 36.2215C35.1465 36.2008 35.3368 36.1849 35.5214 36.1654C36.0656 36.1078 36.6091 36.0509 37.1545 36.0079C38.188 35.9263 39.2222 35.8773 40.2576 35.826C41.3169 35.7735 42.3768 35.7386 43.4363 35.689C43.95 35.665 44.4634 35.6351 44.9756 35.5878C45.3346 35.5548 45.7609 35.4325 46.1354 35.4774C46.1559 34.5377 46.1772 33.5981 46.1982 32.6584ZM46.2817 29.0259C46.2655 29.051 46.2466 29.0753 46.2235 29.098C45.8049 29.512 45.2889 29.4801 44.7341 29.5235L44.7001 29.5263C44.1564 29.5721 43.6124 29.6156 43.068 29.6549C41.9799 29.7335 40.8897 29.7885 39.8 29.8375C38.6849 29.8877 37.5625 29.9222 36.4463 29.8994C35.7314 29.8848 34.9828 29.8874 34.2536 29.8176C34.3656 30.8551 34.4782 31.8926 34.5917 32.9299C34.7967 32.8912 35.003 32.8616 35.1985 32.8308C35.691 32.7532 36.1841 32.6752 36.6794 32.6181C37.6693 32.5041 38.6595 32.3974 39.6513 32.3011C40.4995 32.2188 41.3474 32.1352 42.1963 32.0599L42.7057 32.0159C43.7184 31.9306 44.744 31.7899 45.76 31.7691C45.9274 31.7657 46.1168 31.8569 46.2127 32.0009C46.2352 31.0092 46.2585 30.0175 46.2817 29.0259ZM46.3521 26.0852C46.0934 26.1166 45.8148 26.0987 45.5761 26.1065C44.9727 26.1263 44.3692 26.1446 43.7657 26.1624L40.1444 26.2694C38.9115 26.3058 37.6743 26.3331 36.4409 26.3156C35.8984 26.308 35.3534 26.3071 34.8111 26.2775L34.6304 26.2666C34.4072 26.2517 34.1333 26.2496 33.8658 26.2224L34.1816 29.1506C34.9072 29.0457 35.6549 29.0064 36.3743 28.9449L36.5281 28.9314C37.5891 28.8346 38.6553 28.7706 39.7182 28.6985C40.8086 28.6246 41.8975 28.5349 42.9864 28.4431C43.5306 28.3973 44.0748 28.3516 44.6186 28.3015L44.6858 28.2949C45.1995 28.2412 45.6826 28.127 46.1376 28.4302C46.2042 28.4745 46.2563 28.5337 46.292 28.6001C46.3118 27.7618 46.3313 26.9234 46.3521 26.0852ZM46.4364 22.6677C44.2311 22.7566 42.0254 22.824 39.8184 22.8537C38.5761 22.8703 37.3354 22.8586 36.0933 22.8326C35.5547 22.8213 35.0116 22.7955 34.4734 22.7542L34.2718 22.738C34.016 22.7164 33.7471 22.7008 33.4794 22.675C33.5901 23.6818 33.6998 24.6887 33.8087 25.6959C34.072 25.6469 34.3472 25.6243 34.5779 25.5947L34.6304 25.5878C35.2037 25.5088 35.7825 25.4628 36.3586 25.412C37.4806 25.313 38.608 25.2493 39.733 25.1951C40.8849 25.1396 42.0374 25.0926 43.1895 25.0413L44.3417 24.9897C44.5337 24.9812 44.7257 24.9728 44.9177 24.9647C45.1922 24.9531 45.4665 24.9421 45.7408 24.9307C45.8761 24.9251 46.0168 24.9067 46.1523 24.9137L46.1909 24.9085C46.2086 24.9062 46.2243 24.9044 46.2388 24.9029C46.2756 24.8748 46.3153 24.8515 46.3573 24.8338L46.3828 24.8239L46.4364 22.6677ZM33.1178 19.4292C33.2202 20.3355 33.3215 21.2421 33.4214 22.1488C33.736 22.1128 34.0543 22.0929 34.3546 22.0659C34.9602 22.0116 35.5687 21.964 36.1761 21.936L37.3901 21.8796C38.1993 21.8421 39.0086 21.8059 39.8184 21.7763C42.0348 21.6953 44.2511 21.6025 46.4662 21.4893C46.4818 20.8744 46.498 20.2595 46.5144 19.6445C46.4081 19.7586 46.2545 19.8335 46.0526 19.833C43.7272 19.8268 41.3999 19.8403 39.0747 19.802C37.9108 19.7828 36.7482 19.7546 35.5856 19.6948C35.0168 19.6656 34.4447 19.606 33.8802 19.5277C33.6395 19.4943 33.376 19.4705 33.1178 19.4292ZM32.7457 16.1995C32.855 17.1279 32.9622 18.0566 33.0677 18.9855C33.3565 18.9339 33.6548 18.9065 33.9243 18.8698C34.5032 18.791 35.0857 18.7282 35.6687 18.6953C36.8033 18.631 37.9385 18.5986 39.0747 18.5745C41.3997 18.5251 43.7271 18.5254 46.0526 18.507C46.2711 18.5053 46.4333 18.5918 46.5398 18.721C46.5559 18.1412 46.5729 17.5614 46.5905 16.9815C46.3659 16.9578 46.1432 16.9242 45.9371 16.9098C45.3037 16.8655 44.6701 16.8251 44.0362 16.7887C42.7135 16.7127 41.3895 16.6479 40.0658 16.5902C38.7418 16.5325 37.4174 16.4762 36.093 16.4271L35.5137 16.4059C34.5927 16.3716 33.6561 16.3283 32.7457 16.1995ZM32.3292 12.7029C32.443 13.6432 32.555 14.5836 32.6669 15.5243L32.7009 15.8154C33.8086 15.5998 34.9759 15.5367 36.093 15.4891C37.4176 15.4327 38.74 15.4037 40.0658 15.4077C41.3903 15.4117 42.7128 15.4431 44.0362 15.4979C44.6975 15.5252 45.3587 15.5568 46.0196 15.5927C46.2013 15.6026 46.4144 15.5973 46.6337 15.6005C46.6384 15.4527 46.6425 15.3049 46.6476 15.1572C46.6677 14.5585 46.6874 13.9598 46.7079 13.3612C46.2609 13.591 45.6797 13.6837 45.2305 13.7817L45.1793 13.793C44.4375 13.9598 43.6801 14.0679 42.923 14.134C41.4361 14.2638 39.9338 14.2153 38.4484 14.0895L38.1881 14.0673C36.8837 13.954 35.5314 13.8105 34.2668 13.4874C33.6645 13.3335 33.0418 13.1181 32.502 12.806C32.4459 12.7735 32.388 12.7391 32.3292 12.7029ZM44.889 1.52847C44.9019 1.47763 44.978 1.46606 45.003 1.51358C45.1786 1.84762 45.244 2.24857 45.3659 2.6065C45.4972 2.99131 45.6196 3.37895 45.7645 3.75909C46.067 4.55334 46.4238 5.31655 46.8493 6.05229C47.2707 6.7808 46.0908 7.30084 45.7807 6.50326C45.4606 5.68022 45.1975 4.82921 45.0383 3.95949C44.9606 3.53515 44.8913 3.10499 44.8689 2.67383C44.8495 2.3035 44.7975 1.88973 44.889 1.52847Z" fill="black"/>
</g>
<defs>
<clipPath id="clip0_5_90">
<rect width="68" height="61" fill="white"/>
</clipPath>
</defs>
</svg>
