<svg width="67" height="61" viewBox="0 0 67 61" fill="none" xmlns="http://www.w3.org/2000/svg">
<g clip-path="url(#clip0_5_78)">
<path fill-rule="evenodd" clip-rule="evenodd" d="M67.4292 2.58969C66.5842 0.224833 67.219 -2.76924 65.4771 -4.72607C64.9619 -5.04422 64.6887 -4.86721 64.4766 -4.31247C64.3486 -3.58247 64.0487 -1.06898 65.1274 -1.07015C65.2631 0.499625 65.1782 2.0808 64.846 3.62136C64.05 3.49159 63.4695 3.9073 62.8888 4.21646C62.4557 4.44698 62.0225 4.61826 61.4996 4.46005C59.3406 4.07341 58.7253 6.37692 58.6991 8.25718C58.6674 9.1746 58.5825 11.3132 58.1848 12.2034C56.3846 8.41545 52.6039 6.69092 49.0016 5.83941C48.4369 5.68071 47.9551 5.46384 47.5929 5.09318C44.5577 3.8756 46.0158 -0.113621 44.6195 -2.40632C42.4339 -5.13193 39.8091 -5.91619 36.5023 -5.44908C33.6091 -5.12403 31.6425 -2.13802 31.8208 0.680544C31.8743 1.25568 31.5346 1.8606 31.3347 2.45246C29.3377 4.88039 26.2302 5.96666 23.5575 7.43374C14.643 11.8605 11.5536 15.2435 8.08933 24.6631C6.46872 28.2072 4.52924 31.6468 3.88512 35.5501C3.12822 40.1496 3.12585 44.858 3.38934 49.5029C2.89741 49.5629 3.43275 53.1335 3.86424 54.3704C4.01208 54.7943 4.36633 55.1 4.80773 55.0929C5.6956 55.5314 7.78022 57.2982 8.70888 57.2396C11.7094 57.0519 14.626 57.3422 17.5168 57.1921C20.6443 57.0297 23.7416 56.4369 26.8824 56.5137C32.3597 56.6478 28.4382 56.9782 34.105 57.2396C37.6823 57.4072 50.7332 55.4222 54.3003 55.7462C57.2018 56.3664 58.5255 55.3209 58.0829 52.2412C57.9192 51.0606 57.3967 48.4353 59.1157 48.3238C59.9289 48.4197 60.602 49.2453 61.2113 49.7277C66.5925 53.7982 72.0898 50.8672 72.523 44.1755C73.3386 38.563 74.4821 37.2371 71.9963 31.6324C64.1316 10.768 75.9806 13.6027 67.9805 3.83008C67.3557 4.38274 67.5146 2.90767 67.4292 2.58969Z" fill="white"/>
<path fill-rule="evenodd" clip-rule="evenodd" d="M64.4404 -4.88245C64.8696 -5.31103 65.5519 -5.20443 65.9704 -4.82336C66.3963 -4.43639 66.6527 -3.82806 66.8714 -3.30369C67.8526 -0.946078 67.6241 1.63531 68.1205 4.10194C69.0288 4.60043 69.8488 5.25121 70.4294 6.12668C71.3116 7.45653 71.7301 9.00533 71.2878 10.5814C71.0593 11.397 70.6711 12.1526 70.3942 12.9507C70.0985 13.8004 69.9175 14.6833 69.8307 15.5805C69.7455 16.461 69.734 17.3463 69.7586 18.2301C69.7717 18.6878 69.7955 19.1448 69.8192 19.6016C69.8405 20.0111 69.912 20.4384 69.8156 20.8396L69.8037 20.8858C69.8413 20.8799 69.8782 20.8724 69.9151 20.8641C70.2313 20.7925 70.5097 20.681 70.8398 20.7251C71.097 20.7592 71.2305 20.9772 71.1216 21.2236C71.074 21.3309 71.011 21.4208 70.9348 21.4973C71.5983 26.4823 72.7572 31.3872 73.5198 36.3562C73.8654 38.6107 74.0759 40.8718 73.9572 43.1544L73.9447 43.3808C73.8236 45.4766 73.5261 47.7861 72.4779 49.6189C71.9881 50.477 71.3149 51.2384 70.4991 51.7868C70.1255 52.0381 69.725 52.2345 69.2901 52.3327C67.036 53.2448 64.6525 53.0209 62.527 51.8152C61.5712 51.2733 60.6178 50.6417 59.8372 49.8578C59.458 49.4766 59.0919 48.9914 58.8674 48.4613C58.8683 48.5803 58.8471 48.702 58.8707 48.8193L58.918 49.0511C59.272 50.7738 60.6212 57.1402 60.6391 57.6746C60.6488 57.9629 58.2599 57.956 58.0007 57.9648L57.9935 57.965C54.1245 58.1289 50.2531 58.0414 46.3862 57.879L46.0809 57.866C42.3308 57.7047 38.2499 57.4879 34.4958 57.3767L34.5036 57.313C34.5485 56.9703 34.7672 55.4468 34.7916 55.3301L34.7925 55.3261C34.8989 54.8904 35.1041 53.5353 34.9961 53.0858C34.7179 51.9279 33.4638 52.1923 32.5815 52.3151L32.3957 52.3398C32.2529 52.3598 31.9054 52.4117 31.9086 52.4152C31.8149 52.3159 32.0379 52.0344 32.0928 51.9591L32.1368 51.8971C32.3738 51.56 32.5883 51.2098 32.5649 50.7756C32.5078 49.7146 31.0157 49.7745 30.2825 49.848C30.2308 49.8532 30.2097 49.9352 30.2692 49.9476L30.4139 49.9782C30.8791 50.0796 31.9123 50.3382 31.889 50.7292C31.8757 50.9514 31.6428 51.1152 31.5006 51.2552C31.3437 51.4096 31.1878 51.5758 31.0721 51.7652C30.8493 52.13 30.7987 52.6221 31.0191 53.0018C31.2734 53.4398 31.7244 53.4909 32.176 53.451L32.2016 53.4487C32.301 53.4392 32.4004 53.4295 32.4998 53.4197L33.0961 53.3604C33.2438 53.3458 33.7183 53.2196 33.8569 53.3066C34.0533 53.4301 33.8171 53.9774 33.7727 54.1576L33.7704 54.1705C33.7323 54.4315 33.7095 57.1665 33.7057 57.3471C30.78 57.2781 27.854 56.6172 24.9284 56.7725C22.6042 56.8958 20.2863 57.109 17.9665 57.2942L17.9079 56.7882C17.265 51.2787 16.2568 44.0088 16.7407 38.5593C16.7785 38.1327 16.123 38.1353 16.0854 38.5593C15.5851 44.1944 16.6802 51.7641 17.3172 57.345C16.3296 57.4212 15.3417 57.4904 14.3526 57.5432L14.1003 57.5563C10.7346 57.7272 7.26062 57.7374 3.96675 56.9531C3.86519 56.9289 3.83079 56.8258 3.85208 56.74C3.81932 56.7592 3.77018 56.7484 3.75625 56.7018C3.37254 55.4166 3.17764 52.1446 3.00375 50.7286L2.99206 50.636C2.8135 49.2603 2.71112 47.8689 2.6374 46.4849C2.48833 43.7162 2.50635 40.9441 2.70784 38.1787C3.34917 29.3583 5.90304 20.4471 11.263 13.3585C12.5588 11.645 14.034 10.0771 15.804 8.8646C17.5404 7.67465 19.4881 6.83654 21.4646 6.15589C22.771 5.70559 24.0979 5.32028 25.4248 4.9358C25.475 4.91028 25.5252 4.88513 25.5757 4.86038L25.6517 4.82354C26.1234 4.59627 26.5879 4.34744 27.0711 4.14522L27.1779 4.10108C27.8782 3.8157 28.6941 3.56313 29.4521 3.57183C30.6799 2.94353 31.7111 1.99407 31.6112 0.47107C31.5703 -0.154742 32.5368 -0.15391 32.5712 0.47107C32.6613 2.1338 31.6531 3.31302 30.3679 4.10444L30.374 4.11078L30.3801 4.11775C30.5808 4.3491 30.7954 4.56381 31.0272 4.76354C32.4147 5.96357 34.17 6.95979 35.9244 7.61548C37.9828 8.38526 40.0395 8.61578 42.1682 7.99338C43.2813 7.6679 44.3322 7.16609 45.2979 6.51698C45.5928 6.31891 45.8753 6.10679 46.1464 5.87951C45.8901 5.52333 45.6853 5.13969 45.5133 4.73275C45.1677 3.91387 44.8818 2.80455 45.2348 1.9399C45.3216 1.72685 45.6665 1.59537 45.7869 1.86666C46.1186 2.60898 46.257 3.41122 46.6436 4.13698C46.7911 4.41318 46.9606 4.67533 47.1506 4.92249C47.1506 4.9358 48.602 5.18796 48.602 5.18796C50.3565 5.18713 52.0085 5.87202 53.5607 6.72752C54.4782 7.23337 55.3798 7.77124 56.2789 8.30992L58.0361 9.36309C58.1655 9.44048 58.3105 9.51538 58.4554 9.59535C58.2859 8.74477 58.2032 7.87762 58.2589 7.01796C58.3432 5.7214 58.8396 4.30342 60.1542 3.84147C60.7759 3.6226 61.495 3.69001 62.0987 3.93301C62.3772 4.04535 62.6802 4.19432 62.939 4.39321C63.0644 3.82066 63.5927 3.39125 64.1234 3.20159C64.2954 3.13992 64.4715 3.10081 64.6501 3.08167C64.6448 2.9898 64.6443 2.89686 64.6456 2.80115L64.6468 2.72882C64.655 2.3044 64.6517 1.87998 64.6427 1.45639C64.6263 0.653321 64.5886 -0.133105 64.5084 -0.933678C64.4414 -1.59641 64.3249 -2.25157 64.2385 -2.91162L64.2027 -3.19536C64.1297 -3.75431 64.0074 -4.45042 64.4404 -4.88245ZM11.664 49.3092L11.5175 49.2208C11.0379 48.9333 10.5438 48.6681 9.96276 48.8012C9.40923 48.928 9.01657 49.3846 8.81025 49.8991C8.71278 50.1422 8.66191 50.3874 8.62432 50.6464C8.60318 50.7913 8.58893 50.9375 8.56387 51.0819L8.55549 51.1266C8.54414 51.1841 8.52677 51.2642 8.51096 51.3337C8.35992 51.2661 8.20782 51.159 8.08422 51.0954L7.98454 51.0445C7.7506 50.9262 7.50722 50.8135 7.25229 50.7588C6.70007 50.6402 6.08749 50.8117 5.77182 51.3144C5.50183 51.7441 5.50735 52.2508 5.61064 52.7325L5.618 52.766C5.6628 52.9659 5.89435 53.7664 6.23116 53.6497C6.5587 53.5361 6.60244 53.0937 6.62726 52.7989L6.6291 52.7708C6.64027 52.5485 6.59691 52.0815 6.84464 51.9971C7.15417 51.8917 7.74971 52.3732 8.01927 52.499C8.50129 52.7239 9.03082 52.7903 9.42307 52.3527C9.77476 51.9604 9.80443 51.3862 9.89546 50.8886L9.91896 50.7633C9.96725 50.5106 10.0607 50.1067 10.336 50.1169C10.561 50.1254 10.808 50.3622 10.9935 50.4747C11.1982 50.5988 11.4107 50.7023 11.6328 50.7905C12.1512 50.9964 12.7276 51.0621 13.2791 51.0014C13.5986 50.9663 13.8067 50.8112 13.9196 50.506C13.9579 50.4163 13.987 50.3239 14.0072 50.2283C14.1862 49.5448 13.2079 49.0569 12.8472 49.6684C12.431 49.6523 12.0436 49.5385 11.664 49.3092ZM71.8734 44.7386C71.5751 44.5224 71.17 44.5689 70.9034 44.8125L70.8875 44.8276C70.8136 44.9001 70.647 45.0889 70.539 45.2548L70.5052 45.2282C70.4999 45.2238 70.4946 45.2196 70.4895 45.2154L70.4749 45.2031C70.2544 45.0138 70.024 44.8403 69.7403 44.763C69.001 44.5611 68.3291 45.064 68.0063 45.7088C67.8532 46.0146 67.7877 46.3304 67.7114 46.6602L67.7049 46.6906C67.6741 46.8443 67.6341 47.1559 67.5014 47.232C67.4527 47.26 67.3421 47.2047 67.2327 47.1406C66.9831 46.9943 66.7591 46.8078 66.5145 46.6536C65.9407 46.2917 65.2886 46.1423 64.6442 46.4031C64.0062 46.6611 63.5492 47.2702 63.5384 47.9801C63.5305 48.5033 63.8753 49.4163 64.5243 49.3525C64.6543 49.3397 64.8216 49.2584 64.8426 49.1062C64.8986 48.7023 64.585 48.206 64.9446 47.8724C65.2923 47.5498 65.6525 47.8211 65.9673 48.0448L66.1928 48.2056C66.5592 48.4641 66.9364 48.7008 67.4002 48.7291C67.987 48.7647 68.5287 48.4355 68.824 47.9279C69.0909 47.4692 69.0948 46.9503 69.3035 46.4792C69.3492 46.3763 69.4668 46.2815 69.4276 46.2341C69.5858 46.3178 69.7898 46.5589 69.8884 46.6264C70.379 46.9628 71.0349 46.9603 71.465 46.5144C71.6363 46.337 71.7454 46.118 71.8723 45.909C71.9182 45.8334 71.9754 45.7635 72.0173 45.6858C72.0326 45.6573 72.0578 45.5511 72.0785 45.4565L72.1103 45.3062L72.1136 45.2816C72.1408 45.054 72.0617 44.8749 71.8734 44.7386ZM52.9762 42.752C52.4126 42.4513 51.7178 42.5656 51.21 42.93C50.6407 43.3385 50.3613 43.9661 50.1713 44.6293C50.033 45.1122 49.9668 45.7782 49.5694 46.1279C49.107 46.5348 48.3317 46.1028 47.8436 45.9424C47.2529 45.7484 46.5432 45.6689 45.9669 45.9559C45.4022 46.2373 45.13 46.8111 45.0717 47.4258C45.0172 47.9996 45.0981 48.7551 45.4203 49.2352C45.452 49.2825 45.5125 49.2703 45.5326 49.2202C45.7443 48.6905 45.7035 48.0845 45.8754 47.5364C46.059 46.9512 46.4891 46.8274 47.0353 46.9849C47.605 47.149 48.1266 47.4562 48.7125 47.5656C49.3371 47.6822 49.9556 47.562 50.448 47.1426C50.8623 46.7897 51.1132 46.2757 51.2828 45.7637C51.448 45.2645 51.4749 44.5961 51.8268 44.1817C51.9156 44.0771 52.0703 43.9508 52.214 43.9374C52.4274 43.9174 52.5046 44.0785 52.677 44.2021C53.1318 44.5281 53.8578 44.5347 54.1363 43.9612C54.2275 43.7733 54.2727 43.5067 54.1363 43.3229C53.8972 43.0007 53.7009 43.0034 53.3854 43.073C53.3754 43.0644 53.3641 43.0534 53.3516 43.0384L53.3419 43.0265C53.2584 42.9191 53.0963 42.8161 52.9762 42.752ZM30.6535 39.3668C30.6348 38.9357 30.1239 38.5219 29.721 38.8232C29.6559 38.8711 29.592 38.9205 29.5292 38.9716L29.5035 38.9998C29.4285 38.9995 29.3586 38.9795 29.2846 38.9555L29.155 38.9133C28.815 38.8037 28.4881 38.7154 28.1251 38.7963C27.5005 38.9356 27.1043 39.483 26.9008 40.0641C26.7112 40.6057 26.7735 41.1582 26.6845 41.7134C26.6002 42.2398 26.3339 42.4453 25.834 42.3326L25.8083 42.3266C24.8139 42.0846 23.6809 41.408 22.8091 42.3356C21.8672 43.3377 22.4833 44.9292 23.5143 45.573C23.5593 45.6012 23.6091 45.5549 23.5989 45.507C23.4619 44.8597 23.0623 44.2424 23.1962 43.5553C23.289 43.0791 23.6147 42.8538 24.0794 42.9296C25.0569 43.0894 25.9712 43.8808 26.9737 43.3065C27.4745 43.0194 27.7504 42.4803 27.8752 41.928C27.9876 41.4309 27.9557 40.8705 28.171 40.4016C28.4066 39.8886 28.8034 40.2605 29.2309 40.3305C29.8358 40.4296 30.6857 40.1073 30.6535 39.3668ZM63.4472 24.035C63.4492 23.6066 62.7939 23.6061 62.7919 24.035C62.7678 29.4627 60.2686 34.4797 59.8197 39.8534C59.7841 40.2804 60.4396 40.2779 60.4749 39.8534C60.924 34.4781 63.423 29.4714 63.4472 24.035ZM9.33928 32.9197C8.99429 32.5227 8.48892 32.6459 8.07841 32.8448C7.46181 33.1434 6.87175 33.4792 6.3061 33.8674C6.16694 33.9627 6.25466 34.1702 6.41848 34.1383C6.83334 34.0573 7.23714 33.9665 7.63963 33.835C7.94211 33.7363 8.25696 33.5929 8.57239 33.5421C8.55265 33.6158 8.52865 33.688 8.50039 33.7589C8.44863 33.9044 8.38851 34.0468 8.33748 34.1927C8.23596 34.4834 8.14449 34.7781 8.0558 35.0732L8.01165 35.2207C7.82728 35.8392 7.64815 36.7394 8.499 36.9298C8.81468 37.0003 9.12757 36.8606 9.42124 36.7507L9.48172 36.7285L10.5529 36.3427C10.6805 36.2968 10.9169 36.2648 11.0227 36.1842L11.0058 36.2668C10.9839 36.3765 10.9624 36.4841 10.9159 36.5933L10.89 36.6536C10.6239 37.2665 10.2884 37.8797 10.5988 38.5572C10.8646 39.1377 11.4931 39.4131 12.0987 39.2483C12.6743 39.0918 13.0908 38.4333 12.7928 37.8605C12.6818 37.6469 12.3569 37.5425 12.1505 37.6759L12.095 37.7133C12.03 37.7565 11.9181 37.8305 11.9153 37.8442C11.8999 37.8483 11.8838 37.8523 11.8674 37.8564C11.9022 37.7526 11.9256 37.5929 11.9561 37.5222L12.0682 37.2636C12.2767 36.7776 12.4575 36.2831 12.2983 35.738C11.8427 34.1771 10.2975 35.0646 9.1577 35.5099C9.17432 35.444 9.19079 35.3789 9.20471 35.3151C9.25385 35.089 9.30761 34.8643 9.36078 34.6394L9.46982 34.1751C9.56797 33.7473 9.64437 33.2708 9.33928 32.9197ZM67.6561 31.1775C67.6571 31.1406 67.6124 31.1123 67.581 31.1338C66.8523 31.6315 66.3648 32.6707 66.6386 33.5561C66.7716 33.986 67.0543 34.3631 67.4512 34.5718C67.9447 34.8311 68.4896 34.7325 69.0081 34.6215L69.2284 34.5736C69.3836 34.5405 69.5368 34.5161 69.6947 34.5604C69.749 34.5756 69.8119 34.6237 69.8634 34.634C69.8421 34.6708 69.8195 34.7346 69.808 34.7582L69.7705 34.835C69.7327 34.9129 69.696 34.9937 69.6729 35.0755C69.5954 35.3498 69.6145 35.6442 69.74 35.9001C69.9738 36.3768 70.4641 36.6455 70.9745 36.6911C71.2787 36.7185 72.0449 36.4479 72.2261 36.7757C72.5856 37.4263 73.6096 36.9888 73.4105 36.2683C73.276 35.7812 72.8942 35.4665 72.4212 35.3348C72.1691 35.2646 71.9083 35.2741 71.652 35.3028C71.5516 35.3141 71.4515 35.3298 71.351 35.3407L71.2755 35.3478C71.2952 35.3462 71.0672 35.3406 70.9757 35.3344L70.9952 35.2811C70.9981 35.2735 71.0007 35.2669 71.003 35.2619C71.1049 35.0404 71.1804 34.8198 71.1743 34.5724C71.1631 34.1263 70.8789 33.737 70.5055 33.5222C70.1612 33.3241 69.7512 33.245 69.3599 33.2892C68.9297 33.3378 68.3184 33.684 67.8953 33.5016C67.5766 33.3641 67.4684 32.8847 67.4635 32.5705C67.4561 32.0974 67.6432 31.6489 67.6561 31.1775ZM37.9748 28.074C36.8024 27.5394 35.7956 28.4525 35.1076 29.3261C35.0721 29.3713 35.1168 29.4471 35.1727 29.412L35.2641 29.3541C35.8258 28.9962 36.4487 28.5733 37.1448 28.6952C37.775 28.8056 37.9311 29.2245 37.8057 29.7955L37.7688 29.9561C37.6355 30.5441 37.5333 31.1526 37.8653 31.6994C38.1788 32.2157 38.7904 32.4413 39.3631 32.4551C40.0239 32.471 40.5942 32.1588 41.1983 31.941L41.246 31.924C41.5026 31.8341 42.4385 31.5989 42.4515 32.1345C42.4575 32.3792 42.1995 32.6669 42.1003 32.887C41.9705 33.1749 41.8841 33.4773 41.8856 33.797C41.8895 34.5944 42.5443 35.242 43.319 34.8552C43.6202 34.7047 43.6978 34.2732 43.5407 33.9959C43.3195 33.6051 43.2299 33.6254 43.385 33.215L43.4297 33.0995C43.6204 32.605 43.7723 32.0958 43.558 31.5768C43.13 30.5402 41.8465 30.4146 40.9295 30.7579L40.896 30.7707C40.3253 30.9954 38.616 31.8955 38.7339 30.6226C38.7802 30.1212 38.9299 29.6404 38.8253 29.1335C38.728 28.6628 38.4047 28.27 37.9748 28.074ZM32.3254 23.8166C32.1114 23.4337 31.3929 23.5707 31.4525 24.0568L31.4715 24.2081C31.4959 24.4151 31.5012 24.6097 31.3604 24.7938C31.1896 25.0174 30.8971 25.0849 30.6316 25.0507C30.0696 24.9784 29.7111 24.449 29.0926 24.5726C28.5905 24.673 28.2438 25.0904 28.043 25.5456C27.8305 26.0276 27.835 26.5501 27.6766 27.0464C27.4943 27.6172 27.1055 27.5909 26.62 27.3912L26.5155 27.3476C26.051 27.1514 25.5849 26.9334 25.0673 27.0271C24.2077 27.183 23.4674 28.5259 24.2728 29.1744C24.4182 29.2914 24.6723 29.2303 24.6661 29.0089L24.6653 28.967C24.6613 28.5641 24.7613 28.0443 25.2157 27.9494C25.6975 27.8487 26.242 28.2954 26.6894 28.424C27.8483 28.7571 28.5085 27.8709 28.7053 26.8227L28.7125 26.7826C28.7753 26.4157 28.825 25.7368 29.2027 25.565C29.4041 25.4734 29.6189 25.6989 29.7872 25.7896C30.0488 25.9306 30.3294 26.0202 30.6252 26.043C31.7197 26.1279 32.9633 24.9584 32.3254 23.8166ZM59.713 22.3688C59.3524 22.2101 58.8146 22.2984 58.7265 22.7766L58.673 23.0775C58.5683 23.6587 58.4014 24.3854 57.8391 24.5948C57.4874 24.7257 57.0835 24.4962 56.7681 24.3564C56.3893 24.1882 56.0199 24.0439 55.6051 24.004C54.7633 23.9229 54.1363 24.4178 53.8386 25.191L53.8126 25.2599C53.5725 25.9097 53.2479 27.1523 53.7737 27.6794C53.8505 27.7564 54.0052 27.7939 54.0994 27.7221C54.41 27.4853 54.4886 27.0961 54.5953 26.7311L54.6045 26.6999C54.7177 26.3208 54.8105 25.9034 55.0149 25.5619C55.3947 24.9272 56.3859 25.6519 56.8627 25.8193C57.6456 26.0941 58.4576 25.9335 59.0559 25.3456C59.4338 24.9742 59.6573 24.5041 59.8109 24.0065C59.909 24.058 60.0109 24.1026 60.1205 24.1327C60.5383 24.2477 61.0338 24.1871 61.3518 23.8655C61.9488 23.2621 61.625 22.1797 60.7149 22.3547C60.5356 22.3891 60.418 22.5631 60.3967 22.7407L60.3845 22.7688C60.1555 22.6919 59.9051 22.4533 59.713 22.3688ZM17.5378 16.9775C16.6874 16.0886 15.2117 16.5705 14.6301 17.5134C14.5094 17.7089 14.7087 17.9567 14.9205 17.8973C15.4268 17.7555 16.1412 17.1976 16.6762 17.5527C17.0728 17.816 16.857 18.5039 16.8208 18.8888L16.8155 18.9462C16.7696 19.4701 16.7592 20.187 17.1608 20.5792C17.392 20.8049 17.7466 20.7744 18.0515 20.7422L18.1484 20.732C18.5078 20.6953 18.8648 20.6309 19.2091 20.5185C19.5256 20.4153 19.8255 20.2751 20.1228 20.1266L20.1971 20.0893C20.3288 20.0229 20.7677 19.7599 20.8992 19.9252C20.9677 20.0114 20.7978 20.389 20.7625 20.4732C20.6292 20.79 20.4596 21.0882 20.3374 21.4106C20.1219 21.9786 20.1038 22.6194 20.4065 23.1614C20.6997 23.6866 21.3351 24.1121 21.8982 23.7087C22.2206 23.4776 22.2197 23.0574 21.8982 22.8262C21.7281 22.7039 21.5565 22.6232 21.4863 22.418C21.3945 22.1504 21.5126 21.8666 21.6269 21.6189L21.7636 21.3242C22.0667 20.6662 22.3695 19.9095 21.9461 19.2368C21.5089 18.5424 20.6203 18.5314 19.9481 18.8207C19.5644 18.9858 19.2143 19.2072 18.8145 19.335C18.5379 19.4234 18.2603 19.4825 17.977 19.5149C17.9138 19.1685 18.0032 18.7808 18.0041 18.4367C18.0055 17.914 17.9097 17.3663 17.5378 16.9775ZM61.3877 4.61291C59.9527 4.39904 59.2581 5.70309 59.159 6.95887C59.0697 8.09898 59.2516 9.24242 59.5358 10.351C59.6423 10.762 59.7619 11.1681 59.8872 11.5676C60.0887 12.2093 60.3074 12.85 60.5736 13.4675C60.6547 13.6539 60.7366 13.8411 60.8283 14.0209C61.1425 14.2827 61.4114 14.6353 61.6558 14.9741L61.8164 15.198L61.8595 15.2584C62.2748 15.8359 62.6294 16.4351 62.9194 17.0867C63.1955 17.7073 63.4011 18.3543 63.5608 19.0148L63.6001 19.1796C63.723 19.6879 63.9042 20.2946 63.6852 20.7676C64.1152 20.9023 64.5428 21.0247 64.9998 21.0896C65.6305 21.1794 66.2866 21.1853 66.923 21.162C67.5379 21.1391 68.1521 21.0903 68.7644 21.024L69.2055 20.9747C69.2513 20.9694 69.2969 20.9639 69.3425 20.9581C69.3253 20.9364 69.3106 20.9123 69.2999 20.8858C69.1428 20.5029 69.163 20.059 69.1456 19.6472L69.1435 19.6016C69.1206 19.1448 69.1066 18.6878 69.1009 18.2301C69.0903 17.3713 69.1132 16.51 69.2057 15.6553C69.2859 14.9073 69.4113 14.159 69.6071 13.4325C69.8045 12.696 70.1059 12.0045 70.3844 11.2971C70.6596 10.5981 70.8866 9.87996 70.8619 9.11759C70.8463 8.63325 70.7415 8.16223 70.5638 7.717C70.5555 7.72366 70.545 7.72865 70.5326 7.72782C69.9749 7.70702 69.4466 7.54307 68.9076 7.40493C68.3359 7.25771 67.7503 7.13696 67.1654 7.06539L67.0411 7.0506C66.5537 6.995 66.0227 6.96792 65.5723 7.18024C65.085 7.41084 64.7778 7.92347 64.5927 8.41522L64.5721 8.4719C64.2432 9.40423 64.3186 10.6487 65.3356 11.0899C65.651 11.2272 66.3709 11.3113 66.5331 10.8769C66.606 10.6788 66.4561 10.3859 66.3996 10.1987C66.3333 9.97559 66.2899 9.75589 66.2948 9.52287C66.2987 9.31852 66.4524 9.16434 66.6479 9.14784L66.6658 9.14672C67.0213 9.13099 67.7544 8.71489 67.8256 9.31399C67.8395 9.4305 67.7519 9.55283 67.6593 9.6095C67.4726 9.72177 67.2777 9.79675 67.0745 9.84243C67.1024 9.96726 67.1417 10.0896 67.1803 10.2111C67.2031 10.1994 67.2285 10.192 67.2555 10.1895C67.5561 10.1645 67.8535 10.2128 68.1541 10.2161L68.3184 10.2173C68.5517 10.2196 68.7551 10.2323 68.9813 10.3551C69.1902 10.4682 69.1533 10.752 68.9813 10.8735C68.53 11.1914 67.7658 11.005 67.2957 10.6821C67.3161 10.8461 67.3063 11.0133 67.2375 11.1889C67.0344 11.71 66.452 11.9695 65.9312 11.992C65.4683 12.012 65.026 11.8638 64.6566 11.6042C64.5813 11.878 64.4601 12.141 64.4076 12.4248C64.3388 12.7976 64.4207 13.2336 64.293 13.584C64.1652 13.9369 63.6713 14.1732 63.3854 13.827C62.9669 13.321 63.0971 12.5196 63.4649 12.007C63.6606 11.7357 64.0161 11.4244 64.3781 11.3753C64.1267 11.1349 63.9252 10.8377 63.7982 10.5099C63.7892 10.514 63.7786 10.5148 63.7671 10.5115C62.5901 10.1845 61.9496 9.10095 61.9103 7.96333C61.8235 8.02658 61.7334 8.08325 61.6392 8.13393C61.4139 8.25718 61.1248 8.14891 61.0552 7.89343C60.9913 7.65542 61.1772 7.36174 61.4385 7.38163C61.5876 7.39411 61.7375 7.39494 61.8857 7.36998C61.9062 7.36665 61.9258 7.36257 61.9463 7.35833C61.9594 7.27095 61.9766 7.18357 61.9979 7.09702C61.5532 7.14861 61.0879 7.07455 60.6579 6.97801C60.2877 6.89563 60.3737 6.29728 60.7464 6.31142L60.8063 6.31408C61.2952 6.33793 62.0171 6.41814 62.4361 6.10337C62.5098 5.99519 62.5918 5.89283 62.6802 5.79629C62.6917 5.77216 62.7015 5.74645 62.7105 5.71973C62.9358 5.06063 61.8685 4.68448 61.3877 4.61291ZM48.506 13.8852C47.9473 13.7334 47.3594 13.9402 46.9752 14.3687C46.6523 14.729 46.4851 15.1714 46.3357 15.6236L46.2504 15.8838C46.1261 16.2521 45.9835 16.5444 45.5396 16.404C44.9707 16.224 44.4775 15.9104 43.8589 15.9351C43.2965 15.9577 42.7462 16.2034 42.3546 16.6153C41.9542 17.0367 41.763 17.6237 41.848 18.2021L41.8535 18.2375C41.8978 18.504 42.2814 19.4551 42.688 19.0172C42.8694 18.822 42.8336 18.6059 42.8767 18.3578C42.9177 18.1215 43.0053 17.8897 43.1489 17.698C43.4035 17.3583 43.8129 17.2259 44.2132 17.3461C44.7412 17.5046 45.2075 17.8314 45.7762 17.8391C46.3746 17.8472 46.8825 17.532 47.2125 17.0371C47.479 16.6376 47.574 16.17 47.7615 15.7355L47.7795 15.6941C47.937 15.3367 48.0443 15.2076 48.4048 15.3785L48.5308 15.4399C49.0706 15.7005 49.6779 15.9391 50.236 15.5716C50.7545 15.2303 50.9756 14.5444 50.5394 14.045C50.2988 13.7693 49.7418 13.8163 49.5854 14.1699C49.558 14.2308 49.5325 14.2924 49.5074 14.3543C49.4597 14.3395 49.4132 14.3215 49.3692 14.2963C49.0766 14.1624 48.8225 13.9712 48.506 13.8852ZM32.1968 9.84734C31.5595 9.49843 31.0275 10.1847 31.1293 10.8044L31.1342 10.8316C31.138 10.8503 31.1466 10.8911 31.1573 10.9379C31.1248 10.9339 31.0926 10.928 31.0605 10.9197L30.9124 10.9013C30.6797 10.8738 30.454 10.8595 30.2211 10.9354C29.6712 11.1147 29.4009 11.6577 29.3876 12.2142C29.3744 12.7688 29.6568 13.2161 29.7398 13.7459C29.8247 14.2876 29.2727 14.1329 28.9124 14.0933L28.8983 14.0918C28.397 14.0403 27.87 14.0394 27.4534 14.3713C27.0232 14.7141 26.8326 15.3065 26.8934 15.8488C26.9482 16.3386 27.2499 17.0925 27.7964 17.1699C27.8504 17.1776 27.9118 17.1655 27.9395 17.1108C28.1605 16.6742 27.853 16.1921 27.8877 15.7315C27.926 15.2249 28.2438 15.1406 28.6821 15.1734C29.1075 15.2052 29.5318 15.2969 29.9519 15.168C30.4076 15.028 30.7383 14.6307 30.8319 14.162C30.935 13.6455 30.7455 13.1649 30.6225 12.674C30.5816 12.511 30.5616 12.3469 30.5897 12.1802C30.5958 12.1442 30.6266 12.1109 30.6377 12.0967C30.7077 12.0834 30.8124 12.1174 30.8722 12.1239L30.9572 12.1324C31.4187 12.1748 31.8634 12.1464 32.1932 11.7589C32.3622 11.5604 32.4246 11.3177 32.4077 11.0616L32.3993 10.9582C32.3902 10.8588 32.373 10.7275 32.3221 10.6727L32.3214 10.6701C32.3385 10.6468 32.3547 10.6228 32.3696 10.598L32.3839 10.5729C32.5253 10.3334 32.4433 9.98233 32.1968 9.84734ZM64.8459 3.77323C64.2111 3.77323 63.6115 3.98377 63.1315 4.55715C63.3027 4.72276 63.4395 4.915 63.5149 5.14052C63.7499 5.00987 63.9989 4.90759 64.2536 4.83511C65.0309 4.61458 66.0941 4.6179 66.7477 5.15966C67.0901 5.44261 66.7141 5.95025 66.3456 5.86287C66.0155 5.78464 65.7288 5.63984 65.3823 5.6232C65.0817 5.60822 64.7869 5.64816 64.4985 5.73638C64.0587 5.87128 63.659 6.12668 63.365 6.4787C63.2667 6.59687 63.1807 6.72503 63.1086 6.86325C62.5598 7.92172 62.9734 9.43965 63.7311 10.311C63.4338 9.30733 63.7303 8.12395 64.3224 7.29267C65.0354 6.29171 66.1017 6.17825 67.2251 6.33447L67.2622 6.33972C68.349 6.49542 69.6947 6.76747 70.5073 7.57886C70.4262 7.39162 70.3328 7.2102 70.2279 7.0346C69.612 6.00434 68.5906 5.20044 67.5308 4.62706C67.353 4.52969 67.1736 4.43981 66.9951 4.35659C66.3161 4.03953 65.5592 3.77323 64.8459 3.77323ZM65.1931 -4.08937L65.1906 -4.07765C65.1901 -4.0755 65.1896 -4.07328 65.189 -4.07106C65.1515 -3.73266 65.2401 -3.34421 65.2853 -3.00271L65.2914 -2.95425C65.3864 -2.17698 65.5117 -1.39888 65.5527 -0.615779C65.5926 0.137284 65.5772 0.918401 65.4881 1.66822L65.4749 1.77512C65.4225 2.18373 65.3913 2.66308 65.2554 3.0825C65.7779 3.13327 66.3005 3.30387 66.7756 3.48537C66.9459 3.55103 67.1155 3.6201 67.2842 3.69342C67.0729 2.55239 66.9599 1.39481 66.7305 0.257195L66.6854 0.0307958C66.4361 -1.22764 66.202 -2.49419 65.5576 -3.62001C65.4716 -3.7698 65.379 -3.89546 65.2742 -4.02945C65.2513 -4.06016 65.2242 -4.08013 65.1931 -4.08937Z" fill="black"/>
</g>
<defs>
<clipPath id="clip0_5_78">
<rect width="67" height="61" fill="white"/>
</clipPath>
</defs>
</svg>
