<svg width="68" height="61" viewBox="0 0 68 61" fill="none" xmlns="http://www.w3.org/2000/svg">
<g clip-path="url(#clip0_5_14)">
<path fill-rule="evenodd" clip-rule="evenodd" d="M61.8251 24.5439C61.564 23.8261 61.9454 23.1101 62.1569 22.4156C62.9085 20.0071 63.7291 17.5986 64.8901 15.3525C65.3298 14.6012 64.6063 13.6795 63.768 13.8913C62.3327 14.0926 60.8528 13.9324 59.4151 13.8436C58.8893 12.4818 57.486 11.9169 56.3815 11.1326C55.1281 10.3495 53.909 9.45007 52.6055 8.76351C52.533 8.11481 51.7473 7.95403 51.2668 8.41806C49.9471 7.59627 48.3646 7.74889 46.9499 7.21046C45.875 5.47113 45.7944 3.6422 45.5098 1.96421C45.3857 1.23278 45.5175 0.527042 45.0183 -0.1251C43.3411 -2.48646 36.7144 -3.51031 34.2711 -2.11097C32.9559 -2.9321 32.9242 -1.44496 32.7153 -0.527134C32.4831 -0.0679281 32.3575 0.452112 32.3964 1.00003C30.9837 3.95391 27.7517 5.28934 24.8572 6.37111C24.4941 6.02134 23.9751 6.06553 23.6296 6.35496C21.1207 6.90097 18.6858 7.86074 16.5838 9.35936C14.1956 10.0586 12.5138 12.003 11.2976 14.0879C11.1636 14.3077 11.132 14.5318 11.1711 14.7376C7.43121 20.2257 5.64626 26.7958 5.39554 33.4316C2.99051 34.8765 6.53865 47.8569 7.36463 50.5518C7.36546 50.5514 7.36629 50.5511 7.36712 50.5507C7.90297 51.5004 8.5114 54.2103 9.85245 54.0007C10.7724 55.042 12.2383 54.8372 13.4867 54.9172C13.2834 55.698 13.3833 56.5913 13.6253 57.3629C13.9115 58.2813 15.3161 58.3124 15.5152 57.3111C27.9468 59.729 40.7021 57.7998 53.2734 58.1627C56.9081 58.1885 60.5425 58.3011 64.1686 58.5603C64.6792 58.5968 65.1968 58.0745 65.1621 57.5656C64.3825 49.2626 63.6503 38.3399 62.7786 30.1183C62.5718 28.2432 62.4083 26.3477 61.8251 24.5439Z" fill="white"/>
<path fill-rule="evenodd" clip-rule="evenodd" d="M32.9202 -1.59834C32.9559 -1.69571 33.1012 -1.68281 33.1039 -1.57346C33.1612 0.761105 32.5806 3.61396 30.7146 5.19089C29.7566 6.00036 28.4902 6.37082 27.3271 6.79651L27.1959 6.84496L25.1411 7.61125C24.5961 7.81447 24.0082 8.12712 23.5268 7.84002C23.9164 8.80703 24.2434 9.80067 24.7178 10.7326C25.3084 11.8928 26.0224 12.9543 26.8962 13.9197C30.3583 17.7444 35.8373 18.9111 40.7542 17.7904C43.2861 17.2133 45.7498 16.1196 47.4771 14.1248C48.7899 12.6086 49.5442 10.5735 49.7219 8.56619C49.6699 8.57451 49.6155 8.57418 49.5595 8.56186C48.9374 8.42602 48.3094 8.0922 47.762 7.76482L47.7092 7.73316C47.1825 7.41576 46.6335 7.05201 46.2555 6.55885C46.0053 6.23236 45.7488 5.53658 45.4862 4.47153C45.3788 3.87112 45.2782 2.67499 45.2954 2.06807C45.297 2.01081 45.5508 1.97703 45.5779 2.03653C45.8124 2.55176 45.8882 3.68384 46.0692 4.22009L46.1057 4.32715C46.299 4.88713 46.4648 5.56895 46.8656 6.02167C47.618 6.87176 48.7532 7.2316 49.7664 7.65793C49.8392 6.69716 51.3721 6.71955 51.3526 7.7216C51.3516 7.77594 51.3491 7.83003 51.3472 7.88421C51.4681 7.95074 51.5844 8.02682 51.6931 8.10024L51.7991 8.17231C52.2005 8.44561 52.6049 8.70534 53.0323 8.93719C53.8597 9.38616 54.7356 9.74209 55.5833 10.1496C56.441 10.562 57.2431 11.0532 57.992 11.6412C58.3438 11.9172 58.6811 12.2113 59.001 12.5237L59.0878 12.6094C59.3923 12.913 59.7885 13.2525 59.962 13.6514C60.0002 13.7394 60.1918 13.944 60.2957 13.9508C61.9064 14.0565 63.5137 14.2058 65.1143 14.4296C65.5287 14.4875 65.6925 14.7013 65.5394 15.0471C65.013 16.2353 62.9523 20.9806 62.4043 22.2541C62.4683 23.1896 62.3819 24.291 62.4395 25.2268C62.5239 26.5925 62.6344 27.9576 62.7668 29.3194C63.2407 34.1909 63.959 39.0386 64.6081 43.8887C64.9329 46.316 65.2291 48.747 65.5215 51.1784C65.6691 52.4071 65.7944 53.6371 65.8908 54.8711C65.931 55.3853 65.9674 55.8998 65.9996 56.4145L66.0273 56.8711C66.0654 57.4457 66.1533 57.9944 65.7981 58.4876C65.6371 58.7113 65.2694 58.8373 65.0576 58.5831C64.7914 58.2636 64.6925 58.025 64.6671 57.6053C64.6476 57.2841 64.643 56.9613 64.6283 56.6398C64.5968 55.9427 64.557 55.246 64.5105 54.5497C64.4176 53.1578 64.3116 51.7661 64.1888 50.3765C63.7585 45.5037 62.9406 40.6677 62.3963 35.8069C62.122 33.3564 61.9271 30.9013 61.824 28.4373C61.7723 27.2068 61.7536 25.9764 61.7658 24.7448C61.7703 24.2848 61.7921 23.8269 61.8236 23.3701C61.0083 25.2243 60.1512 27.0606 59.255 28.8725L59.0426 29.3017C58.4747 30.4469 57.8915 31.5964 57.209 32.6761L57.0917 32.8602C56.8151 33.2987 56.4374 33.9902 55.9332 34.1286C55.5819 34.2251 55.1527 34.1571 54.7926 34.1502C54.4352 34.1434 54.0775 34.1419 53.7203 34.1274C53.3197 34.1113 52.9375 34.0586 52.5504 33.9541C52.486 33.9368 52.4252 33.918 52.3697 33.894C51.9797 34.533 51.317 35.0196 50.6394 35.3032C50.0966 35.5303 49.5278 35.686 48.958 35.8301L48.7569 35.8805C48.1461 36.0329 47.4473 36.1053 47.1028 36.6958L47.0228 36.8327C46.7667 37.2683 46.5209 37.6509 46.097 37.9632C45.6407 38.2995 45.1001 38.511 44.5616 38.6756C44.0102 38.844 43.446 38.973 42.8861 39.1111L42.7335 39.1491C42.3639 39.2417 41.991 39.3267 41.6236 39.4274C41.4669 39.4704 41.3073 39.5147 41.1536 39.5676C40.9735 39.6295 40.8426 39.7262 40.7006 39.8314C40.5729 40.278 40.0271 40.5205 39.5784 40.4893C39.3427 40.473 39.1313 40.393 38.939 40.2756C38.6032 40.5617 38.2335 40.818 37.8913 41.0831C37.4121 41.4543 36.9309 41.8228 36.4471 42.188C35.4495 42.9407 34.4444 43.6835 33.4288 44.4116C31.6262 45.704 29.7845 46.9372 27.9113 48.1247C27.1303 48.6199 26.3441 49.1142 25.5501 49.5967L25.6349 49.6282L25.8029 49.6918C26.2002 49.8402 26.6429 50.0801 26.7198 50.5441C26.7809 50.9121 26.5755 51.1657 26.2126 51.2107C25.7812 51.264 25.4456 50.9589 25.177 50.6677C25.0584 50.5393 24.9257 50.4199 24.8122 50.2877C24.7659 50.2337 24.7303 50.1714 24.699 50.1062C23.9154 50.5684 23.1235 51.0151 22.3191 51.4328L22.1177 51.5366C20.1228 52.5578 18.1812 53.6766 16.1694 54.6687C15.6446 54.9275 15.0047 55.2075 14.3378 55.3985C14.5148 56.0853 14.512 56.8392 14.5165 57.5362C14.5207 58.2155 13.4425 58.2122 13.4652 57.5362L13.4762 57.2098C13.4959 56.6608 13.5279 56.091 13.658 55.5568C11.693 55.8831 9.72988 55.174 9.36438 54.9611C8.96095 54.7263 8.59477 54.3505 8.29001 54.0019C7.63786 53.2556 7.1853 52.3612 6.78379 51.4613C5.92373 49.5343 5.31439 47.4745 4.8689 45.4144C3.22651 37.8193 3.93294 29.6903 6.60016 22.4097C7.26652 20.5906 8.05326 18.8116 8.9548 17.097L9.06675 16.8851C9.96638 15.1895 10.9663 13.5004 12.2363 12.0575C13.5593 10.5546 15.1912 9.38582 16.968 8.47856C17.8351 8.03583 18.7273 7.65211 19.6393 7.31207C19.7858 7.2574 19.9332 7.20838 20.081 7.16169C21.0314 6.55519 22.1847 5.97498 23.3385 5.99778C23.4169 5.9992 23.4804 6.02899 23.5277 6.07385C23.5834 6.08358 23.639 6.0954 23.6947 6.11163C23.8176 6.14733 23.9475 6.28223 23.9298 6.42079L23.9239 6.46689C23.9206 6.48941 23.9165 6.51117 23.9095 6.53239C23.9507 6.53855 23.9912 6.54837 24.0308 6.56193C25.1347 6.24986 26.2208 5.77259 27.298 5.38762L27.5433 5.3009C28.4455 4.98439 29.3711 4.67416 30.1112 4.04778C30.8475 3.42463 31.4011 2.61749 31.8014 1.74493C32.2945 0.669896 32.5153 -0.49468 32.9202 -1.59834ZM55.021 55.1009C55.2395 54.9381 55.498 55.127 55.5798 55.3285C55.8483 55.9897 55.7156 57.0171 55.3371 57.6017C54.9449 58.2074 54.0061 57.9683 53.9835 57.2347C53.9598 56.4696 54.404 55.5607 55.021 55.1009ZM57.2786 36.8436C57.2983 36.7576 57.4316 36.7585 57.4516 36.8436C57.6335 37.6194 57.6293 38.4549 57.6827 39.2504L57.6889 39.3386C57.753 40.2158 57.8069 41.0955 57.8453 41.9742C57.9207 43.7031 58.0108 45.432 58.1118 47.1596C58.1619 48.0162 58.2156 48.8728 58.2729 49.7292C58.4523 49.629 58.6371 49.5412 58.8286 49.4636C59.1156 49.3475 59.395 49.3342 59.7033 49.3374C60.0788 49.3412 60.3615 49.6718 60.3118 50.0401C60.2576 50.4411 59.9049 50.613 59.5386 50.5557C59.1329 50.4921 58.7255 50.3937 58.3159 50.3529C58.3616 51.015 58.4087 51.6769 58.4587 52.3384C58.5249 53.2143 58.6113 54.0891 58.672 54.9653C58.6778 55.0489 58.684 55.1326 58.6904 55.2166C58.9347 55.0894 59.194 55.0243 59.488 54.9442L59.5645 54.9227C59.9912 54.8 60.4478 54.6304 60.8428 54.9177C61.1083 55.1108 61.1614 55.4287 60.9414 55.6834C60.6079 56.07 60.1144 55.995 59.6538 55.9753L59.4059 55.9662C59.1724 55.957 58.9569 55.9421 58.741 55.8831C58.7806 56.4539 58.8015 57.0269 58.7316 57.5893C58.6938 57.8933 58.294 57.9731 58.1882 57.6629C57.9118 56.8524 57.8547 55.9784 57.7535 55.1295C57.659 54.3366 57.6016 53.538 57.5397 52.7416L57.521 52.5027C57.3818 50.7506 57.2705 48.9976 57.1892 47.2419C57.1078 45.4865 57.0589 43.7314 57.0395 41.9742C57.0306 41.1763 57.0438 40.3756 57.0751 39.5778L57.085 39.3386C57.1209 38.5181 57.0958 37.6475 57.2786 36.8436ZM20.7495 55.2303C20.7602 55.1182 20.8499 54.9789 20.9833 54.9962C21.1063 55.0122 21.2329 55.0046 21.3546 55.0249C21.5151 55.0515 21.6443 55.1465 21.7936 55.2062C22.0362 55.3033 22.3007 55.3535 22.5497 55.433C23.0168 55.5822 23.2714 56.0744 23.0779 56.5341C22.8745 57.0174 22.3633 57.1271 21.9217 56.9243C21.5735 56.7645 21.314 56.509 21.0799 56.2133L21.0136 56.129C20.9128 56.002 20.7983 55.8603 20.7559 55.7064C20.7148 55.5564 20.7351 55.3828 20.7495 55.2303ZM43.4437 52.9584C44.0255 52.8764 44.5224 53.0755 45.0608 53.2632L45.1045 53.2784C45.6524 53.4677 46.4519 53.5988 46.7327 54.1602C46.9021 54.4987 46.7705 54.9483 46.3719 55.0485C45.7404 55.207 45.1743 54.745 44.6522 54.434L44.6247 54.4177C44.1208 54.1222 43.6006 53.8738 43.2788 53.3641C43.193 53.2281 43.2675 52.9833 43.4437 52.9584ZM23.1336 6.63891C22.9005 6.69117 22.6674 6.73736 22.4345 6.7818C21.5488 7.25706 20.689 7.75022 19.7745 8.17364C18.8042 8.62295 17.8375 9.08698 16.9159 9.63049C15.0539 10.7286 13.5189 12.1563 12.2505 13.9063C10.0595 16.9293 8.42976 20.4154 7.26336 23.9527C6.96368 24.8614 6.69551 25.7804 6.45825 26.7072C6.87773 26.3188 7.37434 26.08 7.93123 25.8755C8.16723 25.7889 8.46101 25.9355 8.58064 26.1401C8.63442 26.232 8.66476 26.3229 8.65919 26.4306C8.64681 26.6685 8.49219 26.9387 8.23698 26.9858C7.64202 27.0955 7.06352 27.3093 6.48984 27.4973C6.40289 27.5259 6.32816 27.5151 6.26847 27.4814C5.69895 29.8964 5.34265 32.361 5.21646 34.8405C5.10973 36.9397 5.17556 39.0553 5.40783 41.1515C5.58631 41.0712 5.76088 40.9959 5.95657 40.9503C6.21036 40.8912 6.46 40.8193 6.70756 40.7381C7.42197 40.5035 7.74784 41.6842 7.01763 41.8641C6.74588 41.9311 6.47247 41.9867 6.19556 42.0274C5.95424 42.0629 5.74076 42.0472 5.51324 42.0101C5.68706 43.3179 5.92448 44.6162 6.2269 45.896L6.29364 46.1761C6.68648 47.8107 7.14433 49.4606 7.80645 51.0054C8.13124 51.7632 8.56127 52.4829 9.09221 53.1147C9.35308 53.4253 9.64262 53.6916 9.95834 53.944C10.2212 54.1541 11.1147 54.6097 12.1729 54.6097C13.2311 54.6097 13.5176 54.5095 14.0515 54.3255C15.1073 53.9617 16.1098 53.3809 17.0999 52.8636L17.2023 52.8103C17.6402 52.5836 18.0764 52.3535 18.5114 52.1214C18.4564 51.6774 18.5526 51.3045 18.7837 50.8944C19.0335 50.4508 19.6525 50.6717 19.6985 51.1254L19.7 51.1428C19.7069 51.2451 19.7241 51.3493 19.7454 51.4533C22.6541 49.8582 25.5013 48.1514 28.3032 46.3728C30.108 45.227 31.8937 44.0471 33.6532 42.8327C34.5328 42.2256 35.4047 41.6076 36.268 40.9775C36.7203 40.6474 37.1704 40.3147 37.6185 39.979C37.8051 39.8392 37.9881 39.6924 38.1752 39.5519C38.1297 39.4949 38.0854 39.4381 38.0425 39.3818C37.3441 38.4664 36.8909 37.3753 36.6651 36.2495C36.5288 35.5703 36.463 34.8652 36.4429 34.1726L36.4341 33.8715C36.4203 33.3641 36.4167 32.8332 36.5101 32.3416C36.383 32.4115 36.2531 32.4801 36.1237 32.5535C35.6593 32.8169 35.1944 33.0797 34.7288 33.3413C33.7964 33.8648 32.8613 34.3823 31.9143 34.879C30.2228 35.7662 28.5146 36.61 26.7603 37.3663L25.9067 37.7347C24.4253 38.3726 22.9317 38.999 21.3914 39.4731C20.5226 39.7405 19.6473 39.969 18.766 40.1731L19.1224 40.591C19.364 40.8745 19.3683 41.2809 19.0595 41.5195C18.7559 41.7541 18.3485 41.6564 18.1463 41.345L17.7776 40.7773C17.6988 40.6559 17.6541 40.5423 17.6287 40.4225C17.2228 40.5075 16.8158 40.5892 16.4077 40.6681L15.6362 40.8156C14.5345 41.0284 13.4664 41.4499 12.4817 41.9893C12.1393 42.1768 12.044 41.8125 12.4067 41.5587C13.4672 40.8165 14.7043 40.3965 15.9806 40.044L16.0433 40.0268C16.5116 39.8984 16.9791 39.7646 17.4455 39.6259C17.3942 39.4402 17.3646 39.2474 17.3705 39.0349C17.3836 38.5615 17.4255 38.0864 17.4506 37.6133C17.5033 36.6203 17.5705 35.6305 17.6493 34.6393C17.6796 34.2575 17.7135 33.8746 17.7523 33.4921C17.5022 33.3578 17.2865 33.1796 17.0076 33.092L16.9605 33.0782C16.6622 32.9977 16.7629 32.613 17.0278 32.5801C17.2678 32.5503 17.5067 32.564 17.7433 32.6148C17.7799 32.6228 17.8146 32.6317 17.8477 32.6418C17.8911 32.2875 17.9394 31.934 17.9941 31.5826C18.139 30.654 18.2415 29.6757 18.5431 28.7835C18.5655 28.7174 18.6635 28.6938 18.6998 28.763C19.1386 29.5986 19.1538 30.6236 19.2033 31.554L19.2094 31.6652C19.2677 32.6803 19.271 33.7053 19.2522 34.7219C19.2329 35.7694 19.1971 36.8144 19.1501 37.861C19.1313 38.2824 19.132 38.7197 19.0603 39.1227C21.6712 38.273 24.236 37.256 26.6944 36.0517C28.4286 35.2023 30.1478 34.3188 31.8474 33.4022C32.6989 32.943 33.5545 32.4912 34.4052 32.0302C34.7032 31.8687 35.001 31.7066 35.2987 31.5442L35.7452 31.3006C36.163 31.0723 36.5118 30.8452 36.9984 30.8292C37.1435 30.8244 37.2736 30.8924 37.3659 30.9954C37.6274 30.8097 37.9297 30.6957 38.2469 30.6984C38.7244 30.0381 39.2092 29.3833 39.7133 28.7426L40.0857 28.2683C40.7303 27.45 41.4131 26.6193 42.2351 25.9965C42.6019 25.7186 43.0054 25.5101 43.4262 25.3379C43.3272 25.3136 43.2303 25.265 43.1439 25.1847C42.742 24.8117 42.6866 24.1187 42.605 23.5981C42.5203 23.0582 42.553 22.5751 42.6367 22.037C42.6692 21.8278 43.0152 21.7843 43.0996 21.9764C43.2776 22.3813 43.4661 22.7695 43.628 23.179L43.6758 23.3026C43.8496 23.7636 44.2199 24.2486 44.1954 24.7488C44.1888 24.8858 44.1429 25.0052 44.0721 25.1013C44.4253 24.9838 44.7836 24.8792 45.1364 24.77C46.2467 24.4265 47.3613 24.0927 48.4931 23.8263C48.7943 23.7554 49.0971 23.6895 49.4011 23.6291C49.5604 22.8721 49.7925 22.1292 50.0661 21.3996C49.807 21.2667 49.6393 21.0439 49.4161 20.8457C49.2073 20.6602 49.0638 20.4342 48.8857 20.2212C48.7235 20.0274 48.8146 19.6772 49.1061 19.6885L49.1886 19.692C49.4906 19.706 49.783 19.7373 50.0568 19.8783L50.1543 19.9287C50.2881 19.9982 50.4346 20.0779 50.565 20.172C50.7355 19.7793 50.9128 19.3903 51.092 19.0053L51.3245 18.5074C51.9274 17.2115 52.5286 15.8663 53.2855 14.6596C53.622 14.1232 54.0698 13.7882 54.7126 13.7364C55.3744 13.683 56.0626 13.7519 56.7254 13.7757C57.4937 13.8032 58.2619 13.8358 59.0295 13.8762C58.8327 13.6699 58.6532 13.4402 58.4556 13.2422C58.1275 12.9139 57.781 12.6027 57.4167 12.315C56.6957 11.7457 55.903 11.2766 55.0796 10.8726C54.256 10.4686 53.4083 10.1163 52.6352 9.61717C52.1459 9.30136 51.7087 8.9039 51.3097 8.47382C51.0586 11.1859 49.7504 13.7057 47.785 15.5988C45.7437 17.5648 42.9228 18.645 40.1632 19.1045C37.3485 19.5732 34.4107 19.4011 31.7181 18.4217C30.3297 17.9167 28.9982 17.1952 27.8107 16.2901C27.7976 16.3689 27.7819 16.4467 27.7511 16.5198C27.7097 16.6181 27.6591 16.7018 27.601 16.7882L27.4975 16.9397C27.4322 17.0349 27.3656 17.1294 27.2915 17.2178C27.112 17.4317 26.8578 17.5255 26.5838 17.5245C26.0594 17.5227 25.6622 17.0079 25.8033 16.4988C25.892 16.1788 26.0818 15.9862 26.3781 15.861C26.4717 15.8214 26.5672 15.7882 26.6632 15.7555L26.7352 15.7311C26.8322 15.6979 26.9285 15.6662 27.0283 15.6478C26.466 15.1509 25.9443 14.6107 25.4771 14.0276C24.0118 12.1992 22.5665 9.63848 23.0564 7.21021C23.0649 7.16852 23.1024 7.1423 23.1428 7.13565C23.1712 6.96521 23.2618 6.80035 23.3859 6.68951C23.3024 6.66754 23.2182 6.65056 23.1336 6.63891ZM38.3495 48.6228C38.6397 48.4613 38.9395 48.8451 38.7036 49.0822L38.3515 49.4349C38.0247 49.7637 37.7067 50.0959 37.4269 50.4706L37.3592 50.5622C36.9816 51.0764 36.579 51.6723 35.9603 51.8644C35.2119 52.0969 34.4928 51.1844 34.9261 50.5178C35.3047 49.9352 36.0337 49.7155 36.6621 49.4746C37.2567 49.2468 37.7937 48.9321 38.3495 48.6228ZM14.2086 45.9346C14.3791 45.7111 14.8237 45.8288 14.7072 46.145C14.3289 47.1718 14.1747 48.5719 13.2192 49.254C12.9109 49.474 12.4267 49.3729 12.1729 49.1189C11.8845 48.8302 11.873 48.4237 12.0379 48.0715C12.239 47.6418 12.7338 47.3304 13.0806 47.0031L13.1117 46.9733C13.4848 46.6106 13.8883 46.3543 14.2086 45.9346ZM54.143 47.1163C54.4473 46.985 55.2405 46.7296 55.4755 47.0319C55.4865 47.0429 55.4959 47.055 55.5035 47.0683C55.5611 47.1687 55.5696 47.3101 55.5035 47.4096C55.2295 47.8217 54.9443 48.1293 54.5548 48.4225L54.5111 48.4551C54.0872 48.7671 53.6889 49.1336 53.1723 49.2743C52.4563 49.4694 51.9562 48.5719 52.4591 48.0479C52.8642 47.6257 53.4826 47.4066 54.0195 47.1712L54.143 47.1163ZM25.3898 41.2494C25.27 41.0327 25.5147 40.7669 25.7363 40.9024C26.3685 41.2892 27.105 41.5794 27.8151 41.7879C28.1025 41.8723 28.3617 42.1639 28.3404 42.4785L28.337 42.5262C28.3286 42.6373 28.3133 42.7477 28.2427 42.8401C27.9954 43.1639 27.6416 43.2887 27.2638 43.097C26.4217 42.6699 25.8454 42.0737 25.3898 41.2494ZM43.8676 40.5931C43.8522 40.502 43.9188 40.4317 44.0113 40.4492C44.5456 40.5506 45.0391 40.8089 45.4979 41.1058C45.7439 41.2651 45.9813 41.4401 46.2267 41.6009C46.53 41.7995 46.6436 41.9635 46.6884 42.328C46.718 42.5685 46.4936 42.7882 46.2878 42.8546C45.7271 43.0356 45.0846 42.4416 44.7047 42.0557L44.6876 42.0383C44.2899 41.6325 43.9619 41.1527 43.8676 40.5931ZM59.9142 39.9627C59.7924 39.6335 60.2121 39.3605 60.4866 39.5222C60.7451 39.6744 61.0255 39.8007 61.2693 39.9751C61.4933 40.1355 61.6976 40.3255 61.9125 40.4993L62.0187 40.5834C62.4127 40.9005 63.0631 41.6848 62.4997 42.1397C61.9635 42.5727 61.2525 42.0198 60.8926 41.6154L60.8675 41.5868C60.6605 41.3474 60.4052 41.0873 60.2549 40.8076C60.1135 40.5443 60.0176 40.2422 59.9142 39.9627ZM54.6263 14.477C53.9547 14.6074 53.6809 15.4373 53.3981 15.9782C52.7307 17.2548 52.1168 18.5548 51.5004 19.8564C51.3106 20.2568 51.1258 20.6603 50.9393 21.063C50.9279 21.0945 50.9133 21.1255 50.8961 21.1562C50.5141 21.9795 50.1207 22.7974 49.661 23.5789C50.0818 23.5 50.5047 23.4328 50.9293 23.3799C50.9078 22.9797 51.1816 22.4442 51.3169 22.1073L51.3282 22.0789C51.497 21.6472 51.674 20.9671 52.1086 20.7431C52.2534 20.6685 52.4083 20.7619 52.4194 20.9216C52.4524 21.3967 51.9881 21.9406 51.7611 22.3439C51.6239 22.5879 51.4901 22.833 51.3598 23.0807C51.3109 23.1734 51.2701 23.2645 51.22 23.3463C51.4389 23.3225 51.6581 23.3014 51.8779 23.286L52.0212 23.2762C52.836 23.2224 53.7015 23.2071 54.4377 23.6093C55.1207 23.9824 55.4699 24.7789 55.0946 25.5041C54.6271 26.4077 53.5976 26.5274 52.6924 26.6006C51.5616 26.6919 50.4283 26.8568 49.3056 27.0176C48.1442 27.1838 47.0507 27.6124 45.9066 27.8327C45.8002 27.8532 45.734 27.7139 45.8316 27.6544C46.734 27.1045 47.8311 26.8019 48.84 26.4937L48.9216 26.4687C49.4688 26.3004 50.0037 26.1081 50.5698 26.0127C51.1194 25.9201 51.6723 25.845 52.2267 25.7879L52.2805 25.7829C52.8908 25.7317 54.4478 25.7492 54.382 24.8446C54.3384 24.2459 53.3663 24.1426 52.9225 24.1354C50.888 24.1028 48.8389 24.6434 46.9054 25.2226L46.4737 25.3522C45.682 25.5906 44.8891 25.836 44.1123 26.1156C43.232 26.4323 42.5384 26.9262 41.8972 27.6022C41.1863 28.3517 40.4977 29.1182 39.7602 29.8425C39.2953 30.2991 38.8243 30.7476 38.3496 31.1924C38.2424 31.3313 38.1566 31.4826 38.0971 31.6787C37.9967 32.0101 38.0198 32.3181 38.0577 32.6584C38.1533 33.518 38.1744 34.3865 38.2942 35.2434C38.4053 36.0372 38.5606 36.8602 38.8898 37.5966C39.0202 37.8882 39.1899 38.1747 39.3832 38.4308L39.5391 38.6338C39.6071 38.722 39.6832 38.8185 39.763 38.9092C39.8803 38.7661 40.0498 38.673 40.2469 38.6963C40.6658 38.7456 40.9951 38.7338 41.406 38.6374C41.7241 38.563 42.0396 38.4757 42.3563 38.3949C42.978 38.2361 43.6055 38.0916 44.221 37.9093L44.3267 37.8774C44.7854 37.7365 45.2441 37.5602 45.6258 37.2637C46.0693 36.9193 46.2058 36.4224 46.5343 35.9927C47.2357 35.0752 48.7515 35.0945 49.7778 34.8431C50.65 34.6296 51.4894 34.2927 52.093 33.6592L52.1282 33.6214C52.1015 33.5084 52.1449 33.3808 52.2498 33.3222L52.2726 33.3095C52.3135 33.2866 52.3576 33.2771 52.4008 33.278C52.4568 33.1956 52.5109 33.1106 52.56 33.02C52.6004 32.9454 52.7014 33.0003 52.6882 33.074C52.6803 33.1181 52.6693 33.161 52.6589 33.204C53.2436 33.0535 53.8858 33.0822 54.4794 33.0826L55.2498 33.0799C55.3831 33.0783 55.5818 33.0716 55.5995 33.0636L55.6176 33.0555C55.6656 33.0346 55.5974 33.0691 55.631 33.0245C55.668 32.9753 55.7042 32.9256 55.74 32.8754C55.8677 32.6966 55.9884 32.5123 56.1068 32.3264C54.8167 32.6554 53.4803 32.8601 52.1631 33.0308C50.7499 33.2141 49.318 33.3413 47.8922 33.3426C47.4992 33.343 47.5027 32.749 47.8922 32.7341C49.402 32.6764 50.9039 32.5964 52.4036 32.4027C53.1791 32.3024 53.9514 32.1767 54.7193 32.0296C55.0158 31.9729 55.3116 31.9127 55.6066 31.8491L55.8278 31.8007C55.9665 31.77 56.3585 31.7258 56.5497 31.5974C56.5873 31.5327 56.6249 31.4682 56.6621 31.4037C56.6438 31.1769 56.0679 31.2073 55.9329 31.2069C55.5501 31.2062 55.1672 31.2093 54.7843 31.2103C54.0186 31.2125 53.253 31.2058 52.4872 31.1997C50.9573 31.1872 49.4215 31.1338 47.8929 31.1992C47.5218 31.215 47.3268 30.6192 47.6936 30.4625C49.3128 29.7705 51.1102 29.6201 52.8392 29.4073C53.7483 29.2955 54.658 29.1664 55.5469 28.94L55.7666 28.8841C56.325 28.7408 56.9415 28.566 57.4117 28.2246C56.705 27.9384 55.8266 27.9712 55.0941 27.9307L55.038 27.9274C54.0123 27.8643 52.9847 27.832 51.9571 27.8305C49.8544 27.8276 47.751 27.9022 45.6507 28.002C45.598 28.0045 45.5871 27.9212 45.6383 27.91C47.7971 27.4385 49.9911 27.2113 52.2004 27.1764C53.2293 27.16 54.2587 27.1746 55.2867 27.2201L55.6639 27.2376C56.5404 27.2754 57.513 27.2856 58.2463 27.8155C58.3581 27.8962 58.4171 27.9993 58.4263 28.1084C59.4098 26.1458 60.3182 24.1422 61.2302 22.152C61.9392 20.6044 62.6218 19.0439 63.3566 17.5084L63.5945 17.0116C63.9131 16.3488 64.2395 15.6859 64.6018 15.0471C63.2467 14.8658 61.8841 14.7398 60.5206 14.6435C59.2782 14.5555 55.2244 14.3609 54.6263 14.477ZM54.0262 35.7475C54.1808 35.6615 54.4175 35.7316 54.4556 35.9223C54.4839 36.0644 54.5323 36.2221 54.5323 36.3674C54.5323 36.5415 54.4701 36.7306 54.437 36.9009C54.3607 37.2925 54.2669 37.6108 54.068 37.9596C53.9435 38.1779 53.6922 38.3261 53.4397 38.3203C53.2397 38.3157 53.0624 38.262 52.9252 38.107C52.7607 37.9213 52.6479 37.6483 52.738 37.3983C52.9743 36.7434 53.4086 36.0908 54.0262 35.7475ZM21.2485 35.0941C21.6101 34.46 22.4672 33.8934 23.2152 33.9495C24.3384 34.0337 24.5676 35.5476 23.4802 35.9089C22.8302 36.1248 21.936 35.9031 21.3674 35.5477C21.2141 35.452 21.1579 35.2529 21.2485 35.0941ZM9.70518 32.9279C9.62305 32.8084 9.7588 32.6719 9.88116 32.6987C10.1526 32.7584 10.4452 32.7845 10.711 32.8655C10.9833 32.9484 11.2468 33.0859 11.5165 33.1805C12.0814 33.3786 12.6849 33.478 13.2316 33.7172C13.4502 33.8128 13.6221 34.1296 13.6019 34.3632L13.5967 34.4178C13.5846 34.5338 13.5646 34.6349 13.4998 34.7409C13.3258 35.0253 12.9811 35.1723 12.6557 35.0847C12.0521 34.9225 11.4623 34.5054 10.9476 34.159L10.8525 34.0957C10.6277 33.9474 10.3859 33.7924 10.2047 33.6015C10.0156 33.4022 9.86013 33.1536 9.70518 32.9279ZM30.4541 30.622C30.3846 30.3715 30.6959 30.2059 30.8774 30.3752C31.24 30.7134 31.6192 31.027 31.9743 31.3738L31.9982 31.3974C32.2525 31.6532 32.6224 32.1462 32.2917 32.4773C31.8679 32.9015 31.2778 32.272 31.0504 31.944C30.762 31.5279 30.589 31.1085 30.4541 30.622ZM58.2032 28.5509C57.6652 29.1213 56.8364 29.3835 56.1067 29.6008C55.2415 29.8582 54.35 30.012 53.4576 30.1385C52.5953 30.2606 51.7397 30.3699 50.8911 30.5101C51.533 30.5181 52.1749 30.5229 52.8153 30.5343C53.5539 30.5477 54.2921 30.5637 55.0305 30.5852C55.5682 30.6008 56.1992 30.527 56.7102 30.7271C56.8023 30.763 56.8883 30.813 56.9635 30.8737C57.3931 30.109 57.8048 29.3337 58.2032 28.5509ZM25.0228 23.217C25.5842 23.0385 26.1122 22.8016 26.7074 22.8631C26.8656 22.8793 26.9789 23.0335 26.8925 23.1858C26.6104 23.6827 26.1518 23.9632 25.7003 24.2956L25.6605 24.3251C25.1663 24.6931 24.6356 25.0284 24.0982 25.3304C23.1729 25.8502 22.3437 24.3625 23.2781 23.9259C23.8404 23.6632 24.4311 23.4053 25.0228 23.217ZM35.1313 21.9254C35.9903 21.982 36.8488 22.0204 37.7088 22.0552C38.705 22.0956 38.3701 23.6302 37.5379 23.3197C36.7158 23.0127 35.8935 22.7097 35.064 22.4235C34.8114 22.3364 34.8318 21.9212 35.1153 21.9248L35.1313 21.9254ZM13.0998 19.1952C13.3224 19.1795 13.5469 19.2282 13.7699 19.2499L14.0071 19.2729C14.4961 19.3216 14.9547 19.3817 15.4211 19.5809C16.2816 19.9486 15.8194 21.3334 14.9555 21.3016C14.317 21.2782 13.771 21.0036 13.2319 20.6841C12.7605 20.4047 12.4715 20.0552 12.1532 19.6165C12.0478 19.4712 12.1947 19.3084 12.3383 19.2937C12.5912 19.2679 12.8468 19.2129 13.0998 19.1952ZM56.2372 16.3671C56.0948 17.2566 55.7413 18.0903 55.2087 18.8161C54.941 19.1809 54.4711 19.1947 54.2058 18.8161C53.8305 18.2806 54.0619 17.667 54.3446 17.1527L54.4283 17.0021C54.5549 16.7762 54.7493 16.4468 54.9714 16.2194L54.9752 16.1961C55.0942 15.2647 56.3839 15.4507 56.2372 16.3671ZM21.4944 10.6584C21.7086 10.4653 22.1029 10.5233 22.1724 10.8375C22.2697 11.2776 22.3289 11.7734 22.2652 12.2202C22.2307 12.4622 22.2177 12.7341 22.1226 12.9597C22.0204 13.2023 21.8237 13.3889 21.6384 13.5713C21.2685 13.9355 20.4886 13.8151 20.3896 13.2413L20.377 13.1709C20.3271 12.8994 20.2634 12.6092 20.3372 12.3401C20.3929 12.137 20.5174 11.9299 20.6204 11.7416L20.6421 11.7015C20.8484 11.3169 21.1701 10.9506 21.4944 10.6584ZM51.5949 11.5946L51.6724 11.5954C52.2701 11.6073 53.3629 11.7529 53.3687 12.4923C53.3701 12.6666 53.2411 12.8472 53.0683 12.8873C52.711 12.9702 52.4801 12.7589 52.2255 12.5453C52.0172 12.3707 51.7745 12.2313 51.5224 12.131C51.25 12.0225 51.2678 11.5941 51.5949 11.5946Z" fill="black"/>
</g>
<defs>
<clipPath id="clip0_5_14">
<rect width="68" height="61" fill="white"/>
</clipPath>
</defs>
</svg>
