<svg width="67" height="59" viewBox="0 0 67 59" fill="none" xmlns="http://www.w3.org/2000/svg">
<g clip-path="url(#clip0_5_54)">
<path fill-rule="evenodd" clip-rule="evenodd" d="M42.2515 57.7772C35.6047 57.7956 31.6236 57.719 24.1052 57.6122C15.4033 57.386 13.0581 57.7929 8.18316 56.8522C7.43781 56.6966 6.87077 56.4609 6.29562 56.1322C6.08946 56.3612 5.73996 56.7017 5.40807 56.4763C4.79672 56.0793 5.077 54.6923 4.92539 53.9091C4.67443 47.0123 4.273 39.9097 5.64527 33.0963C4.81334 32.8305 -0.0614387 30.8599 -0.327637 30.1997C4.08068 18.8721 13.7511 5.61641 26.4745 6.11562C26.7304 6.42567 26.958 6.88455 27.242 7.20023C28.9718 6.56371 31.3731 5.92574 31.4916 3.47486C31.7912 1.8392 32.007 0.312045 32.1512 -1.19121C32.1774 -1.36314 32.3872 -1.42222 32.5161 -1.49546C32.5709 -1.88416 32.6967 -2.28146 32.9698 -2.54797C35.1996 -2.74485 40.2898 -1.84117 41.6255 -1.46882C43.4478 -1.16239 43.2582 0.759415 43.5977 2.2163C44.1358 4.01729 44.5104 5.88646 45.3101 7.64599C45.491 7.67046 45.9979 7.75715 46.1847 7.78927C46.1944 7.58989 46.0993 6.99812 46.2853 6.87738C46.63 6.53691 46.7096 7.18454 46.7861 7.39575C54.316 5.99842 59.24 12.2776 60.89 19.2916C62.085 22.819 63.6685 26.3888 65.7356 30.2172C67.0319 32.5943 63.3077 33.036 61.7466 33.9846C63.3575 40.1443 63.5515 46.4173 63.8159 52.6256C63.8856 53.5805 63.9805 54.8791 63.6362 55.3543C63.4729 55.4791 63.3594 55.4756 63.1938 55.4847C62.8742 55.8236 62.3261 55.801 61.8647 55.8978C60.4061 56.1585 58.9114 56.3326 57.5071 56.3589C53.5654 58.7563 47.4886 57.4157 42.2515 57.7772Z" fill="white"/>
<path fill-rule="evenodd" clip-rule="evenodd" d="M31.603 -1.1957C31.8101 -2.21432 33.5209 -1.97832 33.4432 -0.95101C32.5796 2.87232 33.1053 7.52656 27.6465 7.15026C31.1117 13.1401 41.8124 16.7831 45.2712 8.91905C43.5668 8.71919 43.2296 4.75992 43.0238 3.37458L43.0154 3.25075C42.9697 2.5383 42.985 1.87795 43.4209 1.26861C43.8558 1.58857 44.0306 2.16802 44.1779 2.69645L44.2857 3.11968C44.6462 4.53001 45.0235 5.93398 45.5956 7.28001L45.6158 7.28323C45.5872 6.3703 46.7799 5.95296 47.0755 6.93092C55.1449 5.8389 59.559 12.3827 61.3006 19.2266C62.5708 22.9729 64.2268 26.5771 66.1079 30.0609C67.5275 32.7831 64.0801 33.4061 62.2566 34.3118C63.6591 39.8336 63.9344 45.5542 64.1944 51.2176C64.1082 52.4263 64.6642 54.9057 63.9216 55.7724C62.8218 56.618 62.2293 55.1685 62.3986 54.2391C62.5565 47.6676 61.8601 41.1252 61.6601 34.5641C60.2833 35.1357 58.8898 35.6623 57.4806 36.1515C57.5524 42.3084 58.2973 48.4652 58.563 54.5905C58.9116 54.8605 59.1042 55.3285 58.8066 55.7363C57.2123 57.9212 54.3301 58.2475 51.7941 58.2788C45.7589 58.3532 39.7175 58.3303 33.6819 58.3125C27.7533 58.1806 21.7731 58.5537 15.8758 57.8859C14.7201 58.739 14.4837 56.9001 14.6385 56.1158L14.6973 54.5446C14.7368 53.4972 14.7787 52.4499 14.8326 51.4032L14.967 48.8509C15.192 44.5976 15.4304 40.3464 15.8087 36.1014C12.383 35.6411 9.00655 34.8242 5.73772 33.7217C6.00679 41.091 5.45481 48.5394 6.3752 55.8713C6.98255 56.6813 5.7645 57.4417 5.05347 56.9343C4.17166 56.2735 4.54982 54.9808 4.37372 54.0296L4.35113 53.4146C4.10431 46.7825 3.76712 40.0111 5.02505 33.4701L4.48396 33.2637C2.83455 32.6309 -1.40722 30.9387 -0.850968 30.1038C3.57734 18.7011 13.4833 5.06264 26.6029 5.71076C26.9353 5.93742 27.105 6.379 27.3515 6.69549L27.7418 6.55629C29.2534 6.01256 30.895 5.32317 30.9398 3.49476C31.226 1.93677 31.4529 0.378462 31.603 -1.1957ZM53.2238 27.226C55.1031 24.6429 42.0686 28.7254 41.1418 28.9949L40.7929 29.1199C35.0839 31.1593 28.9294 33.1316 24.3772 37.1969C24.2815 37.2998 24.4006 37.4421 24.5243 37.3843L24.5402 37.3751C24.7213 37.2761 25.5055 37.001 24.9499 37.1052C31.5275 33.029 39.1692 30.7898 46.6361 28.8314C47.7212 28.5735 48.8114 28.3365 49.906 28.1207C51.0101 27.857 52.256 27.8599 53.2238 27.226ZM32.6269 26.3853C32.7877 25.7414 33.8679 19.8238 32.0738 21.4472C31.5955 22.2987 31.4118 23.2854 31.3257 24.2442C31.0944 25.362 31.6784 26.5667 31.1105 27.5973C30.6021 28.9432 28.7335 30.5156 28.6087 28.0149C31.6658 27.9123 30.7481 24.1057 28.6667 25.2826C27.5271 26.2411 27.3298 28.0462 27.9004 29.3685C26.979 28.383 25.485 28.3797 24.4186 27.636C22.4927 25.5902 25.7275 23.4613 27.4889 22.7245C27.5881 22.6172 29.0321 22.1227 28.7261 22.0629C27.3433 22.0754 25.9576 22.3645 24.7643 23.0792C22.2945 24.2633 21.4539 27.9294 24.2792 29.2142C24.8901 29.5035 25.5587 29.659 26.1636 29.9577C27.6879 30.7342 27.1954 31.71 25.6218 31.7386C24.9746 31.8775 22.8387 31.2953 23.0779 32.4101C23.4642 33.107 24.3056 33.2108 25.0426 33.2303C27.0127 33.363 29.4624 32.2695 28.349 29.9921C29.6929 31.1172 31.3711 29.5443 31.9471 28.3218C32.649 29.6743 34.4132 29.2671 35.4089 28.4667C36.9302 29.6441 38.8392 28.3354 39.5169 26.8739C39.5307 27.178 39.5445 27.482 39.5595 27.7861C39.5902 28.4093 40.5731 28.6094 40.7184 27.9402C40.9393 26.9228 41.244 25.9168 41.6632 24.9605C42.6274 22.4465 43.2169 23.58 43.2505 25.55C43.3693 26.2897 43.7462 26.9524 44.5781 27.0023C44.81 27.0162 45.1125 26.8135 45.1487 26.5754L45.1966 26.2604C45.298 25.6003 45.4154 24.9206 45.669 24.3004C45.9133 26.3534 48.6493 26.3435 49.4121 24.6412C50.9948 25.5746 52.6554 24.2707 53.3933 22.9221L53.4154 22.8812C53.6732 22.42 53.018 21.8622 52.6435 22.296L52.5135 22.429C51.8071 23.1475 50.6832 24.1892 49.7543 23.3019C49.7852 22.9018 49.7728 22.4931 49.7477 22.0995C49.7177 21.6301 49.0583 21.2125 48.6834 21.6322C48.155 21.1911 47.4986 21.2546 46.9459 21.5624C45.5142 21.9599 44.6123 23.3295 44.3017 24.6908C44.2687 23.6031 43.9066 22.4231 42.6907 22.3207C41.445 22.3104 40.9681 23.679 40.5432 24.6C40.5186 24.1875 40.4948 23.7751 40.4735 23.3625C40.4368 22.6526 39.4348 22.66 39.3527 23.3415L39.3505 23.3625C39.1927 24.8353 38.3625 28.3632 36.2679 27.6728C37.1511 26.7167 38.7489 23.8031 37.2299 22.8955C34.8922 22.3174 33.6931 25.9412 34.6901 27.6275L34.6383 27.6632C34.0688 28.0493 33.1276 28.4791 32.8097 27.6137L32.7736 27.5339C32.6103 27.168 32.4662 26.7716 32.6269 26.3853ZM29.2828 25.9769C29.7255 25.723 29.883 26.5638 29.77 26.846C29.589 27.2987 29.0953 27.5509 28.6032 27.7235L28.6049 27.6722C28.6266 27.1553 28.8021 26.2531 29.2828 25.9769ZM36.7335 23.8781C36.7435 23.9387 36.7272 24.0127 36.7252 24.0689C36.6495 25.06 36.2008 26.0117 35.5768 26.7851C35.2175 25.7343 35.6805 24.3457 36.7335 23.8781ZM47.3751 22.6386C47.662 22.5643 47.966 22.5852 48.2617 22.6637C48.2402 22.994 48.3132 23.3245 48.4596 23.6277C47.6963 25.8803 45.9019 24.1463 47.3751 22.6386Z" fill="black"/>
</g>
<defs>
<clipPath id="clip0_5_54">
<rect width="67" height="59" fill="white"/>
</clipPath>
</defs>
</svg>
