<svg width="68" height="61" viewBox="0 0 68 61" fill="none" xmlns="http://www.w3.org/2000/svg">
<g clip-path="url(#clip0_5_110)">
<path fill-rule="evenodd" clip-rule="evenodd" d="M64.366 46.0223C64.0309 44.1279 63.7237 42.2284 63.4445 40.3248C63.312 39.4211 63.1828 38.5165 63.0666 37.6104C62.9852 36.9756 62.8612 36.2497 63.2927 35.7795C63.8998 35.1178 64.4512 34.5514 64.5256 33.6035C64.5955 32.7116 64.2942 31.7393 64.1058 30.8736C63.7108 29.0581 63.219 27.265 62.6756 25.489C62.1235 23.6845 61.5182 21.897 60.9041 20.1129C60.33 18.4449 59.7781 16.7618 59.0304 15.1614C57.6113 12.1243 55.2105 9.87513 52.2434 8.37331C51.5055 7.99981 50.0004 6.66649 49.2294 6.368C48.5207 6.0935 48.5232 6.89499 47.8257 6.59308C47.268 6.35175 46.7488 6.02992 46.4366 5.49092C46.0976 4.90568 45.2474 4.08713 45.118 3.40588C44.8437 1.9619 45.1408 0.732884 44.1113 -0.353938C43.1974 -1.31901 41.969 -1.98017 40.698 -2.33509C37.9018 -3.11583 34.1728 -2.57 32.4858 0.031058C31.68 1.27321 31.3984 2.77461 30.3112 3.78835C29.3617 4.67351 29.5742 5.27867 28.3446 5.73484C28.2749 5.76075 26.3872 5.35541 26.3176 5.38133C24.9724 5.09317 23.6867 5.89983 22.4525 6.368C20.6126 7.06574 18.8609 7.97398 17.2152 9.05339C13.8967 11.23 11.0545 14.0564 8.71136 17.2548C6.34882 20.4795 4.51573 24.094 3.21051 27.8716C2.89354 28.7892 2.60882 29.7179 2.35768 30.6558C2.21711 31.1806 2.0669 31.725 2.23806 32.2623C2.37805 32.7019 2.68945 33.0292 3.05514 33.293C3.55084 33.6506 4.54515 33.883 4.52579 34.6021C4.51099 35.149 4.32569 35.7244 4.23525 36.2647C4.12759 36.9082 4.03914 37.5554 3.95069 38.2018C3.54835 41.1436 3.2352 44.102 3.0967 47.0688C2.96037 49.9899 2.84723 52.9708 3.04965 55.8911C3.06304 56.0837 3.1204 56.2604 3.21292 56.4098C3.12655 56.4429 3.1199 56.6041 3.22738 56.6269C3.3027 56.6429 3.37785 56.6588 3.45316 56.6748C3.60961 56.7933 3.80472 56.866 4.02925 56.8731C4.18146 56.8779 4.33359 56.8847 4.48563 56.8926C6.09012 57.2283 7.69435 57.5455 9.31979 57.7857C11.2956 58.0776 13.2773 58.3156 15.265 58.5091C19.3496 58.9066 23.402 58.7747 27.492 58.5605C31.5757 58.3465 35.6569 58.2965 39.7448 58.4029C43.8363 58.5095 47.9262 58.6876 52.0186 58.7606C56.5907 58.8419 61.1557 58.7169 65.7146 58.3531C66.3396 58.3032 66.7263 57.8054 66.6031 57.1839C65.8645 53.4604 65.0274 49.7618 64.366 46.0223Z" fill="white"/>
<path fill-rule="evenodd" clip-rule="evenodd" d="M25.0417 5.28985C25.4645 5.27146 25.8956 5.33995 26.3174 5.38148C26.3541 5.38505 26.3681 5.44181 26.3267 5.45047C25.5718 5.60833 24.8252 5.82431 24.0838 6.04365L23.7664 6.13769C22.9304 6.38527 22.1189 6.64067 21.3095 6.97089C19.6965 7.62899 18.1645 8.51728 16.7545 9.5378C11.3251 13.4675 7.39561 19.4172 4.91585 25.5772C4.24242 27.2501 3.67182 28.9646 3.20962 30.708C3.09723 31.1321 2.99149 31.558 2.89123 31.9851C2.8618 32.1104 2.73353 32.4311 2.80386 32.5593C2.86604 32.6725 3.10778 32.7425 3.22009 32.8014L3.59925 32.9982C4.33885 33.3798 5.57082 34.0071 5.69436 34.0682L5.88704 34.1632C9.03853 35.7098 12.4059 37.0214 15.9523 37.1121L15.9801 36.809C16.1382 35.1328 16.3457 33.4478 16.7986 31.8232C16.8229 31.7359 16.9339 31.7654 16.944 31.8429C17.1963 33.7662 17.1157 35.7045 17.0277 37.6367C16.8718 41.0588 16.6648 44.4791 16.4808 47.8999C16.3887 49.6111 16.2697 51.3212 16.1622 53.0315C16.0545 54.7453 16.0197 56.5002 15.7739 58.1998C15.7191 58.5786 15.2759 58.7847 14.9402 58.7447C14.5688 58.7005 14.2831 58.373 14.2813 57.9976C14.2768 57.0075 14.4011 56.0057 14.4702 55.018C14.5358 54.0796 14.6062 53.1417 14.6783 52.2038C14.942 48.7809 15.2454 45.362 15.5259 41.9406C15.6254 40.7271 15.7328 39.5147 15.8433 38.3023C12.0864 38.1811 8.57663 36.7881 5.22834 35.1605C5.17987 36.262 5.06282 37.3616 4.94952 38.4586C4.63321 41.5199 4.35431 44.5801 4.14557 47.6509C4.04016 49.2019 3.96344 50.7547 3.8966 52.3078C3.86376 53.0711 3.837 53.8345 3.81646 54.5982C3.80959 54.8528 3.80338 55.1074 3.79789 55.362L3.78647 55.9452C3.77712 56.3147 3.7396 56.657 3.429 56.9261C3.11352 57.1993 2.6874 57.2138 2.37516 56.9261C1.95719 56.5408 2.03109 56.0158 2.04348 55.4983C2.05378 55.0619 2.06617 54.6255 2.08055 54.1891C2.1094 53.3164 2.14622 52.4439 2.19103 51.5719C2.34782 48.5231 2.6611 45.4864 3.07051 42.462L3.23033 41.2945C3.52879 39.1241 3.85646 36.9043 4.52365 34.8136C4.26387 34.6843 4.00483 34.554 3.7468 34.4232C3.28909 34.1912 2.81583 33.9735 2.37092 33.7174C2.01795 33.5143 1.71353 33.2357 1.61528 32.8245C1.50569 32.3664 1.67326 31.8653 1.78458 31.4184L1.79425 31.3791C1.9034 30.9291 2.02095 30.481 2.14498 30.0349C2.64791 28.2258 3.2698 26.4519 3.9976 24.7214C5.45486 21.2568 7.33584 17.9654 9.63345 14.9894C11.7016 12.3105 14.1448 9.88116 17.0083 8.05915C18.4082 7.16837 19.9 6.43695 21.4778 5.91982C22.2152 5.67815 23.0176 5.46794 23.7897 5.38139C24.2061 5.33479 24.6232 5.30808 25.0417 5.28985ZM32.5328 -0.200124C33.0352 -0.740219 34.0334 -0.181316 33.7922 0.533874C33.2248 2.21649 32.3211 3.75131 30.9109 4.85697C29.5853 5.89638 28.0046 6.57138 26.3023 6.42732C26.2892 6.42616 26.2778 6.42283 26.2677 6.41808L26.4144 6.61728C27.5662 8.17691 28.7812 9.71498 30.2456 10.9898C33.2294 13.5871 37.292 14.988 41.2148 13.9915C44.3013 13.2075 47.0204 10.7642 47.8202 7.65048C47.7055 7.70191 47.5693 7.71947 47.4197 7.68694C46.7799 7.54787 46.1464 6.87421 45.7338 6.39121C45.2874 5.86867 44.9387 5.30444 44.6832 4.66664C44.2155 3.49941 44.0655 1.99654 44.7041 0.865837C44.7829 0.726444 44.9647 0.804587 44.9801 0.940651L45.0044 1.15304C45.1275 2.2127 45.2809 3.23775 45.78 4.20378C46.0242 4.67646 46.317 5.13783 46.6734 5.53371C46.8641 5.7455 47.0708 5.94789 47.294 6.12548C47.5115 6.2985 47.7748 6.42361 47.9697 6.62214L48.0055 6.66025L48.0065 6.65343C48.0557 6.23392 48.3496 6.04909 48.6372 6.06066C48.9154 6.07185 49.2423 6.19447 49.3688 6.2532L49.3808 6.25885C51.3221 7.19172 53.11 8.40766 54.7925 9.75669C58.272 12.5465 60.879 16.1936 62.1421 20.4884C62.7621 22.5963 63.1178 24.7682 63.4934 26.9301L63.7246 28.2546C64.0751 30.2504 64.4666 32.2854 65.2578 34.1419C65.4625 34.6221 65.3047 35.0725 64.8029 35.2614C64.1762 35.4972 63.5473 35.7255 62.9173 35.9511C63.2266 37.2795 63.4153 38.654 63.647 39.989C64.1397 42.8267 64.7433 45.6462 65.2608 48.4802C65.5254 49.9292 65.7642 51.3831 66.0285 52.8323C66.1558 53.5301 66.2886 54.227 66.4178 54.9246C66.4874 55.3007 66.5505 55.678 66.6169 56.0547L66.6285 56.1172C66.6665 56.3159 66.7143 56.5214 66.6597 56.7203C66.5975 56.9471 66.4206 57.1073 66.2628 57.2699C66.1329 57.4038 65.9451 57.4046 65.7859 57.3315L65.7335 57.3073C65.4492 57.1742 65.2264 57.0414 65.1256 56.7203C65.0617 56.517 65.0387 56.288 64.997 56.0785C64.9169 55.677 64.841 55.2749 64.7694 54.8717C64.626 54.0651 64.4861 53.2578 64.3494 52.45L64.2217 51.6935C63.7836 49.0863 63.3676 46.4632 63.1572 43.8285C63.0639 42.6596 62.965 41.4918 62.8652 40.3237L62.7903 39.4475C62.6955 38.3386 62.5797 37.2017 62.5633 36.0778L62.1867 36.2117L60.3486 36.8622C59.8929 37.0234 59.3127 37.3537 58.8222 37.2937C58.5821 37.2642 58.3991 37.1886 58.2577 37.0511C58.427 39.4422 58.6561 41.8292 58.9614 44.204C59.2392 46.3649 59.5472 48.5229 59.911 50.671C60.0912 51.7348 60.2763 52.7975 60.4774 53.8574C60.5779 54.3874 60.6816 54.9167 60.7885 55.4454C60.8418 55.7092 60.9052 55.9733 60.9468 56.2393C60.9944 56.5439 60.9106 56.7313 60.7406 56.9818C60.601 57.1876 60.3218 57.2933 60.0954 57.1513C59.7956 56.963 59.6393 56.7998 59.5511 56.4569C59.4709 56.1454 59.4222 55.8202 59.3602 55.5047C59.2457 54.9223 59.1351 54.3393 59.0283 53.7554C58.8049 52.5344 58.599 51.3104 58.4151 50.0828C57.7671 45.7579 57.356 41.3969 57.1483 37.0288C57.0458 34.8736 57.0141 32.7166 57.0323 30.5592C57.0416 29.4534 57.0777 28.3444 57.1559 27.2413C57.235 26.1247 57.3996 25.0305 57.5466 23.9247C57.5517 23.8857 57.6066 23.8835 57.6089 23.9247C57.6785 25.1645 57.7876 26.4029 57.841 27.6459C57.892 28.832 57.9144 30.02 57.955 31.2066C58.0083 32.7663 58.0822 34.3269 58.18 35.8864C58.3572 35.6924 58.6242 35.5806 58.8913 35.6243C59.2784 35.543 59.695 35.3397 60.0641 35.2162L61.4551 34.751C62.1864 34.5065 62.9177 34.2637 63.6516 34.0282C62.9955 31.8184 62.546 29.5758 62.1622 27.3004L61.9911 26.2771C61.6522 24.2628 61.2869 22.2476 60.6732 20.297C60.0281 18.2463 59.0626 16.3398 57.7818 14.6132C56.5193 12.9116 54.9833 11.4133 53.4019 10.0119C52.048 8.81223 50.5996 7.72904 49.2186 6.5623C49.2331 6.63962 49.2362 6.72475 49.2235 6.81829C48.9298 8.96952 47.8088 10.9729 46.2466 12.4629C43.108 15.4564 38.4622 16.0775 34.4452 14.6737C30.5595 13.3159 27.124 10.1001 25.9102 6.12082C25.8894 6.05275 25.9805 6.0257 26.0171 6.07572C26.0844 6.16809 26.1521 6.26047 26.2198 6.35284C26.2153 6.31614 26.2343 6.2762 26.2795 6.25872C27.6957 5.7113 29.0864 4.93494 30.148 3.8367C30.6654 3.30134 31.1169 2.69484 31.4734 2.04073C31.6441 1.72741 31.7975 1.40294 31.9199 1.06764L31.951 0.980899C32.0993 0.560894 32.2232 0.13261 32.5328 -0.200124Z" fill="black"/>
</g>
<defs>
<clipPath id="clip0_5_110">
<rect width="68" height="61" fill="white"/>
</clipPath>
</defs>
</svg>
