<svg width="67" height="61" viewBox="0 0 67 61" fill="none" xmlns="http://www.w3.org/2000/svg">
<g clip-path="url(#clip0_5_98)">
<path fill-rule="evenodd" clip-rule="evenodd" d="M3.88797 49.3047C3.64274 51.5887 3.08725 54.1048 4.14614 56.2598C3.47925 56.2901 4.02025 56.4861 4.38015 56.5535C4.58566 56.7151 4.86185 56.7791 5.12157 56.7567C6.47009 57.0463 7.86218 57.1512 9.23142 57.3151C26.3269 58.7578 43.537 58.3746 60.6644 57.753C61.2215 57.7284 61.5952 57.3173 61.6379 56.7636C62.2656 48.6145 62.578 40.4403 62.562 32.2664C62.2831 29.3939 64.42 30.5148 63.2801 26.7296C62.3637 22.7372 61.0074 18.851 59.2779 15.1481C58.0824 12.7385 56.9559 10.203 55.1337 8.20484C54.5579 8.12404 54.0677 7.54291 53.5811 7.21836C53.0882 7.12082 52.7229 6.69566 52.2235 6.56492C51.2716 6.31334 49.1416 5.77833 48.3309 6.42178C48.2989 6.41287 48.2665 6.4053 48.2344 6.39606C48.0758 6.57482 47.8578 6.44075 47.7395 6.28014C47.3344 5.96066 45.5641 5.92781 45.3631 5.43748C44.3157 4.47213 44.0355 2.44046 44.0355 1.25186C43.6438 0.80472 43.6167 0.887757 43.085 0.651413C42.5638 -0.016591 41.9341 -0.598463 41.2312 -1.05717C37.2758 -3.6959 31.536 -0.915363 30.6101 3.67112C29.1463 4.84868 27.6396 6.04488 25.8468 6.65846C24.9718 6.20116 23.9751 6.0552 23.0465 6.05428C22.3543 6.02873 21.3978 5.62204 20.948 6.36219C13.38 8.87934 8.81255 16.2003 5.56477 23.1369C5.10953 24.1245 4.56493 25.1586 4.70426 26.2838C4.80001 27.6314 6.23944 28.4335 5.96743 29.8616C5.57206 33.7901 5.12231 37.7145 4.71073 41.6418C4.43642 44.1961 4.1622 46.7504 3.88797 49.3047Z" fill="white"/>
<path fill-rule="evenodd" clip-rule="evenodd" d="M59.2528 30.564C58.7635 30.744 58.0776 30.9194 57.7277 31.3261C57.6874 30.9471 57.6466 30.5682 57.6057 30.1893C58.631 30.1645 59.6585 30.1556 60.6844 30.1264C60.2002 30.2468 59.7216 30.3917 59.2528 30.564ZM57.0001 54.4021C56.6473 54.4054 56.2933 54.4304 55.9407 54.4444C55.2615 54.4711 54.5823 54.4975 53.9031 54.5234C52.5175 54.5761 51.1318 54.627 49.746 54.676C47.0018 54.7729 44.2573 54.8624 41.5125 54.9445C36.023 55.1086 30.5307 55.2079 25.042 55.3955C23.5192 55.4475 21.9966 55.488 20.4752 55.5722C19.6869 55.6158 18.8948 55.6533 18.1103 55.7461C17.4484 55.8243 16.7959 55.9563 16.1377 56.0547C16.1818 55.1833 16.2232 54.3117 16.2662 53.4404C16.3069 52.616 16.3449 51.7916 16.3827 50.967C18.952 51.1036 21.5244 51.1588 24.0972 51.1821C26.8186 51.2068 29.5392 51.2754 32.2609 51.2807C37.6488 51.2916 43.0372 51.2227 48.425 51.1678C49.9488 51.1521 51.4727 51.1366 52.9966 51.1211C53.7585 51.1133 54.5205 51.1055 55.2824 51.0977C55.6628 51.0939 56.0454 51.1021 56.4253 51.0861C56.8309 51.069 57.0772 50.9518 57.3716 50.6745C57.5286 50.5266 57.5352 50.2255 57.3716 50.0788C57.1354 49.8668 56.9161 49.7042 56.5886 49.6804C56.2671 49.657 55.9315 49.6891 55.609 49.6935C54.9014 49.7029 54.1939 49.7124 53.4864 49.7218C52.1258 49.7401 50.7652 49.7582 49.4046 49.7763C46.6833 49.8127 43.962 49.8499 41.2409 49.892C38.574 49.9334 35.9069 49.9642 33.2405 50.0322C30.518 50.1019 27.7986 50.2276 25.0768 50.3165C22.1796 50.4111 19.2838 50.524 16.3932 50.7448C16.4626 49.2165 16.5266 47.6879 16.5868 46.159C22.3264 46.4764 28.07 46.7024 33.8192 46.7123C39.8089 46.7227 45.7983 46.6187 51.7858 46.4599C52.6295 46.4374 53.4732 46.4148 54.3168 46.3879C54.7522 46.374 55.1876 46.3612 55.623 46.3452C55.9431 46.3334 56.2721 46.3195 56.5615 46.1639C57.1325 45.857 57.231 44.9608 56.5535 44.7157C56.1831 44.5817 55.7902 44.7127 55.7001 45.052C55.6724 45.0547 55.6461 45.057 55.623 45.0579C55.2965 45.0704 54.9698 45.0796 54.6434 45.0901C53.9358 45.1129 53.2282 45.1363 52.5206 45.1588C51.2143 45.2003 49.9079 45.2387 48.6014 45.2738C45.934 45.3456 43.2663 45.4041 40.5983 45.4493C35.3162 45.5387 30.0344 45.6213 24.7528 45.744C22.033 45.8073 19.314 45.8892 16.5946 45.9593C16.6595 44.2975 16.7209 42.6357 16.7762 40.9737C16.7826 40.779 16.7897 40.5841 16.7966 40.3892C17.1863 40.4763 17.5854 40.5245 17.9824 40.5816C18.6713 40.6806 19.3624 40.7539 20.0542 40.8281C21.3579 40.9678 22.6658 41.0535 23.9742 41.1269C26.6419 41.2764 29.3102 41.3818 31.9806 41.4644C37.2631 41.6279 42.5521 41.6635 47.8366 41.6451C50.7062 41.6352 53.5933 41.6736 56.4615 41.5465C56.6383 41.5956 56.8204 41.5905 56.9966 41.532C57.1413 44.1301 57.294 46.7277 57.4442 49.3255C57.5455 51.0781 57.6348 52.8367 57.7593 54.59C57.5162 54.4684 57.2926 54.3995 57.0001 54.4021ZM7.27174 28.0067C6.7685 27.7565 6.2135 27.5282 5.76923 27.1739C5.28361 26.7864 5.16435 26.3315 5.31358 25.7235C5.32472 25.6781 5.33783 25.6329 5.34946 25.5876C8.92806 25.5965 12.4976 25.4365 16.0746 25.3502C19.7088 25.2626 23.3417 25.1889 26.9769 25.1681C34.2266 25.1267 41.4754 25.2928 48.7216 25.4996C51.3313 25.574 53.9408 25.6474 56.5506 25.7198C56.491 26.3662 56.514 27.0286 56.5004 27.6705C56.4886 28.2343 56.4917 28.7989 56.4999 29.3635C55.1347 29.3601 53.7698 29.3301 52.4044 29.3145C49.0242 29.2758 45.6458 29.3744 42.2664 29.4529C35.5078 29.6101 28.7474 29.7336 21.9902 29.9404C20.1549 29.9965 18.3078 30.0261 16.4641 30.1059C16.4007 29.8013 16.3303 29.4982 16.251 29.1971C16.1248 28.7188 15.9825 28.2271 15.6053 27.8948C15.5872 27.8788 15.5621 27.8857 15.554 27.9085C15.4108 28.3119 15.447 28.7226 15.4889 29.1453C15.5221 29.4792 15.5445 29.8139 15.5611 30.1492C14.4147 30.2104 13.2706 30.2965 12.1325 30.4256C11.8071 30.2622 11.4815 30.0992 11.1554 29.937C9.86107 29.2932 8.56628 28.6501 7.27174 28.0067ZM48.8175 40.0176C46.1475 40.0395 43.4772 40.0418 40.8072 40.0244C35.522 39.99 30.2385 39.8579 24.9544 39.7512C23.4838 39.7217 22.0151 39.6923 20.5442 39.6922C19.7827 39.6922 19.0187 39.6974 18.258 39.7309C17.7793 39.752 17.2939 39.7551 16.8174 39.8135C16.8749 38.2494 16.9347 36.6837 16.9328 35.1189C21.9739 35.8946 27.0691 36.1076 32.1599 36.2602C37.3176 36.4148 42.4764 36.495 47.6362 36.5026C49.1026 36.5049 50.569 36.5016 52.0353 36.4927C52.7412 36.4886 53.4473 36.4831 54.1532 36.4763C54.5327 36.4727 54.9145 36.4805 55.2936 36.4643C55.6946 36.4471 55.9367 36.3506 56.2168 36.0608C56.3601 35.9126 56.3674 35.6568 56.2168 35.5092C55.7169 35.0192 55.1288 35.1256 54.479 35.1338C53.8274 35.142 53.1757 35.1491 52.524 35.1551C51.2207 35.1671 49.9172 35.1748 48.6138 35.1782C46.0613 35.1848 43.5087 35.1748 40.9564 35.1483C35.7978 35.0947 30.6405 34.9782 25.4832 34.8555C22.632 34.7876 19.7814 34.8063 16.9325 34.9468C16.9314 34.687 16.9291 34.4271 16.9241 34.1672C16.9053 33.1833 16.811 32.1993 16.6634 31.2262C18.0596 31.2213 19.4557 31.191 20.8455 31.1728C24.2253 31.1288 27.6043 31.0597 30.9836 30.9908C34.3357 30.9225 37.6879 30.8542 41.04 30.7859C44.39 30.7176 47.7503 30.7127 51.0963 30.529C52.902 30.4298 54.7084 30.295 56.5155 30.2241C56.519 30.3927 56.5225 30.5613 56.5261 30.7297C56.5696 32.7973 56.6491 34.8629 56.7517 36.9283C56.801 37.9207 56.853 38.9131 56.9065 39.9053C56.8806 39.9027 56.8542 39.9012 56.827 39.9009C54.159 39.8829 51.486 39.9956 48.8175 40.0176ZM6.56693 22.0611C6.8726 21.262 7.20466 20.4684 7.56357 19.6854C9.08737 20.1224 10.7128 20.3479 12.2854 20.4979C13.9596 20.6578 15.6371 20.7476 17.3181 20.7825C20.6323 20.8512 23.9464 20.6915 27.257 20.5525C34.0664 20.2668 40.8752 20.0582 47.691 20.0448C49.5944 20.041 51.4978 20.05 53.4011 20.0718C54.3527 20.0827 55.3043 20.0957 56.2558 20.1123C56.7452 20.1209 57.2345 20.1303 57.7239 20.1405C57.9405 20.145 58.1598 20.1613 58.3763 20.1546C58.6658 20.1457 58.8773 20.0573 59.146 19.9508C59.4546 19.8288 59.6366 19.3046 59.2515 19.131C58.8669 18.9574 58.5583 18.8557 58.1316 18.8463C57.6695 18.8362 57.2073 18.8269 56.7452 18.8182C55.9023 18.8026 55.0595 18.7894 54.2167 18.7788C52.5039 18.7571 50.7908 18.7479 49.0778 18.7481C45.7061 18.7486 42.3344 18.7891 38.9636 18.8696C32.1965 19.0313 25.4445 19.5106 18.6798 19.7162C16.8152 19.773 14.9472 19.7841 13.0826 19.7272C11.2765 19.6722 9.4743 19.5178 7.67046 19.4528C8.29353 18.1183 8.9985 16.8186 9.79398 15.5829C12.801 15.6902 15.8016 15.6108 18.8093 15.5178C20.3876 15.469 21.9659 15.4194 23.544 15.3644C24.3331 15.337 25.1222 15.3095 25.9113 15.282C26.2922 15.2687 26.6732 15.2555 27.0541 15.2423C27.4645 15.228 27.8964 15.2549 28.2949 15.1453C28.3671 15.1254 28.4244 15.083 28.4676 15.0289C29.5284 15.5834 30.6505 16.0208 31.8043 16.3449C34.3089 17.0486 37.0026 17.3125 39.5929 17.096C41.6717 16.9222 43.7434 16.3994 45.5711 15.3758C49.6986 15.7619 53.884 15.5805 58.0203 15.553C58.4155 15.5504 58.5799 15.1826 58.5138 14.8792C59.8413 17.7858 60.7206 20.9369 61.5437 24.0019C62.0551 25.9067 62.51 27.8234 62.9431 29.747C62.9251 29.7486 62.9071 29.7503 62.8892 29.752C62.9394 29.5413 62.8265 29.2929 62.5426 29.2862C60.8685 29.2472 59.1891 29.3449 57.5144 29.3606C57.4673 28.9351 57.4202 28.5094 57.3706 28.084C57.3028 27.5044 57.222 26.9263 57.153 26.3468C57.128 26.1367 57.1047 25.9338 57.0763 25.7343C58.4022 25.7709 59.7281 25.8079 61.054 25.8435C61.9145 25.8666 61.9129 24.5126 61.054 24.486C53.7679 24.2593 46.4814 24.0303 39.1928 23.9046C31.8998 23.7788 24.5817 23.7012 17.2942 24.0811C13.323 24.288 9.36151 24.5647 5.43964 25.2473C5.74425 24.1672 6.16919 23.1009 6.56693 22.0611ZM12.7688 11.773C12.9008 11.8735 12.9431 11.937 13.1403 11.9722C13.3542 12.0102 13.5741 12.0223 13.79 12.0438C14.2519 12.0897 14.715 12.1069 15.1786 12.1292C16.1041 12.1739 17.0296 12.2211 17.9558 12.2498C19.7943 12.3064 21.6723 12.3868 23.5101 12.3037C23.9597 12.2834 24.1642 11.9067 24.1233 11.5635C24.468 11.9972 24.8448 12.4043 25.2462 12.7755C25.8914 13.3721 26.588 13.9009 27.3223 14.3676C26.8459 14.3854 26.3608 14.446 25.9113 14.4657C25.1494 14.4988 24.3875 14.532 23.6256 14.5653C22.02 14.6353 20.4146 14.7106 18.8093 14.7868C15.8383 14.9279 12.8775 15.1035 9.91775 15.3914C10.763 14.1007 11.7099 12.8833 12.7688 11.773ZM61.1243 18.0422C59.869 14.5413 58.2506 10.9047 55.3382 8.50015C53.8412 7.26417 52.1734 6.40917 50.2846 6.00414C50.2266 5.99166 50.2035 6.07554 50.2601 6.09443C53.5264 7.1832 55.9435 10.0641 57.5787 13.0166C57.8749 13.5516 58.1495 14.0994 58.4091 14.6555C58.3246 14.5508 58.1953 14.4811 58.0203 14.4841C54.1579 14.55 50.25 14.4836 46.3963 14.8669C46.4947 14.8004 46.593 14.7339 46.6895 14.6639C47.7423 13.9016 48.6895 12.9689 49.4726 11.9125C49.9442 12.034 50.4407 12.0636 50.9219 12.1101C51.5641 12.1721 52.2108 12.2005 52.8551 12.2357C53.4984 12.2707 54.1441 12.2741 54.7882 12.2899C55.2308 12.3008 56.096 12.3754 56.0965 11.6875C56.097 10.9989 55.2309 11.0718 54.7882 11.0808C54.144 11.0937 53.4986 11.0956 52.8551 11.1263C52.2382 11.1556 51.6175 11.1793 51.0024 11.2354C50.6272 11.2696 50.2412 11.2921 49.8639 11.3527C50.4778 10.422 50.9665 9.40832 51.2928 8.33912C51.3256 8.23151 51.3364 8.13099 51.331 8.03786C51.4695 7.88948 51.5577 7.68618 51.5577 7.49993C51.5577 7.05704 51.2181 6.79756 50.8211 6.75137C49.2498 6.56887 47.5186 6.30881 46.2523 5.25916C45.6808 4.78547 45.2212 4.22549 44.7885 3.62289C44.3024 2.94557 44.1202 2.09224 44.1183 1.26312C44.1182 1.2166 44.0423 1.20253 44.0353 1.25172C43.7974 2.93267 44.1406 4.85155 45.328 6.11099C46.4938 7.34756 48.0775 7.81076 49.6846 8.0813C49.022 10.0043 47.9283 11.6934 46.3928 13.0216C44.6817 14.5017 42.5158 15.2933 40.3076 15.592C37.9252 15.9144 35.4283 15.7576 33.0855 15.2315C30.8286 14.7246 28.6209 13.818 26.7841 12.3712C25.8574 11.6412 25.0049 10.7807 24.2621 9.85979C23.649 9.09975 23.1789 8.25215 22.6527 7.43793C24.6161 7.98485 26.9899 7.23771 28.6345 6.18231C29.6032 5.56083 30.4519 4.78489 31.149 3.86182C31.4929 3.40652 31.7988 2.92593 32.0511 2.41205C32.1823 2.14475 32.3002 1.86979 32.4088 1.59225C32.4759 1.42082 32.5416 1.24473 32.5416 1.05623C32.5412 0.917423 32.5068 0.7881 32.4383 0.668264C32.2976 0.516554 32.2696 0.472614 32.3543 0.536194C32.2161 0.248754 31.8167 0.17577 31.5611 0.3249C31.4659 0.380573 31.2418 0.488343 31.1317 0.668264C31.0572 0.789931 31.0172 0.935399 30.9695 1.06888C30.8942 1.2796 30.8184 1.48789 30.7239 1.69078C30.5044 2.16214 30.2411 2.61202 29.9408 3.03486C29.392 3.80781 28.6865 4.50677 27.9181 5.05227C27.1114 5.62491 26.2419 6.09302 25.2989 6.38537C24.3029 6.69403 23.3171 6.78624 22.2895 6.89933C22.2785 6.88386 22.2679 6.86829 22.2569 6.8529C22.2371 6.8251 22.1942 6.83409 22.1925 6.87062C22.1917 6.8881 22.1921 6.90549 22.1916 6.92297C22.0451 6.99279 22.0329 7.20259 22.1962 7.28314C22.2567 8.24891 22.6669 9.20002 23.1139 10.0358C23.3001 10.3839 23.5104 10.7212 23.7383 11.047C23.6708 11.0209 23.5951 11.0043 23.5101 11.001C21.6717 10.9294 19.7942 11.0216 17.9558 11.0899C17.0567 11.1234 16.1586 11.1746 15.2602 11.2235C14.7972 11.2486 14.333 11.2647 13.8716 11.3134C13.6409 11.3378 13.4088 11.3569 13.1793 11.392C13.1627 11.3946 13.1472 11.3973 13.1326 11.3999C13.7004 10.8318 14.2989 10.2936 14.9307 9.79147C17.0034 8.14405 19.384 6.8018 21.9239 6.0718C21.948 6.06489 21.9445 6.02303 21.9179 6.02586C16.866 6.55073 12.6579 9.78523 9.71412 13.8464C8.08073 16.0999 6.84189 18.5946 5.77587 21.167C5.23856 22.4637 4.73016 23.7834 4.30441 25.1226C4.08801 25.8032 3.99046 26.5251 4.30039 27.1929C4.53809 27.7052 4.9767 28.0859 5.43645 28.3883C5.467 28.4085 5.49845 28.4272 5.52933 28.4469C5.05934 30.1105 4.74449 31.8175 4.44242 33.5193C4.1143 35.3681 3.82804 37.2246 3.58215 39.0864C3.09071 42.8081 2.71426 46.5375 2.54988 50.2899C2.50442 51.3277 2.47403 52.3663 2.46076 53.4051C2.45413 53.9248 2.45704 54.4443 2.46404 54.9639C2.47198 55.5454 2.3945 56.2016 2.68584 56.7205C3.07515 57.4139 3.83123 57.1752 4.16377 56.701C4.16861 56.7075 4.1736 56.714 4.17852 56.7205C4.20866 56.6603 4.23389 56.6001 4.25543 56.54C4.29122 56.46 4.31456 56.3765 4.32308 56.2913C4.38574 55.9692 4.36215 55.6422 4.35961 55.2922C4.35593 54.7999 4.35871 54.3076 4.3601 53.8152C4.36281 52.8858 4.37321 51.9566 4.39926 51.0273C4.45143 49.1693 4.55332 47.313 4.69265 45.4596C4.96949 41.7779 5.37788 38.1132 5.72738 34.4388C5.90528 32.5679 6.11988 30.6922 6.1569 28.8114C6.5883 29.0422 7.03347 29.2513 7.46405 29.474C8.26298 29.8872 9.06182 30.3004 9.86066 30.7135C10.6354 31.1143 11.4113 31.5125 12.1876 31.9104C12.9703 32.3115 13.7477 32.842 14.6283 32.9407C15.099 32.9933 15.2694 32.3491 14.9921 32.0483C14.6299 31.6553 14.1489 31.4112 13.6654 31.1825C14.3078 31.2064 14.951 31.2192 15.5946 31.2242C15.6034 32.0469 15.5748 32.8714 15.5342 33.6922C15.4343 35.7056 15.2954 37.7155 15.1638 39.727C14.8904 43.9082 14.6258 48.0916 14.4193 52.2768C14.3687 53.3019 14.3181 54.3269 14.2675 55.3519C14.2429 55.8502 14.2088 56.3492 14.1949 56.8479C14.1793 57.4075 14.1928 58.1089 14.7025 58.4544C15.0626 58.6983 15.4501 58.5834 15.7204 58.2479C16.0818 57.7992 16.0813 57.1492 16.1103 56.5986C16.117 56.4714 16.123 56.3441 16.1295 56.2169C16.6816 56.2895 17.2296 56.39 17.784 56.4449C18.4612 56.512 19.1427 56.5515 19.8229 56.5692C21.2098 56.6055 22.5945 56.6185 23.9818 56.6185C26.7274 56.6186 29.4727 56.5709 32.2178 56.5259C37.7082 56.4358 43.1979 56.2796 48.6864 56.1065C50.208 56.0585 51.7295 56.0082 53.251 55.9556C54.0389 55.9284 54.8267 55.9006 55.6147 55.8721C56.3605 55.8451 57.1752 55.9432 57.8316 55.5498C57.8506 55.7892 57.8699 56.0287 57.8906 56.2679C57.93 56.7212 58.2437 57.1106 58.72 57.1106C59.1675 57.1106 59.5521 56.7249 59.5493 56.2679C59.3821 52.1333 59.0203 47.9983 58.7337 43.8707C58.4705 40.0794 58.2238 36.2829 57.8475 32.5006C57.9543 32.5708 58.0848 32.6142 58.2387 32.6149C58.7304 32.6169 59.2211 32.3071 59.6811 32.1424C60.1453 31.9763 60.6171 31.8325 61.0953 31.7146C61.3783 31.6448 61.6625 31.5863 61.9477 31.5364C61.9132 32.1282 61.922 32.7252 61.9112 33.3148C61.8946 34.2212 61.8669 35.1272 61.8452 36.0334C61.8025 37.8188 61.7874 39.6044 61.7538 41.39C61.6861 44.9895 61.5747 48.5872 61.3854 52.1824C61.3334 53.1703 61.2749 54.1579 61.2099 55.1449C61.1757 55.6659 61.1397 56.1868 61.1017 56.7075C61.0646 57.2193 60.9778 57.7631 61.1674 58.2537C61.1735 58.2501 61.1795 58.2467 61.1854 58.2431C61.3177 58.6661 61.8992 58.8682 62.1739 58.3874C62.602 57.6379 62.5033 56.5638 62.5525 55.7206C62.6053 54.816 62.6526 53.9109 62.6946 53.0055C62.7784 51.1946 62.8366 49.3831 62.8703 47.5704C62.9378 43.9445 62.9264 40.3133 62.7082 36.6926C62.6485 35.7027 62.5649 34.7145 62.4792 33.7267C62.4149 32.9862 62.3794 32.2255 62.2657 31.4846C62.8217 31.4013 63.382 31.3529 63.9478 31.3387C64.4953 31.3248 64.8484 30.8231 64.7323 30.292C63.8234 26.1325 62.5589 22.0434 61.1243 18.0422Z" fill="black"/>
</g>
<defs>
<clipPath id="clip0_5_98">
<rect width="67" height="61" fill="white"/>
</clipPath>
</defs>
</svg>
