<svg width="67" height="62" viewBox="0 0 67 62" fill="none" xmlns="http://www.w3.org/2000/svg">
<g clip-path="url(#clip0_5_18)">
<path fill-rule="evenodd" clip-rule="evenodd" d="M61.406 33.9115C60.8584 32.1737 61.5106 30.1666 61.0843 28.2932C60.9382 27.5522 60.6605 24.7993 60.3817 23.1895C60.2257 22.2891 61.1589 22.0095 61.3022 21.6501C62.3115 18.4215 54.9491 10.8261 54.4997 10.5463C53.8262 10.1444 53.2303 9.79839 52.5723 9.38779C50.6527 8.69149 48.3509 6.75436 46.6106 7.99856C43.5955 3.3635 44.7883 -2.34715 43.1522 -3.02588C41.5161 -3.7046 36.6846 -5.07639 33.9223 -3.32466C32.2667 -2.05963 32.3887 0.118108 31.6333 1.91408C31.1898 2.7595 30.972 3.98421 30.4558 4.5356C28.7019 6.40907 26.5148 6.7321 24.0697 7.05008C23.8834 7.07429 23.6875 6.55124 23.5065 6.61582C19.382 8.08797 14.5828 8.51751 9.91176 16.7606C9.25208 17.9394 7.47248 19.8309 8.06754 21.1932C4.14681 30.6082 0.288952 51.7994 11.047 57.0842C11.3909 57.3114 13.7238 56.0934 14.1039 56.1046C14.7376 56.1235 13.5235 57.7122 14.1039 57.4292C18.3655 57.7631 41.8144 56.9016 50.8027 57.7631C56.9837 57.7153 60.8986 58.8344 62.3258 57.7153C61.7553 56.2914 61.7817 54.7663 61.9621 53.2609C63.2756 52.2515 61.6518 45.1378 61.7893 43.0547C63.0188 41.5326 62.0398 35.8238 61.406 33.9115Z" fill="white"/>
<path fill-rule="evenodd" clip-rule="evenodd" d="M59.4463 23.4914C58.8566 24.377 58.3149 25.2887 57.8252 26.2371C57.5726 26.7262 57.3371 27.2251 57.125 27.7341C57.081 26.6335 57.0713 25.5199 56.9467 24.4301C56.9378 24.3514 56.8107 24.3132 56.7974 24.4091C56.6598 25.3973 56.6371 26.4111 56.5851 27.4098C56.5252 27.3909 56.459 27.38 56.3861 27.38C55.6785 27.38 54.9814 27.4399 54.2763 27.4989C53.9603 27.5253 53.6297 27.5455 53.3074 27.5975C53.5668 27.3016 53.8084 26.9891 54.0315 26.6631C54.2589 26.3306 54.5189 25.811 54.1226 25.4916C53.6848 25.1388 52.8262 25.6002 52.4027 25.7796C52.1883 25.8705 51.9781 25.9694 51.7711 26.0745C51.5097 25.3183 50.7086 25.2181 50.0218 25.3225C49.5322 25.397 49.0568 25.57 48.5797 25.7017C47.9738 25.8688 47.3654 26.0261 46.7548 26.1738C45.6552 26.4396 44.548 26.6719 43.4356 26.8732C43.4062 26.838 43.3654 26.8101 43.311 26.7961C42.9301 26.6978 42.5098 26.7731 42.1191 26.7805C41.7175 26.7882 41.3157 26.7876 40.914 26.7791C40.1965 26.7639 39.4796 26.7578 38.7622 26.7449C38.5582 26.6173 38.2997 26.4341 38.2363 26.1938C38.1573 25.8939 38.4042 25.5618 38.5188 25.3065C38.9588 24.3263 39.1128 23.2294 38.9401 22.162C38.9093 21.9717 38.8459 21.7636 38.7543 21.5686C39.5404 21.6555 40.3162 21.7145 41.1065 21.7411C42.6846 21.7941 44.2627 21.8497 45.8415 21.8618C48.9983 21.8861 52.1551 21.8862 55.3119 21.8624C57.0968 21.8489 58.8777 21.832 60.6604 21.7379C60.5151 21.928 60.3738 22.1223 60.2359 22.3196C60.2074 22.3108 60.1701 22.3266 60.1744 22.3631C60.1758 22.3759 60.1773 22.3886 60.1788 22.4013C59.9271 22.7643 59.6848 23.1331 59.4463 23.4914ZM55.9361 57.1953C55.2025 57.1712 54.469 57.147 53.7355 57.1229C52.2955 57.0756 50.8556 57.0282 49.4158 56.981C46.5632 56.8872 43.7107 56.7967 40.8577 56.7154C38.0116 56.6344 35.1641 56.5486 32.3172 56.6403C29.4638 56.7323 26.6177 56.97 23.7696 57.1609C22.1862 57.2669 20.6017 57.3588 19.0155 57.4028C17.5047 57.4446 15.9805 57.3813 14.4721 57.4926C14.4214 57.1075 14.4587 56.7235 14.4532 56.3399C14.948 56.0448 15.4337 55.7311 15.9136 55.4228C17.6635 54.2989 19.3175 53.0273 20.8777 51.6374C21.1175 51.4237 21.3527 51.2055 21.5855 50.985C21.4234 51.3505 21.5531 51.8218 22.0174 51.9766C22.5837 52.1653 23.1634 52.0983 23.7515 52.084C24.3487 52.0695 24.9459 52.0557 25.5431 52.0427C26.7104 52.0171 27.8777 51.9942 29.0451 51.974C31.3255 51.9346 33.6061 51.9054 35.8867 51.8863C40.4751 51.8481 45.0604 51.9126 49.6481 51.998C50.9381 52.0221 52.2268 52.052 53.5169 52.0218C54.1623 52.0067 54.8103 52.0019 55.455 51.9661C55.9715 51.9372 56.4911 51.8618 57.0076 51.7939C57.0727 52.7227 57.1407 53.6513 57.2166 54.5793C57.2668 55.192 57.3184 55.8047 57.3694 56.4175C57.3902 56.6701 57.3918 56.9282 57.4263 57.1683C56.9305 57.1964 56.4377 57.2117 55.9361 57.1953ZM56.4406 30.9678C56.4226 31.6787 56.413 32.3901 56.4081 33.1016C56.3485 33.0664 56.2815 33.0407 56.2059 33.0288C55.4036 32.9024 54.5451 32.9983 53.7334 33.0124C52.9488 33.0259 52.1615 33.0214 51.3777 33.0596C50.5923 33.0979 49.8072 33.1437 49.022 33.1856C48.6535 33.2055 48.2891 33.2225 47.9236 33.274C47.6731 33.3093 47.3528 33.3068 47.0852 33.3804C48.2077 32.2577 49.3242 31.1284 50.4437 30.0026C50.4772 29.9687 50.5014 29.933 50.5184 29.8967C51.2649 29.427 51.9814 28.8983 52.6303 28.293C53.1449 28.4978 53.7307 28.5237 54.2763 28.5694C54.9816 28.6285 55.6782 28.6883 56.3861 28.6883C56.434 28.6883 56.4788 28.6835 56.521 28.6749C56.4863 29.4388 56.46 30.2027 56.4406 30.9678ZM27.2942 44.7791C29.008 45.3443 30.8647 45.338 32.6476 45.4512C34.5482 45.5719 36.446 45.6722 38.3489 45.7487C42.1493 45.9011 45.9472 46.1084 49.7471 46.2732C51.9175 46.3674 54.0875 46.4712 56.2571 46.584C56.411 46.5919 56.5577 46.5512 56.6872 46.4766C56.76 47.952 56.8454 49.4268 56.9447 50.9006C56.9571 51.0849 56.9709 51.2691 56.9836 51.4535C55.9624 51.3212 54.9491 51.1946 53.9203 51.1049C52.7651 51.0041 51.6105 50.9192 50.4536 50.8399C48.1993 50.6856 45.9413 50.4789 43.6829 50.4036C39.0791 50.2499 34.4651 50.3022 29.8595 50.336C28.5564 50.3456 27.2533 50.3586 25.9503 50.3749C25.2988 50.3831 24.6473 50.392 23.9958 50.4018C23.341 50.4117 22.6374 50.3414 22.0174 50.5774C22.0115 50.5796 22.0065 50.5829 22.0007 50.5851C23.8711 48.7551 25.5466 46.7326 27.2942 44.7791ZM33.3186 38.9284C36.1827 39.4668 39.0916 39.43 41.9947 39.4832C44.9653 39.5379 47.9398 39.5017 50.9108 39.508C52.5985 39.5117 54.3007 39.5882 55.9823 39.4332C56.181 39.4148 56.335 39.337 56.4449 39.2266C56.4755 41.0736 56.5316 42.9199 56.609 44.7653C56.4999 44.7175 56.3808 44.6884 56.2571 44.6808C52.4607 44.4502 48.664 44.2409 44.863 44.1131C41.0649 43.9853 37.2622 43.8337 33.4621 43.8812C31.6077 43.9044 29.6467 43.7819 27.8177 44.1992C28.5127 43.4365 29.2227 42.688 29.9654 41.9712C31.0481 40.9263 32.2035 39.9476 33.3186 38.9284ZM35.5068 36.7542C35.5106 36.7498 35.5125 36.7448 35.5154 36.7401C35.5257 36.748 35.5383 36.7534 35.5549 36.753C38.2359 36.6906 41.2436 37.564 43.7511 36.2236C44.8705 35.6252 45.7975 34.6795 46.6974 33.7705C46.6979 33.7771 46.6985 33.7839 46.699 33.7907C46.7049 33.8644 46.7351 33.9532 46.8075 33.9859C47.1033 34.1199 47.4497 34.1287 47.7672 34.1764C48.1324 34.2314 48.4911 34.2635 48.8595 34.2863C49.6718 34.3367 50.484 34.3899 51.2965 34.4374C52.1072 34.4848 52.9216 34.4887 53.7334 34.5095C54.5474 34.5304 55.4001 34.6322 56.2059 34.5123C56.2798 34.5013 56.3456 34.4772 56.404 34.444C56.4052 35.5203 56.4147 36.5966 56.4245 37.6722C56.4261 37.8476 56.4294 38.0228 56.4313 38.198C56.3226 38.0951 56.1731 38.0232 55.9823 38.0058C54.4883 37.87 52.9827 37.9304 51.4833 37.9356C50.0111 37.9406 48.5386 37.9457 47.0663 37.9508C44.0933 37.961 41.1227 37.9909 38.1502 38.0494C36.7047 38.0778 35.2655 38.2034 33.8411 38.4449C34.4178 37.9024 34.9785 37.3439 35.5068 36.7542ZM12.2121 56.324C11.6632 56.4973 11.1184 56.4221 10.5685 56.5409C10.5346 56.5481 10.5034 56.5617 10.4748 56.5795C8.82801 55.8529 7.73029 54.3949 6.97904 52.7611C6.18716 51.0389 5.64134 49.1978 5.2757 47.3315C4.52183 43.4841 4.52052 39.4948 4.91072 35.6024C5.29413 31.7783 6.05325 27.975 7.13655 24.2974C7.88035 21.7722 8.82826 19.2211 10.1444 16.9186C11.6642 17.9702 12.8429 19.4842 13.9532 20.9641C15.28 22.7327 16.4757 24.6042 17.546 26.5488C17.4353 26.8819 17.4181 27.2997 17.365 27.5974C17.2627 28.1716 17.1703 28.7529 17.0977 29.332C16.9425 30.5697 16.7936 31.8081 16.6349 33.0453C16.3211 35.4918 15.9465 37.9316 15.5326 40.3621C15.4991 40.5592 15.5527 40.7256 15.6512 40.8505C14.8303 41.2973 14.0202 41.764 13.2308 42.2698C11.4955 43.3818 9.87364 44.6772 8.60031 46.3386C8.56722 46.3817 8.61907 46.4394 8.66002 46.4004C11.3906 43.7948 14.7831 42.159 18.1138 40.5423C19.8159 39.7161 21.5097 38.8766 23.1428 37.9107C24.8505 36.9007 26.4792 35.7594 28.0401 34.5224C29.8226 33.11 31.5005 31.5659 33.0733 29.9092C33.2586 29.7139 33.2137 29.4694 33.0743 29.315C33.1214 29.2999 33.1594 29.2576 33.1619 29.1871C33.1996 28.1052 33.5142 27.1835 34.1302 26.3079C34.7016 25.4954 35.4298 24.826 36.0867 24.0909C36.3786 23.7643 36.6576 23.424 36.9067 23.0609C37.1631 22.6873 37.3193 22.2749 37.5425 21.8846C37.8032 21.4284 38.025 21.6614 38.1458 22.0744C38.2829 22.5424 38.2743 23.0905 38.2193 23.5717C38.1611 24.0809 38.0109 24.5773 37.7947 25.0375C37.5916 25.4698 37.3574 25.9096 37.4941 26.4051C37.7188 27.2193 38.682 27.6909 39.4117 27.8743C40.2242 28.0785 41.0742 28.0388 41.8969 27.9329C42.9273 27.8002 43.9528 27.606 44.9713 27.3994C46.1509 27.1603 47.3234 26.8843 48.4869 26.5724C49.0338 26.4259 49.5768 26.2331 50.129 26.1117C50.3259 26.0685 50.6903 26.0035 50.9217 26.1095C47.9473 27.9406 44.7045 29.1605 41.4109 30.2234C41.0017 30.3554 41.1695 30.9936 41.5883 30.8878C45.1266 29.9945 48.4555 28.3364 51.6236 26.5203C51.6721 26.4924 51.7132 26.4494 51.7434 26.3985C52.0621 26.2827 52.3861 26.1821 52.7165 26.0991C52.8642 26.0621 53.6238 25.8032 53.7188 25.9027C53.8533 26.0435 53.3877 26.5009 53.2714 26.6339C52.4435 27.5809 51.4587 28.354 50.3928 28.993C49.3115 29.6411 48.161 30.1578 47.0052 30.6454C45.7104 31.1917 44.3418 31.621 43.0832 32.2489C42.5832 32.4983 42.934 33.3456 43.4608 33.1738C44.1396 32.9523 44.7992 32.6267 45.4589 32.3501C46.0193 32.1153 46.5798 31.8806 47.137 31.6378C47.5255 31.4684 47.9114 31.2934 48.2935 31.1105C47.7211 31.6668 47.1487 32.223 46.5764 32.7795C45.5853 33.743 44.6436 34.8407 43.432 35.5165C42.2351 36.1842 40.8695 36.2619 39.5371 36.2475C38.8682 36.2402 38.2022 36.2183 37.5333 36.2461C36.8293 36.2754 36.2041 36.3871 35.5369 36.6159C35.5246 36.6202 35.5157 36.6278 35.5082 36.6364C35.4848 36.6071 35.4453 36.5923 35.4044 36.6173C33.5916 37.7242 31.9391 39.1601 30.3498 40.5792C28.7119 42.0419 27.1706 43.5973 25.7021 45.2404C24.2965 46.8129 22.9021 48.3915 21.3726 49.8384C19.8792 51.2511 18.2832 52.5339 16.6167 53.7211C15.7087 54.368 14.7782 54.991 13.8155 55.5479C13.301 55.8454 12.7786 56.1452 12.2121 56.324ZM12.3645 13.7446C13.0137 12.9916 13.7125 12.2936 14.4518 11.6479C14.7781 11.7476 15.1205 11.7755 15.4656 11.7791C15.9922 11.7846 16.5199 11.8072 17.0465 11.8016C18.0604 11.7909 19.0739 11.7578 20.0881 11.7522C22.1618 11.7405 24.236 11.7399 26.3097 11.7585C26.5814 11.761 26.7774 11.641 26.8984 11.4668C27.3181 11.9582 27.7508 12.4383 28.187 12.9108C28.8957 13.6785 29.6513 14.4109 30.4557 15.0783C30.2991 15.0794 30.1425 15.0809 29.9868 15.0798C29.2696 15.0748 28.5522 15.0701 27.835 15.0662C26.3957 15.058 24.9563 15.0519 23.517 15.0479C20.6555 15.0401 17.785 15.0647 14.9272 15.216C14.134 15.258 13.3346 15.275 12.5442 15.3548C12.1155 15.3982 11.6873 15.4486 11.259 15.4958C11.1714 15.5054 11.0873 15.5175 11.0049 15.5311C11.4243 14.9087 11.8761 14.3111 12.3645 13.7446ZM23.8252 7.0323C23.8059 7.04583 23.785 7.05793 23.7665 7.07239C23.7244 7.10504 23.731 7.16408 23.7806 7.18387C23.8467 7.21052 23.916 7.23065 23.9875 7.24655C24.2044 7.57144 24.3738 7.97304 24.4922 8.17655C24.8322 8.76136 25.2231 9.31843 25.6208 9.86231C25.7008 9.9715 25.7823 10.0795 25.8641 10.1873C23.9381 10.1825 22.013 10.1927 20.0881 10.2679C19.0747 10.3076 18.0578 10.3408 17.0465 10.4193C16.6306 10.4516 16.2151 10.5058 15.8005 10.5594C17.958 8.94897 20.3842 7.7192 22.8977 6.8062C22.8942 6.81018 22.8907 6.81314 22.8873 6.81712C22.8319 6.88055 22.9146 6.96277 22.9769 6.90965C23.3039 6.63044 23.5877 6.76146 23.8252 7.0323ZM33.5571 25.9619C33.5024 26.0476 33.4485 26.136 33.396 26.2267C33.2697 26.0966 33.0933 26.0096 32.866 26.0024C30.3429 25.9211 27.821 25.85 25.2964 25.8482C24.0514 25.8474 22.7951 25.8041 21.5517 25.8677C20.9273 25.8997 20.3032 25.9377 19.6791 25.9743C19.2428 25.9998 18.7793 26.0316 18.3532 26.162C17.3713 24.3883 16.2811 22.683 15.0907 21.0525C17.7917 21.3946 20.5389 21.3582 23.2552 21.4532C26.3327 21.5609 29.4119 21.584 32.4905 21.6593C33.3349 21.6799 34.1794 21.7026 35.0237 21.727C35.4594 21.7396 35.8953 21.7526 36.3311 21.7662C36.4673 21.7705 36.6083 21.7743 36.7494 21.7705C36.7388 21.7933 36.7279 21.816 36.7174 21.8385C36.4798 22.3454 36.181 22.8118 35.8328 23.2447C35.0925 24.1652 34.1983 24.9581 33.5571 25.9619ZM30.247 31.4256C30.1535 31.1573 29.9258 30.9509 29.563 30.968C27.4957 31.065 25.4245 31.1322 23.3596 31.2727C22.3537 31.3412 21.3437 31.3873 20.3394 31.4781C19.8214 31.5251 19.3043 31.6123 18.7886 31.6817C18.435 31.7293 18.0648 31.7845 17.7256 31.9143C17.7914 31.1644 17.8493 30.414 17.8997 29.6625C17.9401 29.0587 17.9524 28.4494 17.9493 27.8442C17.9477 27.5378 17.9376 27.2297 17.9233 26.9234C17.9538 26.9297 17.9843 26.9329 18.0143 26.9291C18.0672 26.9223 18.1166 26.9159 18.1625 26.9032C18.6378 27.0953 19.1757 27.1376 19.6791 27.1748C20.2762 27.2187 20.8732 27.2654 21.4703 27.3094C22.7408 27.4031 24.0232 27.397 25.2964 27.4399C27.8029 27.5242 30.3098 27.5732 32.8167 27.6425C32.7004 28.1579 32.6963 28.6871 32.8825 29.1861C32.7528 29.1417 32.6035 29.1623 32.4761 29.2923C31.754 30.029 31.0103 30.7395 30.247 31.4256ZM22.9544 36.9054C22.9034 36.7596 22.8071 36.6258 22.6931 36.535C22.2547 36.1862 21.4545 36.387 20.9283 36.4135C20.3054 36.4451 19.6824 36.4765 19.0595 36.508C18.8705 36.5175 17.9056 36.5683 17.197 36.7243C17.3434 35.5823 17.4763 34.4385 17.595 33.2926C17.6199 33.052 17.643 32.8114 17.6659 32.5707C17.9997 32.6816 18.3626 32.7223 18.7069 32.7392C19.2229 32.7646 19.7413 32.8075 20.2578 32.8159C21.2898 32.8327 22.3274 32.7801 23.3596 32.7623C25.2182 32.7304 27.0771 32.6388 28.9349 32.5631C27.0696 34.1266 25.0987 35.5532 23.0428 36.8509C23.0135 36.8694 22.9838 36.887 22.9544 36.9054ZM17.084 37.5831C17.241 37.6046 17.3967 37.6117 17.5158 37.6242C18.1137 37.6864 18.7023 37.7429 19.3033 37.752C19.8991 37.761 20.4949 37.7699 21.0908 37.779C21.2175 37.7807 21.3442 37.7828 21.4709 37.7846C19.9019 38.6697 18.2848 39.4624 16.6904 40.2971C16.8309 39.3938 16.962 38.4891 17.084 37.5831ZM34.1807 17.4298C37.7564 18.9989 42.3428 19.1412 45.4157 16.5347C45.7211 16.621 46.0588 16.6497 46.3284 16.6776C46.9342 16.7404 47.5344 16.7982 48.1432 16.8179C49.3296 16.8561 50.5171 16.9134 51.704 16.9285C54.1051 16.9591 56.5064 16.9734 58.9076 16.9955C59.1119 16.9975 59.2754 16.9332 59.3994 16.8299C59.6426 17.2556 59.8688 17.6921 60.0753 18.1396C60.3765 18.7923 60.6317 19.4669 60.8413 20.1566C60.7964 20.1486 60.7497 20.143 60.6998 20.142C57.5441 20.0857 54.3861 20.1794 51.2299 20.193C48.073 20.2067 44.9164 20.1927 41.7596 20.2159C40.886 20.2224 40.0188 20.2226 39.1474 20.2895C38.6939 20.3243 38.235 20.3395 37.7858 20.4152C37.7356 20.4235 37.6845 20.431 37.6329 20.4384C37.031 20.0751 36.2838 20.151 35.5957 20.1376C34.8057 20.1222 34.0158 20.1085 33.2259 20.0964C31.6733 20.0727 30.1205 20.0553 28.5677 20.0443C25.4859 20.0225 22.4117 20.1038 19.3319 20.2147C17.7996 20.2698 16.2731 20.3634 14.7605 20.6069C14.659 20.4712 14.5584 20.3347 14.4555 20.2001C13.3838 18.7973 12.1132 17.0015 10.3496 16.5668C10.4173 16.453 10.4859 16.3398 10.5556 16.2274C11.7775 16.5602 13.1254 16.5433 14.3739 16.613C15.8129 16.6933 17.2489 16.7488 18.6896 16.7853C21.5535 16.858 24.4168 16.9036 27.2813 16.9485C28.0763 16.961 28.8713 16.9741 29.6662 16.9878C30.095 16.9952 30.5239 17.0037 30.9528 17.0105C31.1923 17.0143 31.4065 17.0136 31.6348 16.9315C31.8462 16.8554 32.0523 16.7413 32.2567 16.6469C32.3281 16.6139 32.386 16.5651 32.4334 16.5075C32.9948 16.8538 33.5765 17.1646 34.1807 17.4298ZM48.1532 12.212C48.6029 12.3409 49.0671 12.3623 49.5426 12.3993C50.1667 12.4481 50.7893 12.4563 51.4151 12.4605C52.4128 12.4671 53.4108 12.46 54.4082 12.4315C54.8366 12.4194 55.0869 12.1232 55.1612 11.7841C55.1715 11.7927 55.1822 11.8011 55.1925 11.8099C56.4064 12.8428 57.5064 14.0241 58.4385 15.3317C56.1937 15.3389 53.9488 15.3405 51.704 15.356C50.5173 15.3643 49.3296 15.4146 48.1432 15.4462C47.5611 15.4616 46.9876 15.5114 46.4081 15.5683C46.3966 15.5694 46.3845 15.5704 46.3727 15.5715C46.4342 15.4984 46.4951 15.4242 46.5547 15.3479C47.2474 14.4614 47.8173 13.3691 48.1532 12.212ZM62.7479 58.7493C62.946 58.1865 62.8691 57.583 62.8579 56.9913C62.8464 56.3841 62.8401 55.7773 62.8381 55.1701C62.8343 53.9831 62.8265 52.7963 62.8138 51.6093C62.7881 49.2081 62.7612 46.8051 62.6697 44.4054C62.4889 39.6615 62.1405 34.9291 61.5719 30.217C61.2956 27.9261 60.9525 25.6405 60.4871 23.382C60.4936 23.373 60.5 23.3637 60.5066 23.3545C60.9701 22.7149 61.4972 22.1237 61.9526 21.4797C61.993 21.4226 62.0099 21.3493 62.0095 21.2753C62.0261 21.2669 62.0428 21.2581 62.0598 21.2481C62.4375 21.026 62.0964 20.4205 61.7187 20.6456C61.7623 20.6197 61.135 18.9573 61.0686 18.7899C60.8298 18.1887 60.5614 17.6008 60.2586 17.031C60.076 16.6874 59.8805 16.3509 59.6757 16.0206C59.6399 15.774 59.5109 15.5453 59.2893 15.423C58.9004 14.8477 58.4803 14.2947 58.0325 13.7678C56.1993 11.6109 53.9096 9.86975 51.4081 8.6295C51.0466 8.45035 50.6744 8.30097 50.3036 8.14458C49.9088 7.97786 49.5426 7.75997 49.1536 7.58497C48.5205 7.30034 47.8955 7.31667 47.2736 7.61804C47.2205 7.64384 47.2586 7.72825 47.3126 7.71371C47.713 7.60595 48.1231 7.58784 48.5245 7.70491C48.9177 7.8196 49.2166 8.07302 49.5602 8.28448C50.172 8.6613 50.856 8.90693 51.4832 9.25863C52.3125 9.72401 53.123 10.235 53.8982 10.7959C53.095 10.8398 52.2911 10.8716 51.487 10.8936C50.8898 10.91 50.2929 10.9128 49.6965 10.9486C49.2721 10.9741 48.8307 10.9669 48.4065 11.0377C48.5088 10.3115 48.509 9.57887 48.3811 8.87149C48.3811 8.87124 48.381 8.87098 48.381 8.87073C48.3502 8.70029 48.3127 8.53112 48.2667 8.3639C48.1686 8.00806 47.8545 7.95469 47.6265 8.08934C47.6039 8.07217 47.5811 8.05526 47.5593 8.0369C47.2861 7.80785 47.0402 7.5338 46.8264 7.24579C46.3822 6.64736 46.0232 5.95461 45.7513 5.25637C45.476 4.54925 45.2808 3.8094 45.0898 3.07428C44.9939 2.70575 44.8902 2.33916 44.7926 1.97088C44.7077 1.65073 44.646 1.29709 44.4901 1.00536C44.4609 0.950715 44.3729 0.961034 44.3589 1.02312C44.2763 1.38852 44.32 1.80527 44.3351 2.17786C44.3519 2.59139 44.3749 3.00111 44.4282 3.41151C44.5387 4.26311 44.7169 5.10023 45.0025 5.90885C45.2763 6.68432 45.6377 7.40794 46.1285 8.06126C46.4546 8.49526 46.9177 9.06975 47.4541 9.3038C47.5242 10.1185 47.5162 10.9341 47.3298 11.7407C47.0861 12.7964 46.6193 13.8 45.978 14.6598C44.6332 16.4626 42.5528 17.4813 40.3823 17.6912C38.1367 17.9083 35.8388 17.3898 33.821 16.3699C31.5766 15.2354 29.7148 13.4852 28.0425 11.5961C27.0785 10.5072 26.0789 9.43575 25.1854 8.28363C25.0271 8.07945 24.7737 7.6649 24.4731 7.29146C24.779 7.28859 25.093 7.2413 25.3637 7.20544C25.924 7.13118 26.4715 7.01623 27.019 6.87243C28.0426 6.60363 29.122 6.2296 30.0164 5.63793C31.909 4.38584 32.6478 2.7976 32.9002 0.609504C32.98 -0.0822235 31.8217 -0.250207 31.7138 0.443635C31.5481 1.51024 31.2974 2.02924 30.9677 3.05381C30.6507 4.03862 30.1914 4.40546 29.3136 4.94832C28.4896 5.45802 27.553 5.75407 26.6452 6.06001C26.1421 6.22951 25.6331 6.38413 25.1257 6.53994C24.8028 6.63915 24.4194 6.72568 24.0917 6.87886C23.9208 6.72399 23.7425 6.60718 23.5629 6.56294C23.5761 6.54002 23.559 6.50441 23.5259 6.51118C23.4732 6.52209 23.4206 6.5341 23.3678 6.54535C23.3148 6.54924 23.2621 6.56007 23.2094 6.57969C20.0473 7.28681 17.0107 8.79266 14.4357 10.844C14.3059 10.8999 14.1803 10.9685 14.0608 11.0552C13.9993 11.0998 13.9585 11.1706 13.9468 11.2439C13.5597 11.5702 13.1841 11.9089 12.8211 12.2594C9.89821 15.0826 8.04621 18.8381 6.7497 22.7009C5.47252 26.5064 4.608 30.497 4.13261 34.4925C3.64796 38.5652 3.5921 42.7225 4.29503 46.7722C4.67246 48.9467 5.28348 51.0836 6.18536 53.0892C6.99526 54.8905 8.31355 56.9426 10.3842 57.1619C10.3908 57.1687 10.397 57.1759 10.4045 57.1823C11.2169 57.8732 12.4265 57.3961 13.2759 56.9833C13.4106 56.9179 13.5441 56.849 13.6772 56.7785C13.6069 57.0578 13.5752 57.3503 13.5605 57.6245C13.53 58.1938 14.3074 58.2261 14.4545 57.7536C15.7147 57.9824 17.0159 57.9856 18.2905 57.9784C19.7146 57.9702 21.1382 57.9193 22.5607 57.8501C25.3831 57.7127 28.2021 57.5026 31.0263 57.4071C36.7449 57.2137 42.4791 57.6269 48.1931 57.835C49.7961 57.8934 51.399 57.9517 53.0019 58.0102C54.6396 58.0698 56.2757 58.0812 57.9003 58.3099C58.4976 58.394 58.7265 57.7895 58.558 57.4128C58.6 57.1598 58.5582 56.8825 58.5351 56.5845C58.4922 56.0277 58.4517 55.4707 58.4137 54.9135C58.3395 53.8271 58.2678 52.7403 58.1998 51.6534C58.062 49.4509 57.9435 47.2468 57.8282 45.043C57.5989 40.6611 57.4234 36.2759 57.2943 31.8897C57.2628 30.8206 57.2217 29.7511 57.1697 28.6827C57.2316 28.5815 57.2933 28.4801 57.3529 28.3775C57.5514 28.0355 57.7461 27.6913 57.9472 27.3509C58.3506 26.6685 58.7564 25.9905 59.1806 25.3215C59.5468 24.7438 59.9247 24.175 60.3195 23.6179C60.8096 27.8922 61.2453 32.1708 61.4453 36.4725C61.6655 41.2104 61.7824 45.9555 61.846 50.6982C61.8638 52.0232 61.8757 53.3483 61.8894 54.6733C61.8965 55.3634 61.9036 56.0529 61.8982 56.7429C61.8928 57.4028 61.7963 58.1247 62.023 58.7493C62.1552 59.1135 62.6175 59.1199 62.7479 58.7493Z" fill="black"/>
</g>
<defs>
<clipPath id="clip0_5_18">
<rect width="67" height="62" fill="white"/>
</clipPath>
</defs>
</svg>
