<svg width="68" height="62" viewBox="0 0 68 62" fill="none" xmlns="http://www.w3.org/2000/svg">
<g clip-path="url(#clip0_5_42)">
<path fill-rule="evenodd" clip-rule="evenodd" d="M65.7347 60.5355C67.3412 60.4566 66.6951 57.5972 66.5797 56.5471C65.3078 52.7118 65.6068 48.5272 65.1065 44.5071C64.7949 40.7543 64.3944 37.0132 64.0576 33.2632C63.3961 25.6512 58.6454 10.1551 53.2241 7.66293C52.5412 4.61402 49.7206 1.76792 46.1518 1.76792C43.7178 -1.16367 40.788 -3.22686 37.0303 -2.81029C35.4775 -2.73839 33.9715 -1.06262 32.4836 -0.738998C31.6505 -0.622103 24.2569 -0.922968 22.7759 -0.0279853C21.7442 0.510983 20.8129 1.50696 21.1163 2.77496C21.6002 4.31117 20.0962 2.64893 16.9586 4.28858C10.5607 8.19832 14.3838 13.4287 14.5532 13.5908C10.5607 19.2429 7.07102 23.8284 5.4564 30.737C4.40996 35.866 4.52776 41.1609 3.65099 46.3163C3.34141 48.1039 2.86649 49.8303 2.35259 51.5662C1.79562 53.8381 1.5248 59.5004 1.2178 59.551C0.658586 59.6924 1.54099 60.8607 2.13354 60.8616C18.5619 63.6343 35.2492 60.9765 51.7659 60.5422C56.4206 60.3775 61.0802 60.3395 65.7347 60.5355Z" fill="white"/>
<path fill-rule="evenodd" clip-rule="evenodd" d="M40.8351 14.0895C40.8427 14.013 40.9442 14.0131 40.952 14.0895L41.068 15.2288C41.2091 16.6202 41.3449 18.0089 41.4434 19.4068C41.5662 21.15 41.6483 22.8928 41.6879 24.6398C41.8259 30.7245 41.8533 36.8125 41.865 42.8987C42.6739 42.8417 43.4829 42.7868 44.2924 42.7337C44.8415 42.6976 45.3907 42.663 45.94 42.6289L47.3405 42.5425L47.9171 42.5065C48.3067 42.482 48.7494 42.3822 49.0218 42.7333C49.1308 42.8739 49.1855 43.0566 49.0839 43.2235C48.8494 43.6084 48.4892 43.595 48.0817 43.6117C47.6974 43.6275 47.313 43.643 46.9286 43.658C46.1048 43.6906 45.2812 43.7213 44.4572 43.7448C43.5925 43.7695 42.7282 43.7895 41.8638 43.8045C41.8551 46.3739 41.7506 48.94 41.6376 51.5066L41.5865 52.6616C41.4483 55.7849 41.2995 58.9109 41.0883 62.0301C41.0709 62.2855 40.7159 62.285 40.6987 62.0301C40.4608 58.5175 40.3038 54.9972 40.1482 51.4798C40.0353 48.9295 39.9696 46.3786 39.9384 43.8273C39.8241 43.828 39.7099 43.8296 39.5956 43.8301C36.3513 43.8444 33.1079 43.8588 29.8636 43.8279C29.869 43.8344 29.8743 43.8409 29.8779 43.8495C30.1126 44.4134 30.135 45.1331 30.1292 45.7383C30.1227 46.4324 30.0308 47.118 29.8737 47.793C29.3108 50.2111 27.8589 52.3769 26.2052 54.1675L26.1512 54.2258C25.7612 54.6451 25.3137 55.0664 25.0742 55.6006C24.8296 56.146 24.7447 56.7839 24.624 57.3699L24.6099 57.4373L24.1379 59.6556C23.9879 60.3602 23.9453 61.3878 23.3972 61.8962C22.8858 62.3705 22.2082 62.1228 21.9676 61.5121C21.7796 61.0354 21.9668 60.512 22.0781 60.0356L22.9503 56.3054C23.0936 55.6971 23.2502 55.0848 23.5594 54.5384C23.8762 53.9787 24.3407 53.5729 24.8146 53.1578C25.712 52.3717 26.5358 51.4717 27.2325 50.4973C27.929 49.5232 28.5242 48.4495 28.9416 47.3205C29.1506 46.7553 29.3218 46.1681 29.4399 45.5762C29.5522 45.0145 29.5512 44.4327 29.6714 43.877C29.6796 43.8386 29.7114 43.8123 29.7479 43.8006C29.7393 43.7758 29.7525 43.7423 29.7866 43.7401L32.4399 43.5667C34.7984 43.4119 37.1568 43.2531 39.5132 43.0717L39.9296 43.0411C39.8973 39.637 39.9247 36.2322 39.9852 32.8269C40.0405 29.7041 40.0417 26.5805 40.133 23.4582C40.1784 21.9085 40.2762 20.3625 40.3851 18.8161C40.4965 17.2345 40.6748 15.6663 40.8351 14.0895ZM15.9218 32.196C15.8935 32.0226 16.1079 31.9152 16.2068 32.0738C17.3366 33.8857 17.8813 35.8539 18.1109 37.9743C18.3138 39.8457 18.254 41.7441 18.153 43.6205C18.0453 45.6217 17.9196 47.6225 17.7925 49.6226L17.5972 52.6899L17.1072 60.3793C17.0721 60.9294 16.9494 61.4295 16.4839 61.6852C16.425 61.7353 16.3636 61.7802 16.292 61.8191C16.0405 61.9559 15.707 61.8868 15.5616 61.6242L15.6199 61.6633C15.6707 61.6958 15.6137 61.6504 15.4488 61.5271L15.3089 61.3429C15.2072 61.1874 15.1423 61.0346 15.1162 60.8498C15.0756 60.5626 15.1282 60.2476 15.1466 59.959L15.4678 54.9168C15.7176 50.9969 16.0093 47.0782 16.2292 43.1563C16.3316 41.3284 16.4034 39.4988 16.3548 37.6677C16.3065 35.8468 16.2153 33.995 15.9218 32.196ZM25.6957 -1.55768L25.7584 -1.56838C28.0025 -1.94766 30.4426 -1.87669 32.4935 -0.776002C32.5105 -0.766951 32.5028 -0.738277 32.4837 -0.739123L31.8236 -0.765947C29.7338 -0.849215 27.6505 -0.898503 25.5957 -0.398927L25.3853 -0.347368C24.6453 -0.163695 23.8726 0.0611178 23.2782 0.558394C22.7101 1.03376 22.4272 1.76701 22.1552 2.44208L22.1188 2.53116C21.8428 3.19788 21.4935 3.83019 20.8886 4.2471C20.1051 4.787 19.1629 4.72085 18.2645 4.79419C16.6827 4.92351 15.3895 6.08993 14.746 7.51728C14.3564 8.38156 14.1902 9.35055 14.1573 10.2957C14.1404 10.7769 14.138 11.2769 14.201 11.7548C14.2211 11.9077 14.4069 12.4645 14.5015 12.4511C14.7119 12.4215 14.9043 12.5331 14.9699 12.7042C15.4896 12.1933 16.0243 11.6972 16.5762 11.2188C17.9519 10.0268 19.4337 8.94641 20.9942 8.01802C22.1852 7.30937 23.4415 6.60733 24.7424 6.07656C24.6393 6.07436 24.5376 6.09517 24.4393 6.14719C24.3962 6.17011 24.3534 6.11513 24.3874 6.07876C24.7971 5.64011 25.2879 5.57769 25.7827 5.69467C25.8883 5.66049 25.994 5.62742 26.1 5.59604C26.1528 5.58039 26.1791 5.6544 26.136 5.68299L26.0145 5.76199C26.5543 5.94596 27.0842 6.30756 27.5038 6.59295C28.709 7.41248 29.7698 8.41438 30.8452 9.3975L31.0407 9.57572C31.9872 10.4357 32.9579 11.2713 34.0333 11.9612C34.5963 12.3223 35.1876 12.6563 35.8078 12.9048C36.3398 13.118 37.2059 13.2522 37.455 13.8243C37.6765 14.098 37.584 14.4473 37.3246 14.6315C36.8872 15.1214 36.0122 14.8049 35.4909 14.6009C34.8626 14.355 34.2538 14.0593 33.6732 13.7126C32.5461 13.0393 31.5068 12.2022 30.5387 11.3117C29.5275 10.3816 28.5738 9.3936 27.5904 8.43434C27.1643 8.01869 26.748 7.59329 26.3213 7.17827L26.1069 6.97171C25.8891 6.76389 25.5788 6.43993 25.247 6.24387C24.622 6.62323 23.9873 6.98694 23.3679 7.37611C22.5033 7.91931 21.6641 8.50167 20.8378 9.10323C19.2472 10.2613 17.7399 11.5583 16.3406 12.9485C13.7742 15.498 11.5878 18.4094 9.6777 21.4921L9.53265 21.7271C8.44724 23.4915 7.42081 25.3129 6.69301 27.2626C5.89223 29.4081 5.50277 31.6642 5.2912 33.9416C5.08122 36.2027 5.01039 38.4752 4.77571 40.7342C4.53505 43.0511 4.06088 45.3167 3.52154 47.5782L3.39291 48.1143C2.90489 50.1396 2.40118 52.1649 2.15032 54.238C2.01639 55.3454 1.93584 56.4679 1.95405 57.5843C1.97234 58.7071 2.14574 59.8051 2.28565 60.9161C2.33927 61.3417 1.92761 61.697 1.55926 61.7534C1.13564 61.8181 0.771695 61.5431 0.640017 61.1427C0.229524 59.8945 0.154956 58.5147 0.167841 57.2046C0.18081 55.8745 0.347651 54.5531 0.582409 53.246C1.04411 50.6748 1.75661 48.1568 2.35265 45.6164C2.87795 43.3773 3.2305 41.1343 3.42054 38.8405C3.6178 36.4606 3.73593 34.0728 4.0958 31.7101C4.45101 29.3776 5.11937 27.1497 6.12732 25.0228C7.04507 23.0864 8.1891 21.2637 9.38849 19.497C10.845 17.3517 12.4447 15.3102 14.2328 13.4502C14.0722 13.4431 13.9073 13.3904 13.7558 13.2943C13.2924 13.0002 13.0766 12.4249 13.0103 11.8997C12.855 10.6709 12.8925 9.38811 13.2031 8.18676C13.7041 6.24878 15.0044 4.52682 16.8889 3.82824C17.374 3.64841 17.8897 3.58278 18.4037 3.56983C18.8915 3.55749 19.4243 3.62219 19.895 3.46487C20.6442 3.21429 20.9653 2.3165 21.2466 1.63595L21.2596 1.6047C21.6203 0.737458 22.0532 -0.00586522 22.8345 -0.547371C23.668 -1.12522 24.7123 -1.38801 25.6957 -1.55768ZM47.0182 1.87202C47.6926 1.634 48.5357 1.85003 49.1951 2.05794C49.9298 2.2897 50.6088 2.71651 51.1908 3.22342C51.8049 3.75799 52.3124 4.41808 52.6709 5.15549L52.7052 5.22653C53.0327 5.91055 53.4057 6.84959 53.2406 7.60106C53.2358 7.62238 53.2304 7.64293 53.2243 7.66281C54.5622 8.33296 55.7979 9.17238 56.8739 10.2363C58.1268 11.475 59.1877 12.8846 60.0855 14.4074C63.6513 20.4558 64.2788 27.7199 64.7 34.6176L64.805 36.3666C65.0337 40.1431 65.3013 43.9108 65.9965 47.6352L66.0472 47.9041C66.7902 51.8036 67.8539 55.733 67.7462 59.7332C67.7138 60.9318 65.9729 60.9237 65.9225 59.7332C65.7324 55.2526 64.7048 50.9265 64.0089 46.5158C62.7845 38.756 63.398 30.7561 61.6631 23.074C60.9822 20.0593 59.9276 17.1349 58.4215 14.4439C57.6776 13.1145 56.8264 11.8299 55.8294 10.683C54.9716 9.6962 54.08 8.7465 53.0775 7.9169C52.7572 8.24339 52.1171 8.07701 51.9499 7.60106C51.835 7.27397 51.8685 6.89157 51.7948 6.54892C51.7264 6.23097 51.632 5.91573 51.5063 5.6163C51.2558 5.01956 50.888 4.4465 50.4634 3.96353C50.0048 3.44148 49.4777 3.00773 48.8879 2.6496C48.294 2.28902 47.6445 2.18135 47.0182 1.91787C46.9971 1.90899 46.9951 1.88023 47.0182 1.87202ZM49.6382 43.3431C49.6392 43.3116 49.6756 43.2967 49.6981 43.3178C49.9345 43.5391 50.0774 43.8568 50.2514 44.1291C50.4521 44.4431 50.6628 44.7506 50.8838 45.0502C51.3265 45.6504 51.8194 46.2161 52.3162 46.7704C52.7782 47.2859 53.2707 47.7796 53.7815 48.245C54.335 48.7493 54.9552 49.1992 55.4581 49.7577C56.5073 50.9229 56.6769 52.5222 56.8982 54.0238L56.9225 54.1862C57.0575 55.0774 57.1784 55.9709 57.2875 56.8658C57.3405 57.301 57.3934 57.7367 57.4366 58.1731L57.4498 58.3113C57.4884 58.7385 57.4988 59.1719 57.2576 59.5452C56.9995 59.9445 56.4127 60.0845 56.0638 59.7016C55.4644 59.0438 55.5768 57.8753 55.4988 57.0291C55.4344 56.3293 55.3613 55.6304 55.2795 54.9325L55.2378 54.5837C55.1414 53.7898 55.0631 52.9801 54.8846 52.1999C54.7273 51.513 54.4274 50.9944 53.9355 50.4968C53.4398 49.9954 52.9248 49.5274 52.4674 48.9875C51.9822 48.4149 51.5445 47.8009 51.1501 47.1601C50.8128 46.612 50.5424 46.0155 50.2947 45.4198L50.2537 45.3205C50.0142 44.7395 49.6195 43.9831 49.6382 43.3431ZM58.293 18.3871C58.2982 18.306 58.4159 18.3048 58.4177 18.3871C58.4325 19.084 58.4468 19.781 58.4611 20.4781C58.5754 26.0946 58.505 31.7244 59.0588 37.3217C59.32 39.9608 59.8009 42.5611 60.3575 45.1505C60.6423 46.4755 60.9411 47.7974 61.225 49.1226C61.5016 50.4141 61.7983 51.7119 62.0178 53.0154C62.2334 54.2965 62.4265 55.5875 62.5132 56.8851L62.5239 57.0544C62.5613 57.683 62.7394 58.6075 62.3992 59.1646C62.0306 59.7682 61.325 59.779 60.93 59.2029C60.5592 58.6619 60.6514 57.6997 60.5859 57.0544C60.5193 56.3969 60.4489 55.739 60.3689 55.083C60.2129 53.8035 60.0073 52.5269 59.7935 51.2561C59.3481 48.6097 58.7022 45.9965 58.2255 43.3543C57.7368 40.6468 57.3895 37.92 57.3749 35.1634C57.3603 32.3834 57.6495 29.6088 57.7955 26.8349C57.9438 24.0176 58.1124 21.2024 58.293 18.3871ZM32.2169 0.917639C32.3651 0.409881 32.8881 0.0924381 33.3984 0.235047C33.866 0.365813 34.252 0.943268 34.0692 1.43732C33.8697 1.97646 33.5211 2.43617 33.2271 2.92617C32.9556 3.37895 32.5596 3.73547 32.283 4.18021L32.5878 4.51453C32.7403 4.6813 32.8932 4.84707 33.0478 5.00998L33.5794 5.57024C33.9934 6.00565 34.41 6.43874 34.8383 6.85906C36.0979 8.09526 37.3775 9.29085 38.7881 10.3495C39.1092 10.5904 39.4328 10.8299 39.7655 11.0543L39.8896 11.1379C40.1178 11.29 40.3725 11.4394 40.6482 11.4137C41.3182 11.3511 41.9235 10.6271 42.3839 10.1765L42.408 10.153C43.549 9.04843 44.6055 7.84075 45.5291 6.54221C45.7342 6.2537 45.9328 5.96028 46.1262 5.66339C45.6796 5.13262 45.7863 4.09656 45.7617 3.45287C45.7443 3.00026 45.743 2.54757 45.7405 2.09462L45.7393 2.00329C45.7339 1.71012 45.7209 1.42895 45.9079 1.18771C45.9188 1.17376 45.9413 1.17418 45.9552 1.18154C46.2113 1.31809 46.2902 1.54671 46.3995 1.80317L46.4109 1.82979C46.5439 2.13759 46.6713 2.44827 46.8001 2.75785C46.935 3.08197 47.0587 3.41083 47.1841 3.73885C47.2424 3.89144 47.2981 4.04462 47.3526 4.19865C47.3858 4.29702 47.4201 4.39488 47.4553 4.49258L47.4637 4.5001C47.5102 4.54028 47.5497 4.58274 47.5837 4.62656C47.7266 4.6993 47.8401 4.83184 47.8934 5.02655C48.0094 5.4504 47.7694 5.79601 47.5553 6.1324C46.6858 7.49928 45.6946 8.80179 44.5928 9.98334C44.0454 10.5704 43.4698 11.131 42.8704 11.6628L42.7656 11.7551C42.2272 12.2259 41.6427 12.6718 40.9236 12.782C40.0821 12.9108 39.3973 12.485 38.7531 11.9945L38.6888 11.9453C38.0782 11.4749 37.4798 10.988 36.9 10.4787C35.718 9.4404 34.5935 8.3255 33.5956 7.10233C32.6248 5.91257 31.6652 4.58224 31.0668 3.15065C31.0303 3.06345 31.1263 2.97218 31.2014 3.04501C31.4937 3.32811 31.7749 3.62661 32.0528 3.92891C32.0606 3.48391 31.9799 3.03511 32.0247 2.58732C32.0795 2.04303 32.0637 1.44172 32.2169 0.917639Z" fill="black"/>
</g>
<defs>
<clipPath id="clip0_5_42">
<rect width="68" height="62" fill="white"/>
</clipPath>
</defs>
</svg>
