<svg width="69" height="61" viewBox="0 0 69 61" fill="none" xmlns="http://www.w3.org/2000/svg">
<g clip-path="url(#clip0_5_82)">
<path fill-rule="evenodd" clip-rule="evenodd" d="M38.5407 -3.23819C40.9981 -3.11855 44.8243 -2.07921 45.0156 -1.41495C45.3143 -0.377718 44.6724 3.51092 45.746 5.60548C46.2036 6.49836 47.9415 6.41832 48.6148 6.70911C50.8678 7.68205 57.5377 9.52726 58.9129 11.8507C59.4639 12.7816 62.8497 24.3316 64.6488 30.2241C64.8516 30.8884 65.0807 31.5028 65.3298 32.0719L65.4213 31.6297C66.1549 28.0683 66.5217 25.9123 66.5217 25.1617C66.5217 23.9889 65.5734 19.0407 66.5217 17.7824C67.4604 16.5366 69.7228 15.518 70.7407 15.4977L70.7712 15.4974C71.4395 15.4974 72.0194 15.2913 72.5109 14.8791L73.2315 14.5216C76.8973 12.7068 79.0391 11.7113 79.6567 11.5352C80.6423 11.2541 82.3197 11.853 81.481 12.7521C80.9219 13.3515 79.5168 14.4118 77.2659 15.9332L76.4172 16.5985L76.5197 16.6513C77.6166 17.221 78.2616 17.7005 78.4546 18.0898C78.6536 18.4911 78.5581 18.9658 78.1682 19.5139L78.2273 19.5708C78.7204 20.0482 78.9669 20.3684 78.9669 20.5314V21.3279C79.4574 22.0366 79.5801 22.6277 79.3348 23.101C79.0896 23.5744 78.7007 23.9846 78.1682 24.3316C77.7758 25.3499 77.3086 26.0746 76.7664 26.5058C76.2242 26.937 75.2873 27.2959 73.9554 27.5826L72.7502 30.4256L71.7737 34.4196L71.2816 38.8763L71.4245 38.9784C72.0867 39.4542 72.5109 39.807 72.5109 40.1715C72.5109 40.7394 69.8389 54.0944 65.6817 54.6921C64.7826 54.8214 60.1199 54.1873 58.589 52.9586L58.6116 53.0913C58.9718 55.2378 58.8956 56.3525 58.383 56.4354C52.0829 57.4544 34.1904 57.7692 4.70547 57.3799C4.53004 41.9409 5.32327 31.6587 7.08514 26.5334C11.5912 13.4252 16.5594 8.9481 18.2975 8.56465C19.82 8.22876 25.0995 6.15569 26.5753 5.60548C27.5387 5.24632 27.7451 4.16949 28.8429 4.16949L28.9316 4.16994C29.9933 4.18045 30.9348 4.36777 31.4637 3.82909C32.8519 2.41543 32.4638 0.458655 33.0397 -1.41495C33.357 -2.44729 35.5252 -3.385 38.5407 -3.23819Z" fill="white"/>
<path fill-rule="evenodd" clip-rule="evenodd" d="M31.7896 0.463489C31.9338 0.181541 32.3167 0.218075 32.5693 0.345983C33.3271 0.892487 32.5342 1.95179 32.3246 2.61871C31.7855 3.91228 30.849 5.17647 29.5562 5.78106C29.6633 7.06697 29.7847 8.35005 29.8295 9.63995C31.4824 11.6626 34.2691 12.4008 36.7429 12.9686C40.6283 14.0286 45.0132 11.8568 46.3246 8.06785C44.8321 7.23124 44.3491 5.04074 44.7944 3.51249C44.8331 3.40514 45.0018 3.3577 45.0618 3.47754C45.4705 4.30682 45.416 5.31852 45.8806 6.13782C50.3401 6.55899 56.0955 8.21906 59.017 11.777C60.3117 13.5571 60.8246 15.8723 61.4623 17.9353C62.8229 22.1885 63.907 26.5277 65.2413 30.7852L65.3987 29.9796C65.8298 27.7605 66.2215 25.5113 65.9303 23.2546L65.9251 23.1466C65.83 21.3509 65.2604 18.014 66.672 16.8017C67.9488 15.8391 69.7985 15.0655 71.4007 15.5093C74.2521 14.2575 76.7131 12.1495 79.7499 11.3285C80.6845 11.1387 82.0291 11.3634 81.8082 12.6143C81.196 14.8021 78.6321 15.6512 76.8794 16.7794C78.0029 17.0797 79.3725 18.4276 78.4947 19.603C78.4872 19.6238 78.4804 19.6396 78.4737 19.6521C79.1855 19.9633 79.2852 20.7456 79.1105 21.4164C79.0928 21.5936 79.0456 21.4413 79.1511 21.6019C79.9543 22.3493 79.5993 24.4325 78.3893 24.5029C78.4685 25.49 77.8258 26.4487 77.0118 26.9871C76.1345 27.5671 74.8659 27.5921 74.1396 28.386C72.4342 31.3526 71.8459 34.8548 71.66 38.252C72.7842 38.6671 73.7928 39.9085 72.7715 40.9617C72.7513 40.964 72.7311 40.9663 72.7107 40.968C72.1187 42.5268 71.8901 44.1884 71.5769 45.8164C71.0952 48.5941 69.8398 51.1446 68.2367 53.4586C66.3828 56.5217 61.3977 56.0361 58.8863 54.0593C58.8963 54.5779 58.9829 55.0934 58.8146 55.5946C58.5661 56.1354 57.9602 55.9017 57.9002 55.3691C56.5726 56.1057 56.2599 53.6744 57.7357 54.06C57.6222 52.3023 57.5564 50.5422 57.503 48.7815C55.8321 49.315 55.7601 46.5802 57.4691 47.1271L57.4671 46.371C57.4546 40.5738 57.5195 34.7567 58.295 29.0052C58.3667 28.5749 58.4881 28.1588 58.559 27.7311C58.5666 27.6869 58.6366 27.6994 58.6368 27.7418C58.7569 35.7941 58.2234 43.8637 58.78 51.9189C59.2433 52.0582 59.4281 52.5827 59.7711 52.8883C60.5327 53.582 61.5699 53.9198 62.5842 54.0375C65.4243 54.4303 66.6505 53.5746 67.9153 51.1391C67.3449 51.5152 66.574 50.851 66.9217 50.2558L66.9326 50.2378C67.2937 49.6071 68.3135 49.9851 68.1843 50.6914C69.4559 48.6824 70.1215 46.4171 70.613 44.1187L70.6795 43.8441C70.9184 42.8683 71.2285 41.7501 71.8023 40.8673C68.3032 39.9875 64.8803 37.3069 64.3328 33.6292C63.4444 36.3828 62.2409 39.0746 61.0938 41.7527C60.7395 42.684 60.5919 43.685 60.0841 44.5489C59.966 44.7487 59.6665 44.6971 59.5997 44.4864C59.143 42.472 60.5269 40.556 61.2454 38.7426C61.8322 37.7178 63.5163 33.0377 64.5605 33.0264C63.3872 27.9527 61.8222 22.9169 60.3318 17.9063C58.8907 11.1407 55.9538 9.8361 49.7321 7.70593C50.8543 13.3479 55.9779 18.8092 53.2515 24.7268L53.1852 24.8803C52.9064 25.5328 52.6747 26.1902 52.8694 26.9064C53.0584 27.6012 53.4886 28.2046 53.8328 28.8296C55.7567 32.3598 54.4324 36.4827 53.6885 40.1591C52.7488 44.4704 51.8205 48.7858 50.8492 53.0906C50.6577 53.9493 50.5336 54.834 50.2444 55.6662C50.0951 56.0956 49.3503 56.0549 49.3984 55.5539C49.4903 54.5819 49.767 53.634 49.9696 52.6795C51.179 46.4996 52.8155 40.3925 53.8561 34.1856C54.5254 29.5909 51.8904 28.8848 51.9887 25.916C52.3469 24.3977 53.2949 23.0427 53.2405 21.4247C53.4512 16.4718 49.7944 12.3856 49.3429 7.56853L48.5458 7.288C48.1474 7.1473 47.7494 7.00545 47.3527 6.86025C49.4409 21.2676 48.8068 35.9898 47.7629 50.4683C47.5497 51.1364 47.7525 55.8033 46.8585 55.3891C46.8134 55.6499 46.6729 55.9063 46.3676 55.905C43.5949 55.93 40.8214 55.9733 38.0488 56.0059C36.7151 55.8847 34.8819 56.387 33.7476 55.6279C32.4378 55.2591 32.2873 51.7597 31.9371 50.5124L31.8006 49.6053C29.5751 34.7831 27.5835 19.6552 29.1832 4.68622C26.9575 4.7706 26.4981 7.14045 26.333 8.86593C25.9203 12.6743 23.4262 15.954 23.3066 19.8061C23.2964 20.7406 23.4753 21.646 23.8539 22.504C24.8585 24.6063 26.596 27.0368 25.2974 29.3847C23.7616 31.2126 23.8946 31.6937 24.4581 33.9525C26.0437 41.4199 28.6768 48.5989 31.1817 55.7987C30.6374 58.5971 27.3639 48.2083 27.0559 47.425C25.6068 48.1438 24.8153 45.7583 26.4774 45.5883C25.4098 42.063 24.4273 38.5113 23.6094 34.9204L23.5877 34.8192C23.2264 33.1601 22.5157 31.2174 23.7158 29.7457C26.8104 26.6584 21.6714 23.2075 22.3196 19.4674C21.7599 19.8768 20.9126 19.4461 20.9253 18.7583C20.8999 17.9841 21.9541 17.5874 22.4614 18.1782C22.983 15.1437 24.7976 12.4947 25.3468 9.46915L25.3716 9.32705C25.5577 8.25776 25.6101 7.13263 26.1425 6.15804C25.4178 6.62241 24.6461 6.99773 23.8523 7.32894C25.2715 8.49843 22.5233 9.5658 22.7507 7.75919C14.9677 9.98065 13.2085 13.0786 10.3509 20.193C10.8847 19.6814 11.7991 20.3435 11.4795 20.996C11.2246 21.6834 10.1126 21.4824 10.113 20.7498L9.9828 21.0562C8.24999 25.1439 6.67284 29.3308 5.88026 33.7054C7.43504 33.4889 7.03917 35.9403 5.63049 35.2491C5.06516 39.1396 5.05622 43.0853 5.12531 47.0072C6.43673 46.3287 6.47621 48.6341 5.13796 47.9767C5.18688 51.1907 5.25858 54.4046 5.31257 57.6186C5.32354 58.3026 4.25395 58.2993 4.23708 57.6186C4.11216 52.6802 3.88449 47.7329 3.99271 42.7931C3.8909 34.2193 6.38924 25.9556 10.1117 18.2752C13.4054 9.4319 17.955 8.42619 26.3255 5.85504C27.0982 4.7235 28.7489 3.6533 30.0958 4.36383C30.8493 3.1638 31.232 1.74208 31.7896 0.463489ZM17.4483 31.2845C17.4795 31.1755 17.6373 31.2029 17.6423 31.3103C17.7123 32.6976 17.6499 34.094 17.5538 35.4871C17.4955 36.3376 17.4238 37.1872 17.3631 38.032C17.202 40.2606 17.0721 42.4917 16.9734 44.7245C17.008 44.7104 17.0434 44.6978 17.0805 44.6879C17.2509 44.642 17.4214 44.642 17.5917 44.6879C17.7437 44.7298 17.8765 44.8029 17.9909 44.9086L18.0152 44.9317C18.1088 45.0174 18.1754 45.119 18.2142 45.2363C18.2695 45.3407 18.2975 45.4523 18.2974 45.5717L18.2968 45.6017C18.296 45.773 18.253 45.932 18.1653 46.0802C18.0801 46.2225 17.9654 46.3357 17.8211 46.4205C17.671 46.5063 17.5098 46.5487 17.3361 46.5494C17.3176 46.5512 17.2989 46.5529 17.2805 46.5537C17.1513 46.5587 17.0308 46.5321 16.9193 46.4746L16.9026 46.4696C16.8604 47.6023 16.8258 48.7357 16.8005 49.8692C16.7777 50.857 16.7473 51.8448 16.7271 52.8325L16.7177 53.3267L16.6993 54.4187C16.6934 54.8679 16.6963 55.2979 16.5415 55.7214L16.523 55.7703C16.4116 56.0531 16.3248 56.4468 16.0269 56.6041C15.7891 56.7297 15.4686 56.6832 15.3319 56.4384C15.2172 56.2338 15.3166 55.9391 15.4863 55.801C15.4829 55.7919 15.4778 55.7836 15.4736 55.7744C15.4475 55.6994 15.4077 55.6288 15.3842 55.5531C15.3099 55.3134 15.3302 55.0579 15.3294 54.809C15.3294 54.3697 15.3445 53.9303 15.3564 53.4916C15.3825 52.5579 15.4129 51.6251 15.4499 50.6922C15.5753 47.5627 15.8114 44.4332 16.0818 41.3126L16.1735 40.2593C16.2958 38.8586 16.4223 37.4564 16.6014 36.063C16.6098 35.9964 16.6183 35.9299 16.6276 35.8632C16.5314 35.8159 16.442 35.7501 16.3711 35.6769C16.0869 35.3825 15.9145 34.9424 15.7529 34.5632L15.7157 34.4769C15.5403 34.0724 15.3783 33.663 15.2948 33.2286L15.2868 33.1886C15.2487 33.0036 15.1735 32.6757 15.3724 32.5861C15.4762 32.5395 15.5419 32.5728 15.5757 32.6751C15.58 32.6885 15.5765 32.7034 15.5689 32.7151C15.6508 32.839 15.779 32.9548 15.86 33.0696L16.1371 33.4606L16.2741 33.6571C16.4479 33.9093 16.6335 34.1506 16.8249 34.3886C16.9759 33.3434 17.1607 32.3023 17.4483 31.2845ZM28.8139 54.5769C29.1606 54.3089 29.7249 54.4545 29.7249 54.9489C29.7249 55.4456 29.1598 55.5889 28.8139 55.3208L28.7967 55.3083L28.7802 55.295C28.5918 55.1499 28.5855 54.772 28.7659 54.6144L28.7802 54.6027C28.7911 54.5935 28.8021 54.5852 28.8139 54.5769ZM13.7112 53.6109L13.741 53.6115C13.8979 53.6115 14.0438 53.6506 14.1796 53.7289C14.2387 53.773 14.2969 53.8179 14.3559 53.8629C14.4639 53.9693 14.5381 54.0959 14.5795 54.2415L14.6108 54.4695C14.6149 54.5876 14.5904 54.6975 14.5356 54.7999C14.5002 54.9064 14.4403 54.9987 14.3559 55.0762C14.2766 55.1603 14.1839 55.2194 14.076 55.2534C13.9808 55.303 13.8793 55.3282 13.7708 55.3282L13.741 55.3275C13.5834 55.3275 13.4373 55.2884 13.3015 55.2101C13.2425 55.1661 13.1843 55.1211 13.1252 55.0762C13.0181 54.9697 12.943 54.8431 12.9018 54.6975C12.8916 54.6218 12.8815 54.5452 12.8705 54.4695C12.8664 54.3513 12.8916 54.2415 12.9456 54.1391C12.981 54.0326 13.0409 53.9403 13.1252 53.8629C13.2046 53.7788 13.2973 53.7197 13.4053 53.6855C13.5004 53.636 13.6026 53.6109 13.7112 53.6109ZM53.1975 52.0286L53.4186 52.0578C53.6303 52.1053 53.8006 52.2592 53.9145 52.4348C53.9753 52.5289 54.0081 52.6304 54.0132 52.7394C54.0378 52.8476 54.0326 52.9566 53.998 53.0656C53.9727 53.1721 53.923 53.2653 53.8496 53.3444C53.8243 53.3835 53.7947 53.4193 53.7611 53.4509C53.6918 53.5649 53.5873 53.6398 53.4793 53.7164C53.3882 53.7738 53.2895 53.8046 53.1832 53.8096C53.1132 53.8279 53.0423 53.8279 52.9715 53.8096C52.866 53.8046 52.7673 53.7738 52.6762 53.7164C52.6223 53.6756 52.5683 53.634 52.5151 53.5932C52.468 53.5391 52.424 53.4834 52.3827 53.4251C52.3549 53.3611 52.3279 53.2977 52.3009 53.2345C52.2511 53.0822 52.2756 52.9474 52.3026 52.7952C52.3068 52.7694 52.3136 52.7461 52.3229 52.721L52.3411 52.6727C52.3896 52.5462 52.4156 52.5033 52.5016 52.3932L52.5344 52.3499C52.5508 52.3284 52.5677 52.3073 52.5869 52.2884C52.6408 52.2334 52.7176 52.1876 52.7783 52.1402C52.9082 52.0662 53.0482 52.0295 53.1975 52.0286ZM24.5589 51.4958L24.587 51.4961C24.7093 51.4969 24.8241 51.5269 24.9303 51.5876L25.0687 51.6933C25.153 51.7774 25.2112 51.8755 25.2441 51.9897C25.2517 52.0494 25.2602 52.1094 25.2686 52.1685C25.2719 52.2609 25.2526 52.3473 25.2095 52.4282C25.1826 52.5114 25.1353 52.5829 25.0687 52.6445C25.0072 52.7094 24.9337 52.756 24.8493 52.7835C24.7757 52.8213 24.6965 52.8413 24.6124 52.8415L24.587 52.8409C24.4638 52.8409 24.3491 52.8101 24.2428 52.7493L24.1045 52.6445C24.0202 52.5605 23.962 52.4614 23.9291 52.3473C23.9215 52.2875 23.913 52.2284 23.9046 52.1685C23.9012 52.0761 23.9206 51.9897 23.9636 51.9097C23.9915 51.8265 24.0379 51.7541 24.1045 51.6933C24.1661 51.6276 24.2395 51.581 24.3238 51.5543C24.3975 51.5161 24.4752 51.4968 24.5589 51.4958ZM18.992 51.2206C19.1682 51.219 19.3471 51.2681 19.4913 51.3688C19.6314 51.4669 19.7376 51.5726 19.806 51.7316C19.8245 51.775 19.843 51.8173 19.8591 51.8606C19.9316 52.0512 19.9451 52.2426 19.8448 52.429C19.7478 52.6096 19.5386 52.6886 19.3512 52.7426C19.1927 52.7893 19.0131 52.7968 18.8553 52.741C18.7769 52.7136 18.7001 52.6845 18.6292 52.642C18.4968 52.5613 18.4251 52.4655 18.3365 52.3473C18.2674 52.2309 18.2328 52.1043 18.2328 51.9696C18.2328 51.8339 18.2674 51.7083 18.3365 51.591C18.4723 51.3621 18.7237 51.2223 18.992 51.2206ZM10.0506 51.3813C10.2734 51.3813 10.469 51.4828 10.6032 51.6541C10.7389 51.8281 10.7887 52.0445 10.7288 52.2601C10.6655 52.4881 10.4741 52.6878 10.237 52.7452C10.0617 52.7877 9.91818 52.786 9.74357 52.7568C9.59595 52.7319 9.483 52.6453 9.36989 52.5554C9.24083 52.4514 9.20118 52.2617 9.22227 52.1086C9.24252 51.9555 9.3143 51.8556 9.42311 51.7648L9.42387 51.7624L9.38338 51.7932C9.39865 51.7799 9.41375 51.7657 9.42902 51.7516C9.43399 51.7433 9.43821 51.7341 9.44243 51.7249C9.50485 51.6201 9.5892 51.5377 9.69464 51.4761C9.80514 51.4129 9.92324 51.3813 10.0506 51.3813ZM61.9769 48.8606C62.0992 48.8281 62.2223 48.8281 62.3447 48.8606C62.435 48.8814 62.5134 48.9221 62.5801 48.9828C62.6476 49.0262 62.7028 49.0818 62.7446 49.1508L62.758 49.1743C62.8542 49.3357 62.8693 49.5204 62.828 49.7002C62.7766 49.9223 62.5691 50.1247 62.3447 50.177L62.3371 50.1784L62.3296 50.1804C62.2385 50.2087 62.1464 50.2129 62.0554 50.1921C61.9634 50.1879 61.8782 50.1613 61.7998 50.1113C61.7003 50.0481 61.6168 49.9665 61.5527 49.8683C61.502 49.7901 61.4751 49.7061 61.4708 49.6153C61.4548 49.5554 61.4548 49.4955 61.4708 49.4356C61.4751 49.3448 61.502 49.2608 61.5527 49.1826L61.6606 49.0452L61.6716 49.0361C61.7577 48.9512 61.8596 48.8929 61.9769 48.8606ZM53.4844 44.4565C54.5902 44.4565 54.5885 46.1492 53.4844 46.1492C52.3786 46.1492 52.3802 44.4565 53.4844 44.4565ZM12.997 44.2427C13.1135 44.2169 13.2299 44.2219 13.3454 44.2576C13.4154 44.2868 13.4846 44.3159 13.5538 44.3441L13.7309 44.4791C13.7638 44.5065 13.7798 44.5364 13.8102 44.5755L13.8482 44.6245C13.903 44.697 13.9044 44.7123 13.9646 44.8668C14.0051 45.0149 14.0051 45.163 13.9646 45.3113C13.9451 45.3828 13.9157 45.4502 13.8777 45.5126C13.843 45.5725 13.8015 45.6251 13.7547 45.6735L13.7309 45.6973C13.6516 45.7814 13.558 45.8405 13.45 45.8754C13.3817 45.9146 13.3083 45.9337 13.2299 45.9337C13.1135 45.9595 12.997 45.9545 12.8815 45.9186C12.8115 45.8896 12.7423 45.8605 12.6731 45.8322L12.496 45.6973L12.3594 45.5226L12.3158 45.4201L12.2716 45.317L12.2404 45.0882C12.2362 44.9692 12.2607 44.8593 12.3154 44.7561C12.3365 44.6836 12.3737 44.6197 12.4276 44.5663C12.4665 44.5015 12.5187 44.4499 12.5846 44.4116C12.6385 44.3583 12.7035 44.3217 12.7769 44.3009C12.8452 44.2618 12.9186 44.2427 12.997 44.2427ZM67.6925 43.0334C67.7846 43.0302 67.8706 43.0493 67.9499 43.0909C67.9777 43.1001 68.0048 43.1117 68.0309 43.1251C68.1329 43.1841 68.2139 43.264 68.2738 43.3639C68.3227 43.4405 68.3497 43.5229 68.3539 43.6118C68.3723 43.6921 68.3706 43.7729 68.3485 43.8533L68.3413 43.8774C68.3227 43.9431 68.2949 44.0038 68.2579 44.0595C68.2543 44.0662 68.2502 44.0729 68.2451 44.0787C68.1886 44.167 68.1135 44.2393 68.0208 44.2935C67.9178 44.3516 67.8073 44.3816 67.6876 44.3825C67.4488 44.3825 67.243 44.2552 67.1173 44.0595C67.0996 44.0321 67.0895 43.9971 67.0769 43.9688C67.0659 43.9422 67.0482 43.9082 67.0388 43.8774C67.0068 43.7592 67.0068 43.641 67.0388 43.5229C67.0599 43.4362 67.0996 43.3606 67.1595 43.2964C67.2075 43.2241 67.2708 43.1667 67.3493 43.1251C67.4466 43.069 67.5512 43.0392 67.6622 43.0342L67.6925 43.0334ZM21.002 42.2055C21.1188 42.174 21.235 42.1715 21.351 42.1982L21.38 42.2055C21.4727 42.2271 21.5529 42.2687 21.622 42.3303C21.6988 42.3802 21.7604 42.446 21.805 42.5274C21.8692 42.6365 21.9013 42.7547 21.9021 42.8811C21.9013 43.0077 21.8692 43.1259 21.805 43.2348C21.7418 43.3406 21.6566 43.4238 21.5495 43.4862L21.4568 43.5303C21.3792 43.5786 21.2965 43.6044 21.207 43.6085C21.1472 43.6244 21.0872 43.6244 21.0282 43.6085C20.9674 43.6085 20.9109 43.5936 20.8587 43.5636C20.8013 43.5478 20.7523 43.5194 20.7102 43.4778C20.6368 43.4312 20.5795 43.3697 20.5373 43.2923L20.4689 43.1333L20.4454 42.9569L20.4689 42.7813L20.5061 42.6948C20.5398 42.5757 20.6006 42.4726 20.6891 42.3852C20.7776 42.2986 20.8822 42.2387 21.002 42.2055ZM62.834 40.8016C62.957 40.7633 63.0794 40.7582 63.2017 40.7849C63.2843 40.7849 63.3619 40.8057 63.4337 40.8473C63.5122 40.8689 63.5796 40.9072 63.637 40.9638C63.7373 41.0278 63.8158 41.1127 63.874 41.2184L63.9667 41.4357C64.0224 41.5763 64.0022 41.7836 63.9685 41.925C63.9407 42.0415 63.8867 42.1431 63.8065 42.2295C63.7661 42.2969 63.7121 42.3503 63.6437 42.3902C63.5656 42.4603 63.4755 42.5102 63.3733 42.5399L63.3451 42.5474L63.335 42.5499C63.3332 42.5508 63.3316 42.5508 63.33 42.5508C63.3291 42.5517 63.3273 42.5517 63.3265 42.5517C63.2861 42.5616 63.2448 42.5674 63.2017 42.5691C63.0794 42.5957 62.957 42.5908 62.834 42.5525C62.7614 42.5225 62.688 42.4917 62.6147 42.461C62.5522 42.4144 62.4906 42.3668 62.4282 42.3194C62.3802 42.2579 62.3321 42.1962 62.284 42.1356C62.2164 42.0316 62.1802 41.9184 62.1752 41.7976C62.1532 41.717 62.1532 41.6371 62.1752 41.5563C62.1752 41.474 62.1963 41.3983 62.2375 41.3274C62.2747 41.2143 62.338 41.117 62.4282 41.0346C62.4906 40.9871 62.5522 40.9396 62.6147 40.893C62.688 40.8622 62.7614 40.8315 62.834 40.8016ZM9.03421 37.8223C9.1615 37.7882 9.28895 37.7882 9.41632 37.8223L9.58747 37.893C9.67183 37.9379 9.73855 37.9986 9.78916 38.0761C9.85327 38.1442 9.8962 38.2251 9.91813 38.3174C9.96799 38.4439 9.96208 38.6445 9.92244 38.7735C9.87773 38.9199 9.80856 39.0364 9.70143 39.1463C9.52345 39.3277 9.25007 39.3801 9.00806 39.3252C8.94134 39.3102 8.87807 39.2811 8.82071 39.2453C8.63775 39.1338 8.5146 38.9391 8.51544 38.7235C8.51544 38.7002 8.51713 38.6769 8.5205 38.6537C8.50869 38.6062 8.50439 38.5571 8.50616 38.5054L8.53147 38.3174L8.53307 38.3124C8.5669 38.1933 8.62763 38.0902 8.71612 38.0029C8.79795 37.923 8.89337 37.8651 9.00244 37.8304L9.02999 37.8223H9.03421ZM72.6854 19.1354C72.455 17.2715 71.5886 15.2663 68.9461 16.3608L68.7498 16.4333C68.096 16.6775 67.334 16.9984 66.9361 17.5625C66.6619 17.9511 66.7546 18.7042 66.7168 19.1578C66.5444 20.6324 66.6369 22.105 66.8164 23.5734C67.0481 27.0153 66.3146 30.5814 64.8542 33.7096C66.3157 36.0426 68.2718 38.2187 70.9401 39.1912C71.053 36.5385 71.5794 33.9346 72.1397 31.3461L72.1617 31.2333C72.3858 30.0661 72.4979 28.8682 73.275 27.8974C74.8555 26.2045 77.0295 27.1627 78.0696 24.4431C77.8511 24.334 77.9718 23.9612 78.235 24.0329C79.1473 24.1926 79.2955 22.5241 78.6711 22.1221C78.0205 21.7307 78.6755 21.0087 78.3986 20.4875C78.2442 20.2629 77.911 20.2554 77.76 19.9966C77.3596 19.0438 79.3632 18.4332 77.007 17.3591C76.5248 17.1899 75.9858 17.2948 75.4994 17.2929C74.7839 17.3588 74.2153 17.8561 73.561 18.0126C74.2734 19.8325 72.4758 21.585 70.8533 20.1315C69.9704 20.9547 68.983 22.8314 71.1292 21.9565C72.1796 21.2649 73.084 20.3709 74.3034 19.945L74.3291 19.937C74.7818 19.7907 76.7626 18.8413 76.6644 19.663C75.9224 20.3695 74.6987 20.3611 73.8394 20.9346C72.6481 21.4781 71.8864 22.7951 70.4602 22.7769C70.1314 24.7465 72.3968 23.5481 73.2405 23.0049L73.4744 22.8797C74.6643 22.2456 75.8721 21.658 77.2598 21.6502C77.6428 21.6477 77.6411 22.2302 77.2598 22.2352C75.4513 22.2464 73.9794 23.3616 72.4644 24.1908C72.3153 25.3405 74.0218 24.8372 74.6694 24.6676C75.3483 24.5735 76.4387 23.849 77.033 24.2317C77.2654 24.8208 76.2426 24.7769 75.8866 24.9557C77.5122 25.726 76.0879 26.2111 75.6521 25.0273L75.5244 25.0702C74.4359 25.4311 71.7963 26.174 72.1102 24.3548C71.7118 24.5288 71.226 24.6328 70.7858 24.5363C69.688 26.1382 67.9367 25.5183 70.4821 24.4264C69.9085 24.1632 69.717 23.1469 70.268 22.7687C68.2644 22.648 69.7519 20.5741 70.5812 19.883C70.5029 19.8049 70.4271 19.7253 70.3564 19.6446C69.8782 19.8693 69.3755 20.0058 68.838 20.0541C68.3236 20.0997 68.2089 19.236 68.7167 19.1653C69.2607 19.0895 69.7619 18.9464 70.2409 18.6767C70.967 18.3674 71.2148 19.6965 71.9415 19.7436C72.3379 19.821 72.606 19.4782 72.6854 19.1354ZM55.8168 36.286C55.9922 36.286 56.1482 36.3585 56.2755 36.4733C56.4029 36.5881 56.4577 36.7604 56.4653 36.9251C56.4687 37.0134 56.4502 37.0957 56.4097 37.1723C56.3835 37.2514 56.3388 37.3196 56.2755 37.3779C56.1574 37.4935 55.9828 37.5652 55.8168 37.5652C55.6413 37.5652 55.4852 37.4927 55.3578 37.3779C55.2305 37.2622 55.1756 37.0907 55.168 36.9251C55.1646 36.8378 55.1833 36.7554 55.2237 36.6788C55.2472 36.6077 55.2858 36.5446 55.3394 36.4908L55.3578 36.4733C55.476 36.3567 55.6505 36.286 55.8168 36.286ZM61.1331 32.3392L61.1612 32.3397C61.3097 32.3406 61.4473 32.3772 61.5754 32.4504C61.6311 32.4928 61.6867 32.5344 61.7416 32.577C61.8436 32.6784 61.9136 32.7974 61.9525 32.9348C61.9922 33.0779 61.9922 33.2219 61.9525 33.365C61.939 33.4474 61.9078 33.5273 61.8589 33.5964C61.7863 33.7153 61.6902 33.8111 61.5686 33.8818C61.4429 33.9542 61.3071 33.9899 61.1612 33.9908C61.0154 33.9899 60.8795 33.9542 60.7538 33.8818C60.6323 33.8111 60.5362 33.7153 60.4645 33.5964C60.4147 33.5273 60.3835 33.4474 60.37 33.365C60.3303 33.2219 60.3303 33.0779 60.37 32.9348C60.406 32.8072 60.469 32.6955 60.5595 32.599L60.5809 32.577C60.6551 32.4979 60.7428 32.4421 60.8449 32.4096C60.9346 32.3632 61.0307 32.3396 61.1331 32.3392ZM20.56 32.3838C20.6225 32.3672 20.6841 32.3672 20.7465 32.3838C20.8393 32.388 20.9261 32.4154 21.0063 32.4654C21.0535 32.502 21.1008 32.5378 21.148 32.5736L21.1892 32.6224C21.2772 32.7282 21.2794 32.7462 21.347 32.9073C21.3749 32.9972 21.3791 33.0871 21.3589 33.177C21.3589 33.2377 21.3429 33.2943 21.3124 33.3467C21.2956 33.4042 21.2669 33.4541 21.2239 33.4957C21.1935 33.5464 21.1531 33.5872 21.1015 33.6172C21.0358 33.6763 20.9582 33.7171 20.8688 33.7379L20.6874 33.7619C20.6638 33.7587 20.6394 33.7553 20.6157 33.7528C20.5873 33.752 20.5596 33.7488 20.5325 33.7437L20.5052 33.7378L20.4802 33.7312C20.4472 33.7217 20.415 33.709 20.3838 33.6929C20.3247 33.6763 20.2733 33.6472 20.2293 33.6039C20.1535 33.5556 20.0928 33.4906 20.0489 33.41L20.0371 33.3834C20.0211 33.355 20.0076 33.3259 19.9974 33.2943C19.9688 33.2444 19.9544 33.1911 19.9536 33.1337C19.9368 33.0573 19.9379 32.9816 19.958 32.9059L19.9654 32.8806L20.0303 32.7283C20.0641 32.6768 20.0995 32.6243 20.145 32.5819C20.1724 32.5579 20.2393 32.5064 20.2771 32.4805L20.3002 32.4654C20.3804 32.4154 20.4673 32.388 20.56 32.3838ZM10.3906 31.1938C10.512 30.722 11.1396 30.573 11.4812 30.91C11.8228 31.2472 11.6719 31.8662 11.1937 31.9861L11.1388 31.9994C10.6765 32.1151 10.2598 31.7031 10.3771 31.2472L10.3906 31.1938ZM68.2873 27.3449C68.2839 27.2983 68.3446 27.2817 68.375 27.3092C68.7816 27.6687 69.0405 28.0998 69.534 28.3785C70.0301 28.6582 70.5412 28.6356 71.0583 28.8162C71.2337 28.8778 71.2345 29.1092 71.0583 29.1699C70.0798 29.507 68.3615 28.3643 68.2873 27.3449ZM22.3112 27.2717C22.4201 27.2384 22.5297 27.2334 22.6385 27.2575C22.7128 27.2575 22.7819 27.2759 22.8451 27.3124C22.9151 27.3316 22.9751 27.3666 23.0265 27.4164C23.0881 27.4523 23.1371 27.5014 23.1741 27.562C23.2467 27.6404 23.2956 27.7319 23.3209 27.8368L23.3495 28.0523L23.3209 28.2678C23.293 28.3318 23.2652 28.3968 23.2382 28.4609L23.1628 28.5617C23.1018 28.642 23.092 28.6429 22.9438 28.7513C22.8494 28.8103 22.7474 28.8429 22.6385 28.847C22.5659 28.867 22.4934 28.867 22.4201 28.847C22.3467 28.847 22.2774 28.8287 22.2134 28.7921C22.1442 28.773 22.0835 28.738 22.032 28.6881C21.9426 28.6307 21.8726 28.5549 21.8211 28.4609C21.7933 28.3968 21.7655 28.3318 21.7385 28.2678L21.7089 28.0523L21.7385 27.8368L21.7401 27.8301C21.7789 27.6953 21.8482 27.5779 21.9476 27.4788L22.1113 27.354C22.1754 27.3133 22.242 27.2925 22.3112 27.2717ZM61.6876 27.4332C61.9212 27.3698 62.1777 27.4364 62.3489 27.6054C62.5202 27.7744 62.5877 28.0264 62.5235 28.257C62.4603 28.4817 62.2772 28.6639 62.0486 28.7247C61.9803 28.743 61.9112 28.753 61.8411 28.7497C61.7238 28.7489 61.6142 28.7196 61.5122 28.6615L61.3806 28.5607C61.3164 28.5025 61.2718 28.4335 61.2455 28.3536C61.2042 28.277 61.1856 28.1946 61.189 28.1056L61.1883 28.0898C61.1856 28.0581 61.1899 28.0264 61.2001 27.9957C61.2001 27.9632 61.2051 27.9316 61.2136 27.9008C61.2751 27.6762 61.4607 27.4947 61.6876 27.4332ZM11.3159 25.1796C11.391 25.177 11.461 25.192 11.526 25.2261C11.5943 25.2478 11.6525 25.2844 11.7014 25.3376C11.7554 25.3859 11.7925 25.4442 11.8144 25.5107C11.849 25.5749 11.8642 25.644 11.8617 25.718C11.8617 25.8153 11.8364 25.906 11.7874 25.9893C11.7588 26.026 11.7301 26.0625 11.7014 26.0983C11.6339 26.1657 11.5538 26.2115 11.461 26.2372L11.407 26.2556C11.3277 26.2839 11.2501 26.2855 11.1675 26.2748C11.0806 26.263 11.0004 26.2397 10.9296 26.1865C10.8603 26.1465 10.8056 26.0924 10.7651 26.0242L10.7187 25.916C10.7086 25.8795 10.7044 25.8246 10.7018 25.7862C10.7018 25.7804 10.7018 25.7755 10.701 25.7696C10.701 25.7371 10.7111 25.6581 10.7195 25.6256C10.7381 25.5573 10.776 25.4924 10.8191 25.4375C10.8562 25.3802 10.9068 25.3351 10.9692 25.3019L10.9748 25.2977L10.981 25.2935C11.0004 25.2802 11.0207 25.2669 11.0409 25.2527C11.1253 25.2045 11.2172 25.1796 11.3159 25.1796ZM54.8745 24.5887C55.0095 24.5887 55.1352 24.6228 55.2516 24.6894C55.2557 24.6909 55.2599 24.6927 55.2633 24.6944C55.3747 24.7593 55.4632 24.8467 55.5291 24.9565C55.5966 25.0705 55.6302 25.1938 55.6302 25.3252C55.6302 25.4575 55.5966 25.5798 55.5291 25.6938C55.4632 25.8038 55.3747 25.8911 55.2633 25.9561C55.2599 25.9585 55.2557 25.96 55.2516 25.9618C55.1352 26.0284 55.0095 26.0617 54.8745 26.0625C54.7404 26.0617 54.6147 26.0284 54.4982 25.9618C54.2706 25.8303 54.1279 25.5848 54.1279 25.3252C54.1279 25.0654 54.2706 24.82 54.4982 24.6894C54.6147 24.6228 54.7404 24.5887 54.8745 24.5887ZM19.8446 23.6264L19.8676 23.6259C19.957 23.6225 20.0404 23.6408 20.1172 23.6816C20.1973 23.7074 20.2673 23.7516 20.3264 23.814L20.4496 23.9154L20.4853 23.944C20.4912 23.9488 20.497 23.9538 20.5026 23.9588C20.5854 24.0411 20.6419 24.1376 20.674 24.2491C20.6841 24.3133 20.6924 24.3765 20.6993 24.4405C20.7177 24.607 20.6183 24.7777 20.5086 24.8958C20.4496 24.9582 20.3795 25.0023 20.2986 25.0289C20.221 25.0689 20.1366 25.0871 20.0471 25.0838C19.8641 25.0681 19.6904 25.0297 19.5588 24.8899C19.5436 24.8733 19.5292 24.8558 19.5141 24.8383L19.4087 24.7185C19.3286 24.6387 19.2728 24.5446 19.2425 24.4364C19.234 24.3789 19.2265 24.3224 19.2189 24.2658C19.2112 24.0952 19.2956 23.9354 19.4087 23.814C19.5131 23.7014 19.6902 23.6327 19.8446 23.6264ZM15.5867 21.874C16.4639 21.874 16.4622 23.2165 15.5867 23.2165C14.7102 23.2165 14.7119 21.874 15.5867 21.874ZM59.6928 19.992L59.7205 19.9925C59.8656 19.9933 60.0013 20.0291 60.1271 20.1015L60.2907 20.2255C60.3903 20.3254 60.4594 20.4419 60.4983 20.5767C60.5075 20.6473 60.5168 20.7181 60.5269 20.7881C60.5312 20.8979 60.5075 21.0003 60.4569 21.0951C60.4249 21.1933 60.3692 21.279 60.2907 21.3515C60.2174 21.4288 60.1312 21.4838 60.031 21.5154C59.9348 21.5653 59.831 21.5886 59.7205 21.5845C59.5746 21.5835 59.4387 21.5478 59.313 21.4754C59.2583 21.4338 59.2043 21.3922 59.1495 21.3515C59.0576 21.2593 58.9916 21.1529 58.9521 21.0311L58.9428 21.0003L58.9133 20.7881C58.9091 20.679 58.9326 20.5767 58.9832 20.4818C59.0154 20.3828 59.071 20.2979 59.1495 20.2255C59.2229 20.148 59.3097 20.0931 59.4093 20.0615C59.4973 20.0158 59.5919 19.9923 59.6928 19.992ZM55.7416 17.4793C55.82 17.4767 55.8926 17.4925 55.961 17.5275C56.0309 17.5499 56.0917 17.589 56.1431 17.6431C56.252 17.7289 56.3186 17.9003 56.3186 18.0393C56.3186 18.1782 56.252 18.3497 56.1431 18.4354C56.0723 18.5044 55.9887 18.5527 55.8926 18.5793L55.7416 18.5994C55.5948 18.6061 55.4455 18.5303 55.3409 18.4354C55.3198 18.4163 55.2996 18.3972 55.2785 18.3788C55.1833 18.2922 55.1419 18.1632 55.1359 18.0393C55.1334 17.9736 55.1478 17.912 55.1781 17.8546C55.1976 17.7947 55.2313 17.7438 55.2785 17.6997C55.2996 17.6814 55.3198 17.6623 55.3409 17.6431C55.4549 17.5391 55.5881 17.4868 55.7416 17.4793ZM80.7756 13.0029C81.3299 12.3368 81.0072 11.8627 80.1742 12.0274C78.7394 12.2189 77.389 13.1135 76.1253 13.7551C74.7461 14.4738 73.3246 15.0665 71.9177 15.7419C72.4982 16.0934 72.93 16.6439 73.2598 17.272C73.9181 16.7788 74.7597 16.5429 75.5812 16.5122C77.0716 15.104 79.5399 14.7815 80.7756 13.0029ZM15.2915 15.2141C15.4418 15.2148 15.5826 15.2496 15.7146 15.3192L15.7427 15.3347L15.9232 15.4728C16.011 15.5527 16.0725 15.6475 16.1088 15.7566C16.1645 15.8614 16.1898 15.9754 16.1856 16.0969C16.1898 16.2184 16.1645 16.3316 16.1088 16.4365C16.0725 16.5463 16.011 16.6404 15.9232 16.7203C15.8735 16.7843 15.8094 16.8343 15.7326 16.871C15.6608 16.9 15.59 16.93 15.5183 16.9599C15.4382 16.9849 15.3454 16.9882 15.2585 16.9924C15.1008 16.9916 14.9541 16.9524 14.8173 16.8742L14.6402 16.7395C14.555 16.6612 14.4942 16.5688 14.4588 16.4614C14.4086 16.3669 14.3832 16.266 14.3832 16.1582L14.3838 16.1286C14.3838 16.122 14.3838 16.1144 14.3847 16.1069C14.3948 16.0287 14.4058 15.9505 14.4166 15.8723C14.4445 15.7574 14.4977 15.6567 14.577 15.5718C14.5972 15.5319 14.6242 15.4994 14.6589 15.4728C14.7701 15.3629 14.9016 15.2881 15.0536 15.2455C15.1328 15.2356 15.2121 15.2247 15.2915 15.2141ZM54.4304 13.0091L54.4561 13.0095C54.5699 13.0095 54.6754 13.0378 54.7733 13.0936C54.8162 13.1261 54.8584 13.1585 54.9006 13.1909C54.9791 13.2683 55.0331 13.3599 55.0626 13.4647L55.0854 13.6294C55.0879 13.7152 55.0701 13.7943 55.0305 13.8684C55.0053 13.9449 54.9622 14.0115 54.9006 14.0681C54.8441 14.1287 54.7767 14.1712 54.6982 14.1962C54.6239 14.2353 54.5429 14.2528 54.4561 14.2496C54.343 14.2496 54.2367 14.2212 54.1389 14.1646C54.0967 14.133 54.0537 14.1005 54.0115 14.0681C53.9404 13.9971 53.8891 13.9143 53.8583 13.8202L53.8504 13.7943L53.8277 13.6294C53.8243 13.5438 53.8421 13.4647 53.8816 13.3906C53.9069 13.3133 53.9509 13.2467 54.0115 13.1909C54.0689 13.1301 54.1364 13.0877 54.2141 13.0628C54.2815 13.0276 54.3539 13.0099 54.4304 13.0091ZM20.2219 12.1078L20.2513 12.1082C20.4192 12.109 20.5752 12.1506 20.7203 12.2339C20.7827 12.2814 20.8452 12.3288 20.9076 12.3771C21.0231 12.491 21.1024 12.6258 21.1472 12.7815L21.18 13.0245C21.1851 13.1509 21.1581 13.2683 21.0999 13.3773C21.0629 13.4914 20.9987 13.5895 20.9076 13.6727C20.8241 13.7619 20.7245 13.825 20.609 13.8617C20.4985 13.9191 20.3795 13.9458 20.2513 13.9407C20.0835 13.9407 19.9274 13.8991 19.7823 13.8159C19.72 13.7684 19.6576 13.7203 19.5943 13.6727C19.4795 13.5579 19.4002 13.4231 19.3555 13.2683L19.3226 13.0245C19.3175 12.8988 19.3445 12.7807 19.4027 12.6716C19.4398 12.5585 19.504 12.4594 19.5943 12.3771C19.6786 12.2872 19.7781 12.2239 19.8937 12.1873C19.9957 12.1343 20.1049 12.1082 20.2219 12.1078ZM51.4557 9.81973C51.5325 9.79967 51.6092 9.79967 51.6859 9.81973C51.8006 9.82464 51.9079 9.85876 52.0074 9.92118L52.182 10.0544C52.1844 10.0568 52.1871 10.0594 52.1896 10.0627C52.295 10.1675 52.3683 10.2916 52.4088 10.4339L52.4393 10.6578C52.4435 10.7734 52.419 10.8815 52.3659 10.9815C52.3342 11.0775 52.2819 11.161 52.2097 11.2333L52.182 11.2602C52.1035 11.3434 52.0115 11.4025 51.9044 11.4366C51.837 11.4758 51.7635 11.4949 51.6859 11.4949C51.5713 11.5207 51.4557 11.5157 51.3409 11.4799C51.2727 11.4508 51.2034 11.4225 51.1344 11.3942L51.1123 11.3817C50.8517 11.2411 50.6906 10.9465 50.6906 10.6578C50.6906 10.3689 50.8517 10.0735 51.1123 9.93283C51.12 9.92958 51.1267 9.92534 51.1344 9.92118C51.2339 9.85876 51.3409 9.82464 51.4557 9.81973Z" fill="black"/>
</g>
<defs>
<clipPath id="clip0_5_82">
<rect width="69" height="61" fill="white"/>
</clipPath>
</defs>
</svg>
