<svg width="67" height="62" viewBox="0 0 67 62" fill="none" xmlns="http://www.w3.org/2000/svg">
<g clip-path="url(#clip0_5_34)">
<path fill-rule="evenodd" clip-rule="evenodd" d="M62.589 33.1117C62.589 32.4272 61.6717 31.2124 61.6701 30.5924C62.4413 30.4501 63.0861 29.371 62.9152 28.6953C62.6142 28.4577 61.8252 27.9899 61.4989 27.7715C59.5108 27.8338 60.2664 24.9775 60.0414 23.5256C59.8148 22.1051 59.6466 20.6198 59.315 19.1913C58.7261 18.0482 58.4498 16.7668 57.8869 15.6295C57.6355 15.2526 57.2293 14.9071 57.1076 14.4692C55.8762 13.0803 54.1811 12.2478 52.7861 11.0715C53.3275 10.8925 53.2913 10.1385 53.2564 9.65422C53.3823 9.02246 53.2478 8.23008 52.6898 7.87415C52.5013 7.23977 51.6771 7.01833 51.1952 7.42247C50.8786 5.95723 49.6401 5.06825 48.3427 4.52454C48.3438 4.52023 48.3449 4.516 48.3461 4.51169C47.0376 3.97543 45.4693 3.70808 44.1638 4.00954C44.8529 -3.9201 38.9718 -4.21118 35.987 -3.5448C34.4603 -3.20394 32.1696 -2.14276 31.6492 -0.66754C31.3554 0.165322 30.5123 2.85137 30.3923 3.70808C28.1131 2.36498 25.4708 0.59393 23.4939 3.29791C23.098 3.76913 22.66 4.11913 22.0676 4.28103C20.2182 4.7766 17.7634 4.79318 16.7122 6.74014C16.0839 7.9463 16.649 8.74105 16.4802 9.94764C8.15488 15.9852 1.19761 38.2268 2.75974 48.5742C3.13553 52.2772 4.97025 58.8315 9.49881 58.0143C11.8086 60.6232 50.5772 60.6232 54.5748 58.0143C57.8655 58.9031 61.209 57.5273 62.589 54.2727C64.3414 49.8098 62.4843 44.9902 62.1552 40.4121C61.9554 39.2562 61.6579 38.3387 61.4989 37.1554C61.4327 36.6623 61.6612 35.842 61.4989 35.3875C61.5755 35.0917 62.589 33.7961 62.589 33.1117Z" fill="white"/>
<path fill-rule="evenodd" clip-rule="evenodd" d="M44.2633 1.44677C44.3549 1.85167 44.2713 2.30817 44.2866 2.72373C44.3011 3.12085 44.3465 3.51569 44.4134 3.90698C45.1163 3.52516 45.947 3.4761 46.748 3.59901C47.7843 3.75802 48.9833 4.10989 49.7954 4.8248C49.9959 5.00141 50.162 5.2105 50.3011 5.44099C50.468 5.71758 50.5746 6.03003 50.8392 6.22821C51.2486 6.53483 51.7561 6.6535 52.1497 6.99327C52.5509 7.33964 52.8 7.85747 52.8527 8.39187C52.8808 8.67632 52.8353 8.94225 52.783 9.21969C52.7362 9.4693 52.7592 9.57173 52.8228 9.81203C52.8728 10.0007 52.7775 10.2147 52.622 10.3188C52.9553 10.555 53.2841 10.7985 53.6071 11.0519C55.4893 12.5271 57.0808 14.3659 58.1841 16.5296L58.2107 16.5833L58.2416 16.6479C58.5105 17.2184 59.214 18.886 59.3014 19.261C59.3639 19.4568 59.4244 19.6534 59.4807 19.8511C59.6293 20.3753 59.7553 20.9059 59.8597 21.4409L59.8877 21.5869C59.9724 22.0362 60.1183 22.5684 60.0948 23.0473C60.3391 24.3548 60.5556 25.6678 60.7404 26.9863C60.7646 27.159 60.698 27.2993 60.5946 27.3925C60.8417 27.4335 61.0873 27.4839 61.3301 27.5347L61.4712 27.5654L61.5418 27.5815C62.0476 27.6993 62.5468 27.8708 62.8781 28.3095C63.2353 28.7841 63.2426 29.394 62.8838 29.8719C62.5792 30.2779 62.1344 30.4707 61.67 30.5925C61.5783 30.6162 61.4857 30.6382 61.3931 30.6576C61.3309 30.6711 61.29 30.5832 61.3489 30.5494L61.4474 30.4931L61.5819 30.417C61.932 30.2178 62.2953 29.9928 62.489 29.6333C62.752 29.1453 62.5439 28.6935 62.0926 28.4458C61.7148 28.2381 61.2474 28.1849 60.8279 28.1139L60.6546 28.0844C60.216 28.0121 59.7686 27.9651 59.3259 28.0169C58.9384 28.0625 58.5461 28.1988 58.2331 28.4432L58.2042 28.4667L58.1742 28.4927C57.8998 28.7383 57.5051 29.2899 58.0227 29.4489C58.4183 29.5697 58.9004 29.5397 59.3162 29.5631L59.37 29.5665C59.7181 29.591 60.0819 29.591 60.434 29.6342C60.5601 29.6493 60.6847 29.6705 60.8067 29.7002C61.1565 29.7856 61.0361 30.266 60.728 30.2999C60.6527 30.3083 60.5758 30.3125 60.4987 30.3142C60.2972 30.4707 60.0187 30.5418 59.7804 30.639C59.5527 30.7321 59.3242 30.8243 59.0941 30.9148C59.2923 30.9241 59.4905 30.941 59.6879 30.9664C59.7517 30.9739 59.7525 31.0628 59.6879 31.0696C59.2127 31.1195 58.7377 31.1736 58.2643 31.242C57.5313 31.347 56.803 31.4874 56.0914 31.7013C55.5711 31.8584 55.0573 32.0454 54.5589 32.2636L54.4081 32.3306L54.3459 32.3587C53.8935 32.5611 53.3083 32.7981 53.0484 33.2441C52.9125 33.4767 52.8527 33.8362 53.0444 34.0588C53.2494 34.2984 53.6787 34.2711 53.9658 34.2827L53.9888 34.2838C54.5965 34.3142 55.205 34.3184 55.8136 34.2964C57.0889 34.2499 58.3651 34.1061 59.6175 33.8531C59.8484 33.8067 59.9484 34.1645 59.7157 34.2203C58.2385 34.5748 56.7451 34.7692 55.2293 34.7783L55.0633 34.7786C54.4729 34.8951 53.8939 35.069 53.3197 35.2652L53.2049 35.3047C52.8659 35.423 52.2868 35.5407 52.0868 35.8882C51.9542 36.1191 52.0008 36.2774 52.132 36.3848C52.3629 36.5734 52.8543 36.6089 53.0935 36.6183C54.0518 36.6554 55.0109 36.6622 55.97 36.641C56.4493 36.63 56.9284 36.6124 57.4076 36.587C57.8761 36.5616 58.3765 36.4897 58.8433 36.5361C59.0441 36.5564 59.1113 36.8609 58.8934 36.9177C58.3176 37.0683 57.6719 37.0551 57.077 37.0744L57.0086 37.0767C56.3698 37.1003 55.7301 37.1106 55.0913 37.1089C54.5429 37.1066 53.9946 37.0952 53.4468 37.0744L52.9625 37.0545L52.8768 37.0503C52.6187 37.036 52.355 37.0053 52.1262 36.8956C51.9149 37.261 52.0729 37.7508 52.3457 38.04C52.6053 38.3159 52.9797 38.4512 53.3384 38.5358C53.372 38.5434 53.4056 38.5509 53.4392 38.5578C54.2271 38.7235 55.0298 38.7092 55.767 39.083C56.387 39.3976 56.9547 39.922 57.6491 40.0464C58.27 40.158 58.7213 39.8756 59.0522 39.3529C59.0703 39.3241 59.0883 39.2954 59.1055 39.2665C59.3659 38.8334 59.5535 38.3565 59.828 37.9318C59.968 37.7153 60.1261 37.5073 60.3194 37.3381C60.4061 37.261 61.0139 36.9279 61.109 36.828C61.5177 36.3949 61.1557 35.484 61.2621 34.941C61.3866 34.3091 61.9248 34.0867 62.2475 33.5969C62.8609 32.6648 61.1785 31.7918 61.6815 30.7726C61.6881 30.76 61.6962 30.7507 61.7068 30.7447C61.7511 30.7202 61.8216 30.7507 61.8175 30.8107C61.7617 31.5703 62.4629 32.093 62.716 32.751C63.0042 33.4997 62.5439 33.953 62.0738 34.4529C61.4709 35.0949 61.8952 35.8139 61.761 36.587C61.7434 36.6883 61.7153 36.7776 61.6786 36.8576C61.7817 36.9235 61.8611 37.0328 61.8786 37.1854C62.0853 38.9955 62.3075 40.8 62.6704 42.5851L62.748 42.9643L62.852 43.4703C63.1106 44.7357 63.352 46.0062 63.3979 47.2999C63.5419 48.3916 63.5991 49.4925 63.5138 50.5915C63.2549 53.9368 61.4439 57.4369 58.1537 58.4637C57.392 58.7014 56.5844 58.7631 55.803 58.5966C55.5352 58.5399 55.1601 58.4146 54.8233 58.2252C54.8434 58.4481 54.8593 58.6711 54.8659 58.8935C54.9769 59.0211 55.0271 59.2138 54.9639 59.3786C54.6956 59.2875 54.4517 59.1431 54.2321 58.9456L54.1957 58.9122C54.0655 58.4126 54.0274 57.866 54.0085 57.3397L54.0035 57.1899C53.9985 57.0444 53.9953 56.9015 53.9904 56.7619C53.9626 55.8933 53.9822 55.0229 54.0256 54.1551L54.0575 53.5162C54.1307 52.0261 54.1902 50.5396 54.1502 49.0453C54.1043 47.3258 53.9618 45.6137 53.7832 43.9035C53.6906 43.0212 53.5858 42.1408 53.4784 41.2602C53.3925 40.5514 53.2484 39.7885 53.2459 39.0577C52.6946 38.9359 52.1533 38.7023 51.8141 38.2245C51.4545 37.7179 51.4013 37.07 51.7207 36.5505C51.412 36.1142 51.6651 35.7031 52.0468 35.4256C51.4603 35.0864 51.1335 34.161 51.0467 33.5174C50.9876 33.0758 50.9689 32.4152 51.1515 31.9187C50.8894 31.9281 50.6273 31.956 50.3652 32.0025C50.0621 32.0575 49.7648 32.1378 49.4715 32.2377L49.3231 32.2884C49.2481 32.3143 49.1638 32.3449 49.08 32.3806C49.61 33.2856 48.9293 34.1061 48.0562 34.3404C47.89 34.3852 47.7204 34.4166 47.5493 34.4418C47.1635 34.4969 46.7694 34.5137 46.3869 34.5502C45.6547 34.6195 44.9184 34.7185 44.1837 34.7507C44.0223 34.7583 43.9183 34.6805 43.8691 34.5721C43.8675 34.5705 43.8667 34.5696 43.8667 34.568C43.8495 34.5392 43.838 34.5087 43.8339 34.4766C43.8364 34.4791 43.8397 34.4808 43.8421 34.4825C43.8068 34.2794 43.9249 34.0325 44.1837 34.0029C45.2444 33.8794 46.3198 33.8735 47.3837 33.783L47.4519 33.7772C47.7859 33.7474 48.1793 33.6927 48.4437 33.4743C48.6894 33.2713 48.7114 33.0073 48.6132 32.7689C48.6115 32.7747 48.61 32.7815 48.6091 32.7875C48.6017 32.8348 48.5387 32.8331 48.5182 32.8001C48.4568 32.7037 48.4411 32.6089 48.4568 32.5176C48.383 32.4297 48.2938 32.3518 48.1971 32.2917C47.7687 32.0228 47.2053 31.9492 46.7178 31.8697C46.1847 31.7826 45.6474 31.7428 45.1092 31.7166C44.0502 31.665 42.9878 31.7539 41.946 31.95C41.9025 31.9577 41.8846 31.8951 41.9272 31.8807C42.3333 31.7419 42.7486 31.6253 43.1688 31.5331C43.159 31.5313 43.1492 31.5297 43.1394 31.5271C43.1025 31.5178 43.0762 31.4713 43.0886 31.4341C43.0902 31.4281 43.0927 31.4223 43.0952 31.4172C42.9165 31.3326 42.8421 31.0484 43.0583 30.9334C43.7323 30.5739 44.5235 30.4114 45.2632 30.2634C45.9734 30.1221 46.6908 30.0232 47.4092 29.9353C48.6239 29.7881 49.9483 29.7915 51.1171 29.3956L51.1651 29.3789C51.6411 29.2094 52.2093 28.866 52.2425 28.2859C52.2916 27.4087 51.0294 27.6372 50.5036 27.6583C49.0645 27.715 47.6271 27.8182 46.1945 27.9772C45.902 28.0093 45.6096 28.0422 45.3173 28.0761C44.8693 28.1277 44.4204 28.1819 43.9732 28.2393C43.7234 28.2715 43.4678 28.3138 43.2106 28.3544C43.1304 28.3747 43.0517 28.3891 42.9731 28.3967C42.9673 28.3975 42.9625 28.3959 42.9584 28.3933C42.584 28.4475 42.2081 28.4888 41.8428 28.4771C41.8009 28.4762 41.7748 28.4085 41.819 28.3882C42.2908 28.1819 42.8158 28.0601 43.3424 27.9644C43.6685 27.7133 44.0624 27.512 44.386 27.3174C44.8299 27.0501 45.3386 26.6568 45.8423 26.497C46.0691 26.3126 46.3263 26.1646 46.5631 26.0639C46.4951 25.9548 46.4705 25.8033 46.4828 25.6757C46.5279 25.2181 46.8825 24.9625 47.2921 24.8729C47.419 24.8459 47.5656 24.8256 47.7221 24.818C47.7253 24.7325 47.7621 24.6488 47.844 24.5862L47.8682 24.5673L47.8854 24.5531C48.1603 24.3226 48.7061 23.6736 48.0488 23.6262C47.7 23.6007 47.405 23.8647 47.1274 24.0432C46.5507 24.4145 45.993 24.433 45.3345 24.3408L45.0385 24.297L44.9892 24.2901C44.5131 24.2256 44.0301 24.2167 43.7643 24.7181C43.4792 25.2544 43.3794 25.7433 42.8043 26.0385C42.2548 26.3202 41.6446 26.376 41.14 26.7634C40.5994 27.1778 40.1931 27.7597 39.7509 28.2757C38.7754 29.4125 37.659 30.4166 36.509 31.3605L36.3044 31.5279C35.2454 32.3922 34.1522 33.2432 32.9665 33.9091C32.9583 33.9132 32.9501 33.915 32.9428 33.915C32.9108 33.9116 32.887 33.8693 32.9157 33.8405C34.3008 32.4508 35.9209 31.3242 37.3436 29.9717C37.9742 29.372 38.5746 28.7409 39.1521 28.0863C39.6566 27.512 40.1038 26.8666 40.692 26.3777C40.9778 26.1399 41.2866 25.9582 41.6322 25.8313C41.955 25.7119 42.317 25.6527 42.6144 25.47C43.1967 25.1132 43.1402 24.2673 43.7226 23.8832C44.2219 23.5539 44.8302 23.6742 45.3838 23.7524L45.45 23.7615C45.8087 23.8106 46.1798 23.852 46.5221 23.7057C46.8612 23.5611 47.1339 23.2904 47.4755 23.1466C47.9514 22.9444 48.6263 22.9927 48.8704 23.5331C49.1038 24.0491 48.7852 24.516 48.4134 24.8586C48.9203 24.9533 49.3651 25.2062 49.4028 25.7222C49.7747 25.7094 50.1457 25.6959 50.5175 25.6824C51.8125 25.6359 53.1139 25.5462 54.4098 25.5699C54.3802 25.4337 54.3671 25.2933 54.3655 25.1504C54.3648 25.0709 54.368 24.9914 54.3737 24.9102C54.3835 24.7714 54.472 24.6876 54.6031 24.6733L54.8958 24.641L54.9937 24.631C55.542 24.5774 56.1552 24.5662 56.573 24.9405C56.7974 25.1428 56.9784 25.608 56.8686 25.9184C57.1241 26.0089 57.3675 26.1247 57.5894 26.2711C58.0293 26.1188 58.4912 26.1358 58.9334 26.2947L58.986 26.3141C59.3004 26.4333 59.746 26.6591 59.9168 26.9811C59.5021 24.0784 58.9433 21.2004 58.2408 18.3572C57.7923 17.2218 57.2257 16.1365 56.5386 15.1348C54.8079 12.6108 52.3145 10.8752 50.0753 8.87983C49.8777 9.10438 49.6649 9.31805 49.4658 9.52367L49.3814 9.61131C48.976 10.0353 48.5531 10.4411 48.1209 10.8357C47.2175 11.6604 46.2667 12.4215 45.3226 13.1949C43.4195 14.754 41.6989 16.4096 40.2673 18.4451C40.2416 18.4818 40.1703 18.4604 40.1902 18.4116C41.1721 16.0012 43.2076 14.1687 45.0567 12.4683C46.0291 11.5742 47.0243 10.7016 47.9593 9.76526C48.3952 9.32872 48.8174 8.87713 49.2158 8.40375L49.3149 8.28495C49.5753 7.97013 50.1852 7.00892 50.5883 7.70242C50.6727 7.84749 50.669 8.03306 50.5883 8.17829C50.4738 8.38468 50.3284 8.5815 50.1694 8.77055C50.7345 9.08799 51.2881 9.4232 51.8295 9.77803C51.7984 9.60708 51.8061 9.41812 51.835 9.22908L51.8445 9.16903L51.884 8.93457C51.9405 8.58893 51.9696 8.2676 51.7572 7.93046C51.4917 7.50873 50.991 7.3772 50.5921 7.13351C50.1326 6.85269 49.8926 6.47697 49.6466 6.00009C49.1754 5.08718 48.1108 4.72111 47.1959 4.42742L47.0808 4.39054C46.2353 4.11996 45.3207 3.97515 44.4755 4.23516C44.5547 4.6163 44.6585 4.99202 44.7882 5.35801C44.9262 5.7476 45.2414 6.18076 45.2092 6.60156C45.1869 6.89279 44.8486 7.20406 44.5679 6.98151C44.1703 6.66652 44.0909 6.15352 43.9843 5.6648C43.8813 5.19214 43.8155 4.70798 43.7875 4.22442C43.7606 3.75839 43.7816 3.29265 43.8373 2.8298L43.88 2.48987L43.8903 2.41093C43.9368 2.06731 44.0059 1.70666 44.193 1.43729C44.2111 1.41141 44.2551 1.41082 44.2633 1.44677ZM32.7284 -0.485382C32.7344 -0.457893 32.7386 -0.430741 32.7423 -0.40359C32.7697 -0.28771 32.7799 -0.176313 32.7766 -0.0644084C32.7782 -0.0240619 32.7754 0.0163692 32.7681 0.0563774C32.7534 0.188075 32.7227 0.32324 32.6812 0.471008C32.5928 0.785406 32.4915 1.096 32.3784 1.40194C32.1548 2.00697 31.8908 2.58425 31.5645 3.1376C30.975 4.13713 30.2257 4.96681 29.3422 5.684C29.5099 5.82686 29.6738 5.97547 29.838 6.12138C30.6318 6.82681 31.4041 7.56421 32.1521 8.32107C33.4806 9.66536 34.7823 11.0346 36.0535 12.4367C36.6805 13.1281 37.2959 13.8287 37.9079 14.5339L37.928 14.5577L37.9496 14.5843C38.167 14.8557 38.6014 15.503 38.9255 15.3991C39.0892 15.3464 39.2615 15.0943 39.373 14.974L39.5785 14.7527C39.6468 14.6788 39.7147 14.6044 39.7814 14.5289C40.977 13.1763 42.1082 11.7717 43.1703 10.3035C43.6886 9.58721 44.1897 8.85742 44.6725 8.11494C44.9207 7.73321 45.1643 7.3481 45.403 6.95978C45.6338 6.58422 45.8204 6.18059 46.1606 5.90028C46.4103 5.69457 46.7562 5.88319 46.6932 6.22043C46.5941 6.75153 46.2382 7.20067 45.9579 7.64956C45.6764 8.10064 45.3882 8.54733 45.0936 8.98928C44.5266 9.8402 43.9349 10.6732 43.3222 11.4894C42.7945 12.1923 42.244 12.8772 41.6786 13.5482L41.524 13.7309C40.9159 14.4469 40.3189 15.207 39.6469 15.8605C39.0451 16.4457 38.3879 16.2752 37.8397 15.7064C37.1463 14.9874 36.5026 14.2097 35.8355 13.4644C34.5024 11.9751 33.1553 10.4971 31.7943 9.03479L31.347 8.55352C30.8253 7.99122 30.3058 7.42539 29.7998 6.84923L29.7345 6.7741C29.1575 6.10382 28.5708 5.26412 27.7505 4.92333C27.6912 4.89872 27.713 4.81177 27.7771 4.82395C28.3022 4.92418 28.7405 5.19739 29.1484 5.5238C29.515 4.89728 29.8422 4.23685 30.1274 3.56137L29.9444 3.47932C28.6352 2.89513 27.1596 2.3061 25.754 2.40079C25.1876 2.43885 24.5832 2.66046 24.1921 3.09962C23.8379 3.49742 23.6611 4.03385 23.3361 4.45753C22.9638 4.94279 22.4782 5.16119 21.8824 5.18089L21.5926 5.18997C21.2594 5.20114 20.9398 5.21919 20.6017 5.29491C19.6859 5.49994 18.7203 5.83261 17.9521 6.40076C17.6735 6.60681 17.3858 6.89016 17.2511 7.20236C17.1175 7.51169 17.0791 7.87362 17.0661 8.20747C17.0598 8.37021 17.107 8.58514 17.0675 8.74086C17.072 8.72301 17.0741 8.73249 17.0747 8.75109C17.1974 8.85107 17.2811 9.01728 17.2902 9.1829C18.0558 8.7708 18.8484 8.40963 19.6565 8.08407C20.5561 7.72162 21.4837 7.43116 22.4115 7.1561C23.3195 6.88703 24.27 6.77572 25.1956 6.58389C25.3134 6.55944 25.3544 6.72379 25.2446 6.76743C24.2717 7.1533 23.3303 7.61073 22.3493 7.97377C21.3688 8.33672 20.3956 8.72953 19.4435 9.16615C17.6032 10.0104 15.8256 11.0846 14.3757 12.5421C12.9597 13.9656 11.8675 15.6949 10.8517 17.4336C9.82867 19.1846 8.91565 20.9994 8.10191 22.8635C6.4921 26.5513 5.28496 30.4287 4.49021 34.3892C3.71676 38.2434 3.28462 42.2352 3.42853 46.1745C3.49684 48.0455 3.71816 49.9179 4.23286 51.7173C4.47875 52.5771 4.78655 53.4171 5.17545 54.219C5.58556 55.0645 6.1381 55.8176 6.51258 56.6775C6.54338 56.7482 6.55517 56.8162 6.55345 56.8793C8.15064 58.3083 10.6506 57.3453 12.3792 56.4921C16.3566 54.5281 20.2603 52.3788 23.9707 49.9123C27.6327 47.4779 31.1031 44.7611 34.4916 41.9411C34.2295 41.662 33.9985 41.3491 33.7954 41.0657C33.3761 40.4804 33.0607 39.8172 32.8437 39.1253C32.5897 38.3149 32.511 37.448 32.5832 36.6014L32.6037 36.3619C32.6727 35.5624 32.7524 34.7511 32.9223 33.9699C32.9238 33.9598 32.9313 33.9555 32.9395 33.9555C32.9476 33.9555 32.9559 33.9607 32.9591 33.9699C33.417 35.4832 33.4539 37.1096 33.9682 38.6035C34.1754 39.204 34.4965 39.7843 34.8815 40.2824C35.0478 40.4981 35.2427 40.6851 35.4417 40.8678C35.4549 40.7746 35.4728 40.6825 35.4998 40.592L35.5213 40.5204C35.5479 40.4334 35.5809 40.3367 35.6268 40.2511C35.5621 40.2317 35.4991 40.2106 35.4368 40.1868C35.3876 40.1683 35.377 40.0862 35.4368 40.0727C35.5998 40.0338 35.7677 40.0143 35.9389 40.0059C35.966 40.0016 35.9921 40.0008 36.0183 40.0025C36.3386 39.9922 36.6646 40.016 36.9734 40.0211C37.5083 40.0295 38.0415 40.0396 38.5754 40.0642C39.5977 40.1098 40.7517 40.3121 41.7576 40.0667C42.6717 39.8435 43.5727 39.2141 44.3057 38.622C44.9462 38.1044 45.4402 37.4895 45.9716 36.8763C45.9335 36.8825 45.8956 36.8883 45.8579 36.8937L45.5151 36.9422C45.0825 37.0019 44.5689 37.0487 44.2255 36.834C44.0943 36.7519 44.1321 36.5658 44.2656 36.515C44.6161 36.3823 45.0511 36.4922 45.4245 36.4736C45.7177 36.4592 46.0143 36.4271 46.3035 36.3645C46.3985 36.3442 46.4926 36.3205 46.586 36.2926C47.2707 36.0888 48.0751 35.3715 47.5312 34.5883C47.5108 34.5587 47.5336 34.5316 47.5615 34.5264C47.5738 34.524 47.5869 34.5264 47.5976 34.5358C48.2167 35.0652 47.8948 36.0143 47.3092 36.4212C47.1078 36.5616 46.8801 36.6597 46.6442 36.7316C46.6892 36.817 46.6973 36.9219 46.6433 37.0217C46.1847 37.8659 45.4082 38.6076 44.6808 39.204C43.9339 39.8163 43.0722 40.394 42.1458 40.6648C41.0761 40.976 39.9008 40.7417 38.8155 40.6428C38.2273 40.5894 37.641 40.526 37.0537 40.4558C36.8963 40.4372 36.7334 40.4229 36.5679 40.4068C36.7236 40.6182 36.8473 40.8619 36.9284 41.0082C37.1921 41.4835 36.9488 42.1095 36.4377 42.2549C36.3844 42.2702 36.3295 42.2786 36.2756 42.2802C36.1379 42.5653 35.8103 42.7751 35.5072 42.6676C35.3754 42.6212 35.2484 42.5578 35.1264 42.4816C33.2204 44.2105 31.2136 45.8328 29.1497 47.3537C25.3221 50.1737 21.3102 52.7493 17.1503 55.0136C16.2133 55.5236 15.2691 56.02 14.3169 56.497L13.4974 56.9049C12.5902 57.3558 11.6618 57.8041 10.6984 58.0839C10.5106 58.1384 10.314 58.1825 10.1125 58.2163C10.1099 58.2349 10.1092 58.2527 10.1104 58.2698C9.92925 58.2947 9.77119 58.2985 9.63621 58.2812L9.60547 58.2768C8.42462 58.3621 7.16153 58.0644 6.40184 57.1737C6.27521 57.2655 6.0906 57.2756 5.92768 57.1436C5.10837 56.4797 4.61995 55.4689 4.19133 54.5039C3.75673 53.525 3.41608 52.5048 3.16578 51.4597C2.66581 49.3723 2.46752 47.2192 2.45707 45.072C2.41927 36.7981 4.42583 28.4515 7.91114 21.0235C8.79509 19.1395 9.76945 17.2908 10.8511 15.5198C11.9298 13.7537 13.1824 12.1124 14.7866 10.8243C15.2479 10.454 15.7278 10.1154 16.2227 9.80349C15.8905 9.63347 15.7586 9.201 15.7353 8.81682C15.6837 7.96362 15.7822 6.98067 16.2659 6.26078C16.9445 5.25084 18.1593 4.62814 19.2857 4.32533C19.8737 4.16732 20.4819 4.07521 21.0884 4.04409C21.4012 4.02793 21.7261 4.08105 22.035 4.0462C22.3076 4.01558 22.4762 3.8476 22.633 3.62675C23.0346 3.06063 23.296 2.46685 23.872 2.05188C24.4631 1.62617 25.229 1.46326 25.941 1.50741C26.7705 1.55893 27.5272 1.89642 28.2578 2.28423C28.9171 2.63424 29.5571 3.02197 30.1809 3.43559C30.2952 3.15892 30.4029 2.88013 30.5031 2.60041C30.6974 2.05806 30.8663 1.49845 31.0035 0.937826C31.1425 0.369338 31.1221 -0.381429 31.542 -0.808916C31.9071 -1.18049 32.6101 -1.03459 32.7284 -0.485382ZM61.0256 37.4475L61.0226 37.4481C60.1734 37.9678 59.7673 39.2665 59.3676 39.8341C59.4003 40.0244 59.4233 40.2181 59.4683 40.3982C59.5716 40.8119 59.7066 41.2222 59.8632 41.6163C60.1384 42.3125 60.4832 42.9756 60.8018 43.6505C61.0582 44.1933 61.3094 44.746 61.5048 45.3174C61.4836 45.3393 61.464 45.3653 61.4474 45.3975C61.2354 45.8075 61.0695 45.7269 60.6784 45.6374L60.6781 45.6365C60.4545 44.9295 60.1318 44.2655 59.8419 43.5871L59.7714 43.4214L59.7016 43.2556C59.4594 42.675 59.2383 42.089 59.1095 41.4666C59.0276 41.0699 58.9941 40.6621 58.9892 40.257C58.7771 40.4372 58.5223 40.5667 58.2013 40.6165C57.5143 40.7236 56.8921 40.2793 56.3323 39.9229L56.2062 39.8431C55.8557 39.623 55.5083 39.4195 55.1043 39.3156C54.6456 39.1972 54.1714 39.1972 53.7054 39.1371C53.6496 39.1295 53.5932 39.1219 53.5366 39.1127C53.7184 39.7343 53.8028 40.4093 53.911 41.0319C54.0617 41.9048 54.1846 42.7853 54.3025 43.6633C54.5318 45.3651 54.6916 47.0804 54.7726 48.7967C54.8511 50.4584 54.8115 52.1139 54.7533 53.7751L54.7243 54.5852C54.701 55.2448 54.6818 55.9051 54.6931 56.5649C54.7242 56.5673 54.7554 56.5725 54.7866 56.5801C55.1093 56.6579 55.3295 56.9978 55.6245 57.1493C56.2469 57.4691 56.9989 57.4648 57.6615 57.3033C59.1686 56.9344 60.4218 55.8483 61.2473 54.5213C62.2385 52.9294 62.6021 51.0558 62.5906 49.1814C62.577 47.072 62.2461 45.055 61.7856 43.0185L61.756 42.8885C61.3684 41.1919 61.1257 37.4636 61.0256 37.4475ZM18.8237 33.1912C18.8323 33.7585 18.6089 34.3654 18.4861 34.9168C18.3539 35.5108 18.2221 36.1048 18.0884 36.6986L17.9681 37.2306C17.868 37.6739 17.7694 38.1175 17.6809 38.5636C17.6082 38.9303 17.5777 39.4135 17.4585 39.8177C18.8761 39.2256 20.2959 38.6395 21.7133 38.0494C23.4595 37.3221 25.214 36.6149 26.9643 35.8993C28.7081 35.1871 30.4421 34.3768 32.2212 33.7678C32.6447 33.6223 32.9313 34.3201 32.5258 34.5137C30.7189 35.3791 28.8072 36.0566 26.9561 36.8146L24.2785 37.9123C21.8238 38.9181 19.3674 39.919 16.8988 40.8855C15.2172 41.5436 13.5422 42.2212 11.85 42.8462C11.0432 43.144 10.2291 43.4256 9.42638 43.7343C8.75392 43.9931 8.02658 44.3772 7.77759 45.1232C7.76448 45.1621 7.71288 45.1461 7.71861 45.1062C7.81936 44.3839 8.33873 43.9322 8.92429 43.5905C9.70148 43.1358 10.5551 42.8049 11.3755 42.4403L11.4872 42.3903C13.1624 41.6358 14.8512 40.9119 16.5449 40.2C16.5281 40.1577 16.5182 40.1124 16.5175 40.065L16.5127 40.0664C16.4819 39.743 16.6254 39.4547 16.7287 39.1539L17.025 38.2908C17.2224 37.7161 17.3995 37.1342 17.5819 36.5543C17.7726 35.9482 17.9652 35.3426 18.1574 34.737C18.3203 34.224 18.4297 33.6126 18.7083 33.154C18.7418 33.0988 18.8344 33.1298 18.8237 33.1912ZM51.4464 31.9154L51.4253 32.0256C51.4007 32.1544 51.3776 32.2842 51.3719 32.4145C51.3554 32.7553 51.3931 33.0961 51.4808 33.4252C51.5668 33.7508 51.6871 34.0655 51.8584 34.354C52.0206 34.6254 52.2556 34.8386 52.4055 35.1169C52.421 35.1464 52.4308 35.176 52.4349 35.2049C52.4923 35.1803 52.5489 35.1584 52.6037 35.1405C53.0608 34.9909 53.5276 34.8656 54.001 34.7718L53.9259 34.7666L53.8774 34.7626C53.0864 34.6934 52.3401 34.4262 52.5014 33.4725C52.5926 32.9334 53.0023 32.5719 53.4415 32.3157L53.4965 32.2842C53.5202 32.2706 53.5449 32.257 53.5685 32.2453C53.1713 32.1759 52.8831 32.0905 52.3957 32.0059C52.0795 31.9509 51.7625 31.9205 51.4464 31.9154ZM15.3098 20.1682C16.0876 21.791 16.6727 23.5165 17.1142 25.2672C17.3273 26.1126 17.5082 26.9663 17.6536 27.8269L17.7014 28.1142L17.7285 28.2702C17.8644 29.0373 18.037 29.8682 17.8374 30.6167C17.7723 30.8612 17.3791 30.958 17.2691 30.6935C16.937 29.895 16.9837 28.9772 16.8875 28.1227C16.7863 27.2261 16.6483 26.3338 16.4763 25.4488C16.1459 23.7483 15.6822 22.0875 15.1653 20.4393L15.1076 20.2562C15.0637 20.1342 15.2549 20.0537 15.3098 20.1682ZM45.2058 27.4282C44.974 27.5407 44.7422 27.6439 44.5375 27.747C44.522 27.7556 44.5056 27.7631 44.4891 27.7716C44.7209 27.731 44.9535 27.693 45.1862 27.6574C45.1838 27.5796 45.1912 27.5027 45.2058 27.4282ZM54.2757 26.6154C54.2409 26.6271 54.2101 26.6459 54.1833 26.6718L54.1703 26.6853C54.1384 26.716 54.1158 26.7523 54.1026 26.7942C54.0821 26.8346 54.0726 26.8781 54.0743 26.9246L54.086 27.0145C54.1016 27.0719 54.1297 27.1215 54.1703 27.1638L54.2366 27.2167C54.2813 27.2435 54.3291 27.2586 54.3799 27.2622L54.4019 27.263L54.4683 27.263C54.5062 27.2617 54.5418 27.252 54.5753 27.2338C54.6102 27.2221 54.6409 27.2033 54.6677 27.1774L54.6807 27.1638C54.7128 27.1331 54.7353 27.0968 54.7485 27.055C54.7661 27.0204 54.7755 26.9835 54.7768 26.9444L54.7767 26.9246L54.765 26.8346C54.7514 26.7844 54.7282 26.7401 54.6954 26.7015L54.6807 26.6853L54.6145 26.6324C54.5698 26.6057 54.522 26.5905 54.4711 26.5871L54.4491 26.5863H54.4019C54.3568 26.5845 54.3147 26.5942 54.2757 26.6154ZM52.1446 26.5009C51.9705 26.5339 51.8718 26.7518 51.9158 26.917C51.9645 27.1 52.1328 27.1813 52.3019 27.1563L52.3188 27.1534C52.5168 27.1158 52.7109 27.1303 52.8995 27.2021C53.0655 27.2654 53.2585 27.1313 53.3025 26.9658C53.3528 26.7769 53.2403 26.6131 53.0736 26.5497C52.7747 26.4356 52.454 26.4421 52.1446 26.5009ZM17.6362 14.4854C18.0325 15.0851 18.28 15.8825 18.5241 16.5679L18.5485 16.636C18.808 17.3563 19.0583 18.0823 19.2917 18.8122C19.7577 20.2692 20.3649 21.7938 20.4772 23.3329C20.4979 23.6169 20.077 23.7308 19.9549 23.479C19.6043 22.7552 19.4157 22.0008 19.2083 21.2248C19.0104 20.4848 18.8042 19.7473 18.598 19.0097C18.3918 18.2726 18.1924 17.5332 17.9893 16.7951C17.7918 16.0771 17.5169 15.2787 17.4717 14.5314C17.4658 14.4343 17.5907 14.4164 17.6362 14.4854ZM26.5812 9.65689C27.1103 10.0361 27.5436 10.5907 27.9913 11.065C28.4454 11.5463 28.8935 12.0321 29.3375 12.5235C30.0793 13.3448 30.8077 14.1796 31.56 14.9909C33.0593 16.6077 34.7553 18.0956 36.8244 18.8555C37.3251 19.0394 37.1058 19.8691 36.6039 19.6814C34.4876 18.889 32.7343 17.4239 31.1878 15.7665C30.3869 14.9081 29.6519 13.9909 28.9353 13.0573C28.6 12.6205 28.2671 12.1822 27.939 11.7398L27.7427 11.4738C27.3302 10.9116 26.8254 10.3513 26.5235 9.71661C26.5065 9.68092 26.5437 9.63008 26.5812 9.65689Z" fill="black"/>
</g>
<defs>
<clipPath id="clip0_5_34">
<rect width="67" height="62" fill="white"/>
</clipPath>
</defs>
</svg>
