<svg width="69" height="59" viewBox="0 0 69 59" fill="none" xmlns="http://www.w3.org/2000/svg">
<g clip-path="url(#clip0_5_62)">
<path fill-rule="evenodd" clip-rule="evenodd" d="M55.6668 17.5451C54.9343 17.2959 54.2283 17.0081 53.585 16.5847C51.7307 15.2676 50.5216 13.2855 49.3791 11.4076C47.7699 8.6763 46.6234 5.7659 45.8309 2.72977C45.4904 1.42533 45.3748 -0.0870933 44.6011 -1.24359C42.8472 -3.66517 37.7044 -3.35141 34.9735 -2.92634C33.1447 -2.61757 32.7667 -0.664698 32.3514 0.780359C32.0055 1.98105 31.7791 3.19533 31.5891 4.42588C31.137 4.70953 30.6266 4.9399 30.14 5.14056C24.8377 6.69203 23.9058 9.5683 21.8806 14.0113C18.46 20.469 9.17836 22.9974 7.77634 30.64C6.87302 35.6856 9.44179 40.4324 12.0902 44.6269C14.5566 49.2086 18 51.4076 23.4836 50.3251C28.627 49.2242 33.57 47.3825 38.6229 45.9593C41.0702 45.3852 43.5136 43.8917 46.088 44.4124C51.3924 45.5492 56.8425 46.0837 62.2787 45.9361C69.9112 46.2306 69.91 39.2404 69.1266 33.8271C68.5779 25.4028 64.125 19.9935 55.6668 17.5451Z" fill="white"/>
<path fill-rule="evenodd" clip-rule="evenodd" d="M56.1772 29.735C56.815 30.1375 57.3514 30.7477 57.782 31.3898C55.9843 31.2114 54.1897 31.0057 52.3991 30.7714C52.6335 30.6285 52.8701 30.4887 53.1121 30.3567C53.995 29.8819 55.1913 29.113 56.1772 29.735ZM26.3094 34.8058C25.98 34.6827 25.8525 34.2035 25.7242 33.9288C25.3216 33.0673 24.9543 32.1911 24.5721 31.3213C26.0233 30.9265 27.4345 30.4886 28.9378 30.2782C30.5542 30.0522 32.1946 29.9974 33.8259 30.0482C37.1303 30.1511 40.404 30.6664 43.6528 31.219C46.8977 31.7709 50.1425 32.3012 53.4101 32.7173C56.6115 33.125 59.8231 33.4234 63.0406 33.6853C63.6657 33.7362 64.7081 33.9508 65.2108 33.4813C65.6089 33.1095 65.6218 32.4238 65.1237 32.1216C64.8134 31.9332 64.3639 31.9304 64.0095 31.887C63.5631 31.8321 63.1149 31.7957 62.6658 31.7673C62.4829 31.7558 62.2999 31.7451 62.1169 31.7345C63.586 31.2059 65.1205 30.9177 66.7132 30.998C66.8033 31.5202 67.2091 32.0574 67.4312 32.488C67.8191 33.2398 68.1214 34.0007 68.3199 34.8181C68.7347 36.5268 68.7528 38.3002 68.6356 40.0429C68.528 41.4959 68.2967 43.1032 67.1023 44.1322C66.198 44.9114 64.9221 45.1999 63.7384 45.2906C62.3626 45.396 60.9655 45.2834 59.6013 45.1075C57.6879 44.8606 55.7655 44.5341 53.8897 44.0966C50.2565 43.2492 46.7741 41.9008 43.5613 40.0727C41.9944 39.1812 40.4994 38.1783 38.911 37.3208C37.2925 36.4468 35.5704 35.7688 33.7621 35.3478C31.7384 34.8767 29.6228 34.6757 27.5429 34.7919C27.1819 34.812 26.6605 34.9369 26.3094 34.8058ZM23.9642 33.931C24.1769 34.5895 24.3396 35.3414 24.7935 35.8947C25.2431 36.443 25.9214 36.6365 26.624 36.6853C27.4713 36.744 28.3285 36.7064 29.1775 36.7365C30.919 36.7982 32.6366 37.0681 34.3013 37.5632C35.8527 38.0247 37.2929 38.7444 38.6801 39.5429C39.963 40.2813 41.2082 41.0741 42.4914 41.8102C42.1499 41.9596 41.8122 42.1212 41.4727 42.2619C40.7606 42.557 40.0441 42.8417 39.3244 43.1193C37.9052 43.6667 36.48 44.2007 35.0402 44.6969C32.1369 45.6973 29.186 46.5714 26.1995 47.3159C24.7751 47.671 23.3305 48.0858 21.8507 48.1449C20.5385 48.1972 19.3231 47.8433 18.2648 47.0988C16.0698 45.5547 14.3235 43.3259 12.9118 41.1274C12.073 39.8213 11.3411 38.4489 10.7357 37.0299C10.4295 36.3124 10.1518 35.5838 9.90191 34.8466C9.78466 34.5005 9.67348 34.1525 9.56821 33.8028C9.5219 33.6491 9.47753 33.4949 9.43358 33.3405C11.6781 32.6869 13.9493 32.0969 16.2738 31.7694C17.5149 31.5945 18.7725 31.5059 20.0271 31.5188C20.6499 31.5252 21.2723 31.5573 21.8918 31.6186C22.2252 31.6516 22.5573 31.6941 22.888 31.7467C23.0246 31.7684 23.1651 31.8004 23.306 31.824C23.5211 32.5276 23.7381 33.2306 23.9642 33.931ZM70.3614 31.1336C70.4824 30.9001 70.5334 30.6704 70.5768 30.4162C70.6098 30.2223 70.6976 29.9494 70.6207 29.6976C70.5347 29.4156 70.3003 29.1635 70.132 28.923C69.9462 28.6572 69.7605 28.3912 69.5751 28.1251C69.2042 27.593 68.8342 27.0604 68.4647 26.5274C66.9559 24.3508 65.4574 22.168 63.9565 19.9865C62.6246 18.0506 61.3151 16.0973 59.9426 14.1874C58.769 12.5543 57.4898 10.9481 55.8834 9.67793C53.8523 8.07197 51.4338 7.31543 48.9075 6.72511C48.6316 6.45184 48.263 6.30261 47.8691 6.33288C47.3126 5.73056 46.8702 5.30984 46.6697 4.54388C46.5736 4.177 46.6038 3.14615 46.2293 2.92907C45.7845 2.67118 45.5522 3.01251 45.4296 3.39721C45.0192 4.68426 45.4902 6.41466 46.5741 7.70388C46.1175 9.20995 45.512 11.3504 44.4319 12.5569C43.2752 13.8489 41.6756 14.251 39.9498 14.2775C36.6586 14.3281 33.3708 13.1609 30.8604 11.138C30.0973 10.5232 29.3887 9.8365 28.7475 9.1062C28.2666 8.5583 27.6978 7.71274 27.3215 7.07364C27.3215 6.82458 27.0134 6.56413 30.1507 6.3629C33.288 6.16167 33.526 2.0625 33.5957 1.50462C33.6524 1.05161 33.8935 0.348444 33.559 -0.0209299C33.417 -0.177807 33.1256 -0.203081 32.9456 -0.0965111C32.6062 0.104636 32.4947 0.618975 32.388 0.968226C32.2385 1.45753 31.7499 4.49422 30.8239 4.84581C30.3904 5.01041 29.8933 5.01347 29.4347 5.04389C28.8685 5.08164 28.301 5.10925 27.7371 5.17212C27.529 5.1953 27.3021 5.25953 27.0969 5.26138C26.9634 5.26259 26.8256 5.20069 26.6966 5.15723C26.261 5.01033 25.8257 5.12052 25.377 5.17807C21.4094 5.68686 17.3241 6.8481 13.9399 8.93757C10.9571 10.7792 8.8556 13.4278 7.46894 16.5244C6.0541 19.6847 5.24314 23.1021 4.56352 26.4663C4.33585 27.5935 4.13703 28.7259 3.96622 29.8622C3.80114 30.9602 3.59465 32.0827 3.54522 33.1918C3.52565 33.6306 3.63556 34.0383 3.80469 34.4392C3.99515 34.8903 4.44534 35.0682 4.87714 35.2789C5.825 35.7415 6.82491 36.1004 7.8551 36.3545C8.48445 37.447 9.0141 38.5821 9.43974 39.7603C9.28183 40.0588 9.27854 40.5047 9.24818 40.7948C9.17285 41.5174 9.14063 42.2438 9.13388 42.9696C9.1203 44.4245 9.21199 45.8779 9.28386 47.3306C9.35674 48.8039 9.599 54.6169 9.63848 55.3267C9.66918 55.8781 9.62785 56.6495 9.93227 57.139C10.4001 57.8916 11.5547 57.8662 12.0895 57.2561C25.377 59.9818 50.3537 59.1608 60.413 57.7894C61.7219 57.611 61.3109 57.8089 61.6437 57.4934C61.8935 57.2564 62.1061 56.8506 62.1751 56.5246C62.2674 56.0893 62.1185 55.6954 61.8573 55.3431C61.5827 54.9729 61.5327 54.3732 61.4307 53.9329C61.1896 52.8921 61.0697 48.321 60.957 47.8145C60.9219 47.6566 60.8879 47.4898 60.8469 47.3228C62.6921 47.4896 64.6148 47.4896 66.3702 46.9007C67.3657 46.5668 68.294 46.0422 69.0087 45.2932C69.874 44.3863 70.3554 43.2447 70.6029 42.053C70.9224 40.5163 70.9902 38.9246 70.9274 37.3625C70.8402 35.5164 70.5193 33.6442 69.7229 31.9492C69.985 31.717 70.2046 31.4368 70.3614 31.1336Z" fill="black"/>
</g>
<defs>
<clipPath id="clip0_5_62">
<rect width="69" height="59" fill="white"/>
</clipPath>
</defs>
</svg>
