<svg width="69" height="61" viewBox="0 0 69 61" fill="none" xmlns="http://www.w3.org/2000/svg">
<g clip-path="url(#clip0_5_114)">
<path fill-rule="evenodd" clip-rule="evenodd" d="M9.94658 60.1466C12.7612 60.1552 15.4961 60.2503 18.3186 60.2596C29.7921 60.2973 41.3712 60.2424 52.8863 59.7835C56.1409 59.6538 56.9533 59.657 60.1939 59.4558C62.1072 59.449 67.8546 59.2929 67.5669 56.7218C67.4399 51.9331 66.2381 47.1647 65.8596 42.389C65.1332 33.4111 64.5145 24.1524 60.8667 15.7553C60.0224 13.7499 58.209 12.4385 56.4139 11.2593C54.6136 9.98714 54.1718 8.57469 52.5103 7.13756C52.159 6.83365 50.164 6.70998 49.0906 5.93918C47.5283 4.81727 46.7535 2.98046 46.1706 2.66777C45.7416 2.43772 45.7495 0.850444 44.8898 0.288637C43.7361 -0.465262 40.0598 -1.02583 38.7223 -1.13067C37.4386 -1.23131 35.2057 -1.01993 34.0012 -0.556159C31.9926 0.217238 31.1915 1.69253 30.3069 3.59317C18.6202 7.1566 7.93824 13.1907 4.62084 25.3619C1.76004 35.5698 1.65519 46.5134 2.76037 56.9826C2.98146 57.7482 2.82651 58.9484 3.49711 59.4558C1.16663 59.5877 9.63043 60.0618 9.94658 60.1466Z" fill="white"/>
<path fill-rule="evenodd" clip-rule="evenodd" d="M63.1021 50.0671C62.8809 49.9581 62.6504 49.8335 62.3979 49.8249C61.9641 49.81 61.9635 49.1441 62.3979 49.1591C62.7767 49.1722 63.1094 49.328 63.4427 49.4922C63.8317 49.6837 63.4895 50.2578 63.1021 50.0671ZM62.3979 31.3275C62.6938 31.3277 62.9922 31.3646 63.2195 31.5688C63.3547 31.6903 63.3439 31.9168 63.2195 32.0396C63.0863 32.1708 62.877 32.1606 62.7423 32.0396C62.7862 32.079 62.7427 32.0399 62.7267 32.0312C62.7229 32.0292 62.7208 32.0278 62.7198 32.0269C62.7165 32.026 62.7131 32.0254 62.7076 32.024C62.6723 32.0152 62.6375 32.0066 62.6018 32.0003C62.6012 32.002 62.5265 31.9954 62.5089 31.9947C62.4718 31.9934 62.4349 31.9933 62.3979 31.9933C62.2148 31.9932 62.0604 31.841 62.0604 31.6604C62.0604 31.4806 62.2155 31.3274 62.3979 31.3275ZM59.225 38.7953C59.1283 39.2135 58.4778 39.0354 58.5743 38.6183C58.7145 38.0119 58.6889 37.3905 58.5743 36.782C58.4953 36.3625 59.1457 36.1844 59.225 36.605C59.3624 37.335 59.3932 38.0676 59.225 38.7953ZM58.3727 14.8688C57.8701 14.7511 57.373 14.7371 56.859 14.7369C56.424 14.7367 56.4247 14.071 56.859 14.0712C57.4323 14.0713 57.992 14.0956 58.5521 14.2269C58.975 14.326 58.7948 14.9677 58.3727 14.8688ZM56.6887 31.085C56.3972 30.9412 56.1056 30.7974 55.8142 30.6536C55.4251 30.4618 55.7674 29.8877 56.1547 30.0787L57.0293 30.5102C57.4181 30.702 57.076 31.2761 56.6887 31.085ZM56.5673 44.1955C56.1976 44.7214 55.6777 45.0481 55.0538 45.2113C54.6329 45.3214 54.4549 44.679 54.8744 44.5693C55.3205 44.4526 55.7169 44.2402 55.9846 43.8595C56.2306 43.5094 56.8154 43.8426 56.5673 44.1955ZM54.2355 20.7555C54.1355 20.5711 53.9849 20.4932 53.798 20.489C53.3637 20.4792 53.3637 19.8135 53.798 19.8233C54.224 19.8328 54.6146 20.0438 54.8181 20.4196C55.023 20.7976 54.4402 21.1336 54.2355 20.7555ZM49.9553 25.2808C49.8344 25.4108 49.5998 25.4076 49.4782 25.2808C49.4037 25.2033 49.3411 25.1166 49.2918 25.0217C49.2731 24.9857 49.2555 24.949 49.2349 24.9139C49.2257 24.8984 49.2155 24.8829 49.205 24.8679C49.2015 24.8648 49.1941 24.8573 49.1865 24.8494C49.0569 24.7142 49.0602 24.5146 49.1865 24.3787C49.3076 24.2487 49.5422 24.2519 49.6638 24.3787C49.7382 24.4562 49.8009 24.5428 49.8501 24.6378C49.8688 24.6738 49.8864 24.7105 49.9071 24.7457C49.9163 24.7612 49.9265 24.7766 49.9369 24.7916C49.9405 24.7947 49.9477 24.8022 49.9553 24.8101C50.0851 24.9453 50.0818 25.1449 49.9553 25.2808ZM49.5955 35.1115C49.156 35.3099 48.674 35.3099 48.2346 35.1115C48.0681 35.0363 48.0286 34.7992 48.1136 34.656C48.2119 34.4901 48.4096 34.4619 48.5752 34.5366C48.7745 34.6266 49.0559 34.6265 49.255 34.5366C49.4213 34.4615 49.617 34.4882 49.7165 34.656C49.802 34.8002 49.7612 35.0367 49.5955 35.1115ZM48.3968 42.0699C48.3213 42.2462 48.1582 42.3399 47.9676 42.3471C47.7787 42.3542 47.6381 42.1889 47.6302 42.0142C47.6251 41.9014 47.6869 41.8049 47.7758 41.7452C47.7758 41.739 47.776 41.7329 47.776 41.7266C47.7761 41.54 47.9305 41.4018 48.1134 41.3937C48.2955 41.3857 48.4509 41.5525 48.4508 41.7266C48.4507 41.8441 48.4434 41.9607 48.3968 42.0699ZM46.6557 53.1324C46.1172 53.1409 45.591 53.2675 45.0525 53.2762C44.6173 53.2831 44.6186 52.6173 45.0525 52.6104C45.591 52.6018 46.1171 52.4752 46.6557 52.4666C47.0909 52.4596 47.0896 53.1254 46.6557 53.1324ZM44.4164 10.4691C44.1011 10.7653 43.7118 10.9113 43.3278 11.0964C42.9388 11.2839 42.5971 10.7096 42.9872 10.5215C43.3124 10.3647 43.6725 10.2489 43.9393 9.99838C44.2539 9.7027 44.7316 10.173 44.4164 10.4691ZM43.5702 18.1428C43.3491 18.0338 43.1185 17.9092 42.8661 17.9006C42.4322 17.8856 42.4316 17.2198 42.8661 17.2348C43.2448 17.2478 43.5775 17.4037 43.9108 17.5679C44.2999 17.7594 43.9577 18.3335 43.5702 18.1428ZM39.5136 48.941C39.4138 48.7565 39.2632 48.6786 39.0763 48.6745C38.642 48.6647 38.6418 47.999 39.0763 48.0087C39.5023 48.0183 39.8929 48.2293 40.0964 48.605C40.3012 48.9831 39.7185 49.319 39.5136 48.941ZM38.1088 34.4842C37.9746 34.3626 37.9839 34.1367 38.1088 34.0135C38.2546 33.8697 38.4004 33.7259 38.5462 33.5821C38.6795 33.4505 38.8886 33.4601 39.0233 33.5821C39.1576 33.7037 39.1482 33.9295 39.0233 34.0529C38.8775 34.1967 38.7318 34.3404 38.586 34.4842C38.4526 34.6158 38.2436 34.6062 38.1088 34.4842ZM36.4525 57.0151C35.9657 57.0038 35.5094 56.866 35.051 56.7156C34.6403 56.5807 34.8174 55.938 35.2304 56.0736C35.6288 56.2043 36.029 56.3396 36.4525 56.3493C36.8868 56.3592 36.887 57.025 36.4525 57.0151ZM34.2661 42.7785C33.8263 42.7664 33.4615 42.5455 33.153 42.2496C32.841 41.9503 33.3187 41.48 33.6302 41.7789C33.8067 41.9481 34.0104 42.1058 34.2661 42.1128C34.7003 42.1247 34.7006 42.7904 34.2661 42.7785ZM35.6238 24.4702C35.6291 24.6475 35.7051 24.8374 35.8166 24.9539C36.1148 25.2654 35.6382 25.7368 35.3394 25.4246C35.0929 25.1672 34.9594 24.8225 34.949 24.4702C34.9365 24.0409 35.6114 24.0428 35.6238 24.4702ZM30.4766 9.97034C30.3354 9.69754 30.1503 9.37765 29.8688 9.22694C29.4865 9.0223 29.8276 8.44767 30.2094 8.65205C30.5921 8.85694 30.8659 9.26072 31.0593 9.6343C31.2567 10.0155 30.6741 10.352 30.4766 9.97034ZM29.6019 16.894C29.4453 16.8895 29.2899 16.8631 29.1389 16.8227C29.0744 16.8054 29.0106 16.7855 28.946 16.7682C28.9184 16.7608 28.8008 16.7463 28.8731 16.7502C28.6903 16.7405 28.5356 16.6055 28.5356 16.4173C28.5356 16.2443 28.6909 16.0747 28.8731 16.0844C29.1235 16.0976 29.3512 16.2212 29.6019 16.2282C30.0358 16.2403 30.0362 16.906 29.6019 16.894ZM27.4155 27.5353H26.6866C26.2517 27.5353 26.2525 26.8696 26.6866 26.8696H27.4155C27.8504 26.8696 27.8496 27.5353 27.4155 27.5353ZM26.5654 56.9695C26.3443 57.0786 26.0839 57.182 25.9049 57.3489C25.5892 57.6434 25.1115 57.1732 25.4277 56.8782C25.6557 56.6655 25.9472 56.5317 26.2248 56.3947C26.3884 56.314 26.5895 56.3505 26.6865 56.5142C26.7741 56.6621 26.7283 56.8892 26.5654 56.9695ZM24.9369 48.5577C24.9087 48.55 24.8788 48.5446 24.8502 48.5407C24.7355 48.5254 24.6155 48.5307 24.5002 48.5307C24.0653 48.5304 24.066 47.8646 24.5002 47.8649C24.8425 47.8651 25.1986 47.8698 25.4677 48.1062C25.6042 48.2262 25.591 48.4553 25.4677 48.5769C25.3336 48.7092 25.1265 48.6965 24.9905 48.5769C25.0048 48.5897 24.9557 48.5629 24.9369 48.5577ZM24.5004 37.2445C24.5984 37.0451 24.5999 36.9151 24.6001 36.6935C24.6005 36.2644 25.2753 36.2651 25.2749 36.6935C25.2748 37.0152 25.2263 37.2892 25.0831 37.5805C25.0032 37.743 24.7694 37.7853 24.6215 37.7C24.4557 37.6043 24.421 37.4062 24.5004 37.2445ZM22.5493 21.6276C22.1579 21.7589 21.8085 21.9448 21.4638 22.1693C21.1 22.4061 20.7624 21.8293 21.1232 21.5944C21.5165 21.3383 21.9234 21.1354 22.3698 20.9855C22.7827 20.8471 22.9582 21.4903 22.5493 21.6276ZM20.2732 10.4228C19.9824 10.4308 19.6823 10.5408 19.4232 10.665C19.0337 10.8516 18.692 10.2773 19.0826 10.0901C19.4528 9.91267 19.8578 9.76853 20.2732 9.75705C20.7084 9.74498 20.7065 10.4108 20.2732 10.4228ZM19.2529 40.3339C19.1385 40.3389 19.0407 40.2779 18.9802 40.1902C18.9738 40.1902 18.9676 40.1901 18.9614 40.1901C18.7722 40.19 18.6322 40.0376 18.6239 39.8572C18.6158 39.6775 18.7849 39.5242 18.9614 39.5243C19.0805 39.5244 19.1986 39.5315 19.3093 39.5776C19.488 39.652 19.583 39.8129 19.5903 40.001C19.5974 40.1874 19.4299 40.326 19.2529 40.3339ZM17.5934 17.3135C17.179 17.447 17.003 16.804 17.414 16.6715C17.8964 16.516 18.3894 16.3956 18.8717 16.24C19.2861 16.1065 19.4621 16.7496 19.051 16.8821C18.5688 17.0375 18.0757 17.1579 17.5934 17.3135ZM16.0801 29.8795C15.9515 30.2881 15.3004 30.1127 15.4293 29.7025C15.5538 29.3065 15.5627 28.908 15.563 28.4967C15.5632 28.0676 16.238 28.0684 16.2378 28.4967C16.2375 28.9649 16.2216 29.4288 16.0801 29.8795ZM11.5683 44.9302C11.5438 45.096 11.4105 45.2154 11.2361 45.2232C11.0585 45.231 10.8922 45.0645 10.8986 44.8903C10.911 44.5552 11.188 44.282 11.5276 44.2698C11.7165 44.263 11.857 44.4278 11.865 44.6027C11.8727 44.7727 11.7288 44.9054 11.5683 44.9302ZM9.28507 25.7979C8.92851 25.9153 8.5475 26.0271 8.26795 26.2875C7.95206 26.5816 7.47429 26.1115 7.79077 25.8167C8.15939 25.4734 8.63354 25.3114 9.10574 25.1558C9.51923 25.0197 9.69494 25.6629 9.28507 25.7979ZM7.73763 38.731C7.63961 38.8962 7.44113 38.9261 7.27606 38.8504C7.05472 38.7489 6.81035 38.7523 6.57172 38.752C6.13688 38.7517 6.13756 38.0859 6.57172 38.0863C6.93983 38.0866 7.27943 38.1208 7.61667 38.2755C7.78259 38.3517 7.823 38.587 7.73763 38.731ZM6.86324 54.4266C6.67429 54.4334 6.53376 54.2686 6.52583 54.0937C6.51807 53.9237 6.66189 53.791 6.82258 53.7662C6.84704 53.6004 6.9804 53.4809 7.15476 53.4732C7.3324 53.4653 7.49866 53.6319 7.49217 53.8061C7.47977 54.1412 7.20301 54.4143 6.86324 54.4266ZM68.3412 56.9438C68.2266 56.5369 67.9642 56.2082 67.766 55.842C67.6996 55.7186 67.6764 55.6419 67.6404 55.5515C67.5915 55.6481 67.4965 55.7207 67.3537 55.7208C67.0797 55.7209 66.7593 55.7035 66.5036 55.8192C66.3374 55.8943 66.1415 55.8676 66.042 55.6998C65.9566 55.5556 65.9974 55.3192 66.1631 55.2443C66.5399 55.074 66.9449 55.0552 67.3537 55.055C67.4547 55.055 67.5311 55.0917 67.5851 55.1468C67.7413 53.0363 67.7374 50.9244 67.5896 48.8124C67.432 46.5555 67.0692 44.3435 66.6896 42.1158C66.5058 41.0356 66.2671 39.9446 66.3135 38.8444C66.3599 37.7517 66.8348 36.7331 66.4982 35.6371C66.3632 35.1977 66.1321 34.7949 65.982 34.3605C65.8209 33.8928 65.8352 33.431 65.9086 32.9466C66.0596 31.9605 66.31 30.986 65.9093 30.0231C65.7323 29.5962 65.4454 29.215 65.3072 28.774C65.1351 28.2256 65.1587 27.6189 65.13 27.0505C65.0718 25.9037 65.0566 24.7495 64.9604 23.6052C64.9174 23.0926 64.8238 22.6066 64.6104 22.1364C64.4053 21.6837 64.1009 21.2717 63.9651 20.7916C63.8302 20.3189 63.8183 19.8204 63.7458 19.3369C63.6699 18.8259 63.5509 18.3224 63.3907 17.8314C62.7715 15.9307 61.637 14.223 60.2966 12.7425C58.8719 11.1689 57.1689 9.98382 55.3612 8.87949C54.4106 8.29879 53.4602 7.71808 52.5103 7.13737C52.49 7.24631 52.4196 7.34642 52.2844 7.39103C51.9277 7.50853 51.5468 7.62021 51.2672 7.88061C50.9514 8.17471 50.4735 7.7046 50.79 7.40992C51.1202 7.10234 51.5351 6.94048 51.9573 6.79825C51.5245 6.52912 51.0871 6.25042 50.5987 6.09496C50.1709 5.95848 49.5401 6.07749 49.1933 5.76791C48.9209 5.52408 48.8348 5.0722 48.7303 4.74098C48.5995 4.32988 48.4865 3.8963 48.3203 3.49685C48.2073 3.22389 48.0428 2.96175 47.8353 2.75037C47.7442 2.40417 47.5771 2.08794 47.2819 1.8957C46.5093 1.39139 45.5603 1.89237 45.2204 2.61139C44.9395 2.61056 44.6434 2.67131 44.3701 2.68795C43.8083 2.7229 43.2457 2.73872 42.6831 2.73705C41.5823 2.73372 40.4807 2.66299 39.3891 2.51902C37.4372 2.26104 35.5435 1.74091 33.6245 1.33563C33.6136 1.31067 33.6009 1.2857 33.5857 1.26074C33.1724 0.57667 32.1425 0.692346 31.4937 0.951159C31.2154 1.06184 30.932 1.20165 30.7726 1.4613C30.6039 1.57364 30.4579 1.71012 30.3609 1.85409C30.1602 2.15119 30.005 2.75037 29.5976 2.8003C29.3293 2.83275 29.0569 2.78199 28.7844 2.82027C28.4436 2.86687 28.1383 2.98505 27.8236 3.11986C25.428 4.14596 22.9515 5.2869 20.3516 5.68469C19.7419 5.7779 19.121 5.87443 18.5913 6.21147C18.1611 6.48526 17.8287 6.86142 17.4736 7.21843C17.1278 7.56629 16.8427 7.72024 16.3492 7.78266C15.7503 7.85839 15.2316 8.0215 14.7938 8.45091C14.4302 8.80793 14.1932 9.26397 13.9081 9.6784C13.6178 10.1012 13.1919 10.3392 12.7499 10.5847C11.7048 11.1655 10.7314 11.8671 9.88363 12.7084C8.0979 14.4827 7.01651 16.7629 5.92668 18.9849C4.74828 21.3882 3.64664 23.8207 2.88241 26.3872C2.13336 28.9071 1.68799 31.4994 1.48217 34.1158C1.26538 36.8613 1.23502 39.6175 1.0545 42.3646C0.964245 43.7369 0.89592 45.1108 0.826751 46.4839C0.75927 47.8404 0.660578 49.1994 0.67652 50.5576C0.706971 53.1831 1.23915 55.817 2.16964 58.2753C2.4016 58.887 2.65879 59.4903 2.93294 60.0845C3.17343 60.6063 3.99586 60.5481 4.25398 60.0845C4.31302 59.978 4.35942 59.8682 4.39822 59.7566C5.07303 59.7625 5.7546 59.7109 6.4252 59.7725C7.6095 59.8815 8.79625 59.9422 9.98393 60.0146C12.3341 60.1586 14.6883 60.2543 17.0392 60.3866C17.2673 60.3994 17.4954 60.4123 17.7234 60.4257C16.0481 55.31 16.2654 49.7793 16.0003 44.4589C15.9789 44.03 16.6539 44.0325 16.6751 44.4589C16.9413 49.8021 16.7146 55.3469 18.4492 60.471C19.1221 60.5159 19.7942 60.5709 20.4639 60.6513C21.0054 60.7153 21.5495 60.7911 22.0961 60.7644C22.7161 60.7353 23.3218 60.5955 23.9266 60.474C25.0257 60.2535 26.0843 60.3533 27.1876 60.489C28.3677 60.6346 29.552 60.7153 30.7397 60.7661C35.4955 60.9717 40.2833 61.1589 45.0374 60.8452C46.1879 60.7694 47.3359 60.6629 48.4789 60.5181C49.6565 60.3691 50.8214 60.1187 51.998 59.9764C53.1578 59.8365 54.2241 60.2202 55.3705 60.2909C56.5395 60.3633 57.7399 60.1228 58.8981 59.9847C59.2759 59.9395 59.6541 59.8955 60.0325 59.8519C59.5454 56.5585 59.2685 53.2403 58.9995 49.9234C58.9648 49.4956 59.6399 49.4992 59.6743 49.9234C59.9411 53.2144 60.2119 56.5079 60.6982 59.7754C62.7036 59.5452 64.711 59.3123 66.6956 58.9536C67.2608 58.8521 67.8225 58.6864 68.1608 58.1888C68.4112 57.8201 68.4619 57.3682 68.3412 56.9438Z" fill="black"/>
</g>
<defs>
<clipPath id="clip0_5_114">
<rect width="69" height="61" fill="white"/>
</clipPath>
</defs>
</svg>
