<svg width="68" height="61" viewBox="0 0 68 61" fill="none" xmlns="http://www.w3.org/2000/svg">
<g clip-path="url(#clip0_5_94)">
<path fill-rule="evenodd" clip-rule="evenodd" d="M27.9162 60.9262C22.9131 60.8184 18.3587 61.121 13.5409 60.1428L13.5347 59.9803C12.5014 59.9505 12.8434 58.9838 13.0512 58.3076C-6.39234 57.4416 6.28983 9.99893 19.7639 6.80903C20.4239 6.69636 21.141 6.63685 21.8681 6.6297C22.8061 6.34292 23.7305 6.29207 24.7111 6.03052C24.8052 5.68682 24.8206 5.48809 25.2366 5.58987C26.7296 4.16248 29.4162 2.8477 30.3228 5.63306C31.5157 3.97308 32.1999 2.03223 32.6984 0.0666623L32.779 0.0798941C32.9908 -0.442725 33.3376 -1.10399 33.7595 -1.21309C34.4171 -1.43104 35.657 -1.38078 36.3719 -1.46924C37.922 -1.57684 39.7225 -1.84057 41.2082 -1.48464C44.9211 -0.574712 43.312 3.81296 46.3223 6.66939C47.7037 6.09692 49.869 6.25388 51.1925 6.93553C52.0448 7.61885 51.6175 8.38921 51.468 9.11156C60.9745 8.25373 63.5038 19.2917 65.4656 26.5681C66.2527 28.9888 67.0339 30.6299 68.3744 32.4989C70.1158 34.6836 71.0937 37.5447 69.3095 39.8496C71.8566 44.9375 69.0915 49.7197 66.1658 53.5606C65.5929 54.1757 64.6636 55.8871 63.8239 56.0041C63.596 56.2125 63.2321 56.4691 62.9753 56.6554L63.285 57.0619C63.322 57.4372 63.3244 57.8406 63.5807 58.1753C63.8274 58.4159 64.0911 58.6625 64.0984 59.0217C63.7053 59.4783 63.1978 58.9683 62.8248 58.7415C62.6818 59.0228 62.7023 59.691 62.2442 59.665C50.8844 60.4449 39.2503 60.9562 27.9162 60.9262Z" fill="white"/>
<path fill-rule="evenodd" clip-rule="evenodd" d="M32.4766 0.0830078C33.3799 1.2604 31.9081 4.86056 31.2308 6.10936C35.8617 8.04505 41.0297 8.88898 45.9764 7.78973C44.6916 6.55941 43.272 2.62786 44.3297 1.24592L44.3781 1.4947C44.7367 3.32257 45.1753 5.2188 46.4924 6.61692C48.3573 6.12143 52.8913 6.16586 52.1488 9.11043C63.6613 9.13747 63.7569 23.0829 67.5952 30.864C69.4368 33.8359 72.2882 36.8845 69.9007 40.4554C70.3699 41.5817 70.6969 42.7759 70.8185 43.9889C71.1935 47.9468 68.7742 51.3345 66.5929 54.406C65.8245 55.2498 65.1816 56.6644 64.0646 57.0253C63.9499 57.124 63.8304 57.2176 63.708 57.3065C63.9298 57.6299 63.7499 58.1442 64.0097 58.4276L64.1111 58.5259C64.2815 58.6933 64.5156 58.9414 64.5623 59.1634L64.5844 59.3553C64.5939 59.4305 64.5959 59.4264 64.5905 59.343L64.5874 59.3166C64.5838 59.2805 64.589 59.2833 64.6029 59.3253L64.6089 59.3441C64.7258 59.6798 64.4793 60.0642 64.1426 60.1534C63.1404 60.6911 62.0749 59.1175 62.4103 58.0645C56.853 60.4641 45.3098 56.1244 39.7256 53.9731C38.6585 53.5441 37.647 52.9872 36.5678 52.5933L36.4874 52.5541C35.2419 51.9402 34.0002 51.0498 32.5395 51.406C26.3938 54.0408 20.679 58.4277 13.8662 59.2929C14.932 61.3304 11.7956 61.6034 12.4239 59.3274C-6.11578 56.9196 5.43707 17.0312 15.2855 9.3263C18.4208 6.33688 20.5302 7.02228 24.3397 6.15929C24.4272 5.83806 24.7484 5.56868 25.0885 5.61437C26.4423 4.32546 29.2459 3.06976 30.4027 5.16332C31.1102 4.05658 31.6022 2.82701 31.9462 1.56232C32.0833 1.06009 32.132 0.48629 32.4766 0.0830078ZM25.2189 59.8588C24.2304 59.0749 25.7323 57.839 26.588 58.3373C26.8523 58.661 25.939 58.338 26.0532 59.0552C26.2197 59.5317 25.7229 60.166 25.2189 59.8588ZM45.3948 58.8857C44.6914 57.5603 45.3089 56.9697 46.3654 58.0017C47.3299 58.7302 46.036 59.9137 45.3948 58.8857ZM35.5982 58.7619C34.6063 58.2284 34.3596 55.7948 35.9696 56.9647C37.4021 57.4746 37.0086 59.2988 35.5982 58.7619ZM24.475 6.86283C22.4918 7.41166 20.2791 7.17515 18.4601 8.31193C14.0104 11.1159 11.4515 15.9496 9.52649 20.6966L9.46835 20.8404C5.56226 30.4677 2.43592 41.6603 5.72278 51.8898C7.38288 56.5435 11.4693 58.539 16.1204 56.9224C27.7934 53.1371 37.5482 44.0372 49.9619 42.4872C50.1369 41.0485 49.7397 39.6306 49.2327 38.2857C41.6171 38.6032 34.3159 41.0714 27.0181 43.0582C26.5931 44.9218 24.4696 47.0924 23.1973 48.5382C22.0479 50.0785 19.2046 50.5422 18.8548 48.1741L18.7989 48.2376C17.8611 49.2904 15.8037 51.1148 15.1721 48.8423C15.0299 47.6504 15.7929 46.6194 16.1681 45.5352L16.1284 45.5645C15.4349 46.0834 12.5651 48.5321 12.3654 46.9015C12.3782 45.365 12.8641 43.8529 13.7455 42.5944C14.6311 41.4322 15.7192 40.3383 16.9044 39.4792C16.9669 39.1147 17.0806 38.7623 17.1658 38.4018C17.0357 37.0463 17.5697 35.7738 17.7097 34.4465C18.0325 33.2012 18.1029 30.8696 19.0036 29.9936C19.695 30.7308 19.01 33.5423 18.9746 34.6178C18.7277 35.9251 18.8346 37.2611 18.3613 38.5323C19.6962 37.8016 21.1428 37.4307 22.5963 37.3682C22.7444 34.5139 26.7808 35.5107 28.6503 35.7321C31.5039 34.7164 43.4849 35.0722 45.4657 37.2075C46.4545 37.0925 47.4 37.0021 48.4037 36.9331C49.5711 36.1898 52.7914 36.494 53.2879 37.9558C54.5859 38.3405 55.7137 38.9966 56.8521 39.7461C57.2044 33.9299 55.6631 28.2007 56.0384 22.3759C56.0722 22.0374 56.2286 21.744 56.2221 21.3999C56.2213 21.359 56.2808 21.3606 56.2844 21.3999C56.8452 23.1005 56.9518 24.9158 57.267 26.6793C57.6821 29.7552 58.4115 32.7956 58.6534 35.8909C58.7587 38.4921 58.3366 41.2742 59.373 43.7402C59.5207 44.0912 59.2771 44.6629 58.937 44.8131C56.0967 46.0073 52.7923 45.1489 50.1984 43.6931C44.6717 45.4643 39.2649 47.5681 34.1734 50.3767C35.1532 50.6349 36.0345 51.2092 36.9216 51.6861C38.1844 52.1237 39.4386 52.5856 40.7001 53.027C46.9436 54.9167 53.4775 57.4536 60.0739 57.0688C62.1019 56.7223 63.0139 55.8526 64.2178 54.2989L64.4164 54.041C66.5673 51.2558 69.0256 48.3066 69.386 44.6937C69.4681 43.521 69.3569 42.3544 69.2891 41.1861C68.9993 41.483 68.6883 41.7603 68.3874 42.0474C67.9697 42.4458 67.4359 41.9435 67.6408 41.4708C68.0839 40.1276 68.8649 38.8603 68.9999 37.4386C69.0227 36.1015 68.1472 34.9119 67.3737 33.8955C61.3548 26.48 63.9802 10.9092 52.059 9.39737C46.9722 20.1059 29.6271 15.6543 24.6249 7.12632L24.475 6.86283ZM11.115 52.0001C11.1653 50.5404 13.4861 52.4409 13.2718 53.2376C13.1417 54.3386 11.8079 53.8243 11.5059 53.0809C11.3185 52.7408 11.1606 52.3875 11.115 52.0001ZM57.0687 50.4981C57.4033 49.8872 59.3961 51.6439 58.3632 52.2209C57.6637 52.5902 57.396 51.7251 57.2441 51.2059C57.1612 50.9886 57.0041 50.7379 57.0687 50.4981ZM22.9839 51.2995C21.7287 50.554 24.4763 49.55 24.5795 50.766C24.6198 51.5913 23.5068 51.5474 22.9839 51.2995ZM46.3106 48.0881C46.9411 47.2465 46.9561 50.2274 46.5822 50.4298C46.4097 50.7025 46.0229 50.6381 45.9199 50.3431C45.6549 49.5834 46.0538 48.8023 46.3106 48.0881ZM16.4807 48.6127L16.4671 48.6633C16.3971 48.9368 16.5617 48.576 16.4983 48.6292C16.4926 48.6232 16.4867 48.618 16.4807 48.6127ZM30.1088 41.4837C27.237 38.2099 22.0567 37.3975 18.1855 39.3397C17.6152 39.507 17.1149 39.9756 16.6015 40.282C16.7304 40.2353 16.861 40.1959 16.9928 40.1623C15.2923 41.6113 13.8448 43.5957 13.5834 45.8553C15.1337 44.8954 16.4956 43.6926 17.5699 42.1897C17.9231 41.5727 18.9376 41.9965 18.7217 42.6756C18.0246 44.5936 16.9581 46.4448 16.5115 48.4269C18.1822 47.2161 19.4152 45.4344 20.1084 43.4995C20.3999 42.6697 21.6972 43.0073 21.4385 43.8665C21.0962 45.0039 20.7309 46.1374 20.4061 47.2803L20.3186 47.5922C20.2097 47.9856 20.1458 48.3457 20.6125 48.4538C22.1168 48.5509 24.1332 45.2233 25.0296 44.0897C25.4695 43.5535 25.8584 42.3899 26.6889 42.5594C27.7227 41.8828 28.9693 41.8035 30.1088 41.4837ZM63.2217 46.7192C63.3933 46.57 63.6037 46.4669 63.8315 46.5429L63.8536 46.5508C64.5421 46.7919 64.0084 47.735 63.418 47.4033C63.2174 47.2527 62.9995 47.1261 62.7603 47.0437C62.6169 46.8959 63.1361 46.829 63.2217 46.7192ZM31.1798 43.9661C31.3824 43.0151 33.2592 44.3082 32.5913 44.978C31.9574 45.4633 31.2339 44.5744 31.1798 43.9661ZM8.57035 44.0987C10.3323 42.9505 10.5446 45.7311 7.93932 44.9188C7.72501 44.5942 8.35496 44.2761 8.57035 44.0987ZM53.6705 38.3758C54.6333 39.529 55.0134 41.0361 55.184 42.4996C55.2228 42.7873 55.291 43.1052 55.2769 43.4022C55.9342 43.4988 56.6111 43.5239 57.2543 43.3945C57.0956 42.8229 56.9974 42.2342 56.9378 41.6406C56.0694 40.3443 55.0711 39.1272 53.6705 38.3758ZM51.1019 42.0439C51.1048 42.2026 51.0996 42.3619 51.0868 42.522C51.9382 42.6221 52.7769 42.836 53.6102 43.0441L53.6048 42.7908C53.6029 42.7057 53.6008 42.6204 53.598 42.5364C52.7744 42.7587 51.7624 42.5285 51.1019 42.0439ZM53.3137 40.0874C52.3626 39.702 51.4909 39.461 50.4681 39.5253C50.7706 40.1764 50.9892 40.8586 51.0691 41.5594C51.4855 41.6776 51.9575 41.711 52.3596 41.6902C52.7676 41.6692 53.1442 41.4729 53.5324 41.4641C53.4882 41.002 53.4227 40.5392 53.3137 40.0874ZM44.2666 40.4126C44.8683 40.1717 45.7543 40.8356 45.0943 41.3558C44.6139 41.6825 43.9565 41.2444 43.5665 40.9458C43.3515 40.6987 44.0787 40.4574 44.2666 40.4126ZM32.3405 38.1991C32.0799 39.0015 30.3651 38.6492 29.5794 39.0813L29.6489 39.1214C30.4038 39.5618 31.2234 40.1874 31.3639 40.9827C32.3633 40.5921 33.3709 40.2224 34.3842 39.8728C33.7838 39.2012 33.0938 38.6482 32.3405 38.1991ZM43.9881 37.4124C39.4771 35.7933 34.5607 35.8407 29.8286 35.9915L29.9531 36.029C31.9931 36.6487 34.3818 37.6113 35.4451 39.5162C38.2325 38.6061 41.0847 37.8526 43.9881 37.4124ZM52.7705 38.6908C52.0764 37.4604 50.7252 36.9102 49.4031 37.0027L49.1947 37.0368C49.3386 37.0873 49.474 37.1587 49.5956 37.2601C49.8127 37.4412 49.8091 37.8393 49.6171 38.0382C49.8606 38.3995 50.0892 38.7762 50.2911 39.1654C51.02 38.6563 51.8941 38.5829 52.7705 38.6908ZM64.9574 38.7178C63.3783 39.6455 62.2354 35.3016 64.2255 36.2347L64.3674 36.3869C64.9439 37.0098 65.8352 38.0628 64.9574 38.7178ZM27.9301 36.6838C27.4258 37.0935 26.8385 37.3907 26.3278 37.7962C27.1675 38.0091 27.9928 38.2916 28.7737 38.6633C29.41 38.1171 30.1752 37.7694 30.9854 37.5243C30.0137 37.1214 28.9721 36.8525 27.9301 36.6838ZM7.25266 36.7753L7.26008 36.7556C7.50457 36.0683 8.98003 35.0489 9.71299 35.3158C9.74724 35.3142 9.78115 35.3477 9.77916 35.3822L9.79112 35.4673C9.83239 35.7695 9.85367 36.0653 9.65446 36.3348C9.29775 36.9103 8.95717 37.6274 8.2711 37.8518C7.59502 38.0664 7.0159 37.4245 7.25266 36.7753ZM26.2486 36.4887L26.0232 36.4768C24.9882 36.419 23.498 36.3247 22.9925 37.3582C23.8654 37.3522 24.7532 37.448 25.6337 37.6355C25.7655 37.2382 25.9817 36.839 26.2486 36.4887ZM31.9017 32.0982C31.7441 31.7972 32.3284 32.1271 32.4641 32.0809C32.7162 32.0963 32.9439 32.1482 33.0866 32.3752C33.3151 32.7393 32.8711 33.1296 32.5214 32.941C32.1839 32.7544 32.265 32.2674 31.9017 32.0982ZM51.7303 30.4141L51.7519 30.412C52.1007 30.3731 53.5952 30.0325 53.5913 30.4025L53.5627 30.4428C53.0927 31.1133 52.4799 32.4331 51.5237 31.9626C50.9094 31.6123 51.0326 30.5657 51.7303 30.4141ZM41.3214 30.3595C41.5973 29.8504 42.1885 31.0324 42.3643 31.2427C42.6145 31.8036 41.8926 32.241 41.5366 31.727C41.3155 31.3261 41.2172 30.8095 41.3214 30.3595ZM15.4342 29.1915C15.8306 28.9905 16.833 28.9724 16.5586 29.6507C16.0239 30.3605 15.0431 30.017 14.4442 29.5624C14.1379 29.2096 15.2439 29.3531 15.4342 29.1915ZM25.0699 26.5581C25.034 26.0498 25.6004 25.8681 25.9822 26.0341C26.6635 26.3305 27.1915 27.4205 26.9759 28.1256C26.8023 28.825 25.7449 28.9797 25.4089 28.3306C25.2157 27.7313 25.1897 27.1591 25.0699 26.5581ZM60.1649 27.507C60.9475 27.3411 61.7681 26.8161 62.5718 26.964C62.8224 27.0583 62.9134 27.3436 62.7265 27.5507C62.6208 28.0284 59.7246 27.9221 60.1649 27.507ZM37.5397 25.6834C37.8727 25.0785 38.6381 24.4367 39.3725 24.4892C39.823 24.4742 39.999 25.1227 39.6021 25.338L39.589 25.3436C39.3398 25.4431 37.4502 25.9285 37.5397 25.6834ZM47.9404 24.7083C46.8133 24.5465 46.82 21.8328 47.4911 22.3628C47.7199 23.0283 48.3008 23.4248 48.633 24.0149C48.8009 24.4196 48.3159 24.8228 47.9404 24.7083ZM13.7208 24.1077C14.1997 24.1811 16.6866 22.667 16.2309 23.8788C15.9344 24.2186 15.559 24.2267 15.1382 24.2581L15.1267 24.257C14.9109 24.243 13.3422 24.4294 13.7208 24.1077ZM30.921 21.6432C30.4234 21.5855 28.6134 17.7998 29.4986 18.0382L29.6337 18.1268C30.6146 18.7751 31.6961 19.6036 32.1338 20.7099C32.3062 21.3694 31.5367 22.0654 30.921 21.6432ZM42.0542 20.0859C42.1258 20.0534 42.1891 20.1554 42.1171 20.1938C41.8097 20.3571 41.4758 20.703 41.2826 20.9948C40.6211 21.8231 39.8385 20.3595 40.8553 20.2494C41.2262 20.2762 41.7138 20.2403 42.0542 20.0859ZM20.9428 15.5034C21.8608 15.2667 22.3046 16.4784 21.5644 16.9794C21.1942 17.2971 17.7165 18.2918 17.5083 17.8926C17.9445 17.1824 20.1244 15.7526 20.9428 15.5034ZM55.4227 15.6731C57.9639 15.4649 58.0321 14.9993 56.2373 17.0738C55.1776 18.0049 54.1039 16.0975 55.4227 15.6731ZM43.5285 9.47226C42.6471 9.54716 41.7621 9.56963 40.8785 9.541C41.0147 9.83285 40.8967 10.2575 40.5099 10.1986C40.328 11.3801 40.2453 12.5805 40.0157 13.754C39.9555 14.0284 39.8701 14.2948 39.7885 14.5625C41.471 14.6868 43.1786 14.6171 44.8185 14.2003C44.2094 12.6724 43.945 11.0554 43.5285 9.47226ZM36.4202 8.96845C36.4122 9.09195 36.3772 9.21412 36.3195 9.31731C35.5583 10.6373 34.8901 12.0145 34.0856 13.3065C35.8218 13.9504 37.6464 14.3702 39.4873 14.5362C39.2091 12.8553 39.4559 11.1411 39.3983 9.44605C38.397 9.34985 37.4018 9.18973 36.4202 8.96845ZM47.5696 8.77364C46.6888 9.01089 45.7927 9.1889 44.8897 9.31623C44.8933 9.45837 44.8116 9.59102 44.6853 9.64403C44.8831 11.1196 45.273 12.5714 45.2787 14.0755C47.1607 13.6139 48.6486 12.3317 49.883 10.8857L49.6024 10.681C48.8522 10.1312 48.0952 9.54458 47.5696 8.77364ZM30.2218 5.43819C29.1301 4.76752 27.6187 5.05322 26.7345 5.92661C26.3427 6.27638 26.0027 6.74923 25.5565 7.02403C25.5009 7.05823 25.4439 7.08153 25.3866 7.09618C25.6939 7.67788 26.1636 8.23554 26.5606 8.7153C28.6896 10.5763 31.0862 12.1391 33.7202 13.1674C33.8281 11.5854 34.3749 10.049 34.9999 8.59546C34.4173 8.4197 33.8429 8.2174 33.2789 7.98846C33.2071 8.36885 32.8509 8.66262 32.6256 8.95788C32.1144 9.55715 31.7738 10.2899 31.287 10.8996C30.7449 11.4684 29.8237 10.7429 30.2133 10.0703C30.8412 9.15253 31.6526 8.32175 32.5953 7.69686C31.9739 7.41774 31.3814 7.08927 30.8083 6.72177C30.784 6.74707 30.759 6.7712 30.7336 6.79451C30.6953 6.55766 30.3697 6.61999 30.1965 6.65877C30.0732 6.55417 29.9058 6.6859 29.7683 6.72019C29.7482 6.68357 29.7314 6.64488 29.7194 6.60427C29.0137 7.30206 28.4829 8.40714 27.5724 8.82382C27.1973 8.92743 26.7624 8.5546 26.9054 8.15615C27.1462 7.54431 29.1001 6.24584 29.7455 5.90272C29.6042 5.69701 29.7172 5.59539 29.9462 5.62594C29.9855 5.57667 30.0458 5.56144 30.1085 5.60322C30.1483 5.54962 30.1857 5.4942 30.2218 5.43819ZM16.0677 11.5846C16.5102 11.5868 17.0327 11.4021 17.43 11.6579C18.0142 12.3273 16.5663 12.5574 15.9989 11.7511C15.9437 11.69 15.9799 11.5842 16.0677 11.5846ZM48.715 7.4606C48.8414 7.60981 48.8843 7.82751 48.8382 8.02308C49.3918 8.86934 49.696 9.82736 49.9742 10.7791L50.0521 10.6823C51.3135 9.10417 52.0288 7.67329 49.2566 7.51743C49.0764 7.49189 48.8956 7.47291 48.715 7.4606ZM22.2978 9.6812C20.0077 8.00682 24.9353 8.92157 23.5157 9.94509C23.0788 10.1039 22.66 9.92719 22.2978 9.6812Z" fill="black"/>
</g>
<defs>
<clipPath id="clip0_5_94">
<rect width="68" height="61" fill="white"/>
</clipPath>
</defs>
</svg>
