<svg width="20" height="7" viewBox="0 0 20 7" fill="none" xmlns="http://www.w3.org/2000/svg">
<g clip-path="url(#clip0_5_551)">
<path fill-rule="evenodd" clip-rule="evenodd" d="M19.8515 3.21007C19.3651 6.48125 15.9695 6.84302 15.3661 3.59553C15.463 3.55338 15.5326 3.47039 15.5181 3.30929C15.5147 2.60158 15.7356 1.85359 16.3778 1.46002C17.0413 1.05392 17.8179 1.01364 18.5858 1.02389C20.0512 0.989195 20.0204 2.20694 19.8515 3.21007ZM14.8346 1.7874C14.3747 1.76812 13.7928 1.78425 13.3808 2.06283C13.2676 1.7596 12.9733 1.43583 12.6759 1.2627C13.7811 1.29486 14.9188 1.18672 16.0323 1.10277C15.7657 1.2834 15.5178 1.55477 15.3566 1.86851C15.2071 1.78922 14.9929 1.79663 14.8346 1.7874ZM12.8074 3.55688C11.5322 7.92102 8.34895 6.01885 8.00191 5.45956C7.37594 4.53404 7.25818 2.28419 7.80344 1.68265C8.58395 1.13868 9.6889 1.27868 10.6109 1.26534C12.3049 1.28806 13.5079 1.79186 12.8074 3.55688ZM21.3573 1.54965C21.0108 1.50461 20.6405 1.49553 20.3184 1.64719C20.2192 1.22806 19.9078 0.877651 19.5562 0.723448C19.5137 0.67039 19.5201 0.641883 19.3747 0.649847C18.4821 0.383137 17.4833 0.524253 16.6255 0.79776C15.2708 0.91118 13.8496 1.00061 12.4835 1.15689C11.2038 0.585528 7.34191 0.501782 7.10191 1.91005C6.80002 1.86516 6.28589 1.62893 6.03222 1.94936C4.17145 1.63573 2.24875 2.07161 0.37992 2.26573C-0.0904882 2.35186 -0.332784 3.28002 0.201195 3.26734C0.5014 3.18633 0.191961 2.68938 0.596195 2.652C2.39931 2.4562 4.16298 2.17843 5.98456 2.14592C5.92119 2.45864 7.18936 2.47898 7.20808 2.29637C7.21079 2.29774 7.21364 2.29865 7.2164 2.29987C6.90303 3.46096 7.18589 5.13193 7.75222 5.85191C8.54568 6.79468 10.5378 7.06514 11.4211 6.45858C12.5605 5.89873 13.7459 3.08848 13.4129 2.15485C14.0172 1.96443 14.6146 2.02159 15.2418 2.11858C15.0982 2.52179 14.8503 3.51437 15.2069 3.60045C15.1414 5.5711 16.9454 6.80072 18.6083 5.99232C20.0477 5.32057 20.551 3.1943 20.3749 1.90371C20.5541 2.24793 22.0586 1.87317 21.3573 1.54965Z" fill="black"/>
</g>
<defs>
<clipPath id="clip0_5_551">
<rect width="20" height="7" fill="white"/>
</clipPath>
</defs>
</svg>
