<svg width="20" height="7" viewBox="0 0 20 7" fill="none" xmlns="http://www.w3.org/2000/svg">
<g clip-path="url(#clip0_5_542)">
<path fill-rule="evenodd" clip-rule="evenodd" d="M18.9955 4.84203C18.3761 5.47837 17.342 5.66098 16.5179 5.31971C14.4018 4.4407 15.4375 1.69903 17.0695 0.962764C17.2734 0.912242 17.5457 0.79238 17.794 0.765192C17.8165 0.754235 17.8653 0.785938 17.9246 0.75596C19.7241 0.955713 20.1339 3.73299 18.9955 4.84203ZM12.1701 5.00491C11.4754 5.92105 10.1838 6.20368 9.12846 5.7778C7.04366 4.96154 7.7831 2.53036 9.20948 1.57724C12.2226 0.451612 13.4668 3.31573 12.1701 5.00491ZM7.65075 2.97501C7.64881 2.9741 7.64688 2.97364 7.64489 2.97273C7.65591 2.96791 7.66693 2.96309 7.6779 2.95817C7.67433 2.96745 7.67045 2.97663 7.66698 2.98592C7.66157 2.98221 7.65682 2.9779 7.65075 2.97501ZM20.4298 1.98471C20.2597 1.98507 20.014 2.01287 19.8732 2.13019C19.526 0.965909 18.2442 -0.111634 17.1295 0.67409C16.2517 0.95475 15.6003 1.57719 15.2301 2.40471C14.5626 2.00997 13.513 2.17853 12.9342 2.70054C12.5551 1.4552 11.6222 1.01912 10.5117 0.95475C9.29968 0.75738 8.09162 1.92765 7.71468 2.86646C7.40126 2.831 6.93295 2.73184 6.6381 2.92413C4.72448 2.42521 1.37882 2.15013 0.989784 2.42734C0.71254 2.5331 0.560397 3.18369 0.947642 3.21879C1.28509 3.17116 0.908254 2.74208 1.24841 2.69526C3.0608 2.58357 4.82024 2.94645 6.61346 3.09873C6.77356 3.31284 7.29086 3.38446 7.56683 3.29843C7.13218 4.89098 8.07045 5.97446 9.47631 6.299C11.6532 6.79615 13.5471 4.86009 12.9779 2.84632C13.6373 2.52016 14.3959 2.53416 15.1142 2.70597C13.9138 7.09821 21.029 6.90115 19.9177 2.28069C20.6572 2.64642 20.8178 2.05852 20.4298 1.98471Z" fill="black"/>
</g>
<defs>
<clipPath id="clip0_5_542">
<rect width="20" height="7" fill="white"/>
</clipPath>
</defs>
</svg>
