<svg width="20" height="7" viewBox="0 0 20 7" fill="none" xmlns="http://www.w3.org/2000/svg">
<g clip-path="url(#clip0_5_548)">
<path fill-rule="evenodd" clip-rule="evenodd" d="M17.2351 0.760742C18.4327 0.760742 19.1161 1.01678 19.3665 1.03673L19.3741 1.03726C19.4782 1.04388 19.5717 1.05254 19.6697 1.09023C20.0302 1.22826 20.0889 1.60416 19.8785 1.84105C19.8638 2.33124 19.9286 2.90399 19.8174 3.39576C19.6801 5.46892 18.6995 5.81879 18.142 5.94648C17.8622 6.0106 17.5305 6.03612 17.2332 5.96843C16.7261 5.94963 16.2247 5.79179 15.7957 5.51695C15.1983 5.13388 14.7546 4.54508 14.6106 3.84632C14.5424 3.51324 14.5105 3.16655 14.5476 2.82799L14.5531 2.78134C14.359 2.689 14.1339 2.67153 13.902 2.66338C13.7912 2.65946 13.6819 2.65594 13.5758 2.66063C13.4721 2.67214 13.3697 2.68747 13.2669 2.70835C13.1546 2.74202 13.0486 2.79759 12.9508 2.8856L12.944 3.01406C12.9256 3.33494 12.8833 3.65679 12.8179 3.97162C12.7214 4.43613 12.5662 4.87977 12.2358 5.20926C12.124 5.3753 11.9856 5.52352 11.8176 5.65187C11.2074 6.11899 10.3783 6.29048 9.61744 6.2259C8.07271 6.09485 7.17982 4.87569 6.97404 4.35459L6.96175 4.32302C6.8131 3.93561 6.69464 3.43295 6.22494 3.34971L6.12504 3.33187C5.9107 3.29187 5.71292 3.23618 5.58724 3.02827C5.53215 2.9375 5.50381 2.83599 5.49686 2.7325C5.42354 2.7381 5.35032 2.74345 5.27736 2.74864C4.69529 2.87102 1.20409 2.97479 0.925427 2.97479C0.925427 2.97479 0.389763 3.19894 0.163606 3.02526C0.00685024 2.9045 -0.0447208 2.74355 0.0415713 2.56121C0.171773 2.28685 0.772463 2.12183 1.03919 2.06958C1.03919 2.06958 5.34351 2.10512 5.65331 2.04672C5.84499 1.85022 6.18787 1.87711 6.47437 1.84604C6.71154 1.67791 7.04333 1.56529 7.30542 1.48991C7.35883 1.46979 7.41173 1.45034 7.46315 1.432C7.94363 1.26188 8.44305 1.17178 8.95008 1.12339C9.47294 1.07399 9.99733 1.09635 10.5171 1.16714C10.7362 1.19669 10.9532 1.23489 11.1687 1.28485C11.5545 1.33542 11.9381 1.41871 12.324 1.51752L12.4013 1.53748C12.8077 1.64343 13.2254 1.73506 13.6461 1.66324C13.9886 1.60515 14.318 1.47409 14.6339 1.33237L14.675 1.31383C15.3694 0.998604 16.4539 0.760742 17.2351 0.760742ZM11.1269 1.91333C10.8707 1.8573 10.7612 2.25005 11.0183 2.30623C11.2003 2.34601 11.3546 2.43727 11.4588 2.59187L11.4698 2.60868C11.6096 2.82993 11.9633 2.62569 11.8224 2.403C11.664 2.15241 11.4178 1.97689 11.1269 1.91333ZM18.6313 1.66981C18.541 1.60655 18.4043 1.65351 18.3518 1.7429C18.2941 1.84133 18.3319 1.95093 18.4165 2.01532L18.4252 2.02161C18.5028 2.07598 18.5783 2.17345 18.5878 2.27331L18.5887 2.28581C18.5988 2.54715 19.0073 2.54847 18.9971 2.28581C18.9872 2.02884 18.8375 1.81416 18.6313 1.66981Z" fill="black"/>
</g>
<defs>
<clipPath id="clip0_5_548">
<rect width="20" height="7" fill="white"/>
</clipPath>
</defs>
</svg>
