<svg width="20" height="8" viewBox="0 0 20 8" fill="none" xmlns="http://www.w3.org/2000/svg">
<g clip-path="url(#clip0_5_545)">
<path fill-rule="evenodd" clip-rule="evenodd" d="M18.7315 5.69939C18.388 6.22373 17.7511 6.39075 17.1637 6.33307C15.8968 6.19452 15.4981 4.55968 15.4566 3.28901C16.3061 3.56055 15.3847 1.63741 18.2888 1.42594C19.3125 1.32901 19.0302 2.0315 19.4825 2.54478C19.4733 3.62199 19.3155 4.79249 18.7315 5.69939ZM12.6972 4.46159C11.9493 8.44147 7.85346 7.49481 7.42321 3.90721C7.8205 3.5886 7.71586 2.80188 8.20943 2.51683C8.99167 1.94895 9.96953 1.97324 10.8578 1.98657C11.9933 2.07521 12.3169 2.60965 12.9001 3.19272C12.8721 3.58217 12.7912 4.04373 12.6972 4.46159ZM20.354 0.766806C20.312 0.758864 20.2699 0.751386 20.2279 0.744371C20.1951 0.723212 20.1566 0.706922 20.1118 0.697125C20.0095 0.667618 19.9079 0.647734 19.8065 0.637009C18.3508 0.264777 14.9831 0.793299 14.8441 2.20478C14.3805 2.3806 13.9794 2.22315 13.4421 2.23881C13.0331 0.296487 5.96254 0.570632 5.62249 1.74165C5.62122 1.74124 5.61994 1.74089 5.61861 1.74043C5.29188 1.62553 4.8102 1.65324 4.43622 1.63504C3.6377 1.61602 2.83826 1.69689 2.05698 1.88826C0.593971 2.15243 -1.40271 2.4617 -0.385212 4.53753C-0.385008 4.53788 -0.384855 4.53828 -0.3846 4.53863L-0.384447 4.53846C-0.20909 4.74269 0.0885122 4.57823 0.0995836 4.30176C-0.242508 3.31834 0.530145 3.20026 1.12463 2.91765C2.60387 2.31382 4.10989 2.23011 5.63979 2.41689C5.75489 2.57086 5.92953 2.70512 6.11412 2.77539C7.13703 2.96831 6.59795 3.83046 7.24453 3.95585C7.12576 6.96118 10.337 8.60165 12.1977 6.62605C12.9406 5.80078 13.1177 4.57823 13.2899 3.47626C13.381 3.45301 13.4389 3.39643 13.4727 3.32153C13.6918 3.07307 13.8294 2.84362 14.2625 2.77539C14.6956 2.70721 15.029 2.84408 15.0741 2.88599C15.0855 2.91202 15.0977 2.93811 15.1119 2.9642C15.1317 3.0031 15.1586 3.03411 15.1892 3.05852C14.7615 6.05121 16.8063 7.94385 18.8705 6.39168C19.7674 5.43301 19.957 3.9653 19.9944 2.65527C20.116 2.57191 20.193 2.41034 20.1509 2.20721C20.0929 1.92721 20.2289 1.68478 20.4456 1.56304C20.727 1.40495 20.6772 0.827618 20.354 0.766806Z" fill="black"/>
</g>
<defs>
<clipPath id="clip0_5_545">
<rect width="20" height="8" fill="white"/>
</clipPath>
</defs>
</svg>
