<svg width="20" height="8" viewBox="0 0 20 8" fill="none" xmlns="http://www.w3.org/2000/svg">
<g clip-path="url(#clip0_5_539)">
<path fill-rule="evenodd" clip-rule="evenodd" d="M18.7291 4.31491C18.5848 4.76105 18.3653 5.22552 18.0967 5.60099C17.0103 6.64633 15.9546 6.06754 15.4186 4.65079C15.2149 3.64957 15.7557 2.57108 16.3287 1.83456C17.1563 0.892124 18.5068 1.38673 18.8873 2.50708C18.9105 2.65224 18.9244 2.79705 18.9311 2.9414C18.9232 3.41044 18.8735 3.81131 18.7291 4.25694M8.28627 3.41514C9.7175 1.48082 12.395 1.3774 12.3267 4.3545C12.0193 8.12285 6.84219 7.19792 8.28627 3.41514ZM19.1793 1.80152C19.1291 1.70499 19.0735 1.6116 19.0127 1.52227C18.9903 1.50708 18.9773 1.37236 18.8948 1.36238C17.7914 -0.0207458 15.853 0.764008 15.1525 2.14221C15.0246 2.31647 14.9203 2.52047 14.8434 2.73601C14.1533 2.59218 13.3487 2.62012 12.7069 2.9163C12.0705 1.02807 10.1437 0.859486 8.87393 1.66627C8.08418 2.1076 7.57209 3.03183 6.80403 3.53954C4.99847 3.6872 3.06066 3.22754 1.2877 3.74215C-0.110564 4.07247 1.05831 4.87694 1.2928 4.34007C2.96439 3.77891 4.94474 4.25311 6.6803 4.12667C6.86076 4.47352 7.20683 4.75734 7.55173 4.74523C7.92423 8.49717 12.7397 7.87502 12.9059 4.53978C13.0943 4.20128 13.3286 3.87734 13.664 3.66644C13.7924 3.63624 13.9165 3.59699 14.0298 3.53624C14.2236 3.50517 14.5222 3.5985 14.7005 3.7818C15.3111 7.94505 18.8292 7.46018 19.458 3.81299C19.4705 3.7985 19.5054 3.74412 19.5322 3.65688C19.7474 3.33357 20.2743 3.2134 20.1901 2.6676C20.1151 2.12169 19.5084 2.12818 19.1793 1.80152Z" fill="black"/>
</g>
<defs>
<clipPath id="clip0_5_539">
<rect width="20" height="8" fill="white"/>
</clipPath>
</defs>
</svg>
