<svg width="22" height="7" viewBox="0 0 22 7" fill="none" xmlns="http://www.w3.org/2000/svg">
<g clip-path="url(#clip0_5_534)">
<path fill-rule="evenodd" clip-rule="evenodd" d="M18.8232 -3.02383C19.1476 -3.12432 19.4063 -2.81941 19.344 -2.55366C19.2705 -2.24069 18.909 -1.9895 18.6694 -1.7689C18.418 -1.53658 18.1615 -1.30883 17.8955 -1.0897C17.3876 -0.670663 16.8611 -0.276076 16.3061 0.0916777L16.1364 0.204078C15.6275 0.540535 15.1203 0.869185 14.5753 1.16045C14.2801 1.31769 13.9821 1.46987 13.6801 1.61646C13.5724 1.66871 13.441 1.74931 13.3058 1.80921C13.8002 2.15414 14.1807 2.68066 14.2632 3.17117C14.4675 4.38958 13.5987 5.51871 12.373 5.96762C11.7618 6.19132 11.0816 6.25624 10.4284 6.18878C9.76389 6.12025 9.09042 5.94271 8.65884 5.45074C8.27552 5.014 8.13746 4.45658 8.10996 3.90921C8.09705 3.6495 8.09986 3.3938 8.16047 3.16407C7.89614 3.1661 7.6318 3.16508 7.36971 3.16762C6.72205 3.1732 6.07322 3.17579 5.42506 3.1595C4.75665 3.14226 4.0916 3.11537 3.42542 3.06166C3.13302 3.03776 2.84231 2.99871 2.55154 2.96117C2.2693 2.92516 1.95782 2.91146 1.69404 2.80697C1.67609 2.80037 1.68359 2.77704 1.6991 2.77242C1.98027 2.6903 2.29961 2.70496 2.59256 2.68878L2.8781 2.67313C3.11592 2.66029 3.35359 2.64848 3.59211 2.64155C4.14309 2.62518 4.69364 2.62115 5.24452 2.61262L5.48063 2.60863C6.12884 2.59697 6.77705 2.59037 7.42527 2.57161C7.6941 2.564 7.96348 2.54979 8.23343 2.53661C8.26486 2.47213 8.31094 2.41329 8.35522 2.35603C8.48767 2.18458 8.65603 2.03342 8.83058 1.89646C9.18802 1.61438 9.59047 1.40494 10.0395 1.26443C10.4844 1.12567 11.1351 1.05683 11.6058 1.06578C12.0765 1.07474 12.7473 1.13475 12.9629 1.48255C12.9853 1.51856 13.3956 1.44907 13.5174 1.36482C13.8019 1.16856 14.0814 0.966678 14.3558 0.759721C14.8654 0.374721 15.3895 -0.0041918 15.8723 -0.416076C16.3701 -0.841148 16.8639 -1.27332 17.3376 -1.7197C17.5756 -1.94339 17.813 -2.1676 18.0436 -2.39687C18.2793 -2.63071 18.482 -2.91883 18.8232 -3.02383Z" fill="black"/>
</g>
<defs>
<clipPath id="clip0_5_534">
<rect width="22" height="7" fill="white"/>
</clipPath>
</defs>
</svg>
