<svg width="22" height="7" viewBox="0 0 22 7" fill="none" xmlns="http://www.w3.org/2000/svg">
<g clip-path="url(#clip0_5_558)">
<path fill-rule="evenodd" clip-rule="evenodd" d="M22.3893 0.6712C22.3431 0.66425 22.2968 0.657707 22.2506 0.651569C22.2145 0.633055 22.1721 0.618801 22.1229 0.610228C22.0103 0.58441 21.8986 0.567011 21.787 0.557627C20.1857 0.231924 16.4813 0.694381 16.3284 1.92942C15.8185 2.08327 15.3772 1.9455 14.7862 1.9592C14.3363 0.25967 6.5587 0.499547 6.18464 1.52418C6.18324 1.52383 6.18184 1.52353 6.18038 1.52312C5.82097 1.42258 5.29112 1.44683 4.87974 1.4309C4.00137 1.41426 3.12199 1.48503 2.26258 1.65247C0.653271 1.88362 -1.54308 2.15424 -0.423831 3.97058C-0.423607 3.97089 -0.423438 3.97124 -0.423158 3.97155L-0.422989 3.9714C-0.230096 4.1501 0.0972658 4.00619 0.109444 3.76429C-0.266857 2.90379 0.583062 2.80047 1.237 2.55319C2.86416 2.02484 4.52078 1.95159 6.20367 2.11503C6.33028 2.24975 6.52239 2.36723 6.72544 2.42871C7.85064 2.59752 7.25765 3.3519 7.96889 3.46161C7.83824 6.09128 11.3706 7.52668 13.4174 5.79804C14.2346 5.07592 14.4294 4.00619 14.6188 3.04197C14.719 3.02163 14.7827 2.97212 14.8199 2.90658C15.0609 2.68918 15.2122 2.48841 15.6886 2.42871C16.1651 2.36905 16.5318 2.48882 16.5814 2.52549C16.594 2.54826 16.6074 2.57109 16.623 2.59392C16.6447 2.62795 16.6744 2.65509 16.7081 2.67645C16.2376 5.29505 18.4868 6.95111 20.7575 5.59296C21.7441 4.75413 21.9526 3.46988 21.9938 2.32361C22.1275 2.25066 22.2122 2.10929 22.1659 1.93155C22.1021 1.68655 22.2517 1.47442 22.49 1.3679C22.7996 1.22958 22.7449 0.72441 22.3893 0.6712ZM12.6325 1.9135C12.3507 1.85747 12.2303 2.25022 12.5131 2.3064C12.7133 2.34619 12.883 2.43744 12.9976 2.59204L13.0097 2.60885C13.1635 2.83011 13.5525 2.62586 13.3976 2.40318C13.2233 2.15258 12.9525 1.97707 12.6325 1.9135ZM20.8874 1.66998C20.788 1.60672 20.6376 1.65369 20.58 1.74307C20.5165 1.84151 20.5581 1.9511 20.6511 2.0155L20.6606 2.02179C20.746 2.07616 20.8291 2.17362 20.8395 2.27349L20.8405 2.28598C20.8516 2.54732 21.301 2.54865 21.2898 2.28598C21.2788 2.02902 21.1142 1.81433 20.8874 1.66998Z" fill="black"/>
</g>
<defs>
<clipPath id="clip0_5_558">
<rect width="22" height="7" fill="white"/>
</clipPath>
</defs>
</svg>
