<svg width="22" height="8" viewBox="0 0 22 8" fill="none" xmlns="http://www.w3.org/2000/svg">
<g clip-path="url(#clip0_5_554)">
<path fill-rule="evenodd" clip-rule="evenodd" d="M20.7805 5.45409C20.2653 6.11896 18.2485 6.85695 17.175 6.05581C16.1016 5.25467 15.6774 4.69635 15.5339 3.69528C15.5186 3.58854 15.3318 3.51754 15.2528 3.59333C14.8105 4.01769 14.5242 4.55818 14.2405 5.10005C13.9206 5.71119 13.6055 6.32608 13.0241 6.7398C11.9944 7.30996 10.1314 7.39116 9.58105 7.13966C8.52674 6.65788 7.69273 5.6275 7.50307 4.20954C7.37446 3.79023 7.25383 3.53645 7.14117 3.44822C6.98097 3.32276 6.0969 3.21099 6.00005 3.19243C4.25469 2.85792 2.04727 2.64469 0.49274 3.82156C0.282364 3.95291 -0.437849 4.4464 -0.448653 4.32505C-0.456027 3.84975 0.0654344 2.77395 1.2514 2.26205C2.71798 1.62903 4.89806 1.59201 6.16103 1.73171C6.22455 1.73874 6.44108 1.68378 6.45638 1.67694C8.36978 0.821232 10.5714 1.0485 12.6188 1.40815C12.9121 1.46696 15.5385 2.13869 16.5831 1.73171C18.3104 1.00336 20.1519 0.475691 22.0171 0.683289C22.0327 0.685025 22.2682 2.16134 22.0848 2.26205C21.9388 2.3422 21.6904 2.54758 21.6022 2.65998C21.5233 2.76046 21.4736 2.88537 21.478 3.05843C21.5135 4.05954 21.2369 4.86506 20.7805 5.45409ZM13.6788 4.56081C13.8979 4.23356 13.967 3.49843 13.8753 2.96213C13.8288 2.69058 13.7387 2.47444 13.6256 2.36684C13.5504 2.29532 13.4646 2.26166 13.371 2.26665C13.3197 2.26939 13.2641 2.28446 13.2053 2.31724C12.4087 1.87216 11.4437 1.71191 10.529 1.758C9.80083 1.75786 9.28129 1.93539 8.92898 2.21175C8.50504 2.54429 8.31405 3.02233 8.303 3.54075C8.28989 4.15592 8.53453 4.82892 8.93585 5.36143C9.31997 5.87113 9.84543 6.24899 10.4155 6.33617C11.0626 6.46886 11.7221 6.34049 12.2954 6.02647C12.8835 5.7044 13.3802 5.18715 13.6788 4.56081ZM20.0644 4.90785C20.4335 4.45732 20.6789 3.87122 20.7163 3.2905C20.7503 2.76201 20.6133 2.23851 20.2345 1.80589C19.891 1.50141 19.2842 1.49636 18.6458 1.66592C17.8204 1.88516 16.9664 2.37512 16.6818 2.69156C16.6147 2.72787 16.5525 2.79112 16.4983 2.92677L16.4979 2.97513C16.4116 3.38594 16.4628 3.80283 16.612 4.18741C16.774 4.60517 17.0519 4.98441 17.3908 5.27376C17.841 5.65683 18.3109 5.7741 18.7508 5.71224C19.2491 5.64217 19.7124 5.33755 20.0644 4.90785Z" fill="white"/>
<path fill-rule="evenodd" clip-rule="evenodd" d="M16.5237 1.56898C18.2727 0.831356 20.1423 0.299704 22.0351 0.510371C22.1917 0.448864 22.386 0.50069 22.4553 0.729327C23.1295 2.85078 21.6261 2.26081 21.6463 3.05385C21.8039 7.5004 16.0179 8.25976 15.3673 3.72075L15.3554 3.72805C14.4194 4.63026 14.2222 6.09837 13.1196 6.88301C10.8953 8.5633 7.74221 7.23199 7.33723 4.24069L7.3284 4.20022C7.19245 3.58975 7.02992 3.43838 6.35946 3.44139L6.25354 3.41965C4.51155 3.06513 2.19184 2.74656 0.587382 3.96573C0.238413 4.17536 0.222025 4.71425 -0.0728423 4.9484C-0.395883 5.01321 -0.594893 4.61188 -0.616781 4.33414C-0.667965 1.56527 4.12882 1.36608 6.27708 1.6037C6.3181 1.55982 6.40571 1.56527 6.43523 1.61994C8.37808 0.751067 10.5669 0.871298 12.6471 1.23669C13.9358 1.49437 15.2085 2.08133 16.5237 1.56898ZM21.861 1.02156C20.8114 0.967356 19.8406 1.02666 18.8105 1.28724C18.2675 1.42254 17.8509 1.59362 17.3312 1.79936C14.0897 3.28278 13.7158 0.645965 6.44971 1.67959C6.54371 2.09547 6.561 2.50724 6.56605 2.89797C8.04965 2.83621 7.70035 4.29949 8.25617 5.3273L8.2733 5.35831C9.08337 6.85791 10.9949 7.55739 12.5369 6.56272C13.8233 5.78823 13.9488 3.82388 15.2296 3.04428C16.3399 2.99918 15.8964 4.54701 16.5006 5.18318C17.3511 6.35541 19.1589 6.5193 20.2253 5.41669C20.7256 4.88614 20.9915 4.21252 21.0062 3.48881C21.0341 3.02643 20.9574 2.55657 21.2958 2.23136C21.533 1.98243 21.9545 2.0655 22.0029 1.68921C22.0336 1.46672 21.944 1.22539 21.861 1.02156ZM10.4546 1.62761C11.4972 1.57456 12.6004 1.76158 13.4956 2.28975C14.1582 1.74505 14.3206 3.90981 13.8807 4.53595C13.2471 5.8752 11.7718 6.75572 10.3513 6.46332C8.1352 6.13161 6.59116 1.62361 10.4546 1.62761ZM13.4319 2.43491L13.3752 2.42635C12.4148 2.27498 9.79981 1.57373 8.79122 2.68053C7.81238 4.51642 10.2956 7.60013 12.8798 5.1439C13.599 4.38755 13.8778 3.47039 13.4319 2.43491ZM16.4754 2.66955C16.9728 2.06126 19.5075 0.829142 20.3911 1.61981C22.0036 3.48653 19.4463 7.26236 17.3043 5.42276C16.5909 4.80787 16.1216 3.82816 16.327 2.87946L16.3273 2.83969C16.3277 2.82528 16.3303 2.82856 16.3453 2.81059C16.3717 2.73888 16.4193 2.69308 16.4754 2.66955ZM20.3686 3.80097C20.9124 0.754186 18.6395 1.91245 16.7729 2.72566C16.873 2.82021 16.8726 2.94932 16.8438 3.0554C16.6469 5.31604 19.307 6.59708 20.3686 3.80097ZM6.23936 1.75176C5.46077 2.02411 0.310923 1.53704 -0.164827 4.0306C0.337357 3.1902 1.37742 2.85669 2.31242 2.6757C3.58421 2.4295 4.84904 2.57205 6.10298 2.83112L6.12888 2.56306C6.15669 2.27873 6.18602 2.01274 6.23936 1.75176Z" fill="black"/>
</g>
<defs>
<clipPath id="clip0_5_554">
<rect width="22" height="8" fill="white"/>
</clipPath>
</defs>
</svg>
