<svg width="36" height="45" viewBox="0 0 36 45" fill="none" xmlns="http://www.w3.org/2000/svg">
<g clip-path="url(#clip0_5_148)">
<path fill-rule="evenodd" clip-rule="evenodd" d="M30.2312 13.7843C27.7215 10.0776 21.4149 9.66002 17.4291 9.68351C9.55775 9.61515 7.90958 19.0497 7.49851 25.6608C6.65893 25.8097 5.84246 26.1149 5.28848 26.8029C4.61385 27.6407 4.38084 29.0787 5.01329 30.0157C5.43338 30.6379 6.09668 30.8458 6.79051 30.8804C9.08827 30.6518 9.55951 32.7875 10.6912 34.389C13.5952 38.4799 18.6261 39.807 23.2403 39.8273C24.8075 39.8708 26.6955 39.9935 27.6992 38.4558C30.8693 32.7259 30.9384 25.1266 31.1338 18.6333C31.1607 16.971 31.1539 15.2111 30.2312 13.7843Z" fill="white"/>
<path fill-rule="evenodd" clip-rule="evenodd" d="M16.3346 -1.76071C16.6183 -2.20785 17.2409 -2.38119 17.6725 -2.04952C18.0319 -2.28142 18.484 -2.23253 18.807 -1.95055C19.1976 -2.19126 19.6827 -2.09412 19.989 -1.75849C20.4799 -2.03817 21.1277 -1.83158 21.3905 -1.30166C21.8858 -1.35896 22.3526 -1.02087 22.4847 -0.531503C22.508 -0.511741 22.5311 -0.491344 22.5542 -0.471026C22.8509 -0.456185 23.1329 -0.334915 23.2992 -0.0471376C23.3823 0.0965926 23.4207 0.265482 23.415 0.430958C23.5924 0.530958 23.7358 0.695005 23.7972 0.907624C23.8547 1.10699 23.833 1.30421 23.7574 1.47604C24.0044 1.75008 24.0697 2.17723 23.8947 2.52143C23.9671 2.65096 24.0048 2.80405 23.9989 2.96318C23.9901 3.19881 23.8853 3.38874 23.7428 3.55088C23.922 3.88818 23.8521 4.32088 23.5608 4.55739C23.3934 5.17612 22.9698 5.58778 22.3207 5.84032C21.9947 5.96715 21.6537 6.06485 21.3061 6.13659C22.697 6.33175 24.0654 6.67477 25.3798 7.1862C25.4514 7.21405 25.512 7.20318 25.5584 7.17072C25.5871 7.18659 25.6164 7.2012 25.645 7.21747C26.0073 7.42461 26.3619 7.64921 26.7075 7.88969C26.7075 7.85001 26.7082 7.81032 26.7098 7.76985C26.7031 7.44326 26.736 7.12159 26.8192 6.81151C26.7104 6.65683 26.6289 6.48048 26.5846 6.29874C26.474 5.84524 26.6844 5.19993 27.0623 5.04501C27.1947 4.66199 27.4959 4.38485 27.865 4.2758C27.8943 4.24826 27.9255 4.22151 27.9602 4.19667C28.038 4.14096 28.123 4.10294 28.2103 4.08088C28.2558 3.87334 28.3668 3.68231 28.551 3.54826C28.8109 3.35897 29.1183 3.33842 29.3884 3.44167C29.4397 3.42366 29.4919 3.40802 29.5445 3.39445C29.9792 3.00858 30.6568 3.03699 31.0393 3.4885C31.3019 3.36334 31.6114 3.35778 31.8802 3.5262C32.0953 3.66096 32.2292 3.87826 32.2815 4.11675C32.6887 4.12977 33.0612 4.41151 33.1786 4.83199C33.5539 4.87628 33.8608 5.18247 33.926 5.56786C34.1653 5.60262 34.3864 5.71993 34.5209 5.95318C34.5831 6.06104 34.6168 6.17905 34.6256 6.29723C34.7466 6.35778 34.8551 6.44945 34.9371 6.56921C35.0806 6.77905 35.1083 7.02405 35.0556 7.25461C35.0677 7.28016 35.0809 7.30508 35.0925 7.33096C35.1315 7.41762 35.1629 7.51056 35.1908 7.60493C35.317 7.79469 35.3753 8.02667 35.3638 8.25969C35.3906 8.35826 35.4165 8.45707 35.438 8.55636C35.5233 8.94604 35.5553 9.36112 35.4966 9.75794C35.4677 9.95001 35.4259 10.1389 35.3665 10.3222C35.3604 10.3571 35.3505 10.3897 35.3391 10.4206C35.3064 10.5651 35.2645 10.7071 35.2112 10.846C35.0834 11.023 34.9494 11.1952 34.8086 11.3619C34.6899 11.5476 34.5544 11.7191 34.4014 11.8762C34.2911 11.9897 34.1701 12.0952 34.0414 12.1905C33.7861 12.4039 33.5004 12.5703 33.1955 12.6786C33.1411 12.6667 33.0864 12.6574 33.0316 12.6483C32.6855 12.847 32.1408 12.8694 31.8078 12.8681C31.4408 12.8667 31.1046 12.77 30.8252 12.5874C30.8576 12.6546 30.8899 12.7219 30.9223 12.7894C30.9142 12.7942 30.9055 12.7986 30.8985 12.8042C30.8381 12.6998 30.7707 12.6071 30.6912 12.5405C30.5828 12.4493 30.4079 12.4411 30.3327 12.5887L30.3287 12.5964C30.2886 12.6751 30.2942 12.7506 30.3248 12.8121C30.336 12.8289 30.3471 12.8458 30.3582 12.8626C30.3622 12.8674 30.366 12.8725 30.3703 12.8769L30.3684 12.8771C30.4722 12.9644 30.5745 13.178 30.6715 13.3857C30.7371 13.5071 30.7995 13.6302 30.8581 13.7554C30.8922 13.8079 30.9529 13.8541 31.0174 13.8675C31.0048 13.9675 31.0489 14.0709 31.1214 14.1221C31.1404 14.0821 31.1636 14.0412 31.1933 13.999C31.5204 13.5356 32.1631 13.3357 32.6471 13.5475C32.7436 13.5305 32.8406 13.5164 32.9384 13.5084C33.258 13.4864 33.5818 13.5126 33.8973 13.5816C33.9953 13.6429 34.0889 13.7118 34.1761 13.7905C34.25 13.8571 34.3185 13.927 34.3824 13.9992C34.4319 14.0379 34.4805 14.0788 34.5282 14.1215C34.7217 14.23 34.8638 14.4381 34.9831 14.6452C35.0778 14.7848 35.1605 14.9332 35.2322 15.0903C35.564 15.6824 35.9469 16.4175 35.6477 16.9996C35.6795 17.0624 35.7031 17.1319 35.7161 17.2075C35.7574 17.4476 35.6725 17.6312 35.5612 17.8094C35.5758 17.9337 35.5839 18.0542 35.5903 18.1602C35.6257 18.7551 35.495 19.5706 34.992 19.8134C34.9841 19.8233 34.9761 19.833 34.9678 19.8428C34.929 19.9087 34.8698 19.9656 34.7919 20.0072C34.7726 20.0213 34.7531 20.0346 34.7333 20.046C34.7244 20.0541 34.7143 20.0606 34.7051 20.0682C34.7156 20.0567 34.7257 20.0447 34.7362 20.033C34.4579 20.1487 34.1892 20.1726 33.9023 20.1375C33.725 20.2043 33.5472 20.2542 33.3972 20.2929C32.9291 20.4134 32.3254 20.5099 31.8691 20.3044C31.7361 20.2445 31.6258 20.1652 31.543 20.0707C31.5498 20.439 31.5602 20.8071 31.5755 21.1754C31.6067 22.1064 31.6051 23.0365 31.5983 23.9683C31.5907 25.0167 31.5625 26.0659 31.5085 27.1135C31.4834 27.6397 31.443 28.1651 31.389 28.6889C31.3433 29.1992 31.2901 29.7087 31.2284 30.2167C31.083 31.2611 30.8433 32.3135 30.551 33.323C30.4239 33.7611 30.2846 34.2048 30.1263 34.6381C30.0594 34.8373 29.9886 35.0341 29.9117 35.2294C29.506 36.2524 29.0007 37.2397 28.318 38.0921C27.945 38.5571 27.5333 38.9754 27.0736 39.327C26.7044 39.627 26.3049 39.881 25.8657 40.081C24.9219 40.5111 23.8686 40.6079 22.8479 40.5921C22.4506 40.5865 22.029 40.5119 21.6363 40.4437C21.3349 40.3921 21.0297 40.323 20.7275 40.2421C20.4596 40.177 20.1947 40.1016 19.9337 40.0135C19.6194 39.927 19.318 39.8024 19.031 39.6413L18.5226 39.4421C18.3103 39.3587 18.104 39.2595 17.9038 39.146L17.3513 38.877C17.1222 38.7619 16.8992 38.6357 16.6815 38.4968C16.6587 38.4841 16.6328 38.4627 16.6229 38.4389C16.5666 38.4064 16.5095 38.3754 16.4532 38.3421C16.444 38.3373 16.4509 38.3095 16.4631 38.2825C16.4532 38.2611 16.4547 38.2373 16.4821 38.2159C16.5027 38.1992 16.5354 38.204 16.5696 38.2151C16.5666 38.2127 16.5643 38.2103 16.562 38.2079C16.524 38.1865 16.4867 38.1659 16.4494 38.1445C16.4113 38.123 16.4052 38.0675 16.441 38.0381C16.4509 38.0302 16.4623 38.0262 16.4737 38.0254L16.4714 38.0246C16.4646 38.0198 16.4699 37.9976 16.4798 37.973C16.4608 37.9476 16.4547 37.9167 16.4882 37.8897C16.5377 37.8492 16.6534 37.9238 16.6952 37.9484C16.7432 37.9762 16.7919 38.0024 16.8398 38.0294C16.8429 38.0222 16.849 38.0159 16.8588 38.0095C16.7881 37.9706 16.718 37.931 16.648 37.8913C16.6046 37.8675 16.5483 37.8175 16.6054 37.7706C16.6511 37.7325 16.769 37.7976 16.8254 37.831C16.8322 37.8254 16.8398 37.823 16.849 37.8214C16.8246 37.8072 16.7987 37.7937 16.7744 37.7786C16.7059 37.7389 16.7523 37.6151 16.8231 37.6564L16.8482 37.6722C16.8992 37.6675 16.9707 37.7111 17.0035 37.7302C17.2417 37.8865 17.4898 38.023 17.747 38.1405C17.9206 38.2262 18.0949 38.3111 18.2699 38.3937C18.4419 38.4825 18.6193 38.5595 18.8012 38.6246C19.2586 38.8103 19.7206 38.9833 20.1871 39.1437C20.8409 39.3302 21.5175 39.4802 22.1964 39.5389C22.2847 39.546 22.373 39.5524 22.4613 39.5556C22.6546 39.554 22.8479 39.5532 23.0405 39.5516C23.4157 39.5111 23.7909 39.4714 24.1654 39.4318C24.2963 39.4127 24.4242 39.3889 24.5505 39.3611C24.6167 39.3445 24.6829 39.327 24.7484 39.3072C24.7712 39.304 24.7941 39.2992 24.8169 39.2952C24.9775 39.2508 25.135 39.1976 25.2926 39.1357C25.3915 39.0937 25.4897 39.0492 25.5871 39.0024C25.9091 38.846 26.2257 38.6397 26.524 38.4032L27.6451 37.2397L27.9869 36.754C28.4283 36.096 28.7777 35.3627 29.0676 34.6143L29.5289 33.2286C29.5768 33.0619 29.6225 32.8952 29.6659 32.7278C29.7534 32.3532 29.8409 31.9786 29.9284 31.6048C29.9574 31.4675 29.9855 31.331 30.0129 31.1945C30.1811 30.3445 30.274 29.4818 30.3539 28.6191C30.5 27.0492 30.5396 25.4746 30.5503 23.8984C30.5571 22.9564 30.5495 22.0143 30.5312 21.073C30.5206 20.527 30.513 19.981 30.5054 19.4349C30.4955 18.8556 30.4848 18.2754 30.4703 17.696C30.4696 17.6833 30.4742 17.6722 30.4802 17.6627C30.4787 17.5944 30.478 17.5262 30.4772 17.4571C30.4764 17.4119 30.4932 17.3921 30.5175 17.3881C30.513 16.9746 30.5099 16.5619 30.5092 16.1492C30.5092 16.1222 30.5213 16.1048 30.5373 16.0945V15.9897C30.4711 15.7024 30.3813 15.4206 30.2649 15.1524C30.2253 15.0556 30.1811 14.9611 30.1324 14.8691C30.0723 14.731 29.9939 14.6056 29.898 14.4905C29.8181 14.35 29.7199 14.2254 29.6057 14.1143L29.4657 14.0095C29.4269 13.9881 29.3698 13.9508 29.3196 13.9079L29.0486 13.7333C28.9961 13.7048 29.0303 13.6333 29.0676 13.6143V13.6119C29.0593 13.6079 29.0501 13.6032 29.0402 13.5945C28.9306 13.4865 28.8165 13.3849 28.6977 13.2897C28.6764 13.2984 28.6513 13.2952 28.6323 13.2786C28.5623 13.2103 28.4907 13.1445 28.4177 13.081C28.254 12.9691 28.0828 12.8667 27.9039 12.7762C27.617 12.6349 27.3232 12.5135 27.0218 12.4103C26.9568 12.388 26.8914 12.3681 26.8263 12.348C26.7336 12.3434 26.641 12.3382 26.5484 12.334C23.0996 12.1762 19.6418 12.2425 16.2009 12.5319C15.3532 12.6033 14.5065 12.6883 13.6613 12.7868C12.9176 12.8735 12.0261 12.8705 11.3424 13.2257C11.3135 13.2408 11.2859 13.2568 11.2591 13.2732C11.3124 13.6298 11.4519 13.9781 11.5735 14.3144C11.7609 14.8331 11.9289 15.3618 11.9122 15.9236C11.9005 16.3153 11.8198 16.692 11.7035 17.0601C11.6439 17.5849 11.487 18.0918 11.3205 18.5898C10.501 21.0402 10.0549 23.5489 10.1007 26.1499C10.102 26.2196 10.0866 26.2804 10.0601 26.3321C10.0751 26.4459 10.09 26.5597 10.1077 26.6731C10.176 27.1114 9.62171 27.3295 9.43044 27.0389C9.41758 27.0521 9.39977 27.0613 9.38333 27.0627C9.33462 27.0675 9.2547 26.9841 9.23187 26.946C9.20219 26.8889 9.17098 26.8333 9.13749 26.7802C9.13293 26.7778 9.12912 26.7762 9.12532 26.7746C9.14587 26.8191 9.16718 26.8643 9.18697 26.9071C9.22045 26.977 9.09183 27.0111 9.05377 26.9468C9.01952 26.8905 8.98527 26.8365 8.95102 26.7849C8.93124 26.8 8.90916 26.804 8.8947 26.7794C8.77217 26.5683 8.6306 26.3873 8.47534 26.2333C8.23102 26.0254 7.96388 25.8992 7.6602 25.8254C7.42121 25.7897 7.17614 25.7881 6.93944 25.8167C6.66773 25.85 6.38155 25.9206 6.13572 26.05C5.93555 26.1937 5.73462 26.3373 5.53369 26.481C5.48422 26.5349 5.43703 26.5913 5.39289 26.65C5.2536 26.8381 5.14172 27.0389 5.04963 27.2524C5.04582 27.2659 5.04202 27.2794 5.03821 27.2921C4.98189 27.4714 4.94536 27.6556 4.92938 27.8445L4.92329 28.5603C4.95373 28.8706 5.02984 29.1722 5.14629 29.4587C5.20109 29.6278 5.28709 29.7786 5.40354 29.9119C5.46595 30.0246 5.53673 30.127 5.61589 30.2222C5.77648 30.3333 5.95153 30.4278 6.138 30.5024C6.18367 30.5151 6.22933 30.5278 6.27576 30.5373C6.51551 30.6333 6.76363 30.6849 7.02012 30.6921C7.34434 30.7151 7.66172 30.6857 7.97225 30.604C8.16405 30.5683 8.34976 30.5103 8.52938 30.4302C8.70138 30.3397 8.8635 30.231 9.01496 30.104C9.0317 30.0929 9.05682 30.0992 9.08422 30.1135C9.11771 30.0881 9.15119 30.0635 9.18392 30.0357C9.19914 30.0246 9.21284 30.0381 9.21969 30.0524L9.22883 30.0452C9.28895 30.0024 9.45411 30.1365 9.37952 30.2159C9.41149 30.2365 9.44346 30.2611 9.47238 30.2865C9.60481 30.2921 9.87196 30.546 9.82172 30.5857C9.74714 30.6532 9.66874 30.7151 9.58883 30.7738C9.65961 30.8286 9.75246 30.9135 9.70908 30.9476C9.63145 31.0246 9.54697 31.0913 9.45716 31.1484C9.39627 31.1968 9.33386 31.2429 9.2684 31.2849C9.19762 31.3286 9.12532 31.3659 9.05073 31.4008C9.18088 31.6635 9.30494 31.9286 9.42062 32.1984C9.49749 32.3897 9.58654 32.5746 9.68929 32.7524C9.8202 33.023 9.97699 33.277 10.1604 33.5135C10.3096 33.7754 10.4846 34.0159 10.6848 34.2357C10.9322 34.5294 11.1978 34.8056 11.4802 35.0611C11.5928 35.1445 11.7077 35.2254 11.8272 35.3C12.1324 35.5397 12.4574 35.7452 12.8022 35.9167C12.8425 35.9397 12.8745 35.9905 12.8273 36.0302C12.8258 36.031 12.8243 36.031 12.8227 36.0325C12.9354 36.0992 13.0488 36.1651 13.1629 36.2302C13.2079 36.2556 13.2999 36.3048 13.2314 36.3627C13.1873 36.4008 13.0511 36.3325 12.9696 36.2881C12.981 36.2945 12.9932 36.3016 13.0054 36.3087C13.0305 36.323 13.1751 36.3992 13.0861 36.4476C13.0412 36.4556 12.9986 36.4476 12.9575 36.4246C12.9148 36.4079 12.8722 36.3897 12.8303 36.3706C12.8319 36.3849 12.8243 36.3984 12.8022 36.4095C12.7847 36.4127 12.7679 36.4127 12.7512 36.4111C12.844 36.4659 12.9369 36.5198 13.0305 36.573C13.0579 36.5881 13.1873 36.6627 13.1021 36.7087C13.0602 36.7175 13.0199 36.7103 12.981 36.6881C12.9103 36.6603 12.8402 36.6278 12.7725 36.5921L12.7246 36.5643C12.7124 36.5643 12.7002 36.5627 12.688 36.5603C12.7626 36.6024 12.838 36.6429 12.9141 36.6825C12.959 36.7079 13.0343 36.7595 12.9696 36.8119C12.9247 36.8476 12.8037 36.7833 12.7322 36.7413C12.7276 36.7468 12.7223 36.7532 12.7147 36.7595C12.6614 36.8016 12.5244 36.7087 12.481 36.6841C12.1035 36.473 11.7389 36.2548 11.3881 36.0048C11.1734 35.8611 10.9641 35.7103 10.7594 35.546C10.3674 35.2302 10.0112 34.8627 9.68472 34.4754C9.46172 34.2103 9.34071 34.0611 9.12456 33.7397C8.77749 33.2222 8.51568 32.6825 8.26375 32.1103C8.25995 32.1016 8.26756 32.0794 8.27897 32.0572C8.22722 31.9246 8.17699 31.7905 8.12675 31.6516C7.99585 31.6698 7.86417 31.6825 7.73403 31.6905C7.4273 31.7087 7.12971 31.6802 6.84126 31.6143C6.49191 31.5675 6.14637 31.4643 5.84041 31.3024C5.65699 31.2064 5.48041 31.104 5.31297 30.9897C5.16303 30.9064 5.01842 30.8111 4.8799 30.7C4.29005 30.2302 3.96963 29.5008 3.89124 28.7437C3.83111 28.4103 3.81817 28.0675 3.85394 27.7365C3.87982 27.496 3.93157 27.2579 4.00692 27.0286C4.1462 26.5198 4.40574 26.0492 4.78172 25.6929C4.84489 25.6254 4.91111 25.5611 4.98189 25.5008C5.19119 25.3222 5.42866 25.1786 5.68134 25.0738C5.73005 25.0492 5.77952 25.0262 5.829 25.0048L5.76887 24.8603C5.74756 24.8667 5.67373 24.854 5.6646 24.827C5.64024 24.7579 5.61741 24.6873 5.59382 24.6183C5.58012 24.627 5.56261 24.6318 5.54358 24.6325V24.7127C5.54434 24.7357 5.50248 24.8786 5.47965 24.804C5.45606 24.7357 5.43475 24.6659 5.41191 24.5968C5.39289 24.5841 5.37842 24.5691 5.3731 24.5516C5.37081 24.5445 5.36853 24.5373 5.36549 24.5302L5.36016 24.5286V24.5532C5.36092 24.5683 5.32286 24.6825 5.31601 24.6603C5.18434 24.2825 5.07703 23.8968 4.99331 23.5048C4.93623 23.2889 4.89132 23.0706 4.85707 22.8492C4.81978 22.65 4.78705 22.45 4.75889 22.2484L4.75204 22.1984L4.74976 22.1873C4.74747 22.1659 4.74519 22.1437 4.74215 22.1222C4.7117 21.8945 4.68659 21.6659 4.66756 21.4357C4.62722 20.9627 4.61124 20.4873 4.6158 20.0127C4.60591 20.0167 4.59678 20.0222 4.58688 20.027C4.38915 20.1148 4.18023 20.1865 3.96765 20.2437C3.60194 20.7948 3.0181 21.1677 2.31842 21.2069C2.08149 21.2202 1.83307 21.1902 1.60307 21.1204C1.57917 21.1261 1.55451 21.1307 1.52894 21.1342C1.34148 21.1598 1.2111 21.0802 1.03582 21.0559C0.755202 21.0172 0.517283 20.9981 0.335684 20.8282C0.279591 20.8295 0.22601 20.821 0.175092 20.8052C-0.306455 20.9256 -0.818142 20.6602 -0.987487 20.104C-1.27632 19.9275 -1.50648 19.6656 -1.66121 19.3618C-1.95926 18.9634 -2.19756 18.4749 -2.34536 17.9617C-2.34765 17.9568 -2.35016 17.9521 -2.35237 17.9471C-2.42733 17.7776 -2.46303 17.5958 -2.46607 17.4134C-2.54584 16.8939 -2.52483 16.3737 -2.37314 15.9165C-2.37954 15.6687 -2.32367 15.4103 -2.22138 15.176C-2.0974 14.8918 -1.90834 14.565 -1.66304 14.3755C-1.66243 14.0842 -1.5424 13.7636 -1.38509 13.5463C-1.07113 13.1122 -0.615842 12.8828 -0.123106 12.8496C0.127448 12.1798 0.886644 12.0234 1.54149 12.2464C1.81351 11.9565 2.21195 11.8181 2.60962 11.8674C2.94587 11.9091 3.23327 12.0768 3.47119 12.3079C3.5339 12.3265 3.59639 12.346 3.6588 12.3662C3.86711 12.2709 4.11013 12.2493 4.33245 12.3091C4.71779 12.4126 4.96918 12.7171 5.14309 13.0663C5.19858 13.1061 5.25277 13.1472 5.30566 13.1902C5.36374 13.2173 5.41648 13.2536 5.46435 13.2963C5.53392 13.3349 5.59298 13.3985 5.62898 13.4907C5.72716 13.5963 5.81849 13.7079 5.89932 13.8277C5.95983 13.6818 6.02224 13.5368 6.0867 13.3929C6.19166 13.4259 6.31853 13.3833 6.37135 13.2371C6.70624 12.3105 7.3158 10.6128 7.8902 9.83048C7.21983 10.3064 6.40134 10.5573 5.58834 10.5321C5.55355 10.531 5.51847 10.5295 5.48308 10.5275C5.04605 10.606 4.6021 10.6133 4.19453 10.5281C3.92008 10.4242 3.65263 10.3004 3.39348 10.1603C3.33046 10.1262 3.26797 10.0903 3.20571 10.0541C3.17854 10.0302 3.15335 10.0036 3.1274 9.97802C3.07382 9.98207 3.01772 9.9777 2.95805 9.9612C2.73376 9.89937 2.5262 9.74374 2.39606 9.54374C2.37185 9.50651 2.35237 9.46818 2.33502 9.42953C2.19383 9.28556 2.07152 9.12247 1.98164 8.93175C1.87585 8.70874 1.81115 8.45794 1.8043 8.20715C1.76016 7.96112 1.7632 7.70794 1.8454 7.47302C1.85453 7.44762 1.86519 7.42302 1.87508 7.39762C1.87965 7.38175 1.88269 7.36508 1.88802 7.34921C1.91207 7.26548 1.94267 7.19088 1.97981 7.12024C1.99359 7.04762 2.01612 6.97564 2.04793 6.90556C2.05151 6.87167 2.05592 6.83778 2.06117 6.80405C1.8193 6.32826 1.905 5.70604 2.26705 5.31929C2.21697 5.06929 2.26796 4.80421 2.41387 4.58239C2.52103 4.41937 2.66998 4.29072 2.83871 4.20143C2.85629 4.19215 2.90287 4.1762 2.95858 4.15786C3.021 4.10032 3.08683 4.04588 3.15891 3.99794C3.17687 3.5104 3.66527 3.23913 4.0621 2.99889C4.31951 2.8431 4.432 2.54778 4.69709 2.39842C4.98707 2.23516 5.3581 2.2254 5.6786 2.18516C6.43415 2.09024 7.2387 2.01691 7.99805 2.1027C8.41963 2.15032 8.76874 2.36262 8.91312 2.7104C9.27579 2.75508 9.59903 3.02794 9.85475 3.30858C10.174 3.65881 10.4457 4.03167 10.5394 4.49191C10.6019 4.52707 10.6586 4.57008 10.7098 4.61866C10.7079 4.94231 10.6674 5.26651 10.5817 5.57199C10.6069 5.75461 10.5541 5.92897 10.4649 6.08707C10.4786 6.23675 10.4688 6.38413 10.4387 6.53104C10.6123 6.85207 10.4499 7.33723 10.2068 7.65556L10.2049 7.83508C10.2194 7.82723 10.2335 7.81794 10.2466 7.80628C11.3496 6.82755 12.4834 6.96715 13.8234 6.40715C15.0318 6.16389 16.2653 6.00905 17.5031 5.95754C17.4868 5.95501 17.4704 5.95318 17.4541 5.9504C16.8303 5.84389 16.2312 5.57635 15.7159 5.19199C15.5795 5.15596 15.4502 5.09175 15.3344 4.98437C15.222 4.88008 15.1441 4.75977 15.0993 4.63072C15.0789 4.60794 15.0588 4.58501 15.0389 4.56167C14.6521 4.46262 14.3576 4.11366 14.4069 3.65493C14.162 3.35262 14.0719 2.97937 14.1547 2.59072C14.0179 2.34969 14.0059 2.0458 14.1081 1.79128C13.893 1.51889 13.8763 1.13223 14.0449 0.824053C13.8909 0.595878 13.8569 0.293497 14.0469 0.0232592C14.1365 -0.10436 14.2608 -0.184836 14.3961 -0.223725C14.4343 -0.370788 14.512 -0.507376 14.6341 -0.612852C14.6969 -0.667058 14.7626 -0.707296 14.8298 -0.737296C14.8551 -0.889122 14.9374 -1.03309 15.0957 -1.14634C15.1675 -1.19769 15.2411 -1.23087 15.3141 -1.24928C15.3833 -1.42785 15.504 -1.58444 15.6738 -1.68611C15.8789 -1.80872 16.1173 -1.82499 16.3346 -1.76071ZM6.56572 27.104C6.72479 27.1016 6.87777 27.1032 7.02999 27.1199C7.03608 27.1151 7.04216 27.1127 7.04749 27.1135C7.07261 27.1199 7.09544 27.1254 7.1198 27.1318C7.20428 27.1445 7.28876 27.1627 7.37477 27.1889C7.57798 27.2516 7.78119 27.3508 7.95701 27.4738C8.12293 27.5897 8.28808 27.7103 8.43269 27.8548C8.48369 27.9 8.53164 27.9492 8.5773 28C8.65113 28.0635 8.72267 28.1286 8.79117 28.1929C8.87489 28.273 8.95633 28.3556 9.03396 28.4413C9.15574 28.5881 9.25088 28.7516 9.31937 28.9318C9.34677 28.9897 9.31329 29.0246 9.25696 29.0143C9.23185 29.0103 9.1976 28.9913 9.16259 28.9659L9.17933 29.0048C9.20901 29.0659 9.1839 29.1095 9.11616 29.0865C9.11235 29.0841 9.10855 29.0818 9.1055 29.0794C9.14052 29.1445 9.17248 29.2111 9.19988 29.281C9.22956 29.3429 9.20293 29.3857 9.13595 29.3619C9.10094 29.3413 9.06745 29.3175 9.03548 29.2913C9.04994 29.3246 9.06517 29.3572 9.07811 29.3913C9.10855 29.454 9.07354 29.4865 9.01417 29.4722C8.96318 29.4429 8.91599 29.408 8.87185 29.3675C8.865 29.3619 8.85891 29.3556 8.85282 29.35C8.87261 29.4016 8.83531 29.4333 8.78584 29.423C8.71582 29.4087 8.58415 29.2857 8.55219 29.2207L8.5461 29.2087C8.5088 29.1826 8.46847 29.146 8.43802 29.1111C8.41367 29.1476 8.36648 29.1746 8.34517 29.1302C8.28123 28.9484 8.18153 28.7929 8.04529 28.6619C7.96766 28.5437 7.87328 28.4429 7.76293 28.3595C7.70356 28.3072 7.64191 28.2572 7.57874 28.2095C7.46686 28.1564 7.35041 28.1159 7.22863 28.0889C7.20428 28.081 7.17916 28.0762 7.15481 28.0691C7.10077 28.0587 7.04749 28.0484 6.99345 28.0405C6.7735 28.0087 6.55278 28.0032 6.33206 28.0238C6.29248 28.0254 6.25443 27.9937 6.23768 27.9572C6.18821 27.9595 6.1395 27.9619 6.09003 27.9667C6.00859 27.9699 6.0261 27.85 6.08775 27.8381C6.16538 27.823 6.24301 27.8119 6.31912 27.8024C6.3176 27.7953 6.31684 27.7873 6.31836 27.781C6.17908 27.7738 6.04056 27.777 5.90052 27.7921C5.83963 27.7953 5.91193 27.6778 5.94542 27.6714C5.96064 27.6683 5.97586 27.6667 5.99185 27.6635C5.99033 27.6611 5.98956 27.6595 5.9888 27.6572H5.985C5.90128 27.6611 5.84419 27.5222 5.94466 27.5032C5.96978 27.4984 5.99413 27.4953 6.01849 27.4905C6.01392 27.477 6.01316 27.4651 6.01773 27.454C5.97434 27.4532 5.93172 27.4532 5.88834 27.4532C5.91193 27.4516 5.92944 27.3453 5.9576 27.3413L6.02458 27.3318C6.0261 27.3024 6.06872 27.2341 6.08699 27.2302C6.23159 27.2048 6.37316 27.1873 6.5132 27.1818C6.5269 27.1484 6.54669 27.104 6.56572 27.104Z" fill="black"/>
</g>
<defs>
<clipPath id="clip0_5_148">
<rect width="36" height="45" fill="white"/>
</clipPath>
</defs>
</svg>
