<svg width="35" height="43" viewBox="0 0 35 43" fill="none" xmlns="http://www.w3.org/2000/svg">
<path fill-rule="evenodd" clip-rule="evenodd" d="M34.3246 19.3804C33.6475 15.5962 31.9778 11.9955 29.4137 9.17818C29.1178 8.84366 28.8519 8.31598 28.4004 8.23165C27.9471 7.28512 27.0832 6.616 26.3926 5.85163C24.8853 4.31129 23.4431 2.59 21.4989 1.61731C12.4811 -2.18383 3.80306 8.6546 1.96153 16.8057C0.132429 23.3609 2.13017 32.4036 10.0567 32.6689C11.1781 34.189 12.7255 35.2412 14.3151 36.1809C16.4857 37.6053 18.8536 38.1835 21.3648 37.3908C23.8658 38.0606 26.4584 35.9112 27.9614 34.0262C29.1494 32.5661 29.9637 30.7841 31.0503 29.2728C32.3332 29.2399 33.4418 28.1266 33.6135 26.8217C34.8117 24.565 34.7573 21.8608 34.3246 19.3804Z" fill="white"/>
<path fill-rule="evenodd" clip-rule="evenodd" d="M14.6818 0.329383C16.3227 -0.0635319 18.0435 0.0179179 19.6688 0.449738C22.8902 1.30572 25.5408 3.53163 27.7385 6.01342C29.8823 8.43416 31.6501 11.2092 32.9412 14.1987L33.0067 14.3507C33.92 16.4817 34.7136 18.6967 34.7476 21.0432C34.7769 23.0627 34.5779 25.1665 33.9413 27.0874C33.3742 28.7985 32.3311 30.5227 30.5365 30.9329C29.5016 33.6288 27.4771 35.9634 24.9268 37.2126C23.3451 37.9875 21.608 38.3333 19.8592 38.1613C18.075 37.986 16.4084 37.1074 15.0139 35.9869C14.9757 35.9561 15.0249 35.8966 15.0643 35.9198C16.7432 36.9114 18.7288 37.2659 20.6518 37.2006C23.812 37.0936 26.7092 35.3454 28.3739 32.5976C28.7882 31.9137 29.1572 31.1923 29.4517 30.4419C29.4344 30.3802 29.4244 30.3176 29.4244 30.2566C29.4244 29.9981 29.5442 29.8005 29.7228 29.6729C29.8056 29.4077 29.8789 29.1395 29.94 28.8682C30.0788 28.2538 30.1562 27.6304 30.2029 27.0021C30.2408 26.4917 30.2198 25.9501 30.2698 25.4266C30.2516 25.0071 30.2263 24.5881 30.1892 24.1699C30.0698 22.8224 29.8285 21.4783 29.3635 20.2083C28.8926 18.9219 28.1488 17.7875 27.2103 16.8111C25.1975 14.717 22.6915 13.1879 20.7342 11.0366L20.6317 10.9228L20.6247 10.9205C20.3819 11.1757 20.1392 11.4309 19.8958 11.6856L18.7839 12.8479C16.5145 15.2229 14.2634 17.6209 12.2892 20.2636C11.1524 21.7855 10.131 23.3807 9.25098 25.0724C8.83423 25.8736 8.45636 26.6947 8.11482 27.5324L7.98042 27.8659C7.82049 28.265 7.64767 28.7117 7.55166 29.1624C7.83729 29.4527 8.04618 29.8795 8.27719 30.2091C8.53921 30.5829 8.84141 30.9387 9.15234 31.2708C9.46705 31.607 9.81224 31.9292 10.1787 32.2054L10.2227 32.2379C10.6431 32.5437 11.1257 32.7549 11.1888 33.337C11.2162 33.5898 10.9957 33.7931 10.7915 33.8718C10.2326 34.087 9.65366 33.4689 9.28117 33.1134C9.0489 32.8916 8.83534 32.6526 8.63733 32.4003C8.44457 32.4286 8.25055 32.4428 8.05854 32.4194C7.761 32.3832 7.46635 32.3299 7.17651 32.2518C4.77253 31.6049 2.99315 29.5595 2.03313 27.2816C0.744275 24.2234 0.774243 20.698 1.31005 17.464C2.28908 11.554 5.45773 6.03466 10.2424 2.54043C11.5824 1.56182 13.0683 0.715701 14.6818 0.329383ZM17.2719 1.11999C14.1809 0.953073 11.3629 2.58662 9.10195 4.62006C4.98527 8.32245 2.44958 13.7433 1.93945 19.3101C1.66841 22.2677 1.87123 25.4557 3.37601 28.0689C3.95984 29.0827 4.71178 29.9662 5.59936 30.711C6.43573 31.4131 7.3891 31.8177 8.40831 32.093C8.36192 32.0274 8.31612 31.9615 8.27157 31.8945C8.03449 31.5387 7.84617 31.1606 7.68841 30.7644C7.6745 30.7787 7.6483 30.7816 7.63284 30.7598C6.98952 29.8551 7.19086 28.7757 7.4975 27.7808C7.81901 26.7374 8.22651 25.7221 8.69157 24.7372C10.3867 21.1479 12.9081 18.021 15.5253 15.1032C16.862 13.613 18.2429 12.1661 19.6188 10.7141C20.3059 9.98914 20.9912 9.26201 21.6678 8.52653C22.0046 8.16039 22.3393 7.79235 22.6709 7.42135C22.9989 7.05452 23.294 6.66601 23.7023 6.39125C24.0278 6.1723 24.3527 6.59078 24.2006 6.90201C23.9666 7.38073 23.5642 7.76023 23.2081 8.1495L23.1714 8.18981C22.8243 8.57386 22.4739 8.95479 22.1215 9.33367C21.7162 9.76944 21.3076 10.2022 20.8978 10.6339C21.2473 10.5924 21.6009 10.5685 21.9484 10.5145C22.4202 10.4411 22.8856 10.3329 23.3487 10.2153C23.8367 10.0914 24.3184 9.93332 24.7833 9.73675C25.2201 9.55216 25.6329 9.2564 26.1135 9.22743C26.5203 9.20285 26.6474 9.71908 26.422 9.99073C26.1114 10.3651 25.5529 10.5124 25.0987 10.6514L25.0346 10.6712C24.5322 10.8284 24.0182 10.9463 23.4986 11.0251C22.8149 11.1288 22.0248 11.1763 21.2933 11.0701C22.754 11.9479 24.0981 13.0357 25.4384 14.0966L25.6749 14.2835C26.9844 15.3161 28.2625 16.4292 29.1962 17.842C30.0677 19.1609 30.594 20.6964 30.8893 22.2522C31.035 23.0197 31.1311 23.7954 31.1956 24.5743C31.436 25.2649 31.3974 26.086 31.3369 26.8455L31.3153 27.1077L31.3169 27.1846C31.3259 27.6596 31.5122 28.7173 31.0735 29.0761C31.066 29.1143 31.0591 29.1527 31.0512 29.191C31.1059 29.1564 31.1598 29.1208 31.2133 29.0843C31.2353 29.0692 31.2566 29.0526 31.2781 29.0362L31.3387 28.9852C31.341 28.9832 31.343 28.9815 31.3446 28.9801C31.4808 28.8576 31.6107 28.7297 31.7317 28.5915C31.9554 28.336 32.1681 28.0113 32.3695 27.6373C32.812 26.8152 33.0948 25.9215 33.3134 24.9975C33.7132 23.3082 33.8781 21.4938 33.6958 19.7614C33.6703 19.5195 33.6181 19.2163 33.5371 18.9052C33.3447 18.1666 33.1233 17.4357 32.8755 16.7147C32.3798 15.2724 31.7722 13.8731 31.0637 12.5274C29.6248 9.79424 27.7734 7.26732 25.5551 5.14682C23.3087 2.99933 20.3954 1.28866 17.2719 1.11999ZM12.9129 9.85269C13.0244 9.78292 13.1391 9.91844 13.0838 10.0278C12.8161 10.5571 12.3661 11.0039 11.9923 11.4574C11.6052 11.927 11.2209 12.3992 10.8376 12.872C10.0571 13.8348 9.29535 14.8152 8.56361 15.8175L8.37044 16.0826C7.72712 16.9677 7.09161 17.8668 6.52924 18.8072C6.23504 19.2991 5.97575 19.8079 5.7403 20.3319C5.51617 20.8307 5.41279 21.4327 5.14345 21.9013C5.1265 21.9308 5.07397 21.9284 5.06746 21.891C4.97955 21.3866 5.19673 20.7789 5.3519 20.3065C5.53637 19.7447 5.7989 19.2096 6.07994 18.6928C6.66613 17.6147 7.3685 16.6041 8.07413 15.6058C8.79078 14.5921 9.5348 13.5991 10.3154 12.6361C10.682 12.1838 11.0569 11.7405 11.443 11.3059L11.5883 11.1434C11.9926 10.6938 12.4002 10.1735 12.9129 9.85269ZM11.039 8.28539C11.2223 8.14623 11.3787 8.43062 11.2618 8.58139C10.5634 9.48188 9.76865 10.291 9.00428 11.1308C8.27024 11.9374 7.56861 12.7741 6.90657 13.6437C5.55666 15.417 4.4761 17.3629 3.56092 19.4022C3.54368 19.4407 3.48937 19.412 3.49751 19.3748C3.98226 17.169 5.11556 15.1655 6.40597 13.3553L6.45505 13.2867C7.76026 11.4663 9.2606 9.63644 11.039 8.28539Z" fill="black"/>
</svg>
