<svg width="35" height="42" viewBox="0 0 35 42" fill="none" xmlns="http://www.w3.org/2000/svg">
<path fill-rule="evenodd" clip-rule="evenodd" d="M32.1721 27.167C30.9219 21.4936 30.6783 15.2631 27.3786 10.3093C25.9367 8.28938 23.6198 5.65546 20.9133 6.4856C21.0248 5.28953 21.1301 4.09294 21.2275 2.89561C21.2832 2.21072 21.5393 1.2982 20.9603 0.771606C20.0043 -0.00113516 18.4218 1.18131 17.6829 1.84198C16.0823 3.37635 15.4502 4.86664 13.3417 5.89138C12.4965 5.28842 11.6728 4.65575 10.815 4.06909C9.94084 3.47131 8.69046 2.50027 7.78334 3.60383C7.01453 4.53923 7.50564 6.01368 7.8105 7.04286C7.96641 7.56923 8.12136 8.14375 8.33802 8.68509C8.35629 9.09657 8.38811 9.50731 8.4348 9.91686C6.8729 10.1951 5.26541 10.4292 3.77314 10.9752C2.95934 11.4164 3.03111 12.4186 3.60843 13.0184C4.4724 13.856 5.56569 14.5109 6.75924 14.9506C6.54251 15.7014 6.02298 16.338 5.36975 16.7543C5.15065 16.8934 5.02774 17.0973 4.98327 17.3149C4.64844 17.4815 4.28993 17.6016 3.91122 17.6796C3.44416 17.7761 3.17429 18.328 3.29468 18.7666C3.63388 19.8325 4.82921 19.2232 5.60572 19.148C5.6291 19.8923 5.64124 20.668 5.97888 21.3575C4.1742 21.8316 2.61082 23.5603 3.02808 25.508C3.40708 27.3699 5.41481 27.9389 7.00409 28.362C7.12448 28.4329 7.12411 28.5026 7.16237 28.6784C7.42461 29.8855 7.20381 31.2134 6.79039 32.3593C6.6777 32.6717 6.8433 33.0626 7.09363 33.2499C8.38789 34.0749 8.81699 31.5626 10.2924 33.1617C10.1823 33.1452 9.90835 33.008 9.92241 33.2067C11.8365 36.5694 17.4882 36.776 20.951 36.8586C21.3665 37.0609 21.845 36.9462 22.3203 36.817C22.7739 36.7924 23.2269 36.7584 23.6787 36.7123C24.5037 36.5632 25.9549 36.7399 26.0067 35.5767C28.1374 34.7353 29.9693 33.2818 31.2187 31.3558C32.1454 30.0778 32.5113 28.7251 32.1721 27.167Z" fill="white"/>
<path fill-rule="evenodd" clip-rule="evenodd" d="M19.2503 0.346463L19.3747 0.292091C19.8035 0.106201 20.2718 -0.0720651 20.7413 0.0295744C21.2821 0.146611 21.5947 0.612167 21.7286 1.11972C21.8835 1.70683 21.9528 2.3318 21.9952 2.93609C22.0391 3.56194 22.0222 4.18646 21.9751 4.81135C21.9358 5.33394 21.8546 5.93957 21.6603 6.44609C21.6685 6.43868 21.6785 6.4332 21.6903 6.43194C22.4551 6.3535 23.1599 6.3992 23.8903 6.6458C24.5707 6.8755 25.2303 7.1978 25.8224 7.60498C27.1014 8.48439 28.0909 9.81254 28.7804 11.1876C30.1809 13.9811 30.4763 17.1413 30.8688 20.1963L30.8807 20.2888C31.0919 21.9224 31.3724 23.5313 31.8224 25.116L31.9002 25.3861C32.3132 26.8358 32.5597 28.2461 32.2303 29.747C31.5934 32.6492 29.3483 34.8399 26.7512 36.1044C25.4252 36.75 23.9905 37.2264 22.5413 37.5011C21.055 37.7828 19.4463 37.83 18.0911 37.0603C17.4192 36.6787 18.0107 35.704 18.6898 36.0349C20.0911 36.7178 21.6793 36.493 23.1339 36.1175C24.5807 35.7441 25.9997 35.2213 27.2817 34.4448C29.4817 33.1123 31.3328 30.8119 31.3934 28.1405C31.4275 26.6374 30.7859 25.202 30.4765 23.7508C30.2038 22.4719 30.0346 21.1743 29.8749 19.8768L29.7565 18.9131C29.413 16.1492 28.9828 13.3039 27.5649 10.8611C26.3133 8.70491 24.1575 6.99031 21.6764 6.53424C21.6615 6.53157 21.6517 6.52439 21.6458 6.51528C21.5698 6.92439 21.1194 7.30587 20.8312 7.54128C20.4228 7.87506 19.928 8.11691 19.3898 8.10609C18.3519 8.08528 17.4607 7.27957 16.7493 6.60483C16.6691 6.52883 16.756 6.42276 16.8472 6.43654C17.6728 6.56091 18.3807 7.23239 19.227 7.22239C19.6625 7.2172 19.9962 6.98328 20.2806 6.67224C20.3868 6.55594 20.4802 6.41557 20.5812 6.28654C20.6061 5.94757 20.702 5.6152 20.7449 5.2778C20.785 4.96298 20.8193 4.64335 20.8396 4.32617C20.8811 3.67891 20.868 3.02683 20.7964 2.38202C20.7657 2.10525 20.7268 1.82591 20.6665 1.55335L20.6382 1.43051C20.6008 1.26165 20.5763 1.10779 20.3724 1.12513C19.9191 1.1635 19.4124 1.44032 19.016 1.6492C17.4793 2.45935 16.362 3.71202 15.5373 5.18365C15.5891 5.20957 15.6386 5.24372 15.6848 5.28817C15.7778 5.37757 15.8255 5.53506 15.7829 5.65972C15.6183 6.1415 15.033 6.15557 14.6212 6.34424C14.1725 6.54972 13.751 6.81387 13.3519 7.1032C12.5662 7.67269 11.8443 8.34172 11.158 9.02609C10.077 10.1037 9.07313 11.2506 8.10371 12.4273L7.89741 12.8886C7.6915 13.3498 7.49008 13.8125 7.32343 14.2929C7.05216 15.0741 6.82492 15.8727 6.65021 16.6811C6.4744 17.4947 6.35978 18.327 6.31635 19.1583C6.27757 19.9001 6.37591 20.6414 6.37177 21.3788C6.43762 21.5022 6.46145 21.6412 6.43045 21.7829C6.63778 21.8416 6.83861 21.9312 7.02722 22.0548C7.07317 22.085 7.04402 22.157 6.98978 22.1436C6.75063 22.0847 6.5114 22.0716 6.27713 22.0944C6.15281 22.2479 5.95155 22.3456 5.75627 22.3413L5.67295 22.3394C5.61191 22.3381 5.55138 22.3283 5.49292 22.3116C5.16334 22.4637 4.86011 22.6826 4.60342 22.9442C3.98622 23.5732 3.68816 24.3973 3.73197 25.2776C3.77533 26.146 4.23736 26.9293 5.00262 27.3464C5.34397 27.5324 5.72327 27.6303 6.1113 27.6375C6.48461 27.6442 6.97454 27.5307 7.28125 27.7742C7.31573 27.8016 7.33845 27.838 7.35243 27.8783C7.37382 27.7879 7.39654 27.6976 7.42132 27.6078C7.44027 27.5391 7.55444 27.5311 7.56843 27.6078L7.58643 27.7077C7.84344 29.1581 7.93383 30.6513 8.95489 31.8121C9.43246 32.3551 10.0082 32.8448 10.5989 33.2605L10.6966 33.3287C10.9489 33.5031 11.2215 33.6725 11.5224 33.7356C11.8567 33.8057 12.1331 33.7865 12.4405 33.9704C12.585 34.0569 12.6738 34.2479 12.6206 34.4135C12.2795 35.4766 10.9354 34.9991 10.2578 34.5788C9.88102 34.3451 9.51437 34.0627 9.17369 33.7516C8.8766 33.9328 8.52379 34.0496 8.22063 34.0951C7.75305 34.1651 7.25661 34.0678 6.88389 33.7655C6.48957 33.4458 6.35468 32.9806 6.42164 32.4868C6.45496 32.241 6.51865 32.0013 6.58727 31.7633L6.644 31.5689C6.72673 31.2858 6.7914 30.9936 6.95818 30.7464C7.04239 30.6217 7.24225 30.6335 7.28554 30.7893C7.38462 31.1458 7.34174 31.5482 7.31609 31.9196L7.31055 32.0047C7.29376 32.284 7.17484 32.7125 7.41947 32.9194C7.71413 33.1686 8.0366 33.0548 8.35034 32.8831C8.31838 32.8441 8.28678 32.8048 8.25577 32.7655C7.24055 31.4738 6.98808 29.8658 7.26616 28.294C7.00414 28.6381 6.32116 28.7125 5.95872 28.6858C5.3897 28.6439 4.82977 28.4707 4.3451 28.1662C3.32995 27.5288 2.759 26.4108 2.73473 25.2215C2.71105 24.0667 3.22717 22.8988 4.1789 22.2263C4.43034 22.0487 4.71005 21.9106 5.00203 21.8198C4.86011 21.2556 4.84509 20.6324 4.87587 20.0225C4.53542 20.0689 4.16684 20.0087 3.85902 19.9038L3.81124 19.8871C3.33683 19.717 2.73431 19.3751 2.64549 18.8415C2.53612 18.1852 3.34519 17.808 3.81462 17.5459C4.03419 17.4233 4.25871 17.3086 4.49179 17.214L4.56198 17.1862C4.76317 17.1088 5.00003 16.9642 5.20426 17.0793C5.21884 17.0876 5.22239 17.1032 5.22025 17.1185C5.17984 17.4034 4.71352 17.6457 4.50619 17.8253C4.34695 17.9632 4.19304 18.1075 4.04534 18.2578C3.94959 18.3553 3.80559 18.6016 3.68276 18.6707C3.73981 18.7005 3.80818 18.774 3.85584 18.8022C3.99007 18.8814 4.13162 18.9373 4.28309 18.9734C4.50826 19.0274 4.7338 19.0042 4.95926 18.9991C5.0508 18.1009 5.21699 17.2223 5.48456 16.3594C5.93334 14.9117 6.66894 13.3866 7.71834 12.2421C8.48783 10.799 9.48166 9.48083 10.6168 8.30209C11.3448 7.54617 12.1138 6.81269 12.9668 6.19846C13.3449 5.92618 13.7426 5.68086 14.1648 5.48321L14.305 5.41881C14.5394 5.31027 14.8244 5.16936 15.0962 5.12906C15.272 4.43069 15.5852 3.76276 15.9652 3.15735C16.4888 2.3232 17.178 1.61965 17.9843 1.0575C18.3822 0.780019 18.8062 0.541426 19.2503 0.346463ZM5.26247 24.6704C5.93901 24.2155 6.76873 24.0375 7.5772 24.1047C7.97826 24.138 8.37496 24.2321 8.7508 24.376L8.90573 24.4372C9.2647 24.5812 9.64998 24.7589 9.66285 25.1936C9.66795 25.3652 9.54105 25.5018 9.38788 25.5552C9.01428 25.6852 8.71156 25.3738 8.40307 25.2082C8.09162 25.0408 7.76057 24.9304 7.41952 24.841C7.38681 24.8324 7.35403 24.8247 7.32133 24.8169C7.33909 24.8525 7.34915 24.8919 7.34567 24.9344C7.33724 25.036 7.30771 25.1116 7.279 25.2068C7.27034 25.2357 7.24925 25.4121 7.22765 25.4338C7.23468 25.4938 7.23542 25.5506 7.23727 25.611C7.24245 25.7895 7.22047 25.9402 7.12946 26.0982C6.90273 26.4918 6.2546 26.5281 6.03757 26.0982C5.82054 25.6684 5.99014 25.2478 6.31994 24.9388C6.40985 24.8547 6.52972 24.769 6.65995 24.7098C6.20266 24.6681 5.74026 24.6878 5.28341 24.748C5.23886 24.7539 5.23206 24.6909 5.26247 24.6704ZM5.30292 10.2521C6.23083 10.0942 7.19988 10.0627 8.13637 10.1561C8.18742 10.1613 8.20652 10.2391 8.14932 10.2516C6.72527 10.5646 5.24905 10.6703 3.97851 11.4543L3.92001 11.491C3.79807 11.5686 3.50793 11.7152 3.44755 11.8533C3.37629 12.0163 3.56927 12.2257 3.65903 12.3434C3.86082 12.6075 4.11152 12.8381 4.38826 13.0216C4.68062 13.2154 4.99495 13.3649 5.33304 13.4594C5.49361 13.5043 5.66017 13.5271 5.81889 13.5782C5.99959 13.6363 6.0579 13.7289 6.19479 13.85C6.35255 13.9894 6.29957 14.257 6.12945 14.3571L6.0817 14.3849C5.85816 14.5129 5.7339 14.5507 5.44995 14.5006C5.22782 14.4613 5.01567 14.3836 4.80774 14.2972C4.42571 14.1384 4.07704 13.9305 3.75533 13.6716L3.70728 13.6324C3.13277 13.157 2.15936 12.1172 2.80053 11.3601C3.36645 10.6921 4.47853 10.3924 5.30292 10.2521ZM7.5882 3.04951C8.47815 2.00003 9.73504 2.71663 10.6268 3.34411C11.588 4.02026 12.4219 4.81781 13.0961 5.78144C13.139 5.8427 13.0561 5.91722 12.9965 5.88122C12.2489 5.43003 11.4935 4.99811 10.7267 4.57996C10.4118 4.40826 10.0965 4.24071 9.77439 4.0838L9.60219 4.00088C9.33311 3.86792 8.94676 3.62528 8.65981 3.78351C8.04103 4.1249 8.42295 5.2431 8.55044 5.78465L8.56206 5.83574L8.95089 7.6179L9.12805 8.42026C9.19102 8.47137 9.24341 8.53974 9.28048 8.62788C9.38082 8.86618 9.29891 9.18811 9.0562 9.31314C8.33985 9.68218 8.09729 8.96144 7.9624 8.41981C7.85278 7.97981 7.74202 7.54007 7.63103 7.10043L7.44742 6.37386C7.1662 5.27398 6.76696 4.0179 7.5882 3.04951Z" fill="black"/>
</svg>
