<svg width="36" height="42" viewBox="0 0 36 42" fill="none" xmlns="http://www.w3.org/2000/svg">
<g clip-path="url(#clip0_5_252)">
<path fill-rule="evenodd" clip-rule="evenodd" d="M29.3337 12.8311C29.0398 11.1008 30.0043 10.7418 29.3337 9.09696C27.8433 6.04929 23.7817 6.1806 20.8012 5.94627C17.4769 5.82227 14.1122 6.2494 11.0476 7.54615C10.3156 7.85585 9.61147 8.22009 8.93653 8.63392C8.35292 8.9918 8.43314 9.67225 8.80113 10.0434C6.14756 13.7006 7.66526 18.6096 5.54796 22.4592C5.15683 23.1474 4.63951 23.7644 4.29953 24.4804C3.78274 25.5688 3.74964 27.1282 4.92158 27.851C6.57217 28.7132 7.49326 27.0061 8.30428 29.4808C12.3547 38.1097 20.4984 38.5957 28.2293 34.0969C28.8982 33.7348 29.5808 33.3255 30.0859 32.7567C31.2323 31.501 31.0973 29.7352 31.1227 28.1672C31.1368 27.2483 31.1392 26.3292 31.13 25.4102C31.0939 21.6874 29.8261 16.5232 29.3337 12.8311Z" fill="white"/>
<path fill-rule="evenodd" clip-rule="evenodd" d="M12.8675 2.48203C17.5353 0.421286 22.8296 -0.360196 27.9214 0.152397C30.4346 0.405004 32.9147 0.946956 35.2749 1.8273L35.4818 1.90511C36.0644 2.12336 36.6925 2.33999 37.1352 2.78425C37.6506 3.30054 37.7951 4.08129 37.4267 4.71906C37.1406 5.21462 36.6261 5.5701 36.0773 5.7598C36.2706 5.91388 36.4541 6.08573 36.6261 6.27758C36.916 6.59906 36.9381 7.05751 36.6261 7.37462C36.0248 7.98573 35.2447 8.42788 34.4044 8.6398C34.4988 9.08351 34.4478 9.57462 34.2453 10.0168C33.6644 11.2862 32.0279 11.4375 30.7686 11.3622L30.7306 11.3598L30.6606 12.1398C30.6233 12.5554 30.3675 12.8776 29.9337 12.9413C29.9185 12.9435 29.9032 12.945 29.8881 12.9464C30.5746 15.3628 30.9894 17.8538 31.3722 20.3302C31.5722 21.6228 31.7513 22.9185 31.9227 24.215L31.9796 24.6472C32.1622 26.045 32.3905 27.4568 32.4697 28.865C32.5405 30.1428 32.2901 31.3628 31.481 32.3939C30.7549 33.3183 29.7648 34.0109 28.7 34.525C26.2941 35.6871 23.762 36.5524 21.1012 36.9539L20.9237 36.9805C19.8966 37.133 18.8384 37.2616 17.8223 36.985C16.9297 36.742 15.9934 36.1154 16.1951 35.1087C16.2629 34.7687 16.7515 34.7539 16.9189 35.0168L16.9576 35.0771C17.1584 35.3871 17.3784 35.6753 17.7288 35.8353C18.139 36.0235 18.6146 36.076 19.0629 36.0813C20.3149 36.0954 21.6187 35.7917 22.8243 35.4872C25.0756 34.9184 27.3878 33.9909 29.232 32.5857C30.0167 31.9887 30.6469 31.242 30.8691 30.2813C31.1439 29.0968 30.8912 27.802 30.7664 26.6117C30.5095 24.1554 30.2038 21.7037 29.8812 19.2547L29.8165 18.765C29.5449 16.7176 29.2595 14.6694 29.1239 12.6102C29.0676 12.5354 29.0295 12.4502 29.0143 12.3568L28.9931 12.2228C28.9747 12.108 28.9717 12.0028 28.9846 11.9057C28.9854 11.5339 28.996 11.1642 29.0181 10.7923C29.0218 10.7257 29.025 10.6591 29.0273 10.5931C28.63 10.6783 28.2296 10.7472 27.8278 10.8057C25.0026 11.2198 22.1332 11.3235 19.2852 11.1176C17.8642 11.0145 16.454 10.8376 15.0481 10.6161C14.3326 10.5035 13.6196 10.3791 12.9087 10.2398C12.3949 10.1398 11.8919 10.0042 11.3865 9.87684C10.8651 10.6154 10.5835 11.5242 10.6383 12.4168C10.7 13.4354 11.3971 14.3591 11.2015 15.3998C11.018 16.3738 10.1606 16.6758 9.31407 16.917L8.95404 17.0183C8.67707 17.097 8.47595 17.1729 8.42581 17.4968C8.33981 18.0531 8.4456 18.6791 8.46767 19.2383C8.49431 19.8998 8.52924 20.5613 8.5453 21.2228C8.55368 21.565 8.5673 21.9087 8.56661 22.2509C8.56585 22.4939 8.52856 22.6598 8.4319 22.8168C8.50649 22.908 8.57339 23.0065 8.63283 23.1109C8.65186 23.145 8.60467 23.1812 8.57658 23.1531C8.50116 23.0768 8.42117 23.008 8.33676 22.9464C8.29414 22.9976 8.24467 23.0494 8.18675 23.105L8.18226 23.0991C8.00112 23.2746 7.71342 23.2917 7.48882 23.105L7.42989 23.0553C7.2655 22.915 7.15254 22.7982 7.10683 22.5665C7.10454 22.5546 7.10218 22.5428 7.10074 22.5309C6.68289 22.5168 6.2582 22.6131 5.88222 22.8154C5.28628 23.1361 4.86691 23.5931 4.61887 24.1576C4.71773 24.2702 4.83342 24.3709 4.96814 24.4554C4.98716 24.468 4.97042 24.4954 4.94987 24.4857C4.81211 24.4228 4.68881 24.345 4.57845 24.2539C4.48941 24.4761 4.42699 24.7146 4.38894 24.9672C4.25499 25.8591 4.49397 26.9487 5.32205 27.4568C5.68053 27.6768 6.09 27.7961 6.51469 27.7976C6.72163 27.7982 6.90057 27.7642 7.1015 27.7161C7.23774 27.6835 7.37321 27.6361 7.51554 27.6361C7.63731 27.6361 7.74995 27.6657 7.85423 27.725L7.82531 27.7275C7.75503 27.7339 7.76855 27.7368 7.8664 27.7368C8.17084 27.7494 8.34506 28.0502 8.20509 28.3117L8.18673 28.3521C8.18286 28.3602 8.17958 28.367 8.17701 28.3723L8.16595 28.4417C8.16485 28.4483 8.16369 28.4551 8.16247 28.462L8.15824 28.4761C8.15748 28.4783 8.15664 28.4805 8.15562 28.4828L8.61221 29.1604C9.17201 29.9894 9.74431 30.8152 10.3955 31.5724C10.8522 32.1035 11.3363 32.6243 11.8477 33.1065C12.3074 33.5398 12.8585 33.7487 13.379 34.0894C13.6569 34.2702 13.7383 34.6487 13.4857 34.8924C12.7443 35.6087 11.6947 35.0398 11.0866 34.4576C10.5112 33.9057 10.0142 33.242 9.58573 32.5776C8.82539 31.3961 8.22031 30.1398 7.95545 28.7761C7.84509 28.8746 7.70429 28.9361 7.56196 28.9842C7.27655 29.0805 6.96222 29.1205 6.66082 29.1309C6.08315 29.1494 5.50471 29.0131 4.98488 28.7717C2.86979 27.7902 2.55926 24.8509 3.85236 23.1176C3.678 22.6255 3.58062 22.0915 3.47482 21.6362L3.42668 21.4326C2.89204 19.1591 2.53294 16.7654 3.48095 14.5376C3.60272 14.2502 3.73972 13.9702 3.90184 13.702C4.03198 13.4865 4.25575 13.2568 4.3174 13.0117C4.45439 12.4731 3.60881 11.9072 3.36222 11.4798C3.07224 10.9783 3.03114 10.3865 3.42615 9.92788C3.47638 9.87017 3.5311 9.81677 3.59055 9.77017C3.21609 9.10943 3.19858 8.27832 3.69177 7.62647C4.016 7.19684 4.51072 6.8961 5.0511 6.80499C5.38141 6.74943 5.77871 6.77017 6.14175 6.86943C8.12967 5.07314 10.3978 3.5724 12.8675 2.48203ZM5.23372 24.9583C5.76428 24.5028 6.35033 24.2643 7.07338 24.3243C7.80023 24.3849 8.67549 24.6776 9.10239 25.2843C9.43963 25.7635 8.75236 26.4665 8.25765 26.1065C7.80708 25.7783 7.50636 25.408 6.94703 25.2317C6.44463 25.0739 5.82281 24.9724 5.29689 25.0628C5.23905 25.0724 5.18128 25.0028 5.23372 24.9583Z" fill="black"/>
</g>
<defs>
<clipPath id="clip0_5_252">
<rect width="36" height="42" fill="white"/>
</clipPath>
</defs>
</svg>
