<svg width="39" height="45" viewBox="0 0 39 45" fill="none" xmlns="http://www.w3.org/2000/svg">
<path fill-rule="evenodd" clip-rule="evenodd" d="M33.2556 16.3C34.7502 15.3773 36.7896 13.0229 35.6305 11.2376C35.1598 10.5395 34.5179 10.277 33.8133 10.256C33.6453 10.0531 33.3662 9.99366 33.1057 9.99223L33.1072 9.98151C32.1551 9.99834 31.2193 10.3194 30.4535 10.8554C29.9598 10.4379 29.3466 10.2004 28.7526 9.94366C29.0017 8.7377 29.3818 7.56135 29.8134 6.40532C30.0464 5.73969 29.3085 5.0385 28.6127 5.23961C28.7839 4.51802 28.3906 3.67993 27.5339 3.68921C27.0759 3.68921 26.5576 3.92556 26.1147 4.03207C25.7866 4.11096 25.4635 4.19191 25.1469 4.29485C25.1454 4.28659 25.1446 4.27826 25.1436 4.26985C25.9734 3.71064 25.9445 2.42318 24.7251 2.54802C24.2049 2.59223 23.6761 2.93302 23.195 3.14112C22.4021 3.18707 21.6406 3.42961 20.8698 3.60366C18.7608 4.10723 16.5044 4.61326 14.7668 5.89104C11.7574 7.00739 8.0144 8.73318 7.64155 12.1445C2.3411 10.1706 -1.66304 16.4739 3.14377 18.9543C4.08703 19.3775 5.17738 19.5967 6.20927 19.3931C5.96546 20.261 5.73245 21.1319 5.51436 22.0063C3.67872 26.0659 2.19458 30.3561 2.72846 34.8118C2.73629 35.6202 3.81477 36.0864 4.4109 35.4826C4.90405 34.9099 5.50241 35.5794 5.34162 36.1323C5.18925 36.7465 5.63854 37.3104 6.29205 37.3332C7.07412 37.3726 7.69531 36.8678 8.24873 36.4015C8.2381 36.4116 8.26333 36.3963 8.3001 36.3724C9.66568 39.4726 10.9452 37.0621 12.6283 38.457C13.0216 38.8067 13.2975 39.221 13.8014 39.4484C14.9831 40.0247 15.9161 38.9975 17.0449 38.8789C18.0884 38.8049 19.1201 39.1526 20.1206 39.3866C21.2891 39.6597 22.4672 39.8027 23.6674 39.6746C25.2021 39.5106 28.264 38.8432 29.1702 38.2936C30.2805 39.0109 31.4231 38.1601 32.0334 37.1805C32.4602 37.576 33.2679 37.6367 33.6109 37.0267C33.952 36.3464 34.5897 35.3068 35.3231 35.4608C35.3885 35.4801 35.4269 35.4921 35.4669 35.5201C36.1523 36.081 37.0372 35.6552 37.1374 34.84C37.7871 29.5585 36.4618 24.2602 34.6996 19.2899C34.3148 18.2506 33.9957 17.1702 33.2556 16.3Z" fill="white"/>
<path fill-rule="evenodd" clip-rule="evenodd" d="M32.6499 16.1541C32.6222 16.081 32.7386 16.0389 32.777 16.1026C34.0365 18.1865 35.0432 20.4002 35.9043 22.6614C36.6664 24.663 37.3423 26.7033 37.8239 28.7853L37.8566 28.9286C38.3096 30.9379 38.5329 33.0634 37.9388 35.0679L37.9101 35.1632C37.7733 35.6091 37.5926 36.0619 37.17 36.3267C36.8151 36.5491 36.4136 36.5769 36.005 36.5151C35.6606 36.463 35.3326 36.3185 34.9876 36.2785C34.7275 36.2484 34.6595 36.3686 34.5837 36.571L34.5207 36.7423C34.2503 37.4682 33.9202 38.1438 33.0381 38.2968C32.5631 38.3792 32.047 38.2937 31.6355 38.0533C31.6307 38.0687 31.6259 38.0841 31.622 38.0988L31.6025 38.1703C31.5164 38.4807 31.4056 38.7963 31.1775 39.0376C30.8589 39.3742 30.402 39.4936 29.9415 39.4042C29.7322 39.3637 29.5357 39.2722 29.337 39.1959C29.2885 39.4775 28.9525 39.7069 28.6451 39.6376C28.4788 39.6001 28.3506 39.5272 28.2551 39.4334C27.7803 39.786 27.1398 39.9664 26.585 40.1031C25.7817 40.301 24.9268 40.3822 24.0984 40.3584C23.2576 40.3342 22.4021 40.1784 21.6112 39.9042L21.4876 39.8609C20.8053 39.6186 20.0871 39.312 19.5344 38.859C19.4245 38.807 19.4888 38.615 19.6197 38.6557C20.3705 38.8894 21.0709 39.1639 21.8589 39.2763C22.6024 39.3823 23.3492 39.3999 24.0984 39.3562C24.8581 39.312 25.5953 39.1628 26.3203 38.9422C26.9512 38.7502 27.5726 38.4035 28.2426 38.3582C28.2776 38.3116 28.3155 38.2666 28.3593 38.2256C28.9389 37.6837 29.526 37.9548 30.1782 38.1521C30.1997 38.1587 30.2057 38.1696 30.2058 38.1803L30.2137 38.1694L30.2189 38.1628L30.215 38.1674C30.1879 38.1968 30.2422 38.0873 30.2518 38.065L30.2528 38.0626C30.3278 37.8657 30.3568 37.6541 30.4202 37.4538C30.5714 36.9756 30.8542 36.538 31.3957 36.4236C31.663 36.367 32.0273 36.4532 32.1511 36.7195C32.253 36.9384 32.4199 37.0494 32.6767 37.0436C32.9449 37.0376 33.0436 36.8871 33.137 36.6603C33.289 36.2912 33.371 35.9072 33.6207 35.5817C33.9014 35.2155 34.321 35.0017 34.7951 34.9841C35.1605 34.9707 35.5183 35.0733 35.8658 35.1682L35.8978 35.1775C36.0564 35.2254 36.3399 35.3333 36.4638 35.2537C36.6496 35.1344 36.7455 34.4387 36.7993 34.1785L36.8028 34.1622C36.8985 33.7187 36.9541 33.2719 36.9767 32.8196C37.0709 30.9279 36.6657 29.0459 36.2176 27.2149C35.2933 23.4388 34.0282 19.7961 32.6499 16.1541ZM6.31385 20.771C6.33884 20.735 6.39342 20.7662 6.37388 20.8049C6.28326 20.9843 6.2502 21.1728 6.18902 21.3597C6.12133 21.5666 6.00631 21.7672 5.92097 21.968C5.78278 22.2932 5.64896 22.6203 5.51398 22.9467C5.24263 23.603 4.99033 24.2693 4.75122 24.9372C4.2711 26.2791 3.8787 27.6585 3.59169 29.0506C3.30962 30.4183 3.07347 31.8483 3.08246 33.2464C3.0865 33.8822 3.15865 34.5368 3.42076 35.1272C3.46185 35.2199 3.5101 35.3106 3.56125 35.3988L3.59226 35.4514C3.59663 35.4589 3.60121 35.4663 3.60589 35.4736L3.63423 35.5172C3.717 35.4004 3.95555 35.2457 4.054 35.1638L4.06769 35.1521L4.52958 34.7408C4.73068 34.5616 5.02084 34.5185 5.26399 34.6495C6.0031 35.0477 5.97913 35.787 6.13734 36.4849L6.14433 36.5152C6.21318 36.8084 6.33224 37.0522 6.69718 36.9946C7.07792 36.9345 7.2979 36.562 7.42224 36.2416L7.43826 36.1992C7.65799 35.6028 8.44814 35.6266 8.67562 36.1992L8.76089 36.416C8.93731 36.8606 9.17767 37.3969 9.63298 37.5728C10.0158 37.7207 10.4545 37.4995 10.8026 37.3622C10.9941 37.2867 11.2175 37.4441 11.2686 37.6168C11.2824 37.6638 11.2918 37.7087 11.299 37.753C11.663 37.719 12.0115 37.8026 12.3695 37.9618C12.8381 38.1699 13.4274 38.6191 13.5154 39.1399C13.6197 39.7555 12.879 40.0461 12.4967 39.5533C12.256 39.2429 12.1689 38.866 11.8811 38.571C11.7121 38.3978 11.5019 38.2474 11.2814 38.1195C11.0842 38.7903 9.97771 38.9836 9.31817 38.785C8.68494 38.5945 8.26517 38.1453 7.95169 37.6199C7.36562 38.1714 6.55239 38.4383 5.73743 37.9572C5.26555 37.6787 5.04557 37.1914 4.96032 36.6853C4.93467 36.5332 4.93319 36.2831 4.88784 36.0634L4.84388 36.1065C4.44583 36.494 3.98306 36.8583 3.46141 36.7746C2.77763 36.6649 2.45302 35.9324 2.2398 35.3745C1.79637 34.2149 1.87808 32.9253 2.02831 31.7214C2.19288 30.4032 2.46827 29.0975 2.83271 27.8172C3.18816 26.5684 3.64833 25.3565 4.18971 24.1715C4.46568 23.5676 4.78395 22.9786 5.12604 22.4068C5.29788 22.1199 5.48496 21.8407 5.67295 21.5633C5.86696 21.277 6.11918 21.0514 6.31385 20.771ZM2.21744 12.611C3.22154 11.7141 4.56403 11.3052 5.9179 11.4897C6.55691 11.5766 7.16541 11.7989 7.70489 12.142C8.25213 12.4901 8.60668 12.9208 8.93418 13.4597C8.95702 13.4972 8.90515 13.5328 8.87349 13.5047C8.00048 12.7304 6.67852 12.3171 5.50366 12.3608C3.40995 12.4385 1.67416 14.2215 1.80427 16.2536C1.86833 17.2544 2.45276 18.2652 3.35643 18.7802C4.31412 19.326 5.40422 19.1448 6.43051 18.9045C6.80113 18.8178 6.9878 19.2186 6.77648 19.4766C5.7356 20.7477 3.5953 20.4153 2.39364 19.541C0.0716113 17.8517 0.151013 14.4568 2.21744 12.611ZM5.58904 14.6125L5.67811 14.5977C6.42721 14.4787 8.02201 14.3413 8.25662 15.2212C8.37618 15.6693 7.91379 15.9106 7.50911 15.8907C7.17542 15.8744 6.85205 15.7738 6.52265 15.7056C6.42808 16.0202 6.39592 16.3489 6.34983 16.6729C6.30959 16.9565 5.83557 16.8795 5.84118 16.6067C5.84909 16.2272 6.03222 15.9046 6.32048 15.6691C6.25319 15.6591 6.18558 15.6507 6.11731 15.6463C5.2984 15.5933 4.48929 15.7397 3.7243 16.01L3.80518 16.0537C3.84377 16.0666 3.82728 16.1162 3.78869 16.1111L3.40817 16.1295C3.24896 16.1654 3.15496 15.9903 3.25531 15.8767C3.84484 15.2083 4.69534 14.7659 5.58904 14.6125ZM32.9023 9.90226C34.0461 9.77036 35.1823 10.1761 35.7963 11.1446C36.3659 12.0431 36.4153 13.1807 36.0113 14.1462C35.7817 14.6948 35.4349 15.1868 35.0056 15.6098C34.7934 15.8189 34.5502 16.0347 34.2812 16.1731C33.968 16.3342 33.7348 16.3201 33.4043 16.261C33.1915 16.2229 33.0447 15.96 33.1127 15.7667L33.1633 15.6202C33.2186 15.4628 33.2704 15.3462 33.4217 15.1978C33.5538 15.0684 33.7119 14.9635 33.8571 14.8481C34.1693 14.5998 34.4595 14.3227 34.6765 13.9915C35.0732 13.3858 35.2107 12.6897 34.9867 11.999C34.7464 11.2573 34.11 10.7769 33.3126 10.6873C32.8599 10.6366 32.4004 10.6825 31.9539 10.7585L31.6816 10.8059C31.3018 10.8736 30.992 10.9522 30.73 11.2875C30.7079 11.3157 30.6651 11.3131 30.6523 11.2777C30.521 10.9135 30.9221 10.5885 31.2061 10.4163C31.6996 10.1175 32.3291 9.96837 32.9023 9.90226ZM27.9176 9.45882C27.8616 9.39017 27.9097 9.25097 28.019 9.29097C29.2931 9.7566 30.3661 10.8903 31.1006 11.9614C31.3229 12.2855 31.5222 12.622 31.7022 12.968C31.959 12.6675 32.3428 12.4501 32.7018 12.3023L32.7416 12.2862C33.1556 12.1206 34.0511 11.8373 34.3048 12.3678C34.3863 12.5385 34.3537 12.7137 34.2107 12.846C33.9896 13.0504 33.6366 12.973 33.3608 12.9706C32.8034 12.966 32.3608 13.1355 31.8676 13.3001C31.9574 13.4885 32.0423 13.6792 32.1213 13.8726C32.2291 14.1355 32.3086 14.4126 32.4393 14.6661C32.5634 14.9072 32.7583 15.1225 32.9247 15.3362C33.1494 15.6246 32.849 16.1121 32.4828 16.0775C31.7249 16.0057 31.4229 15.4029 31.2142 14.7639L31.1004 14.4144C30.9299 13.8924 30.7544 13.3808 30.4984 12.8842C30.169 12.2458 29.7762 11.6222 29.3242 11.057C28.8811 10.5029 28.3642 10.0082 27.9176 9.45882ZM25.9449 1.93482C26.4157 1.76593 26.8115 2.34759 26.5771 2.7264C26.3711 3.0591 26.2485 3.40267 26.2006 3.76315L28.2762 3.28712C28.6889 3.19251 29.0793 3.54355 28.9653 3.95045L28.6449 5.0937C29.0589 4.96045 29.4918 4.88148 29.9368 4.85363C30.3181 4.82982 30.5287 5.2087 30.4661 5.52236C30.3352 6.17581 30.1533 6.81731 29.911 7.44042L29.7339 7.88894C29.5256 8.41116 29.2826 8.93813 28.7805 9.23236C28.5379 9.3745 28.2234 9.19069 28.2222 8.9241C28.2193 8.27863 28.6332 7.72712 28.8633 7.13196C29.0029 6.77069 29.1214 6.40315 29.222 6.03093C28.8324 6.13697 28.4658 6.30515 28.1196 6.52694L28.0678 6.56061C27.6584 6.83073 27.1442 6.3918 27.246 5.97049L27.2499 5.95545L27.6411 4.54371L25.7805 4.97585C25.3971 5.06497 25.1026 4.80704 25.0663 4.45212C25.0277 4.07482 25.0525 3.69934 25.134 3.33569C23.9043 3.7084 22.6494 3.9984 21.3906 4.26931L21.2018 4.30982C18.4392 4.90029 15.6165 5.42164 13.082 6.68545C11.9627 7.24347 10.9364 7.9041 10.0029 8.72116C9.5417 9.1249 9.11979 9.56918 8.75041 10.0528C8.57715 10.2796 8.41509 10.5144 8.26662 10.757L8.14773 10.9544C8.09062 11.0498 8.03508 11.1479 8.00108 11.2506L7.98428 11.302C7.95679 11.3888 7.92705 11.503 7.9521 11.5791C7.98813 11.6888 8.19443 11.8691 8.34021 11.8197C8.36008 11.813 8.37014 11.8379 8.35892 11.8508C8.23046 11.9997 8.04956 12.0266 7.86553 11.9517C7.57447 11.8332 7.50191 11.5628 7.53407 11.2805C7.6138 10.582 8.11874 9.8118 8.51797 9.24164C10.162 6.89347 12.8673 5.48839 15.5961 4.60807C18.989 3.51347 22.5855 3.13974 25.9449 1.93482Z" fill="black"/>
</svg>
