<svg width="34" height="43" viewBox="0 0 34 43" fill="none" xmlns="http://www.w3.org/2000/svg">
<g clip-path="url(#clip0_5_184)">
<path fill-rule="evenodd" clip-rule="evenodd" d="M30.0883 21.477C30.0597 19.778 30.0281 18.0451 29.7887 16.3628C29.5547 14.718 28.9108 13.2313 27.8044 12.0369C25.4544 9.4999 22.048 8.88023 18.8771 8.31236L13.4559 7.34141C11.8019 7.04526 10.0375 6.57188 8.36644 6.99187C7.54303 7.19883 6.84377 7.67965 6.20467 8.2485C5.58864 8.79681 4.92633 9.38562 4.50891 10.1233C4.09078 10.862 3.94694 11.7256 3.81101 12.5611C3.65769 13.5031 3.53858 14.4524 3.45398 15.404C3.28441 17.3106 3.26126 19.2315 3.38425 21.142C3.44384 22.0686 3.53865 22.9926 3.6597 23.9126C3.71972 24.3687 3.78758 24.8238 3.8642 25.2772C3.88678 25.4109 3.90396 25.5589 3.9271 25.7085C3.75609 26.2216 3.65891 26.753 3.66675 27.2821C3.68982 28.8407 4.93675 29.822 6.19382 30.3488C6.9227 30.6543 7.68471 30.8619 8.40087 31.2031C9.15426 31.5621 9.66706 32.144 10.1822 32.8078C11.1646 34.0738 12.2732 35.2117 13.5391 36.161C16.223 38.1738 19.6225 39.1258 22.879 38.4033C23.6603 38.2299 24.4486 37.9607 25.1509 37.555C25.8925 37.1268 26.4501 36.5062 26.9183 35.7724C27.7877 34.4103 28.4112 32.8765 28.8829 31.3157C29.364 29.7236 29.7055 28.1285 29.8917 26.4684C30.0773 24.8136 30.1164 23.142 30.0883 21.477Z" fill="white"/>
<path fill-rule="evenodd" clip-rule="evenodd" d="M12.7887 1.4232C15.0321 1.09763 18.1285 2.15579 19.2458 4.28941C24.5798 2.9627 31.3075 2.91925 35.7038 7.33581C40.2912 12.5748 34.5292 19.4825 30.7085 21.0399C30.9866 22.4662 30.5529 31.6035 27.4839 35.6793C25.0483 39.1326 19.3763 40.7263 16.7517 36.6016L16.7312 36.5676C16.4501 36.0912 16.6922 36.1065 16.9809 36.4608C19.5509 38.8453 23.0453 38.8861 25.7381 36.3696C30.7847 31.7701 30.2644 20.4922 27.863 13.9678C21.0249 13.1755 13.7034 15.3621 8.98045 20.7928L9.29982 22.8213C9.35424 23.1669 9.41605 23.5122 9.46321 23.859C9.4934 24.0812 9.49678 24.3022 9.35086 24.482C8.86904 25.0759 8.05699 24.1835 7.38885 23.8286C7.19161 23.7994 6.994 23.7881 6.80021 23.8025C3.59012 24.2387 4.22261 30.8085 7.7507 29.6569C8.04714 29.4621 8.30182 29.5215 8.41683 29.8043C9.25777 30.6169 9.81227 32.0663 11.2094 33.4624C11.7024 33.986 12.151 34.4241 12.7055 34.8442C13.0312 35.1917 14.014 35.546 13.7024 36.1407C13.1133 37.4938 9.63917 33.2434 9.02495 32.068C7.10046 32.8698 4.96773 32.5974 2.97338 32.4015C-7.54794 31.8244 -6.14337 20.1233 2.4807 12.7359C4.10407 11.475 5.89515 10.4464 7.75695 9.65493C8.01113 9.54686 7.90007 9.10655 7.6423 9.21613C6.4104 9.73994 5.20947 10.3634 4.06468 11.085L4.06295 10.6536C4.06127 9.92697 4.07208 9.17049 4.1917 8.5066C4.2515 8.04656 4.35207 7.55521 4.5069 7.18558C4.69832 6.05233 7.69686 2.16246 12.7887 1.4232ZM6.6598 25.3108C6.82225 25.1479 7.12552 25.3421 7.27014 25.3372C7.63997 25.3906 7.99133 25.5554 8.26534 25.7588C8.44627 25.8657 8.57307 25.9662 8.67902 26.0585L8.6819 26.0577C8.68111 26.0577 8.6801 26.0585 8.67924 26.0588L8.68921 26.0659C8.84349 26.1815 9.40825 26.8329 9.05144 26.6577C9.02485 26.6212 8.9976 26.5862 8.97014 26.5519C8.9672 26.5566 8.9631 26.5612 8.95821 26.5657L8.97825 26.597C9.28152 27.0783 8.75792 26.5713 8.67737 26.4366C8.67356 26.4398 8.66925 26.442 8.66501 26.4444L8.76991 26.5791C8.78458 26.5982 8.79611 26.6135 8.80568 26.6264L8.8278 26.6489C9.17844 27.0126 9.18939 27.3398 8.78203 26.8022C8.79806 26.8275 8.81093 26.8544 8.81272 26.8782L8.83686 26.9107C9.15671 27.3455 8.89655 27.1911 8.73762 27.0053L8.72432 26.9894L8.72704 26.9937C8.8749 27.234 8.58152 27.0654 8.52968 26.9369L8.5275 26.931C8.47101 26.8824 8.43625 26.8278 8.42432 26.8141L8.42212 26.8117C8.1471 26.5145 7.74844 26.2629 7.40981 26.1486C7.36071 26.1388 7.31104 26.1309 7.26087 26.1253C7.05723 26.0773 6.85136 26.0445 6.64334 26.0268C6.61789 26.0236 6.59208 26.0039 6.57282 25.9784C6.25825 25.9672 6.35536 25.8311 6.48587 25.8059L6.48815 25.8055L6.46226 25.8032C6.26038 25.7824 6.12252 25.706 6.32664 25.6591L6.3525 25.6536C6.34934 25.6484 6.34654 25.6432 6.34381 25.6379C6.16899 25.6177 6.28306 25.4384 6.38011 25.4818C6.33928 25.341 6.52588 25.4113 6.54917 25.3903C6.56693 25.3695 6.58899 25.3512 6.60172 25.3502C6.65793 25.3083 6.63068 25.3121 6.6598 25.3108ZM7.72942 23.0307L7.68845 23.0559C7.65531 23.0763 7.62124 23.0899 7.58703 23.0979C7.63533 23.1195 7.68306 23.143 7.73029 23.168C7.72952 23.1374 7.72898 23.1069 7.72898 23.0764L7.72942 23.0307Z" fill="black"/>
</g>
<defs>
<clipPath id="clip0_5_184">
<rect width="34" height="43" fill="white"/>
</clipPath>
</defs>
</svg>
