<svg width="34" height="45" viewBox="0 0 34 45" fill="none" xmlns="http://www.w3.org/2000/svg">
<g clip-path="url(#clip0_5_156)">
<path fill-rule="evenodd" clip-rule="evenodd" d="M30.9483 25.1475C31.3936 21.5996 30.4427 18.1758 29.2109 14.9332C29.1432 14.7358 29.0359 14.5647 28.898 14.4431C25.4216 6.70686 20.3134 6.00631 13.1872 6.53908C12.9766 6.53393 12.9641 6.53805 12.8043 6.45908C12.7778 3.31639 9.52695 1.6517 7.05315 2.68861C-3.91828 8.31789 -0.468399 24.1659 1.71486 34.5123C2.49377 38.5175 3.2729 42.5224 4.05195 46.5274C4.07811 46.6614 4.13325 46.7772 4.20657 46.8748C4.09342 46.9222 3.98021 46.9666 3.86915 47.0084C3.6157 47.1036 3.7164 47.5208 3.98021 47.4532C4.23877 47.3869 4.48791 47.2981 4.73439 47.2014C5.11867 47.2934 5.44084 47.0162 5.74253 46.7951C9.27523 45.2527 10.7583 40.1836 11.6644 36.4492C15.3484 39.3191 21.235 41.4684 25.4472 38.8878C29.3941 36.2635 30.8155 30.7893 30.5351 25.9577C30.8231 25.8113 30.9393 25.4923 30.9469 25.1596H30.9486C30.9485 25.1556 30.9483 25.1515 30.9483 25.1475Z" fill="white"/>
<path fill-rule="evenodd" clip-rule="evenodd" d="M6.04108 2.98423C6.85557 2.40169 7.90094 2.18487 8.86056 2.22733C9.37236 2.24994 9.85015 2.39082 10.322 2.60241C10.7593 2.7986 11.1449 3.08042 11.5707 3.29518C11.5966 3.3082 11.577 3.34828 11.5526 3.3428C11.0483 3.23044 10.4563 3.29831 9.945 3.37877L9.89415 3.38685C9.39162 3.46741 8.88026 3.50907 8.38492 3.63693C7.47245 3.87241 6.62375 4.3855 6.12295 5.27796C5.46904 6.44352 5.30141 7.95225 5.37136 9.29701C5.40672 9.9774 5.5282 10.6468 5.71739 11.2954C5.83097 11.6847 6.09484 12.0764 6.21812 12.4849C6.31193 12.2915 6.40875 12.1001 6.50903 11.911C6.05222 11.6733 5.92412 11.0126 5.90048 10.4165C5.8301 10.3414 5.78482 10.2327 5.78331 10.133C5.77928 9.86479 5.83643 9.62201 5.93361 9.39986C5.98911 8.77066 6.1067 8.14336 6.30912 7.55375C7.10363 5.23891 9.19963 3.15256 11.5765 3.35868C12.2298 3.41534 12.8654 3.72161 13.2032 4.37272C13.4746 4.89558 13.4764 5.52629 13.2892 6.08241C13.2337 6.24748 13.1615 6.39653 13.0767 6.53248C13.3335 6.46058 13.5908 6.39161 13.8476 6.32328C14.7387 6.08614 15.6343 5.90034 16.5466 5.79701C17.789 5.65637 19.0571 5.86915 20.1956 6.41669C20.5079 6.50534 20.8186 6.60058 21.1275 6.70233C22.4867 7.14979 23.8812 7.73423 24.9791 8.75558C25.4842 9.2255 25.8457 9.77217 26.1391 10.3725C27.2381 11.4543 28.289 12.6807 29.0308 14.0835C30.5592 16.9739 30.9243 20.5492 30.9871 23.8352C31.0448 26.8538 30.8046 29.9033 30.2923 32.8692C30.0597 34.2153 29.6837 35.4662 28.923 36.5701C28.076 37.7994 26.9462 38.7679 25.6785 39.4177C23.0976 40.7407 19.9032 40.9332 17.3946 39.2941C16.64 38.8011 17.3194 37.5161 18.0816 37.9964C20.5583 39.5568 23.7191 39.2003 26.1021 37.5461C27.1088 36.8472 27.9763 35.8916 28.5274 34.7214C28.9299 33.8666 29.1026 32.8865 29.2522 31.9321L29.3317 31.4216C29.7933 28.4868 30.0021 25.4766 29.891 22.4994C29.7802 19.5295 29.3536 16.3129 27.83 13.788C27.0263 12.4563 26.0015 11.2896 24.9251 10.2258C24.8495 10.1511 24.7737 10.0766 24.6979 10.0024C24.2772 9.72328 23.8411 9.47955 23.4121 9.27153L23.3208 9.22795C23.074 9.1118 22.7288 8.96175 22.4086 8.84177C21.9508 8.67026 21.4857 8.51788 21.0186 8.38058C20.7738 8.3086 20.5278 8.24256 20.2812 8.17947C20.3672 8.26653 20.4526 8.35439 20.5366 8.44447C20.9344 8.87121 21.2499 9.37836 21.6271 9.82582C21.6697 9.87629 21.616 9.94994 21.5618 9.91923C20.9882 9.59431 20.3522 9.38399 19.7534 9.12074C19.1871 8.87185 18.6369 8.58534 18.0807 8.31074C17.9414 8.24185 17.8026 8.16828 17.664 8.0955C17.1171 8.10169 16.5701 8.1159 16.0244 8.15026C16.6842 8.66875 17.2867 9.28153 17.7857 9.95352C17.8269 10.0088 17.7895 10.0975 17.7202 10.0779C16.6755 9.78252 15.6819 9.34844 14.6889 8.89354L14.2138 8.67518C13.8646 8.65566 13.5149 8.64653 13.1651 8.65225L12.9956 8.65536C12.6284 8.6631 12.2619 8.67916 11.898 8.74058C11.8114 8.7551 11.7266 8.76891 11.6424 8.78161C11.1302 9.01241 10.6374 9.29066 10.194 9.6574L10.3095 9.64987C11.0106 9.60582 11.7255 9.67248 12.4045 9.87233C13.7238 10.2608 14.8495 11.1963 15.6687 12.3891C15.6932 12.4248 15.6455 12.4745 15.6134 12.4502C14.5828 11.6712 13.3875 11.2788 12.1629 11.0657C11.5709 10.9626 10.9613 10.9272 10.3637 10.9785C9.86884 11.021 9.35697 11.2134 8.86466 11.12C8.73045 11.3045 8.60157 11.4946 8.4775 11.6889C8.5427 11.6843 8.60818 11.6801 8.6741 11.6767C9.38113 11.64 10.1012 11.6901 10.7915 11.8698C12.1704 12.2289 13.3227 13.1429 14.3768 14.1463C14.3976 14.1661 14.3707 14.2015 14.3481 14.1872C13.205 13.4588 11.8764 13.2411 10.5814 13.1097C9.9293 13.0435 9.26985 13.0135 8.61631 13.071C8.31692 13.0972 8.02084 13.1518 7.72231 13.1857C7.69816 13.1884 7.67308 13.1891 7.64821 13.1904C7.43184 13.6409 7.23568 14.0995 7.0587 14.5567C7.59882 14.3967 8.18157 14.3127 8.73922 14.3541C9.87193 14.4384 10.9954 15.0118 11.8996 15.7452C11.928 15.7681 11.9122 15.8292 11.8737 15.8132C10.8895 15.4026 9.91384 15.3993 8.88673 15.5577C8.40519 15.632 7.92854 15.7328 7.46333 15.8909C7.22942 15.9704 6.99818 16.0572 6.77621 16.1714C6.67543 16.2231 6.57731 16.2834 6.47812 16.3403C6.39876 16.6378 6.32781 16.938 6.26384 17.2401C7.9427 17.3446 9.52431 18.2195 10.9008 19.2237C10.9341 19.248 10.9133 19.3156 10.8722 19.2984C10.0505 18.9561 9.15664 18.7979 8.28508 18.7057C7.52299 18.6252 6.77513 18.669 6.01743 18.6925C5.97681 19.0103 5.94396 19.3291 5.92017 19.6486C6.04201 19.6863 6.16155 19.7269 6.27649 19.7651C6.65451 19.8905 7.03182 20.0593 7.38454 20.255C8.10106 20.6526 8.68165 21.1899 9.26583 21.7873C9.29631 21.8185 9.26453 21.8866 9.2232 21.8681C8.54514 21.5655 7.80426 21.3717 7.09048 21.2002C6.72108 21.1115 6.35153 21.0295 5.97955 20.9544C5.94353 20.9471 5.90695 20.941 5.87043 20.9349C5.86691 21.6632 5.90421 22.3917 5.98645 23.1143L6.0024 23.2497C6.04697 23.6154 6.01053 23.9691 5.79122 24.2218C6.09456 23.9991 6.4416 23.8449 6.82624 23.7858C7.83912 23.6302 8.77703 24.077 9.41441 24.9413C9.44424 24.9817 9.39823 25.0347 9.36201 24.9991C8.74347 24.3915 7.79024 24.2839 7.02204 24.57C6.31085 24.8349 5.77619 25.4672 5.56191 26.2584C5.33419 27.0991 5.43849 28.0274 5.85375 28.7769C6.06063 29.1503 6.35944 29.4841 6.73337 29.6484C6.77952 29.6687 6.82653 29.6856 6.87404 29.7003C7.09975 29.6091 7.34264 29.6504 7.57474 29.7659L7.60486 29.7815C7.75294 29.7806 7.90037 29.7756 8.04363 29.777C8.32245 29.7799 8.45651 30.1068 8.33949 30.35C8.40584 30.4842 8.45443 30.635 8.51272 30.7665C8.61803 31.0038 8.7283 31.2396 8.83914 31.4739C8.99591 31.6725 9.14564 31.878 9.24728 32.1177C9.28897 32.2161 9.32837 32.3226 9.35856 32.4294C9.44568 32.5741 9.53423 32.718 9.62495 32.8611C9.91823 33.3237 10.2271 33.7618 10.5696 34.1818C10.7755 34.4341 11.0123 34.6595 11.2303 34.9014C11.2963 34.9111 11.3611 34.9607 11.3815 35.0322L11.3993 35.1005C11.4696 35.1879 11.5368 35.2779 11.5973 35.3738C11.7316 35.5864 11.6948 35.8021 11.5768 35.9576C11.7636 37.2445 11.6364 38.6138 11.3865 39.8617C11.2249 40.668 11.0362 41.4737 10.783 42.2515C10.6542 42.6469 10.4983 43.0268 10.2829 43.3741C10.1648 43.5644 10.011 43.7861 9.83844 43.9672C9.8122 44.178 9.77813 44.387 9.72932 44.5919C9.1506 47.0203 6.78167 47.7595 4.79817 48.0697C4.41533 48.1295 4.03644 48.0274 3.82791 47.6337C3.77975 47.5428 3.74741 47.4448 3.73001 47.3441C3.64361 47.3187 3.56051 47.274 3.48597 47.2098C3.47354 47.3619 3.45916 47.5146 3.44097 47.669C3.39562 48.0549 2.92386 48.1709 2.80561 47.7639C2.30661 46.0463 2.03555 44.2353 1.6936 42.4703C1.35238 40.709 0.971338 38.9571 0.618759 37.1985L0.172329 34.9791C-0.91698 29.5445 -1.93727 24.0404 -1.68684 18.4509C-1.55012 15.3998 -1.04307 12.3566 0.0421965 9.53709C0.946251 7.18828 2.47201 4.54947 4.93676 4.06923C4.95372 4.06598 4.96882 4.06788 4.98291 4.07185C5.27561 3.65161 5.62531 3.28153 6.04108 2.98423ZM7.52831 32.5259C7.72706 33.2539 7.86895 34.0003 7.94615 34.7619C8.07475 36.0314 8.01099 37.3318 7.95514 38.6046C7.90374 39.774 7.78176 40.9535 7.57409 42.1018C7.37477 43.2043 7.06237 44.2853 6.59794 45.2882C6.52283 45.4504 6.4421 45.6084 6.35728 45.7633C6.61412 45.6688 6.84601 45.5587 7.08753 45.4062C7.39152 45.2141 7.6697 44.9665 7.82187 44.7053C8.06613 44.2864 8.14807 43.8209 8.18379 43.3215C8.27566 42.0372 8.31814 40.7491 8.37673 39.4627L8.38972 39.1826C8.48448 37.1726 8.60868 35.1113 8.42316 33.0991C8.16216 33.0234 7.92667 32.8748 7.70938 32.6883C7.64943 32.6368 7.5889 32.5824 7.52831 32.5259ZM5.5433 30.0919C5.59814 30.7034 5.65062 31.3149 5.69813 31.9268C5.86669 34.0991 5.97085 36.2835 5.87503 38.4634C5.82514 39.5985 5.72494 40.7368 5.55171 41.8576C5.47362 42.3627 5.37923 42.8677 5.27378 43.3674L5.23823 43.5338C5.1312 44.0287 5.06298 44.6472 4.72025 45.0072L4.72284 45.0818C4.96343 44.6787 5.18597 44.2254 5.34533 43.8034C6.05545 41.9234 6.1852 39.8767 6.31351 37.872C6.39258 36.6365 6.45116 35.3995 6.54267 34.165L6.58711 33.571C6.63809 32.8796 6.68199 32.1934 6.67601 31.5026C6.53922 31.2775 6.42809 31.0407 6.35908 30.7977C6.34801 30.7586 6.34039 30.7191 6.33507 30.6795C6.04582 30.5282 5.77346 30.3216 5.5433 30.0919ZM9.43029 34.3938C9.57298 34.918 9.68943 35.4488 9.77238 35.9819C9.9045 36.8305 9.98378 37.6844 10.0186 38.5411L10.0915 38.2384C10.275 37.4814 10.4701 36.7233 10.7118 35.9886C10.3295 35.693 10.01 35.2289 9.73212 34.841C9.62825 34.6961 9.52755 34.5464 9.43029 34.3938ZM3.95507 11.0811C3.80815 11.6048 3.67969 12.1344 3.547 12.6623C3.23518 13.9025 3.03276 15.1766 2.8923 16.4531C2.33184 21.5498 2.79864 26.6671 3.40913 31.7304C3.66208 33.8284 3.9371 35.9232 4.17316 38.0236C4.17941 37.8175 4.18466 37.6114 4.18804 37.4055C4.25978 32.9472 3.58014 28.5514 3.30799 24.1161L3.29166 23.8459C3.16832 21.7721 3.09285 19.6596 3.31612 17.5934C3.43099 16.5299 3.63339 15.4892 3.90273 14.4615L4.06308 13.8579C4.17144 13.452 4.28663 13.0354 4.42331 12.6313C4.40505 12.5926 4.38766 12.5535 4.37148 12.5144C4.18236 12.0553 4.05075 11.5728 3.95507 11.0811ZM4.42856 5.07328C3.01781 7.08145 1.83399 9.21471 1.11776 11.6684C-0.521427 17.2839 -0.155478 23.2888 0.794437 29.0127C1.24204 31.7097 1.81925 34.3753 2.34593 37.0535C1.78216 32.2441 1.05515 27.4452 0.939423 22.5895C0.876239 19.9393 1.00038 17.2768 1.44252 14.6676L1.46869 14.5141C1.65819 13.4114 1.89293 12.2431 2.37346 11.2522C2.63439 10.7141 2.92242 10.2119 3.264 9.73129C3.40805 9.5286 3.56979 9.36606 3.74137 9.2174C3.69105 7.83304 3.88067 6.33185 4.42856 5.07328ZM6.73021 26.4699C7.43206 26.5004 8.13326 26.7164 8.68596 27.22C9.11833 27.6139 8.50173 28.2796 8.07288 27.8969C7.60651 27.4807 7.18823 27.0079 6.6911 26.6293C6.63187 26.5842 6.64812 26.4663 6.73021 26.4699ZM5.56587 24.4052C5.40981 24.494 5.25476 24.5119 5.07801 24.464C5.07154 24.4622 5.06532 24.4603 5.05922 24.4582L5.02309 24.4452C5.03854 24.6299 5.05479 24.8147 5.07089 24.9995C5.2135 24.7777 5.3789 24.5769 5.56587 24.4052ZM4.86725 13.2551C4.80514 13.8281 4.76467 14.4039 4.74311 14.9806C4.72217 15.5424 4.71344 16.1059 4.71105 16.6696L4.7104 16.9112L4.71134 16.9066C4.95264 15.7699 5.29394 14.6513 5.72983 13.5808C5.65478 13.5946 5.57859 13.5924 5.50355 13.5824C5.33189 13.5595 5.16728 13.4754 5.02 13.3771C4.9663 13.3412 4.91591 13.2994 4.86725 13.2551ZM12.0263 6.61344C11.7263 6.76312 11.4367 6.93518 11.1356 7.08145C10.5386 7.37161 9.95453 7.70891 9.40204 8.09185C8.84295 8.47939 8.30434 8.8874 7.809 9.37074C7.751 9.4274 7.69349 9.48471 7.63606 9.54193C7.62448 9.66693 7.61607 9.7924 7.61226 9.91891C7.61018 9.98693 7.61011 10.058 7.6109 10.1311C8.54557 8.8528 9.67563 7.84423 11.1092 7.20979C11.3577 7.09979 11.6103 7.00185 11.8652 6.91121C11.9259 6.8182 11.9803 6.71947 12.0263 6.61344ZM11.9996 5.38717C11.8329 5.14288 11.3538 5.1628 11.0517 5.21725C10.5631 5.30534 10.1329 5.49391 9.71415 5.76693C9.21925 6.08947 8.79234 6.52645 8.45831 7.04042C8.6227 6.93804 8.79019 6.84145 8.96119 6.75177L9.07836 6.69068C9.72607 6.35545 10.4277 6.03674 11.1361 5.9328C11.4639 5.88471 11.8164 5.8151 12.1476 5.85431C12.1312 5.67661 12.0834 5.50994 11.9996 5.38717Z" fill="black"/>
</g>
<defs>
<clipPath id="clip0_5_156">
<rect width="34" height="45" fill="white"/>
</clipPath>
</defs>
</svg>
