<svg width="36" height="44" viewBox="0 0 36 44" fill="none" xmlns="http://www.w3.org/2000/svg">
<path fill-rule="evenodd" clip-rule="evenodd" d="M32.758 11.1625C32.7325 10.2345 31.4087 9.84921 31.0262 10.7682C31.0025 10.7928 30.9767 10.8165 30.9525 10.8377C31.0722 10.733 30.8219 10.9062 30.7811 10.9276C30.7463 10.946 30.7107 10.9625 30.6751 10.9796C30.4291 8.6287 29.5941 6.09439 27.4362 4.91438C24.4265 3.4263 20.9488 3.13584 17.6469 3.28367C15.9743 3.38486 14.0427 3.65755 12.5567 2.79478C12.0936 2.52597 11.7225 2.10281 11.1992 1.93666C9.54739 1.48106 8.79816 3.21049 9.02314 4.63269C8.31859 4.63836 7.61968 5.03606 7.31562 5.69086C7.13706 6.07841 7.14018 6.4966 6.98621 6.88554C6.5138 7.87185 5.83787 8.58082 6.22001 9.77666C5.54789 10.5565 5.9311 11.737 6.47346 12.4836C6.74129 12.8719 7.06027 13.2447 7.25648 13.6794C7.44691 14.0956 7.15944 14.5891 6.99946 14.9836C5.81671 17.8432 5.88429 20.9923 6.52072 23.975C5.2436 24.54 4.86031 26.3062 5.69311 27.4183C5.97966 27.8115 6.32923 27.9573 6.72569 28.1992C7.22741 28.4808 6.81763 29.6085 6.9783 30.1531C7.19658 31.4826 8.3839 32.3014 9.55789 31.438C10.3029 31.3231 10.9037 33.5331 11.4447 34.0878C11.778 34.5348 12.1481 34.9361 12.5504 35.3065C13.7491 38.4513 19.8916 40.046 22.9286 39.864C26.1088 39.5245 28.2543 36.7707 30.0407 34.3267C30.9581 33.0245 31.5547 31.567 31.7717 29.9773C31.9897 28.3797 31.8943 26.7791 31.747 25.1795C31.4374 21.7809 30.9491 16.8846 30.6338 13.4492C31.7733 13.3535 32.7926 12.3644 32.758 11.1625Z" fill="white"/>
<path fill-rule="evenodd" clip-rule="evenodd" d="M7.91686 9.11914C7.91578 9.1239 7.9174 9.12752 7.91848 9.13259C7.91871 9.13113 7.91895 9.13036 7.91933 9.12859C7.91841 9.12475 7.91771 9.12221 7.91686 9.11914Z" fill="#4F66AF"/>
<path fill-rule="evenodd" clip-rule="evenodd" d="M7.91824 9.16921C7.91355 9.16448 7.90689 9.16098 7.90024 9.15625C7.90007 9.15641 7.89999 9.15658 7.8999 9.15674C7.90613 9.16065 7.9121 9.16514 7.91824 9.16921Z" fill="#4F66AF"/>
<path fill-rule="evenodd" clip-rule="evenodd" d="M32.5769 11.6017C32.9512 11.2847 33.5408 11.5766 33.414 12.0986C33.276 12.6671 32.6784 13.0556 32.185 13.2892C31.6772 13.5295 31.1826 13.5758 30.6286 13.5496L30.6217 13.5481C30.7756 14.1769 30.8628 14.8305 30.9804 15.4631C31.1298 16.2657 31.2767 17.0686 31.4213 17.8719C31.5613 18.6484 31.7383 19.4259 31.8458 20.2063C31.9543 20.994 32.0584 21.7823 32.1649 22.5702C32.3428 23.8863 32.4863 25.2084 32.6377 26.5282L32.7098 27.1529C32.8613 28.4752 32.9834 29.7991 32.6961 31.115C32.4269 32.3482 31.8205 33.4986 31.1171 34.5281C30.4282 35.5361 29.6586 36.5053 28.8139 37.3822C27.1845 39.0732 25.1752 40.4276 22.8191 40.6787C21.8046 40.7869 20.7211 40.6666 19.7674 40.2906L19.7041 40.2654C18.7386 39.8767 17.5564 39.2113 17.3051 38.1193C17.1508 37.4494 17.8278 36.9265 18.4214 37.2443C18.6964 37.3917 18.9032 37.5599 19.129 37.771L19.169 37.8087C19.3535 37.9833 19.4245 38.037 19.6374 38.1737C20.074 38.4538 20.4013 38.5863 20.8972 38.7136C21.8116 38.9481 22.7985 38.911 23.7267 38.6336C25.6975 38.0448 27.2264 36.5083 28.5362 34.9677C29.2473 34.1311 29.9224 33.2535 30.443 32.2784C30.9892 31.2554 31.2414 30.1813 31.2262 29.0173C31.2091 27.7039 31.0311 26.3853 30.9142 25.0781C30.7952 23.7455 30.6851 22.4133 30.5882 21.0788C30.4973 19.8273 30.4886 18.5702 30.4568 17.3148L30.4506 17.0795C30.4319 16.413 30.419 15.7463 30.4041 15.0798C30.3895 14.4151 30.3378 13.742 30.405 13.0801C30.4098 13.0319 30.4735 13.0197 30.489 13.0685C30.5286 13.1925 30.5632 13.3184 30.5959 13.4451C30.601 13.4412 30.6066 13.4377 30.6134 13.4353C31.0476 13.2832 31.4474 12.9795 31.7731 12.6521C32.084 12.3396 32.2463 11.8818 32.5769 11.6017ZM8.8247 2.28976C9.09741 1.14778 10.3246 0.8927 11.2321 1.44266C11.6686 1.70713 12.018 2.08854 12.4258 2.39165C12.8311 2.69305 13.2791 2.93509 13.7518 3.10605C14.691 3.44563 15.6816 3.5691 16.6742 3.57352C19.0899 3.58431 21.4562 2.8921 23.8755 2.96931C25.7475 3.02907 27.7344 3.59315 29.0923 4.97291C29.8238 5.71617 30.2952 6.67175 30.548 7.68624C30.6662 8.16037 30.7543 8.64601 30.8237 9.13052L30.8407 9.25161C30.8796 9.53478 30.942 9.83456 30.9478 10.1207C30.9531 10.3778 30.8893 10.6467 30.8547 10.9011C30.7819 11.4373 29.9673 11.3763 29.8502 10.9011C29.5837 9.81927 29.6953 8.70274 29.3695 7.62462C29.0807 6.66857 28.5209 5.83265 27.7098 5.26096C24.288 2.84911 19.8998 4.86884 16.1297 4.6812C15.2082 4.63534 14.2732 4.49015 13.404 4.16663C12.9558 3.99978 12.5145 3.79631 12.1082 3.54038C11.7358 3.30605 11.4133 3.01163 11.0686 2.74069L10.9166 2.62287C10.6803 2.44163 10.2781 2.15826 10.0397 2.39801C9.93599 2.50237 9.92971 2.73834 9.93161 2.91853L9.93279 2.99997C9.9436 3.76496 10.0965 4.52856 9.81573 5.26763C9.68764 5.60474 9.33169 5.81729 8.99313 5.62638L8.97563 5.61614C8.25952 5.18177 7.31864 6.0546 7.86876 6.77695L7.88589 6.79879C8.1954 7.18231 8.03038 7.85768 7.47643 7.85599L7.45648 7.85564C6.46948 7.82422 6.03158 9.08189 6.88231 9.63141L6.90848 9.64785C7.59918 10.0693 6.99335 11.0825 6.28545 10.7347C6.34542 10.7641 6.24115 10.7638 6.18148 10.8454C6.12417 10.9238 6.11991 10.9916 6.13353 11.0906C6.17486 11.3906 6.43364 11.6434 6.64324 11.8333C7.11939 12.2645 7.70962 12.5622 8.31781 12.7435C10.7541 13.4697 13.2535 12.5814 15.6273 12.045C18.102 11.4857 20.897 11.2604 23.0552 12.8474C23.0809 12.8662 23.0584 12.9082 23.03 12.8914C21.4812 11.9743 19.5842 12.0557 17.8911 12.4317C15.671 12.9248 13.4703 13.8426 11.1965 14.0844C11.8349 15.2334 12.102 16.5904 11.9315 17.9046C11.8141 18.8092 11.461 19.5939 11.044 20.3891L10.9644 20.5407C10.5925 21.2544 10.3045 21.9288 10.2999 22.7557C10.2954 23.5772 9.09748 23.7504 8.89442 22.9497C8.43342 21.1311 10.1129 19.6986 10.7981 18.199C11.3837 16.917 11.4018 15.4223 10.9279 14.1097C10.3931 14.1535 9.85417 14.1581 9.30983 14.1086C8.84229 14.066 8.36127 13.9801 7.89243 13.8441L7.70487 14.6481C7.45638 15.7189 7.22615 16.7891 7.15638 17.9013C7.105 18.7186 7.10774 19.5399 7.18591 20.3552C7.25349 21.0594 7.39612 21.7385 7.54126 22.4259C7.66578 22.5934 7.72941 22.8497 7.6944 23.0539C8.50268 23.2912 9.13843 23.9415 9.37072 24.8028C9.38487 24.8552 9.31287 24.8847 9.28593 24.8393C8.73482 23.907 7.31567 23.5639 6.41796 24.1798C5.56065 24.7679 5.2225 25.9552 5.70777 26.8951C5.96303 27.3893 6.34148 27.7366 6.82947 27.9757L6.92759 28.0227C7.18332 28.1461 7.41806 28.2805 7.58251 28.5283C7.79586 28.8498 7.80304 29.1895 7.78288 29.5568L7.77416 29.7057C7.76068 29.9519 7.75764 30.2053 7.82957 30.4422L7.84591 30.4948C7.86488 30.5539 7.88482 30.606 7.91945 30.6624C7.9298 30.6791 8.02692 30.7763 8.05858 30.8115L8.09846 30.8237L8.14306 30.8256C8.19254 30.8264 8.25757 30.8045 8.23623 30.8197L8.24204 30.8163C8.26081 30.8043 8.27808 30.7917 8.29262 30.7805L8.32025 30.7585C8.38487 30.6633 8.46585 30.5846 8.56517 30.5246L8.66008 30.4816C8.9066 30.2162 9.32901 30.3556 9.50574 30.62C9.63292 30.8101 9.70134 31.0034 9.70697 31.1941C9.72684 31.1616 9.77098 31.1438 9.79906 31.1802L9.96663 31.3979C10.6077 32.2331 11.2378 33.0735 11.9663 33.8349C12.3676 34.2544 12.7993 34.6486 13.2506 35.0117C13.6358 35.3217 14.3667 35.62 14.3778 36.1847C14.3813 36.368 14.2537 36.4979 14.0975 36.5601C13.5892 36.7625 12.9611 36.0739 12.594 35.7388L12.564 35.7118C12.1146 35.3105 11.7046 34.87 11.3261 34.399C10.5911 33.484 9.97655 32.4308 9.70568 31.2723C9.69297 31.4745 9.60788 31.6726 9.44226 31.8595C9.22177 32.1083 8.91999 32.2828 8.59767 32.3546C7.86739 32.5174 7.1544 32.2494 6.71988 31.629C6.35263 31.1045 6.2445 30.4119 6.29188 29.7782L6.29772 29.7022C6.30438 29.6005 6.31286 29.4141 6.33865 29.3347L6.10872 29.206C5.82681 29.053 5.56553 28.8525 5.33103 28.6321C4.38856 27.7462 3.91569 26.3065 4.34655 25.0466C4.61605 24.2585 5.18239 23.5727 5.90756 23.2163C5.78636 22.9307 5.74582 22.5915 5.70009 22.2914L5.6924 22.2418C5.61484 21.7495 5.54992 21.251 5.52519 20.7528C5.47891 19.8223 5.53516 18.8832 5.67855 17.9635C5.91144 16.4698 6.3936 14.8856 7.27739 13.6325C6.60313 13.3595 5.98253 12.9643 5.5035 12.4155C5.00292 11.842 4.68379 11.021 5.07089 10.2927C5.16953 10.1071 5.29807 9.95104 5.4458 9.82711C5.18962 9.33387 5.10673 8.75093 5.26482 8.19375C5.45372 7.52762 5.96662 7.00808 6.58624 6.7655C6.43577 6.13437 6.55876 5.45551 7.01854 4.92953C7.47459 4.40773 8.18279 4.21769 8.83825 4.33696C8.8738 3.66571 8.66655 2.95178 8.8247 2.28976ZM6.98627 25.8573C7.58723 25.5574 8.29947 25.6051 8.89975 25.8893L8.94042 25.9089C9.5958 26.233 10.4638 26.9901 10.2555 27.7952C10.1336 28.2661 9.62043 28.4269 9.22253 28.2237C8.89016 28.0538 8.81435 27.7501 8.6476 27.4451C8.5297 27.2294 8.38395 27.0607 8.21278 26.8873C7.85194 26.5219 7.44666 26.2504 6.98627 26.0332C6.9199 26.0019 6.92218 25.8893 6.98627 25.8573ZM22.1287 9.582C22.0724 9.55577 22.1132 9.46583 22.1699 9.48228C23.68 9.92197 25.088 10.9089 25.9293 12.2788C25.9806 12.3624 25.9884 12.5 25.9293 12.5827L25.9021 12.6202C25.8635 12.6716 25.8254 12.7095 25.7529 12.721C25.6165 12.7426 25.498 12.7063 25.4194 12.5827C24.5906 11.277 23.5287 10.2349 22.1287 9.582ZM32.238 9.84055C32.366 9.61962 32.7052 9.66409 32.7727 9.91179L32.7825 9.93335C32.8189 10.0178 32.8023 10.0351 32.7343 9.9873C32.9027 10.1287 32.9789 10.3393 32.9274 10.5657C32.6495 11.7887 31.2908 12.6621 30.1064 12.5419C30.003 12.5314 29.989 12.4019 30.0827 12.3632C30.5383 12.1751 30.9428 11.8696 31.268 11.4947C31.5841 11.1303 31.717 10.7133 31.8871 10.2733C31.9508 10.108 32.0501 9.98908 32.1899 9.92413C32.2084 9.89806 32.2245 9.87028 32.238 9.84055ZM25.5025 9.05461L25.5107 9.05514C26.1193 9.13531 26.6457 9.44152 27.0731 9.89021C27.4847 10.3223 28.0041 11.0353 27.9596 11.6694C27.9301 12.0897 27.3439 12.3301 27.1252 11.8999C26.9947 11.6431 26.9651 11.3618 26.8737 11.0903C26.7898 10.8415 26.6739 10.6053 26.5353 10.3838C26.2498 9.92731 25.8572 9.54062 25.4552 9.19172C25.4082 9.15089 25.4409 9.05483 25.5025 9.05461ZM9.89349 8.86833C9.75854 8.73734 9.89889 8.514 10.0705 8.55824C10.9757 8.7919 11.8721 9.07607 12.8132 9.10432C13.2833 9.11836 13.7507 9.08057 14.2163 9.01857L14.4521 8.98665C14.8152 8.93833 15.1845 8.90038 15.5434 8.97643C15.7827 9.02711 15.8295 9.34139 15.6804 9.50536C14.9763 10.2797 13.6182 10.2057 12.6844 10.0752C11.6703 9.93333 10.6472 9.60042 9.89349 8.86833ZM26.2392 6.4546C26.1773 6.36698 26.2816 6.2287 26.3802 6.26758C27.2797 6.62206 28.2225 7.54497 28.4703 8.51057C28.5358 8.76564 28.2203 8.95825 28.0351 8.7689C27.6898 8.41605 27.4461 7.99925 27.1543 7.60263C26.8635 7.20725 26.5232 6.8561 26.2392 6.4546ZM11.5003 6.88583C11.4282 6.81234 11.5008 6.66598 11.6045 6.70339C12.1901 6.91485 12.7802 7.09783 13.3955 7.19383C14.0257 7.29207 14.6618 7.21742 15.2953 7.25723C15.5515 7.27329 15.726 7.67977 15.4412 7.80626C14.1753 8.36817 12.456 7.85864 11.5003 6.88583ZM13.1174 5.62546C13.0168 5.54956 13.074 5.34128 13.211 5.3994C13.7687 5.63616 14.3328 5.69437 14.9313 5.67C15.1524 5.66092 15.1989 6.01517 14.9834 6.06297C14.3218 6.20972 13.6581 6.03302 13.1174 5.62546Z" fill="black"/>
</svg>
