<svg width="36" height="42" viewBox="0 0 36 42" fill="none" xmlns="http://www.w3.org/2000/svg">
<g clip-path="url(#clip0_5_236)">
<path fill-rule="evenodd" clip-rule="evenodd" d="M35.4625 37.1083C34.5941 33.1409 34.0371 29.1224 33.5386 25.0987C33.2973 23.1498 33.1047 21.1958 32.8817 19.2454C32.6732 17.4283 32.4303 15.6053 31.9432 13.8364C31.4904 12.1927 30.8282 10.5653 29.8525 9.14614C28.9377 7.81569 27.7876 6.67569 26.4672 5.72384C23.8581 3.8431 20.5214 2.84236 17.2762 3.17421C16.7859 3.22458 16.3004 3.30532 15.8201 3.41347C15.9731 3.36977 16.1277 3.32895 16.2836 3.29347C16.3338 3.28169 16.3115 3.21584 16.2623 3.22021C3.0592 4.38769 -0.046539 26.735 -0.328907 31.2409C-0.350979 31.5913 -0.368408 31.9409 -0.381347 32.2913C-0.480366 33.0728 -0.554192 33.8565 -0.589203 34.6424C-0.628704 35.549 -0.609676 36.4617 -0.523748 37.3653C-0.435461 38.2919 -0.334996 39.2416 0.0623743 40.0935C0.30585 40.6179 11.6615 39.8995 11.7787 39.2801C12.0161 38.0298 12.1379 36.7395 12.0634 35.4676C12.0284 34.8579 11.9636 34.2527 11.8297 33.6557C11.7931 33.4927 11.7543 33.1868 11.6562 32.9446C12.692 31.0291 13.8313 29.1683 15.0042 27.329C17.4451 23.4994 20.0404 19.7409 22.0352 15.6623C23.0354 13.6187 24.0209 11.4484 24.4928 9.20903L24.5689 9.22384C24.5598 9.25051 24.5659 9.28384 24.5933 9.30236C26.7617 10.7609 28.2109 12.9712 29.1501 15.338C30.2437 18.0935 30.7742 21.069 30.6981 24.0216C30.5771 28.7135 28.7497 34.512 23.5795 35.995C22.3998 36.3335 21.1258 36.429 19.9171 36.1816C19.347 36.0646 18.7884 35.8845 18.2739 35.6179C17.7031 35.3224 17.2342 34.9038 16.6992 34.5595C16.2098 34.2447 15.6321 34.8587 15.9137 35.3246C16.5355 36.3542 17.8735 36.9838 19.0228 37.2935C20.2489 37.6246 21.5421 37.6402 22.791 37.4298C22.8861 37.4142 22.9805 37.3964 23.0741 37.3772C23.0954 37.6824 23.2302 37.9861 23.4494 38.2328C23.5475 38.3439 23.6686 38.4401 23.804 38.5209C23.8216 38.8187 24.0187 39.1179 24.3392 39.1832C26.0508 39.5298 33.1595 38.6209 34.8689 38.1253C35.3278 37.9921 35.56 37.5543 35.4625 37.1083Z" fill="black"/>
<path fill-rule="evenodd" clip-rule="evenodd" d="M30.9977 22.8012C30.8695 16.9804 29.3794 10.5364 24.2712 6.93937C23.9459 6.70996 23.4576 6.82107 23.1879 7.08307C22.9665 7.12515 22.7631 7.25567 22.6279 7.49567C19.6073 12.8612 16.4275 18.142 13.0899 23.3266C10.947 26.6789 8.34387 30.0354 8.00046 34.0987C7.94102 34.1755 7.3893 34.7817 7.71079 34.7376C7.85349 34.6649 7.99879 34.6052 8.15162 34.5611C8.55972 35.1401 9.50736 35.0491 9.73265 34.3955C10.5137 34.4174 11.2867 34.6116 12.0308 34.8369C13.856 35.3929 15.711 35.9426 17.5737 36.3675C23.7102 37.9526 30.3039 35.9359 30.7942 28.9731C31.4528 28.0699 31.0965 24.0445 30.9977 22.8012Z" fill="white"/>
</g>
<defs>
<clipPath id="clip0_5_236">
<rect width="36" height="42" fill="white"/>
</clipPath>
</defs>
</svg>
