<svg width="36" height="43" viewBox="0 0 36 43" fill="none" xmlns="http://www.w3.org/2000/svg">
<path fill-rule="evenodd" clip-rule="evenodd" d="M21.8748 38.6369C20.1855 38.6467 18.7497 38.169 17.6542 37.3789C16.2871 36.8931 14.6381 36.1439 13.6365 35.3574C13.2458 35.4568 12.7784 35.0432 12.4794 34.825C10.6204 33.4418 9.16125 31.4171 8.72887 29.3891C8.06139 30.2286 7.11154 30.2635 6.20164 29.8462C4.29433 28.7684 4.36564 26.499 5.05231 24.8034C3.60873 21.576 2.60826 13.0559 4.81187 9.61733C5.2626 9.10285 5.92407 8.7951 6.40029 8.2675C6.82407 7.80671 7.22715 7.33538 7.72019 6.97075C9.22458 5.82985 11.8157 5.22239 13.438 4.9367C20.2104 3.47774 25.4139 6.10006 31.5485 8.31201C31.1955 9.19173 30.7071 9.99402 30.1474 10.7421C31.6703 11.3085 30.9708 12.5821 29.7893 13.2277L29.0858 12.887C30.1824 16.7961 32.7059 26.5172 31.617 29.6389C30.7488 34.5092 26.9383 38.6721 21.8748 38.6369Z" fill="white"/>
<path fill-rule="evenodd" clip-rule="evenodd" d="M22.8532 39.0562C20.6597 39.2805 18.0538 38.7638 16.5915 36.9883C16.5478 36.9352 16.5287 36.875 16.5275 36.8169C16.5262 36.7523 16.548 36.6899 16.5856 36.6413C16.6251 36.5903 16.6814 36.5547 16.7459 36.5432C16.8002 36.5334 16.8622 36.5397 16.926 36.5754L17.0604 36.65C18.0591 37.1996 19.0963 37.6683 20.228 37.8689C21.3933 38.0754 22.5799 38.0523 23.7348 37.79C25.8386 37.3124 27.5411 36.0941 28.7943 34.4876C30.1928 32.6948 31.0325 30.4191 31.2466 28.1432C31.506 25.3851 30.9043 22.6438 30.2818 19.9732C29.6276 17.1671 28.9126 14.3754 28.0821 11.616C28.057 11.5329 28.0503 11.4552 28.0575 11.3836C27.8126 11.288 27.5518 11.3145 27.2923 11.4018C26.8182 11.5613 26.3459 11.921 25.9519 12.2179C25.8093 12.3255 25.6765 12.4254 25.5573 12.5067C25.0688 12.8398 24.5348 13.0794 23.9378 13.1171C23.3168 13.1562 22.708 12.9639 22.144 12.7233C21.8575 12.601 21.5755 12.4742 21.2947 12.3478C20.4952 11.9881 19.7051 11.632 18.8417 11.4005C17.6848 11.0902 16.4903 10.9374 15.2922 10.9484C13.1538 10.9679 11.0089 11.5163 9.69833 13.3184C9.16745 14.0483 8.82134 14.8874 9.09127 15.7883C9.23811 16.2784 9.51524 16.7233 9.8177 17.1325L9.92148 17.2718C10.0874 17.4964 10.2315 17.7202 10.275 17.9583C10.3114 18.1579 10.283 18.369 10.14 18.6003C10.05 18.7459 9.93545 18.8765 9.82027 19.0067C9.7372 19.1006 9.65388 19.1943 9.5822 19.2953C9.43775 19.4987 9.30985 19.7178 9.20954 19.9464C9.01311 20.3937 8.92979 20.8749 8.91236 21.3603C8.89126 21.9458 8.97389 22.5186 9.05584 23.0922C9.11395 23.499 9.17193 23.9061 9.19534 24.3182C9.19943 24.3901 9.17737 24.4437 9.14646 24.4833C9.10864 24.5319 9.05346 24.5624 8.99065 24.5709C8.97159 24.5735 8.95184 24.5739 8.93202 24.5721C8.94176 24.6118 8.95036 24.6516 8.95782 24.6916C8.91813 24.6407 8.87589 24.5914 8.83132 24.5437C8.82847 24.5422 8.82565 24.5408 8.82285 24.5392C8.77689 24.5141 8.73796 24.4757 8.71342 24.4264C8.65029 24.3679 8.58345 24.3125 8.51334 24.2603C8.14846 23.9891 7.7224 23.8283 7.295 23.823C6.88297 23.8178 6.46993 23.9576 6.15235 24.2529C5.52115 24.8396 5.33625 25.7975 5.32965 26.6199C5.32297 27.4595 5.51796 28.467 6.25257 28.9883C6.54725 29.1974 6.90715 29.323 7.26971 29.3266C7.57026 29.3296 7.85785 29.2237 8.14101 29.1227C8.22833 29.0916 8.31523 29.0606 8.40192 29.0325C8.50042 29.0006 8.59019 29.0026 8.66843 29.026C8.75662 29.0523 8.83147 29.1066 8.88738 29.1791C8.94308 29.2513 8.97959 29.3417 8.99091 29.4364C9.00186 29.5281 8.98926 29.6232 8.95031 29.709C8.94053 29.7307 8.93022 29.7516 8.91948 29.7721L9.08106 30.0368C9.69973 31.0479 10.3292 32.0404 11.1547 32.9094C11.6285 33.4082 12.1307 33.8789 12.6816 34.2909L12.7611 34.3497C12.8086 34.3845 12.8613 34.4274 12.9176 34.4732C13.0783 34.6042 13.2709 34.7798 13.4506 34.7867C13.504 34.7888 13.5506 34.7822 13.5929 34.7766C13.6953 34.7632 13.7812 34.7593 13.8656 34.7936C13.9335 34.8212 14.004 34.8727 14.0763 34.9792C14.1252 35.0512 14.1504 35.1415 14.1504 35.2332C14.1504 35.3253 14.1249 35.4174 14.0797 35.4902C13.9861 35.6409 13.8729 35.7343 13.75 35.7873C13.6131 35.8464 13.4617 35.8554 13.3044 35.8261C12.9168 35.7541 12.4877 35.4342 12.2147 35.2255L12.1619 35.1852C11.5569 34.7253 10.9836 34.2166 10.4795 33.6476C9.62115 32.6786 8.85024 31.5368 8.45426 30.2892C8.17517 30.4719 7.83035 30.5586 7.46983 30.5723C6.94459 30.5922 6.38867 30.4575 5.97903 30.264C5.07623 29.8374 4.52788 29.0305 4.2709 28.1027C3.97247 27.0252 4.06946 25.7864 4.44726 24.8184C4.45821 24.7903 4.46965 24.7623 4.48139 24.7338C3.3183 21.7976 2.96066 18.5371 3.06029 15.4036C3.10689 13.9369 3.20713 12.398 3.5544 10.9676C3.71005 10.3264 3.98048 9.71584 4.41229 9.21108C4.65848 8.92324 4.96055 8.69916 5.264 8.47569C5.52683 8.28215 5.79066 8.08902 6.01266 7.84736L6.11764 7.73261C6.14039 7.70766 6.16309 7.68273 6.18575 7.65785C6.56911 7.23682 6.94235 6.82828 7.40757 6.48298C7.9471 6.08264 8.54248 5.76928 9.16114 5.50903C10.4939 4.94859 11.9283 4.61254 13.3473 4.35255C16.4173 3.79021 19.5687 3.76246 22.6011 4.55293C24.0109 4.9204 25.3791 5.42339 26.7451 5.92578C26.8719 5.97243 26.9987 6.01907 27.1255 6.06559C28.187 6.45503 29.249 6.84281 30.3111 7.2306C30.8047 7.41082 31.2982 7.59104 31.7918 7.77143C31.8989 7.81058 32.0037 7.89492 32.0634 7.99971C32.1217 8.10195 32.139 8.22117 32.092 8.3399C31.7892 9.10443 31.4071 9.82171 30.942 10.4915C31.1036 10.6011 31.2411 10.7467 31.3452 10.9173C31.4768 11.1329 31.5547 11.3882 31.56 11.6591C31.5777 12.5662 30.7493 13.1811 30.062 13.6258C29.9979 13.6673 29.9345 13.6918 29.8732 13.7031C30.5392 16.2404 31.1767 18.7863 31.7184 21.3524L31.7557 21.5302C32.3137 24.2158 32.6737 26.9565 32.146 29.6777C31.6916 32.021 30.6359 34.2825 28.9862 36.0282C27.3696 37.739 25.2003 38.8161 22.8532 39.0562ZM8.4098 23.6072C8.12259 22.699 7.97038 21.7108 8.08027 20.7902C8.14944 20.2115 8.32406 19.6544 8.60837 19.1443C8.77121 18.8522 8.96967 18.5817 9.18627 18.327L9.26098 18.2415C9.29881 18.1978 9.33643 18.1576 9.34809 18.1073C9.35487 18.078 9.34797 18.046 9.33013 18.0078C9.29059 17.9231 9.2171 17.8416 9.14831 17.7619C9.10459 17.7113 9.06189 17.6616 9.02604 17.6133C8.39656 16.7642 7.92712 15.7534 8.07971 14.6767C8.22857 13.6262 8.9195 12.647 9.65506 11.9091C11.2747 10.2842 13.7858 9.91077 15.9856 10.0004C17.2661 10.0525 18.5445 10.2774 19.764 10.6702C20.3653 10.864 20.9533 11.0999 21.5247 11.3704L21.6512 11.4309C21.7195 11.4638 21.7877 11.4972 21.8559 11.5305C22.3025 11.7487 22.7508 11.9691 23.2357 12.0878C24.1825 12.3194 24.8247 11.8315 25.4998 11.3394C25.7311 11.1708 25.966 10.9998 26.2157 10.8498L26.2671 10.8195C26.7175 10.5594 27.2562 10.3843 27.7737 10.3921C28.2233 10.399 28.657 10.542 29.0101 10.8799C29.0825 10.9494 29.1243 11.0252 29.1439 11.1006C29.1829 11.1551 29.2145 11.2202 29.235 11.2971C29.3615 11.77 29.4874 12.2432 29.6129 12.7166L29.7155 12.6507C30.0195 12.454 30.35 12.2292 30.4992 11.9C30.5567 11.7734 30.5485 11.5623 30.4762 11.4071C30.4509 11.3529 30.4174 11.3047 30.3712 11.2746C30.3375 11.2527 30.297 11.2425 30.2499 11.2462C30.1353 11.2609 30.0301 11.2442 29.9409 11.2067C29.838 11.1634 29.756 11.0921 29.7028 11.0062C29.6483 10.9182 29.6234 10.8148 29.6368 10.7076C29.6482 10.6154 29.688 10.5191 29.7668 10.4286C30.2854 9.83302 30.7222 9.17601 31.0541 8.46287L28.8586 7.65349C28.0757 7.36504 27.2928 7.07697 26.5095 6.79L26.0806 6.63299C24.6563 6.11243 23.2237 5.6037 21.7425 5.26855C18.7987 4.60255 15.729 4.75908 12.7934 5.38599L12.6161 5.42417C11.3842 5.69182 10.1358 6.01566 9.00507 6.57856C8.45008 6.85484 7.92253 7.19079 7.46949 7.61525C7.26942 7.8027 7.08853 8.00792 6.90758 8.21288C6.65399 8.5001 6.4001 8.78655 6.0986 9.0285L5.81873 9.2518C5.40238 9.58608 5.02685 9.91177 4.79192 10.4302C4.54628 10.9722 4.42903 11.571 4.33336 12.1544C4.0921 13.624 3.99687 15.1171 4.00595 16.6057C4.02131 19.1052 4.40241 21.5538 4.88387 23.9937C5.27014 23.4429 5.81276 23.0158 6.5092 22.9248C6.96325 22.8654 7.4134 22.9498 7.80373 23.1498C8.02934 23.2654 8.23495 23.4197 8.4098 23.6072ZM7.68013 26.5751C7.17156 26.3788 6.63759 26.3145 6.09953 26.4084C6.04316 26.4182 5.9894 26.4065 5.94421 26.3803C5.8984 26.3538 5.8623 26.3118 5.8427 26.2655C5.82004 26.212 5.81889 26.154 5.83888 26.1026C5.85623 26.0579 5.88929 26.0145 5.95009 25.9856C6.53271 25.7085 7.18028 25.5863 7.82303 25.6733L7.88656 25.6822C8.21515 25.7308 8.67723 25.833 9.02375 26.0342C9.29599 26.1922 9.49525 26.4101 9.54482 26.6947C9.57068 26.843 9.53373 26.9978 9.44793 27.1101C9.36499 27.2186 9.23819 27.2909 9.07406 27.2863C8.78454 27.2781 8.61312 27.1561 8.40688 26.9982C8.38186 26.9791 8.3562 26.9594 8.32953 26.9396C8.13024 26.791 7.91247 26.6648 7.68013 26.5751Z" fill="black"/>
</svg>
