<svg width="33" height="44" viewBox="0 0 33 44" fill="none" xmlns="http://www.w3.org/2000/svg">
<g clip-path="url(#clip0_5_216)">
<path fill-rule="evenodd" clip-rule="evenodd" d="M27.4981 16.2296C27.5742 15.4439 26.7473 13.3478 26.7672 13.773C25.4415 11.4993 22.8543 10.6052 20.6221 9.85466C15.8834 8.11468 12.1831 10.2161 8.85365 13.9404C6.88802 15.9826 5.0177 18.2639 4.03098 21.091C2.08984 26.4841 4.99949 32.6337 9.42435 35.2101C9.78142 35.425 10.1705 35.6291 10.5106 35.8888C12.3397 37.0642 14.4876 37.4708 16.5259 37.9825C20.3391 38.9519 25.1282 38.4899 27.3754 34.4518C28.8996 31.586 28.4946 28.1119 28.3753 24.9315C28.1961 22.1449 27.8815 18.9958 27.4981 16.2296Z" fill="white"/>
<path fill-rule="evenodd" clip-rule="evenodd" d="M7.11594 8.27667C9.58641 5.70791 13.2378 4.46287 16.5763 4.68062C18.3845 4.79857 20.1272 5.30252 21.7612 6.16832C22.2723 6.43907 22.7703 6.75599 23.2295 7.12918C23.5393 7.28997 23.8421 7.46395 24.1355 7.65314C25.6048 8.59988 26.7406 10.0339 27.4676 11.7349C27.8146 12.5468 28.0885 13.4029 28.2436 14.285L28.2685 14.4303C28.3477 14.8729 28.5041 15.4561 28.3062 15.8704C28.175 16.145 27.9002 16.3181 27.6399 16.2948C27.6964 16.5494 27.7641 16.8038 27.8074 17.06L27.9252 17.7584C27.9447 17.8748 27.9641 17.9912 27.9832 18.1076C28.0969 18.8014 28.2016 19.4943 28.2853 20.1935C28.4604 21.6493 28.6188 23.1082 28.7583 24.5695C28.8583 25.6145 28.952 26.6606 29.043 27.7065L29.0974 28.3339C29.1909 29.4141 29.2641 30.5036 29.2006 31.5885C29.1049 33.2159 28.6549 34.7006 27.7815 35.9085C27.8647 36.1311 27.8928 36.3818 27.9554 36.6586C28.0421 37.0416 28.1551 37.4167 28.2753 37.7885C28.3315 37.9346 28.3879 38.0808 28.4436 38.2273L28.5902 38.6154L28.7046 38.8698C28.8285 39.1467 28.9484 39.4275 29.0245 39.714C29.5181 40.0071 29.9211 40.4853 29.9409 41.1405C29.9583 41.7326 29.682 42.3596 29.2153 42.6614C28.7547 42.9596 28.2806 42.8422 27.8396 42.6145C27.4551 42.739 27.0436 42.7547 26.6627 42.6218C26.3695 42.917 25.9913 43.1209 25.572 43.1759C24.94 43.2594 24.3399 43.0626 23.7601 42.8038L23.7197 42.7856C23.7016 42.7778 23.6834 42.7693 23.666 42.7608C22.999 42.7251 22.3348 42.4317 21.8617 41.9118C21.7076 41.7434 21.5743 41.551 21.4669 41.3353C21.0768 40.5506 21.0162 39.5876 21.3999 38.8093C21.3176 38.8132 21.2346 38.817 21.1522 38.8194C20.0545 38.8542 18.9548 38.7919 17.8598 38.7117L17.6017 38.6922C16.8931 38.6354 15.8482 38.5018 15.8283 37.525C15.8254 37.4001 15.9413 37.3062 16.0474 37.3396C16.4499 37.466 16.8455 37.6647 17.2627 37.7361C17.8083 37.83 18.3733 37.8401 18.9246 37.8742L19.0831 37.884C20.1946 37.9517 21.3459 37.9929 22.4395 37.7477C23.2557 37.5654 24.1062 37.2332 24.8541 36.8219C25.572 36.4262 26.2243 35.9086 26.7504 35.2327C27.9092 33.7458 28.0627 31.6483 28.0062 29.7672C27.9378 27.5206 27.7006 25.2772 27.5667 23.0337L27.5061 22.0259C27.4561 21.1854 27.4105 20.3437 27.3916 19.5029C27.3776 18.889 27.3866 18.2737 27.3894 17.6598C27.3908 17.3533 27.3874 17.0452 27.3936 16.7387C27.3971 16.5664 27.4153 16.398 27.4285 16.2296C27.3671 16.194 27.3099 16.1442 27.2583 16.0783C27.2178 16.0263 27.1864 15.9712 27.1648 15.9154C26.9046 15.8307 26.7839 15.7182 26.615 15.4629C26.4727 15.248 26.3116 15.0493 26.1392 14.8631C25.7723 14.4673 25.3529 14.1437 24.9099 13.862C23.9939 13.2792 22.9906 12.8897 21.979 12.57C20.4301 12.0811 18.8213 11.8296 17.2495 11.4369C16.8162 12.1089 16.3571 12.7609 15.8771 13.3918C14.3792 15.3597 12.6615 17.1142 10.821 18.6787C10.4464 18.9977 10.0668 19.312 9.68178 19.6169C9.17449 20.4772 8.66185 21.3334 8.14153 22.1838L7.91806 22.548L7.91457 22.5549C7.88388 22.6069 7.8545 22.6589 7.82527 22.7109C7.76318 22.8211 7.69341 22.9274 7.61946 23.0306C7.57132 23.1089 7.52248 23.1873 7.47294 23.2658C7.56783 23.3223 7.65434 23.3861 7.72201 23.4567C7.86015 23.6017 7.83706 23.8323 7.72201 23.9797C7.35085 24.4562 6.76341 23.8354 6.33643 23.6701C5.87387 23.8267 5.48806 24.4391 5.2962 24.907C5.01992 25.5814 4.90899 26.3946 5.03387 27.1248C5.14822 27.7922 5.45667 28.3688 5.96946 28.7305C5.9876 28.7428 6.00706 28.7561 6.02597 28.7676C6.02667 28.7693 6.02667 28.7693 6.02736 28.7684C6.04481 28.7808 6.06294 28.7925 6.08108 28.8034C6.32178 28.9508 6.5862 29.0378 6.86032 29.0586C7.01729 29.0711 7.18132 29.0617 7.33829 29.0828C7.49946 29.1036 7.63201 29.186 7.7869 29.2294C7.95783 29.2782 8.06806 29.5336 7.96055 29.7051C7.9076 29.7896 7.85736 29.8704 7.80357 29.9426C7.98015 30.1738 8.13357 30.4292 8.27248 30.672C8.46218 31.0049 8.63039 31.358 8.78387 31.7181C8.9255 31.9253 9.06085 32.1364 9.19201 32.3521C9.93504 33.5767 10.5036 34.9409 10.8532 36.3664C11.1992 37.7764 11.4155 39.3602 11.0953 40.7998C10.8002 42.1237 9.93853 43.2202 8.66318 43.2908C8.39701 43.3054 8.13525 43.2723 7.88911 43.1971C7.34841 43.5686 6.67836 43.7555 6.07871 43.7773C5.59355 43.795 5.06248 43.6814 4.66627 43.3551C4.19625 43.5826 3.68639 43.7117 3.24301 43.7411C2.7469 43.774 2.22769 43.6236 1.82325 43.3258C1.43841 43.6925 1.02315 44.002 0.551316 44.2143C-0.26008 44.5789 -1.22566 44.5339 -1.96868 43.9884C-2.7131 43.4421 -3.09194 42.4613 -2.8645 41.4881C-2.6552 40.5911 -1.99729 39.933 -1.37915 39.3664L-1.25701 39.2551C-0.645586 38.7 -0.028103 38.1628 0.364339 37.3807C0.780851 36.5511 0.932944 35.5873 0.974106 34.6483C1.06341 32.581 0.685269 30.5324 0.570153 28.4759C0.451548 26.352 0.517827 24.2217 0.77806 22.1133C1.28387 18.0176 2.61504 14.0025 5.02341 10.8099C5.37183 10.3479 5.74481 9.90762 6.13787 9.49028C6.43829 9.05322 6.76299 8.64357 7.11594 8.27667ZM39.1515 31.6622C39.1648 31.663 39.1773 31.6638 39.1892 31.6692C39.1971 31.6729 39.2038 31.6789 39.21 31.6854L39.2687 31.7507C39.2897 31.774 39.2883 31.8097 39.2687 31.8329C39.2516 31.8541 39.2206 31.8548 39.2005 31.8384L39.1948 31.8329L39.134 31.7653C39.1273 31.7573 39.1217 31.7486 39.1187 31.7375C39.1159 31.7266 39.1159 31.7142 39.1152 31.7026C39.1145 31.6816 39.1327 31.6622 39.1515 31.6622ZM6.41803 25.3222C6.97757 25.1336 7.64873 25.5822 7.98222 26.0555C8.14966 26.293 8.1971 26.6181 7.98222 26.8517C7.79943 27.0504 7.44222 27.0868 7.26571 26.8517C7.06547 26.584 6.90222 26.213 6.61617 26.0416C6.30571 25.8553 5.88989 25.9019 5.81664 26.3558C5.80408 26.4327 5.70501 26.407 5.70082 26.338C5.67361 25.8786 6.03571 25.4502 6.41803 25.3222Z" fill="black"/>
</g>
<defs>
<clipPath id="clip0_5_216">
<rect width="33" height="44" fill="white"/>
</clipPath>
</defs>
</svg>
