<svg width="39" height="44" viewBox="0 0 39 44" fill="none" xmlns="http://www.w3.org/2000/svg">
<g clip-path="url(#clip0_5_224)">
<path fill-rule="evenodd" clip-rule="evenodd" d="M33.6299 11.2105C33.4467 10.7756 33.1229 10.2289 32.5816 10.207C32.1629 9.00228 31.1218 7.77533 29.6738 7.80792C25.4235 3.71724 20.0727 3.91008 14.4783 4.77603C11.5268 5.29123 8.52993 6.30005 6.32862 8.29083C3.69212 10.6346 2.66551 14.7241 4.73011 17.6877C2.94576 18.5877 2.91113 20.7233 3.67423 22.2644C2.75695 22.8614 2.70121 24.3103 3.73409 24.7657C3.67918 24.9774 3.71801 25.1962 3.82273 25.3843C3.31061 25.7855 2.64407 26.0819 2.09304 26.3367C1.84947 26.4493 1.70898 26.6332 1.6506 26.8404C-0.158737 27.9576 -4.67037 30.6878 -4.61661 32.8607C-4.64316 33.9943 -3.74971 34.7403 -2.66397 35.0374C-3.30999 36.2529 -3.80033 37.6726 -3.18194 38.9837C-3.01101 39.3799 -1.73035 40.5442 -1.66587 40.5657C-1.55316 40.6566 0.284114 39.8627 1.17707 39.4578C1.35022 40.5178 2.55461 41.0732 3.59277 40.71C4.57716 40.4307 5.18228 39.6464 5.80315 38.9329C6.62726 40.6249 9.05194 40.6443 10.619 39.9149C12.0264 39.303 13.0962 38.1815 13.6922 36.8301C16.8569 38.2881 20.5595 38.7131 23.9978 38.1308C24.2184 38.4983 24.7069 38.7451 25.142 38.603C26.9703 38.0857 28.9917 38.0566 30.5415 36.8714C33.7719 34.6892 34.0439 30.666 33.8187 27.2366C33.6189 23.8172 33.7938 20.3694 33.1333 16.987C33.4199 15.9911 33.8967 15.1108 34.3378 14.1752C34.817 13.1942 34.8069 11.7358 33.6299 11.2105Z" fill="white"/>
<path fill-rule="evenodd" clip-rule="evenodd" d="M3.59576 25.7243C3.78614 25.6793 3.88838 25.9201 3.72677 26.0169C2.70074 26.6311 1.64081 27.1797 0.649649 27.848C-0.293074 28.4833 -1.1638 29.207 -1.97578 29.9851L-2.06576 30.0717C-2.79983 30.7825 -3.61281 31.6867 -3.62106 32.7352C-3.62741 33.5501 -2.95979 34.4397 -2.02832 34.3326C-1.67741 34.2922 -1.35485 34.7113 -1.47729 35.0134L-1.60612 35.3318C-2.12439 36.6204 -2.65169 38.0803 -2.2423 39.436L-2.22728 39.4844C-2.12826 39.7948 -2.02387 40.0691 -1.64104 40.0629C-1.28576 40.057 -0.91604 39.9443 -0.583427 39.8366C0.106783 39.6132 0.732267 39.2406 1.26318 38.7721C1.73278 38.3577 2.33275 38.7787 2.26953 39.3054L2.26728 39.3222C2.18079 39.9132 3.18119 40.1876 3.63599 40.1031C4.53398 39.936 5.17423 39.0892 5.6842 38.4436C5.92933 38.1334 6.52472 38.0113 6.74008 38.4436C7.16685 39.2999 8.04654 39.94 9.07563 39.9668C9.61017 39.9807 10.123 39.8376 10.5758 39.572C10.7606 39.4636 10.9258 39.3346 11.0774 39.1885L11.115 39.1516C11.3393 38.9278 11.494 38.8089 11.7805 38.6627C12.0627 38.5188 12.4278 38.6973 12.4261 39.0113C12.4238 39.4181 12.2971 39.6886 11.9991 39.9836C11.7524 40.228 11.4594 40.4425 11.1514 40.6139C10.5323 40.9581 9.79634 41.1518 9.07563 41.1294C7.9396 41.094 6.85527 40.5611 6.15236 39.7323C5.43469 40.5399 4.54445 41.282 3.38756 41.262C2.52148 41.2471 1.71436 40.8228 1.32766 40.1653C0.781738 40.5196 0.182556 40.7966 -0.458429 40.9774L-0.515545 40.9933C-1.42285 41.2418 -2.46698 41.3406 -3.05098 40.4929C-3.59929 39.697 -3.64019 38.5948 -3.51453 37.6851C-3.40231 36.8725 -3.13665 36.1007 -2.83157 35.3395C-3.69996 35.0955 -4.37401 34.3278 -4.60554 33.5002C-4.9558 32.2488 -4.27631 31.0352 -3.43628 30.1054C-2.52378 29.0954 -1.3753 28.241 -0.218245 27.4933C0.935759 26.7476 2.22853 26.0469 3.59576 25.7243ZM33.2679 15.9363C33.27 15.9015 33.3306 15.8894 33.3362 15.9275C33.7347 18.6496 33.9655 21.3662 34.1566 24.107C34.2535 25.4956 34.3634 26.8827 34.4838 28.2695C34.5993 29.5993 34.7916 30.9646 34.7482 32.2999C34.6801 34.3908 33.6013 36.0909 31.8324 37.3143C30.1374 38.4868 28.0347 39.0665 25.9717 39.3114C24.7736 39.4536 23.5588 39.4605 22.3594 39.3268C21.7364 39.2574 21.1142 39.165 20.5041 39.0263L20.2403 38.9642C19.7598 38.8487 19.2233 38.692 19.1548 38.1563C19.1215 37.8969 19.268 37.7055 19.5044 37.5753C19.8127 37.4055 20.1662 37.5055 20.4839 37.5828C21.0193 37.7132 21.5603 37.8251 22.1075 37.9025C23.2827 38.0688 24.4908 38.0787 25.672 37.9635C27.6589 37.7697 29.7548 37.1632 31.2868 35.9105C31.9526 35.3662 32.5315 34.703 32.836 33.915C33.2275 32.902 33.1695 31.7969 33.1564 30.7361C33.126 28.2695 33.1528 25.8029 33.1164 23.3361C33.0797 20.8618 33.1116 18.407 33.2679 15.9363ZM13.2869 4.40903C15.6086 3.84549 17.9648 3.69906 20.3497 3.86869C22.5987 4.02855 25.1608 4.50215 26.9976 5.80407C27.0868 5.86724 27.0334 5.98682 26.9231 5.97029C25.6951 5.78607 24.498 5.45099 23.2752 5.22928C22.0991 5.01603 20.9019 4.85594 19.7043 4.81884C15.6541 4.69321 11.1473 5.55699 7.88138 7.93353C6.34999 9.04781 5.18131 10.5461 4.71619 12.3289C4.23921 14.1574 4.49728 16.1348 5.45513 17.7889C5.59308 18.0271 5.53618 18.4038 5.24843 18.5306C4.37525 18.9154 3.75332 19.7677 3.76684 20.6876C3.77335 21.1337 3.93677 21.5615 4.19938 21.9303C4.47708 22.3202 4.89982 22.5931 5.21042 22.9572C5.33269 23.1006 5.33739 23.2981 5.24051 23.4302C5.42215 23.5051 5.61806 23.5453 5.79682 23.6338C5.94836 23.7088 5.95265 23.9431 5.79682 24.017C5.40269 24.2038 4.97658 24.0055 4.71059 23.7043C4.6631 23.6505 4.62203 23.5946 4.5846 23.5375C4.266 23.4739 3.98055 23.3234 3.7313 23.1176C3.25637 23.3853 3.19132 23.9811 3.59929 24.4364C3.80765 24.6688 4.10366 24.8123 4.40283 24.9154L4.43874 24.9276C4.72988 25.0249 4.99653 25.0793 5.18568 25.2985C5.31043 25.0537 5.45365 24.823 5.61328 24.6128C6.19366 23.8486 7.08579 23.1707 8.1444 23.2568C8.97363 23.3241 9.69203 23.8828 9.86197 24.6537C9.8745 24.7107 9.78314 24.7553 9.75593 24.6957C9.3581 23.8227 8.0993 23.7906 7.34948 24.2456C6.46765 24.7807 5.98572 25.7891 5.79236 26.7284C5.60206 27.6535 5.71206 28.7787 6.44778 29.4824C6.74881 29.7704 7.15835 29.9695 7.58579 30.022C7.79473 30.0477 7.97903 30.0224 8.17884 29.9846L8.31126 29.9585C8.40312 29.9406 8.49445 29.9262 8.5908 29.9342L8.73435 29.9524L8.81593 29.9883C8.88666 30.0182 8.88026 30.01 8.79677 29.9636C9.04066 29.9449 9.16673 30.1145 9.18009 30.3005C9.18784 30.3052 9.19534 30.3102 9.20161 30.3174C10.1272 31.3835 10.8145 32.6089 11.7967 33.6401L12.0843 33.9422C12.8235 34.7161 13.6674 35.5551 14.6715 35.9566L14.791 36.0031C15.0832 36.1192 15.3766 36.2782 15.4138 36.6097C15.4472 36.9066 15.1985 37.13 14.9119 37.1993C14.259 37.3569 13.5148 36.8108 13.0366 36.4525C12.0085 35.6823 11.1444 34.7005 10.4307 33.6675L10.3602 33.5646C9.77355 32.7023 9.22221 31.7189 9.05088 30.6956L9.01998 30.7427C9.01767 30.7461 9.01586 30.7486 9.01469 30.7501C8.97973 30.7948 8.94122 30.8325 8.89653 30.8687C8.77648 30.9663 8.63005 31.0232 8.47792 31.0619C8.19239 31.1344 7.87932 31.1487 7.58579 31.1204C6.98957 31.0631 6.43228 30.8495 5.96098 30.5017C4.52598 29.4425 4.35654 27.4716 4.93692 25.8726C4.46068 25.9797 3.91822 25.678 3.54636 25.4195C3.11992 25.1229 2.76826 24.6948 2.68424 24.1912C2.6008 23.6914 2.93935 23.0296 3.44148 22.8368C2.92046 22.248 2.61712 21.4125 2.58579 20.7435C2.53137 19.5798 3.18827 18.4799 4.19683 17.8449C3.24838 15.932 3.06566 13.7127 3.70426 11.6815C4.97147 7.65099 9.21645 5.39705 13.2869 4.40903ZM9.67375 35.0324L9.68559 34.997C9.78662 34.6853 9.91705 34.0652 10.4119 34.3013C10.8846 34.5267 10.5828 35.194 10.4175 35.5189C10.2197 35.9076 9.87806 36.2192 9.4193 36.3027C9.04612 36.3706 8.63633 36.2834 8.37529 36.012C8.29918 35.9329 8.25622 35.8462 8.21112 35.7504C8.19356 35.7132 8.18564 35.6876 8.18235 35.671C8.17806 35.6893 8.16586 35.7164 8.13469 35.7484C7.92641 35.9626 7.72968 36.2119 7.57855 36.4653C7.54276 36.5252 7.42997 36.4832 7.4585 36.4176C7.63453 36.0124 7.60493 35.3858 7.99732 35.0927C8.34318 34.8343 8.66817 35.0376 8.8511 35.3385L8.86044 35.3542C9.12783 35.8111 9.55394 35.3772 9.67375 35.0324ZM5.91152 33.5682L5.94764 33.521C6.31745 33.0453 6.94112 32.4731 7.56518 32.9155C7.76365 33.0562 7.77098 33.291 7.56518 33.4306L7.48731 33.4829C7.21468 33.6648 6.94322 33.8366 6.74297 34.0975C6.52538 34.3811 6.32996 34.6814 6.03742 34.9039C5.52003 35.2974 4.68388 35.375 4.23493 34.8446L4.19077 34.7919C4.15321 34.7464 4.11011 34.6916 4.07514 34.6369L4.04788 34.6724C4.04522 34.676 4.04272 34.6794 4.04042 34.6826L4.03416 34.6916C3.84963 34.9691 3.61654 35.1977 3.32622 35.378C2.77445 35.7206 2.15267 35.7683 1.52843 35.5869C1.46733 35.5691 1.48374 35.492 1.54286 35.4869C2.28254 35.4218 3.00325 34.9273 3.30412 34.2904L3.3381 34.2189C3.45985 33.9656 3.59625 33.7248 3.89704 33.6254C4.18983 33.5285 4.49721 33.6308 4.69798 33.8392C4.86585 34.0135 4.90906 34.3598 5.21191 34.2834C5.54353 34.1998 5.7302 33.8089 5.91152 33.5682ZM3.7929 29.3371C3.95673 29.2199 4.21333 29.3456 4.25843 29.5154C4.46283 30.2841 3.6139 31.19 2.79811 31.2138C2.58811 31.2199 2.3861 31.1721 2.20008 31.0806C2.05579 31.0096 1.88503 30.8284 1.72664 30.7983C1.52208 30.7596 1.34085 31.016 1.1968 31.1476C1.01813 31.311 0.841351 31.4626 0.641157 31.6018C0.561178 31.6575 0.437087 31.564 0.470892 31.4786L0.53861 31.3087C0.783734 30.7041 1.20593 29.8214 1.99602 30.0723C2.38313 30.1952 2.67452 30.6098 3.08216 30.2815C3.40859 30.0187 3.43902 29.5902 3.7929 29.3371ZM7.27888 26.2424C8.01543 25.4467 9.74685 25.867 10.0752 26.8351C10.1477 27.0488 10.072 27.3267 9.8946 27.4781C9.66085 27.6774 9.32741 27.7378 9.04361 27.5814C8.79939 27.4469 8.69913 27.2269 8.51963 27.0381C8.25636 26.7614 7.89827 26.6078 7.52929 26.4978C7.43703 26.5434 7.35119 26.6034 7.27418 26.6757C7.23477 26.7128 7.16032 26.662 7.19528 26.6184C7.24277 26.5591 7.30082 26.5033 7.36686 26.4519L7.33511 26.4431C7.23799 26.4176 7.21696 26.3095 7.27888 26.2424ZM12.0658 17.4568C12.2309 17.4571 12.4232 17.6029 12.4021 17.7733L12.3957 17.8206C12.3482 18.1449 12.2375 18.3285 11.8926 18.4791C11.6 18.6068 11.2926 18.6773 10.9719 18.7053C10.8505 18.7158 10.722 18.7164 10.5918 18.7074L10.5644 18.8562C10.5099 19.1539 10.4596 19.4519 10.4501 19.7553C10.4325 20.3178 10.6555 20.7814 10.8947 21.2837C11.3539 22.2484 11.4055 23.2114 10.9056 24.1748C10.8324 24.3156 10.6254 24.4305 10.4584 24.4162C10.2418 24.3977 10.1371 24.3387 10.0111 24.1748C9.90531 24.0371 9.92951 23.8425 10.0028 23.6985L10.0111 23.6827C10.263 23.2234 10.3424 22.7045 10.2138 22.1996C10.0929 21.7251 9.8191 21.2986 9.69683 20.8255C9.49762 20.0549 9.70977 19.2905 10.1243 18.6295C9.81143 18.5446 9.52203 18.3935 9.32892 18.1629L9.32975 18.1626C9.25603 18.0885 9.29627 17.9337 9.42564 17.943L9.57194 17.9541C9.99044 17.987 10.3757 18.0213 10.7989 17.9115C11.0158 17.8551 11.2031 17.7612 11.3893 17.6475L11.4292 17.6228C11.6622 17.4771 11.7914 17.4565 12.0658 17.4568ZM13.0674 11.7614C14.1166 11.7053 15.0122 12.357 15.4477 13.2244C15.9206 14.1661 15.7222 15.2467 15.3047 16.1732L15.1861 16.4325C14.9785 16.8818 14.706 17.4161 14.2808 17.6572C13.8032 17.928 13.3904 17.614 13.5312 17.1148C13.6152 16.8175 13.8423 16.5882 14.0261 16.3428C14.1976 16.1136 14.3576 15.8765 14.498 15.6291C14.7729 15.1439 14.9781 14.6034 14.9759 14.0475C14.972 13.0329 14.2598 11.8702 13.0674 11.8851C12.9823 11.8861 12.9837 11.7659 13.0674 11.7614ZM18.3735 10.1244C18.3081 10.0777 18.3666 9.97377 18.4397 10.0176C19.6563 10.7458 20.5647 12.1137 20.7475 13.4575C20.849 14.2031 20.7715 14.9999 20.4341 15.688C20.2406 16.0829 19.9085 16.4598 19.4441 16.568C19.0172 16.6674 18.5771 16.438 18.4446 16.0458C18.3933 15.8936 18.4817 15.7344 18.6152 15.6513C19.048 15.382 19.3966 15.0421 19.6005 14.5848C19.8126 14.1095 19.8972 13.605 19.8998 13.0922C19.906 11.8913 19.3968 10.8563 18.3735 10.1244ZM33.2347 10.6449C33.1784 10.5861 33.2493 10.4995 33.3238 10.5363C34.2033 10.9717 34.7622 11.8056 34.9223 12.7188C35.0792 13.613 34.8681 14.8302 34.1327 15.4769C33.7178 15.8419 32.9744 15.3564 33.3193 14.8863C33.5626 14.5547 33.8255 14.2816 33.9648 13.8898C34.0889 13.5402 34.1329 13.1876 34.1261 12.8203C34.1114 12.0188 33.8071 11.2424 33.2347 10.6449ZM22.4815 9.52522C23.9842 9.45786 24.8949 11.0724 25.1035 12.2757C25.2323 13.0192 25.1355 13.785 24.6993 14.4299L24.6735 14.4674C24.3136 14.9826 23.6593 15.5757 22.9543 15.3317C22.6559 15.2286 22.5765 14.9278 22.7769 14.6995C23.0837 14.3502 23.5578 14.2078 23.8462 13.8347C24.1697 13.4164 24.2758 12.8923 24.257 12.3835L24.2545 12.3273C24.2044 11.3915 23.7301 9.59532 22.4815 9.62711C22.4115 9.62882 22.4123 9.52825 22.4815 9.52522ZM27.1819 9.25697C28.6353 9.08213 29.5205 10.6914 29.7935 11.8C29.964 12.4931 30.0012 13.2662 29.7831 13.9541L29.7669 14.0031C29.5894 14.5165 29.0656 15.3961 28.3819 15.1337C28.1945 15.0619 28.0033 14.8661 28.093 14.655C28.2076 14.3852 28.3729 14.3152 28.5932 14.1425C28.7629 14.0096 28.8814 13.8188 28.9686 13.6308C29.2009 13.1299 29.2527 12.5447 29.221 12.0049L29.2166 11.941C29.1345 10.8867 28.5271 9.31537 27.1819 9.34427C27.1204 9.34559 27.1246 9.2638 27.1819 9.25697ZM29.8428 7.74404C30.6518 7.45412 31.3145 8.1821 31.7796 8.70164C32.3621 9.35264 32.8905 10.0539 33.1893 10.8643C33.4553 11.5864 33.5022 12.3893 33.2625 13.1243C33.1438 13.4882 32.959 13.8257 32.7067 14.1228L32.6744 14.1603C32.4119 14.4616 32.1584 14.6468 31.7282 14.5389C31.5531 14.4949 31.4792 14.332 31.5095 14.1763C31.5743 13.8437 31.7564 13.7574 31.9923 13.5252C32.2003 13.3204 32.3547 13.0682 32.4585 12.803C32.6725 12.256 32.6837 11.6634 32.5399 11.0998C32.3792 10.469 32.0627 9.88638 31.6966 9.34046L31.6176 9.22353C31.2297 8.64637 30.6766 7.75755 29.8583 7.8512C29.7882 7.85928 29.7873 7.7639 29.8428 7.74404Z" fill="black"/>
</g>
<defs>
<clipPath id="clip0_5_224">
<rect width="39" height="44" fill="white"/>
</clipPath>
</defs>
</svg>
