<svg width="35" height="43" viewBox="0 0 35 43" fill="none" xmlns="http://www.w3.org/2000/svg">
<g clip-path="url(#clip0_5_188)">
<path fill-rule="evenodd" clip-rule="evenodd" d="M18.1143 4.45215C21.4272 4.45215 25.4021 6.09817 25.7401 6.13109L25.7492 6.13159C25.927 6.13159 26.6218 6.67408 27.8335 7.75905L26.5211 10.3826L26.6273 10.4865C27.1355 10.9859 27.5694 11.4411 27.9119 11.8C30.7083 14.7299 31.2109 26.2337 30.5519 30.2455C29.8929 34.2572 28.6723 38.1828 22.9895 38.1828C17.3067 38.1828 10.9845 34.6808 10.0106 33.5902C9.36136 32.8632 8.63207 32.5149 7.82275 32.5453C7.78948 32.5023 7.75649 32.4594 7.72376 32.4166L7.60469 32.3993C6.4846 32.2331 5.68204 32.0093 5.19702 31.7281C4.24964 31.1788 3.20835 28.2909 3.20835 27.6547C3.20835 27.025 1.6535 22.4434 1.6224 21.9586L1.62193 21.9452C1.62193 21.5399 -0.409338 19.6767 -0.409338 19.085C-0.409338 18.4933 -0.818772 18.5292 -0.409338 16.4442L-0.290385 15.8316C0.145317 13.6117 0.998106 9.9357 4.24964 8.33839C7.82275 6.58311 14.768 4.45215 18.1143 4.45215Z" fill="white"/>
<path fill-rule="evenodd" clip-rule="evenodd" d="M3.69808 8.25591C5.4801 6.31736 15.5969 3.31889 20.7153 3.95449L20.8689 3.97487C21.2773 4.02796 21.6799 4.10834 22.0771 4.21755C23.3613 4.52492 24.6877 4.99034 25.7487 5.76775C26.6345 6.40373 29.4288 7.44232 28.6053 9.10605C28.9107 9.69903 29.0246 10.4316 28.8182 11.0156C28.7923 11.2174 28.7316 11.4032 28.654 11.5958C29.3064 12.5825 29.8229 13.6984 30.2411 14.7598C30.9718 17.4308 31.4265 20.2106 31.4931 22.9358C31.7146 28.1134 31.1607 34.2981 26.7608 37.6461C24.1028 39.7677 19.9392 39.839 16.9522 37.2085C16.7827 37.0029 15.9855 36.4481 16.2515 36.3508C16.3307 36.4365 16.4121 36.5199 16.495 36.6018C16.4912 36.5927 16.4905 36.5836 16.492 36.5737L16.4141 36.5014C16.2673 36.3622 16.0771 36.1603 16.2937 36.1998C16.3033 36.2112 16.3137 36.2211 16.324 36.2325C16.3698 36.2607 16.4045 36.2851 16.4315 36.3067L16.4453 36.318L16.4411 36.3135C16.3163 36.1771 16.2415 36.038 16.428 36.1269L16.4527 36.1392C16.5357 36.2287 16.62 36.3144 16.7058 36.3978C16.7044 36.3879 16.7058 36.3781 16.711 36.3674L16.631 36.2882C16.5529 36.2097 16.5648 36.2094 16.603 36.146C16.437 35.9075 16.7469 36.0492 16.7687 36.1422C16.9626 36.0952 17.1329 36.4683 17.2578 36.5138C22.7334 40.8282 30.6796 37 30.5509 24.9778L30.549 24.7426C30.5113 20.8984 30.1957 16.9473 28.6443 13.4675C28.4934 13.1323 28.3246 12.8062 28.139 12.4907C28.0109 12.2541 27.874 12.0235 27.7268 11.799C27.3146 11.7649 26.9076 11.6876 26.5066 11.5677C26.3689 11.5321 26.2327 11.4927 26.0967 11.4464C24.1077 11.5576 22.163 11.6785 20.1684 11.7932L19.5454 11.833C17.8558 11.9443 16.1084 12.1226 14.7449 13.1937C13.4071 14.1688 13.401 16.0917 12.2558 17.1623C10.6227 18.2983 10.6108 19.3226 10.2963 20.9967C10.3196 22.2586 11.1733 24.0921 9.60664 24.6232C9.87095 25.0095 9.50253 24.8239 9.47352 24.6884C9.47056 24.6892 9.4676 24.6899 9.46538 24.6899C9.70091 25.1387 9.35468 24.8561 9.32405 24.7119C9.30555 24.7066 9.28705 24.693 9.26855 24.674C9.50585 25.0672 9.12226 24.7919 9.14498 24.7203C8.68643 23.9979 7.74268 23.8858 7.07746 24.0772C7.06932 24.103 7.0398 24.1052 7.0213 24.0916C4.19266 24.7198 4.92248 30.7213 7.82119 30.1412C7.94528 30.1152 7.94232 30.1763 7.96697 30.1821C7.9 30.0019 8.08876 30.0753 8.08676 30.1131L8.09827 30.1125C8.10738 30.1117 8.10365 30.1107 8.11044 30.1131C8.0457 29.7446 8.41005 30.2785 8.38127 30.3004C8.39244 30.2936 8.40502 30.2898 8.41612 30.2883L8.40358 30.2533C8.34311 30.0882 8.34829 30.1568 8.34871 30.0623C8.30328 29.9454 8.29995 29.9965 8.3106 29.9204C8.47028 29.7936 8.51742 30.1783 8.5707 30.2064C8.47939 30.0759 8.55198 29.9694 8.63811 30.0402C9.29097 31.4476 10.1343 32.77 11.2242 33.8117C11.3434 33.908 11.464 34.0028 11.589 34.0923C12.0526 34.5062 12.7637 34.7723 13.1977 35.1389C13.1977 35.1449 13.1948 35.1525 13.1903 35.1601L13.2003 35.1693L13.2103 35.1791L13.3613 35.2534C13.4057 35.2921 13.4456 35.3353 13.4811 35.3831C13.5189 35.4278 13.5521 35.4771 13.5803 35.5294C13.5943 35.5931 13.5633 35.6197 13.5041 35.5924C13.4781 35.5833 13.4523 35.5727 13.4264 35.5628C13.4279 35.5651 13.4285 35.5666 13.4301 35.5681C13.4386 35.5813 13.496 35.7178 13.4298 35.6956L13.4219 35.6925C13.3856 35.6788 13.3494 35.6637 13.3139 35.6493C13.3561 35.7031 13.3945 35.7615 13.4285 35.8108C13.4649 35.8495 13.487 35.895 13.4959 35.9465C13.4944 35.9754 13.4789 35.9875 13.4508 35.9837C13.4079 35.9693 13.3657 35.9541 13.3234 35.9382L13.3355 35.9617C13.3653 36.0219 13.4077 36.1228 13.3324 36.0891C13.2679 36.0686 13.2059 36.0451 13.1437 36.0194C13.1385 36.03 13.1282 36.0338 13.1075 36.0239C12.9099 35.9519 12.719 35.8639 12.5362 35.76C12.3756 35.6402 12.2135 35.5226 12.0523 35.4035C11.9005 35.3103 11.754 35.2064 11.6142 35.0896C10.6785 34.4701 9.85926 33.6832 9.20935 32.8069C8.12243 33.7716 5.94925 32.8499 4.60497 32.0947C3.41593 31.4198 2.94857 30.1718 2.82774 28.8263C2.57652 27.0148 1.13212 26.3948 1.23261 22.4201C1.23039 22.4209 1.2281 22.4209 1.22514 22.4209C1.1726 22.405 1.12162 22.3837 1.07352 22.3564C1.02394 22.3322 0.977325 22.3033 0.933594 22.2685L0.879576 22.1919C0.851532 22.1759 0.826374 22.1592 0.807135 22.1426L0.797157 22.1557C0.765574 22.1948 0.786804 22.136 0.788636 22.1244L0.694798 21.9936C0.472303 21.6822 0.228201 21.3329 0.0293652 21.0535L0.0231021 21.0649C0.0186041 21.0734 0.0162257 21.0796 0.0183398 21.0824C-0.454863 20.3856 -0.899874 19.5439 -1.02352 18.7291C-1.16951 18.1015 -1.11246 17.4547 -0.985117 16.8734C-0.439102 14.8375 1.34952 10.2305 3.69808 8.25591ZM16.5399 36.4109L16.5102 36.3838L16.5363 36.4173C16.55 36.4346 16.5639 36.4502 16.5867 36.466C16.5853 36.4607 16.5853 36.4554 16.5859 36.4493C16.5708 36.4375 16.5554 36.4246 16.5399 36.4109ZM20.6927 4.97745C17.2217 4.67159 13.8077 5.4553 10.4955 6.40395L10.2671 6.47126C8.38371 7.02204 6.39226 7.51764 4.80069 8.69653C2.57704 10.4421 1.42877 13.219 0.426722 15.7828C-0.448277 17.6877 -0.000973126 19.8357 1.31763 21.1658C1.45482 19.844 1.68872 18.5609 2.05426 17.2881C2.13055 17.0893 2.07283 17.0241 2.23725 16.9982C2.48558 20.4282 1.2625 22.9624 3.68291 27.0274C4.73313 28.9455 3.51738 30.349 6.48313 31.3583L6.56339 31.3897C7.18126 31.6287 7.85601 31.8173 8.46118 31.6837L8.40697 31.5933C8.35167 31.5002 8.33489 31.4551 8.41531 31.4152C8.41316 31.4107 8.4102 31.4061 8.40717 31.4008C8.34212 31.2749 8.27923 31.1475 8.21922 31.0186C8.19487 31.027 8.17045 31.033 8.14522 31.0398C8.16157 31.0709 8.16372 31.102 8.11792 31.1126C7.95486 31.17 7.78742 31.193 7.61602 31.1822L7.57923 31.1794C7.38558 31.1673 7.26356 31.1311 7.15442 31.0975C7.11823 31.0914 7.08198 31.0853 7.04638 31.0778C6.69527 30.998 6.32359 30.795 6.08303 30.5939C3.3409 28.9977 3.6243 23.564 7.00428 23.0503C7.07361 19.6291 8.66134 13.8573 11.2963 10.5972C13.6781 7.59855 20.1804 6.29884 24.7042 6.75713C24.7701 6.7795 24.8361 6.8021 24.902 6.82493C25.5999 6.88848 26.2651 7.20715 26.9635 7.35519C26.4621 6.97001 25.8932 6.71345 25.3072 6.49541C24.1397 5.7635 22.8013 5.36748 21.5082 5.08817C21.2403 5.02067 20.9688 4.98351 20.6927 4.97745ZM6.84958 25.7987C7.03131 25.6975 7.01052 25.7952 7.05233 25.7668C8.35954 25.6576 9.76908 26.8305 10.4998 27.8084C10.4421 27.8698 10.2859 27.6878 10.2586 27.659C10.2549 27.6628 10.2504 27.6658 10.246 27.6673L10.2663 27.6968C10.5625 28.1324 9.97538 27.6198 9.9204 27.5141C9.91078 27.5194 9.90116 27.5225 9.89006 27.5202C9.93661 27.567 10.0788 27.689 10.1032 27.7758L10.1409 27.8079C10.4962 28.1198 10.4667 28.3544 10.0633 27.9115C10.0728 27.932 10.0765 27.951 10.0699 27.9661L10.0838 27.9756C10.2821 28.1177 10.4453 28.5138 10.0307 28.1072C10.0738 28.4042 9.61976 27.8302 9.60518 27.8342C8.81949 27.2021 7.66272 26.5873 6.67717 26.5047L6.64325 26.5007C6.4624 26.4769 6.37689 26.4219 6.44038 26.3007C6.21765 26.2464 6.26982 26.134 6.37526 26.1377C6.21817 26.0318 6.35958 25.9306 6.45074 25.9701C6.38807 25.7922 6.63943 25.9107 6.66237 25.8859C6.79282 25.6797 6.82797 25.8517 6.84958 25.7987ZM4.10952 14.7757C4.73738 14.54 6.59193 15.2456 6.44357 16.18C6.35522 16.3946 6.06412 16.5175 5.85952 16.3964L5.59248 16.2126C5.12777 15.8936 4.70865 15.6139 4.20971 15.3357C3.93815 15.1976 3.82123 14.9044 4.10952 14.7757ZM7.68166 13.387L7.43918 13.2253C6.13064 12.3476 4.28081 11.0176 7.56142 12.3936C7.93532 12.5579 8.43212 12.6552 8.63613 13.0201C8.95661 13.6927 8.1132 13.7379 7.68166 13.387ZM7.8287 9.44882C7.7237 9.04043 9.03025 9.51965 9.41059 9.64599L9.46852 9.66842C9.8385 9.80971 10.2626 9.94078 10.4839 10.268C10.7432 10.7202 10.2184 10.8138 9.89333 10.6096C9.22685 10.1632 8.49615 9.82641 7.8287 9.44882ZM11.1511 7.54643C10.4157 6.72334 12.3839 7.51184 12.6787 7.73071L12.6871 7.73716C12.9071 7.89589 12.8625 8.23777 12.6558 8.33818C12.0678 8.34963 11.6351 7.84728 11.1511 7.54643ZM14.4977 6.64463C13.3285 5.78349 14.8686 6.19309 15.4035 6.53057C15.7681 6.86009 15.3926 7.41636 14.4977 6.64463Z" fill="black"/>
</g>
<defs>
<clipPath id="clip0_5_188">
<rect width="35" height="43" fill="white"/>
</clipPath>
</defs>
</svg>
