<svg width="36" height="45" viewBox="0 0 36 45" fill="none" xmlns="http://www.w3.org/2000/svg">
<g clip-path="url(#clip0_5_144)">
<path fill-rule="evenodd" clip-rule="evenodd" d="M9.16601 2.10448C13.962 1.83146 18.2112 0.426288 21.5871 3.57113C25.2281 0.735831 27.3523 -0.141889 27.9598 0.937977C28.5704 2.02335 27.7236 3.48039 27.9507 4.81972C29.4312 7.45151 29.3475 11.9061 29.4312 12.95C29.6422 15.5813 30.9711 25.4826 30.9711 27.8338C30.9711 29.034 30.0222 32.1772 29.4312 33.9264C28.1158 37.8198 25.605 39.804 21.4874 39.804C17.3698 39.804 10.649 36.2153 8.49354 33.029C8.30463 32.7498 7.08306 33.5645 5.80535 32.1513C4.42115 30.6204 3.65327 27.7004 3.65327 25.9598C3.65327 23.751 2.28432 22.2192 2.44355 19.3919C2.79916 13.0777 4.03404 2.39662 9.16601 2.10448Z" fill="white"/>
<path fill-rule="evenodd" clip-rule="evenodd" d="M8.63036 -5.23653C8.69277 -5.2405 8.75595 -5.23733 8.81912 -5.2309C8.88838 -5.22772 8.95764 -5.22066 9.0269 -5.2063C9.37929 -5.13574 9.69362 -4.9413 9.93717 -4.66749C9.94402 -4.66034 9.94935 -4.65233 9.95544 -4.64526C10.0696 -4.55558 10.1754 -4.45391 10.2705 -4.34606C10.2873 -4.36272 10.3033 -4.37931 10.3208 -4.39598C10.371 -4.44209 10.4235 -4.48574 10.4783 -4.52693C10.7076 -4.73198 10.9766 -4.88103 11.266 -4.96584L11.3056 -4.97701C11.3132 -4.97939 11.3208 -4.98098 11.3285 -4.98257C11.534 -5.05391 11.7501 -5.09042 11.9678 -5.08971C12.2281 -5.09844 12.4891 -5.05391 12.7327 -4.94923C13.0211 -4.82455 13.2723 -4.6278 13.4831 -4.39122C13.6217 -4.27376 13.7427 -4.14447 13.8705 -4.00233C14.1346 -3.70796 14.3432 -3.36352 14.4748 -2.98407C14.4931 -2.9309 14.5091 -2.87622 14.5236 -2.82145C14.8455 -2.86026 15.169 -2.88804 15.4924 -2.90161C15.8555 -2.92455 16.2185 -2.93257 16.5823 -2.91979C17.5847 -2.88574 18.565 -2.70153 19.5141 -2.36423C19.7044 -2.30558 19.8893 -2.23098 20.0674 -2.13891C20.3467 -2.02304 20.6108 -1.87542 20.8597 -1.69685L21.0717 -1.56574C21.1782 -1.49974 21.2847 -1.43288 21.3879 -1.36431C21.6337 -1.19995 21.8666 -1.0159 22.0874 -0.817486C22.3203 -0.621375 22.5402 -0.407883 22.7495 -0.184152C22.8064 -0.123597 22.8612 -0.0622473 22.9154 -0.000501302C23.3978 0.271007 23.8264 0.618625 24.2261 1.03323C24.5431 0.84307 24.8714 0.670689 25.2102 0.517435C25.5595 0.359498 26.0032 0.1968 26.3693 0.0897363C26.6981 -0.00629548 27.0231 -0.072168 27.3526 -0.12066C27.5026 -0.147644 27.6533 -0.169073 27.8047 -0.187327L27.7987 -0.184867C27.9052 -0.196851 28.011 -0.207168 28.1183 -0.216692L28.1153 -0.217486C28.1609 -0.221375 28.2074 -0.225422 28.253 -0.228597L28.3641 -0.238041C28.3976 -0.241216 28.4463 -0.159549 28.4494 -0.130978L28.4532 -0.101613C28.4783 -0.0721681 28.5011 -0.0396286 28.5171 -0.0197873C28.5369 -0.021454 28.5567 -0.0229621 28.5765 -0.0238351C28.6359 -0.0293113 28.7044 0.0809273 28.7394 0.122991L28.771 0.161774C28.8071 0.206991 28.8431 0.259071 28.849 0.315848C28.8878 0.645292 28.9243 0.975371 28.9578 1.30553C28.9707 1.55553 28.9578 1.80315 28.9182 2.04839C28.8885 2.28648 28.8581 2.52458 28.8277 2.76188C28.7789 2.92863 28.731 3.09529 28.683 3.26188C28.664 3.32545 28.6427 3.38807 28.6222 3.45077C28.5005 3.8695 28.3578 4.27712 28.1878 4.67212C28.3118 4.81513 28.4274 4.96339 28.5349 5.11648C28.5607 5.14402 28.5865 5.1714 28.6107 5.19997C28.6176 5.18894 28.6275 5.17863 28.6381 5.17299C28.6747 5.15632 28.7013 5.17617 28.7241 5.20878C28.9639 5.44759 29.1382 5.72624 29.2463 6.04442L29.3136 6.21036C29.3247 6.23811 29.3358 6.26587 29.3467 6.29363C29.4327 6.53497 29.4989 6.78259 29.5537 7.03331C29.6028 7.23061 29.6379 7.43061 29.6606 7.63275C29.825 8.20839 29.955 8.79728 30.0776 9.37823C30.0969 9.46966 30.0878 9.55124 30.0597 9.62077L30.1314 9.69363L30.2539 9.82083C30.4597 10.0348 30.6696 10.2597 30.8225 10.5143C30.9808 10.7785 31.0973 11.0611 31.2266 11.3413L31.2545 11.4008L31.3115 11.5202C31.3731 11.6505 31.4026 11.7226 31.4573 11.8801C31.5478 12.1429 31.5965 12.4071 31.6194 12.6858C31.6529 13.0912 31.6483 13.5333 31.4778 13.9103C31.477 13.9135 31.4755 13.9159 31.474 13.9182C31.3964 14.2826 31.2046 14.6206 30.9131 14.8365C30.8507 14.8977 30.7837 14.9524 30.7121 14.996C30.5404 15.1011 30.3828 15.1105 30.1953 15.0619L30.1718 15.0555C30.1482 15.0492 30.1269 15.0436 30.1063 15.0389C30.1367 15.0651 30.152 15.0961 30.1063 15.1182C30.0622 15.1405 30.0226 15.1532 29.9853 15.1579C30.0013 15.1793 30.0028 15.2024 29.9693 15.2214C29.8962 15.2619 29.8369 15.2747 29.776 15.2635L29.7888 15.3738C29.8886 16.2087 29.978 16.3739 30.0561 17.2707C30.1078 18.1889 30.19 19.1047 30.3034 20.0167L30.3425 20.3481C30.4677 21.3984 30.6085 22.4564 30.824 23.4897C30.9329 23.9412 31.0265 24.396 31.1056 24.8539C31.2175 25.2024 31.2959 25.5587 31.3393 25.9222C31.4025 26.292 31.4458 26.6651 31.471 27.0412C31.5585 27.2818 31.6011 27.5262 31.5988 27.7754C31.6102 28.1103 31.5996 28.4445 31.5653 28.777C31.5463 29.123 31.5006 29.4658 31.4283 29.8055C31.3636 30.2715 31.2457 30.7215 31.0767 31.158C30.9412 31.6452 30.7753 32.1231 30.5866 32.5905C30.2935 33.3143 29.9396 33.9865 29.537 34.6492C29.1595 35.2706 28.7546 35.869 28.2918 36.4255C27.6936 37.1444 27.0117 37.8032 26.2643 38.3587C25.8381 38.6874 25.3883 38.9825 24.9179 39.235C24.3425 39.5444 23.758 39.823 23.1346 40.0111C22.7457 40.1285 22.3499 40.2095 21.9496 40.2715C21.1634 40.3928 20.349 40.3746 19.5582 40.2325C19.0483 40.1611 18.5467 40.0373 18.0726 39.8603C17.6829 39.7143 17.3115 39.5468 16.94 39.3579C16.749 39.2619 16.5648 39.1508 16.3882 39.0262C16.0914 38.8254 15.8136 38.5985 15.5548 38.3476C15.4704 38.2722 15.3882 38.1952 15.3075 38.1143C15.2687 38.0785 15.29 38.0254 15.3349 38.0128L15.3486 38.0111C15.3311 37.9944 15.3128 37.9778 15.2953 37.9603C15.2915 37.9571 15.2885 37.9532 15.2854 37.9492C15.277 37.9412 15.2679 37.9334 15.2603 37.9255C15.2306 37.8984 15.2603 37.8381 15.2862 37.8238C15.2961 37.8182 15.309 37.8175 15.3235 37.819C15.3204 37.8158 15.3181 37.8135 15.3151 37.8112C15.3121 37.8087 15.3113 37.8024 15.3121 37.796L15.3006 37.7866C15.2618 37.7508 15.2816 37.6985 15.3273 37.6849C15.3496 37.6778 15.3864 37.6814 15.4247 37.6901L15.4392 37.6936L15.4133 37.6682C15.3676 37.627 15.3821 37.5809 15.4384 37.5667C15.4804 37.5693 15.5219 37.5753 15.563 37.5857L15.5937 37.5944C15.6089 37.5984 15.6233 37.6032 15.6386 37.608C15.6127 37.5833 15.5868 37.5596 15.5617 37.5349C15.5366 37.512 15.5632 37.446 15.5861 37.4326C15.6173 37.4143 15.6781 37.4397 15.7063 37.4611C15.7756 37.4691 15.8669 37.5008 15.9004 37.5309C15.9925 37.623 16.0876 37.7111 16.1843 37.7968C16.2429 37.8158 16.2984 37.8412 16.3411 37.8793C16.4507 37.9889 16.5648 38.0921 16.6813 38.192L16.7698 38.2556C16.7846 38.2661 16.7995 38.2764 16.8145 38.2865C16.9819 38.3889 17.1493 38.4905 17.316 38.5928C17.9272 38.8087 18.5384 39.0247 19.1488 39.2397L19.2294 39.2651L19.8223 39.3412C20.212 39.3841 20.6025 39.3818 20.9921 39.3349C21.2844 39.3389 21.5744 39.3087 21.8598 39.2468C22.3446 39.1611 22.8203 39.035 23.283 38.8587C23.8158 38.6563 24.3235 38.3897 24.8189 38.1024C24.997 37.9984 25.1721 37.8881 25.3441 37.7715C25.3997 37.7302 25.4552 37.6881 25.5108 37.6452C25.8769 37.3587 26.227 37.0531 26.5641 36.7301C26.7225 36.5785 26.8747 36.4207 27.0216 36.2572C27.0429 36.2333 27.0634 36.2104 27.084 36.1865C27.2248 36.0262 27.361 35.8604 27.4912 35.6889L27.6152 35.5429C28.116 34.8929 28.5613 34.1937 28.9616 33.4738C29.3589 32.7603 29.6862 32.0095 29.9465 31.2325C30.0302 30.9555 30.1033 30.6747 30.1641 30.3905C30.2768 30.0492 30.3506 29.6993 30.3849 29.3421C30.3963 29.2722 30.4054 29.2024 30.4145 29.1325L30.4198 29.0224C30.4206 29.004 30.4211 28.9857 30.4214 28.9674C30.4366 28.8564 30.4496 28.7452 30.4595 28.6341C30.4655 28.5223 30.4693 28.4103 30.4701 28.2984L30.4617 27.6119C30.4595 27.5905 30.4572 27.5683 30.4556 27.546L30.4389 27.3945C30.4024 27.0817 30.3742 26.7682 30.3377 26.4556C30.3377 26.4539 30.3377 26.4516 30.3369 26.4492C30.3232 26.3325 30.3088 26.2151 30.292 26.0976C30.2836 26.0278 30.273 25.9579 30.2631 25.8881L30.2441 25.7659C30.2088 25.5534 30.1659 25.3427 30.1139 25.1338L30.0911 25.0444L29.9587 24.35L29.8095 23.6666C29.7128 23.2087 29.6321 22.7476 29.5682 22.2825C29.4525 21.5413 29.3536 20.7992 29.2676 20.0539C29.263 20.0182 29.2584 19.9817 29.2546 19.946C29.1671 19.2548 29.1039 18.5611 29.0628 17.8651C29.0073 17.1794 28.9753 16.492 28.9669 15.804C28.9662 15.773 28.986 15.7477 29.0096 15.7333L29.0074 15.601C29.0046 15.484 29.0026 15.6244 29.0017 15.491L29.0002 15.124C29.0003 15.0934 29.0006 15.0721 29.0012 15.0706C28.5945 15.0999 28.3211 15.0759 27.9284 15.0543L27.8618 15.0508C27.5018 15.0334 27.1441 14.9921 26.7887 14.9301C26.7871 14.9493 26.775 14.9627 26.7544 14.9666C26.7179 14.9682 26.6836 14.9682 26.6486 14.9691L26.6616 15.0206C26.6623 15.0469 26.6509 15.0635 26.6266 15.0706L26.525 15.0754C26.3895 15.0813 26.2535 15.0841 26.1189 15.0651C25.9979 15.0485 25.8799 15.019 25.7627 14.9841C25.6904 14.9714 25.6166 14.954 25.5412 14.9317C25.3479 14.8738 25.1561 14.796 24.962 14.7342C24.7641 14.6905 24.5632 14.6762 24.3532 14.7285C24.1309 14.7833 23.9429 14.8825 23.71 14.8222C23.6636 14.8104 23.6187 14.7921 23.5738 14.773L23.5322 14.77C23.5252 14.7693 23.518 14.7685 23.5106 14.7674C23.2678 14.731 23.0517 14.5707 22.8203 14.4849C22.7395 14.4644 22.6594 14.4696 22.5811 14.5036L22.5615 14.5128L22.4847 14.5723C22.4537 14.6103 22.4231 14.6487 22.3928 14.6873L22.3477 14.7452C22.2647 14.8524 22.1764 14.9484 22.0691 15.0182C21.9397 15.1428 21.786 15.2158 21.6025 15.2206C21.4983 15.2238 21.3948 15.2008 21.2943 15.1675C20.9153 15.2897 20.5096 15.3143 20.1313 15.1953C19.9814 15.1714 19.8345 15.1294 19.6937 15.0635C19.6275 15.0325 19.5613 14.996 19.4973 14.9555C19.2302 15.0731 18.9775 15.2293 18.7195 15.3643L18.6614 15.3948C18.3978 15.5317 18.106 15.6652 17.8077 15.6453C17.4317 15.6198 17.0626 15.5675 16.6942 15.5016C16.6912 15.5016 16.6874 15.5008 16.6843 15.5L16.6336 15.4912L16.4493 15.4575L16.3007 15.4286L16.2248 15.459C15.6147 15.6997 14.9463 15.8874 14.3333 15.719C14.0661 15.685 13.8157 15.5912 13.5897 15.4317C13.5821 15.4262 13.5745 15.4206 13.5669 15.4143C13.5311 15.3952 13.4976 15.3739 13.4679 15.3508L13.4615 15.3456L13.4557 15.3405L13.4527 15.3389C13.1186 15.1786 12.9268 14.8373 12.9603 14.4548C12.9397 14.3333 12.9405 14.2143 12.9633 14.0874C12.8545 14.2214 12.7433 14.354 12.6307 14.4857C12.2187 15.003 11.8152 15.5307 11.4415 16.08L11.3559 16.2072C11.1504 16.5095 10.9593 16.8223 10.7828 17.1444C10.6039 17.4627 10.4205 17.7778 10.231 18.0889C9.98455 18.3729 9.7463 18.6637 9.51672 18.9616L9.41886 19.0897L9.08855 19.5428C8.85489 19.8318 8.66081 20.1477 8.50783 20.4905C8.38225 20.7342 8.26656 20.9826 8.16229 21.2374C8.1288 21.3143 8.09683 21.392 8.06563 21.4698C7.95831 21.7738 7.86774 22.0834 7.79696 22.4032C7.74011 22.6346 7.69928 22.8692 7.67504 23.1071L7.66757 23.1866C7.65844 23.2801 7.65159 23.3738 7.64778 23.4674C7.66986 23.481 7.68812 23.4944 7.70182 23.5079L7.75738 23.5286L7.80231 23.5425C7.87234 23.5652 7.99327 23.612 7.9644 23.6698L7.81751 23.962C7.83273 23.9786 7.83958 23.996 7.82969 24.0151C7.73151 24.2111 7.63256 24.4071 7.53362 24.6032C7.53057 24.6104 7.52525 24.6159 7.51992 24.6199C7.6044 24.6603 7.6866 24.7047 7.76499 24.7532C7.91797 24.8485 8.03062 24.9587 8.13489 25.0873C8.24449 25.1556 8.348 25.2302 8.44542 25.3158C8.56567 25.4476 8.6707 25.5921 8.75975 25.7484C8.84195 25.896 8.90893 26.05 8.96068 26.2111C8.98351 26.296 8.99417 26.3841 8.99341 26.4738C8.90132 27.1516 8.15772 26.6873 8.14326 26.6278C8.04127 26.2182 7.92406 25.9596 7.66072 25.6548L7.65387 25.65C7.50165 25.5801 7.35096 25.5111 7.19341 25.4571C7.16981 25.4619 7.14546 25.4651 7.1211 25.469C7.1485 25.5096 7.1348 25.5493 7.07924 25.5563C6.8395 25.6056 6.59747 25.619 6.35392 25.5976L5.98402 25.5429C5.83058 25.6043 5.68393 25.683 5.54572 25.7769L5.49996 25.8087L5.49159 25.8151C5.13463 26.1143 4.85912 26.5119 4.67036 26.9452C4.65362 26.9838 4.63755 27.0228 4.62216 27.0621L4.59958 27.1214L4.59806 27.1246C4.35146 28.135 4.57142 29.2444 5.02199 30.1611C5.26783 30.5714 5.52432 30.9738 5.79222 31.3682L6.05252 31.7231C6.20626 31.8739 6.35696 32.0285 6.50385 32.1873C6.52668 32.2112 6.55104 32.2349 6.5754 32.2579C6.65303 32.3111 6.73218 32.358 6.81286 32.3977C6.84406 32.4087 6.87603 32.419 6.908 32.4278C7.06326 32.5055 7.22614 32.5469 7.39738 32.5516C7.62357 32.5673 7.84307 32.5396 8.05525 32.4694L8.09759 32.4547L8.1288 32.4428C8.24449 32.3659 8.3518 32.2698 8.45379 32.1571C8.47662 32.1325 8.51924 32.1325 8.56795 32.146C8.59459 32.1174 8.62123 32.0873 8.64635 32.0547C8.66385 32.0349 8.69125 32.0342 8.71256 32.0492C8.78487 32.0405 8.98047 32.1564 8.92948 32.2174C8.9211 32.2317 8.91045 32.2444 8.90131 32.2579C8.93556 32.2762 8.96981 32.2968 9.00026 32.3183C9.16009 32.3645 9.39618 32.5309 9.377 32.5809L9.37472 32.5849C9.33773 32.6578 9.28964 32.7191 9.23046 32.7676L9.21032 32.7833L9.16542 32.8158C9.22859 32.8572 9.28187 32.9047 9.25523 32.9381C9.24305 32.9627 9.23011 32.9866 9.21489 33.008C9.34428 33.1747 9.4729 33.3428 9.60077 33.5111C9.72863 33.8001 9.88694 34.0698 10.0757 34.3198C10.2332 34.5912 10.4228 34.835 10.6442 35.0524C10.6625 35.0715 10.6815 35.0897 10.6998 35.108C10.863 35.2337 11.0337 35.3514 11.2115 35.4645L11.2881 35.5128C11.3285 35.5381 11.3962 35.5698 11.3642 35.6309C11.3604 35.6389 11.3559 35.6453 11.3505 35.65C11.4624 35.7262 11.5781 35.7984 11.6976 35.8651L11.7089 35.8724C11.7541 35.9025 11.8153 35.957 11.7509 36.0016C11.6961 36.0397 11.5507 35.9365 11.4822 35.8889C11.4693 35.8889 11.454 35.885 11.4388 35.8802C11.4617 35.8929 11.4841 35.9066 11.507 35.92L11.5416 35.9397C11.5682 35.9563 11.6991 36.0468 11.6078 36.085C11.5629 36.0889 11.5218 36.077 11.4837 36.05C11.4388 36.027 11.3947 36.0024 11.3513 35.977C11.3665 36.0016 11.3665 36.0262 11.3285 36.0421C11.3155 36.0428 11.3026 36.0421 11.2896 36.0405C11.3795 36.1001 11.4715 36.1555 11.5667 36.2079L11.5821 36.218C11.6223 36.2451 11.6864 36.2968 11.6397 36.3413C11.5872 36.3905 11.4426 36.2857 11.4053 36.262L11.2942 36.1928C11.2858 36.1968 11.2767 36.1984 11.2668 36.1993C11.3003 36.2207 11.3315 36.2437 11.3658 36.2643L11.4123 36.2907C11.4707 36.3244 11.5532 36.3796 11.5233 36.4349C11.4934 36.4896 11.4047 36.4446 11.3473 36.4091L11.2857 36.3693C11.283 36.3676 11.2803 36.3659 11.2775 36.3643L11.2751 36.3738C11.2746 36.3754 11.2739 36.377 11.2729 36.3785C11.2444 36.4303 11.1726 36.3964 11.1231 36.3665L11.0834 36.3413C11.0159 36.2989 10.9491 36.257 10.8827 36.2146L10.7835 36.1508H10.782C10.4387 35.9357 10.1214 35.7215 9.82225 35.4453C9.64339 35.2801 9.47671 35.1055 9.3184 34.919C9.00026 34.5452 8.76356 34.1175 8.53523 33.681C8.53142 33.6738 8.53675 33.6555 8.54588 33.6357C8.52077 33.5818 8.49641 33.527 8.47205 33.4706C8.23764 33.5389 7.97582 33.5588 7.73455 33.5421C7.60516 33.5333 7.4773 33.5095 7.35019 33.4738C6.94453 33.4151 6.55332 33.2222 6.2154 32.9912C6.19408 32.977 6.17506 32.9611 6.15527 32.9469C6.01599 32.8651 5.88356 32.7699 5.75797 32.6611C5.5129 32.45 5.27924 32.2151 5.0669 31.9698C4.91315 31.7794 4.76778 31.5817 4.63155 31.377C4.49303 31.1746 4.35299 30.9723 4.21294 30.7698C3.82402 30.1349 3.57514 29.4039 3.47848 28.6571C3.43129 28.3818 3.40694 28.1032 3.41227 27.8254C3.41607 27.6246 3.43738 27.4214 3.47468 27.2191C3.45261 27.1968 3.43053 27.1747 3.40846 27.1516C3.39628 27.1738 3.38411 27.1897 3.3765 27.1817L3.20205 26.9996C3.07832 26.8695 2.99529 26.7738 2.85286 26.5635C2.62605 26.2278 2.45709 25.8587 2.33151 25.4699C2.24093 25.1921 2.18081 24.8762 2.15721 24.5707C2.1496 24.5198 2.14199 24.4682 2.1359 24.4158C2.08719 24.0024 2.1321 23.6063 2.19222 23.1984C2.19603 23.1715 2.20897 23.1548 2.22647 23.146C2.23089 23.1137 2.23614 23.0805 2.24132 23.0474C1.73716 22.4909 1.37435 21.8202 1.40395 21.0102C1.41324 20.755 1.46347 20.5034 1.55937 20.2685L1.57102 20.242C1.1502 20.1745 0.816385 19.8662 0.565603 19.4842C0.543379 19.4658 0.52184 19.4474 0.501138 19.4289C0.0526984 19.0296 -0.258211 18.4641 -0.47109 17.8668C-0.623538 17.52 -0.724536 17.1493 -0.767386 16.7649C-0.770431 16.7374 -0.772257 16.7102 -0.774617 16.6829C-0.878735 16.0751 -0.905221 15.4611 -0.85712 14.8562C-0.961619 14.4819 -1.04663 14.1009 -1.10486 13.7111C-1.13226 13.5255 -1.15128 13.3397 -1.16575 13.1539L-1.16727 13.1437L-1.16955 13.1103L-1.17598 13.027C-1.17699 13.0132 -1.17792 12.9994 -1.17868 12.9857C-1.30731 11.2857 -0.942743 9.61267 -0.339953 8.03807C-0.287437 7.89646 -0.233209 7.75521 -0.177268 7.61509L-0.11794 7.4687C0.487134 6.45124 1.39573 5.62831 2.16528 4.75918C2.43083 4.45934 2.00134 4.00918 1.7348 4.31021C1.2235 4.88767 0.674973 5.44077 0.179726 6.03434C0.0922756 6.04101 0.00467292 6.04347 -0.0827013 6.03894C-0.234921 6.03093 -0.382574 6.00561 -0.525661 5.96505C-0.882617 5.91029 -1.20761 5.76029 -1.50291 5.53966C-1.89792 5.34767 -2.23509 4.98569 -2.26858 4.51347C-2.27238 4.46585 -2.27162 4.41902 -2.26858 4.37228C-2.30511 4.14124 -2.27238 3.89926 -2.17953 3.67617C-2.16355 3.61505 -2.143 3.55474 -2.11712 3.49521C-2.04177 3.31823 -1.91771 3.14847 -1.76625 3.03331C-1.76245 3.03093 -1.7594 3.02942 -1.75636 3.02696C-1.74038 3.00958 -1.72515 2.99204 -1.70765 2.97624C-1.68177 2.95156 -1.65437 2.92863 -1.62545 2.9072C-1.7282 2.73093 -1.82105 2.55005 -1.90021 2.35712C-1.98621 2.14759 -2.03035 1.93497 -2.05471 1.71029C-2.0646 1.6214 -2.06841 1.53331 -2.06993 1.44529C-2.0745 1.40474 -2.07754 1.36347 -2.08059 1.3222C-2.09961 1.00791 -2.0646 0.6818 -1.95196 0.38807C-1.94359 0.365927 -1.93293 0.343626 -1.92304 0.32061C-1.90173 0.253943 -1.87813 0.187356 -1.84921 0.122197C-1.73657 -0.127803 -1.57674 -0.339708 -1.37961 -0.513518C-1.27306 -0.625422 -1.15357 -0.724628 -1.02342 -0.808755C-0.946549 -0.858755 -0.859023 -0.9032 -0.76693 -0.939708C-0.602532 -1.03018 -0.391708 -1.11272 -0.22046 -1.11899C-0.199911 -1.11987 -0.181644 -1.11741 -0.161856 -1.11741C-0.145872 -1.57304 -0.0895512 -2.06907 0.0832184 -2.48177C0.183683 -2.7809 0.334381 -3.04677 0.561189 -3.23812C0.692732 -3.38129 0.854825 -3.49755 1.05709 -3.57354L1.0932 -3.58653L1.1069 -3.5905C1.2888 -3.68257 1.48516 -3.71907 1.68685 -3.7182C1.92203 -3.73098 2.16178 -3.68487 2.36652 -3.57225C2.40914 -3.54844 2.4548 -3.51907 2.49819 -3.48733C2.53091 -3.55558 2.56745 -3.62463 2.60931 -3.6936C2.7562 -3.93891 2.93354 -4.15241 3.13903 -4.34685C3.16339 -4.36987 3.19003 -4.3905 3.2159 -4.41264C3.31561 -4.50709 3.4214 -4.59439 3.531 -4.67376C3.7677 -4.84526 4.02723 -4.97296 4.29971 -5.05558C4.61428 -5.17679 4.9462 -5.23307 5.27824 -5.22123L5.34698 -5.2182C5.3622 -5.21669 5.37742 -5.2159 5.39189 -5.2151C5.72144 -5.1928 6.04643 -5.10868 6.35696 -4.98177C6.6789 -4.84915 6.95138 -4.64844 7.20482 -4.41828C7.26419 -4.50391 7.33193 -4.58495 7.41489 -4.66114C7.43848 -4.68249 7.4636 -4.70161 7.48719 -4.72145C7.50546 -4.7405 7.52449 -4.75876 7.54428 -4.77701C7.63485 -4.86034 7.73074 -4.93257 7.83578 -4.99685C7.95375 -5.06899 8.08085 -5.11899 8.21252 -5.14995C8.34647 -5.19764 8.48728 -5.22701 8.63036 -5.23653ZM7.06631 27.4817C7.07979 27.481 7.78469 27.7566 8.1359 27.9348L8.15316 27.9436C8.55807 28.1532 8.75291 28.304 9.11671 28.573C9.14107 28.5913 9.16619 28.619 9.16619 28.646C9.16619 29.0379 9.07487 29.517 8.759 29.3048C8.71333 29.2741 8.66733 29.2441 8.62098 29.2146L8.55122 29.1706L8.54893 29.1714C8.54969 29.1714 8.55046 29.1706 8.55122 29.1698C7.86318 28.7325 7.13633 28.3897 6.36915 28.1444C6.31663 28.1246 6.70554 27.5119 6.81286 27.546C6.75121 27.5206 7.05606 27.4823 7.06631 27.4817ZM14.2955 10.1734C13.838 10.2244 13.3805 10.2747 12.923 10.3238C12.6315 10.3587 12.3392 10.3897 12.0469 10.4158C11.6078 10.4501 11.1686 10.4555 10.731 10.3928C10.5757 10.3707 10.4235 10.3389 10.2728 10.3C10.1701 10.3785 10.0635 10.4524 9.95468 10.5231L8.74605 11.4873C7.93548 12.1516 7.14241 12.8555 6.4285 13.6325C5.18167 14.99 4.16614 16.5781 3.52765 18.3372C3.46973 18.3728 3.42498 18.435 3.41006 18.5303C3.29726 19.2513 2.9674 19.9089 2.84822 20.627C2.73085 21.3343 2.88696 21.9356 3.31302 22.4962C3.40397 22.616 3.59029 22.6097 3.7046 22.5288C3.73117 22.5832 3.84625 22.5809 3.88666 22.3405C4.0761 22.1266 4.23814 21.9024 4.34789 21.6247C4.42871 21.4203 4.29286 21.2785 4.128 21.2507C4.1965 20.9935 4.27376 20.7387 4.3606 20.4866C4.61785 19.7373 4.94512 19.0215 5.35688 18.3501C5.71916 17.7595 6.13852 17.2452 6.5891 16.7293C6.59442 16.7222 6.60356 16.7199 6.61345 16.7183L6.70707 16.6103C6.72 16.5952 6.74664 16.5968 6.77633 16.6047C6.80449 16.5738 6.83189 16.542 6.86081 16.5111C6.88897 16.4793 6.92017 16.4889 6.93768 16.5143C6.98563 16.5032 7.07315 16.5571 7.09979 16.5747C7.14546 16.6063 7.15992 16.642 7.1211 16.6873C7.11425 16.6953 7.1074 16.7032 7.10055 16.7103C7.15307 16.7334 7.20482 16.7643 7.24516 16.7945C7.38597 16.827 7.58385 16.9635 7.5496 17.004C7.4773 17.0825 7.40728 17.1628 7.33802 17.2444C7.3989 17.2889 7.43848 17.3325 7.4225 17.3516C7.12567 17.6778 6.85167 18.0231 6.60051 18.3889C6.40948 18.6619 6.23671 18.946 6.0822 19.242C5.85235 19.6611 5.65751 20.092 5.48474 20.5349C5.46038 20.6024 5.43679 20.6698 5.41396 20.7373C5.16127 21.4746 4.97252 22.2397 4.8926 23.019L4.88926 23.0716C4.87438 23.3523 4.86855 24.104 4.84085 24.2833C5.00905 24.3698 5.18411 24.4436 5.36601 24.504C5.40026 24.5143 5.43527 24.5239 5.47028 24.5326C5.49007 24.5239 5.51062 24.5166 5.53117 24.5103C5.69861 24.4397 5.87366 24.3889 6.05252 24.3643C6.17306 24.3477 6.29302 24.3419 6.4129 24.3455L6.46428 24.3476C6.51755 24.3492 6.57007 24.3532 6.62334 24.3588C6.6203 24.327 6.61878 24.2961 6.61649 24.2643C6.60127 24.2539 6.58986 24.2397 6.5891 24.2206C6.55332 23.8635 6.55256 23.5063 6.58681 23.1492C6.60965 22.9627 6.63628 22.777 6.66521 22.5913C6.69489 22.4389 6.72914 22.2889 6.76643 22.1389C6.86537 21.7183 6.99704 21.3079 7.15688 20.9064C7.61201 19.7611 8.26427 18.7285 8.92034 17.7016C9.39907 16.9516 9.85193 16.1849 10.3474 15.4476C10.7691 14.8198 11.212 14.2016 11.6847 13.6143C12.1565 13.0278 12.6551 12.4635 13.1932 11.9413C13.2799 11.8579 13.3674 11.777 13.4565 11.6969C13.9664 11.2207 14.5205 10.8293 15.0974 10.4453C15.1195 10.4302 15.1591 10.4469 15.1918 10.4754L15.2849 10.4157C15.3005 10.4058 15.3161 10.396 15.3318 10.3865C15.3463 10.377 15.3623 10.3928 15.3707 10.4063C15.4102 10.3849 15.4498 10.3643 15.4894 10.3436C15.5182 10.3193 15.548 10.2963 15.5771 10.2724C15.1493 10.2499 14.7221 10.2166 14.2955 10.1734ZM19.661 4.88251C19.3154 4.81037 18.9684 4.79997 18.6198 4.85394C18.4737 4.87624 18.3284 4.90307 18.1842 4.93553C18.5116 5.23315 18.7748 5.61402 18.9457 6.05236C19.1303 6.52617 18.3938 6.73037 18.2118 6.26339C18.0362 5.81291 17.7038 5.46736 17.3023 5.26021C17.2156 5.31077 17.1315 5.36553 17.0512 5.42617C16.9461 5.51505 16.8472 5.61109 16.7543 5.71664C16.5519 5.94609 16.3662 6.25236 16.2444 6.55553C16.1972 6.72061 16.1622 6.89045 16.1401 7.06505C16.1356 7.10474 16.131 7.14521 16.1272 7.18569C16.0521 8.00704 16.2774 8.80617 16.6648 9.51331L16.6801 9.51355C17.0259 9.31799 17.388 9.15323 17.7605 9.01902C18.0589 8.80958 18.3686 8.61585 18.6875 8.44045C19.3655 8.06749 20.0815 7.77998 20.8194 7.58337L20.9046 7.56109C21.0784 7.51479 21.2538 7.474 21.4298 7.43832L21.5356 7.41751H21.5371L21.5257 7.29918C21.4663 6.83489 21.292 6.40394 21.0667 6.00561C20.8978 5.70482 20.6428 5.39688 20.3597 5.15085L20.3581 5.14997C20.2296 5.07378 20.0944 5.01076 19.9553 4.95868L19.903 4.93966L19.661 4.88251ZM10.3832 4.17704C9.6647 4.10632 8.94622 4.11347 8.22774 4.17458C7.75814 4.22307 7.29159 4.29045 6.82732 4.37617C6.51299 4.43251 6.20474 4.51188 5.90182 4.61037L6.07509 4.97574C6.36466 5.58423 6.66127 6.18873 7.01074 6.76347C7.19112 7.0595 7.38673 7.34132 7.59984 7.61188C7.74368 7.80553 7.90199 7.98497 8.07552 8.14997C8.12119 8.20799 8.1699 8.26275 8.21937 8.31585C8.37768 8.45712 8.54817 8.58093 8.73463 8.68331C8.88415 8.79689 9.04028 8.89611 9.20302 8.98309L9.26436 9.01513L9.83518 9.24363C9.86563 9.25262 9.89641 9.26162 9.92731 9.27016L9.9737 9.28259L10.0605 9.30156L10.1256 9.2647C10.1365 9.25862 10.1475 9.25262 10.1587 9.2468C10.1769 9.23656 10.1899 9.2564 10.1937 9.27061C10.1952 9.27624 10.1929 9.2841 10.1891 9.29204L10.2723 9.24513C10.4153 9.30569 10.5671 9.3541 10.7299 9.38601C10.8035 9.40037 10.8774 9.4114 10.9513 9.42085L10.9612 9.42774C10.9628 9.42895 10.9645 9.43027 10.9662 9.4318H11.047C11.616 9.48902 12.1931 9.41339 12.7612 9.30696C13.565 9.22267 14.3687 9.12974 15.172 9.04283C15.1872 9.04132 15.1933 9.04839 15.1933 9.05958L15.2428 9.05482C15.3143 9.0468 15.3981 9.1714 15.344 9.21672C15.3874 9.24363 15.4293 9.28259 15.4605 9.31275L15.4787 9.31109C15.3684 9.08569 15.2831 8.84997 15.2222 8.60482L15.1446 8.19363C15.1233 8.04045 15.1111 7.87704 15.1088 7.71585C15.1035 7.64204 15.0997 7.57307 15.0997 7.51267C15.0997 7.45553 15.1005 7.39839 15.1028 7.34132C14.9513 7.27617 14.7976 7.2191 14.6408 7.17061C14.1955 7.11355 13.751 7.05632 13.3058 6.99998C13.0387 7.01029 12.7715 7.03013 12.5051 7.06109C12.203 7.08886 11.9016 7.12458 11.6009 7.16743C11.5728 7.17061 11.5225 7.13093 11.4921 7.0849L11.3635 7.10323C11.2965 7.11196 11.2265 6.9722 11.3148 6.94363C11.3467 6.9304 11.3787 6.91788 11.4107 6.90582L11.4586 6.88807L11.4312 6.89124C11.4221 6.89212 11.4107 6.88966 11.3977 6.88497C11.3269 6.89442 11.2562 6.90394 11.1861 6.91267C11.0973 6.92423 11.1175 6.80214 11.1798 6.77341L11.2097 6.76188C11.1571 6.72767 11.1108 6.63407 11.1759 6.60346L11.1846 6.59997C11.2151 6.58736 11.2447 6.57696 11.2752 6.56505C11.2729 6.55482 11.2729 6.54521 11.2759 6.53656L11.1504 6.55315C11.1389 6.55472 11.1935 6.47115 11.2196 6.45463L11.2242 6.45236L11.2843 6.43331C11.2934 6.40632 11.3422 6.3468 11.3589 6.34132C11.5796 6.26902 11.7851 6.20402 11.9998 6.15394C12.0104 6.14045 12.0226 6.13013 12.0363 6.12696C12.1702 6.09363 12.3057 6.06743 12.4412 6.04529C12.4503 6.03093 12.4595 6.02069 12.4701 6.01982C12.8058 5.97537 13.1422 5.96505 13.4801 5.98894C13.5448 5.99521 13.6095 6.00243 13.6742 6.01109C13.7982 6.02545 13.9223 6.0437 14.0456 6.06831C14.3544 6.12358 14.6561 6.20759 14.9498 6.32092L15.0175 6.34759C15.0913 6.37624 15.1644 6.40632 15.2367 6.43894C15.2732 6.30323 15.3189 6.16982 15.3729 6.03894C15.3813 6.01347 15.3904 5.98894 15.4003 5.96434L15.3265 5.91823C15.3105 5.94997 15.2778 5.97458 15.2565 5.96117C14.7275 5.58894 14.1681 5.27855 13.5783 5.03093C13.248 4.87855 12.91 4.74926 12.5637 4.64124C12.391 4.58339 12.2167 4.53101 12.0416 4.48101C11.9541 4.46188 11.8666 4.44283 11.7775 4.42696C11.3201 4.29839 10.8551 4.21513 10.3832 4.17704ZM27.8133 5.4368C27.7491 5.55251 27.6823 5.66712 27.6114 5.78013C27.2673 6.32926 26.8548 6.84458 26.387 7.29386C26.509 7.29355 26.6307 7.29839 26.7509 7.31013C26.9582 7.33053 27.1612 7.3664 27.359 7.41664C27.3751 7.40323 27.3931 7.39648 27.4074 7.40712L27.459 7.44434C27.8835 7.56378 28.282 7.75156 28.643 8.00315L28.6365 7.95347C28.6354 7.94519 28.6342 7.93691 28.6328 7.92863C28.6389 7.83101 28.6404 7.73331 28.6374 7.63648C28.5628 7.06426 28.3763 6.53728 28.1632 6.00402C28.1592 5.9937 28.1621 5.98029 28.1682 5.96664C28.0607 5.78347 27.943 5.60632 27.8133 5.4368ZM27.9113 0.93807C27.7522 0.968229 27.5947 1.00712 27.4379 1.05553C27.1433 1.10164 26.8579 1.18259 26.5824 1.29759C26.2026 1.43807 25.8343 1.60156 25.4674 1.77466C24.755 2.11109 24.0868 2.53656 23.4787 3.04926C23.4398 3.08013 23.4025 3.11196 23.3652 3.1437C23.229 3.26664 23.0966 3.39521 22.971 3.53093C22.8393 3.68013 22.7069 3.82942 22.5752 3.97934C22.4139 4.15561 22.2282 4.31505 22.082 4.50553C22.0524 4.54442 22.0265 4.58728 22.0029 4.63021L22.0889 4.66109C22.1612 4.68648 22.149 4.82775 22.0775 4.80712C22.0531 4.79997 22.0303 4.79124 22.0074 4.7818C22.0173 4.79529 22.0242 4.80878 22.0257 4.82061C22.0303 4.8587 22.0021 4.91117 21.9572 4.89767C21.9367 4.89204 21.9161 4.8841 21.8956 4.87537C21.8895 4.89997 21.8849 4.92458 21.8849 4.94839C21.8887 4.94997 21.8925 4.95156 21.8971 4.95243C21.9473 4.97069 22.0417 5.05236 22.0554 5.10799C22.0661 5.15085 22.031 5.1968 21.9861 5.1841C21.9526 5.17458 21.9199 5.16029 21.888 5.14442C21.9093 5.16593 21.926 5.18894 21.9275 5.20878C21.9306 5.24529 21.9001 5.2968 21.8583 5.28497C21.7806 5.26267 21.7182 5.22863 21.6665 5.18577C21.6528 5.20474 21.633 5.21982 21.617 5.21513L21.5873 5.20561C21.5954 5.21349 21.6029 5.2218 21.6101 5.22997L21.6208 5.24204C21.8309 5.47855 22.0143 5.74045 22.1612 6.02228C22.168 6.01426 22.1764 6.00712 22.1871 5.99839C22.2556 5.93807 22.3263 5.87934 22.3971 5.82228L22.4185 5.80276L22.4405 5.78331L22.2814 5.83807L22.285 5.83377C22.2962 5.81877 22.3312 5.76873 22.3475 5.75206L22.3515 5.74839C22.5699 5.5445 22.8081 5.3714 23.0654 5.23021C23.2321 5.11743 23.4071 5.0222 23.5905 4.94363C24.0282 4.73172 24.4742 4.57069 24.9323 4.42148C25.0008 4.39847 25.0693 4.37386 25.1378 4.35156C25.1576 4.34442 25.1614 4.35315 25.1584 4.36743L25.1942 4.35632C25.2581 4.3349 25.3669 4.45236 25.3236 4.50712C25.3497 4.52934 25.3754 4.5541 25.3979 4.57734L25.4141 4.59442L25.4324 4.58886C25.4868 4.57137 25.5785 4.65977 25.6368 4.72237L25.6797 4.76982C25.7125 4.80632 25.7764 4.88172 25.698 4.91117L25.5998 4.94601C25.6029 4.96664 25.5945 4.9841 25.5641 4.99601C25.5298 5.00791 25.4963 5.02061 25.4628 5.03339C25.4831 5.05185 25.5031 5.07106 25.5227 5.09051L25.5519 5.11982C25.5863 5.1565 25.6681 5.23734 25.5959 5.27304L25.5869 5.27696L25.4933 5.31188C25.5055 5.34045 25.5024 5.36751 25.4613 5.38331C24.9148 5.57696 24.3813 5.80402 23.86 6.06196C23.4695 6.28728 23.057 6.45561 22.6224 6.56585C22.5866 6.57783 22.509 6.52148 22.477 6.46513L22.4122 6.48505C22.4014 6.48833 22.3905 6.49151 22.3796 6.49442L22.369 6.49688C22.4504 6.72307 22.5105 6.96823 22.544 7.20553C22.5478 7.22696 22.5509 7.24926 22.5532 7.27069C22.6384 7.26347 22.7229 7.25712 22.8081 7.25244C23.398 7.21982 23.9947 7.23966 24.5861 7.31267C24.825 7.16426 25.0549 7.00156 25.2748 6.82545C25.3418 6.7714 25.408 6.71585 25.4735 6.6595C25.8662 6.30394 26.2217 5.90482 26.5367 5.47378C26.8282 5.07458 27.0817 4.64601 27.2948 4.19688C27.4836 3.77537 27.6396 3.33728 27.7576 2.8849C27.8656 2.4714 27.9029 2.06902 27.9303 1.64124C27.9395 1.5714 27.9455 1.50164 27.9509 1.43172L27.9502 1.4018L27.9493 1.38728C27.9417 1.23736 27.9273 1.08728 27.9113 0.93807ZM22.3347 6.25315C22.3172 6.2595 22.2989 6.26585 22.2807 6.2714C22.2913 6.29601 22.3012 6.3199 22.3111 6.34442L22.3123 6.34393L22.3842 6.2849C22.369 6.27775 22.3515 6.26672 22.3347 6.25315ZM27.8047 -0.187327C27.9417 -0.240502 28.0452 -0.250819 28.1153 -0.217486C28.0118 -0.209549 27.9082 -0.199232 27.8047 -0.187327Z" fill="black"/>
</g>
<defs>
<clipPath id="clip0_5_144">
<rect width="36" height="45" fill="white"/>
</clipPath>
</defs>
</svg>
