<svg width="36" height="44" viewBox="0 0 36 44" fill="none" xmlns="http://www.w3.org/2000/svg">
<g clip-path="url(#clip0_5_278)">
<path fill-rule="evenodd" clip-rule="evenodd" d="M26.3692 7.11424C20.7445 4.17501 12.3635 4.49108 8.40595 10.05C7.77607 11.105 7.13667 12.2605 6.82644 13.4362C6.43736 14.9541 5.74902 17.206 5.58944 19.3892C5.49674 20.6574 5.91833 21.887 5.80394 22.9762C5.7135 23.8373 4.84873 23.5756 4.88385 24.4016C4.95247 26.0154 5.00255 28.3639 5.80394 29.6341C6.55712 30.7317 7.96375 30.6643 8.79061 31.6996C9.5699 32.6745 10.2435 33.7561 11.2285 34.5365C13.2902 38.4591 19.1741 39.3496 23.1406 38.9836C32.5913 37.4527 32.4799 23.0509 32.3442 15.4754C32.3868 11.5977 29.5968 8.72734 26.3692 7.11424Z" fill="white"/>
<path fill-rule="evenodd" clip-rule="evenodd" d="M12.1377 2.83427C15.5711 0.885699 19.6704 0.0677805 23.5726 0.501572C25.5263 0.719632 27.4747 1.21395 29.1887 2.22277C30.752 3.14157 32.0313 4.49339 32.8732 6.12061C33.6746 7.67117 34.0795 9.44902 34.1244 11.1966C34.1473 12.0797 34.062 12.9636 33.8953 13.8304C33.8124 14.2634 33.6867 14.743 33.7873 15.1838C33.8847 15.6106 34.2782 15.8488 34.5727 16.1328C35.8925 17.4063 36.5417 19.3385 36.2898 21.1676C36.0728 22.7452 35.1352 24.3926 33.7622 25.2324C33.9699 25.4745 34.1304 25.7663 34.2401 26.0518C34.5088 26.7549 34.4898 27.5076 34.1967 28.1975C33.8976 28.9006 33.3009 29.7542 32.6228 30.1213C32.2871 30.3021 31.8929 30.3648 31.5321 30.2477C31.3099 32.7248 30.6394 35.0893 28.9002 36.9929C27.5013 38.5247 25.5948 39.5886 23.5558 39.8804C22.4476 40.0379 21.3113 39.9922 20.2131 39.7771C19.6963 39.6763 19.1878 39.528 18.697 39.3349C18.1512 39.1199 17.601 38.9065 17.2044 38.4548C16.7903 37.9838 17.1945 37.2745 17.8018 37.4096C18.375 37.5368 18.8773 37.8674 19.4329 38.0614C19.9489 38.2407 20.4871 38.3796 21.0282 38.4518C22.1112 38.5977 23.2232 38.4797 24.269 38.1669C25.9609 37.6602 27.531 36.5459 28.5578 35.08C29.739 33.3944 30.2223 31.3706 30.398 29.3328C30.5998 26.9869 30.5206 24.6209 30.5404 22.2688C30.5511 21.0295 30.5404 19.7902 30.5488 18.5517C30.5572 17.3713 30.526 16.1934 30.599 15.0161C30.5472 15.006 30.494 14.9835 30.4415 14.944C29.8942 14.5389 29.465 13.9631 28.9421 13.5192C28.4139 13.0707 27.8408 12.6772 27.2441 12.3311C25.0118 11.0352 22.4301 10.4788 19.8744 10.5214C18.4686 10.5447 17.0895 10.7325 15.7157 11.0313L11.4566 12.1914C10.5821 11.5714 9.59268 11.1353 8.62837 10.6782C8.5279 11.0825 8.24097 11.4705 8.06363 11.8291C7.82838 12.304 7.61154 12.789 7.41974 13.2841C7.0331 14.2805 6.72334 15.3133 6.48968 16.3586C6.27242 17.3322 6.14511 18.3192 6.02312 19.308L5.98659 19.6047C5.92114 20.1378 5.84883 20.6779 5.81991 21.2142C5.80393 21.5036 5.81002 21.7946 5.80545 22.084C5.80157 22.282 5.73771 22.6995 5.90592 22.8857C5.91962 22.9004 5.93408 22.9136 5.95075 22.9253C6.87099 22.6413 7.92892 22.9524 8.34981 23.9139C8.37644 23.9744 8.31099 24.028 8.26 23.9845C7.40224 23.252 5.91505 23.6687 5.44545 24.6635C5.22626 25.1268 5.19353 25.6879 5.30617 26.1845C5.43936 26.7689 5.79548 27.2554 6.0178 27.804C6.14262 28.1122 6.20275 28.4179 6.25069 28.7454C6.28038 28.9479 6.29408 29.2343 6.43869 29.391C6.59243 29.5579 6.89154 29.5796 7.0978 29.6269C7.38473 29.6929 7.66177 29.7728 7.92351 29.9125C8.94575 30.4573 9.46862 31.7299 10.1947 32.5913C10.6125 33.0871 11.0669 33.5527 11.5518 33.9811C12.016 34.3917 12.7595 34.7285 12.8227 35.4067C12.8441 35.631 12.6477 35.8521 12.4483 35.908C11.9521 36.0477 11.5967 35.7008 11.2343 35.4089C10.8987 35.139 10.5753 34.8534 10.2669 34.5515C9.65661 33.9548 9.1071 33.2959 8.61315 32.5975C8.25612 32.0923 7.95784 31.4397 7.44562 31.0742C6.92275 30.7017 6.21713 30.7979 5.70499 30.3657C5.08621 29.8434 5.21103 29.1334 5.03065 28.4248C4.85636 27.7435 4.39818 27.1794 4.2589 26.4794C4.01078 25.2269 4.38296 23.6928 5.58169 23.0758C5.65399 23.0386 5.72858 23.0052 5.80393 22.9764C5.7811 22.9594 5.75979 22.94 5.74076 22.9182C5.60521 22.7685 5.55048 22.5163 5.50702 22.3254C5.3701 21.7294 5.29399 21.1102 5.21332 20.5041C5.0474 19.2718 5.13492 18.0193 5.329 16.7955C5.51091 15.6439 5.79632 14.5164 6.186 13.4207C6.05053 13.3252 5.94321 13.184 5.88385 13.0046C5.75522 12.6237 5.87091 12.2349 5.94466 11.8516C5.96673 11.7344 5.99116 11.6172 6.01628 11.5C5.95843 7.71144 9.07666 4.57099 12.1377 2.83427ZM6.19511 25.6847C6.71494 25.6762 7.15646 25.7772 7.60847 26.0611C8.04154 26.3343 8.44416 26.7286 8.63976 27.2128C8.80188 27.6131 8.1519 27.8763 7.96162 27.5038C7.76602 27.1211 7.62065 26.7649 7.30708 26.4593C7.00949 26.1683 6.57947 25.9028 6.18301 25.7779C6.1327 25.7616 6.1426 25.6855 6.19511 25.6847Z" fill="black"/>
</g>
<defs>
<clipPath id="clip0_5_278">
<rect width="36" height="44" fill="white"/>
</clipPath>
</defs>
</svg>
