<svg width="36" height="45" viewBox="0 0 36 45" fill="none" xmlns="http://www.w3.org/2000/svg">
<g clip-path="url(#clip0_5_172)">
<path fill-rule="evenodd" clip-rule="evenodd" d="M21.9428 40.3479C20.3673 40.3434 18.9253 40.0233 17.557 39.3224C15.905 38.7604 14.101 38.4541 12.7603 37.2099C12.1074 37.3542 11.4383 36.6554 10.8967 36.2392C10.0133 39.6284 5.41629 39.0646 3.47388 36.8742C2.28566 35.8279 1.80769 33.2394 3.8711 32.5546C0.490375 30.1602 -0.730732 26.024 -0.498369 21.5484C-0.253828 14.0406 5.28134 6.2352 12.3957 4.93298C13.7992 4.67552 15.2405 4.70274 16.6379 5.00893C17.4183 5.18544 18.1726 5.52766 19.0078 5.5121C22.2469 4.97821 25.8045 5.03956 28.4799 7.20123C32.756 10.1845 33.3503 16.1535 32.8506 20.9525L32.8709 20.9974C32.6223 22.759 32.2092 24.3724 31.4279 25.4345C31.3671 26.9614 30.8583 30.2208 30.8206 31.5093C30.9119 37.5054 27.646 40.1666 21.9428 40.3479Z" fill="white"/>
<path fill-rule="evenodd" clip-rule="evenodd" d="M3.12692 32.472C-7.11375 23.0367 3.39209 1.80323 16.7163 4.62045C18.0649 5.09133 19.4343 5.25474 20.8309 4.90585C27.8685 3.7599 33.6258 9.98696 33.3283 17.1913C33.3778 18.4236 33.3682 19.6569 33.2405 20.8842C33.0944 22.4974 32.6956 24.2226 31.806 25.5636C31.7957 26.4644 31.2872 29.8433 31.2054 31.4329L31.1898 31.7649C31.1087 33.3986 30.9338 35.0649 30.2451 36.5547C28.1271 40.5565 22.6712 41.4153 18.7591 40.2495L18.5965 40.1938C17.8698 39.9419 17.046 39.6062 16.5846 38.9716C16.3407 38.6362 16.7444 38.2082 17.0802 38.2993C17.5123 38.4168 17.8705 38.6915 18.2739 38.8866C20.9054 40.0993 24.0178 39.6932 26.6154 38.5605L26.694 38.5259C31.3462 36.5567 30.0718 29.5518 30.6842 25.5576C30.8235 20.4856 26.7667 17.0316 23.7102 13.677L23.6187 13.5708C23.3046 13.2076 22.973 12.8537 22.5363 12.7762C22.4168 13.1546 22.1227 13.4766 21.8499 13.7525L21.233 14.4477C20.616 15.142 19.9978 15.8335 19.3707 16.5188C16.3258 19.7441 13.2235 24.1232 8.53004 24.4529C8.81857 24.7251 9.07156 25.0362 9.37395 25.2925C9.50151 25.4256 9.37144 25.649 9.20034 25.6034C8.88129 25.5184 8.67724 25.2028 8.46786 24.9562C5.93294 23.8466 3.85118 27.947 5.99885 29.6446C6.79557 30.5243 9.1237 29.8549 8.58537 30.9397C9.17294 32.8611 10.0774 34.7936 11.6072 36.0789C12.0564 36.4325 12.758 36.6116 13.0561 37.1323C13.128 37.2578 13.0913 37.4625 12.9562 37.5293C12.3063 37.8452 11.6082 37.3138 11.109 36.9135C8.47319 42.2862 -1.19247 36.3502 3.12692 32.472ZM18.7903 6.21855L18.5262 6.16468C15.71 5.58372 13.8535 5.00857 10.8761 6.05895C4.2398 8.3703 -0.0384157 15.7331 0.146531 22.8892C0.15087 26.9544 2.08353 32.1383 6.43671 32.7153C7.09488 32.7698 7.1052 33.8349 6.45664 33.803L6.43679 33.8016C5.36371 33.7318 4.32497 33.326 3.4395 32.7016C2.25158 34.7078 3.44209 36.5282 5.29293 37.3905C7.16828 38.4224 9.17309 38.0934 10.4262 36.2703C9.28254 34.9454 8.43955 32.9652 8.24455 31.2087C5.03271 32.5079 2.61036 27.7187 4.70004 25.1789C5.43541 24.0856 6.86293 23.4023 8.03974 24.1783C13.1026 22.1472 16.6373 17.8304 20.0217 13.6017L20.2023 13.3875C20.7949 12.6896 22.1573 11.1132 22.3085 10.9094C22.4783 10.6803 22.8211 10.8866 22.8254 11.1327C22.8284 11.3077 22.8191 11.4851 22.8002 11.6622C23.4303 12.0859 23.9409 12.7293 24.4109 13.3234C27.9194 16.1947 30.7726 19.202 31.6602 23.7573C32.2113 23.0865 32.4613 22.2059 32.6416 21.3649C33.0197 15.817 32.0037 9.17339 26.5144 6.76672C23.8763 5.40204 21.5227 6.02744 18.7903 6.21855ZM6.342 27.0546C6.11344 26.8418 7.62354 26.8161 7.76609 26.9827L7.79862 26.9943C8.33928 27.1925 9.32929 27.8316 8.84313 28.4951C8.14992 29.1763 7.66715 27.1538 6.342 27.0546Z" fill="#221E1F"/>
</g>
<defs>
<clipPath id="clip0_5_172">
<rect width="36" height="45" fill="white"/>
</clipPath>
</defs>
</svg>
