<svg width="36" height="44" viewBox="0 0 36 44" fill="none" xmlns="http://www.w3.org/2000/svg">
<g clip-path="url(#clip0_5_208)">
<path fill-rule="evenodd" clip-rule="evenodd" d="M32.8722 20.9565C32.5837 16.1295 31.0475 10.657 26.5263 8.28703C16.559 4.20845 3.45412 14.4795 2.7603 24.9721C2.51842 28.5638 4.47429 32.4885 8.04849 33.4871C8.84316 34.5605 10.0449 35.2161 11.2311 35.7851C25.3592 43.2586 34.4853 37.1835 32.8722 20.9565Z" fill="white"/>
<path fill-rule="evenodd" clip-rule="evenodd" d="M36.0906 17.954C35.5913 16.5401 35.0639 15.1371 34.509 13.7449C33.9687 12.39 33.4806 11.0058 32.8095 9.71506C28.8015 2.00613 21.5133 2.00613 17.7458 3.0134C15.7921 2.15513 12.1327 2.39722 10.0983 3.17171C6.80486 4.42551 2.79014 9.3577 1.4175 11.5737C-1.61313 16.4664 -3.50446 22.9785 -1.49135 28.6322C-1.22824 29.3711 -0.892669 30.0555 -0.514859 30.715C-0.752855 31.0439 -1.02677 31.3554 -1.33022 31.6614C-2.23198 32.5711 -3.13373 33.4508 -3.91271 34.4767C-4.68683 35.4963 -5.32858 36.5806 -5.80633 37.776C-6.70716 40.0305 -6.75055 42.5833 -5.55958 44.7345C-4.52342 46.6062 -2.68787 48 -0.619891 48.133C-0.513717 48.148 -0.407392 48.1618 -0.300609 48.1728C-0.0266137 48.6329 0.307509 49.0566 0.68882 49.426C1.85711 50.559 4.64197 51.1402 6.23038 51.1775C6.31182 51.2442 6.39402 51.311 6.47622 51.3769C7.44814 52.1568 8.46802 52.9437 9.58379 53.4985C10.3396 53.8749 11.3305 54.1892 12.119 53.9176C12.4767 54.1613 13.0635 54.11 13.4182 53.9106C14.0012 53.5831 14.4754 52.9934 14.7638 52.3896C15.4633 50.9237 15.2951 49.3197 15.1155 47.7537C14.9176 46.024 14.7273 44.2935 14.534 42.5637C14.3825 41.2111 14.2242 39.836 13.8208 38.5331C13.6123 37.858 13.3391 37.2092 12.9859 36.5993C12.995 36.5481 12.9935 36.4969 12.9791 36.4487C12.8634 36.0654 12.6244 35.8644 12.3413 35.6037C12.3047 35.5703 12.2682 35.5362 12.2324 35.5012C12.0909 35.3367 11.9394 35.1838 11.7773 35.0542C11.7149 34.9898 11.6532 34.9247 11.5916 34.8595C11.0793 34.3124 10.5953 33.7373 10.1653 33.1212C9.74819 32.5237 9.37144 31.8997 9.01296 31.2642C8.6484 30.6178 8.40713 29.9046 8.04332 29.2629C8.01212 29.2078 7.93296 29.1969 7.88882 29.2427C7.77618 29.3614 7.70387 29.4933 7.71757 29.6322L7.66125 29.6408C7.63994 29.4312 7.45043 29.2605 7.19318 29.3063C6.80806 29.3746 6.49144 29.4002 6.15808 29.2698C6.21669 28.8733 6.27072 28.476 6.324 28.0779C6.42142 27.3453 6.51199 26.6104 6.58962 25.8755C6.77762 25.9213 6.96408 25.9873 7.14675 26.0711C7.40704 26.1898 7.65288 26.3497 7.86294 26.546C8.06996 26.74 8.21305 27.0015 8.46573 27.1366C8.75647 27.291 9.10734 27.0357 9.0221 26.7005C8.84933 26.023 7.87132 25.635 7.26624 25.5069C7.05846 25.4627 6.84611 25.4441 6.63377 25.4487C6.68172 24.9769 6.72434 24.5051 6.75935 24.0325C6.77609 23.809 6.79131 23.5855 6.80578 23.3613C7.27614 23.2162 7.77998 23.1727 8.26937 23.241C8.43072 23.3721 8.59208 23.5017 8.7481 23.6329C9.24358 24.0504 9.73677 24.4702 10.2239 24.8978C10.268 24.9358 10.3114 24.9738 10.3555 25.0126C10.6448 25.2664 11.0055 25.015 10.9568 24.6557C10.5595 21.7115 12.3283 19.3694 14.3993 17.5551C16.6917 15.546 20.8595 15.3121 23.5857 11.832C24.8413 12.0926 27.6447 12.8664 28.8015 14.746C30.4212 17.3797 30.2096 19.7396 30.3329 22.7273C30.4562 25.7172 30.7698 28.836 30.1038 31.7841C29.4896 34.5025 27.8266 36.8251 25.2465 37.8929C25.1825 37.9193 25.1178 37.9449 25.0531 37.9697C23.7189 38.4827 22.2629 38.6278 20.8595 38.3577C19.3061 38.0582 18.0092 37.3334 16.7168 36.4418C16.6422 36.3913 16.5334 36.4953 16.5897 36.5714C18.293 38.873 21.6388 39.642 24.2928 39.0344C24.4169 39.0057 24.5402 38.9747 24.6627 38.9405C24.069 40.6811 24.1885 42.5917 24.9618 44.2865C25.4268 45.3062 26.1362 46.1885 27 46.8846C27.9522 47.6513 29.1334 48.2705 29.794 49.3469C30.3991 50.3332 30.2195 51.4413 29.1836 52.0109C28.9226 52.1553 28.8221 52.6217 29.0809 52.8265C29.1798 52.9041 29.2788 52.9833 29.38 53.0609C29.9599 53.5071 31.5529 54.3452 31.8109 54.3762C34.1018 54.6533 35.6423 52.9383 36.6295 50.9152C37.7886 48.5406 37.4872 45.6468 36.2101 43.3855C35.1856 41.5712 33.168 39.7833 33.9702 37.487C34.2563 36.6668 34.8416 35.9676 35.4102 35.3359C36.0586 34.6166 36.7558 33.943 37.3776 33.198C37.9956 32.4585 38.5436 31.6538 38.8496 30.7256C39.2963 29.3692 39.0741 27.9025 38.7385 26.5484C38.0192 23.6414 37.0854 20.7733 36.0906 17.954Z" fill="black"/>
</g>
<defs>
<clipPath id="clip0_5_208">
<rect width="36" height="44" fill="white"/>
</clipPath>
</defs>
</svg>
