<svg width="35" height="44" viewBox="0 0 35 44" fill="none" xmlns="http://www.w3.org/2000/svg">
<g clip-path="url(#clip0_5_248)">
<path fill-rule="evenodd" clip-rule="evenodd" d="M28.7412 11.7807C28.2174 9.8022 28.2923 9.5882 27.5118 7.69837C24.9234 2.20807 7.62622 4.04637 5.8609 9.52689C4.90321 12.5001 5.1282 16.6874 4.8789 19.2656C4.80262 20.6325 4.72768 21.9995 4.65005 23.3663C4.62324 23.8383 4.59611 24.3104 4.56849 24.7823C4.5147 25.7011 4.46238 26.6199 4.41355 27.539C4.08833 30.3704 5.44512 30.6584 7.77236 30.5746C8.38764 32.1313 9.38414 33.4308 10.6151 34.4882C10.318 35.3357 11.3953 35.7745 11.9765 36.1134C15.1386 37.9649 19.0227 39.0944 22.5251 38.0533C23.5542 37.7473 27.8041 36.6878 29.1108 33.4079C29.7525 31.7973 31.057 23.4562 29.3367 15.9531L28.7412 11.7807Z" fill="white"/>
<path fill-rule="evenodd" clip-rule="evenodd" d="M17.6851 -1.1248C18.1742 -1.21551 18.7211 -1.18059 19.0014 -0.676958C19.0621 -0.568394 19.1006 -0.458899 19.1191 -0.351033C20.4555 -0.666094 21.8429 -0.700239 23.2081 -0.493819C23.6151 -0.432592 23.7579 0.136227 23.5788 0.461454C23.5603 0.494823 23.5418 0.527338 23.5218 0.559232C23.9495 0.595627 24.3765 0.673228 24.7998 0.792812C25.1009 0.878174 25.3821 1.28713 25.2482 1.62237C25.2363 1.65186 25.2238 1.68135 25.2112 1.71076C25.8764 1.82801 26.512 2.10195 27.0677 2.54428C27.1343 2.59627 27.1957 2.66378 27.2468 2.74061C28.4892 2.59386 29.7686 2.86322 30.8778 3.49179C31.1885 3.66787 31.3388 4.17546 31.1279 4.49207C31.062 4.59062 30.9932 4.68452 30.9192 4.77532C31.4017 4.96234 31.8286 5.2649 32.1165 5.75775C32.4295 6.29242 32.5257 6.98075 32.3577 7.56897C32.7084 7.94378 32.8919 8.51795 32.7669 9.09376C32.6529 9.61919 32.3458 9.9528 31.9522 10.1531C32.0321 10.4092 31.9677 10.7002 31.7864 10.898C31.5082 11.2014 31.1752 11.4342 30.8127 11.5872C30.8119 11.6857 30.7882 11.7874 30.7409 11.8821C30.4138 12.54 29.7086 12.977 28.9916 13.043C29.2328 14.1053 29.4311 15.1809 29.6235 16.2502C29.9655 18.1522 30.2303 20.0729 30.3916 22.0012L30.4112 22.2397C30.674 25.5027 30.7351 28.921 30.1023 32.1399C29.699 34.1894 28.4766 35.9168 26.8457 37.087C25.1875 38.2773 23.1615 38.8695 21.168 38.9633C20.1513 39.0107 19.1251 38.9206 18.1291 38.7019C17.6562 38.5979 17.1996 38.4504 16.7505 38.2626C16.2673 38.0601 15.8693 37.7613 15.4607 37.4253C15.2484 37.2507 15.3698 36.8387 15.6213 36.7866C15.8011 36.7486 15.9787 36.7075 16.1578 36.6734C16.3221 36.6415 16.5012 36.8138 16.4671 36.9729L16.8136 37.0665C16.929 37.0977 17.0444 37.1292 17.1596 37.1616L17.3321 37.2111C17.8227 37.3547 18.3244 37.4757 18.8276 37.5619C19.8517 37.7365 20.9172 37.7404 21.9465 37.6046C23.6772 37.3772 25.445 36.73 26.791 35.5373C27.451 34.9522 28.0008 34.2592 28.3996 33.4545C28.9065 32.4324 29.0597 31.294 29.187 30.1634C29.5547 26.894 29.4415 23.62 29.1559 20.3499C29.0138 18.7234 28.8199 17.1 28.6142 15.4804C28.5084 14.6501 28.3945 13.8182 28.3006 12.9848C28.0911 12.9258 27.8913 12.828 27.7122 12.686C27.5909 12.5898 27.5198 12.478 27.4888 12.364C27.3079 12.3282 27.1346 12.2241 27.0097 12.0482L26.9937 12.0248C26.6659 11.5273 26.0992 11.2426 25.5745 11.0354C25.2563 10.9097 24.9322 10.8002 24.6096 10.6885C24.2736 10.5714 23.9185 10.3983 23.5655 10.3533C23.1652 10.3036 22.7619 10.4301 22.3579 10.3851C21.9909 10.3432 21.6675 10.205 21.4034 9.92882C21.3109 9.8326 21.2309 9.72163 21.1673 9.60212C19.9353 9.87831 18.6411 9.52995 17.361 9.61376C16.5189 9.66964 15.776 10.216 14.925 10.2012C14.6927 10.1973 14.4677 10.112 14.3042 9.96219C13.5014 10.1228 12.6852 10.4316 11.9304 10.697C11.1845 10.9594 10.4668 11.3125 9.72977 11.5988C9.72903 11.5996 9.72903 11.5996 9.72903 11.6004C9.63284 11.9271 9.34574 12.0682 9.04013 12.0109C8.04045 11.8239 7.19838 11.1626 6.22534 10.9206C5.95747 11.9441 5.66963 12.9544 5.47287 13.9982C5.27375 15.0513 5.1339 16.1183 5.0414 17.1877C4.94817 18.2609 4.90377 19.345 4.90155 20.4221C4.90081 20.9715 4.91413 21.5224 4.93189 22.0718C4.94628 22.5321 5.02991 23.1141 4.87134 23.5568L4.85715 23.5944H4.85641C4.83718 23.6588 4.7506 23.6976 4.70176 23.6379C4.40356 23.2746 4.33252 22.6966 4.24965 22.2402C4.14901 21.6862 4.08464 21.1267 4.03291 20.5656C3.92925 19.4396 3.90631 18.3183 3.96106 17.1877C4.06836 14.9621 4.40874 12.6114 5.13538 10.5077C4.91191 10.5294 4.81202 10.1841 4.79722 9.98935C4.76891 9.59791 4.82737 9.18252 4.89074 8.78993L4.95699 8.3835C5.0198 7.99988 5.08629 7.62626 5.21085 7.25313C5.50987 6.35753 5.93971 5.51641 6.47544 4.75204C7.56836 3.19302 9.08313 2.01263 10.8079 1.33214C10.9159 1.28946 11.018 1.29024 11.1083 1.32275C12.6778 0.435845 14.3649 -0.247047 16.0786 -0.732832C16.6084 -0.882602 17.1449 -1.02384 17.6851 -1.1248ZM4.65147 23.8963C5.36405 23.4276 6.83434 23.305 7.2317 24.3037C7.24798 24.344 7.2021 24.3797 7.16806 24.3704L7.07083 24.3446C6.69732 24.2476 6.37456 24.1918 5.99153 24.3526C5.65485 24.4939 5.32779 24.715 5.10506 25.0192C4.57856 25.7386 4.52147 26.7157 4.57057 27.5884L4.57303 27.6305C4.61891 28.3964 4.80612 29.3291 5.52018 29.7078C5.88202 29.8995 6.27345 29.8855 6.66637 29.8824C7.11405 29.8793 7.57134 29.9305 7.99904 30.075C8.23804 30.1556 8.35052 30.4877 8.15221 30.6826C8.08635 30.747 8.01754 30.8074 7.94502 30.8618C8.16183 31.104 8.37493 31.3492 8.58138 31.6076C8.93138 32.046 9.30358 32.4697 9.69206 32.8709C10.068 33.2581 10.4661 33.6329 10.8952 33.9542C11.3466 34.291 11.8868 34.5277 12.2775 34.9405C12.532 35.2091 12.4884 35.5838 12.2775 35.8554C11.7539 36.5304 10.8628 35.8208 10.3623 35.4217L10.3018 35.3735C9.78159 34.9607 9.2873 34.5152 8.86627 33.9907C8.43709 33.4552 8.06563 32.8856 7.79111 32.247C7.6298 31.8714 7.52694 31.5168 7.47145 31.1459C6.57166 31.5556 5.4373 31.4252 4.63075 30.8486C3.56003 30.0834 3.25961 28.6789 3.25586 27.3969L3.25597 27.3209C3.26389 26.0747 3.57606 24.6035 4.65147 23.8963ZM6.68145 25.7024L6.71445 25.7029C7.11072 25.7119 7.46412 25.8615 7.80072 26.0678L7.83548 26.0893C8.16254 26.2934 8.63168 26.4571 8.80483 26.8389C8.90842 27.0694 8.90102 27.3333 8.72047 27.5241C8.39341 27.8703 7.89986 27.8128 7.54616 27.5427C7.282 27.3402 7.10811 27.0368 6.84912 26.8319C6.36223 26.4455 5.59415 26.4672 5.08735 26.8017C5.0562 26.8226 5.02594 26.7831 5.03992 26.752C5.35117 26.0841 5.96802 25.6999 6.68145 25.7024Z" fill="black"/>
</g>
<defs>
<clipPath id="clip0_5_248">
<rect width="35" height="44" fill="white"/>
</clipPath>
</defs>
</svg>
