<svg width="33" height="43" viewBox="0 0 33 43" fill="none" xmlns="http://www.w3.org/2000/svg">
<path fill-rule="evenodd" clip-rule="evenodd" d="M4.74196 7.76564C5.10377 7.3436 5.56654 7.02918 6.07242 6.92869C5.61 7.17979 5.15798 7.44151 4.74196 7.76564ZM4.03326 11.4046C3.96928 11.083 3.92631 10.7583 3.91277 10.4336C3.99363 10.5672 4.12277 10.6565 4.26782 10.7026C4.17412 10.9307 4.09445 11.1656 4.03326 11.4046ZM28.244 16.4473C27.8263 14.5577 25.8779 10.923 25.4174 10.2234C24.9173 8.49122 27.6447 7.10206 26.1614 5.74752C25.4898 5.13634 24.6022 4.92005 23.7696 4.70331C18.0047 3.19839 11.8109 3.95737 6.46424 6.72476C5.65096 6.53873 4.80363 6.9023 4.21221 7.54085C1.43373 10.5765 5.22028 16.0536 6.04828 19.4759C7.46889 23.2918 4.54256 23.9337 4.85638 27.1624C5.10021 28.8303 6.65442 29.2712 7.96598 29.5233C8.17619 29.5767 8.45721 29.5848 8.52503 29.8263C8.73754 31.2362 9.46605 32.5798 10.4441 33.4917C10.3586 33.7671 10.4239 34.1015 10.7255 34.3434C13.4581 36.5508 16.9038 37.6555 20.312 37.457C24.3738 37.2203 26.4742 34.6897 26.9811 34.0381C29.7836 29.9241 29.4487 24.4961 28.877 19.5933C28.4788 16.1779 28.9838 19.7948 28.244 16.4473Z" fill="white"/>
<path fill-rule="evenodd" clip-rule="evenodd" d="M15.72 0.723513C15.8476 0.289721 16.209 0.0288392 16.6228 0.082684C16.989 0.129703 17.3811 0.524818 17.3365 0.960885C17.3281 1.04506 17.317 1.12394 17.3037 1.19826L17.3054 1.19892L17.3072 1.19902L17.2981 1.22783C17.2709 1.36662 17.2332 1.49099 17.1774 1.60854C17.1063 1.83378 17.0379 2.05977 16.9702 2.28653C17.0679 2.28198 17.1676 2.28805 17.2688 2.30852C17.3735 2.0173 17.4788 1.72685 17.5835 1.43487C17.6958 1.12318 17.7746 0.722755 17.9965 0.481591C18.2804 0.173689 18.773 0.109986 19.119 0.329915C19.4846 0.561978 19.6151 0.974536 19.5356 1.41667C19.4951 1.6422 19.3565 1.79914 19.185 1.89776L19.1665 1.9081L19.0346 2.24785C19.0751 2.22889 19.117 2.21145 19.1623 2.19704C19.2335 2.17429 19.3032 2.15988 19.3716 2.15381C19.56 1.78297 19.7672 1.42274 19.9814 1.06933C20.2276 0.662843 20.709 0.489933 21.113 0.747022C21.4744 0.976811 21.6683 1.58048 21.4095 1.97711C21.2128 2.27819 21.0265 2.58533 20.843 2.89551C20.8744 2.90157 20.9058 2.90916 20.9358 2.91902C20.9497 2.89854 20.9644 2.87806 20.9797 2.85759C21.18 2.5876 21.413 2.38512 21.6523 2.16064C21.8763 1.94981 21.9795 1.6184 22.2739 1.45838C22.6444 1.25741 23.0909 1.35372 23.3114 1.75415C23.7844 2.61187 22.9904 3.23829 22.4825 3.75778C22.9242 3.45822 23.3839 3.18445 23.8556 2.94783C24.1207 2.81512 24.39 2.68695 24.6635 2.57623C25.0688 2.41242 25.3967 2.46482 25.7295 2.76961C25.8781 2.90612 25.9521 3.20424 25.8837 3.40286C25.7511 3.78357 25.5418 4.01487 25.1749 4.12484C24.9167 4.20219 24.6523 4.25452 24.3942 4.33566C23.9616 4.47066 23.5416 4.63522 23.1342 4.84074C23.1635 4.86046 23.1914 4.8817 23.2172 4.90596C23.5214 4.79903 23.8311 4.70651 24.1423 4.62764C24.6584 4.49611 25.1836 4.40724 25.7112 4.35165L25.8864 4.33391C26.5189 4.26794 27.2795 4.14618 27.6676 4.80434C27.7953 5.02124 27.8093 5.37919 27.6676 5.59381C27.397 6.00637 27.1276 6.08827 26.6797 6.09586C27.1207 6.14667 27.5609 6.20961 27.999 6.28318C28.301 6.33323 28.603 6.38997 28.9037 6.45292L29.0539 6.48491C29.4202 6.56453 29.829 6.6108 30.1437 6.84134C30.8302 7.34491 30.5079 8.32549 29.7474 8.43014C29.3797 8.4802 28.9716 8.31108 28.6109 8.23221C28.2607 8.15561 27.909 8.08811 27.556 8.02896C27.3732 7.99787 27.1904 7.97057 27.007 7.94554C27.3802 8.00394 27.7507 8.0866 28.1114 8.20339L28.2116 8.23625C28.9089 8.46726 29.8501 8.83519 30.0676 9.64506C30.1995 10.1373 29.8388 10.5665 29.4021 10.5953C28.996 10.6219 28.6576 10.3587 28.313 10.1646C28.0618 10.0235 27.8065 9.91808 27.5358 9.82783C27.256 9.73455 26.9707 9.6572 26.6832 9.59425C26.9261 9.73972 27.1627 9.89961 27.3898 10.0785L27.4942 10.1623C28.0978 10.6512 29.0182 11.408 28.8056 12.3244C28.7386 12.6134 28.4421 12.8894 28.1574 12.8598C27.4165 12.7847 27.0076 11.927 26.4488 11.4674C26.303 11.3476 26.1432 11.2293 25.9758 11.114C26.8228 12.2122 27.4967 13.4817 28.0095 14.7929C29.1365 17.6776 29.4822 20.3491 29.4905 23.4508L29.4907 23.5469C29.4921 25.2578 29.4565 26.9998 29.303 28.7031C29.1607 30.2767 28.8997 31.8299 28.2432 33.2549C27.143 35.6445 24.999 37.5056 22.6346 38.2139C20.0037 39.0026 17.063 38.386 14.9079 36.5659C14.3581 36.1018 15.0872 35.094 15.6488 35.5224C17.8918 37.2326 20.7928 37.774 23.3672 36.6168C25.4093 35.6991 27.0537 33.7251 27.7507 31.4522C28.1943 30.0063 28.3235 28.4645 28.4817 26.9576L28.4923 26.8572C28.6597 25.2813 28.7567 23.6948 28.7553 22.1082C28.7532 19.1619 28.3639 16.7367 27.1716 14.0641C26.6107 12.8052 25.883 11.6412 25.0137 10.6196C24.75 10.678 24.4695 10.5961 24.203 10.565C24.067 10.549 23.9309 10.5339 23.7949 10.5202C23.9338 10.6179 24.0701 10.7195 24.2041 10.8234L24.3798 10.9611C24.9297 11.3892 25.6274 11.8768 25.486 12.7044C25.4476 12.9281 25.2425 13.1336 25.0437 13.1844C24.323 13.371 23.8276 12.6096 23.3407 12.1576C22.9172 11.7647 22.4742 11.4128 22.0228 11.0602C21.9202 10.9806 21.817 10.9009 21.713 10.8221C21.8107 10.9458 21.9057 11.0715 21.9983 11.1984L22.1354 11.3872C22.5499 11.9511 23.1476 12.684 22.7783 13.415C22.6737 13.6212 22.4504 13.7585 22.2342 13.754C21.4904 13.7373 21.1946 12.8196 20.8458 12.2402C20.5458 11.7435 20.22 11.2756 19.883 10.8077C19.7902 10.6795 19.6967 10.5513 19.6018 10.4232C18.0397 10.5111 16.4832 10.7356 14.9539 11.0943C13.9032 11.3408 12.87 11.6601 11.8444 12.0097L11.7592 12.0392C11.2041 12.2334 10.6322 12.482 10.2321 12.9084C10.1749 13.2021 10.2188 13.5119 10.2734 13.8052L10.316 14.0298C10.4915 14.9687 10.6111 15.8902 10.5216 16.8542C10.4288 17.8484 10.1532 18.7426 9.81695 19.6663C9.65788 20.1016 9.49323 20.0227 9.43672 20.4899C9.39343 20.8457 9.4202 21.213 9.44978 21.5718L9.47449 21.876C9.53651 22.6729 9.56766 23.5416 9.08718 24.1991C9.01253 24.2999 8.85277 24.2598 8.79974 24.1589C8.77881 24.1187 8.75649 24.08 8.73207 24.0429C8.50044 23.6781 8.14532 23.4703 7.73928 23.3899C7.68765 23.38 7.70788 23.305 7.75114 23.2989C8.09439 23.2549 8.41951 23.3482 8.69579 23.5408C8.56477 23.0483 7.55047 23.2878 7.21704 23.3835L7.20556 23.3869C6.78974 23.5082 6.39625 23.7054 6.04951 23.9845C5.35183 24.5457 4.94858 25.4208 4.96881 26.3635C4.98904 27.2902 5.42928 28.1464 6.18556 28.5901C6.55044 28.8039 6.96556 28.9071 7.37858 28.9025C7.80974 28.898 8.19346 28.6925 8.62532 28.7213C8.87509 28.738 9.06625 29.0292 8.92183 29.2832C8.82556 29.4531 8.69997 29.5866 8.55486 29.689C8.90858 30.5755 9.35997 31.4211 9.88044 32.2015C10.1686 32.6345 10.4951 33.0342 10.8544 33.399C11.1349 33.6841 11.7425 34.014 11.7083 34.4895C11.6965 34.6609 11.6149 34.7656 11.4711 34.8293C11.0243 35.0278 10.481 34.3441 10.1821 34.0145L10.1581 33.9882C9.78556 33.5848 9.44579 33.1388 9.14997 32.6656C8.62532 31.8253 8.29951 30.8781 8.16486 29.8831C7.44835 30.1175 6.49951 29.8975 5.91486 29.6101C4.07718 28.7076 3.47649 26.0177 4.59346 24.2264C4.80974 23.8798 5.08044 23.5833 5.38881 23.3436C5.32114 23.3034 5.25765 23.2519 5.20114 23.1866C4.88853 22.8257 4.66751 22.3546 4.44816 21.9205L4.42183 21.8686C4.22711 21.4864 4.0434 21.0982 3.87121 20.7039L3.80718 20.5558C3.42277 19.6572 3.08579 19.2643 2.8116 18.3194C2.54788 17.4078 2.33997 16.4788 2.20532 15.5339L2.16954 15.2837C2.09167 14.7354 2.01802 14.1491 2.07486 13.5924C1.68346 13.7312 1.28997 13.8169 0.902765 13.6083C0.647416 13.4711 0.506486 13.0707 0.593695 12.7832C0.657183 12.5716 0.76323 12.4056 0.897881 12.2751C0.817649 12.2311 0.7423 12.175 0.676021 12.1128L0.618114 12.0583C0.383695 11.8368 0.366951 11.4159 0.509277 11.1383C0.52323 11.1118 0.537183 11.0845 0.550439 11.0579C0.685788 10.7948 0.965556 10.6226 1.24183 10.6272C1.28649 10.6279 1.33114 10.6279 1.37649 10.6272C1.24742 10.5961 1.12114 10.5483 1.00114 10.4679C0.459742 10.1062 0.528114 9.12558 1.18323 8.95267C1.45811 8.88062 1.7616 8.9102 2.06439 8.98755C2.05323 8.98072 2.04207 8.9739 2.0309 8.96632C1.80207 8.81388 1.61021 8.51584 1.63183 8.21021C1.65556 7.87198 1.75602 7.63081 2.0309 7.45335C2.26951 7.30016 2.60718 7.28575 2.84439 7.45335C3.05021 7.59972 3.25183 7.76125 3.44579 7.93492C3.25114 7.6748 3.0823 7.39192 3.01393 7.09161C2.92951 6.71773 3.07044 6.31048 3.38021 6.1133C3.62718 5.95632 3.88811 5.97376 4.12114 6.0951C4.10858 5.89868 4.15253 5.69847 4.27253 5.52101C4.51811 5.15706 4.96463 4.94767 5.35323 5.21311C5.40416 5.24799 5.47253 5.3079 5.53881 5.38147C5.40974 4.93478 5.52625 4.4661 5.96649 4.26438C6.23509 4.14076 6.59858 4.20295 6.8316 4.41605C6.6837 3.54619 7.86486 2.90688 8.32393 3.80556C8.42811 4.00914 8.5312 4.22351 8.62338 4.4428L8.65742 4.52526L8.6609 4.52374L8.63745 4.46345L8.61346 4.40316C8.48579 4.08085 8.32323 3.74565 8.27858 3.39603C8.213 2.87882 8.42509 2.38815 8.94277 2.31231C9.20997 2.27288 9.50718 2.40484 9.68649 2.63546C9.58951 1.83302 10.4142 1.24983 11.0079 1.84894C11.289 2.13258 11.439 2.54741 11.6176 2.91143C11.7188 3.11695 11.8221 3.32171 11.9232 3.52799C11.949 3.49462 11.977 3.46125 12.0063 3.42864C11.8563 2.94025 11.7397 2.43972 11.6414 1.93616C11.5479 1.46141 11.7663 0.968469 12.217 0.834312C12.6265 0.711379 13.1393 0.985987 13.2307 1.45997C13.2949 1.79358 13.3709 2.12355 13.4546 2.45185C13.5118 2.43669 13.5683 2.42607 13.6242 2.41849C13.6288 2.3568 13.6341 2.29479 13.64 2.23311L13.6619 2.01373C13.7107 1.51248 13.7599 0.940289 14.0009 0.514201C14.4118 -0.213842 15.4653 0.0879926 15.4765 0.948751C15.4828 1.39392 15.316 1.83529 15.2581 2.27591C15.233 2.46778 15.2183 2.66193 15.21 2.85607C15.3223 2.21145 15.4765 1.57517 15.6551 0.948751C15.676 0.873672 15.6983 0.798592 15.72 0.723513ZM6.63067 25.5816C7.55508 25.4262 8.39997 25.9866 8.94764 26.7715C9.04741 26.9149 8.98183 27.1173 8.89183 27.2379C8.82694 27.3267 8.73974 27.3373 8.64136 27.3509C8.52834 27.3668 8.38532 27.2675 8.33578 27.1606C7.98346 26.3961 7.35485 25.913 6.63067 25.6158C6.61741 25.6104 6.61322 25.5847 6.63067 25.5816ZM7.91214 11.885L7.94014 11.8523C8.12718 11.6414 7.83158 11.3193 7.64411 11.5306C7.44674 11.7531 7.31558 12.0234 7.18944 12.2973C7.06923 12.5585 7.43021 12.7892 7.5509 12.527L7.60587 12.4079C7.69212 12.2226 7.78412 12.0396 7.91214 11.885ZM5.31604 11.4521C5.58116 11.4036 5.46877 10.965 5.20477 11.0134C4.86277 11.076 4.52209 11.1473 4.18002 11.21C3.91497 11.2585 4.02737 11.6971 4.29137 11.6488C4.63337 11.5861 4.97404 11.5148 5.31604 11.4521ZM21.1092 8.45798C20.853 8.36507 20.7432 8.8044 20.9979 8.89677C21.3499 9.02441 21.699 9.15523 22.0329 9.33246C22.2741 9.46047 22.4865 9.06817 22.2441 8.93955C21.8776 8.74502 21.4955 8.59812 21.1092 8.45798ZM5.25577 7.86826C5.00565 7.75951 4.89702 8.19944 5.14449 8.30706L6.04867 8.70013C6.29879 8.80888 6.40742 8.36902 6.15995 8.2614L5.25577 7.86826ZM24.2664 6.7999L24.2334 6.77726C24.0067 6.61755 23.7966 7.0113 24.0221 7.17018C24.1545 7.26339 24.3154 7.32662 24.4366 7.43767L24.462 7.46223C24.6577 7.6632 24.9543 7.3421 24.758 7.14045C24.6144 6.99306 24.4325 6.911 24.2664 6.7999Z" fill="black"/>
</svg>
