<svg width="36" height="42" viewBox="0 0 36 42" fill="none" xmlns="http://www.w3.org/2000/svg">
<g clip-path="url(#clip0_5_232)">
<path fill-rule="evenodd" clip-rule="evenodd" d="M30.357 14.2282C27.6793 7.37215 22.8526 2.35237 14.7156 5.50526C14.4821 5.35059 14.1776 5.30911 13.8857 5.49022C9.45311 8.19904 6.26113 12.5419 4.87784 17.439C4.03598 17.5948 3.21795 17.8665 2.4873 18.3121C0.899341 19.2804 -0.169015 20.8213 -1.17047 22.3221C-1.47164 22.7733 -1.19277 23.5202 -0.626816 23.6227C-0.380981 23.6673 -0.137353 23.6938 0.104905 23.7007C0.0459198 23.9091 -0.0317123 24.1104 -0.130579 24.2951C-0.488524 24.9636 0.187713 25.6733 0.82148 25.4905C0.891806 25.5267 0.96548 25.5565 1.04182 25.5789C1.05049 25.9576 1.25044 26.4644 1.64613 26.541C2.28606 26.6746 3.13652 26.1979 2.98551 25.5013C3.17883 25.5344 3.37147 25.5386 3.55923 25.5156C3.58024 25.8784 3.57369 26.2569 3.62514 26.5915C3.79334 28.1684 5.4122 29.2276 6.95602 28.7479C7.0507 29.2393 7.16189 29.9296 7.65912 30.1962C8.24045 31.7833 9.24426 33.5947 10.8884 34.3179C10.742 34.6828 10.8214 35.1268 11.2622 35.371C14.2717 37.0409 17.8839 37.6059 21.2863 36.9851C22.6461 36.9063 23.9709 36.6073 25.2426 35.9702C26.1699 35.5056 27.0224 34.9156 27.8546 34.3073C28.6872 33.6989 29.5775 33.1065 30.2421 32.3164C30.9639 31.4584 31.2999 30.449 31.518 29.3745C32.5172 24.4976 32.1721 19.7089 30.357 15.0631C28.1101 9.31238 32.603 19.9793 30.357 14.2282Z" fill="white"/>
<path fill-rule="evenodd" clip-rule="evenodd" d="M17.4118 4.16927C18.7822 4.07512 20.1775 4.29994 21.4825 4.70209C23.5638 5.34327 25.4752 6.47483 27.0456 7.94794C28.6641 9.46609 29.861 11.3379 30.5889 13.4052C31.4666 15.8984 31.5979 18.5605 31.845 21.163C31.9698 22.478 32.1754 23.7729 32.3892 25.0751L32.4231 25.2808C32.6319 26.5495 32.7494 27.8327 32.4609 29.0994C31.9812 31.2048 30.5434 32.9919 28.8366 34.3124C25.3304 37.0251 19.8723 38.679 15.79 36.1827C15.1584 35.7965 15.7569 34.8089 16.3735 35.2113C16.8074 35.4947 17.2671 35.743 17.76 35.9145C19.8197 36.6309 22.0818 36.3757 24.1174 35.7093C26.1234 35.0527 28.0483 33.9431 29.5285 32.4625C31.0833 30.9073 31.9449 28.9864 31.8204 26.8006C31.7462 25.5001 31.4418 24.2236 31.2728 22.9337C31.1231 21.7912 31.0334 20.6426 30.93 19.4955L30.892 19.0829C30.6727 16.7458 30.3578 14.3446 29.2652 12.2232C28.3462 10.4385 27.0005 8.85068 25.3824 7.62446C23.6883 6.34068 21.6649 5.44283 19.5419 5.10794C17.0453 4.71416 14.6555 5.43023 12.5729 6.76327C10.7259 7.94549 9.13791 9.52534 7.9203 11.3179C7.32984 12.1871 6.82683 13.1153 6.39247 14.0673C5.98315 14.9642 5.70093 15.9042 5.37176 16.8286C5.64263 16.8208 5.918 16.8309 6.19763 16.861C7.63184 17.0156 8.96811 17.739 9.81879 18.8797C10.8584 20.2736 10.5774 21.9845 10.9834 23.5697C11.0149 23.6928 10.9614 23.8132 10.8531 23.8813C10.2375 24.2685 9.4135 24.2814 8.81764 23.8453C8.30047 23.4669 8.05768 22.7827 8.26706 22.1848C8.29438 22.1069 8.41098 22.1207 8.41425 22.2042C8.4536 23.2216 9.42347 24.0051 10.3742 23.521C9.96636 22.1541 10.181 20.6275 9.34691 19.3928C7.8706 17.2076 4.81555 17.1173 2.66978 18.3492C1.5405 18.9974 0.646643 19.9721 -0.0189493 21.0623L-0.210703 21.3787C-0.465836 21.8016 -0.736027 22.28 -0.78896 22.7456C-0.81948 23.0144 -0.717569 23.2669 -0.400799 23.1315C-0.144537 23.022 0.0538816 22.7665 0.206101 22.5469C0.465707 22.1723 1.06227 22.4959 0.847835 22.8948L0.840554 22.9079C0.528473 23.446 0.336336 24.0389 0.301052 24.6568L0.292085 24.8279C0.286202 24.9525 0.281974 25.1298 0.309078 25.1362C0.341577 25.144 0.567395 24.8903 0.604994 24.8552C0.786135 24.6859 0.972681 24.5475 1.22483 24.5024C1.5563 24.4433 1.89074 24.8424 1.60301 25.1041L1.591 25.1146C1.3342 25.3319 1.34562 25.7651 1.62928 25.9683C2.02962 26.2551 2.5225 25.787 2.58061 25.4017L2.58256 25.3874C2.63393 24.971 3.22812 24.9563 3.26039 25.3874C3.33049 26.323 2.18603 27.1071 1.31525 26.6351C0.97093 26.4486 0.752038 26.107 0.683463 25.741C0.57356 25.7975 0.454981 25.8367 0.329628 25.8475C-0.0784737 25.8827 -0.368605 25.6034 -0.434592 25.2286C-0.511463 24.7919 -0.465873 24.3244 -0.347674 23.8709C-0.569307 23.9229 -0.802431 23.903 -1.03677 23.7714C-1.74574 23.3733 -1.54214 22.4876 -1.27447 21.8897C-0.131674 19.3376 2.23595 17.0218 5.16923 16.8379C5.18529 16.3876 5.248 15.9619 5.3506 15.511C6.35388 11.1008 9.60408 7.0169 13.8354 5.10816C14.9661 4.59809 16.1652 4.25497 17.4118 4.16927ZM6.31548 21.7867L6.35569 21.7779C6.81283 21.6821 8.01585 21.5694 7.87086 22.3181C7.86401 22.3533 7.81142 22.349 7.80206 22.3181C7.66003 21.8474 6.69526 22.2238 6.41358 22.3372C6.02527 22.4933 5.64221 22.7237 5.32513 22.9915C4.63094 23.5778 4.1656 24.4042 4.09482 25.3017C4.02464 26.192 4.29004 27.1536 4.94991 27.7976C5.27338 28.1133 5.68628 28.3275 6.15009 28.3433C6.56679 28.3574 7.02718 28.0417 7.41169 28.2266C7.48749 28.263 7.54754 28.3631 7.54069 28.4455C7.52776 28.6014 7.45606 28.7228 7.34935 28.817C7.99309 29.9587 8.51993 31.1671 9.34108 32.2053C9.75313 32.7262 10.2201 33.2086 10.7488 33.6191C11.0001 33.8143 11.2734 33.9857 11.5551 34.1363C11.8853 34.313 12.171 34.4235 12.4066 34.7227C12.6076 34.9779 12.4066 35.4713 12.0753 35.5153C11.2953 35.6187 10.5372 35.005 9.96457 34.5452C9.39245 34.0858 8.89796 33.5191 8.48933 32.9178C7.70463 31.7633 7.16783 30.4012 6.9532 29.0232C6.70402 29.1001 6.42348 29.1235 6.21242 29.124C5.65088 29.1253 5.11469 28.9287 4.6734 28.5964C3.05789 27.3804 2.87835 24.8836 4.0184 23.309C4.56396 22.5556 5.39295 21.999 6.31548 21.7867ZM6.3256 24.6826C6.70021 24.6506 7.07452 24.7081 7.42661 24.8324L7.57175 24.8836C7.87835 24.9928 8.20472 25.121 8.42616 25.3447C8.76447 25.6867 8.4276 26.2791 7.94568 26.1481C7.41283 26.0032 6.97976 25.5664 6.44707 25.3833C5.97093 25.2195 5.43161 25.2427 5.00905 25.5247C4.95326 25.5619 4.87989 25.4884 4.91635 25.4344C5.23959 24.9553 5.7499 24.7317 6.3256 24.6826Z" fill="black"/>
</g>
<defs>
<clipPath id="clip0_5_232">
<rect width="36" height="42" fill="white"/>
</clipPath>
</defs>
</svg>
