<svg width="33" height="45" viewBox="0 0 33 45" fill="none" xmlns="http://www.w3.org/2000/svg">
<path fill-rule="evenodd" clip-rule="evenodd" d="M28.776 19.8597C28.6962 18.1229 28.6263 16.3284 28.3335 14.6183C28.19 13.7799 27.903 13.006 27.4387 12.333C27.0139 11.7172 26.4794 11.2396 25.9371 10.7652C24.8474 9.81183 23.7995 8.75628 22.5797 8.01882C21.4092 7.3112 20.1439 6.88405 18.8326 6.69223C16.3071 6.32278 13.6546 6.93771 11.4615 8.41302C9.3343 9.84413 7.62423 12.065 6.56607 14.597C6.04016 15.8552 5.64514 17.1832 5.43235 18.5564C5.17875 20.1934 5.2017 21.835 5.21084 23.4903C5.21398 24.0467 5.20958 24.6027 5.18523 25.1577C5.14554 25.4271 5.12363 25.6998 5.12391 25.9922C4.64244 26.7129 4.44654 27.6762 4.74828 28.5634C5.22961 29.9791 6.5953 30.6229 7.83521 30.376C7.89068 30.744 8.02442 31.1066 8.19096 31.4595C8.47568 32.0627 8.79396 32.6535 9.13177 33.2199C9.83063 34.3919 10.6281 35.4544 11.5797 36.371C13.466 38.1879 15.8555 39.3785 18.3336 39.5508C20.5897 39.7076 22.969 38.9778 24.8089 37.4723C25.7638 36.691 26.5902 35.7334 27.2042 34.5868C27.9215 33.2472 28.3107 31.7052 28.5127 30.1637C28.956 26.7795 28.9323 23.269 28.776 19.8597Z" fill="white"/>
<path fill-rule="evenodd" clip-rule="evenodd" d="M10.986 1.91217C10.9008 0.819152 11.7863 -0.00322862 12.608 0.302882C12.7588 0.324232 12.9055 0.378359 13.0365 0.46939C13.4147 0.732168 13.4974 1.15598 13.3986 1.52233C13.5761 1.67479 13.716 1.88145 13.7863 2.13074C13.8588 2.38756 13.8513 2.63669 13.7831 2.85376C14.0409 3.04749 14.2357 3.33979 14.281 3.70193C14.3025 3.87391 14.2938 4.04447 14.258 4.20122C14.6483 4.35193 14.9667 4.68955 14.9619 5.20042C15.1886 5.21693 15.4156 5.22058 15.6466 5.20598C15.6795 5.10018 15.7199 4.99701 15.7798 4.90201C15.9008 4.71063 16.0727 4.57915 16.263 4.49717L16.2891 4.48629L16.2887 4.4282C16.1429 4.24447 16.0747 4.01272 16.2299 3.76034C16.2566 3.71709 16.289 3.68137 16.3253 3.65074C16.3381 3.54122 16.3589 3.4328 16.3844 3.32622C16.2558 3.12225 16.2697 2.78383 16.4855 2.68256C16.4554 2.48368 16.4537 2.27741 16.4861 2.06955C16.6193 1.21796 17.3418 0.637962 18.0863 0.670501C18.1795 0.674549 18.2702 0.690502 18.3579 0.715898C18.5391 0.737486 18.7195 0.783597 18.8968 0.852168C19.1015 0.931375 19.1542 1.12582 19.1091 1.29018C19.3871 1.71296 19.466 2.28733 19.1861 2.80352C19.1754 2.82312 19.1637 2.84177 19.1522 2.86058C19.2083 2.9086 19.2572 2.97193 19.2934 3.05328C19.3846 3.25804 19.3621 3.51788 19.223 3.68876C19.1861 3.73431 19.1382 3.76852 19.0858 3.7905L19.0849 3.80733C19.0668 4.08153 19.0285 4.35645 18.9561 4.61542C19.2508 4.92677 19.4465 5.3505 19.4812 5.80709C19.591 5.81868 19.7007 5.83225 19.8103 5.84637C19.8265 5.72122 19.8933 5.60852 19.9946 5.52122C20.0794 5.4482 20.1699 5.38979 20.2628 5.34606C20.3076 5.0836 20.4172 4.83217 20.6022 4.63264C20.6709 4.55868 20.7459 4.49344 20.8257 4.43733C20.8213 4.1528 20.877 3.86852 21.0156 3.59931C21.1308 3.37542 21.2986 3.21304 21.4899 3.10971C21.6295 2.79066 21.8878 2.53034 22.2638 2.38241C22.5448 2.27191 22.8421 2.40323 23.0557 2.60972L23.1034 2.65733C23.2994 2.85407 23.3702 3.21558 23.2979 3.49447C23.264 3.6255 23.2073 3.7786 23.1249 3.90296C23.2119 4.33923 23.0388 4.7032 22.7736 4.90772C22.8643 5.05439 22.9405 5.21709 23.0048 5.39082C23.116 5.69122 22.991 6.06526 22.7905 6.30193C22.8782 6.46114 22.9352 6.64685 22.9562 6.83336C23.0456 6.83931 23.1345 6.85741 23.2221 6.88574C23.2696 6.70225 23.359 6.53169 23.4957 6.39241C23.5557 6.25931 23.6268 6.13542 23.7064 6.02709C23.8319 5.85614 23.9944 5.73296 24.1719 5.6828C24.1955 5.61939 24.229 5.55868 24.271 5.5032C24.2286 4.94701 24.5526 4.37272 25.0517 4.37225C25.0869 4.24256 25.13 4.11431 25.1815 3.98852C25.2826 3.74177 25.4969 3.59399 25.7293 3.54542C25.8657 3.16717 26.1339 2.89209 26.594 2.84622C27.6219 2.74383 28.2685 4.16161 28.0174 5.17955C27.9428 5.48193 27.768 5.76018 27.536 5.93106C27.4753 5.97574 27.4142 6.0082 27.3523 6.03502C27.2904 6.13336 27.2071 6.22074 27.1 6.29193C27.0763 6.30772 27.0519 6.32193 27.0267 6.33463C27.0292 6.78891 26.7535 7.15836 26.4114 7.2759C26.4334 7.56233 26.369 7.84947 26.1777 8.07137L26.1641 8.08627L26.1363 8.11463L26.1341 8.12717C26.2021 8.32653 26.195 8.54614 26.0973 8.72685C26.1059 8.89288 26.1317 9.05518 26.1807 9.20947C26.3697 9.38336 26.5364 9.58312 26.6855 9.79995C26.7851 9.69741 26.9353 9.65114 27.0653 9.70717C27.1014 9.6932 27.1385 9.68415 27.1742 9.6801C27.2335 9.67328 27.2916 9.67352 27.3486 9.67828C27.375 9.63471 27.4052 9.59328 27.4398 9.55447C27.6825 9.28153 28.0347 9.28717 28.3144 9.45669C28.3644 9.41518 28.4208 9.37852 28.4847 9.3478C29.1976 9.00598 29.6648 10.0349 29.7343 10.6763C29.7722 11.0262 29.5075 11.242 29.2358 11.2602C29.1806 11.4723 29.0034 11.625 28.8055 11.6769C28.8406 11.9389 28.6878 12.2064 28.4798 12.3061C28.3869 12.3506 28.2971 12.3627 28.2125 12.3498L28.2166 12.4119C28.2329 12.658 28.1236 12.8146 27.9738 12.8841C27.9474 13.006 27.8742 13.0944 27.7826 13.1397C28.1327 14.0622 28.409 15.0288 28.6319 15.982C28.9999 17.5557 29.2473 19.158 29.4132 20.7748C29.705 23.6171 29.7165 26.5178 29.4243 29.3613C29.2756 30.8083 29.0285 32.2226 28.5231 33.5665C28.1016 34.6874 27.5152 35.6602 26.8403 36.6015C25.4995 38.471 23.5804 39.8482 21.4652 40.1903C20.3549 40.3699 19.2162 40.3115 18.1327 39.9674C17.0539 39.6248 15.9036 39.0372 15.224 37.9938C15.04 37.7114 15.1296 37.2531 15.3345 37.02C15.5683 36.7541 15.905 36.7369 16.1905 36.8944C16.697 37.1738 17.1524 37.5558 17.6674 37.8225C18.1322 38.0632 18.6347 38.2173 19.1351 38.3262C20.1263 38.542 21.204 38.4868 22.1922 38.186C23.9843 37.6405 25.5632 36.324 26.5655 34.5488C27.7496 32.4515 28.1723 29.9937 28.3659 27.5444C28.5776 24.8636 28.5555 22.146 28.2746 19.4728C28.1353 18.1472 27.921 16.8334 27.6673 15.5305C27.4866 14.6028 27.2829 13.6813 27.0911 12.7568C26.9171 12.568 26.749 12.373 26.587 12.1709L26.582 12.1705C26.5615 12.1763 26.5402 12.1807 26.5173 12.1826C25.5549 12.2661 24.5118 12.1562 23.6907 11.5253C23.357 11.2688 23.0747 10.9442 22.8646 10.5705C22.5696 10.3379 22.3008 10.0444 22.0989 9.70526C21.9557 9.52653 21.82 9.33979 21.691 9.14622C21.3699 8.66383 21.1992 8.15756 21.0077 7.60098C21.0032 7.5882 21.0003 7.57566 20.9981 7.56336C20.9614 7.49518 20.9354 7.4205 20.9229 7.3451C20.4956 7.28741 20.0666 7.24915 19.6418 7.22614C19.4914 7.21804 19.3405 7.21161 19.1896 7.20606C19.2293 7.37376 19.2531 7.54772 19.2583 7.72637C19.3801 7.73256 19.5043 7.74868 19.6314 7.77177C20.2276 7.87979 20.61 8.22709 20.9721 8.77129C21.3246 9.30098 21.6055 9.93804 21.8143 10.5576C21.9422 10.937 21.7715 11.3564 21.4909 11.6006C20.7624 11.671 20.0466 11.8491 19.3761 12.2019C19.3525 12.2144 19.3354 12.2362 19.3241 12.2619C18.7887 12.4434 18.2494 12.6093 17.7103 12.7502C17.1899 12.8862 16.6645 12.9428 16.1412 12.7927C15.9163 12.7282 15.6963 12.6326 15.4799 12.5255C15.3637 12.5415 15.2379 12.5163 15.1098 12.4328C14.916 12.3065 14.721 12.1684 14.529 12.0199C14.1897 11.8348 13.856 11.636 13.5373 11.4088L13.5356 11.406C13.2814 11.0553 12.9189 10.698 12.5129 10.4274C12.468 10.3494 12.4284 10.2673 12.3968 10.1796C12.2222 9.69637 12.2951 9.11185 12.6634 8.77947C12.6688 8.66479 12.7127 8.55249 12.81 8.46241C12.887 8.39106 12.9664 8.32328 13.0477 8.25868C13.0307 8.24431 13.0135 8.23042 12.9966 8.21574C12.9631 8.18693 12.9309 8.1559 12.8995 8.12391C12.6536 8.27725 12.4055 8.42733 12.1518 8.56098C12.1453 8.56629 12.1393 8.57193 12.1325 8.57693C11.6554 8.9332 11.2038 9.34241 10.7207 9.68574C10.605 9.76788 10.4898 9.84756 10.3755 9.92749C10.3326 9.99407 10.2906 10.0616 10.2502 10.1304C10.2329 10.2363 10.2066 10.342 10.1739 10.4449C10.2371 10.5022 10.2886 10.5776 10.3235 10.6669C10.4736 10.7319 10.6149 10.8144 10.7467 10.9127L10.8636 10.9717C11.0138 10.8347 11.1725 10.7109 11.343 10.608C11.8782 10.6475 12.4566 11.0788 12.8632 11.5186C12.8916 11.5551 12.9195 11.5919 12.9461 11.6293C12.9718 11.653 12.9978 11.6781 13.0236 11.7028C13.0657 11.7543 13.105 11.8053 13.141 11.8549C13.1814 11.9107 13.227 11.9414 13.2733 11.9542C13.5224 12.2203 13.7558 12.5196 13.9154 12.8307C14.1717 13.33 13.9921 13.9525 13.8045 14.4425C13.7738 14.5225 13.7415 14.6012 13.7076 14.6791C13.3488 15.2288 13.0087 15.794 12.6688 16.3593C12.4398 16.6111 12.2123 16.8645 11.9947 17.128C11.9591 17.1552 11.9216 17.1812 11.8804 17.2053C11.2472 17.5761 10.6347 17.1587 10.0314 16.8988L9.96405 16.8705C9.34232 16.6147 8.56841 16.4467 8.52916 15.5257C8.52379 15.4003 8.52804 15.2717 8.539 15.1417C8.69207 14.6803 8.86746 14.2273 9.06302 13.7861C9.0236 13.7376 8.98823 13.6839 8.95844 13.624C8.89544 13.5332 8.84276 13.4353 8.80265 13.3319C8.51388 13.961 8.23886 14.6357 7.86769 15.1876C7.66313 15.4918 7.40834 15.6014 7.13793 15.6007C7.02386 15.6661 6.89618 15.6881 6.77325 15.6716L6.78623 15.84C6.79754 15.9804 6.81061 16.1206 6.82969 16.2583C7.09111 16.2534 7.36432 16.3349 7.60788 16.4445C8.32272 16.7661 9.01153 17.2113 9.70111 17.5972C10.0341 17.7836 10.4916 17.9398 10.7637 18.2308C10.9721 18.4541 10.9483 18.7306 10.8691 19.0182C10.8555 19.0672 10.8407 19.1159 10.8266 19.1647L10.8257 19.1807C10.6033 19.4993 10.451 19.8795 10.3405 20.2721C10.16 20.6213 10.034 21.0132 9.94823 21.3972C9.87865 21.7093 9.82923 22.0277 9.79708 22.3491L9.78874 22.4368L9.78414 22.4472L9.78176 22.523C9.736 23.0889 9.74144 23.662 9.78288 24.2234C9.79446 24.3796 9.80883 24.5361 9.82676 24.6921C9.74904 24.9687 9.38004 25.0072 9.18881 24.8375C8.97825 24.6507 8.75716 24.481 8.52755 24.3278C8.21458 24.49 7.85262 24.5177 7.50288 24.3848C7.4779 24.3753 7.45418 24.3639 7.43018 24.3531C7.16807 24.3901 6.90853 24.4596 6.66016 24.5419L6.58566 24.567C6.18943 24.7026 5.81177 24.8723 5.51346 25.2168C4.98344 25.8288 4.81272 26.8179 4.92086 27.646C5.026 28.4516 5.43693 29.3723 6.17737 29.6065C6.48037 29.7024 6.80695 29.6996 7.10158 29.5657C7.21348 29.5148 7.30941 29.4411 7.40388 29.3602C7.51983 29.2608 7.61144 29.149 7.74902 29.0861C7.87467 29.0288 8.09172 29.0332 8.15304 29.0299C8.34455 29.0193 8.50662 29.1899 8.563 29.3849C8.7349 29.9803 8.47676 30.4176 8.062 30.7102C8.23648 31.0107 8.40002 31.3245 8.57276 31.6084C8.89551 32.1389 9.23632 32.6516 9.58955 33.1561C9.95214 33.6741 10.3386 34.167 10.76 34.6243C10.9502 34.8307 11.1463 35.0301 11.348 35.2218L11.4594 35.3267C11.6477 35.5055 11.8124 35.6877 11.8059 35.9999C11.8023 36.1747 11.7002 36.3371 11.549 36.3837C11.0142 36.5484 10.4537 35.7508 10.1053 35.3416L10.0779 35.3097C9.65632 34.8245 9.26416 34.3033 8.90953 33.753C8.54402 33.1857 8.24465 32.5592 8.00332 31.9129C7.89127 31.6126 7.76953 31.2693 7.68337 30.9219C7.21865 31.1269 6.679 31.2002 6.30958 31.152C5.96862 31.1076 5.65739 30.9962 5.3763 30.8338C5.31881 30.9803 5.24151 31.1165 5.1476 31.2299C4.79932 31.6503 4.29246 31.7703 3.80151 31.7651C3.17276 31.7586 2.60855 31.3076 2.58574 30.5466C2.57095 30.0534 2.7956 29.63 3.12344 29.3415C3.24504 29 3.4759 28.7187 3.81044 28.6273C3.58907 27.8488 3.55007 26.9911 3.71639 26.2051C3.88107 25.427 4.25692 24.69 4.81274 24.2044L4.84439 24.1772L4.831 24.1853C4.69969 24.2676 4.5716 24.3564 4.44169 24.4415L4.38334 24.4793C3.80637 24.8499 3.13813 25.1682 2.4663 24.97C1.40004 24.6554 1.30781 23.1426 2.22518 22.5456C2.54221 22.3392 2.90855 22.2614 3.27023 22.2098C3.32737 22.125 3.39532 22.0493 3.47032 21.988C3.48148 21.71 3.60441 21.4321 3.82188 21.2575C4.0436 21.0794 4.29267 21.0618 4.52458 21.1435C4.61102 21.0697 4.70472 21.0051 4.80776 20.9546C4.8972 20.9107 4.9879 20.8788 5.07881 20.8567C5.0772 20.7737 5.07637 20.6907 5.07525 20.6076C5.06067 20.5302 5.05188 20.4491 5.04274 20.3647C5.02634 20.3615 5.00974 20.3585 4.99362 20.3545C4.75739 20.2958 4.54397 20.1753 4.35818 20.0127C4.06104 20.2263 3.70034 20.3071 3.27148 20.1626C2.87332 20.0285 2.49804 19.6071 2.31253 19.1229C2.05823 19.0647 1.81132 18.9802 1.59511 18.8199C1.19479 18.9281 0.763345 18.753 0.601066 18.2816C0.480717 17.9321 0.625415 17.5095 0.883415 17.2929C0.958554 17.2298 1.03983 17.2416 1.10444 17.2904C1.11972 17.2337 1.13765 17.1775 1.15969 17.1226C1.16855 17.1004 1.17818 17.0788 1.18795 17.0573C1.17832 16.5943 1.32602 16.1467 1.69551 15.8983C1.96976 15.7139 2.29683 15.6938 2.5916 15.8003C2.75353 15.6287 2.95865 15.4976 3.21337 15.4256C3.66127 15.2989 4.13283 15.4434 4.45167 15.8255C4.52067 15.8024 4.59211 15.786 4.66523 15.7756C4.69181 15.5624 4.75558 15.3574 4.88855 15.1974C4.984 15.0826 5.09841 14.9911 5.22218 14.927C5.27862 14.6855 5.3712 14.4693 5.52623 14.2884C5.45046 14.2156 5.3816 14.1337 5.32286 14.0426C5.25769 14.0302 5.19302 14.0142 5.12995 13.9912C4.79297 13.8681 4.56065 13.6265 4.40304 13.3254C4.11121 13.4104 3.80221 13.3793 3.49851 13.1626C3.27888 13.0058 3.11332 12.7552 3.02597 12.4752L2.77655 12.3757C2.54151 12.2811 2.37281 12.1045 2.27653 11.8942C2.15409 11.9443 2.01916 11.9425 1.90927 11.846C1.26539 11.2806 1.70514 10.3438 2.39437 10.1577C2.67476 10.0821 2.91958 10.1252 3.13725 10.2405C3.29214 10.0707 3.48644 9.94328 3.70879 9.88582C3.96811 9.81883 4.24139 9.86796 4.48069 9.99812L4.54251 9.99717C4.78348 9.7936 5.09276 9.70241 5.47069 9.80074C5.89858 9.91209 6.19027 10.1845 6.388 10.5394C6.45155 10.4741 6.52313 10.4165 6.60113 10.3682C6.82244 10.2312 7.05881 10.1974 7.2852 10.2403C7.36139 10.1168 7.43953 9.99495 7.52004 9.87526C7.32881 9.70534 7.19807 9.44177 7.19116 9.14931C7.13339 9.10836 7.07744 9.06177 7.02393 9.01891C6.76209 8.80915 6.54009 8.54614 6.43914 8.19256C6.38876 8.01622 6.37041 7.83241 6.37627 7.64812C6.34809 7.64114 6.32004 7.63368 6.2922 7.62463C5.17941 7.2605 4.71811 5.51582 5.5976 4.57947C6.05946 4.08772 6.76153 4.36622 7.21837 4.72931C7.52988 4.97693 7.77734 5.28479 8.00158 5.62495C8.01211 5.62741 8.02237 5.6282 8.03297 5.63114C8.35502 5.71772 8.61114 5.95272 8.80034 6.2532C9.13453 6.18717 9.49027 6.26058 9.8073 6.52447C10.0384 6.71685 10.1836 6.95495 10.259 7.21368C10.5593 7.03542 10.8683 6.87915 11.1841 6.74114C11.2048 6.68455 11.2264 6.62788 11.2515 6.57161C11.3002 6.46233 11.3637 6.36733 11.4375 6.28701C11.3571 6.18479 11.2859 6.07058 11.2287 5.94352C10.9568 5.34082 11.055 4.73082 11.3555 4.26931C11.2241 3.9328 11.1837 3.55122 11.2615 3.1882C11.2759 3.12082 11.2941 3.05606 11.3154 2.99376C11.1331 2.6705 11.0162 2.29844 10.986 1.91217ZM6.10666 26.2923C6.29957 26.2389 6.34498 26.1689 6.56189 26.1891C6.72982 26.2047 6.90152 26.2374 7.06443 26.2854C7.45296 26.3998 7.81554 26.6311 8.1348 26.9034C8.58762 27.2896 8.04552 28.0075 7.68486 27.5956L7.67398 27.5827C7.43161 27.2872 7.15959 27.0563 6.85498 26.8504C6.70059 26.7462 6.54124 26.6708 6.37987 26.5831C6.26831 26.5226 6.20384 26.4235 6.09891 26.3604C6.07415 26.3454 6.07994 26.2998 6.10666 26.2923ZM7.14504 20.4751C7.03844 20.4323 6.91607 20.5237 6.88753 20.6414C6.85692 20.7682 6.92187 20.8829 7.02244 20.9294L7.03376 20.9342C7.17031 20.989 7.29501 21.0802 7.40116 21.1917L7.42362 21.2159C7.61695 21.4295 7.91325 21.0932 7.71965 20.8792C7.55541 20.6976 7.36076 20.5616 7.14504 20.4751ZM12.1527 11.8074C12.0426 11.5333 11.691 11.7634 11.7865 12.035L11.7913 12.0477C11.8905 12.2946 11.8499 12.5811 11.7417 12.8136L11.731 12.836C11.5994 13.1038 11.9609 13.3442 12.0925 13.0763C12.2877 12.6788 12.32 12.2238 12.1527 11.8074ZM15.1926 8.39462L15.1878 8.36717C15.1382 8.06629 14.7347 8.19368 14.7842 8.49368C14.8663 8.99249 15.1848 9.32018 15.5933 9.48288C15.8482 9.58431 15.9576 9.12447 15.7047 9.02368C15.4339 8.91588 15.2529 8.71162 15.1926 8.39462ZM21.7891 7.9128L21.718 7.90931L21.7721 7.99058C21.7774 7.96447 21.7829 7.93852 21.7891 7.9128Z" fill="black"/>
</svg>
