<svg width="36" height="45" viewBox="0 0 36 45" fill="none" xmlns="http://www.w3.org/2000/svg">
<g clip-path="url(#clip0_5_128)">
<path fill-rule="evenodd" clip-rule="evenodd" d="M14.8716 6.5612C26.4076 5.96963 31.6133 14.4393 31.95 18.2223C32.1837 20.8483 30.6958 23.8751 30.6958 26.2216C30.6958 27.4194 32.1022 29.9908 31.4475 31.7366C29.9902 35.6222 26.9047 39.9345 22.9729 39.9345C19.041 39.9345 13.924 41.0684 9.57941 34.5817C9.17177 33.9731 4.0158 30.5139 3.51489 27.2269C2.26717 19.0392 6.64021 6.98331 14.8716 6.5612Z" fill="white"/>
<path fill-rule="evenodd" clip-rule="evenodd" d="M14.3276 1.29016C14.7401 0.798097 15.4365 0.601272 16.0553 0.639367C16.9542 0.694923 17.7359 1.27349 18.6302 1.31635C19.5678 1.36159 20.4727 1.0227 21.4127 1.17984C21.9888 1.27667 22.5597 1.55524 22.9288 2.02508C24.2074 1.64334 25.5957 2.14889 26.4101 3.25286C27.4147 3.09016 28.5076 3.78389 28.8151 4.79334C30.0915 4.83619 31.2963 5.90524 31.4386 7.24492C31.9486 7.3854 32.3915 7.75215 32.6632 8.23699C32.9791 8.79889 33.0316 9.44334 32.9745 10.0767C33.575 10.3965 33.8802 11.0838 33.9602 11.8108C34.5089 12.2378 34.7471 13.0052 34.6353 13.7298C35.0554 13.9767 35.2724 14.5513 35.27 15.064C35.2677 15.5425 35.146 15.9664 35.3173 16.4283C35.4698 16.8396 35.5246 17.1824 35.4407 17.6133L35.4321 17.6552C35.4173 17.7255 35.4048 17.7929 35.3936 17.8593C35.5072 17.9633 35.6034 18.0936 35.6755 18.2452C35.9387 18.7991 35.8995 19.431 35.6988 19.9928C35.7867 20.3506 35.7755 20.7285 35.6456 21.0724C35.8889 21.4379 36.0169 21.8861 35.9793 22.3512C35.9371 22.8719 35.7091 23.3382 35.3633 23.6829C35.4554 24.3942 35.1781 25.1627 34.6766 25.6635C34.7477 26.0893 34.6863 26.5356 34.4629 26.9392C34.3037 27.2269 34.0894 27.4412 33.8421 27.5906C33.8503 27.8281 33.8194 28.071 33.7436 28.3145C33.6384 28.6522 33.4601 28.9634 33.2255 29.2141C33.3655 30.1472 32.8297 31.1827 31.8866 31.4445C31.8074 31.4665 31.7318 31.4766 31.6594 31.4782C31.5657 32.3757 31.3612 33.2608 31.0444 34.1014C30.2391 36.2418 28.7748 38.1132 26.8652 39.2806C25.9207 39.8576 24.8597 40.2529 23.7767 40.4179C22.9973 40.537 22.2476 40.5076 21.4653 40.4267C20.4834 40.3243 19.497 40.1711 18.5426 39.9076L18.3891 39.8651C17.9934 39.7545 17.5762 39.627 17.2335 39.4045C16.8499 39.1552 16.6506 38.7711 16.5623 38.3187C16.513 38.067 16.6659 37.7961 16.9303 37.7909L16.9473 37.791C17.0051 37.7922 17.0625 37.7899 17.1206 37.7861L17.1643 37.783H17.1665C17.1695 37.7822 17.1711 37.7822 17.1741 37.7822C17.2 37.7783 17.2251 37.7703 17.2502 37.7664C17.541 37.7153 17.7954 37.7659 18.0684 37.8606L18.1027 37.8727C18.5624 38.0378 19.0183 38.191 19.4932 38.3045C19.9841 38.4211 20.4811 38.514 20.9796 38.587L21.0291 38.5933L21.0443 38.5957L21.0519 38.5965C21.0534 38.5965 21.055 38.5965 21.0565 38.5973L21.2034 38.6164C21.3191 38.6306 21.4347 38.6433 21.5504 38.656C21.7635 38.6783 21.9767 38.6957 22.1898 38.7084C25.8682 38.9243 28.9575 35.9045 29.8898 32.2838C30.2277 30.9735 30.2498 29.6664 30.1501 28.3584C30.1181 28.2632 30.0991 28.1576 30.0999 28.0418C30.0999 27.9814 30.103 27.9219 30.1067 27.8616C29.9827 26.5965 29.7673 25.3306 29.6325 24.0608C29.4751 22.5775 29.3875 21.0855 29.4194 19.5925C29.4354 18.8552 29.5108 18.1251 29.6097 17.395L29.6455 17.1327C29.1983 17.0417 28.7826 16.8206 28.4516 16.5005C27.7333 16.933 26.8036 16.9714 26.0946 16.5146C25.3 17.0342 24.1899 17.0814 23.3897 16.5733C22.9061 16.9333 22.2968 17.0887 21.6986 16.952C21.4296 16.8906 21.162 16.7576 20.933 16.5736C20.7694 16.6037 20.6037 16.6153 20.4389 16.6064L20.4049 16.6262C20.0251 16.8349 19.6044 16.9723 19.1714 16.957C18.8508 16.9457 18.5206 16.8798 18.2148 16.755C17.8883 16.9606 17.5308 17.1009 17.1485 17.1512C16.59 17.2246 15.9874 17.0958 15.523 16.7655C14.6743 17.2696 13.6304 17.3472 12.7143 17.0085C12.5267 17.3398 12.2671 17.6256 11.9631 17.8458C12.0175 18.0491 12.0349 18.266 12.0161 18.4744C11.9854 18.8176 11.9029 19.1253 11.7679 19.4017C11.9102 19.7102 11.953 20.0891 11.8734 20.4694C11.7599 21.0118 11.4573 21.4837 11.0655 21.8511C11.0309 22.7167 10.5757 23.5283 9.83483 23.9791C9.79731 24.0019 9.76002 24.0205 9.7228 24.0372C9.69007 24.0839 9.65095 24.1249 9.60627 24.1595C9.13515 24.6134 8.38958 24.5773 7.79904 24.3209C7.78763 24.3214 7.77629 24.3225 7.76472 24.3227C7.55382 24.3283 7.41005 24.2425 7.32473 24.1164C7.2388 24.1212 7.15348 24.1306 7.06755 24.1473C6.7539 24.2084 6.40989 24.3259 6.126 24.4783C5.38925 24.8735 5.04828 25.5719 4.94629 26.4116C4.83525 27.3275 5.08786 28.2608 5.76759 28.8806C6.09783 29.1822 6.52024 29.3711 6.9495 29.4505C7.42367 29.5386 7.93056 29.3219 8.28067 29.7465C8.35069 29.8306 8.39864 29.9481 8.36058 30.0616C8.24185 30.4156 8.04625 30.5513 7.74029 30.6005C8.18249 31.1473 8.6361 31.6759 9.13843 32.1671C9.68185 32.6997 10.2435 33.2156 10.7338 33.8029C11.252 34.4243 11.7201 35.083 12.0451 35.837C12.2308 36.2703 12.3799 36.7172 12.5406 37.1608L12.5693 37.2381C12.7484 37.7095 12.9867 38.1638 12.711 38.656C12.6014 38.8497 12.3533 39.037 12.125 39.006C11.4819 38.9203 11.2665 38.4672 11.0686 37.8767C10.9194 37.4306 10.8052 36.9719 10.6447 36.5298C10.6147 36.448 10.5819 36.367 10.5476 36.2864C10.1768 36.3942 9.76907 36.3087 9.43815 36.0882C9.08454 36.2516 8.6928 36.3331 8.31446 36.3262C7.80787 36.3169 7.34505 36.1702 6.94715 35.9055C6.91548 35.8968 6.88367 35.8883 6.85208 35.8789C6.24678 36.1206 5.53789 36.0775 4.98983 35.6856C4.63493 35.4319 4.39229 35.0933 4.25438 34.7162C3.79581 34.7071 3.3422 34.5375 3.01363 34.1983C2.71193 33.8869 2.53559 33.4851 2.48322 33.0675C2.08852 32.986 1.71847 32.7871 1.42826 32.4519C1.18593 32.172 1.03866 31.8155 0.98888 31.4453C0.508169 31.3023 0.0746472 30.975 -0.162131 30.5187C-0.382469 30.0938 -0.414283 29.6329 -0.306511 29.2137L-0.334444 29.1718C-0.829615 28.9016 -1.2075 28.4592 -1.24632 27.8273C-1.25728 27.6474 -1.23871 27.4674 -1.1919 27.2971C-1.20879 27.1067 -1.19799 26.9164 -1.15011 26.7322C-1.81608 26.0568 -2.05734 24.9719 -1.69582 24.0751C-2.34656 23.3449 -2.51857 22.1902 -2.04136 21.3236C-2.36863 20.9108 -2.53684 20.3846 -2.50868 19.8227C-2.47367 19.1212 -2.16542 18.5084 -1.79629 17.941C-2.07028 17.6251 -2.21641 17.1846 -2.20568 16.7592C-2.19054 16.1425 -1.8762 15.6116 -1.48264 15.1719C-1.82597 14.0862 -1.44238 12.9084 -0.599839 12.2211C-0.770325 11.9283 -0.833497 11.5656 -0.77786 11.1981C-0.680516 10.556 -0.218528 10.1187 0.279992 9.7727C0.175721 9.41881 0.203121 9.03699 0.36904 8.67111C0.59052 8.18302 1.00836 7.8735 1.44447 7.61159C1.55712 6.52905 2.71703 5.60445 3.68972 6.16318C3.44845 5.35762 4.14341 4.48778 4.94256 4.39572C5.33369 3.15921 6.68312 2.37984 7.89631 2.68699C8.51661 1.80286 9.6712 1.46246 10.6515 1.84175C11.7293 0.980637 13.0665 0.852859 14.3276 1.29016ZM6.65039 25.5688C7.40769 25.5259 7.97547 26.1704 8.37436 26.76C8.74874 27.3132 7.78824 27.8973 7.50815 27.2878C7.40769 27.0704 7.29352 26.8402 7.14054 26.6497C7.11485 26.6872 7.09216 26.7261 7.06958 26.7659L7.04693 26.8061C7.03018 26.8354 7.01268 26.8656 6.99822 26.8966C6.99974 26.9021 6.9769 26.9751 6.97614 26.9783C6.91373 27.1759 6.7775 27.3029 6.59186 27.3712C6.35204 27.4585 6.12523 27.2704 6.04836 27.0497C5.9259 26.6973 6.21048 26.3902 6.50655 26.2505C6.21581 26.2013 5.92963 26.3045 5.71957 26.5378C5.69072 26.5704 5.64194 26.5442 5.64049 26.5037C5.61606 25.9505 6.1709 25.5958 6.65039 25.5688Z" fill="black"/>
</g>
<defs>
<clipPath id="clip0_5_128">
<rect width="36" height="45" fill="white"/>
</clipPath>
</defs>
</svg>
