<svg width="39" height="45" viewBox="0 0 39 45" fill="none" xmlns="http://www.w3.org/2000/svg">
<path fill-rule="evenodd" clip-rule="evenodd" d="M19.9568 5.97266C24.6385 5.97266 30.6817 8.79947 31.197 11.6947C31.8043 15.1066 35.0563 28.1984 34.322 32.3968C33.5877 36.5951 29.6304 39.6174 23.2982 39.6174C16.966 39.6174 12.2397 36.2935 11.1545 35.1522C10.431 34.3914 9.39893 32.6527 8.05819 29.9363C5.79792 29.6469 4.66235 28.6155 4.65148 26.842C4.64092 25.0686 5.37576 23.8592 6.85602 23.214C6.32824 16.2151 6.72896 11.8045 8.05819 9.98234C10.052 7.24907 15.2751 5.97266 19.9568 5.97266Z" fill="white"/>
<path fill-rule="evenodd" clip-rule="evenodd" d="M30.9108 11.2277C30.9074 11.1667 30.9997 11.1595 31.017 11.2135C32.0271 14.4254 32.6497 16.9285 33.3051 20.2214L33.4987 21.1901C34.0159 23.7737 34.5385 26.361 34.9798 28.9572L35.0057 29.1122C35.2267 30.456 35.3542 31.8129 35.0771 33.1595C34.8182 34.4183 34.1107 35.5722 33.1922 36.4913C31.417 38.2675 28.95 39.377 26.4682 39.873C25.2133 40.1238 23.9188 40.2206 22.64 40.1333C22.0025 40.0904 21.3661 40.0039 20.7419 39.8762L20.673 39.862C20.0439 39.7313 19.4855 39.5753 19.1513 39.0055C19.0673 38.8619 19.1011 38.6159 19.2775 38.5421C19.6107 38.4039 19.8555 38.346 20.2191 38.3857C20.5662 38.4237 20.9052 38.5246 21.2482 38.5873C21.9037 38.7072 22.5699 38.7674 23.2369 38.7818C24.5471 38.8095 25.8606 38.6516 27.113 38.2754C29.2649 37.6286 31.4517 36.3913 32.7091 34.5405C34.1881 32.3633 33.5992 29.7209 33.2073 27.3165L33.1954 27.2437C32.7986 24.786 32.4063 22.3284 32.0255 19.8692L31.863 18.8151C31.436 16.0302 31.0328 14.0421 30.9108 11.2277ZM9.06167 4.41112C10.1357 3.7297 11.4704 3.56225 12.7319 3.57166L12.8899 3.57358C14.5052 3.59727 22.6364 3.78353 25.3588 3.84084L26.0065 3.85397C26.8637 3.86954 28.5925 3.8858 29.4832 3.90146L29.5346 3.90239C29.9716 3.91032 30.4086 3.9135 30.8456 3.92699L30.9097 3.92921C31.237 3.94266 31.5094 3.98981 31.7658 4.21191C31.8962 4.32448 31.947 4.49616 31.9351 4.65968L31.9332 4.68096L32.5821 4.73572C33.0227 4.77321 33.2557 5.1536 33.0806 5.53852L33.0718 5.55715C32.761 6.19524 32.5235 8.05239 32.357 8.73889C32.2696 9.1 32.1994 9.46667 32.1582 9.83572C32.1253 10.1263 32.122 10.4175 31.9538 10.673C31.595 11.2183 30.5859 11.2135 30.5677 10.4413C30.5669 10.4167 30.5677 10.3929 30.5702 10.3698C28.0307 10.2627 24.5636 10.273 22.0273 10.4191C19.6585 10.5556 17.3003 10.8651 14.9793 11.3389C14.3914 11.4587 13.8052 11.5897 13.223 11.7318C12.7456 11.8476 12.1594 11.9167 11.7323 12.1651C11.2541 12.4444 11.2632 12.9452 11.3151 13.4222C11.3709 13.9278 11.4638 13.6673 11.5956 14.128L11.6037 14.1571C11.7397 14.6571 11.9079 15.1516 12.1306 15.6214C12.2575 15.8897 12.4621 16.1476 12.3845 16.4564C12.3408 16.6302 12.1981 16.8159 12.0671 16.9373C11.47 17.4889 10.4609 17.1373 10.0552 17.8929C9.63068 18.6829 9.62013 19.7532 9.5841 20.6274L9.58195 20.6786C9.55565 21.281 9.56299 21.8849 9.60421 22.4857C9.64132 23.0333 9.79295 23.5754 9.59844 24.1016C9.45654 24.4841 8.99324 24.5198 8.75083 24.2087C8.723 24.173 8.69749 24.1364 8.67361 24.0996L8.65024 24.0627L8.64867 24.0635C8.67167 24.0984 8.69311 24.1342 8.71373 24.1706C8.73599 24.2111 8.68074 24.2556 8.64694 24.2206C8.07637 23.623 7.24277 23.7421 6.59717 24.1603C5.94332 24.5857 5.68525 25.3937 5.65144 26.1183C5.61351 26.9221 5.68772 27.8644 6.03567 28.6071C6.18244 28.9214 6.39178 29.2103 6.73899 29.3302C6.89656 29.3841 7.04654 29.377 7.21062 29.3897C7.38121 29.4023 7.5866 29.4849 7.75225 29.4738C7.96761 29.4591 8.16096 29.6957 8.09979 29.894L8.09533 29.9071C8.09212 29.9167 8.08874 29.9262 8.08552 29.9349C8.09368 29.9421 8.10193 29.9508 8.1077 29.9635C8.73434 31.196 9.59349 32.2929 10.5433 33.3103C11.0192 33.8191 11.5468 34.2865 12.0984 34.7191C12.3705 34.9325 12.6574 35.1461 12.96 35.3183C13.0606 35.3745 13.1529 35.4127 13.266 35.4437C13.3187 35.4579 13.3789 35.4651 13.43 35.4817L13.4831 35.4992C13.4867 35.5004 13.4902 35.5014 13.4935 35.5024C13.6452 35.5191 13.773 35.6159 13.8233 35.7675C13.9544 36.1627 13.7161 36.5119 13.3088 36.6206C12.8675 36.7394 12.4516 36.5309 12.1018 36.2914L12.0786 36.2754C11.3654 35.781 10.7082 35.2262 10.1393 34.5786C9.01385 33.3 8.3088 31.8198 7.98245 30.1825C7.90157 30.35 7.79273 30.496 7.60392 30.5976C7.31038 30.7564 6.95996 30.7564 6.6384 30.7032C5.99115 30.5976 5.43954 30.2175 5.07098 29.7032C4.68831 29.1698 4.54575 28.5222 4.45918 27.8913C4.37343 27.2594 4.33138 26.6254 4.41713 25.9921C4.54007 25.0825 4.93658 24.1833 5.70751 23.6849C5.13034 22.4746 5.02893 21.1175 5.07015 19.7921C5.12045 18.1603 5.41315 16.5103 5.63825 14.8937L6.27816 10.2976L6.30434 10.1123C6.45876 9.03112 6.64675 7.94417 7.06715 6.9254C7.48189 5.92143 8.11182 5.0135 9.06167 4.41112ZM6.36879 26.154C7.42583 25.6603 8.5678 26.1151 9.13672 27.073C9.63139 27.9059 8.16063 28.4564 7.91524 27.5979L7.90818 27.5714C7.74657 26.9214 7.08852 26.3595 6.40178 26.2722C6.34488 26.2644 6.30275 26.185 6.36879 26.154Z" fill="black"/>
</svg>
