<svg width="33" height="43" viewBox="0 0 33 43" fill="none" xmlns="http://www.w3.org/2000/svg">
<g clip-path="url(#clip0_5_212)">
<path fill-rule="evenodd" clip-rule="evenodd" d="M18.1593 7.97643C28.6602 8.33781 29.2936 13.7596 29.2936 22.8521C29.2936 31.9447 23.8462 37.6743 21.8404 38.6748C19.8345 39.6753 14.5529 43.9726 9.78658 41.9923C5.02024 40.012 6.4005 31.6453 6.4005 28.0504C6.4005 24.4555 7.65844 7.61506 18.1593 7.97643Z" fill="white"/>
<path fill-rule="evenodd" clip-rule="evenodd" d="M22.4194 35.6884C20.491 36.8586 18.2829 36.9041 16.2087 36.1677C14.9647 35.7272 13.8241 35.0461 12.7566 34.2316C11.828 33.5225 10.9991 32.7361 10.178 31.901C9.50192 30.2804 8.8999 28.6628 8.61797 26.8996C8.36541 25.3169 8.33192 23.6735 8.62494 22.0938C10.792 20.1561 12.9457 18.2025 15.0966 16.243C16.1919 15.2449 17.2901 14.2522 18.4015 13.2753C18.9659 12.7794 19.5248 12.2758 20.087 11.7776C20.1798 11.6956 20.272 11.6137 20.3648 11.5318C21.5256 12.4555 22.7703 13.2474 23.9229 14.1862C24.5263 14.6783 25.1131 15.2024 25.6719 15.7536C25.9649 16.0427 26.2511 16.3407 26.5301 16.6463C26.7854 16.9255 27.0317 17.3258 27.3938 17.4313C27.4434 17.4457 27.4901 17.4487 27.534 17.4419C28.0182 22.0498 28.3622 27.0255 26.288 31.2102C25.3831 33.0356 24.1001 34.6677 22.4194 35.6884ZM9.87455 37.382C9.60901 37.1175 10.0047 36.6896 10.2692 36.9529C11.93 38.6066 14.1013 39.4832 16.2945 39.8889C16.6484 39.9545 16.4975 40.539 16.1462 40.4739C13.8563 40.0503 11.6058 39.1057 9.87455 37.382ZM7.88157 39.9193C7.56455 39.7344 7.84676 39.2109 8.16322 39.3954C9.4572 40.1497 10.8765 40.5417 12.3161 40.8063C12.6701 40.8714 12.5191 41.4559 12.1677 41.3914C10.6792 41.1177 9.21866 40.6987 7.88157 39.9193ZM13.148 14.3599C14.2217 13.3125 15.3756 12.3159 16.5945 11.475C17.828 10.6241 19.1752 10.1152 20.6312 10.1031C20.5294 10.1918 20.4324 10.2904 20.334 10.3821C20.0592 10.6377 19.7849 10.8948 19.5108 11.1511C18.9624 11.6646 18.4126 12.1771 17.8712 12.699C16.8052 13.7273 15.7356 14.7504 14.6717 15.781C12.6268 17.7619 10.6259 19.7859 8.6682 21.8685C8.67873 21.8177 8.6899 21.7669 8.70099 21.7162C9.34913 18.7736 11.1122 16.346 13.148 14.3599ZM21.5647 10.2312C21.5717 10.2085 21.5766 10.1864 21.5794 10.1652C24.3736 10.5611 26.7073 12.796 27.4789 15.7386C27.4119 15.8402 27.3749 15.9608 27.3889 16.0889C27.3959 16.1534 27.4028 16.2186 27.4098 16.2831C27.3142 16.18 27.2159 16.0836 27.1322 15.9919C26.8538 15.6855 26.5685 15.3874 26.2754 15.0969C25.6761 14.5032 25.0538 13.948 24.398 13.4301C23.2573 12.5291 22.0224 11.701 20.6626 11.2687C20.7519 11.1891 20.8413 11.1094 20.9313 11.0306C21.1998 10.7931 21.449 10.5975 21.5647 10.2312ZM26.5741 7.08471C24.8585 5.04695 22.4828 3.55447 19.9811 3.03574C17.5922 2.53976 15.1189 2.86662 12.862 3.83052C8.13936 5.8478 4.41308 10.2836 2.6682 15.4238C1.65099 18.4187 1.3175 21.7017 1.62315 24.8717C1.92727 28.0272 2.80145 31.2861 4.39215 33.9707C4.53797 34.2165 4.69773 34.4523 4.86518 34.6806C4.79052 35.6073 4.50587 36.5158 4.05797 37.3061C4.0339 37.3484 4.0085 37.3899 3.98338 37.4316C3.52473 37.8049 3.04899 38.1553 2.58455 38.517C2.18206 38.8303 1.78369 39.1518 1.4052 39.4989C1.04792 39.8266 0.633013 40.1915 0.391129 40.6338C0.19292 40.9961 0.111989 41.4887 0.382548 41.8342C0.708571 42.2504 1.26099 42.1036 1.70262 42.1036C1.74043 42.1036 1.77818 42.1045 1.81592 42.105C1.94855 42.1956 2.08515 42.2775 2.2175 42.3537C3.55494 43.1243 4.89727 43.8865 6.24099 44.6449C8.91734 46.1563 11.5825 47.7285 14.3138 49.1201C15.5794 49.7654 16.9343 50.3296 18.3519 50.3274C19.6818 50.3251 20.8838 49.751 21.9219 48.8781C23.1052 47.8838 24.0945 46.6212 25.0545 45.3836C25.4382 44.8882 25.8142 44.387 26.1833 43.8789C26.8922 43.6218 27.5954 43.5467 28.2275 44.0427C28.7347 44.4409 29.4031 43.8994 29.4149 43.3017C29.4191 43.0895 29.4108 42.8801 29.3898 42.6738C29.2629 41.3997 28.6894 40.247 28.0433 39.1778C27.6904 38.593 27.3185 38.0189 26.9445 37.4501C26.8566 37.3159 26.7701 37.1817 26.6863 37.0451C28.1884 34.6411 29.3801 31.9754 30.1126 29.1898C30.8822 26.2588 31.1438 23.2192 30.9722 20.1819C30.7084 15.527 29.5336 10.6006 26.5741 7.08471Z" fill="black"/>
</g>
<defs>
<clipPath id="clip0_5_212">
<rect width="33" height="43" fill="white"/>
</clipPath>
</defs>
</svg>
