<svg width="34" height="45" viewBox="0 0 34 45" fill="none" xmlns="http://www.w3.org/2000/svg">
<g clip-path="url(#clip0_5_136)">
<path fill-rule="evenodd" clip-rule="evenodd" d="M31.0254 33.7177C30.7405 33.2524 30.0543 29.8763 29.6161 29.357C29.6491 27.3625 30.1485 20.4572 28.7222 17.3531C29.0222 17.0181 29.8195 14.1328 29.6161 13.042C30.288 10.7578 25.9713 7.1297 24.3285 6.14932C16.6931 1.62879 5.62897 6.61869 2.15659 14.9929C0.0699379 20.0362 0.0314811 25.6827 -0.204434 31.1093C-0.232324 32.2708 -0.329005 33.4415 -0.327927 34.6016C-0.177047 35.6211 0.555056 36.6593 5.85432e-05 37.507C-0.61302 37.9752 -1.8521 39.1158 -1.30041 39.7626C-0.97709 40.0598 -0.46062 39.8873 -0.109766 40.1731C0.0688595 40.2835 0.180276 40.5253 0.389164 40.5621C2.29733 40.4821 3.64385 40.4752 5.55792 40.3898C6.39584 40.3595 7.67176 40.7508 8.63355 39.9718C11.9931 42.035 10.5879 39.0417 11.2672 36.9106C13.336 37.6829 17.4569 40.1457 19.6621 40.2252C21.454 40.4697 23.1296 39.3175 24.8913 39.5798C27.0799 40.4775 29.6448 40.6771 31.6495 39.1583C32.1498 38.7604 32.7064 39.2213 33.3369 38.7917C34.5624 38.1446 31.6439 34.4355 31.0254 33.7177Z" fill="white"/>
<path fill-rule="evenodd" clip-rule="evenodd" d="M28.5242 17.0881C28.497 16.9158 28.712 16.7873 28.7952 16.962C29.3994 18.2303 29.6414 19.6992 29.8554 21.1001C30.0715 22.5158 30.2144 23.9374 30.2223 25.3746C30.2283 26.48 30.1374 27.5983 29.9666 28.7046L29.9874 28.7833C30.0258 28.9279 30.0644 29.0724 30.1036 29.2168L30.1625 29.4333C30.2765 29.849 30.3845 30.2666 30.5016 30.6813C30.7461 31.5468 31.0035 32.4147 31.3187 33.2523C31.6264 34.0696 32.0005 34.8577 32.4453 35.5944C32.8739 36.3046 33.5541 36.905 33.8561 37.6938C33.9613 37.9686 33.8057 38.3319 33.515 38.2881C33.4961 38.3132 33.4673 38.3315 33.4282 38.3353C33.2025 38.357 32.9909 38.3363 32.7657 38.313C32.64 38.3 32.6402 38.1102 32.7657 38.0972C32.8614 38.0873 32.9546 38.0785 33.0476 38.0726C32.4036 37.6512 31.9441 36.8285 31.5767 36.1549C31.1046 35.2895 30.748 34.3439 30.4573 33.3877C30.1588 32.406 29.9474 31.4038 29.7775 30.3862C29.758 30.269 29.7395 30.1518 29.7217 30.0344C29.507 31.0418 29.2307 32.0308 28.9031 32.9812L28.8572 33.1135C28.1021 35.2749 27.0793 37.4571 25.3782 38.8857C25.301 38.9504 25.2222 39.0119 25.1427 39.0721L25.2394 39.1334C25.3358 39.1941 25.4306 39.2523 25.5234 39.3001C25.8672 39.4772 26.2403 39.6122 26.6094 39.7078C27.3718 39.9055 28.1724 39.8489 28.9502 39.8764C29.2053 39.8854 29.3504 40.3077 29.0896 40.4449C28.2306 40.8966 27.3027 40.8007 26.416 40.4829C25.9772 40.3255 25.5655 40.1053 25.1846 39.8177C25.0271 39.6989 24.8442 39.5523 24.6898 39.3827C22.9886 40.4337 20.8741 40.5513 18.9806 40.1754C17.9966 39.98 17.0431 39.6233 16.2042 39.0131C15.3973 38.4262 14.8221 37.6832 14.4114 36.7206C14.375 36.6353 14.4762 36.529 14.5384 36.6124C15.8283 38.3422 18.0482 39.0639 20.0011 39.2012C21.0431 39.2746 22.109 39.2136 23.1108 38.8694C24.0611 38.5427 24.8766 37.944 25.5574 37.1477C26.9375 35.5337 27.7644 33.338 28.3583 31.2484C29.0044 28.9751 29.312 26.5834 29.3755 24.2043C29.4076 22.999 29.3672 21.7835 29.1957 20.5916C29.0256 19.4094 28.71 18.2653 28.5242 17.0881ZM9.18439 6.84761C9.27575 6.79634 9.34008 6.92975 9.26259 6.99539C7.6541 8.35737 6.21359 10.0844 5.04767 11.9122C2.89748 15.2834 1.5185 19.1845 0.8835 23.2382C0.508566 25.6321 0.410663 28.0622 0.448113 30.488C0.46295 31.4516 0.512796 32.4123 0.568244 33.3733L0.630842 34.4385C0.659911 34.9348 0.684187 35.4269 0.66542 35.9256L0.660308 36.0408C0.630549 36.6211 0.682232 37.2061 0.550401 37.7722C0.48276 38.0625 0.111923 38.1082 -0.0223515 37.8548C-0.0486602 37.8052 -0.0732438 37.754 -0.0971084 37.7024C-0.411806 38.269 -0.819375 38.7756 -1.27158 39.2282C-1.05543 39.1774 -0.837202 39.145 -0.613147 39.1746C-0.25798 39.2216 0.0605997 39.373 0.28602 39.6384C0.509788 39.5271 0.739881 39.4504 1.00448 39.4488C1.19935 39.4477 1.34548 39.7021 1.23428 39.891C1.01246 40.2682 0.702934 40.4796 0.351217 40.6886C0.101957 40.8367 -0.195528 40.71 -0.287568 40.4171L-0.292842 40.3994C-0.396423 40.0289 -0.947324 40.0887 -1.20725 40.146L-1.28374 40.1633C-1.76757 40.2744 -2.24004 40.4167 -2.73294 40.27C-3.05087 40.1753 -3.13396 39.6469 -2.82746 39.4715C-1.85921 38.9175 -1.04638 38.1734 -0.211041 37.4263C-0.395489 36.927 -0.500221 36.3691 -0.620982 35.8614C-0.790982 35.1468 -0.840652 34.3779 -0.902039 33.6439C-1.0187 32.2482 -1.0632 30.8375 -1.05069 29.4363C-1.00835 24.704 -0.275303 19.9569 1.59714 15.6716C2.41745 13.7944 3.4951 12.0573 4.76892 10.5198C6.03518 8.99126 7.51415 7.78428 9.18439 6.84761ZM7.68529 30.0233C7.63562 29.9473 7.73259 29.8467 7.80059 29.896C9.2728 30.9637 10.2944 32.585 10.9537 34.366C11.6062 36.1293 12.0069 38.289 11.3633 40.1278C11.2609 40.4206 10.7703 40.5293 10.7201 40.1278C10.4957 38.3344 10.4609 36.5385 9.96753 34.7951C9.47845 33.0667 8.6416 31.484 7.68529 30.0233ZM6.54378 35.8453C6.55183 35.8136 6.5987 35.8191 6.59669 35.8532C6.55981 36.4856 6.5348 37.1257 6.46277 37.7546C6.42776 38.0602 6.38147 38.3639 6.34208 38.6688C6.30168 38.9815 6.30779 39.2972 6.14311 39.5643C5.92488 39.9183 5.34508 39.8187 5.36456 39.3315C5.37801 38.9954 5.51789 38.7796 5.64893 38.4846C5.73298 38.2955 5.80624 38.1 5.87685 37.9036L5.98181 37.609C6.19041 37.0248 6.39003 36.4504 6.54378 35.8453ZM3.90754 34.1701C3.91645 34.1203 3.98912 34.1323 3.98697 34.1819C3.94765 35.077 3.85621 35.962 3.71303 36.844C3.64774 37.246 3.57161 37.6458 3.49109 38.0444L3.45634 38.2152C3.37022 38.635 3.31466 39.1286 3.12173 39.5037C2.92894 39.8785 2.4712 39.6063 2.5305 39.2284C2.5998 38.7873 2.84498 38.3436 2.98753 37.9199C3.11907 37.5288 3.23408 37.1308 3.34154 36.7309C3.56775 35.8891 3.75328 35.0314 3.90754 34.1701ZM8.81678 36.655L8.83392 36.6356C8.90092 36.5552 9.00083 36.6088 9.03282 36.6936C9.16379 37.0413 9.09823 37.4513 9.08889 37.8204L9.08715 37.9009C9.08018 38.2749 9.08503 38.6251 8.93147 38.9703C8.745 39.3894 8.25369 39.1291 8.21567 38.7562C8.17412 38.3493 8.34843 37.951 8.461 37.5699C8.53252 37.3277 8.58464 37.0758 8.69339 36.8559C8.60038 36.8736 8.50751 36.9091 8.42247 36.9347C8.38437 36.9461 8.37 36.8843 8.40637 36.87C8.54697 36.8151 8.70568 36.7738 8.81678 36.655ZM28.4159 37.8889C28.371 37.8334 28.427 37.7595 28.4853 37.7895C29.1854 38.1506 29.8403 38.3854 30.6128 38.4623C30.9475 38.4956 30.9496 39.0763 30.6128 39.0426C29.8066 38.9625 28.9616 38.5633 28.4159 37.8889ZM3.78389 25.691C4.40027 24.1601 6.35028 22.8021 7.65787 24.2258C7.68239 24.2524 7.65744 24.3104 7.62186 24.2941C6.80852 23.922 5.81282 24.3953 5.24991 25.0723C4.80331 25.6093 4.53498 26.2988 4.48171 27.0255C4.42845 27.7529 4.58594 28.5121 5.02349 29.0747C5.253 29.3699 5.56296 29.6493 5.92768 29.6847C6.29593 29.7205 6.60287 29.4342 6.95099 29.3564C7.21343 29.2978 7.41154 29.4797 7.43727 29.7653C7.49398 30.3957 6.92554 30.8188 6.4328 30.9216C5.90274 31.032 5.36176 30.9113 4.90502 30.5942C3.42987 29.5699 3.11165 27.3608 3.78389 25.691ZM17.6244 10.6861C17.8924 10.4032 18.3483 10.6844 18.2494 11.0879C18.0391 11.9466 17.5921 12.6724 17.0968 13.3613C16.6203 14.0241 16.1098 14.661 15.5626 15.2538C15.0191 15.8427 14.4285 16.3876 13.8078 16.8743L13.6209 17.0205C13.181 17.3629 12.715 17.7092 12.2226 17.9558C12.1037 19.0867 11.8711 20.2026 11.5192 21.2709C11.1802 22.2996 10.7489 23.2938 10.2264 24.2242L10.1513 24.3575C9.67112 25.2072 9.09368 26.1569 8.27881 26.6227C8.25437 26.6367 8.22986 26.6453 8.20571 26.6503C8.388 26.7845 8.54204 26.9533 8.63362 27.1958C8.73396 27.4614 8.52421 27.7119 8.32316 27.7996C7.89798 27.9851 7.48322 27.6711 7.10103 27.3362C7.08486 27.3764 7.06962 27.4169 7.05653 27.4578C6.97107 27.7253 6.94591 27.9986 6.72552 28.1761C6.62079 28.2604 6.49176 28.185 6.42585 28.0894C6.20977 27.7759 6.43346 27.3488 6.62345 27.0927C6.64976 27.0573 6.67693 27.0236 6.70489 26.9913C6.6246 26.9261 6.54625 26.8684 6.47034 26.824C6.02403 26.5631 5.36243 26.5168 5.10545 27.0945C5.08576 27.1388 5.02387 27.1159 5.02387 27.07C5.02451 26.3604 5.68288 25.975 6.25419 25.9227C6.67161 25.8844 7.07534 26.046 7.45106 26.2342L7.52118 26.2698C7.66099 26.3415 7.80504 26.4091 7.94291 26.4847C7.92048 26.4194 7.92084 26.3426 7.95613 26.2664C8.38821 25.3347 9.13017 24.5771 9.66526 23.7142C10.1959 22.8582 10.6515 21.9421 11.0151 20.9855C11.3681 20.057 11.6446 19.0994 11.838 18.1227C11.7743 18.1372 11.7025 18.0746 11.707 18.0011C11.7178 17.8235 11.7965 17.6635 11.9347 17.5954C12.087 16.6766 12.1647 15.7423 12.1601 14.8005C12.1598 14.7275 12.2556 14.7301 12.2612 14.8005C12.3285 15.6379 12.3339 16.4835 12.2774 17.3241C12.6369 16.9588 13.0161 16.6116 13.3623 16.2367C13.8832 15.6726 14.3872 15.0934 14.8733 14.4927C15.3693 13.8798 15.8381 13.2444 16.2668 12.5721L16.4911 12.2195C16.8361 11.679 17.1904 11.1442 17.6244 10.6861ZM16.948 4.65226C19.9063 4.44837 23.0658 4.8498 25.7231 6.38305C27.1826 7.22504 28.3106 8.49766 29.1166 10.0814C29.5979 11.0271 29.9629 12.0743 30.1012 13.151C30.2433 14.2573 30.0765 15.2437 29.4368 16.1231C29.1827 16.4723 28.7547 16.0822 28.8173 15.7249C29.2003 13.5388 28.5791 11.379 27.4773 9.56924C25.8786 6.94305 23.0867 5.77647 20.3683 5.25607C19.0328 5.00051 17.6782 4.89369 16.3232 4.94567C15.2902 4.98536 14.2305 5.09163 13.2502 5.47536C13.2088 5.49155 13.1924 5.42044 13.2322 5.40369C14.4016 4.91059 15.7069 4.73782 16.948 4.65226ZM21.3355 9.59535C21.4878 9.48876 21.6741 9.59813 21.7265 9.77106C21.911 10.3807 21.5242 11.1862 21.2654 11.7138C20.9726 12.3109 20.596 12.8692 20.2071 13.3935C19.4291 14.4423 18.4066 15.3173 17.2845 15.8673C17.2158 15.9011 17.1357 15.8095 17.1988 15.7447C18.067 14.8521 18.8541 13.8951 19.5356 12.8215C19.8704 12.294 20.1497 11.7375 20.4163 11.1658C20.655 10.6542 20.8794 9.91455 21.3355 9.59535ZM26.311 10.3136C26.4083 9.93832 26.9627 10.0022 26.9397 10.4075C26.8804 11.4546 26.433 12.5056 25.9469 13.393C25.4463 14.3067 24.8124 15.121 24.0857 15.8243C24.0499 15.859 24.0009 15.8055 24.0333 15.7664C24.6603 15.0086 25.1667 14.1455 25.5417 13.2061C25.9163 12.2681 26.0577 11.2894 26.311 10.3136ZM23.5558 10.144C23.6618 9.81776 24.1693 9.84197 24.1382 10.2311C24.0526 11.3008 23.4841 12.4218 22.9575 13.3053C22.3986 14.2427 21.6854 15.0685 20.8882 15.762C20.8584 15.788 20.8162 15.745 20.8453 15.7147C21.5613 14.9698 22.142 14.1094 22.6016 13.1497C22.8363 12.6601 23.0331 12.1501 23.1885 11.6234C23.3322 11.1361 23.3997 10.6243 23.5558 10.144Z" fill="black"/>
</g>
<defs>
<clipPath id="clip0_5_136">
<rect width="34" height="45" fill="white"/>
</clipPath>
</defs>
</svg>
