<svg width="36" height="43" viewBox="0 0 36 43" fill="none" xmlns="http://www.w3.org/2000/svg">
<g clip-path="url(#clip0_5_200)">
<path fill-rule="evenodd" clip-rule="evenodd" d="M30.8904 15.4086C30.1064 12.5885 27.1096 11.3579 24.4105 11.1626C17.1029 10.4057 9.6647 14.4648 6.425 21.0469C3.83171 26.0448 3.7505 31.2951 9.32494 34.1488C9.62938 34.316 9.9473 34.4947 10.272 34.657C10.554 34.9184 10.8446 35.1695 11.1616 35.3803C14.1971 37.3692 17.9228 38.2294 21.5333 38.0429C26.8641 37.9358 28.7672 34.3314 29.9317 29.7092C31.16 25.1075 31.8469 20.1141 30.8904 15.4086Z" fill="white"/>
<path fill-rule="evenodd" clip-rule="evenodd" d="M34.3896 41.9902C34.1407 41.2402 33.8287 40.5129 33.5372 39.778C33.4755 39.4117 33.4344 39.0424 33.4238 38.6701C33.3834 37.3399 33.6331 35.9983 33.9132 34.703C34.4825 32.0707 35.086 29.4656 35.3889 26.7848C35.9301 21.9895 35.6081 17.0032 33.4192 12.6259C31.5225 8.83397 28.3084 5.73297 24.1566 4.57113C22.9293 4.22751 21.6661 4.03799 20.3942 3.96231C20.2367 3.93736 20.0795 3.91294 19.923 3.88943C18.1539 3.62369 16.363 3.49128 14.5749 3.60587C11.6097 3.796 8.67213 4.64507 6.20251 6.32443C3.71608 8.01538 1.94941 10.3864 1.12735 13.2783C0.272178 16.2868 0.34471 19.545 -1.13205 22.3655C-1.56831 23.1989 -2.07757 23.9911 -2.56322 24.7965C-3.85184 26.2291 -5.25089 27.8218 -5.55746 29.7917C-5.93573 32.2261 -4.52998 34.2836 -3.19958 36.1833C-1.99704 37.8988 -0.365243 40.268 -1.60279 42.38C-2.18655 43.3765 -3.12195 44.122 -3.82444 45.0306C-4.55281 45.974 -5.12135 47.057 -5.41514 48.2142C-5.96693 50.3877 -5.45928 52.653 -3.98351 54.3518C-3.2148 55.2361 -2.22765 55.8208 -1.15907 56.2766C-0.0653704 56.7422 1.00321 57.1843 1.9074 57.9768C2.32068 58.3386 2.69894 58.7352 3.05666 59.1508C3.39002 59.6703 3.77818 60.1556 4.21581 60.6001C4.69759 61.0892 5.64135 60.4196 5.19915 59.844C5.16643 59.8015 5.13446 59.7598 5.10173 59.7173C4.77827 59.2972 4.45328 58.877 4.11307 58.4705C3.09852 56.8688 2.70808 54.9077 3.21268 53.0368C3.34359 52.5506 3.52778 52.0895 3.75695 51.6542C3.80558 51.7809 3.85886 51.906 3.91518 52.0296C4.13438 52.5089 4.44194 53.0769 4.83307 53.5623C4.84829 53.8952 4.8986 54.2251 4.99594 54.5482C5.59873 56.5511 7.61412 57.5392 9.43163 58.3082C9.60972 58.3841 9.78554 58.4569 9.95831 58.5289C10.4332 58.7268 10.9356 58.0527 10.6395 57.6461C10.5619 57.5392 10.4865 57.43 10.415 57.3193C9.56254 56.0043 9.15687 54.4314 9.38672 52.8646C9.62875 51.2076 10.609 49.8364 11.5825 48.5206C12.5384 47.2268 13.5652 45.9065 13.9929 44.3283C14.4663 42.5848 14.0355 40.8466 13.3049 39.2419C12.6359 37.7734 11.7447 36.42 10.9974 34.9919C11.2532 35.2462 11.5173 35.4922 11.7893 35.7294C12.0952 35.9962 12.4094 36.3015 12.7719 36.4896C13.04 36.6286 13.3085 36.2958 13.0962 36.0708C12.8172 35.7752 12.4602 35.5468 12.1504 35.2829C11.8529 35.0297 11.5641 34.7663 11.2824 34.4958C10.9356 34.1628 10.6056 33.8141 10.2875 33.4548C10.0329 32.8086 9.82314 32.1451 9.65235 31.4715C9.42021 30.56 9.20558 29.59 9.22233 28.6451C9.23907 27.6759 9.74444 26.9971 10.4173 26.3464C10.7022 26.0709 10.9899 25.7986 11.2771 25.5259C11.8887 25.0785 12.4656 24.5787 13.026 24.0803C14.0246 23.1922 14.9904 22.2534 15.9128 21.2871C16.1602 21.0279 16.4056 20.7658 16.6479 20.5007C17.4946 19.6349 18.3022 18.731 19.0633 17.7957C19.8199 17.5212 20.5467 17.1579 21.2287 16.7302C20.9318 17.0298 20.632 17.3255 20.3336 17.6236C19.6692 18.2879 18.9789 18.9553 18.2086 19.4967C18.1295 19.5529 18.1774 19.6719 18.2749 19.653C19.2544 19.4581 20.1707 19.1335 21.0262 18.6163C21.8962 18.09 22.6626 17.3748 23.378 16.6574C23.7829 16.4754 24.1734 16.241 24.5303 16.0105C24.5493 15.9984 24.5684 15.9855 24.5874 15.9733C24.2358 17.0836 23.7198 18.341 22.62 18.7369C22.5842 18.7498 22.5865 18.8089 22.6291 18.8066C23.5557 18.7525 24.3003 18.3371 24.8882 17.7317C25.361 17.3927 25.8122 17.0335 26.2427 16.6424C26.6598 16.2635 27.0549 15.8572 27.4301 15.4364C26.9057 16.4715 26.3183 17.4836 25.7389 18.4843C25.7085 18.5374 25.7724 18.6095 25.8272 18.5723C27.0503 17.7472 27.9781 16.6824 28.7369 15.4234C28.8489 15.2381 28.9559 15.0497 29.0602 14.8599C28.9815 15.1569 28.8955 15.4521 28.8035 15.7457C28.6369 16.2773 28.4729 16.8101 28.306 17.3413C28.216 17.6277 28.1063 17.9077 27.986 18.1828C27.8999 18.3797 27.7871 18.5762 27.7696 18.7921C27.7684 18.8064 27.7841 18.8158 27.7967 18.8127C28.2844 18.6912 28.7385 18.137 29.086 17.7937C29.2796 17.6025 29.4609 17.3926 29.6276 17.1713C29.6586 18.446 29.6799 19.7207 29.6518 20.9991C29.5993 23.347 29.4471 25.6942 29.2522 28.0345C29.0802 30.1034 28.9531 32.2747 27.7947 34.0728C26.8981 35.4644 25.4444 36.4275 23.8651 36.8939C23.7258 36.9356 23.5858 36.9728 23.445 37.0062C21.1586 37.5469 18.8814 36.9341 16.86 35.8512C16.2526 35.5258 15.7335 36.4085 16.3196 36.7718C18.5131 38.1324 21.2934 38.5957 23.7761 37.986C23.6978 40.908 25.143 43.6799 26.5807 46.1583C27.3852 47.5453 28.1904 48.9233 28.7591 50.4272C29.2415 51.7043 29.5696 53.0292 29.6799 54.392C29.8108 55.9982 29.6822 57.6136 29.4569 59.2062C29.4447 59.2925 29.4326 59.3798 29.4196 59.4662C29.3694 59.8083 29.6776 60.0949 30.0118 59.9198C31.489 59.1463 32.1261 57.4975 32.5135 55.9732C32.8758 54.5452 33.1216 53.0891 33.2586 51.6231C33.4595 52.176 33.6224 52.7425 33.7488 53.3203C33.7663 53.4031 33.783 53.4857 33.7997 53.5684C33.8956 54.0515 34.6293 54.0173 34.7466 53.5684C34.7679 53.4872 34.7884 53.4061 34.8074 53.3242C35.4125 50.886 35.5754 48.3432 35.2557 45.8503C35.0875 44.5391 34.8067 43.2454 34.3896 41.9902Z" fill="black"/>
</g>
<defs>
<clipPath id="clip0_5_200">
<rect width="36" height="43" fill="white"/>
</clipPath>
</defs>
</svg>
