<svg width="33" height="45" viewBox="0 0 33 45" fill="none" xmlns="http://www.w3.org/2000/svg">
<g clip-path="url(#clip0_5_168)">
<path fill-rule="evenodd" clip-rule="evenodd" d="M16.8867 5.97266C20.8482 5.97266 26.6465 8.98189 27.0826 11.8771C27.5964 15.289 28.7378 28.1186 28.1164 32.317C27.495 36.5153 25.0721 39.6174 19.7141 39.6174C14.3561 39.6174 10.3569 36.2935 9.43863 35.1522C8.82647 34.3914 8.1495 32.8271 7.40773 30.4594C5.45203 30.0823 4.46964 29.007 4.46057 27.2335C4.45151 25.4601 4.94274 24.2993 5.93426 23.7512C5.39914 16.3941 5.69395 11.8045 6.81868 9.98234C8.50578 7.24907 12.9253 5.97266 16.8867 5.97266Z" fill="white"/>
<path fill-rule="evenodd" clip-rule="evenodd" d="M15.7427 -0.237011C16.471 -0.223519 17.205 -0.192567 17.9361 -0.124313C17.9703 -0.128281 18.0052 -0.131455 18.0394 -0.135424C19.4152 -0.285503 20.7889 -0.150582 22.1641 -0.0846301C23.4742 -0.0219316 24.8577 0.132037 26.0341 0.845449C26.1853 0.937037 26.3135 1.04116 26.4228 1.1572C26.5761 1.18172 26.7222 1.23116 26.8536 1.31426C27.2323 1.2272 27.6551 1.42021 27.7447 1.92013C27.8752 2.65267 27.9247 3.39148 27.8466 4.13442C27.8445 4.1518 27.8431 4.17013 27.841 4.18918C27.9991 4.87839 27.9886 5.63108 27.8572 6.31085C27.9126 7.16973 27.9442 8.03108 27.9486 8.891C27.9516 9.48585 27.9749 10.0915 27.9263 10.6846C27.8835 11.206 27.6948 11.6186 27.3979 12.0147C27.342 12.0893 27.2475 12.1016 27.1688 12.0835C27.1485 12.0789 27.1307 12.0725 27.1147 12.065C27.2936 12.5014 27.4351 12.9644 27.5801 13.4066C27.8103 14.1098 28.0336 14.8249 28.1919 15.5535C28.5129 17.0224 28.7242 18.5193 28.8471 20.0265C29.064 22.7082 29.1456 25.413 29.1876 28.1051C29.228 30.6558 29.0306 33.3162 27.7531 35.4971C26.6362 37.405 24.9352 38.79 23.041 39.5376C21.9631 39.9638 20.7694 40.1217 19.6308 40.1606C19.0427 40.1804 18.4531 40.1519 17.8685 40.0828C17.3013 40.0154 16.7145 40.0225 16.3 39.5336C16.1863 39.3995 16.1878 39.1241 16.3559 39.0368C16.6762 38.8709 16.8931 38.8535 17.2441 38.9082C17.5349 38.9534 17.8266 38.9892 18.1196 39.0122C18.7475 39.0622 19.3796 39.0638 20.0076 39.009C21.1615 38.9082 22.342 38.5375 23.3898 37.9757C25.0328 37.0931 26.4443 35.647 27.2062 33.7495C28.0915 31.5471 28.0343 28.9955 27.9931 26.6289C27.9477 24.0336 27.8634 21.4463 27.6652 18.8598C27.5689 17.6058 27.4203 16.3606 27.2864 15.1122C27.2159 14.4487 27.1231 13.7883 27.0093 13.1328C26.9494 12.7859 26.8713 12.4439 26.8071 12.0995C26.7603 12.1081 26.7128 12.113 26.6641 12.1153C26.3724 12.1265 26.0536 12.0455 25.8372 11.8098C25.7543 11.8741 25.6489 11.9146 25.522 11.9217C24.3227 11.9891 23.1045 11.9058 21.9031 11.9051C20.6976 11.9043 19.4913 11.9051 18.2849 11.909C17.0801 11.9129 15.8717 11.9257 14.6676 11.8892C13.5464 11.8551 12.3875 11.8828 11.281 11.6495C10.9092 13.1527 10.9224 14.8043 11.6976 16.1471C11.9166 16.5257 11.7386 16.9717 11.4534 17.2082C11.1617 17.4496 10.6374 17.8197 10.1888 17.8577C10.1453 17.9687 10.1006 18.0792 10.0582 18.1893C9.84411 18.7443 9.6512 19.3028 9.5162 19.8904C9.44664 20.1933 9.38678 20.5012 9.33641 20.8109C9.34053 20.8651 9.34478 20.9193 9.34988 20.9733C9.34988 20.9789 9.35057 20.9843 9.35127 20.9907C9.35406 21.013 9.35755 21.0384 9.35964 21.0527C9.38546 21.2082 9.4105 21.3638 9.43778 21.5185C9.50267 21.8955 9.55283 22.2757 9.58848 22.6574C9.65336 23.3558 9.64709 24.2638 9.04848 24.6773C8.72825 24.8987 8.34453 24.8757 8.00609 24.7272C7.77871 24.6273 7.58546 24.486 7.37615 24.3471C7.25197 24.2645 7.12213 24.1971 7.00074 24.1114C6.96732 24.0876 6.93522 24.059 6.90522 24.0289C6.67848 24.0836 6.45725 24.186 6.33313 24.2558C6.00027 24.4439 5.70802 24.7162 5.45957 25.0289C4.9315 25.6947 4.77313 26.6328 4.84709 27.5035C4.91609 28.3138 5.19592 29.2447 5.75888 29.7836C6.00376 30.0185 6.30941 30.1558 6.63243 30.1519C6.79143 30.1503 6.93802 30.1122 7.0915 30.0662C7.2429 30.0209 7.42988 30.0344 7.56941 29.9709C7.77655 29.8765 8.03197 30.1646 7.94755 30.4011C7.88399 30.5789 7.84778 30.736 7.76818 30.8749C8.34592 31.9479 8.97871 32.9876 9.6519 33.9852C10.2589 34.8836 10.9734 35.6392 11.6486 36.4622C11.9466 36.8257 12.0708 37.5416 11.5315 37.697C10.9936 37.8535 10.5917 37.1963 10.2826 36.7971C9.00243 35.1408 8.03476 33.2391 7.5819 31.0924C7.37755 31.2574 7.14306 31.3471 6.89609 31.386C6.40422 31.463 5.90685 31.3527 5.47569 31.0693C3.84306 29.9971 3.44818 27.0995 4.21283 25.2836C4.39722 24.8464 4.6696 24.4561 5.00162 24.153C4.97546 24.0961 4.96513 24.0294 4.98195 23.9577C5.01146 23.8323 5.0439 23.7083 5.07795 23.5848C5.04076 23.566 5.01355 23.5271 5.01871 23.4693C5.04941 23.1122 5.07934 22.7551 5.10941 22.3979C5.09888 21.8582 5.07585 21.3193 5.08143 20.7765C5.08988 19.9114 5.13592 19.0471 5.13871 18.182C5.14778 15.1646 5.25585 12.1503 5.2636 9.13283C5.26771 7.65735 5.2705 6.17966 5.23632 4.70505C5.23562 4.68521 5.23562 4.66616 5.23499 4.64632C5.20702 3.46616 4.9322 1.8868 5.94662 1.12323C6.11336 0.99791 6.32127 0.996322 6.50267 1.07727C7.02453 0.663783 7.67895 0.464497 8.30476 0.349418C9.49709 0.130449 10.6999 0.0248144 11.9006 -0.114074C12.527 -0.186297 13.1863 -0.213995 13.817 -0.198122C14.4548 -0.182249 15.1008 -0.248122 15.7427 -0.237011ZM6.07218 26.1741C6.30025 25.9273 6.64079 25.9843 6.92055 26.0431C7.30986 26.1249 7.68799 26.3185 8.0159 26.5669C8.36892 26.8344 8.80497 27.205 8.87474 27.7122C8.93823 28.1781 8.53079 28.6916 8.11148 28.3796C7.72288 28.09 7.53381 27.559 7.19962 27.1955C7.0356 27.0177 6.85839 26.8614 6.67079 26.7185C6.58567 26.6535 6.50195 26.5812 6.40916 26.5312C6.40009 26.5264 6.01776 26.3852 6.09172 26.5717C6.11683 26.6336 6.05125 26.7027 6.00451 26.6479C5.87195 26.4947 5.9459 26.3106 6.07218 26.1741Z" fill="black"/>
</g>
<defs>
<clipPath id="clip0_5_168">
<rect width="33" height="45" fill="white"/>
</clipPath>
</defs>
</svg>
