<svg width="35" height="45" viewBox="0 0 35 45" fill="none" xmlns="http://www.w3.org/2000/svg">
<g clip-path="url(#clip0_5_176)">
<path fill-rule="evenodd" clip-rule="evenodd" d="M11.3961 4.70898L12.0352 5.52419C11.6813 5.79167 11.3472 6.06043 11.033 6.33048L11.0327 6.32967C12.4883 5.31108 14.1003 4.70898 15.8417 4.70898C19.1958 4.70898 26.0088 7.79922 27.5489 10.0282C28.3132 11.1344 29.7335 14.5302 30.4703 18.2221C31.0622 21.1885 31.9427 29.5689 31.0622 32.7179C29.9354 36.7481 26.2281 40.473 22.4055 40.473C18.5829 40.473 12.6481 37.513 8.42426 31.0264C8.23112 30.7298 6.01318 30.3859 4.43097 29.2727L4.84638 34.1812L5.1621 37.0366L5.09243 37.2398C3.95924 40.5269 3.06125 42.2417 2.39847 42.3844C1.72217 42.53 0.344877 41.341 -1.73341 38.8172L-1.99897 37.6217C-2.67348 34.5721 -3.01074 32.9351 -3.01074 32.7108L-3.01028 32.67C-3.00033 32.1539 -2.83456 29.2325 -2.83114 28.4464L-2.83109 16.6635C-0.595962 8.69383 1.53697 4.70898 3.56772 4.70898H11.3961Z" fill="white"/>
<path fill-rule="evenodd" clip-rule="evenodd" d="M6.09995 1.9949C6.75711 1.72189 7.51845 1.77347 8.14224 2.18459C9.36694 2.12824 10.5849 2.89649 11.2234 4.01792C11.2367 4.03379 11.2509 4.04967 11.2635 4.06554L11.3988 4.2347C11.5269 4.39625 11.6621 4.5743 11.7691 4.75816C11.2447 4.77101 10.8077 5.0003 10.5027 5.4634C10.2851 5.79383 10.7836 6.10783 11.006 5.7953L11.0139 5.78387C11.197 5.50586 11.4735 5.39816 11.7812 5.39252C11.8696 5.39094 11.9366 5.35467 11.9839 5.30117C12.0028 5.3749 12.0197 5.44943 12.0352 5.52427C13.5848 4.87784 15.2553 4.70665 16.9191 4.85998C16.8461 4.98665 16.7852 5.12236 16.7383 5.26498C16.685 5.42665 16.7986 5.61228 16.945 5.65546C17.1033 5.70213 17.2465 5.60259 17.3038 5.44877L17.3091 5.43371C17.373 5.23943 17.4774 5.07268 17.6175 4.9434C18.4008 5.05728 19.1785 5.2384 19.9372 5.47189C20.849 5.75276 21.7523 6.09554 22.6356 6.488C22.486 6.55094 22.3568 6.65728 22.2663 6.83482C22.0856 7.18921 22.5823 7.50663 22.7707 7.16783L22.7774 7.1553C22.7959 7.11897 22.8123 7.09712 22.8243 7.08469L22.8285 7.08046L22.8546 7.0676L22.9031 7.05268L22.9218 7.04777C22.9382 7.0438 22.945 7.04406 22.9883 7.04149C23.0459 7.038 23.1035 7.03832 23.1612 7.03824C23.2967 7.03816 23.3832 6.95713 23.4224 6.85347C23.8583 7.06451 24.2886 7.28673 24.7114 7.51951L24.8119 7.57531C26.1167 8.30655 27.3529 9.26685 28.07 10.6798C28.1175 10.7743 28.1322 10.8774 28.1204 10.9759C28.2735 11.1727 28.4215 11.3759 28.5636 11.5822C28.9972 12.214 29.3146 12.9322 29.6151 13.6441C30.2196 15.0759 30.6266 16.5465 30.944 18.0798C31.2512 19.5576 31.499 21.0513 31.7292 22.5449C31.9844 24.2044 32.1968 25.8782 32.2413 27.5616C32.3197 30.5624 31.7728 33.5806 30.2019 36.1068C28.8005 38.3608 26.6901 40.1505 24.1875 40.7235C21.642 41.306 18.9486 40.7378 16.9426 38.9187C16.6192 38.6259 16.6637 38.0346 16.9426 37.7346C17.2586 37.3965 17.7247 37.4433 18.0466 37.7346C19.9357 39.4481 22.6854 39.7124 24.9616 38.8394C27.066 38.0314 28.7145 36.1679 29.7261 34.0751C30.9603 31.5227 31.1683 28.5909 30.9788 25.7671C30.8753 24.2163 30.6599 22.6782 30.4379 21.1425L30.3039 20.2181C30.1577 19.2168 30.0041 18.2169 29.8038 17.2259L29.7569 16.995C29.5121 15.7998 29.2254 14.574 28.782 13.4505C28.5495 12.8608 28.2699 12.2925 27.9835 11.7314C27.928 11.6227 27.871 11.5124 27.8125 11.4013C27.7341 11.4306 27.6446 11.4354 27.5506 11.4036C26.7418 11.1338 25.9108 10.9528 25.0651 10.8925C24.6798 10.8649 24.294 10.8606 23.9085 10.8767C23.2487 10.8355 22.5705 10.8978 21.9419 11.1147C21.8804 11.0582 21.8181 11.0028 21.7558 10.9474C21.739 10.9459 21.7222 10.944 21.7053 10.9405C21.5449 10.9067 21.4322 10.7844 21.3642 10.6301C21.3607 10.6219 21.3575 10.6137 21.3545 10.6055C21.274 10.5396 21.1929 10.4747 21.1111 10.4106C20.9116 10.4661 20.7368 10.2881 20.6898 10.093C20.6454 10.0609 20.6002 10.0297 20.5554 9.99824C20.5202 10.0074 20.4853 10.0151 20.4513 10.0178C20.3044 10.0291 20.1626 10.005 20.0324 9.92982C19.8676 9.83467 19.7623 9.68117 19.6919 9.50681C19.4427 9.52324 19.1905 9.43649 18.9677 9.27967C18.7868 9.15244 18.6483 8.97681 18.5106 8.80149C16.8325 7.99871 15.0084 7.52475 13.1799 7.40332C12.9998 7.44046 12.821 7.48467 12.6444 7.53609C12.6026 7.54832 12.5432 7.57228 12.4749 7.60101C12.8826 7.54816 13.2954 7.54292 13.7142 7.6076C15.7013 7.91578 17.2489 9.51149 18.5809 11.0178C18.8977 10.9491 19.218 11.3892 18.9248 11.6806L16.6385 13.9529C16.6946 14.207 16.4229 14.4575 16.1848 14.3965C15.7857 14.2936 15.3859 14.1936 14.9858 14.0953C14.5685 14.3119 14.0438 14.2748 13.6652 13.9609C13.6476 13.9463 13.6093 13.9229 13.5761 13.8997C13.545 13.9273 13.5032 13.9549 13.4866 13.9667C13.352 14.0622 13.188 14.0903 13.0308 14.0635C12.869 14.0359 12.723 13.9479 12.5972 13.8383C12.517 13.7685 12.3303 13.4772 12.2264 13.4557L12.2163 13.4545C12.2856 13.4567 12.0628 13.6788 12.0029 13.7247C11.8632 13.8317 11.7088 13.8878 11.5349 13.8674C11.232 13.8316 10.9715 13.5355 10.8234 13.2621L10.8122 13.2411L10.8076 13.2281L10.8036 13.2422C10.8029 13.2446 10.8021 13.2473 10.8011 13.2503C10.7789 13.3147 10.7092 13.3878 10.6618 13.4328C10.5268 13.5609 10.3597 13.6171 10.1813 13.5837C10.0302 13.5555 9.90317 13.4576 9.80108 13.3392L9.78516 13.3203C9.75496 13.2837 9.55595 12.997 9.58737 12.9282L9.591 12.9224L9.58108 12.9202C9.46003 12.9521 9.35843 12.9201 9.28399 12.8532C8.86858 12.7556 8.45857 12.6419 8.06166 12.4973C8.03058 12.5909 8.00016 12.6846 7.97064 12.779C8.18737 12.9227 8.3879 13.1274 8.57215 13.2735C8.92149 13.5497 9.27067 13.8259 9.61919 14.1028L11.0001 15.1954L11.158 15.1499C11.3598 15.0918 11.5329 15.2178 11.607 15.4104L11.6131 15.427C11.6425 15.5114 11.6778 15.5894 11.7194 15.6641C12.0646 15.6493 12.3569 15.8767 12.4514 16.2027C12.5366 16.2006 12.6228 16.2041 12.7108 16.2145C12.952 16.2429 13.1145 16.435 13.0708 16.6987L13.0675 16.7168L13.0617 16.7462C13.2015 16.8098 13.3028 16.9328 13.3253 17.1186C13.3628 17.179 13.393 17.2447 13.4123 17.3179C13.5132 17.6976 13.3169 18.167 13.2124 18.5307L13.2044 18.5592C13.1373 18.7982 13.0678 19.0361 12.9976 19.2739L12.8227 19.8643C12.3375 21.5097 11.8645 23.2445 12.2571 24.9695C12.3408 25.3346 11.9057 25.4997 11.717 25.214C11.2595 24.5222 10.7653 23.8704 10.2464 23.2447L10.2212 23.2404C9.85783 23.162 9.71672 22.8867 9.54993 22.6061C9.45167 22.6371 9.346 22.6444 9.24389 22.6233C9.09604 22.5928 8.96359 22.5022 8.85903 22.3878C8.77046 22.2909 8.68929 22.0421 8.58458 21.9805C8.45361 21.9034 8.19033 22.0136 8.03391 21.9888C7.90671 21.9687 7.78794 21.9219 7.67273 21.8631C7.46096 22.1727 7.32059 22.5366 7.28618 22.929C7.27279 23.0782 7.23135 23.2044 7.17141 23.3092C7.39192 23.3005 7.61317 23.3171 7.83153 23.3608C8.63956 23.5219 9.21895 24.0568 9.54453 24.8536C9.55852 24.8886 9.51634 24.9171 9.4971 24.8838C9.01398 24.0862 7.96243 24.0457 7.19879 24.3267C6.3878 24.6251 5.93272 25.3909 5.77075 26.2647C5.59316 27.2227 5.82099 28.2552 6.30722 29.0711C6.53283 29.4505 6.84073 29.7965 7.24985 29.9362C7.73607 30.102 8.18515 29.8052 8.68315 29.9584C9.02205 30.0624 9.17159 30.414 9.1101 30.7655C9.08568 30.9036 9.04055 31.0243 8.97987 31.129C9.15901 31.51 9.32469 31.902 9.53558 32.2624C9.86116 32.8187 10.2549 33.279 10.684 33.7433C11.1272 34.2227 11.5786 34.6925 12.0529 35.137C12.5073 35.5632 13.0283 35.8663 13.5048 36.2568C13.8392 36.5306 14.0049 36.9147 13.8399 37.3544C13.7038 37.7179 13.245 38.0274 12.8735 37.8632C12.1624 37.5489 11.5401 37.014 10.9734 36.4632C10.448 35.952 9.99065 35.3409 9.64509 34.6774C9.31911 34.0519 9.07891 33.3416 8.87626 32.6573L8.85112 32.5719C8.75566 32.2465 8.6551 31.8806 8.58999 31.5116C8.20003 31.7401 7.67088 31.7735 7.25362 31.7116C6.57945 31.6124 5.96454 31.2481 5.49985 30.7171C5.28326 30.4701 5.09184 30.1882 4.92653 29.8828C4.94155 30.0687 4.9505 30.2486 4.96012 30.4124C5.34646 30.8662 5.5014 31.5211 5.36429 32.1186C5.6875 32.4755 5.77807 33.0111 5.60936 33.4671C5.96314 33.8435 5.94982 34.4424 5.79687 34.9863C6.21509 35.4876 6.25468 36.2686 5.92814 36.8344L5.91829 36.875C6.24802 37.4667 6.17365 38.2315 5.76054 38.754C6.04268 39.341 5.99902 40.1305 5.29392 40.3583C5.03693 40.4413 4.78786 40.3705 4.60147 40.216C4.77166 41.1239 4.8478 42.0455 4.62085 42.9576C4.5305 43.3195 4.20048 43.5838 3.85344 43.5838C3.56338 43.5838 3.35249 43.4274 3.20679 43.1973C3.22381 43.6552 3.19791 44.1155 3.1069 44.5798C3.05199 44.8602 2.80951 45.0789 2.55208 45.1466C2.64494 45.2589 2.68194 45.4213 2.59292 45.5905C2.21547 46.3071 1.30347 46.0099 1.24184 45.3233C0.984257 45.1171 0.864531 44.7786 0.814954 44.4128C0.742734 43.8793 0.71654 43.3546 0.634701 42.8279L0.603414 42.8593L0.587269 42.8743L0.58209 42.9124C0.535176 43.1727 0.398284 43.355 0.22062 43.4637C0.259246 43.9178 0.187766 44.3803 -0.0808387 44.7252C-0.25976 44.955 -0.564549 45.0455 -0.825828 44.9956C-0.842255 44.9965 -0.859052 44.9964 -0.876515 44.994C-1.46826 44.9096 -1.81064 44.3076 -1.65488 43.7551C-1.89314 43.4419 -1.99348 43.0445 -1.92296 42.6518C-2.38403 42.3244 -2.37463 41.6051 -2.21495 41.0274C-2.69829 40.6183 -2.8801 39.8535 -2.63724 39.2456C-3.07286 38.6654 -3.13346 37.8568 -2.83748 37.1961C-3.31675 36.7738 -3.31401 35.9585 -2.83866 35.5266C-3.0918 34.9876 -3.24445 34.3418 -2.99146 33.8486C-3.16994 33.6373 -3.26791 33.3362 -3.24727 33.0452C-3.217 32.6179 -2.95343 32.3227 -2.62637 32.1259L-2.60372 31.9923C-2.52692 32.0025 -2.44508 31.9795 -2.37293 31.9052C-2.30153 31.8317 -2.22805 31.7724 -2.15205 31.7235C-2.066 31.7223 -1.99193 31.6812 -1.93983 31.6179C-1.79732 31.566 -1.64407 31.5431 -1.4741 31.541C-1.10701 31.5367 -1.09406 30.9479 -1.4357 30.9097C-1.48964 30.8514 -1.56394 30.8147 -1.64452 30.8147L-1.70762 30.8149C-1.85514 30.8164 -2.00408 30.8262 -2.14095 30.8891C-2.2299 30.9299 -2.29849 30.9914 -2.34873 31.0667C-2.35813 31.1805 -2.41585 31.294 -2.54083 31.3877C-2.68519 31.4959 -2.88261 31.5086 -3.03712 31.4106C-3.25341 31.2735 -3.25563 31.0594 -3.23069 30.8267C-3.17608 30.3177 -3.44898 29.8386 -3.38401 29.3178C-3.35523 29.0876 -3.28375 28.8888 -3.1672 28.7282C-3.41294 28.3337 -3.4563 27.8244 -3.2671 27.3913C-3.66127 26.9365 -3.72942 26.2354 -3.47806 25.688C-3.47443 25.6747 -3.47162 25.6612 -3.4677 25.6481C-3.43928 25.5551 -3.40014 25.4712 -3.357 25.3909C-3.57766 24.9809 -3.57603 24.4778 -3.35175 24.0696C-3.69146 23.6448 -3.70227 22.9689 -3.40014 22.5113C-3.39836 22.4733 -3.39467 22.4354 -3.39163 22.3974C-3.5303 22.0113 -3.497 21.5724 -3.32111 21.2133C-3.38386 21.0582 -3.43226 20.8911 -3.46319 20.7132C-3.54243 20.2544 -3.50166 19.8084 -3.38327 19.3608C-3.3641 19.2901 -3.34265 19.2195 -3.31971 19.1489C-3.31586 18.8423 -3.30498 18.537 -3.29063 18.2324C-3.34689 17.9744 -3.35596 17.691 -3.3572 17.4279L-3.35756 17.2573C-3.36031 16.823 -3.38853 16.1873 -3.13257 15.8182C-3.29692 15.4194 -3.22936 14.917 -2.95506 14.601C-3.14759 14.2459 -3.188 13.8097 -2.9945 13.4157C-2.96342 13.3523 -2.92738 13.2932 -2.88787 13.2374C-2.90385 12.8765 -2.83304 12.5043 -2.65375 12.1457C-2.53728 11.9122 -2.36331 11.7101 -2.15649 11.5483C-2.15997 11.5005 -2.16212 11.4527 -2.16138 11.4056C-2.15775 11.1956 -2.11432 10.9847 -2.04121 10.788C-2.1724 10.5478 -2.23323 10.2771 -2.15649 9.98538C-2.07066 9.65522 -1.8449 9.37109 -1.56305 9.21078C-1.54033 8.89951 -1.49497 8.59006 -1.43015 8.28475C-1.60338 7.87102 -1.46545 7.32498 -1.07394 7.08125C-1.12499 6.75062 -1.07897 6.40776 -0.854612 6.14951C-0.769591 6.05165 -0.669401 5.97744 -0.561589 5.92824C-0.613534 5.59578 -0.554929 5.2499 -0.340564 4.97919C-0.16549 4.75816 0.0939393 4.62387 0.357956 4.60411C0.459626 4.02586 0.974711 3.59347 1.51814 3.62792C1.58606 3.37332 1.74834 3.15133 2.00007 3.03879C2.06452 3.00998 2.12964 2.99101 2.19453 2.98046C2.63643 2.50236 3.29433 2.17832 3.86388 2.01236C4.43517 1.84657 5.0143 1.83052 5.50481 2.02328L5.54055 2.03776L5.5805 2.0322C5.75373 2.01157 5.9268 1.99966 6.09995 1.9949ZM1.75862 41.1803C1.60604 41.1293 1.43585 41.2407 1.39449 41.402C1.35083 41.5724 1.44806 41.7413 1.60123 41.7925C1.79207 41.8563 1.99252 41.8723 2.19142 41.8724C2.35133 41.8726 2.48741 41.7264 2.48741 41.555C2.48741 41.3827 2.35192 41.2377 2.19142 41.2375C2.02967 41.2374 1.91024 41.231 1.75862 41.1803ZM0.401318 37.809C0.173189 37.8092 -0.0224559 37.8676 -0.19161 38.039C-0.30438 38.1534 -0.307192 38.3743 -0.19161 38.4881C-0.0748704 38.6029 0.0945014 38.6096 0.214338 38.5002L0.237417 38.4781C0.240192 38.4753 0.242338 38.4732 0.244077 38.4714C0.253696 38.4647 0.26339 38.4579 0.273601 38.4522L0.254295 38.4657C0.2396 38.4771 0.273693 38.4585 0.292812 38.4498L0.298834 38.4471L0.300758 38.4467L0.316075 38.4454C0.344415 38.4438 0.372904 38.4439 0.401318 38.4439C0.556117 38.4437 0.704405 38.298 0.697301 38.1264C0.690049 37.9545 0.567216 37.8088 0.401318 37.809ZM4.70624 35.7948C5.02663 35.5841 4.74046 35.0452 4.41915 35.2392L4.40752 35.2466C4.24281 35.355 4.04021 35.3403 3.85359 35.3404C3.47273 35.3406 3.47207 35.9755 3.85359 35.9753L3.91665 35.9751C4.19022 35.9728 4.46693 35.9523 4.70624 35.7948ZM2.18484 33.4774C1.94278 33.4286 1.67163 33.385 1.41695 33.4147L1.37466 33.4204H1.2963C1.22822 33.4204 1.16229 33.4497 1.10938 33.4959C1.02562 33.5332 0.946297 33.5832 0.873929 33.6505C0.585567 33.9186 1.00579 34.3661 1.29252 34.0995C1.30845 34.0847 1.32693 34.0724 1.34747 34.0624L1.36326 34.0553H1.67989C1.70868 34.0553 1.73672 34.0489 1.76402 34.0396C1.8668 34.0547 1.96255 34.0766 2.02745 34.0897C2.3998 34.1648 2.55933 33.553 2.18484 33.4774ZM1.91453 27.3838C1.45058 27.153 0.936751 27.1547 0.50765 27.4751C0.200816 27.7043 0.485833 28.2448 0.795308 28.0313L0.806371 28.0234C0.844848 27.9947 0.884362 27.9706 0.92432 27.9488C1.14216 28.0163 1.36143 28.0195 1.57204 27.9365L1.59946 27.9251L1.61581 27.932C1.95915 28.1028 2.26017 27.5557 1.91453 27.3838ZM6.96675 26.389C6.49806 26.3326 6.49428 25.5385 6.96675 25.5953C7.96428 25.7153 8.8694 26.191 9.53233 27.0078C9.84067 27.3877 9.33289 27.9435 9.01876 27.5805L9.0091 27.569C8.48196 26.9195 7.77056 26.4856 6.96675 26.389ZM1.71607 22.3118C1.61189 22.2996 1.50792 22.2935 1.40559 22.2988C1.15977 22.3115 0.860388 22.4874 0.968273 22.8051C1.05477 23.0597 1.33833 23.0698 1.47833 22.934C1.53656 22.9355 1.59472 22.9397 1.65266 22.946C1.80724 22.9631 1.96033 22.9947 2.11269 23.0269C2.48482 23.1054 2.64413 22.4936 2.27008 22.4146L2.10464 22.3795C2.04889 22.3678 1.99263 22.3563 1.93614 22.3459C1.90233 22.3278 1.86608 22.3157 1.82734 22.3126L1.80776 22.3118H1.71607ZM-1.22489 17.386L-1.25965 17.381C-1.75949 17.3124 -2.56186 17.3755 -2.62252 18.0579C-2.65604 18.4359 -2.14695 18.4596 -2.04646 18.1364C-1.67737 18.0651 -1.30525 18.0514 -0.938672 18.0947C-0.79882 17.9424 -0.79771 17.6494 -1.0305 17.5763C-1.06335 17.4816 -1.13195 17.4004 -1.22489 17.386ZM10.2004 16.2334C10.0849 16.1197 9.89549 16.1046 9.78184 16.2334C9.71635 16.3075 9.66167 16.3899 9.61838 16.4805L9.58957 16.5417C9.58469 16.5519 9.5797 16.562 9.5745 16.572C9.56481 16.5905 9.55393 16.6081 9.54335 16.626L9.53622 16.6335C9.53339 16.6366 9.53006 16.6403 9.52611 16.6448C9.41963 16.7655 9.40608 16.9756 9.52611 17.0938C9.64161 17.2075 9.83097 17.2226 9.9447 17.0938C10.0101 17.0197 10.0648 16.9374 10.1082 16.8467L10.1369 16.7855C10.1418 16.7754 10.1468 16.7653 10.152 16.7553C10.1617 16.7367 10.1726 16.7191 10.1831 16.7012L10.1949 16.6886C10.1966 16.6867 10.1984 16.6846 10.2004 16.6824C10.3069 16.5617 10.3204 16.3516 10.2004 16.2334ZM4.13085 15.4067C3.71381 15.0897 3.21789 15.0749 2.83452 15.4563C2.55785 15.7315 2.96434 16.1725 3.24332 15.9146L3.25311 15.9052C3.26325 15.8951 3.27354 15.8862 3.28375 15.8777C3.33377 15.9234 3.39733 15.9524 3.47 15.9524C3.48899 15.9525 3.50795 15.9524 3.5269 15.9529L3.55531 15.954L3.57056 15.9553L3.57248 15.9557L3.58579 15.9618C3.61014 15.9735 3.64373 15.9917 3.59764 15.9608C3.60792 15.9666 3.61754 15.9734 3.62731 15.9801L3.64433 15.9966C3.75592 16.1098 3.94897 16.1247 4.05974 15.9996C4.25591 15.9285 4.36002 15.5807 4.13085 15.4067ZM8.20822 14.3666L8.21579 14.364C8.58148 14.252 8.42601 13.6393 8.0584 13.7517C7.66837 13.8712 7.48212 14.2605 7.40413 14.6592C7.37135 14.8269 7.45001 15.0024 7.61087 15.0497C7.75783 15.093 7.942 14.9966 7.97501 14.828C7.99815 14.7095 8.02483 14.6089 8.06708 14.5156L8.09264 14.4623C8.1046 14.438 8.10877 14.434 8.14912 14.3962C8.15589 14.3898 8.1867 14.3744 8.20822 14.3666ZM2.01435 11.1689L1.95716 11.1549C1.6009 11.0712 1.12806 11.0275 0.912924 11.4063C0.716836 11.7513 1.2115 12.0655 1.41521 11.7393C1.41832 11.7392 1.42188 11.7392 1.42604 11.7396L1.43274 11.7404L1.52406 11.7324C1.63779 11.7316 1.74663 11.7532 1.85696 11.7812C2.22739 11.8752 2.38551 11.2632 2.01435 11.1689ZM14.8035 8.72808C15.0732 8.43879 14.6548 7.98967 14.385 8.27919C14.1716 8.508 13.9659 8.7384 13.8272 9.02911C13.7544 9.18165 13.79 9.37355 13.9334 9.46348C14.0656 9.54641 14.2652 9.50276 14.3383 9.34959C14.4585 9.0976 14.6102 8.93554 14.8035 8.72808ZM11.4001 7.96871C11.1337 8.13792 10.9612 8.41665 10.8565 8.73927C10.8039 8.90117 10.9163 9.08649 11.0632 9.12975C11.2211 9.17626 11.3653 9.07709 11.4221 8.92307L11.4273 8.908C11.4553 8.82173 11.5002 8.71982 11.5556 8.64292C11.6029 8.57728 11.6766 8.51157 11.7321 8.48974C11.8655 8.43721 11.96 8.30752 11.9477 8.15609C11.7283 8.23744 11.5246 8.13959 11.4001 7.96871ZM3.4236 6.58776C3.15477 6.32014 2.79412 6.28467 2.46824 6.44665C2.32314 6.51871 2.2868 6.74308 2.36206 6.88101C2.44908 7.04062 2.62141 7.06728 2.76696 6.9949C2.72959 7.01347 2.79708 6.98895 2.82623 6.97998C2.82996 6.98184 2.87882 6.97945 2.89568 6.97971L2.91595 6.98108C2.91612 6.98123 2.91114 6.98113 2.90104 6.98078C2.91525 6.98422 2.92929 6.98833 2.94313 6.99306L2.96076 6.99961C2.95188 6.99762 2.99187 7.02558 3.00299 7.03486L3.00501 7.03665C3.28397 7.31435 3.7036 6.86641 3.4236 6.58776Z" fill="black"/>
</g>
<defs>
<clipPath id="clip0_5_176">
<rect width="35" height="45" fill="white"/>
</clipPath>
</defs>
</svg>
