<svg width="39" height="44" viewBox="0 0 39 44" fill="none" xmlns="http://www.w3.org/2000/svg">
<path fill-rule="evenodd" clip-rule="evenodd" d="M33.4149 17.4851C34.353 16.8509 32.9541 14.7645 32.4789 14.1437C32.0655 13.3338 31.6521 12.5239 31.2386 11.714C31.2888 11.0498 30.5997 10.4588 29.9187 10.6609C29.3263 10.261 28.3341 10.4525 28.033 11.0786C21.4824 8.3934 10.148 9.51047 9.56181 17.7961C8.29468 20.1552 7.03876 22.5345 5.91452 24.9573C4.35469 25.0361 3.5986 26.8196 4.52726 27.9722C4.65086 29.8439 5.91164 29.992 7.59482 29.9088C8.27077 30.0763 8.97145 30.1671 9.47837 30.6584C9.86367 31.029 10.1255 31.4988 10.3783 31.9547C11.5445 34.0582 13.0263 35.8778 15.0348 37.3329C18.1584 39.533 22.3867 41.1126 26.2816 40.0416C34.6552 36.9467 36.2996 24.5781 33.4149 17.4851Z" fill="white"/>
<path fill-rule="evenodd" clip-rule="evenodd" d="M15.9398 5.43141C21.4105 4.23558 27.5565 5.84037 31.3534 9.79417C31.6206 10.072 31.5917 10.4336 31.3567 10.668C31.4664 10.7518 31.5736 10.8379 31.6824 10.924C31.7962 11.0148 31.7797 11.1972 31.6824 11.2895C31.5859 11.3803 31.3856 11.399 31.294 11.2895L31.1586 11.1291C31.0911 11.0489 31.0244 10.9684 30.9601 10.886C30.8818 10.9132 30.8051 10.9419 30.7284 10.9698C31.8885 11.6954 32.8557 12.6592 33.5186 13.8193C34.2359 15.0742 34.6936 16.4136 34.9912 17.8073C35.5218 20.2935 35.5988 22.8433 35.5278 25.3715L35.5239 25.5069C35.4323 28.5543 35.1165 31.6522 33.7511 34.4543C32.6562 36.7001 30.7103 38.7651 28.2705 39.7483C26.8655 40.314 25.355 40.5554 23.8288 40.4545C23.0241 40.4017 22.2218 40.2822 21.4385 40.0998L21.2503 40.0558C20.5368 39.8876 19.7967 39.6927 19.1876 39.3083C18.5626 38.9133 18.9839 38.1288 19.6732 38.2242C20.5035 38.3398 21.2942 38.6658 22.1179 38.8349C22.9235 39.001 23.7389 39.0879 24.5643 39.0654C26.0245 39.0266 27.3545 38.6045 28.5616 37.8378C33.1764 34.9052 33.7371 29.009 33.8575 24.2443C33.916 21.9163 33.8253 19.558 33.2564 17.2835C32.7098 15.0967 31.769 12.9432 30.4374 11.0754C30.1438 11.1786 29.8503 11.2647 29.5378 11.2919C28.9808 11.607 28.3183 11.6154 27.6743 11.6155L27.5845 11.6155C26.9142 11.6147 26.2438 11.5774 25.5768 11.5208C23.2162 11.3237 20.7871 10.8239 18.4141 11.1421L18.3172 11.1554C17.3402 11.2937 16.1294 11.584 15.4121 12.2456C14.637 12.9595 15.1565 14.3106 15.7699 14.7397C16.1665 15.0175 16.2902 15.643 15.7699 15.8952C14.7425 16.3942 12.2558 16.1171 11.9763 16.3934C11.6407 16.7236 11.6642 17.2269 11.6546 17.6554L11.6539 17.6839C11.6192 18.9038 11.6514 20.1198 11.7611 21.3366C11.8666 22.513 12.1065 23.6918 12.1601 24.8713C12.1783 25.2601 11.6794 25.3781 11.4065 25.1647C11.3529 25.1228 11.2977 25.0832 11.2424 25.0475C10.7469 24.7169 10.1837 24.5772 9.57937 24.4888C9.54763 24.484 9.52283 24.4692 9.50497 24.4494L9.49774 24.4407L9.43343 24.4903C9.55876 24.637 9.66595 24.8031 9.75087 24.9893C9.76819 25.0265 9.73108 25.0739 9.68738 25.049C8.85132 24.5811 7.94104 24.3825 6.97882 24.5718C6.11307 24.7417 5.32977 25.2586 5.07582 26.0858C4.84248 26.8471 5.01398 27.7247 5.53755 28.351C6.31178 29.2791 7.56918 29.1953 8.69713 29.238C8.9181 29.2465 9.16464 29.3474 9.2677 29.5461C9.38891 29.7804 9.38066 29.9403 9.2677 30.1738C9.25204 30.2072 9.23142 30.2375 9.20751 30.2646C9.30302 30.339 9.39337 30.4204 9.48144 30.5034L9.77595 30.7825C9.97741 30.974 10.1777 31.1671 10.3709 31.365C10.9382 31.947 11.4717 32.5663 11.9738 33.1987L12.0202 33.2578C12.6083 34.0151 13.2184 35.1086 14.2379 35.3475C14.5875 35.4298 14.9124 35.592 15.0163 35.9482C15.1202 36.3044 14.8753 36.6497 14.5463 36.7987C13.9757 37.0571 13.2518 36.7498 12.781 36.4239C11.7657 35.7199 11.1023 34.5716 10.4787 33.5607L10.308 33.2844C9.9868 32.7628 9.67306 32.235 9.4054 31.6871C9.25286 31.3743 9.08878 31.0639 8.94696 30.7465C8.90573 30.6542 8.86451 30.5603 8.83235 30.4641C8.787 30.4734 8.74083 30.4796 8.69713 30.4819C7.33584 30.5657 5.76842 30.3624 4.78476 29.3901C3.42842 28.0499 3.26929 25.6536 4.81032 24.3747C4.97275 24.2397 5.1558 24.1209 5.35368 24.0193C5.07829 23.5808 4.89607 23.0725 4.76168 22.5953C4.56544 21.8984 4.45578 21.1884 4.40136 20.4698C4.2917 19.0039 4.47392 17.5116 4.84825 16.0876C6.20542 10.9264 10.3726 6.6482 15.9398 5.43141ZM6.08092 26.8486C5.81155 25.3782 8.93788 26.4655 9.61966 26.568L9.63957 26.5708C10.4216 26.673 9.98573 27.9639 9.2161 27.5794L9.19268 27.5672C8.77635 27.3427 8.31836 27.1817 7.88173 26.9915L7.78851 26.9503C7.44139 26.7935 6.29448 26.0897 6.16997 26.8486C6.16338 26.8905 6.08834 26.8897 6.08092 26.8486Z" fill="black"/>
</svg>
