<svg width="39" height="43" viewBox="0 0 39 43" fill="none" xmlns="http://www.w3.org/2000/svg">
<g clip-path="url(#clip0_5_290)">
<path fill-rule="evenodd" clip-rule="evenodd" d="M33.6829 20.8512C33.117 14.5055 31.3937 8.88516 23.2965 8.64551C19.6424 8.67554 15.9123 9.38955 12.552 10.7106C4.38461 14.4772 1.79321 28.2403 8.98892 33.7806C8.94613 33.8029 8.93582 33.8676 8.98636 33.8989C10.473 34.8188 12.1254 35.5756 13.7804 36.2116C18.1888 37.9259 23.3784 38.6704 27.8743 36.811C34.7354 34.1257 34.8383 26.6538 33.6829 20.8512Z" fill="white"/>
<path fill-rule="evenodd" clip-rule="evenodd" d="M47.1882 17.8934C47.4701 17.6598 47.6804 17.3534 47.7868 17.0098C47.8841 16.6966 47.8906 16.3546 47.7876 16.0422C47.6771 15.707 47.4388 15.44 47.4924 15.0912C47.4982 15.057 47.5056 15.0214 47.5171 14.9857C47.7233 14.329 48.2304 13.855 48.049 13.127C47.9978 12.9214 47.9014 12.7364 47.767 12.5908C47.7818 12.433 47.795 12.2738 47.8057 12.1145C48.1034 11.4737 48.0927 10.7123 47.7752 10.0813C47.7365 9.75824 47.6779 9.4382 47.5955 9.12348C47.6334 8.84515 47.5806 8.53877 47.4833 8.29533C47.3124 7.867 47.1012 7.44489 46.872 7.02975C46.8989 6.91622 46.8868 6.79625 46.8187 6.68954C46.6948 6.49562 46.5312 6.32514 46.3639 6.15853C46.2456 5.96415 46.1264 5.77137 46.0083 5.5811C45.9535 5.49366 45.8931 5.39666 45.8264 5.2939C46.008 4.98403 46.105 4.68204 45.9129 4.31764C45.8408 4.18075 45.6424 4.07981 45.4791 4.08876C45.3006 4.09854 45.1204 4.1059 44.9393 4.1122C44.6007 3.73619 44.2171 3.39864 43.806 3.20434C43.3896 2.87976 42.9674 2.56124 42.5568 2.23589C42.4405 2.14337 42.3235 2.05085 42.2072 1.95833C42.2064 1.95605 42.2056 1.95302 42.2047 1.95074C42.119 1.66332 42.0225 1.37969 41.926 1.09454C41.8658 0.917835 41.8477 0.732791 41.6605 0.636477C41.2697 0.435507 40.6686 0.403655 40.2201 0.369528C40.1756 0.333126 40.131 0.297482 40.0865 0.26108C40.2902 -0.237932 40.2539 -0.768038 39.9975 -1.26781C39.9101 -1.43769 39.6066 -1.51428 39.4401 -1.40204C39.0559 -1.14268 38.5999 -1.05091 38.1489 -1.08883C37.486 -1.55751 34.812 -3.67687 34.3989 -3.90059C34.3938 -3.90863 34.3896 -3.91667 34.3842 -3.92463C34.1519 -4.26575 33.8699 -4.53968 33.5527 -4.7593C33.5075 -4.80276 33.4622 -4.84629 33.4169 -4.88982C33.4568 -5.14987 33.5616 -5.40097 33.7303 -5.61104C33.7484 -5.6353 33.769 -5.65881 33.7896 -5.68157C34.0848 -6.00463 33.7245 -6.42022 33.3122 -6.25111C33.2826 -6.23897 33.2529 -6.22684 33.2232 -6.21395C32.9062 -6.08396 32.5556 -5.94267 32.1904 -5.82346C32.0567 -5.86949 31.9205 -5.9112 31.7963 -5.95716L30.4658 -6.44912C30.2468 -6.53011 30.0153 -6.59875 29.8035 -6.69392C29.7296 -7.14584 29.2372 -7.44221 28.7258 -7.42674C28.7553 -7.5135 28.7994 -7.59776 28.8614 -7.67762C28.8796 -7.70112 28.8994 -7.72388 28.92 -7.74587C29.183 -8.02723 28.8318 -8.54899 28.4558 -8.29873C28.4294 -8.28128 28.4022 -8.26384 28.3758 -8.2464C28.2713 -8.17898 28.1644 -8.11573 28.0563 -8.05445C27.8832 -8.12392 27.6883 -8.13977 27.4843 -8.06628C27.0327 -7.90361 26.6163 -7.73821 26.2186 -7.48324C26.2024 -7.47285 26.1857 -7.46413 26.1694 -7.45435C25.972 -7.67367 25.6586 -7.82034 25.3763 -7.81875C25.3706 -7.81875 25.3661 -7.81882 25.361 -7.8189C25.15 -8.11459 24.7632 -8.28644 24.3897 -8.24465C24.415 -8.66897 23.9531 -9.04762 23.5327 -9.09366C23.0415 -9.14735 22.5987 -8.88503 22.4513 -8.44426C22.4102 -8.32155 22.3692 -8.19877 22.3282 -8.07599C21.9467 -8.25307 21.5442 -8.38875 21.1237 -8.45647C20.1662 -8.61072 19.2299 -8.44646 18.3072 -8.20196C18.215 -8.17754 18.1229 -8.15244 18.0308 -8.12741C17.8992 -8.26763 17.7758 -8.41119 17.6578 -8.5452C17.4542 -8.7765 16.9652 -8.59146 16.9982 -8.29418C17.0211 -8.08903 16.9305 -7.94145 16.7846 -7.83657C16.6244 -7.81503 16.4696 -7.80851 16.2361 -7.81283C15.9275 -7.8186 15.787 -7.82747 15.4643 -7.9432C15.3139 -7.99704 15.1267 -8.13863 15.039 -8.26574C14.703 -8.75315 13.8496 -8.88442 13.4431 -8.41969C13.0153 -8.59191 12.4753 -8.35439 12.2378 -8.01949C12.1135 -7.84438 11.8543 -7.74648 11.528 -7.6623C11.283 -7.5992 11.0325 -7.55142 10.7809 -7.50963C10.6687 -7.64955 10.4326 -7.74337 10.2594 -7.62605C10.142 -7.54634 10.0281 -7.46451 9.91569 -7.38063C9.04912 -7.27082 8.18708 -7.26688 7.36082 -7.57766C6.66129 -7.84082 6.01899 -7.1221 6.13442 -6.51874C5.93184 -6.42174 5.71202 -6.3572 5.51191 -6.25558C5.07532 -6.03368 4.71682 -5.68293 4.49832 -5.27083C4.45916 -5.19704 4.42378 -5.12211 4.39006 -5.0468C4.22689 -4.92463 4.06553 -4.79919 3.90804 -4.66686C3.64584 -4.79047 3.38447 -4.91409 3.12227 -5.0377C2.92603 -5.13022 2.5954 -5.06576 2.55665 -4.82612C2.49316 -4.43176 2.33897 -4.1049 2.11882 -3.83112C1.40314 -3.4853 0.714661 -3.09702 0.0558657 -2.6655C-0.701872 -2.44709 -1.50743 -2.31968 -2.16953 -2.17634C-2.39627 -2.12705 -2.51995 -1.85479 -2.39215 -1.67354C-2.25693 -1.48167 -2.1217 -1.2898 -1.98731 -1.09793C-2.36411 -0.759696 -2.71783 -0.406292 -3.05177 -0.0407546C-3.98101 0.975471 -4.75853 2.08953 -5.45443 3.26956C-5.72982 3.37194 -6.00521 3.47357 -6.2806 3.57595C-6.5461 3.67454 -6.66566 3.95817 -6.45046 4.16672C-6.34822 4.26607 -6.25669 4.37073 -6.17836 4.48069C-6.56836 5.0745 -7.02762 5.61598 -7.66993 5.9709C-7.86534 6.07859 -8.01211 6.24771 -8.09044 6.43958C-8.15722 6.48053 -8.22318 6.52452 -8.28832 6.56926C-8.46972 6.69515 -8.57938 6.96969 -8.36665 7.13274C-8.21741 7.24801 -8.07724 7.38452 -7.95851 7.53544C-7.93295 7.62113 -7.90657 7.70759 -7.88018 7.79328C-8.47714 8.29836 -8.9735 8.88535 -9.34619 9.54362C-9.43441 9.53073 -9.52511 9.53907 -9.59849 9.58912C-10.2647 10.0419 -10.2845 10.7631 -10.0165 11.4077C-10.1781 12.3792 -10.0742 13.3749 -9.76257 14.3161C-10.1724 14.6922 -10.4189 15.2352 -10.5195 15.7585C-10.6968 16.6777 -10.7091 18.0913 -10.7553 19.0294C-11.2022 19.426 -11.5205 19.9395 -11.6977 20.4916C-11.847 20.5598 -11.9962 20.6281 -12.1454 20.6963C-12.2782 20.757 -12.3755 20.917 -12.3677 21.052C-12.3293 21.705 -12.0366 22.2207 -11.6483 22.6878C-11.5106 23.048 -11.3069 23.3802 -11.0398 23.6987C-10.8551 23.9171 -10.6745 24.1265 -10.5154 24.3623C-10.4989 24.3858 -10.489 24.4078 -10.4816 24.423C-10.5442 24.4852 -10.5962 24.5883 -10.6415 24.6619C-11.0224 25.2792 -11.0282 26.0027 -10.4873 26.5404C-10.691 26.6936 -10.6976 27.003 -10.5178 27.1926C-9.34784 28.4219 -8.37242 29.9167 -6.74893 30.5696C-6.74151 30.581 -6.73492 30.5924 -6.72915 30.6038C-7.05813 31.3318 -7.10266 31.7102 -6.83386 32.4625C-6.83221 32.4694 -6.82974 32.4754 -6.82726 32.4823C-6.6838 32.8766 -6.41995 33.5083 -5.9442 33.6312C-5.79414 33.6699 -5.64655 33.6873 -5.5006 33.6866C-5.12297 34.021 -4.74616 34.3562 -4.36936 34.6914C-4.33638 34.8575 -4.31576 35.0251 -4.30917 35.1942C-4.29845 35.4771 -4.00904 35.7061 -3.69737 35.6227C-3.58771 35.5931 -2.98086 35.0509 -2.86955 35.0539C-2.81348 35.1055 -2.75906 35.1571 -2.70464 35.2094C-2.50428 35.4028 -2.22642 35.7076 -2.20333 35.9101C-2.15881 36.2916 -1.88671 36.7284 -1.44724 36.8058C-1.28234 36.9597 -1.01849 37.006 -0.816481 36.805C-0.803289 36.7921 -0.790097 36.7792 -0.77608 36.7679C-0.754643 36.7656 -0.734029 36.7633 -0.712592 36.761C-0.615298 37.028 -0.518004 37.2949 -0.419885 37.5611C-0.227771 38.0859 0.506056 38.4234 1.02716 38.117C1.11126 38.1633 1.19371 38.2126 1.27616 38.2619C1.40149 38.3354 1.52847 38.4105 1.65874 38.481C1.66616 38.5007 1.67358 38.5205 1.68018 38.5394C1.76428 38.7753 2.11388 38.9019 2.32908 38.7662C2.39587 38.7859 2.4643 38.8018 2.53356 38.8147C2.89718 38.8807 3.26326 38.8625 3.61451 38.751C3.86599 38.6721 4.10593 38.5212 4.37637 38.5007C4.39328 38.4995 4.41067 38.5005 4.42782 38.5001C4.64847 38.9158 5.15266 39.2741 5.55 39.3958C6.07044 39.5553 6.60308 39.4982 7.07702 39.303C7.2049 39.5381 7.36552 39.7608 7.55739 39.9667C7.66375 40.0804 7.85587 40.0562 7.96553 39.9667C8.1738 39.7969 8.38076 39.6262 8.58738 39.4554C8.73695 39.4024 8.88792 39.3387 9.04541 39.2796C9.53798 39.0946 10.078 39.0179 10.5335 38.7505C10.7498 38.6235 10.9532 38.4615 11.1207 38.2738C11.4364 38.1062 11.7263 37.8975 11.9876 37.6582C12.1178 37.6589 12.2539 37.6309 12.3858 37.5695C12.9374 37.3116 13.2276 36.7868 13.2532 36.2499C13.7001 35.2829 13.9639 34.2516 14.0365 33.1959C14.0596 32.8493 14.0637 32.4997 14.0349 32.1531C14.0151 31.9089 13.9483 31.7459 13.8477 31.5252C13.8139 31.4531 13.7834 31.3872 13.7595 31.3144C13.7652 31.0808 13.7685 30.8472 13.7718 30.6144C13.8403 30.418 13.9623 30.2352 14.1321 30.0812C14.3952 29.8431 14.5155 29.3486 14.2764 29.0544C14.1206 28.864 13.9656 28.6737 13.8098 28.4833C13.8535 27.6666 14.0662 26.3667 13.5946 26.2302C13.6135 26.1089 13.6539 25.989 13.677 25.8685C13.7875 25.2891 13.7215 24.7711 13.3868 24.2645C13.3167 24.1591 13.2573 24.0658 13.2087 23.9748C13.1782 23.8079 13.1477 23.6411 13.1172 23.4743C13.0702 23.2172 13.024 22.9578 12.9844 22.6969C12.9638 22.3647 12.9448 22.0326 12.9242 21.6997C12.9053 21.3933 12.8838 21.0869 12.8616 20.7797C12.8706 20.6425 12.8838 20.5052 12.9028 20.3679C13.0157 19.5497 13.3794 19.2471 14.0093 18.6783C14.1082 18.6639 14.2064 18.6479 14.3028 18.6297C14.7522 18.544 15.2222 18.4113 15.6847 18.4591C16.1869 18.5107 16.6362 18.7101 17.1243 18.4553C17.2678 18.3795 17.5836 18.1702 17.6108 18.0041C17.6125 17.9935 17.6149 17.9844 17.6182 17.9775C17.652 17.973 17.6957 17.9692 17.723 17.9684C18.1105 17.9563 18.4807 18.0966 18.8715 18.0579C19.3341 18.0124 19.748 17.8236 20.0201 17.5437C20.3688 17.6226 20.725 17.6583 21.087 17.6143C21.3904 17.5779 21.6625 17.4869 21.9313 17.3519C22.1267 17.2548 22.0649 17.2267 22.2776 17.3056C22.7616 17.4861 23.1994 17.7242 23.7445 17.6006C24.0273 17.5369 24.2713 17.3966 24.4766 17.2078C24.5253 17.1638 24.6077 17.0978 24.663 17.0356C24.9219 17.1562 25.5732 17.4285 25.6804 17.4527C25.9839 17.521 26.3054 17.5104 26.6006 17.4194C26.8175 17.3526 27.0829 17.1706 27.2734 17.1335C27.5199 17.0849 28.0674 17.4004 28.3618 17.5089C28.8779 17.6992 29.4246 17.7462 29.9473 17.5498C30.1271 17.4823 30.4767 17.2131 30.6111 17.2154C30.8296 17.4634 31.4397 18.8201 31.6228 19.3153C32.364 21.3174 32.5561 27.5687 32.214 29.1636C32.2008 29.2106 32.1868 29.2569 32.1727 29.3039C31.7522 30.691 31.3144 32.1016 30.6111 33.3938C29.9473 34.6118 29.0297 35.7084 27.7129 36.3735C26.3475 37.0636 24.7446 37.2449 23.2093 37.1516C22.2207 37.0924 21.2486 36.9097 20.2922 36.6806C19.7925 36.5616 19.297 36.4289 18.8039 36.2908C18.5887 36.2309 18.3702 36.1748 18.1591 36.105C17.7864 35.9814 17.591 35.9716 17.234 36.1301C16.9091 36.2741 16.8259 36.6996 16.9949 36.9673C17.2703 37.4041 17.7749 37.4345 18.2622 37.5619C18.7586 37.6916 19.2566 37.8159 19.7579 37.9274C20.7184 38.1398 21.6947 38.3028 22.6792 38.3779C24.442 38.5136 26.2584 38.3043 27.863 37.5968C28.0443 37.5164 28.2191 37.4307 28.3882 37.3382C28.3255 37.4185 28.262 37.4989 28.1977 37.5786C28.0196 37.7992 28.1515 38.1746 28.4014 38.2952C28.4805 38.3331 28.5597 38.3695 28.6397 38.4052C28.6504 38.4287 28.6619 38.4522 28.6751 38.4757C28.9035 38.8974 29.3817 39.1461 29.869 39.2538C30.4478 39.3812 31.0959 39.291 31.6846 39.275C32.2305 39.2599 32.7763 39.2447 33.3213 39.2295C33.4499 39.2265 33.5786 39.2227 33.7072 39.2189C34.3553 39.2007 35.0025 39.1833 35.6498 39.1651C36.2269 39.1492 36.1997 39.1901 36.7414 38.9778C36.983 38.8822 37.1809 38.7472 37.3475 38.5675C37.4513 38.525 37.5519 38.4765 37.6484 38.4211C37.9584 38.2437 38.2338 38.0055 38.4878 37.7431C38.919 37.8683 39.5234 37.7522 39.6075 37.254C39.7427 36.4569 40.869 36.1164 41.395 35.54C41.8197 35.0752 42.1231 34.4662 42.1074 33.8815C43.1777 33.4052 43.7598 32.1501 43.8958 31.0853C43.9593 30.5916 43.9494 30.063 44.0409 29.561C44.0813 29.5208 44.1176 29.4783 44.1481 29.4328C44.4169 29.0332 44.6511 28.6214 44.8572 28.1997C45.1376 28.0139 45.4748 27.8994 45.8277 27.8804C46.6951 27.8342 46.8583 26.758 46.0313 26.4987C46.0272 26.4971 46.0239 26.4964 46.0198 26.4949C46.2441 25.9792 46.2251 25.3687 45.953 24.8803C45.9646 24.8272 45.9753 24.7749 45.986 24.7218C46.4502 24.263 46.7165 23.6252 46.6868 23.0041C46.8987 22.8668 47.1362 22.7606 47.3959 22.6946C47.7975 22.593 47.8 22.1425 47.5031 21.9408C47.3836 21.8597 47.2846 21.7649 47.2022 21.6602C47.4075 21.0929 47.3267 20.437 46.907 19.9713C47.1733 19.6573 47.4396 19.3434 47.706 19.0294C47.8824 18.8216 47.9756 18.469 47.706 18.2718C47.5336 18.1451 47.3613 18.0192 47.1882 17.8934Z" fill="black"/>
</g>
<defs>
<clipPath id="clip0_5_290">
<rect width="39" height="43" fill="white"/>
</clipPath>
</defs>
</svg>
