<svg width="34" height="44" viewBox="0 0 34 44" fill="none" xmlns="http://www.w3.org/2000/svg">
<g clip-path="url(#clip0_5_298)">
<path fill-rule="evenodd" clip-rule="evenodd" d="M28.165 13.0043C26.0046 9.79422 22.0268 8.87107 18.5772 9.65182C11.8333 10.979 5.39023 16.5334 4.19863 24.0875C2.33958 28.6575 3.52674 35.8557 8.93335 36.3935C9.7031 36.4404 10.4655 36.2491 11.2366 36.3524C15.9428 37.1639 21.5041 40.638 25.67 36.541C25.8788 36.7025 26.1539 36.7806 26.388 36.6829C28.1611 35.9431 28.2444 33.8031 28.3956 32.0439C28.5909 29.7709 28.774 27.4967 28.9449 25.2215C29.0059 21.2978 30.4465 16.3947 28.165 13.0043Z" fill="white"/>
<path fill-rule="evenodd" clip-rule="evenodd" d="M15.0902 4.82443C17.9296 4.66146 23.1612 6.06543 25.6382 7.71143C29.6741 10.3933 29.987 15.7429 29.8224 16.668C29.7598 17.021 29.56 17.3477 29.2473 17.2391C29.5126 19.6695 29.4917 21.0586 29.5363 23.5031L29.5669 25.1351C29.5868 26.2231 29.6038 27.3112 29.6082 28.3997C29.7102 28.3586 29.8109 28.409 29.8482 28.5146C29.8576 28.5402 29.8252 28.5542 29.8094 28.5394C29.6297 28.3702 29.7577 28.7558 29.8195 28.8343C29.905 28.9422 30.0474 29.0438 30.1473 29.1362L30.4186 29.3898L30.69 29.6429C31.0405 29.9694 31.3796 30.2966 31.7066 30.6483L31.7955 30.7449C32.3914 31.3983 33.1383 32.0306 33.5092 32.8758C33.8636 33.6828 33.7543 34.5977 33.1656 35.241C32.9514 35.4746 32.7012 35.6531 32.4295 35.7882C32.9133 36.648 32.9837 37.7849 32.4791 38.6694C31.9738 39.5573 31.0019 40.0221 30.066 39.9507C30.0373 40.0772 29.9927 40.2006 29.9338 40.3177C29.5627 41.0539 28.8245 41.1495 28.1245 41.1101L28.0972 41.1085C26.5216 41.0107 25.0056 40.5847 23.6255 39.7567C23.1467 39.7916 22.7197 39.3671 22.6263 38.9015C22.3747 38.8914 22.1217 38.8689 21.8636 38.837C21.0981 38.7417 20.3131 38.564 19.6382 38.1441C19.5347 38.0797 19.5828 37.9098 19.6978 37.9066C20.5202 37.8864 21.3432 37.9478 22.1641 37.8516C22.9174 37.7638 23.7203 37.5396 24.4226 37.2347C25.6849 36.6852 26.7674 35.7532 27.3647 34.4619C28.1382 32.7903 28.0677 30.7829 28.1518 28.967C28.245 26.957 28.3597 24.9488 28.4823 22.9409L28.5418 21.9784C28.6609 20.1023 28.7595 19.0987 29.0611 17.1514C28.1518 17.2391 24.3745 15.7714 23.1999 13.3706C20.9705 18.4779 9.67531 16.3877 9.17438 24.2504C9.17013 24.3171 9.0723 24.2985 9.06871 24.2348L9.05939 24.0556C9.05488 23.9671 9.05079 23.8799 9.04801 23.7934L9.04571 23.7072L8.86816 23.7095C8.86816 23.7335 8.83653 23.7421 8.82862 23.7165C8.66114 23.2035 7.86325 23.3688 7.51607 23.4907C7.20338 23.6008 6.90867 23.77 6.64414 23.9788C6.11294 24.3978 5.70106 24.962 5.56448 25.6673C5.30499 27.0068 6.09497 28.371 7.14372 29.0174C7.80503 29.4249 8.5296 29.6879 9.16359 30.1496C9.72355 30.5571 10.2454 31.0343 10.6975 31.5767C12.4888 33.7255 13.5426 36.9848 12.6951 39.8211C12.6304 40.0376 12.4594 40.2851 12.2329 40.3201C11.8584 40.3783 11.4839 40.3193 11.274 39.9344C11.1921 39.7839 11.1533 39.6124 11.1619 39.4432C11.0167 39.9817 10.5459 40.5141 10.1117 40.7143C9.52013 40.9875 8.85378 40.9059 8.33192 40.5536L8.26599 40.6063C7.41731 41.2806 6.46926 41.8953 5.3819 41.7712C4.59408 41.6812 3.82063 41.2482 3.38503 40.5653C2.80567 40.9168 2.18676 41.1969 1.54846 41.3878L1.48052 41.408C0.602323 41.6661 -0.517868 41.9027 -1.33759 41.3785C-2.12469 40.8749 -2.38634 39.7752 -2.20161 38.8572C-2.17932 38.7479 -2.15129 38.6416 -2.11679 38.5384C-2.70909 38.5724 -3.30068 38.5112 -3.86279 38.3234C-4.43713 38.1317 -4.98486 37.763 -5.26017 37.1656C-5.5707 36.4896 -5.48803 35.7214 -5.25658 35.0331C-4.88639 33.9288 -4.29121 32.9463 -3.55011 32.0905C-2.83743 31.2667 -1.97777 30.5678 -1.08434 29.9853L-0.933723 29.888C-0.12948 29.3702 0.8404 28.7633 1.7907 28.8033C1.78782 28.7901 1.78566 28.7776 1.78423 28.7645C1.64046 27.6214 1.657 26.4558 1.62321 25.3034C1.5923 24.2434 1.55708 23.1834 1.53408 22.1226C1.4967 20.319 1.50892 18.5079 1.72672 16.7168C1.92008 15.1276 2.26799 13.5778 2.90271 12.1228C3.56905 10.5941 4.57252 9.28961 5.81175 8.26372C8.41243 6.11028 11.8477 5.01067 15.0902 4.82443ZM6.25669 26.0073C6.53991 25.4307 7.18469 25.2491 7.75039 25.3531C8.54325 25.499 9.08236 26.2471 9.54528 26.8904C10.0312 27.5647 9.01767 28.2003 8.75674 27.5469L8.69491 27.3926C8.48551 26.8745 8.23814 26.3281 7.81077 25.9902C7.35648 25.6317 6.7153 25.5789 6.3142 26.0554C6.28545 26.0903 6.23729 26.0453 6.25669 26.0073Z" fill="black"/>
</g>
<defs>
<clipPath id="clip0_5_298">
<rect width="34" height="44" fill="white"/>
</clipPath>
</defs>
</svg>
