<svg width="35" height="45" viewBox="0 0 35 45" fill="none" xmlns="http://www.w3.org/2000/svg">
<g clip-path="url(#clip0_5_132)">
<path fill-rule="evenodd" clip-rule="evenodd" d="M28.8236 12.832C24.374 9.67308 15.4599 10.0162 10.5618 11.9516C5.78261 13.5772 4.10934 18.107 3.31581 23.0009C2.35128 28.5011 2.48092 36.4299 9.41684 36.334C10.392 36.8397 11.4722 37.0591 12.4811 37.478C13.8621 37.9901 15.216 38.5845 16.6173 39.033C19.3772 39.9863 22.4483 39.9034 25.0664 38.5084C26.5128 37.759 27.1115 36.5919 28.0574 35.3484C30.8093 31.7305 32.194 26.5529 32.07 21.9526C31.8524 18.7133 31.3528 14.9635 28.8236 12.832Z" fill="white"/>
<path fill-rule="evenodd" clip-rule="evenodd" d="M34.454 26.1663C33.9974 23.1266 33.8709 20.0353 33.273 17.0194C32.7107 14.1814 31.6592 11.4996 29.8219 9.33611C28.1777 7.40039 26.0518 5.97896 23.7697 5.07817C19.3241 3.32341 14.211 3.72023 9.91034 5.76873C5.88497 7.68531 2.67429 11.2313 0.802939 15.4869C-0.412811 18.252 -1.02402 21.1917 -1.29558 24.2258C-1.59674 27.5964 -1.6293 31.002 -1.75213 34.3845C-1.76693 34.802 -1.78839 35.2194 -1.79357 35.637C-1.79949 36.094 -1.62708 36.4948 -1.48649 36.9202C-1.47687 36.9504 -1.46281 36.979 -1.44579 37.006C-1.55161 37.0202 -1.65742 37.0369 -1.76323 37.0552C-1.88163 37.075 -1.87645 37.2813 -1.76323 37.3059C-0.804989 37.5155 0.179895 37.5448 1.15442 37.5964C2.16446 37.6504 3.17598 37.6798 4.18751 37.7163C5.17387 37.752 6.16023 37.7877 7.1466 37.8234C7.66457 37.8425 8.18254 37.8615 8.70051 37.8798C8.94691 37.8885 9.19332 37.8981 9.44046 37.9067C9.5633 37.9116 9.68687 37.9154 9.8097 37.9202C9.9096 37.9234 10.0724 37.9917 10.0827 37.9131C10.1012 37.9251 10.1212 37.9352 10.1427 37.9425C10.1664 37.9559 10.1893 37.9718 10.2115 37.9893C10.3321 38.0782 10.5149 38.0671 10.637 37.9893C10.6481 37.9821 10.6599 37.9742 10.6718 37.9663C10.7628 37.9083 10.8264 37.8242 10.8619 37.729C11.3681 38.3845 12.2641 37.648 11.7462 36.9544C11.4679 36.5813 8.70051 27.4361 9.84596 20.4694L14.4396 19.8171C14.9995 19.7562 15.8004 19.6652 16.8423 19.544C17.0973 18.6515 17.2613 18.0615 17.3343 17.7742C17.3425 17.7425 17.3506 17.7099 17.3595 17.6782C17.469 17.8854 17.5793 18.0917 17.6903 18.298L18.2571 19.5337C23.8344 19.4337 27.3067 19.3885 28.6742 19.398C28.709 19.398 28.874 22.0726 28.7992 23.2504C28.6483 25.6155 28.4877 27.979 28.2642 30.3377C28.1216 31.848 27.7778 33.3292 27.2657 34.7213C26.4567 36.9202 24.1079 39.0103 21.8177 39.0103C20.3922 39.0103 17.1708 37.772 16.7017 37.5219C16.2325 37.2718 15.953 37.9544 16.3805 38.2274C17.2466 38.7804 19.6338 39.9536 21.8177 39.9536C24.9894 39.9536 27.3837 36.7258 27.6775 36.2631C30.5655 36.0933 33.5194 36.1718 36.4038 36.479C36.6457 36.5044 36.8544 36.1917 36.7767 35.9528C35.7408 32.7727 34.9527 29.4925 34.454 26.1663Z" fill="black"/>
</g>
<defs>
<clipPath id="clip0_5_132">
<rect width="35" height="45" fill="white"/>
</clipPath>
</defs>
</svg>
