<svg width="34" height="43" viewBox="0 0 34 43" fill="none" xmlns="http://www.w3.org/2000/svg">
<g clip-path="url(#clip0_5_286)">
<path fill-rule="evenodd" clip-rule="evenodd" d="M29.3329 19.1161C29.0661 16.8697 28.228 14.4846 27.3465 12.3904C25.3644 7.96251 20.8268 7.35288 16.7589 6.43995C12.7447 5.82339 8.49403 5.26666 4.54039 6.49683C2.31774 7.0713 1.44963 9.8641 1.80041 12.068C2.0006 13.4414 2.59312 14.7411 3.09838 16.0139C4.10264 18.6278 4.73979 21.4261 4.74087 24.2561C4.67194 26.1054 4.42452 28.2163 6.43893 28.9996C8.3558 30.0053 8.51775 32.7315 10.9179 34.2783C11.8885 36.3524 14.5322 36.5349 16.435 37.0161C17.6377 37.2589 18.8539 37.4376 20.0734 37.5531C23.6047 38.0305 26.4296 36.9509 28.2781 33.6321C29.5152 31.6123 30.4363 29.2802 30.2087 26.8323C29.9821 24.2545 29.6045 21.6903 29.3329 19.1161Z" fill="white"/>
<path fill-rule="evenodd" clip-rule="evenodd" d="M16.7896 1.05869C16.9911 0.817682 17.3017 0.900346 17.4901 1.09093C17.6128 1.12907 17.7317 1.1858 17.844 1.26088C18.0977 1.22652 18.3638 1.22652 18.6126 1.23616C18.673 1.20044 18.7377 1.16866 18.8082 1.14136C19.3113 0.947289 19.7569 1.04588 20.1244 1.3057C20.3015 1.129 20.5248 1.01812 20.8103 1.03488C21.0652 1.0499 21.2467 1.17639 21.4024 1.34301C21.5576 1.10693 21.8084 0.938492 22.121 0.915058C22.5578 0.882296 22.9777 1.06711 23.3258 1.35325C23.5285 1.10784 23.805 0.966779 24.1131 0.965414C24.3158 0.926585 24.5297 0.941905 24.723 1.00348C25.0036 1.0929 25.25 1.26042 25.4463 1.47785C25.7567 1.16419 26.1368 0.938492 26.575 0.971406C27.1421 1.01463 27.6122 1.45457 27.8307 1.99605C28.2146 2.15827 28.569 2.38965 28.8651 2.71954C28.8809 2.73691 28.896 2.75511 28.9118 2.77339C29.0714 2.8355 29.2216 2.92354 29.3539 3.0395C29.773 3.40739 29.8664 3.93977 29.7277 4.46146C29.7471 4.54496 29.7636 4.62989 29.7787 4.71476C30.1712 4.7777 30.5277 5.01667 30.7304 5.40571C31.0079 5.93961 30.9533 6.64331 30.6528 7.15302C30.5236 7.37226 30.3597 7.557 30.1755 7.71854C30.3837 8.21755 30.2838 8.81303 29.9481 9.21664C29.8663 9.3558 29.7659 9.48139 29.6529 9.59507C29.7776 10.111 29.5557 10.6433 29.113 10.919L29.0751 11.019C29.0687 11.0356 29.0623 11.0521 29.0556 11.0685C29.0507 11.0898 29.0447 11.1103 29.0387 11.131C29.0281 11.3141 28.971 11.4937 28.8576 11.663C28.6253 12.0099 28.3375 12.2361 28.1849 12.6411L28.1696 12.6836C28.104 12.8753 27.892 13.0105 27.7115 12.9513C28.714 15.1234 29.2396 17.5403 29.6005 19.9089C29.7804 21.0905 29.9192 22.2762 30.0319 23.4665L30.1423 24.6518C30.2394 25.7054 30.3259 26.7624 30.3265 27.8195C30.3279 30.2107 29.6795 32.5108 28.2879 34.4137C26.9717 36.2124 25.1093 37.5161 23.0053 38.0295C20.8331 38.5589 18.2849 38.3503 16.3369 37.1384C15.7625 36.7821 16.2657 35.925 16.8501 36.2118C17.9564 36.7548 19.0806 37.1582 20.3069 37.2485C21.5023 37.3371 22.7005 37.1794 23.8341 36.7668C25.7095 36.0836 27.3053 34.6525 28.331 32.8704C28.8364 31.9921 29.2022 31.0389 29.397 30.0317C29.6395 28.7763 29.603 27.4788 29.5139 26.2074L29.5077 26.1208C29.3316 23.6712 29.0994 21.2064 28.7242 18.7812C28.3926 16.6366 27.8826 14.5354 27.2205 12.4808C26.9611 12.2399 26.671 12.0406 26.3605 11.8892C24.0871 11.7891 21.8096 11.8183 19.5392 11.9838C17.6028 12.1259 15.6759 12.3662 13.7635 12.7164L13.5586 12.7544C13.1353 12.8339 12.6651 12.8794 12.2662 13.0593C11.924 13.214 11.7853 13.5113 11.6991 13.8767C11.482 14.8012 11.4489 15.8129 11.4123 16.7609C11.3763 17.6876 11.4575 18.622 11.3871 19.5456C11.3274 20.3184 11.1398 21.1094 10.5971 21.6684C10.3132 21.961 9.96384 22.121 9.63606 22.3432C9.42401 22.4866 9.33416 22.6345 9.36147 22.8999C9.42041 23.4808 9.86392 24.2126 9.36578 24.7101C9.27809 24.7974 9.12642 24.8087 9.04016 24.7101C8.83458 24.4744 8.55065 24.2945 8.30697 24.1042C8.2049 24.0254 8.28972 23.8722 8.40545 23.9267C8.55783 23.9989 8.7131 24.0838 8.87196 24.1581C8.52117 23.8532 8.02232 23.7038 7.60684 23.615C7.39767 23.5711 7.17771 23.5582 6.95991 23.5787C6.79889 23.6598 6.63428 23.7349 6.46967 23.8084C6.2605 23.901 6.04917 23.9851 5.8364 24.0648C5.09817 24.6995 4.74595 25.7317 4.89978 26.7411C4.98388 27.2985 5.22756 27.9045 5.68688 28.2298C6.23103 28.6151 6.95991 28.4497 7.5479 28.7357C8.09851 29.0033 8.43348 29.5441 8.68435 30.1038L8.78893 30.3368C9.02177 30.8527 9.26112 31.3549 9.57927 31.8245C9.94731 32.3682 10.398 32.8566 10.8897 33.2761C11.1282 33.4791 11.3824 33.6617 11.6452 33.828L11.717 33.8729C11.983 34.0375 12.1735 34.1944 12.1914 34.5425C12.1972 34.6638 12.1246 34.7746 12.0312 34.8375C11.6286 35.1067 11.2282 34.77 10.8933 34.5349C10.5317 34.2816 10.186 33.9965 9.86608 33.6856C9.25796 33.0956 8.73179 32.3949 8.32709 31.6341C8.01872 31.0548 7.84333 30.2395 7.35597 29.7906C7.05838 29.5167 6.63788 29.5145 6.26625 29.4644C5.9205 29.4175 5.59344 29.3416 5.28578 29.1619C4.03432 28.4285 3.68067 26.6532 3.97754 25.2813C4.02786 25.0499 4.0983 24.8247 4.18528 24.6078C3.71948 24.6897 3.19619 24.1816 3.38523 23.6689C3.39961 23.6302 3.41614 23.5939 3.43196 23.5566C3.12502 23.3435 2.88278 23.0205 2.76777 22.5981C2.70883 22.3796 2.7002 22.159 2.73111 21.9459C2.58232 21.8405 2.4594 21.6956 2.38033 21.5174C2.13306 21.3968 1.91382 21.2164 1.78299 20.9585C1.60185 20.6028 1.62485 20.2751 1.76287 19.9801C1.74346 19.9431 1.72477 19.9051 1.7068 19.8664C1.20003 19.5275 0.846375 18.9434 0.886629 18.2958C0.899568 18.0812 0.949885 17.8878 1.02752 17.7134C1.02105 17.6914 1.01458 17.6686 1.00883 17.6466C0.584726 17.4191 0.233944 17.0453 0.10887 16.5463C-0.0162037 16.0442 0.131154 15.5436 0.425868 15.1584C-0.00542148 14.8255 -0.264914 14.3606 -0.107493 13.6575C-0.0435187 13.3717 0.0851494 13.1115 0.259103 12.8923C0.258384 12.8856 0.256946 12.8788 0.255509 12.8719L0.215158 12.8388C-0.317273 12.3956 -0.62334 11.8307 -0.296542 11.1359C-0.149904 10.8236 0.0592719 10.6058 0.305107 10.4625L0.317327 10.4215C0.141217 10.0234 0.0815552 9.58126 0.203035 9.11638C0.302232 8.73347 0.537285 8.42853 0.83775 8.22612C0.817623 8.05465 0.820498 7.87196 0.852845 7.67395C0.906756 7.33958 1.06418 7.0476 1.2942 6.84056C1.30282 6.7965 1.31361 6.75335 1.32583 6.71005C1.40346 6.44545 1.54866 6.15802 1.71686 5.94484C1.85559 5.76814 2.01086 5.70368 2.20063 5.69686C2.18912 5.53388 2.19703 5.36848 2.22866 5.20088C2.3257 4.68374 2.63767 4.19754 3.09986 3.97686C3.28963 3.88661 3.48946 3.86014 3.6821 3.88206C3.846 3.51804 4.16587 3.2542 4.55906 3.19732C4.71217 3.17457 4.85449 3.17601 4.98532 3.19656C5.05936 3.16008 5.13627 3.12755 5.21678 3.0979C5.26997 3.07818 5.32388 3.05998 5.37779 3.04185C5.55965 2.80372 5.79902 2.61329 6.07864 2.49885C6.40139 2.36614 6.72989 2.37971 7.02101 2.49119L7.11373 2.47072C7.25893 2.20529 7.49039 1.99977 7.84621 1.90648C8.25018 1.80107 8.66494 1.9482 8.98265 2.21598C8.98409 2.21598 8.98553 2.21598 8.98769 2.21514C9.15373 1.82306 9.43767 1.55005 9.91424 1.56901C10.2111 1.58114 10.4792 1.73668 10.6862 1.95813C10.8013 1.94289 10.9163 1.92924 11.032 1.91566C11.1542 1.76467 11.2901 1.62369 11.4403 1.49704C11.6861 1.28917 12.006 1.30593 12.1871 1.59858C12.2267 1.66229 12.2633 1.72675 12.3 1.79121L12.466 1.77908C12.6616 1.50075 12.9282 1.31268 13.2934 1.29758C13.6284 1.2831 13.867 1.45608 14.0489 1.69793C14.1969 1.69414 14.3457 1.69118 14.4945 1.68883C14.6678 1.47724 14.8719 1.29068 15.1048 1.13597C15.2831 1.01767 15.5462 1.05794 15.6906 1.21568C15.7883 1.32291 15.8791 1.43485 15.9636 1.55073C16.1813 1.29319 16.4754 1.12354 16.7896 1.05869ZM6.21018 25.1409C6.54587 24.9392 6.99728 25.1576 7.32219 25.329C7.71826 25.5376 8.11145 25.8523 8.35369 26.2467C8.68363 26.7836 7.90802 27.2174 7.56084 26.7358C7.34735 26.4393 7.17699 26.1405 6.91821 25.8811C6.68172 25.643 6.33885 25.4837 6.20299 25.1698C6.19796 25.1591 6.1994 25.147 6.21018 25.1409ZM6.446 12.1082L6.45228 12.0892C6.54774 11.8137 6.13111 11.6949 6.03644 11.9682C5.89297 12.3823 6.05837 12.8326 6.4461 13.0114C6.55356 13.061 6.67633 13.0438 6.7411 12.9298C6.79551 12.8339 6.77028 12.6676 6.66375 12.6186C6.4456 12.5179 6.37252 12.3403 6.446 12.1082ZM2.85683 11.3377C3.06536 11.1436 2.75936 10.8227 2.55184 11.016C2.35819 11.1964 2.21457 11.4413 2.25188 11.7231C2.2899 12.0102 2.49512 12.2129 2.71975 12.3562C2.95783 12.5081 3.17484 12.1148 2.93741 11.9633L2.91074 11.946C2.81108 11.8807 2.69443 11.7909 2.67756 11.6625C2.65966 11.526 2.76914 11.4194 2.85683 11.3377ZM4.04054 7.91201L4.05531 7.90055C4.2793 7.73189 4.06416 7.33707 3.83759 7.50763C3.62985 7.66409 3.46323 7.86733 3.44569 8.14763C3.42865 8.42004 3.56005 8.6562 3.73185 8.84784C3.92298 9.06102 4.22761 8.73886 4.03684 8.52613C3.85096 8.31881 3.81462 8.09257 4.04054 7.91201Z" fill="black"/>
</g>
<defs>
<clipPath id="clip0_5_286">
<rect width="34" height="43" fill="white"/>
</clipPath>
</defs>
</svg>
