<svg width="36" height="45" viewBox="0 0 36 45" fill="none" xmlns="http://www.w3.org/2000/svg">
<g clip-path="url(#clip0_5_180)">
<path fill-rule="evenodd" clip-rule="evenodd" d="M32.6413 15.4462C31.1416 5.98775 19.6901 4.28243 12.228 6.27322C12.0904 4.45386 10.9912 2.84624 9.61959 1.78878C3.79292 -2.58336 -3.10523 4.83965 -1.72421 11.2371C-1.47647 13.1751 0.00919151 15.3866 2.08783 15.055C-0.524948 20.2111 -1.54596 30.6081 4.21076 33.8221C4.76614 34.2343 4.85831 35.0713 5.28574 35.6081C5.97964 36.4737 8.94419 37.5763 10.548 36.6927C11.0519 37.1755 11.6333 37.6454 12.313 37.8124C15.8246 40.7435 20.9565 41.4049 25.2325 40.1954C27.867 39.7293 30.5979 38.4901 31.9533 35.9582C33.1017 34.0313 32.5725 31.7736 32.0459 29.7342C31.8184 28.6123 31.6703 27.4814 31.5791 26.341C31.7659 26.1136 31.7763 25.7979 31.8229 25.5104C32.0251 24.4912 32.467 23.5454 32.6881 22.5293C33.1825 20.2224 33.0967 17.7578 32.6413 15.4462Z" fill="white"/>
<path fill-rule="evenodd" clip-rule="evenodd" d="M32.5212 20.2635C32.4346 21.404 31.971 22.4302 31.5829 23.4931C31.6253 22.8642 31.6054 22.2097 31.6476 21.5567C31.1963 17.4676 25.8635 16.3933 23.7933 13.3013C23.8717 13.1267 23.8999 11.5655 23.5912 12.0046C22.3938 17.4685 15.2767 20.2097 10.404 20.2202C10.0355 19.9035 9.30457 20.2381 9.44264 20.8693C10.1713 24.2004 10.3308 27.6849 9.86292 31.0696C9.64243 32.2647 9.60521 33.7028 8.91756 34.7327C8.18766 35.4566 9.06513 35.5147 9.54805 35.3512C9.68269 35.5486 9.82478 35.7403 9.96741 35.9312C9.27375 36.4309 8.26164 36.1584 7.54369 35.8258C6.74507 35.385 6.28857 34.5308 5.7099 33.8461C5.39397 33.183 4.91478 32.8019 4.29875 32.4428C0.871594 30.0139 0.960109 24.6858 1.45208 20.8349C2.88569 9.37569 15.0828 3.84657 24.8713 7.82752C30.1577 9.23712 32.6345 14.9365 32.5212 20.2635ZM0.638393 13.776C-1.45212 11.6051 -1.03131 7.80982 0.282807 5.30712C2.91606 0.0779943 10.3953 0.247915 11.2909 6.58617C7.47679 7.94863 4.25841 10.8701 2.34227 14.5591C1.71839 14.4896 1.1153 14.1998 0.638393 13.776ZM32.6413 15.4482C31.1416 5.98974 19.6902 4.28442 12.228 6.2753C12.0905 4.45585 10.9913 2.84823 9.61959 1.79069C3.79292 -2.58137 -3.10523 4.84164 -1.72421 11.2391C-1.47647 13.1771 0.00919162 15.3886 2.08783 15.057C-0.524948 20.2131 -1.54589 30.6101 4.21076 33.8241C4.76614 34.2363 4.85831 35.0734 5.28574 35.61C5.97964 36.4757 8.94419 37.5784 10.548 36.6947C10.9293 37.1825 13.0936 38.6662 12.9359 37.2118C12.7766 36.82 12.2847 36.7178 11.9571 36.5241C11.2686 36.1278 10.6704 35.5692 10.2005 34.9131C11.6766 30.5728 11.5641 25.74 10.7372 21.2709C15.679 21.0117 21.494 18.753 23.6737 13.7931C25.1472 17.4026 29.7166 17.8671 30.8709 21.9028C30.9406 24.0224 30.5047 26.1105 30.8208 28.2312C30.9136 30.3083 31.9665 32.3716 31.3577 34.4351C29.657 38.935 23.5345 39.5953 19.4895 39.4072C18.5286 39.3245 17.7312 38.7831 16.9414 38.269C16.468 38.0347 15.9044 38.5248 16.1945 39.0479C17.302 40.6594 19.5799 40.8003 21.329 40.7422C25.8685 40.4616 32.4288 39.0631 32.6645 33.218C32.5148 30.9009 31.6428 28.6835 31.5792 26.343C31.7659 26.1156 31.7763 25.7999 31.8229 25.5124C32.0251 24.4932 32.4671 23.5474 32.6881 22.5312C33.1825 20.2244 33.0968 17.7599 32.6413 15.4482Z" fill="black"/>
</g>
<defs>
<clipPath id="clip0_5_180">
<rect width="36" height="45" fill="white"/>
</clipPath>
</defs>
</svg>
