<svg width="36" height="44" viewBox="0 0 36 44" fill="none" xmlns="http://www.w3.org/2000/svg">
<path fill-rule="evenodd" clip-rule="evenodd" d="M31.8462 26.1985C31.3689 22.6876 30.2772 19.2787 30.1205 15.7151C30.0273 14.1901 29.9341 12.6651 29.8409 11.14C29.8055 10.1875 28.592 9.86619 28.1285 10.71C27.0749 9.51869 25.1883 9.69415 23.749 9.73031C15.2758 10.0365 7.22384 15.8775 4.31522 24.0217C4.24528 24.2159 4.26644 24.4225 4.34552 24.6074C2.98977 29.217 7.78431 32.1851 11.0543 34.2403C12.3808 35.6696 13.9401 36.8571 15.7007 37.6703C17.7261 38.6418 19.9806 39.1835 22.2183 39.2353C22.7095 39.2468 23.0046 38.8419 23.0401 38.4227C23.754 38.2533 24.9756 38.4489 25.3532 37.703C29.6585 35.7964 32.4636 30.964 31.8462 26.1985Z" fill="white"/>
<path fill-rule="evenodd" clip-rule="evenodd" d="M29.8316 13.7473C29.8194 13.6335 29.9806 13.63 30.0138 13.7222C30.2866 14.4801 30.5695 15.2329 30.7857 16.01C30.9941 16.7589 31.1441 17.5248 31.2961 18.2875C31.5482 19.5532 31.765 20.8281 31.9443 22.1073C32.3275 21.8021 32.8287 21.7743 33.3006 22.0118C33.5221 22.1232 33.6069 22.4177 33.5538 22.6461C33.5112 22.8294 33.459 23.0118 33.3965 23.1904C33.5302 23.3111 33.6438 23.4599 33.7263 23.6308C33.9436 24.0809 33.8736 24.5533 33.6787 24.9827C33.6935 25.0083 33.7082 25.0341 33.7221 25.0614C34.0042 25.62 33.8533 26.1203 33.6471 26.6654C33.4928 27.0733 33.5789 27.5325 33.2459 27.8404C33.1302 28.2196 32.9565 28.5722 32.7036 28.8908C32.6463 28.9979 32.5603 29.0841 32.4582 29.1475C32.4325 29.7459 32.3706 30.3422 32.2541 30.9334C31.8016 33.2288 30.3655 35.274 28.5878 36.7164C26.8483 38.128 24.8053 38.9714 22.6008 39.244C21.5304 39.3765 20.4584 39.3348 19.3967 39.1457L19.2645 39.1217C18.2849 38.9405 17.0994 38.6406 16.422 37.8871C16.0658 37.4909 16.274 36.6188 16.9038 36.7011C17.2375 36.7447 17.5279 36.7992 17.8421 36.9248C18.0871 37.0227 18.3326 37.1171 18.5841 37.197C19.0659 37.35 19.5642 37.4692 20.0644 37.5352C21.1066 37.6725 22.1897 37.6361 23.2199 37.429C25.0933 37.0521 26.9133 36.1829 28.3349 34.8742C29.9875 33.353 30.9562 31.3842 31.0988 29.1134C31.2576 26.5844 30.9712 23.9947 30.7334 21.4788C30.6097 20.17 30.4527 18.8639 30.2636 17.5633C30.0789 16.2925 29.9682 15.0235 29.8316 13.7473ZM15.2065 5.58097L15.2865 5.56843C18.4679 5.07481 21.8153 5.1098 24.8056 6.44843C25.3787 6.70521 25.9397 7.01484 26.4679 7.37413C26.8462 7.33386 27.2267 7.30119 27.6004 7.29584C28.0707 7.28955 28.5297 7.53865 28.5875 8.02366C29.0282 8.07953 29.4339 8.24482 29.6935 8.57548C29.7946 8.70422 29.8624 8.85322 29.8967 9.00842C30.1676 9.07368 30.4332 9.17371 30.6851 9.30563C30.9911 9.46627 31.1676 9.91325 31.0596 10.2439C31.0346 10.319 31.0062 10.3921 30.9744 10.4636L30.95 10.517L30.9644 10.5372C31.2087 10.9376 31.039 11.463 30.6646 11.702C30.3837 11.8812 30.0701 12.024 29.7474 12.0931C29.7741 12.225 29.7984 12.3577 29.8182 12.4919C29.8258 12.5463 29.7574 12.5851 29.7269 12.5315C29.804 12.7762 29.9007 13.0334 30.0169 13.303C30.0854 13.462 29.8662 13.6032 29.7825 13.4426C29.5603 13.0142 29.4224 12.575 29.2208 12.1334C29.0344 12.121 28.8486 12.0776 28.6697 11.9945C28.5525 11.9402 28.4635 11.8486 28.3996 11.7392C28.3957 11.7439 28.3935 11.7493 28.3896 11.7547C27.7891 12.5424 26.6155 12.8187 25.7083 13.0678C24.7341 13.3356 23.737 13.5008 22.7363 13.6226C20.9887 13.8345 19.2275 13.874 17.4717 13.9564C17.3554 13.9617 17.2394 13.9677 17.1232 13.9734C16.4101 14.6113 15.4915 15.0077 14.5493 15.1282C14.0718 15.1892 13.5071 15.1737 12.9717 15.0494C12.778 15.2511 12.5331 15.4006 12.2658 15.4774C12.2177 16.4939 11.6618 17.4563 10.8214 18.0172L10.8363 18.0777C11.0451 18.9457 11.0424 19.8945 10.2938 20.4978C10.1924 20.5794 10.0816 20.6494 9.96517 20.7075L9.99075 20.7674C10.3774 21.6889 10.5009 22.7067 9.77406 23.4713C9.47932 23.7812 8.96185 23.7078 8.74086 23.3521L8.73006 23.3341C8.7178 23.3129 8.70456 23.2926 8.69185 23.2718C8.67214 23.3129 8.642 23.3476 8.59724 23.367C8.32097 23.4881 8.21061 23.3988 7.95868 23.2739C7.72579 23.1575 7.47995 23.0706 7.22886 23.0031C7.02405 22.9487 6.82008 22.9099 6.61458 22.8874C5.31615 23.3934 4.47741 24.9454 4.67682 26.402C4.7849 27.1951 5.21195 27.9804 5.95623 28.3094C6.28198 28.4538 6.66481 28.5143 7.0172 28.4654C7.49441 28.3995 7.86126 28.093 8.35522 28.2683C8.55006 28.3374 8.67191 28.4934 8.68249 28.7068C8.70007 29.042 8.58355 29.2934 8.38718 29.4797C8.73348 29.7746 9.01281 30.1843 9.31344 30.5111C9.6895 30.92 10.0707 31.3289 10.4772 31.7061C10.8608 32.0638 11.2688 32.3959 11.701 32.6909L11.7464 32.7214C12.288 33.081 12.9705 33.4003 12.9964 34.1521C13.0048 34.3787 12.8701 34.5866 12.6874 34.7022C12.0048 35.1337 11.2619 34.5672 10.7268 34.1521C10.5114 33.9852 10.3021 33.8122 10.1004 33.6329C9.9657 33.6438 9.81881 33.6213 9.66583 33.5522C9.56765 33.5087 9.47175 33.4575 9.37737 33.4032C9.07065 33.4816 8.78143 33.4125 8.54321 33.2488C8.19995 33.3349 7.83615 33.345 7.52714 33.2759C7.24485 33.2123 6.99285 33.0765 6.78507 32.8941C6.35124 33.0354 5.86947 33.009 5.44173 32.7413C5.18524 32.5807 4.98507 32.3517 4.87623 32.084C4.82082 31.9955 4.78537 31.8924 4.78268 31.7787L4.78262 31.7355C4.40968 31.7441 4.03598 31.6137 3.74752 31.3127C3.48266 31.0364 3.35335 30.6919 3.33881 30.3418C2.96359 30.2333 2.62033 30.0104 2.35928 29.6667C1.92697 29.0971 1.8692 28.3933 2.09144 27.7647C2.07691 27.7313 2.06397 27.6972 2.05255 27.663C1.70777 27.1672 1.48021 26.5688 1.49847 25.969C1.50076 25.8759 1.51293 25.7844 1.5312 25.6936C1.19175 25.5096 0.942108 25.1868 0.91547 24.7763C0.89492 24.4542 1.00832 24.1391 1.21306 23.9009C1.11336 23.658 1.06921 23.3942 1.09966 23.1303C1.13086 22.8595 1.22448 22.6244 1.36155 22.4281C1.35843 22.3567 1.36224 22.2845 1.37365 22.2107C1.35995 22.1386 1.34854 22.0641 1.34252 21.9881C1.27775 21.1561 1.84097 20.4282 2.52672 20.0441C2.7071 19.9432 2.90194 19.861 3.09678 19.7911C3.23834 19.7399 3.45145 19.7228 3.57627 19.629C3.57095 19.6251 3.6227 19.5569 3.63183 19.5203C3.64173 19.4753 3.65238 19.4311 3.65779 19.3853C3.67826 19.1928 3.66304 18.9949 3.65923 18.8017C3.64249 17.9248 3.66913 17.044 3.7597 16.1718C3.9279 14.5546 4.34278 12.9723 5.15099 11.5592C5.82913 10.375 6.75767 9.3747 7.82245 8.54514C9.9433 6.89356 12.5899 5.99556 15.2065 5.58097ZM5.3777 25.6928C5.10162 25.0162 6.40137 25.0095 6.74502 25.0417L6.75513 25.0427C7.52864 25.1211 8.73795 25.5005 9.05441 26.2963C9.1854 26.6257 8.79762 26.9827 8.48732 26.8744C8.18356 26.7684 8.01323 26.5407 7.76945 26.3415C7.70552 26.2892 7.63885 26.2404 7.57096 26.1933C7.60672 26.3094 7.66394 26.4166 7.74335 26.4967L7.76207 26.5147C8.13638 26.8576 7.46699 27.3963 7.21857 26.9423C7.08629 26.7007 7.03332 26.4356 7.07457 26.1613C7.08682 26.0804 7.10813 26.0063 7.13911 25.9357C7.11445 25.9232 7.09017 25.9095 7.06521 25.8974L7.02064 25.8763C6.72272 25.7385 5.4515 25.1973 5.4618 25.6812C5.46294 25.7347 5.39482 25.7348 5.3777 25.6928Z" fill="black"/>
</svg>
