<svg width="36" height="43" viewBox="0 0 36 43" fill="none" xmlns="http://www.w3.org/2000/svg">
<g clip-path="url(#clip0_5_294)">
<path fill-rule="evenodd" clip-rule="evenodd" d="M26.1367 11.1269C21.1309 7.07292 13.1092 5.7566 7.75082 9.84661C3.5873 13.685 1.86432 24.5924 2.60114 30.0734C2.80603 33.5888 5.50147 37.5734 9.45819 36.4616C10.1301 36.3957 10.7825 36.139 11.4606 36.0853C12.2717 35.9922 13.0889 35.9906 13.8984 36.1046C15.6624 36.3532 17.2261 37.2864 18.9381 37.7227C22.1148 38.5322 25.6593 37.9876 28.3938 36.1642C37.4301 30.2445 33.3369 16.8564 26.1367 11.1269Z" fill="white"/>
<path fill-rule="evenodd" clip-rule="evenodd" d="M25.4701 37.8201C25.563 37.7882 25.6558 37.7549 25.7479 37.7207C25.754 37.742 25.7639 37.7624 25.7754 37.7822C25.7883 37.814 25.8013 37.845 25.8156 37.8761C25.7 37.877 25.5843 37.8564 25.4701 37.8201ZM25.2845 -1.46546C25.2434 -1.55715 25.1961 -1.64512 25.1428 -1.73013C25.2722 -1.68835 25.4017 -1.63071 25.5189 -1.55639C25.4397 -1.52985 25.362 -1.49951 25.2845 -1.46546ZM5.51187 10.5291C5.50655 10.5282 5.5013 10.5274 5.49604 10.5265C5.56393 10.3464 5.68487 10.1764 5.81845 10.0536C5.84242 10.0315 5.86837 10.0111 5.89349 9.99006C5.7517 10.1583 5.62307 10.3379 5.51187 10.5291ZM41.6907 29.3633C41.6237 28.7309 41.5384 28.1007 41.4281 27.4742C41.3223 26.8744 41.2332 26.2328 40.9265 25.7005C40.6221 25.1703 40.3169 24.6553 39.9547 24.189C40.0063 23.9509 40.0749 23.7272 40.1342 23.5467C40.4767 22.5077 40.8139 21.1881 40.1022 20.2227C39.9371 19.999 39.7355 19.8276 39.5048 19.6729C39.4066 19.6069 39.2438 19.547 39.1684 19.456C39.1151 19.3915 39.1334 19.4264 39.1311 19.3945C39.1181 19.2232 39.5215 18.8614 39.6159 18.7257C39.7926 18.4746 39.9241 18.1918 40.0246 17.9028C40.4219 16.7592 40.1517 15.4995 39.9128 14.3535C39.7865 13.7462 39.6472 13.1372 39.6014 12.5168C39.5588 11.9344 39.6387 11.3656 39.6859 10.7862C39.7317 10.2143 39.7195 9.62437 39.4736 9.09495C39.3533 8.8371 39.1715 8.60959 38.9499 8.43213C38.7339 8.25853 38.4644 8.15767 38.2536 7.98476C38.0435 7.81253 38.1036 7.57979 38.1585 7.34165C38.2337 7.01859 38.3289 6.69779 38.338 6.36411C38.3548 5.78243 38.1165 5.21585 37.7444 4.77606C37.3608 4.3218 36.8128 4.01458 36.2206 3.94556C35.9497 3.91371 35.6833 3.96763 35.4139 3.94867C35.1475 3.93047 35.0897 3.79776 35.0394 3.55508C34.9238 2.99919 34.9709 2.45012 34.6962 1.93139C34.4527 1.4703 34.0195 1.15777 33.5408 0.973559C32.6633 0.635322 31.6427 0.705093 30.7171 0.904471C30.1707 -0.697147 28.4651 -1.7475 26.7869 -1.76039C26.525 -2.20328 26.0813 -2.53394 25.5752 -2.72816C24.738 -3.05047 23.8513 -2.86231 22.9791 -2.86231H22.9753C22.8877 -2.8677 22.8002 -2.8699 22.7127 -2.86914C22.6304 -2.87377 22.5482 -2.88059 22.466 -2.88962C21.4736 -3.00648 20.4918 -3.41146 19.5084 -3.01475C19.07 -2.83805 18.7214 -2.56579 18.5008 -2.21845C18.1682 -2.12828 17.8401 -2.02507 17.5182 -1.90524C16.123 -1.86892 14.7409 -1.12343 14.0354 0.0847406C13.0422 -0.0274992 11.9645 0.162853 11.3076 0.971284C11.1365 1.18166 11.004 1.42881 10.9161 1.69121C10.2464 1.90705 9.62661 2.29162 9.22102 2.87087C8.85089 3.39946 8.77981 4.08291 9.03013 4.65032C8.43221 5.08192 7.96497 5.69977 7.73992 6.42933C7.60315 6.8726 7.58283 7.33058 7.67081 7.76688C7.05866 7.90217 6.47314 8.15297 5.95438 8.52935C5.41072 8.92363 4.73175 9.55119 4.69598 10.2735C4.69331 10.3265 4.69537 10.3795 4.69963 10.4323C3.5028 10.3485 2.28245 10.5506 1.47348 11.5067C0.866048 12.224 0.602022 13.1478 0.764136 13.9888C-0.659881 14.277 -2.00634 15.0187 -2.94554 16.1153C-3.62817 16.9124 -4.23476 17.9256 -4.19831 19.0107C-4.18689 19.3377 -4.10994 19.6668 -3.97675 19.9709V19.9716C-4.03383 20.0786 -4.09252 20.1977 -4.14884 20.3243C-5.03095 20.9393 -5.6718 21.9033 -6.03256 22.9657C-6.32398 23.8264 -6.50741 24.9444 -6.19619 25.8203C-6.14893 25.9538 -6.0888 26.0796 -6.01878 26.1964C-6.07746 26.2586 -6.13295 26.3208 -6.18698 26.3838C-6.78148 27.0761 -7.38351 27.9482 -7.34233 28.9015C-7.32559 29.2853 -7.18258 29.6713 -6.94884 29.9882C-7.77091 30.8187 -8.43299 31.8668 -8.36761 33.037C-8.31129 34.0555 -7.75028 35.0899 -6.87129 35.5791C-7.01811 36.364 -6.82174 37.1922 -6.20837 37.8049C-5.90233 38.1113 -5.54165 38.313 -5.1595 38.4207C-5.07426 39.3452 -4.25082 40.0892 -3.37632 40.3029C-3.21337 40.3432 -3.05049 40.3675 -2.88846 40.3788C-2.10148 40.7634 -1.16304 40.7193 -0.360084 40.3666C-0.123382 40.6663 0.184863 40.9105 0.544102 41.0857C0.689472 41.1569 0.84329 41.2161 1.00381 41.2638C2.13784 41.5982 3.30088 41.1448 4.29252 40.6155C4.32448 40.5988 4.38309 40.5775 4.43484 40.554C4.57184 40.7065 4.82148 40.8574 4.95163 40.9317C5.39314 41.1843 5.93276 41.3017 6.43965 41.2684C7.03407 41.229 7.55839 41.0333 8.04398 40.755C8.11483 40.7671 8.1863 40.774 8.25792 40.7778C8.71458 40.802 9.12169 40.6579 9.48786 40.4304C9.72981 40.4623 9.97793 40.4592 10.2291 40.4153C10.7825 40.5555 11.3213 40.3326 11.7543 39.9784C11.9462 39.8214 12.1082 39.6372 12.2819 39.4612C12.4622 39.2784 12.5992 39.236 12.81 39.1131C13.3086 38.8227 13.3686 38.0863 13.1525 37.5538C13.1936 37.4606 13.2172 37.3567 13.2172 37.2414C13.2156 36.2358 12.7507 35.3136 12.1799 34.509C11.9248 34.1503 11.6479 33.7991 11.3441 33.4806C11.0998 33.225 10.7566 32.8102 10.3951 32.7063C10.373 32.6904 10.3501 32.6744 10.3273 32.6593C10.3974 32.4151 10.4384 32.1664 10.421 31.9123C10.4026 31.6514 10.3181 31.4041 10.1827 31.1934C10.637 30.3159 10.8289 29.3536 10.7376 28.3495C11.1074 27.8269 11.3876 27.2498 11.5321 26.6173C11.6211 26.226 11.6722 25.8142 11.6653 25.413C11.6622 25.2204 11.5915 24.9769 11.59 24.7775C11.6007 24.8405 11.6829 24.6054 11.7148 24.5469C12.0816 23.8682 12.5527 23.3389 12.6312 22.5388C12.6768 22.0708 12.5657 21.5536 12.2841 21.1699C12.4644 20.4616 12.4622 19.7009 12.1783 19.0252C12.1022 18.8447 12.0147 18.668 11.9142 18.5004C11.9606 18.3594 12.0033 18.2168 12.058 18.0885C12.0794 18.0377 12.1006 17.9862 12.1219 17.9347C12.3282 17.7533 12.5201 17.5555 12.6814 17.3613C13.0391 16.9313 13.3124 16.4384 13.3466 15.8703C13.3634 15.5859 13.2964 15.3136 13.2134 15.0437C13.1768 14.9216 13.1548 14.7859 13.1114 14.6668C13.0871 14.6008 13.0284 14.5333 13.0079 14.4712C13.0033 14.4575 12.9995 14.4461 12.9964 14.437C12.9995 14.4279 13.0019 14.409 13.0019 14.3733C13.0025 14.101 13.0383 13.8348 13.0399 13.5725C13.2903 13.8243 13.5917 14.0123 13.9342 14.1223C14.6244 14.343 15.3445 14.2429 15.9556 13.9024C16.6133 14.3513 17.3522 14.7578 18.1271 14.9209C18.5875 15.0179 19.0488 14.9778 19.5107 15.0377C19.9696 15.0976 20.4134 15.297 20.8457 15.4525C21.8078 15.7991 22.7674 16.1547 23.7325 16.4922C24.5119 16.7645 25.3552 16.9806 26.1712 16.8274C26.4002 17.1793 26.6978 17.4766 27.0791 17.695C27.3523 17.8505 27.6522 17.9558 27.9619 18.0082C28.2359 18.0545 28.5572 18.0363 28.7794 18.2236C28.9963 18.4056 29.1318 18.677 29.3266 18.8819C29.5436 19.1109 29.8114 19.3096 30.0923 19.4522C30.3175 19.5667 30.5475 19.6493 30.7811 19.7032C30.7606 20.2212 30.7407 20.7384 30.7346 21.2571C30.7233 22.3841 30.7278 23.5109 30.7126 24.638C30.6974 25.761 30.6616 26.8843 30.6023 28.0059C30.5459 29.0586 30.4667 30.1149 30.2148 31.1418C29.3791 34.5492 26.2487 36.9889 22.7446 37.1133C21.7043 37.1504 20.6744 37.0048 19.6797 36.6999C18.6492 36.3837 17.729 35.733 16.6726 35.5328C16.3963 35.4812 16.136 35.7581 16.2943 36.0242C16.5668 36.4815 16.8978 36.7606 17.3507 37.0358C17.8249 37.3234 18.3531 37.5365 18.8744 37.723C19.8334 38.0657 20.848 38.2645 21.8656 38.3199C22.6419 38.3622 23.4212 38.3092 24.1816 38.1636C24.2349 38.3267 24.3293 38.4852 24.4008 38.6361C24.4114 38.6581 24.4473 38.6429 24.4404 38.6202C24.4289 38.5823 24.4214 38.5489 24.4183 38.5216C24.674 38.8538 25.069 39.0835 25.4747 39.195C25.7608 39.2739 26.0646 39.2981 26.3591 39.2648C26.4543 39.2541 26.5448 39.2383 26.6347 39.2185C26.9345 39.4802 27.3181 39.6546 27.7032 39.7418C27.637 40.1422 27.8356 40.5791 28.2961 40.6928C28.4894 40.7406 28.6751 40.7414 28.8609 40.7239C29.0108 40.7937 29.1722 40.8483 29.3434 40.8854C29.5663 40.934 29.8327 40.8717 30.0009 40.711C30.093 40.7755 30.179 40.8202 30.2643 40.9225C30.6152 41.3443 31.3717 41.0083 31.4052 40.5207C31.5163 40.5207 31.6282 40.5222 31.7401 40.526C31.7667 40.5381 31.7933 40.5502 31.8207 40.5631C32.3101 40.7898 32.817 40.9878 33.3582 40.8096C33.4578 40.7769 33.5492 40.7353 33.6321 40.6868C34.0134 40.7209 34.3894 40.7216 34.7761 40.5973C35.0045 40.5236 35.219 40.4069 35.3979 40.2537C35.9946 40.4281 36.6241 40.507 37.2178 40.2908C37.6622 40.1293 38.0199 39.8745 38.2718 39.5385C38.657 39.5522 39.0481 39.4597 39.4005 39.2769C40.0033 38.966 40.4257 38.3751 40.7203 37.7829C41.3688 36.4762 41.7524 35.0725 41.903 33.6247C42.0514 32.199 41.8398 30.7808 41.6907 29.3633Z" fill="black"/>
</g>
<defs>
<clipPath id="clip0_5_294">
<rect width="36" height="43" fill="white"/>
</clipPath>
</defs>
</svg>
