<svg width="36" height="45" viewBox="0 0 36 45" fill="none" xmlns="http://www.w3.org/2000/svg">
<g clip-path="url(#clip0_5_160)">
<path fill-rule="evenodd" clip-rule="evenodd" d="M30.2542 19.3458C30.0733 16.9058 30.3536 14.3483 29.4514 12.0291C27.8783 8.18112 23.4673 6.8981 20.0476 5.4331C18.6776 5.01099 14.0677 4.95199 12.4636 4.39331C8.83318 3.12888 7.96577 1.62233 5.08104 4.02985C4.59409 4.44112 4.28942 4.8881 4.06718 5.49882L4.07631 5.50144C4.01283 5.75604 4.08088 6.01009 4.22389 6.20414C2.9731 7.53731 2.44969 9.53604 3.09145 11.3107C5.18576 15.9289 5.08728 18.426 4.41249 23.3907C3.53129 28.0256 5.54493 29.7187 8.87976 32.2406C8.74398 32.5152 8.71582 32.88 8.89285 33.1222C12.7491 38.7729 20.0201 41.4709 26.2499 38.6028C28.7787 37.4292 29.9076 34.621 30.5519 32.0871C31.3024 29.2498 31.533 26.2602 30.922 23.37C30.6756 22.0333 30.3546 20.7064 30.2542 19.3458Z" fill="white"/>
<path fill-rule="evenodd" clip-rule="evenodd" d="M8.01028 -7.68728C8.47837 -7.76058 8.83186 -7.45774 9.00001 -7.0309L9.00884 -7.00792C9.06288 -6.86268 9.12301 -6.72141 9.1877 -6.58252C10.359 -7.18173 12.0304 -7.02776 12.7717 -5.81427C13.3007 -4.9476 12.978 -3.91903 12.7786 -2.99998L12.6477 -2.39443C12.9007 -2.22651 13.0915 -1.92581 13.0826 -1.61443L13.0815 -1.59046L13.0282 -0.746015C13.1972 -0.924586 13.3517 -1.11903 13.4894 -1.32617C13.5846 -1.50792 13.6873 -1.68649 13.7977 -1.85951C14.4469 -2.87776 15.9044 -1.99284 15.3686 -0.902364C15.2658 -0.692047 15.1502 -0.49284 15.0261 -0.300777C14.8861 -0.0174434 14.7711 0.273827 14.6828 0.573033C14.9363 0.688112 15.1311 0.943668 15.1517 1.32938C15.1996 2.23018 14.746 2.98176 14.0245 3.45399C13.8121 3.59287 13.5929 3.61986 13.3943 3.56827C13.3593 3.61748 13.3243 3.66668 13.2908 3.71668C13.5785 3.96033 13.838 4.23811 14.061 4.54605C14.7323 4.44129 15.4074 4.39208 16.0825 4.39049C16.9075 3.96907 17.8954 3.97779 18.7821 4.13573C19.3529 4.23732 19.9009 4.43494 20.4626 4.577C21.0548 4.72621 21.656 4.73176 22.255 4.83335C23.01 4.96113 23.6722 5.32462 24.0885 5.90478C24.5459 5.91907 25.0269 6.1143 25.4258 6.37938C26.3543 6.99684 27.2775 7.62303 28.2038 8.24446C28.5592 8.48304 28.6922 8.86391 28.6268 9.28872L28.6224 9.31589L28.5912 9.49208L28.6644 9.60053C28.9479 10.0179 29.2563 10.4552 29.4398 10.9159C29.7792 11.4262 30.086 11.9611 30.3577 12.5127C30.7238 13.254 31.0259 14.0397 31.2307 14.8461C31.2817 15.05 31.3326 15.2556 31.3661 15.4635C31.4141 15.7572 31.3403 15.9849 31.2999 16.2667C31.2497 16.6238 31.2314 16.9857 31.1781 17.3437C31.1424 17.581 30.9491 17.6976 30.7466 17.704C30.8227 18.308 30.8775 18.9159 30.93 19.5191C31.0039 20.381 31.0541 21.2453 31.0975 22.1095C31.3212 22.4484 31.7787 22.7167 32.109 22.8095C32.5664 22.9373 33.0459 22.7984 33.4782 22.6357C33.7499 22.5334 33.9729 22.8897 33.8405 23.1278C33.4241 23.8754 32.5337 23.8722 31.8593 23.5413C31.5739 23.4016 31.3235 23.1992 31.1378 22.9357C31.1492 23.1865 31.1614 23.4373 31.1736 23.6889L31.1849 23.9168C31.322 26.5781 31.6181 29.3309 31.1386 31.9659C30.3082 36.5302 26.6859 40.0055 22.2611 40.2754C19.9391 40.417 18.0055 39.7019 17.044 39.3029C16.0825 38.904 16.4562 38.0906 17.1237 38.3231C18.2736 38.7236 20.3859 39.3204 22.2763 39.0627C26.7318 38.4554 30.5099 36.1332 30.1217 26.1318C30.0667 24.7135 29.8972 23.2945 29.8607 21.8762C29.8257 20.4897 29.8386 19.1024 29.78 17.7167L29.7605 17.2439C29.7376 16.6914 29.7131 16.1364 29.6735 15.5834C29.6255 15.3691 29.5859 15.1516 29.5273 14.9413C29.3683 14.3691 29.1605 13.8127 28.9025 13.2818C28.8454 13.327 28.7814 13.3595 28.7122 13.3722C28.1863 13.4707 27.6931 13.4429 27.2006 13.2143C26.9708 13.1087 26.7683 12.9683 26.5796 12.7945C26.4898 12.7127 26.4296 12.6334 26.3825 12.5508C26.1442 12.5548 25.906 12.4802 25.7568 12.3016C25.5867 12.0981 25.5584 11.8878 25.625 11.6932L25.632 11.6738L25.6153 11.6675C25.4143 12.2095 25.014 12.6865 24.5748 13.0087C23.8807 13.5199 23.0123 13.6675 22.1797 13.681C21.2603 13.6953 20.2906 13.5476 19.3834 13.3968C19.1436 13.3572 18.9054 13.3119 18.6718 13.2508C18.6626 13.2603 18.6535 13.2714 18.6436 13.281C17.865 14.058 16.7698 14.258 15.7819 13.8143C15.211 13.558 14.7323 13.1453 14.3091 12.6722C14.303 12.9199 14.2909 13.1675 14.2703 13.4127L14.2618 13.5101C14.2197 13.9668 14.1386 14.4513 13.8076 14.781C13.2725 15.3151 12.4962 15.1008 11.8789 14.7532C11.8797 14.7699 11.8797 14.7873 11.8797 14.8048C12.0464 15.3953 12.2138 15.9865 12.3813 16.5778L12.4173 16.7037C12.5391 17.1236 12.6726 17.544 12.7093 17.9834C12.7793 18.823 12.2435 19.6524 11.3485 19.3707C10.879 19.2234 10.5029 18.8118 10.142 18.4821L9.91455 18.277C10.5029 20.2826 10.9108 22.3595 10.9489 24.4524C10.9512 24.5659 10.8576 24.6516 10.754 24.6556C10.512 24.6659 10.2517 24.6159 10.0082 24.5151C9.99447 24.5143 9.98077 24.5135 9.96631 24.5111C9.55075 24.4484 9.16487 24.2921 8.82466 24.0611C8.90305 24.3207 8.93806 24.5992 8.91751 24.8905C8.91218 24.9611 8.80639 24.9857 8.79117 24.908C8.5948 23.9008 7.46457 23.1397 6.49036 23.3326C5.44461 23.5397 4.67438 24.4778 4.48563 25.5453C4.28318 26.6921 4.67058 28.0183 5.38829 28.9032C5.71861 29.3111 6.1532 29.6516 6.66922 29.7373C6.90516 29.7762 7.15024 29.7627 7.37933 29.6929C7.47675 29.6627 7.56808 29.6207 7.66093 29.581C7.79641 29.5238 7.95472 29.5151 8.08258 29.4548C8.37256 29.3191 8.66406 29.5976 8.51717 29.908C8.38931 30.1786 8.27438 30.3611 8.06203 30.5008C8.23404 30.7199 8.39007 31.0246 8.44791 31.1064C8.74322 31.5222 9.04309 31.9151 9.3795 32.2953C9.72199 32.681 10.0957 33.0334 10.4907 33.3595L10.6567 33.4963C11.0372 33.811 11.3685 34.1026 11.6369 34.554C11.8485 34.9103 11.5745 35.3937 11.178 35.3881C9.93738 35.3699 9.03548 34.2334 8.39311 33.2405C8.30178 33.0984 8.21578 32.9484 8.13586 32.7945C8.10694 32.8429 8.07497 32.8881 8.0392 32.9294L8.10998 33.1278C8.32005 33.7119 7.4151 34.0937 7.15252 33.5484C6.96148 33.1532 6.74 32.777 6.49341 32.4214C6.34804 32.4 6.20571 32.308 6.12656 32.1889C5.92639 31.8865 5.70187 31.581 5.51235 31.2587C5.40732 31.1548 5.29924 31.0548 5.18888 30.9572C5.15692 30.9865 5.12419 31.0159 5.09299 31.0468C4.95447 31.3762 4.78322 31.677 4.57087 31.9603L4.52534 32.0208C4.11854 32.5554 3.58867 33.1026 2.93299 33.2334C2.73282 33.273 2.54026 33.0135 2.71759 32.8476C3.17654 32.4175 3.7192 32.1246 4.14237 31.6445C4.35086 31.4079 4.54228 31.1474 4.7069 30.8744L4.7444 30.8111C4.7718 30.7643 4.79996 30.7175 4.82888 30.6699C4.63785 30.5341 4.44681 30.3976 4.25578 30.2611C3.72988 30.7296 3.04504 30.9439 2.46336 31.332L2.40554 31.3714C1.87962 31.7381 1.32554 30.927 1.74719 30.4818C2.212 29.9928 2.60001 29.4097 3.01176 28.8662C2.81814 28.4943 2.7265 28.0545 2.69217 27.6101C2.67863 27.4843 2.66805 27.3584 2.65747 27.2326C2.36216 27.2373 2.06533 27.1318 1.81417 26.95L1.71903 26.8794C1.41383 26.981 1.09341 27.0302 0.786686 27.0214C0.0651635 26.9992 -0.230143 26.1397 0.221189 25.596C0.681654 25.0405 1.48766 24.9191 2.12622 25.1889C2.14677 25.1778 2.16808 25.1659 2.18863 25.154C2.15819 25.008 2.16496 24.8755 2.19959 24.7591L2.18954 24.6882C2.04912 24.4635 1.9568 24.207 1.92179 23.936C1.89408 23.7213 1.89972 23.5085 1.94736 23.2965C1.96319 23.226 1.99615 23.1529 2.02134 23.0793C1.96943 22.9426 1.93891 22.8014 1.92948 22.6593C1.91494 22.6413 1.90048 22.6228 1.88678 22.6028C1.56993 22.1389 1.63394 21.5799 1.93549 21.2045C1.93686 21.1807 1.93899 21.1568 1.94211 21.133C1.92445 21.0916 1.90824 21.0498 1.89348 21.0075C1.59885 20.6976 1.38255 20.3246 1.42289 19.8625C1.44656 19.5906 1.55372 19.3458 1.71591 19.1629C1.68714 19.0741 1.6844 18.9714 1.71926 18.8856C1.46041 18.1676 1.49314 17.303 1.67945 16.5C1.63836 16.3778 1.61705 16.2453 1.62161 16.1048C1.64292 15.5087 2.13764 14.9611 2.72368 14.9683C2.79424 14.9689 2.8603 14.9785 2.92378 14.9926L2.92461 14.9784C2.94707 14.7995 2.99425 14.6341 3.06313 14.4858C3.02927 14.473 2.99791 14.4547 2.97043 14.4303C2.59491 14.6392 2.19754 14.7989 1.78091 14.9077C1.47457 14.9877 1.16077 14.6246 1.35119 14.3248C1.43956 14.1857 1.53705 14.0607 1.64209 13.9466C1.49276 13.9475 1.34115 13.958 1.18778 13.9786C0.912267 14.0159 0.604782 13.8199 0.425924 13.5548C0.203683 13.7802 -0.0193189 14.0048 -0.242321 14.2294C-0.807057 14.8 -1.66025 14.3802 -1.7493 13.6278C-1.9175 13.581 -2.07429 13.5016 -2.21205 13.3881C-3.10253 13.7913 -4.06076 14.0127 -5.04029 14.0548C-5.74355 14.0849 -6.15454 13.231 -5.82575 12.6278C-5.60503 12.223 -5.33103 11.8595 -5.01518 11.5437C-5.50532 11.7 -6.01145 11.8127 -6.52824 11.8849C-6.80756 11.9238 -7.20257 11.6826 -7.31446 11.4151C-7.74219 10.3865 -7.70566 9.3143 -7.21323 8.31351C-7.1942 8.27383 -7.17289 8.23573 -7.15234 8.19764C-7.10135 8.0651 -7.04579 7.93414 -6.98566 7.80557C-7.5915 7.14684 -7.64401 6.16748 -7.3175 5.34764C-7.44841 5.12621 -7.49864 4.85954 -7.40959 4.61827C-7.15615 3.92383 -6.79082 3.28256 -6.32959 2.73176C-6.37374 2.64287 -6.41255 2.54843 -6.44528 2.44684C-6.70482 1.62541 -6.40418 0.634144 -5.79759 0.0619216C-5.41627 -0.298396 -4.97788 -0.514269 -4.50981 -0.652364C-4.31268 -1.01586 -4.05923 -1.34363 -3.76393 -1.61982C-3.75251 -1.64601 -3.74109 -1.67221 -3.72816 -1.6984C-3.26845 -2.60157 -2.43124 -3.0857 -1.53391 -3.1976C-1.4989 -3.55078 -1.27057 -3.88808 -0.938727 -3.9976C-0.847395 -4.30316 -0.711158 -4.59522 -0.523928 -4.8603C-0.229382 -5.27776 0.260005 -5.47459 0.721231 -5.20078C0.973916 -5.05078 1.21595 -4.87855 1.44275 -4.68808C1.54462 -4.7379 1.66011 -4.77013 1.79042 -4.78041L1.8233 -4.78252L2.57375 -4.82221C2.88808 -4.96744 3.20165 -5.11982 3.51599 -5.26824C3.70474 -5.43094 3.91557 -5.56665 4.14542 -5.66744C4.40571 -5.78094 4.6721 -5.84522 4.93924 -5.86665C5.15616 -5.94046 5.37459 -6.00554 5.59683 -6.05633C6.11895 -6.17538 6.66542 -6.24205 7.20732 -6.23649C7.21841 -6.38275 7.22391 -6.53076 7.22286 -6.68051L7.22178 -6.75554C7.2096 -7.2357 7.57721 -7.61903 8.01028 -7.68728ZM7.48436 30.7294C7.40977 30.746 7.33442 30.7595 7.25907 30.7691C7.28191 30.8278 7.30474 30.8865 7.32681 30.9453C7.3877 30.981 7.44935 31.0151 7.511 31.0468C7.49273 30.9389 7.48208 30.8302 7.48436 30.7294ZM3.57406 29.5177L3.52346 29.6149C3.51526 29.6308 3.50718 29.6465 3.49924 29.6619C3.60656 29.6532 3.71463 29.6556 3.82119 29.6683L3.82088 29.6564C3.80718 29.6516 3.79348 29.6472 3.78039 29.6405C3.70687 29.6037 3.63853 29.5624 3.57406 29.5177ZM5.6874 25.0849C6.36077 25.1258 6.93125 25.2335 7.54364 25.5407L7.59624 25.5675C8.13738 25.8476 9.03244 26.3651 8.95709 27.1072C8.93578 27.3183 8.78888 27.5405 8.55751 27.5238C7.92351 27.4786 7.56123 26.8119 7.13197 26.3961C6.69891 25.977 6.1669 25.5461 5.6425 25.258C5.56837 25.2174 5.59757 25.089 5.67823 25.0849L5.6874 25.0849ZM2.63387 15.308C2.47252 15.3135 2.52656 15.477 2.60952 15.3405C2.61637 15.3294 2.62474 15.3183 2.63387 15.308ZM11.3436 4.39351C9.81546 4.43541 8.2775 5.37629 7.13273 6.32732C6.13683 7.1547 5.27687 8.13883 4.51539 9.19954C4.31948 9.7278 4.15128 10.2671 4.00918 10.8103C3.91556 11.1691 3.85696 11.5318 3.77857 11.8937L3.75421 12.0046C3.69264 12.1246 3.6469 12.2537 3.61356 12.3872C3.75231 12.5322 3.93231 12.6361 4.1305 12.6854C4.19436 12.7013 4.2474 12.7357 4.28934 12.7812C4.44887 12.5036 4.5883 12.2106 4.66943 11.8999L4.6724 11.8856C4.97905 11.3618 5.31211 10.8544 5.66914 10.3643C6.654 9.01113 7.73857 7.7778 9.04233 6.75161C10.031 5.97383 11.1361 5.3643 12.3113 4.96827C12.0236 4.72629 11.697 4.53486 11.3436 4.39351Z" fill="black"/>
</g>
<defs>
<clipPath id="clip0_5_160">
<rect width="36" height="45" fill="white"/>
</clipPath>
</defs>
</svg>
