<svg width="36" height="44" viewBox="0 0 36 44" fill="none" xmlns="http://www.w3.org/2000/svg">
<g clip-path="url(#clip0_5_196)">
<path fill-rule="evenodd" clip-rule="evenodd" d="M19.5276 3.02455C23.8492 3.02455 29.2618 8.05086 30.8459 10.1898C32.1778 11.988 31.9894 21.2522 31.9894 26.7477C31.9894 27.897 31.4798 30.0723 31.2948 31.1717C30.617 35.2004 27.6637 38.579 21.8186 38.579C17.0593 38.579 13.3967 37.042 9.85487 33.1108C9.04684 32.214 5.10066 35.4247 4.29361 34.2684C2.18562 34.2684 0.422994 14.1869 4.56175 8.16362C8.70051 2.14033 15.2061 3.02455 19.5276 3.02455Z" fill="white"/>
<path fill-rule="evenodd" clip-rule="evenodd" d="M6.53897 4.43917C9.03614 2.12277 12.3629 1.00841 15.7194 1.09067C17.4577 1.13335 19.19 1.47091 20.8317 2.04904C21.6529 2.33927 22.4482 2.71797 23.2086 3.14633C23.4826 3.30034 23.7352 3.48079 23.9783 3.67244L24.0389 3.72058H24.0397C24.692 3.95959 25.2742 4.38873 25.8024 4.89081C26.8611 4.80467 27.9281 4.90167 28.9518 5.23458C30.3766 5.69864 31.6956 6.54837 32.6218 7.75508C33.7008 9.15991 34.0595 10.864 33.9315 12.6231L33.9078 12.9219C33.7813 14.4758 33.5546 16.4746 32.3037 17.4956C32.2086 17.5732 32.1035 17.6322 31.9947 17.6679C32.8007 19.0756 33.4621 20.6385 33.8579 22.2169C35.3687 28.2457 34.2072 34.533 32.3905 40.3438C32.2413 40.8226 31.5312 41.1408 31.1697 40.6728C30.5243 39.8363 29.5866 39.1984 28.5317 39.0789C27.881 39.0052 27.2333 39.1386 26.6183 38.8375C26.377 38.7188 26.1441 38.5248 25.9767 38.2889C24.9385 38.6901 23.8205 38.8794 22.7116 38.8329C20.8918 38.7568 18.9464 38.1143 17.6944 36.7051C17.4935 36.4789 17.4426 36.2249 17.4888 35.9959C17.6458 35.9388 17.807 35.8963 17.9731 35.8697C19.5608 36.8237 21.3108 37.4612 23.1917 37.5012C24.2784 37.5244 25.3385 37.3694 26.2197 36.6775C26.4104 36.5277 26.5857 36.3619 26.7478 36.1837C28.5902 34.9753 29.8892 32.9228 30.5068 30.7243C31.0821 28.6741 31.0114 26.5393 30.8135 24.4363L30.7091 23.3265C30.5569 21.6977 30.4157 20.0641 30.3761 18.4284L30.3881 18.4278C30.7772 18.4021 30.78 17.7811 30.3881 17.8069C29.3744 17.8738 28.3684 17.7043 27.3578 17.7782C27.3493 17.291 27.3149 16.8061 27.1745 16.3363C27.0944 16.0679 26.636 16.015 26.5874 16.3363C26.5224 16.7662 26.4987 17.1937 26.4916 17.6256C24.9792 17.6051 23.4683 17.4754 21.9556 17.5287C21.6766 17.2252 21.5878 16.6872 21.4573 16.313C21.4383 16.2579 21.4192 16.2035 21.3994 16.1484C21.2847 16.6833 21.1222 17.2064 20.9083 17.7185L20.5373 17.7198C18.4325 17.7298 16.2849 17.794 14.2296 18.2396C14.0867 18.1278 14.0017 17.9327 13.9787 17.7556C13.8296 16.6027 13.6169 15.4806 13.2398 14.382L13.1858 14.227C13.1814 14.2141 13.1767 14.2004 13.1719 14.1861C12.894 14.6434 12.5625 15.0696 12.2009 15.4666C11.9878 15.7005 11.7643 15.9243 11.535 16.1416C11.3122 16.3938 11.082 16.6422 10.8588 16.8952C10.8676 16.9412 10.8752 16.9879 10.8813 17.0355C10.9496 17.5605 10.9567 18.0929 10.9067 18.6199C10.8163 19.5726 10.5525 20.4906 10.1287 21.3399L10.1153 21.4249C10.0509 21.8229 9.95938 22.2342 9.74556 22.534C10.0124 22.8388 10.218 23.2029 10.3372 23.6074C10.4433 23.9676 9.95456 24.2797 9.70111 23.9849C9.4998 23.7508 9.27612 23.5571 9.03043 23.4025C9.01491 23.424 8.9869 23.4345 8.95546 23.4166C8.27124 23.0294 7.10904 23.1465 6.42557 23.5113C5.57542 23.9645 5.24358 24.8949 5.33796 25.8378C5.42853 26.7387 5.81517 27.7918 6.56485 28.2535C6.90887 28.4653 7.17677 28.4832 7.5421 28.3815C7.65891 28.3492 7.80373 28.25 7.86589 28.2007L7.92706 28.1507C8.16656 27.9577 8.38961 27.8255 8.67233 27.8205C8.96149 27.7285 9.2521 27.8561 9.36269 28.1652L9.3695 28.1852C9.42126 28.3427 9.51563 28.5406 9.49508 28.7812C9.47377 29.0388 9.35809 29.2732 9.18532 29.4617C9.15563 29.4943 9.12367 29.5269 9.09094 29.5572C12.0668 32.8421 12.4489 37.9606 10.9229 42.0642C10.8567 42.2442 10.7859 42.422 10.7121 42.5981C10.4571 43.2018 9.47529 43.0148 9.35047 42.4165C9.31318 42.2373 9.27208 42.0588 9.22718 41.8818C9.14464 41.5549 9.05007 41.231 8.94348 40.9118L8.90295 40.7923C8.81238 40.5285 8.72789 40.2623 8.63656 39.9985L8.62743 39.9683C8.624 39.9564 8.6202 39.9426 8.61601 39.9271L8.46151 40.2708L7.99191 41.3084C7.77217 41.7925 7.07397 41.5294 7.04801 41.0628L7.04739 41.0469C7.0451 40.9607 7.04206 40.8754 7.03673 40.7908C7.00324 40.1568 6.89593 39.5406 6.72544 38.9377L6.66393 39.0156C5.74803 40.1701 4.67311 41.2523 3.19851 41.5187C2.82861 41.5854 2.41001 41.1912 2.66422 40.8102C2.76925 40.6526 2.87047 40.4912 2.96637 40.3275C2.88341 40.2879 2.80502 40.2468 2.73272 40.2049C2.17331 39.8844 1.70751 39.4281 1.3224 38.9105C0.505739 37.8132 0.213477 36.4319 0.141934 35.0801C0.0658237 33.6514 0.189122 32.1452 0.571955 30.767C0.737874 30.171 0.962399 29.5991 1.22193 29.0442C1.20367 28.9946 1.18616 28.9449 1.16866 28.8953C0.888572 28.0991 0.65872 27.285 0.467684 26.4617C0.0825679 24.7995 -0.124451 23.0845 -0.149567 21.3765C-0.195233 18.3166 0.322314 15.2079 1.41297 12.3545C2.5394 9.41186 4.2336 6.57709 6.53897 4.43917ZM5.13627 31.1915C4.92943 30.8594 4.41189 31.1587 4.60395 31.493L4.61111 31.505C4.93914 32.0319 5.09288 32.631 5.28164 33.2184C5.40265 33.5963 5.99098 33.4349 5.86844 33.0531L5.82788 32.9257C5.64005 32.3299 5.46872 31.7245 5.13627 31.1915ZM6.93779 24.853L7.07521 24.7852C7.50867 24.5743 7.88847 24.4306 8.40062 24.6148C9.08637 24.8607 9.82083 25.6437 9.35732 26.4035C9.18684 26.6836 8.88392 26.7954 8.57187 26.7294C8.0458 26.6182 7.91004 26.1351 7.64308 25.7386L7.59714 25.6715C7.43438 25.4316 7.22855 25.0999 6.95758 25.0059C6.89593 24.9841 6.87005 24.8864 6.93779 24.853ZM7.32432 8.72285L7.36857 8.68241C7.66312 8.41702 7.23081 7.97934 6.93779 8.24319C5.59673 9.45144 5.13094 11.3426 4.43529 12.9544C4.27927 13.3168 4.80367 13.6334 4.96121 13.2679C5.62479 11.7299 6.06525 9.89004 7.32432 8.72285ZM23.4399 8.1943C23.0895 8.0333 22.783 8.55323 23.1198 8.72442L23.1325 8.73053C24.3167 9.27606 24.8206 10.5115 25.3031 11.6584C25.4569 12.0247 25.9813 11.7089 25.829 11.3457L25.742 11.1399C25.2385 9.95792 24.6512 8.75313 23.4399 8.1943ZM25.2963 7.44777C24.9248 7.31663 24.7658 7.91571 25.1342 8.04686C26.138 8.40305 26.8268 9.1713 27.4076 10.0497C27.6252 10.3788 28.1527 10.0684 27.9327 9.73624C27.2584 8.71656 26.4577 7.86061 25.2963 7.44777Z" fill="black"/>
</g>
<defs>
<clipPath id="clip0_5_196">
<rect width="36" height="44" fill="white"/>
</clipPath>
</defs>
</svg>
