<svg width="36" height="44" viewBox="0 0 36 44" fill="none" xmlns="http://www.w3.org/2000/svg">
<g clip-path="url(#clip0_5_204)">
<path fill-rule="evenodd" clip-rule="evenodd" d="M22.6502 11.2646C13.8907 10.9387 5.5207 16.9411 2.70258 25.4252C2.49781 26.0907 3.13506 26.7123 3.77806 26.5998C3.12045 29.9759 4.55768 34.5203 8.30142 34.9992C9.06824 35.0979 9.83907 35.0411 10.6069 35.1128C11.2914 35.1768 15.0174 37.3139 16.4127 37.8146C19.3501 38.8608 26.742 38.6692 29.6825 37.8146C29.7896 38.0629 32.0733 28.5144 32.5933 25.5539C32.7829 24.2712 31.0501 23.3216 31.1779 21.9997C31.342 20.3018 33.2899 18.2317 32.6931 16.6152C31.1201 12.5011 26.5549 11.3532 22.6502 11.2646Z" fill="white"/>
<path fill-rule="evenodd" clip-rule="evenodd" d="M18.3001 3.78577C18.6936 3.81914 19.0893 3.87578 19.4783 3.95028C20.6602 3.75317 21.8833 3.97201 23.0295 4.35148C25.7139 5.24002 28.2979 6.78273 30.3209 8.79649C31.3621 9.83325 32.2137 11.0275 32.7381 12.4166C33.0045 13.1212 33.1544 13.8732 33.1978 14.6267L33.2027 14.718C33.2148 14.968 33.2204 15.2678 33.1911 15.5647C33.2847 16.1642 33.3682 16.7686 33.3746 17.3749C33.3775 17.6557 33.3596 17.9361 33.3262 18.2146L33.3376 18.241C33.2891 18.5736 33.2311 18.9047 33.165 19.2341L33.1485 19.2559C33.1395 19.3229 33.129 19.3897 33.1192 19.4565C33.0833 19.6258 33.0458 19.7948 33.006 19.9631C32.9198 20.3276 32.8244 20.6897 32.7217 21.0496C32.7037 21.1127 32.721 21.1624 32.7547 21.1951C32.6798 21.469 32.598 21.7409 32.5073 22.0099C32.5518 22.2453 32.5968 22.4806 32.6445 22.7151C32.8934 23.935 33.1042 25.1626 33.3873 26.3755C33.9612 28.8371 34.8334 31.259 35.0732 33.7896C35.2596 35.7521 34.9499 37.8978 33.7534 39.501C32.7221 40.8823 31.171 41.6979 29.4958 41.9152C28.6944 42.02 27.8724 41.9719 27.0885 41.7654L27.0031 41.7425C26.6104 41.6347 26.1108 41.466 25.7459 41.1943C25.3501 41.0523 24.9764 40.79 24.7512 40.5339C24.4437 40.1839 24.108 39.5856 24.1917 39.0882C23.7343 39.1262 23.2739 39.1371 22.821 39.1355C21.7052 39.1332 20.5796 39.0432 19.5064 38.7126C18.549 38.4177 17.4332 37.925 16.8669 37.0356C16.8403 36.9937 16.8844 36.9332 16.9309 36.9495C17.3883 37.1132 17.816 37.3344 18.2879 37.4593C18.7522 37.582 19.2164 37.6976 19.6952 37.748C20.6311 37.8464 21.5811 37.8331 22.5202 37.7859L22.8426 37.7688C23.8475 37.7139 24.886 37.6357 25.8258 37.2522C26.1946 37.1018 26.5359 36.8918 26.847 36.6423L26.8959 36.6026C27.0626 36.4645 27.2346 36.3481 27.4097 36.2379C27.4348 36.2053 27.4599 36.1727 27.485 36.1393C27.8831 35.6186 28.3108 35.1166 28.6693 34.5664C29.3817 33.4745 29.6564 32.34 29.6937 31.0378C29.7328 29.6634 29.7373 28.287 29.7533 26.9121L29.7592 26.4539C29.7797 24.8817 29.7828 23.3041 29.9015 21.7357C29.9562 21.0071 30.0341 20.2819 30.1538 19.5619L30.1801 19.4077L30.3734 18.2972C30.4199 18.0297 30.4471 17.7541 30.5065 17.4878C30.4397 17.376 30.3624 17.2685 30.2729 17.166C30.1903 17.0716 30.1064 16.9799 30.0227 16.8889L29.9623 16.8346C29.8244 16.7091 29.7059 16.5894 29.5949 16.4167L29.5681 16.374C29.4488 16.2273 29.3363 16.0738 29.2369 15.9052L29.2186 15.8724C29.1938 15.8407 29.1691 15.8089 29.1435 15.7775C29.0638 15.6798 28.9802 15.5875 28.8938 15.4992C28.5908 16.0959 28.1622 16.6128 27.5555 16.9359C27.3361 17.0528 27.0684 16.9527 26.9965 16.7041C26.8149 16.0764 26.5393 15.4928 26.1745 14.9643C25.5654 15.9977 24.5995 16.8061 23.4613 17.2006C23.1769 17.2991 22.9264 16.9949 22.9932 16.7232C23.1986 15.8882 23.2395 15.039 23.1188 14.1995C22.6892 14.5125 22.2461 14.8073 21.7911 15.0807C20.7786 15.8786 19.7058 16.5968 18.5258 17.1124C18.2532 17.2316 17.8429 17.0313 17.9668 16.6743C18.0711 16.3736 18.1568 16.068 18.2118 15.7541L18.2239 15.6815C18.2243 15.6793 18.2244 15.6772 18.2247 15.6749C15.4919 19.5187 8.86467 23.2227 8.35599 23.2583L8.34215 23.2584C8.65984 23.5678 8.91625 23.9501 9.084 24.3894C9.26016 24.8508 8.54178 25.0517 8.356 24.6105L8.35007 24.5957C8.06428 23.8472 7.35737 23.3107 6.58827 23.1838C6.1234 23.2699 5.68401 23.4984 5.38422 23.845C4.79436 24.5271 4.78904 25.3496 5.19166 26.1257L5.25073 26.2387C5.4687 26.6533 5.6983 27.0688 5.82109 27.524C5.97102 28.0828 5.85762 28.6493 5.9558 29.2072L5.96114 29.2368C6.00768 29.4849 6.1082 29.7671 6.398 29.6992C6.42038 29.6939 6.44199 29.6869 6.46353 29.6793C6.52465 29.729 6.59817 29.7701 6.68981 29.7973C6.91418 29.864 7.16207 29.8316 7.38537 29.7777C7.60107 29.7257 7.81052 29.6442 8.01214 29.5487C8.03444 29.6049 8.04822 29.6637 8.04959 29.7202C8.05644 30.0088 7.93923 30.2463 7.75885 30.4395C8.04654 30.8105 8.29238 31.2186 8.56942 31.5973C8.96747 32.1405 9.37466 32.6721 9.80773 33.1866C10.2583 33.7228 10.7492 34.2296 11.2584 34.7084C11.6153 35.0436 12.2052 35.4021 12.429 35.8887C12.6862 35.9702 12.9046 36.1712 12.9846 36.5017C13.1299 37.1008 13.1725 38.5046 13.0584 39.1138C12.945 39.7175 12.5127 40.0939 12.0347 40.4121C11.9023 40.5005 11.7523 40.4912 11.6306 40.4253C11.5232 40.5316 11.4022 40.6294 11.2637 40.7163C10.7522 41.0383 10.1578 41.1555 9.56874 41.223C8.77339 41.4822 7.91563 41.5505 7.06777 41.3891C6.79073 41.4225 6.51369 41.4527 6.23589 41.4775C3.39394 41.7298 0.504808 41.5148 -2.26712 40.8249C-3.53891 40.5083 -4.73985 39.9329 -5.85874 39.1937C-7.78722 37.9198 -8.60342 34.3439 -7.48445 30.9253L-7.39585 30.6557C-6.89163 29.1286 -6.34788 27.6094 -5.619 26.1846L-5.53198 26.0151C-4.86201 24.7157 -4.12502 23.4176 -3.14619 22.3333C-2.65604 21.7908 -2.08674 21.2981 -1.44361 20.9535C-1.19945 20.8228 -0.914414 20.7322 -0.635852 20.6294L-0.630162 20.5583L-0.624131 20.4873C-0.605788 20.2596 -0.582423 20.0323 -0.552283 19.8056C-0.439793 18.9575 -0.281027 18.122 -0.0555136 17.297C0.170305 16.471 0.447954 15.6588 0.782 14.8716C1.33928 13.5583 2.03918 12.3125 2.84709 11.1435C2.90478 11.0227 2.96331 10.9024 3.02329 10.7831C3.70447 9.42584 4.58658 8.13145 5.72443 7.12961C7.03047 5.97956 8.60367 5.26563 10.2454 4.76432C11.9479 4.24517 13.7243 3.88975 15.4985 3.77025C16.4323 3.70739 17.3677 3.70661 18.3001 3.78577ZM5.84849 25.5902C6.70321 25.0199 7.86769 25.4109 8.30076 26.3376C8.61357 27.0088 7.57923 27.3867 7.4156 26.7178C7.25272 26.0473 6.55327 25.567 5.88122 25.6694C5.83479 25.6772 5.80587 25.6182 5.84849 25.5902Z" fill="black"/>
</g>
<defs>
<clipPath id="clip0_5_204">
<rect width="36" height="44" fill="white"/>
</clipPath>
</defs>
</svg>
