<svg width="39" height="42" viewBox="0 0 39 42" fill="none" xmlns="http://www.w3.org/2000/svg">
<path fill-rule="evenodd" clip-rule="evenodd" d="M19.4965 6.43164C22.1779 6.43164 26.1057 7.82745 31.28 10.6191C33.7095 19.7658 34.6795 25.6453 34.1899 28.2576C33.4556 32.1761 29.6309 36.9766 23.2987 36.9766C16.9665 36.9766 15.2462 34.9695 13.723 34.0573C12.7076 33.4492 11.1766 31.7613 9.12993 28.9936C7.74119 29.3822 6.84301 29.464 6.4354 29.2392C5.56712 28.7603 5.67253 27.5009 5.39812 26.283C5.1959 25.3855 4.50732 24.5048 4.50732 24.0051C4.50732 22.1923 5.9414 22.3218 6.66371 21.8874C5.08098 20.4868 5.49753 15.6295 7.49137 13.0784C9.48522 10.5274 15.4744 6.43164 19.4965 6.43164Z" fill="white"/>
<path fill-rule="evenodd" clip-rule="evenodd" d="M26.7308 3.33749C27.0827 3.28689 27.3654 3.73119 26.993 3.89593C25.4074 4.59763 23.7428 5.12556 22.1286 5.76519C22.9532 5.85408 23.7941 5.99452 24.6067 6.21193C25.5417 5.86667 26.5019 5.58697 27.4906 5.38926L27.8039 5.32683C28.8106 5.12846 29.9437 4.94082 30.9216 5.24482C31.2576 5.34919 31.2369 5.73037 30.9216 5.84082C30.354 6.03963 29.7267 6.09178 29.1259 6.15415C28.521 6.21689 27.9226 6.29349 27.3264 6.40652C26.892 6.48882 26.4598 6.58445 26.0316 6.69311C26.3002 6.80578 26.5621 6.92926 26.8148 7.06608C28.176 7.80341 29.4151 8.64526 30.4519 9.73786C31.4583 10.7982 32.2502 11.9991 32.7891 13.3062C32.9302 13.6484 33.0207 14.0122 33.0792 14.3733C33.1261 14.6624 33.0969 14.9458 33.1048 15.231C33.1217 15.237 33.1362 15.2484 33.141 15.2658C33.3338 15.9534 33.3583 16.7007 33.4191 17.4076C33.4823 18.141 33.5471 18.8741 33.6011 19.6081C33.6549 20.3383 33.6465 21.1003 33.7986 21.82C33.9368 22.4737 34.3474 23.0542 34.5785 23.6869C35.9652 27.4833 34.6116 32.0325 31.2395 34.6545C29.5369 35.9783 27.4142 36.8174 25.1871 37.0941C24.0291 37.2379 22.8794 37.2342 21.7228 37.0809C21.1739 37.0082 20.6314 36.8989 20.1017 36.7505L19.9052 36.6958C19.6853 36.6341 19.462 36.5673 19.2591 36.4764C18.9696 36.3467 18.8442 36.1284 18.7426 35.8631C18.6809 35.7021 18.7804 35.4548 18.9592 35.3847L19.0174 35.3623C19.3237 35.2467 19.5707 35.1971 19.905 35.3103C20.1744 35.4016 20.4479 35.4824 20.7248 35.5529C21.2743 35.6928 21.8378 35.7968 22.4063 35.8469C23.552 35.9479 24.7111 35.8964 25.8349 35.6702C27.8543 35.2639 29.7038 34.3517 31.1043 32.9759C32.4727 31.6316 33.3299 29.9169 33.6585 28.1264C33.8214 27.2379 33.8348 26.3056 33.7038 25.413C33.6358 24.9498 33.5203 24.4903 33.3707 24.0431C33.2861 23.7907 33.1773 23.5461 33.0889 23.2951C33.0088 23.0679 32.9844 22.8248 32.9478 22.5877L32.9391 22.533C32.8397 21.93 32.874 21.3159 32.8746 20.7082C32.8753 20.097 32.8715 19.4857 32.8782 18.8745L32.8849 18.1835C32.8872 17.9531 32.89 17.7226 32.8945 17.4923C32.8007 17.5057 32.6842 17.4437 32.6752 17.3433C32.642 16.9719 32.5485 16.6113 32.4967 16.2419L32.483 16.1448C32.4341 15.8053 32.3747 15.4725 32.2168 15.1585C31.8962 14.521 31.6705 13.8482 31.3666 13.2044C30.7628 11.9253 29.863 10.745 28.7488 9.78156C27.4112 8.62497 25.754 7.80363 23.9779 7.33504C23.9214 7.3563 23.8645 7.3766 23.8083 7.3983C22.6836 7.8343 21.6158 8.39526 20.602 9.01149C20.0794 9.32912 19.5765 9.672 19.0966 10.0401C18.8629 10.2193 18.6287 10.3983 18.4003 10.583C18.3026 10.662 18.2058 10.7421 18.1102 10.8232C18.0464 10.8771 17.9832 10.9316 17.9204 10.9864C17.7758 11.0777 17.7727 11.2062 17.911 11.3715C17.9602 11.3533 17.992 11.4261 17.9467 11.4477C17.6729 11.5784 17.4577 11.2991 17.5159 11.0676C17.5619 10.8843 17.7511 10.7161 17.8842 10.5721L17.902 10.5527C18.109 10.323 18.321 10.0949 18.546 9.87904C19.7308 8.742 21.1292 7.80186 22.6452 7.05304C22.0079 6.95045 21.362 6.89149 20.7161 6.87697C20.3443 6.86874 19.9739 6.87415 19.6054 6.89267C19.0308 7.17326 18.4634 7.46541 17.9069 7.77541C17.4424 8.03415 16.9847 8.30282 16.5349 8.58171C16.3006 8.72697 16.069 8.87556 15.8383 9.02534C15.722 9.10097 15.5444 9.19067 15.451 9.28556L15.4439 9.29335C15.3787 9.37004 15.1899 9.70468 15.4354 9.69541C15.4616 9.69445 15.4666 9.73089 15.4415 9.73637C15.2176 9.78526 15.1885 9.57793 15.2268 9.42156C15.3225 9.03159 15.9019 8.71648 16.2277 8.47325L16.2486 8.45749C16.9079 7.9543 17.5889 7.47393 18.2887 7.01674C16.1078 7.31763 14.0326 8.08689 12.2287 9.2683C9.91055 10.7863 8.16824 12.9259 7.0074 15.2663C6.45579 16.3784 5.99834 17.5636 5.83467 18.7758C5.68799 19.8622 5.84416 21.0538 6.78758 21.8217C6.83895 21.8172 6.89031 21.8125 6.94168 21.8093L7.02171 21.805C7.69363 21.7727 9.09494 21.8137 9.04974 22.6446C9.04785 22.6792 8.98931 22.7007 8.97051 22.6639C8.75017 22.2339 8.10664 22.3111 7.64802 22.3791L7.38997 22.4173C6.85417 22.4973 6.30663 22.6001 5.83558 22.8504C5.38374 23.0907 4.98789 23.4747 4.90065 23.9555C4.81457 24.4293 5.16458 24.7867 5.46619 25.1353C5.80812 25.5304 6.08302 25.9393 6.11584 26.4524C6.14865 26.9689 5.86691 27.4889 5.94862 27.9996C6.13093 29.1406 7.97893 28.773 8.77336 28.5976C9.01157 28.5451 9.33989 28.6268 9.44972 28.8449C9.97535 29.8885 10.6901 30.841 11.5902 31.6535C12.0353 32.0553 12.5169 32.4227 13.0375 32.743C13.5638 33.0667 14.0747 33.3324 14.4355 33.8217C14.5754 34.0115 14.3856 34.2233 14.1686 34.2397C13.4575 34.2936 12.8776 33.9793 12.3165 33.6241C11.7515 33.2664 11.2165 32.8676 10.7296 32.4267C9.86 31.6392 9.13549 30.7273 8.59403 29.7316L8.51952 29.7442C7.29974 29.9459 5.94722 29.9448 5.15535 28.9428C4.80311 28.4971 4.76387 27.9749 4.85506 27.4497C4.94386 26.9382 5.15189 26.4589 4.83032 25.9812C4.53844 25.5476 4.12296 25.1904 3.95633 24.6929C3.7953 24.2122 3.88649 23.7024 4.12684 23.2575C4.58676 22.4065 5.5357 21.9867 6.52909 21.8503C5.33287 21.2033 4.93174 19.8796 4.92968 18.6699C4.92704 17.1547 5.52317 15.6236 6.19903 14.2567C7.47399 11.6782 9.62501 9.40623 12.2498 7.85889C14.6857 6.42304 17.6222 5.64926 20.5393 5.67252C21.2887 5.26904 22.058 4.89549 22.841 4.54786L23.0083 4.47415C24.2075 3.95054 25.4038 3.52853 26.7308 3.33749ZM6.25386 24.3149C6.39906 23.9966 7.03733 23.9976 7.33861 24.0084L7.39396 24.0107C8.31071 24.0539 9.83019 24.39 10.018 25.3109C10.0494 25.4648 9.93957 25.6676 9.73105 25.6494C9.42935 25.6229 9.20055 25.5734 8.9527 25.4139L8.82721 25.3333C8.61856 25.2001 8.41083 25.0725 8.1821 24.9629C7.90159 24.8287 7.61235 24.7317 7.30703 24.6542C7.18187 24.6225 7.0558 24.5894 6.93006 24.5595C6.84686 24.5398 6.76309 24.5225 6.67882 24.5074C6.57996 24.4527 6.51565 24.4866 6.48605 24.6091C6.52488 24.6211 6.52134 24.6816 6.47574 24.6773C6.29476 24.66 6.18337 24.4693 6.25386 24.3149ZM9.16685 22.9787C9.16685 22.9749 9.17213 22.9742 9.17424 22.9765L9.17509 22.9787V23.32C9.17509 23.3239 9.16982 23.3247 9.16771 23.3224L9.16685 23.32V22.9787Z" fill="black"/>
</svg>
