<svg width="34" height="42" viewBox="0 0 34 42" fill="none" xmlns="http://www.w3.org/2000/svg">
<g clip-path="url(#clip0_5_244)">
<path fill-rule="evenodd" clip-rule="evenodd" d="M28.2598 17.9664C28.2968 16.1077 28.1294 14.2028 27.2529 12.5415C26.4918 10.9822 25.3626 9.63058 24.2035 8.37243C23.7199 7.84747 23.074 7.31851 23.1345 6.52273C23.1979 5.68769 23.6854 3.8788 23.7605 3.03621C23.9085 1.37947 22.7578 0.923543 21.4126 0.136284C19.7902 -0.813271 17.8515 -0.70342 16.093 -0.277123C12.8137 0.529247 8.91692 1.86754 7.67769 5.44858C7.37981 6.33177 7.45413 7.26132 7.39483 8.17747C7.33927 9.03502 7.0061 9.85177 6.6868 10.6353C4.99873 14.5082 5.01397 18.7844 5.32047 22.9413C4.41908 23.1561 3.54751 23.8818 3.34883 24.8448C3.01588 26.5309 4.73183 27.3103 5.74536 28.2216C6.98144 29.3329 7.88125 30.7714 9.00491 31.9924C16.2961 40.277 32.385 36.4641 29.0403 23.56C28.5865 21.7263 28.1922 19.8713 28.2598 17.9664Z" fill="white"/>
<path fill-rule="evenodd" clip-rule="evenodd" d="M13.8372 -0.098226C15.648 -0.823559 17.6053 -1.13023 19.5414 -0.873189C20.5831 -0.734893 21.593 -0.446152 22.5457 0.0120703C23.0051 0.233107 23.4459 0.495181 23.8593 0.797922L23.897 0.825728C24.2242 1.06891 24.558 1.36967 24.5197 1.77333C24.545 1.85785 24.5495 1.95074 24.5294 2.0434C24.2067 3.536 23.8681 5.02385 23.5339 6.51355C23.4636 6.82674 23.3956 7.14044 23.3282 7.45437C25.6024 9.21911 27.7403 11.6317 28.5499 14.4986C29.3424 17.3051 28.9954 20.261 29.2756 23.1333C29.342 23.8138 29.4541 24.4888 29.6302 25.1488C29.8194 25.8574 30.1355 26.5272 30.2953 27.2437C30.6169 28.6853 30.1504 30.1004 29.4123 31.3227C28.0439 33.5887 25.9765 35.5007 23.5726 36.516C22.3426 37.0354 20.9886 37.3178 19.658 37.2958C18.3531 37.2742 16.8675 36.998 15.7751 36.222C15.0366 35.6975 15.6677 34.6646 16.4621 35.0107L16.678 35.1044C17.2288 35.3421 17.7757 35.5624 18.3664 35.6888C19.0266 35.83 19.705 35.8601 20.3772 35.8167C21.6807 35.7326 22.9166 35.2855 24.0417 34.6141C25.0571 34.0081 25.9616 33.2255 26.7693 32.3513L26.8593 32.2534C27.624 31.4174 28.3939 30.4646 28.824 29.401C29.0454 28.8536 29.1653 28.2518 29.0694 27.6615C28.9589 26.9809 28.6648 26.3398 28.4932 25.6747C28.1673 24.4113 28.0574 23.0939 28.02 21.7904L28.0173 21.6901C27.9481 19.015 28.1448 16.3059 27.2254 13.749C26.3928 11.4333 24.6764 9.66177 23.2726 7.71303C23.2037 8.03548 23.135 8.35807 23.0653 8.68029C22.982 9.06533 22.9061 9.45281 22.8154 9.83592L22.8086 9.86385C22.8359 9.94644 22.8264 10.0404 22.7534 10.0995C22.7453 10.106 22.7372 10.1116 22.7291 10.1177C22.6547 10.2949 22.5392 10.4308 22.3184 10.4873C22.107 10.5413 21.9397 10.4492 21.8458 10.2901L20.7424 10.2958C20.0417 10.2996 19.2729 10.3825 18.5838 10.2356C18.4779 10.2129 18.4912 10.0578 18.5838 10.0279C19.2349 9.81829 19.9954 9.82333 20.6713 9.75837L21.7367 9.65592C21.7838 9.65143 21.8312 9.64562 21.8787 9.63952L21.9501 9.63029L22.3205 7.93214C22.4674 7.25837 22.6212 6.5857 22.7555 5.90918C22.9975 4.6894 23.2629 3.47518 23.5281 2.26066C22.6953 2.05022 21.8452 1.956 20.9835 1.99348L20.8841 1.99801C20.5503 2.01442 20.1923 2.04885 19.9132 2.24851C19.567 2.49607 19.5419 3.00674 19.4652 3.40051C19.2548 4.48044 19.1041 5.57066 18.9721 6.66363C18.9082 7.19214 18.86 7.72207 18.8034 8.25125C18.7777 8.4914 18.762 8.73555 18.7272 8.97422C18.6942 9.2014 18.6151 9.42251 18.5705 9.64703C18.6474 9.9897 18.1866 10.3153 17.9294 10.0108C17.6115 9.63444 17.3329 9.24155 16.9777 8.8974C16.6213 8.55207 16.2319 8.24977 15.8122 7.99074C14.9593 7.46422 14.073 7.14037 13.1205 6.86666C13.0888 6.85763 13.0709 6.8374 13.0622 6.814C12.1118 7.09192 11.182 7.46851 10.3194 7.95259C8.3195 9.07488 6.74514 11.0126 6.1486 13.2883C5.77827 14.7014 5.69654 16.1941 5.6915 17.6521C5.6892 18.3289 5.70315 19.0135 5.80702 19.6832C5.92296 20.4304 6.18605 21.0984 6.39803 21.8153C6.45338 22.0024 6.43979 22.1695 6.38085 22.3091L6.43487 22.3175C6.86779 22.3872 7.71589 22.584 7.79318 23.0704C7.81481 23.2068 7.74078 23.3135 7.6047 23.3253C7.36282 23.3464 7.21072 23.1654 7.01758 23.0418C6.98286 23.0196 6.94713 22.9993 6.91155 22.9787C6.90235 22.9852 6.88999 22.9868 6.87726 22.9793C5.73514 22.309 4.33927 23.3342 4.08509 24.5236C3.84774 25.6342 4.25164 26.9203 5.29314 27.4058C5.81679 27.6499 6.37366 27.8032 6.85563 28.1371C7.26125 28.4181 7.61966 28.7617 7.93227 29.1479C8.57597 29.9429 9.06153 30.8493 9.63177 31.6978C9.88206 32.0701 10.16 32.422 10.4902 32.7229C10.852 33.0524 11.3554 33.1824 11.5087 33.6981C11.5684 33.8993 11.4691 34.1408 11.2934 34.2432C10.6505 34.618 9.92217 33.9661 9.4724 33.5241C9.01071 33.0704 8.63405 32.521 8.28837 31.9712C7.70944 31.0504 7.21503 30 6.36575 29.3021C5.85597 28.8832 5.2209 28.7247 4.64714 28.4284C3.98877 28.0886 3.52118 27.5316 3.24178 26.8353C2.72747 25.5533 2.86289 23.9188 3.83732 22.8987C4.15374 22.5673 4.55419 22.3554 4.97348 22.2701C4.54054 21.4896 4.37974 20.5057 4.27112 19.6323C4.16194 18.7548 4.15051 17.8716 4.19543 16.9891L4.20448 16.8176C4.29049 15.244 4.46381 13.6278 5.01654 12.1503C5.48183 10.9067 6.18792 9.76577 7.12612 8.84392C7.22294 8.74881 7.32235 8.65563 7.42335 8.564C7.39625 8.54259 7.37023 8.51962 7.34701 8.49362C7.08414 8.19881 7.14042 7.80081 7.17543 7.43437C7.21432 7.02703 7.27728 6.62088 7.37188 6.22326C8.03175 3.44889 10.0611 1.18533 12.6725 0.249033C13.0496 0.113774 13.4398 -0.00259637 13.8372 -0.098226ZM5.0391 24.4525C5.46176 24.1773 6.10683 24.2828 6.54746 24.4632C7.0658 24.6753 7.61785 25.071 7.822 25.6239C8.01104 26.1357 7.3056 26.3171 7.04251 25.9625C6.87992 25.7433 6.75959 25.5322 6.60533 25.3411C6.58566 25.3609 6.56696 25.3815 6.55037 25.404L6.53833 25.4213C6.47292 25.5204 6.35367 25.6234 6.22615 25.6057L6.19172 25.601C6.063 25.5833 5.92132 25.519 5.88578 25.3747L5.88227 25.3583L5.87753 25.3322C5.84813 25.1719 5.89456 24.9953 6.04372 24.9115C6.05371 24.9059 6.06392 24.901 6.07398 24.8957C5.74548 24.7184 5.4067 24.6629 5.04952 24.535C5.01401 24.5223 5.00603 24.4741 5.0391 24.4525ZM16.79 0.581478C14.5875 0.524515 12.1711 1.22244 10.543 2.79474C9.77222 3.53926 9.25007 4.40533 8.78184 5.37066C8.56073 5.82644 8.4184 6.3314 8.31303 6.82792C8.25538 7.09955 8.21218 7.37355 8.18917 7.65074C8.18472 7.70414 8.18558 7.76051 8.17753 7.8134C8.1707 7.85844 8.16243 7.87014 8.15481 7.86718C8.15855 7.87977 8.17674 7.90548 8.19428 7.93C9.84339 6.7077 11.8845 5.99629 13.9031 6.45977C13.9674 6.47451 13.9674 6.57896 13.9031 6.5937C13.7999 6.6174 13.697 6.64392 13.594 6.66992C14.4772 6.69 15.3849 6.97518 16.1478 7.39926C16.9101 7.82303 17.7118 8.42214 18.2645 9.15088C18.2486 9.04451 18.2361 8.9377 18.2338 8.82963C18.2277 8.54096 18.2341 8.25081 18.2445 7.96237C18.2671 7.33681 18.3085 6.71133 18.3583 6.08755L18.3803 5.81568C18.4698 4.72542 18.5797 3.60423 18.7936 2.5377C18.9183 1.9157 19.2521 1.53681 19.7008 1.31466C18.8678 0.760441 17.7374 0.60607 16.79 0.581478ZM20.8744 0.218589C19.8819 -0.0879297 18.8486 -0.222967 17.8146 -0.204522C18.1905 -0.10667 18.5544 0.0355518 18.8968 0.231922C19.3374 0.484663 19.6477 0.819478 19.9255 1.21844C20.1869 1.12466 20.4777 1.07288 20.7836 1.05051C21.4901 0.998885 22.2043 1.0377 22.9061 1.15237C22.7751 1.06926 22.6422 0.989478 22.5071 0.9137C21.9879 0.622663 21.4403 0.39333 20.8744 0.218589Z" fill="black"/>
</g>
<defs>
<clipPath id="clip0_5_244">
<rect width="34" height="42" fill="white"/>
</clipPath>
</defs>
</svg>
