<svg width="34" height="44" viewBox="0 0 34 44" fill="none" xmlns="http://www.w3.org/2000/svg">
<g clip-path="url(#clip0_5_266)">
<path fill-rule="evenodd" clip-rule="evenodd" d="M26.9858 3.95917C23.1423 2.74137 9.92444 3.98967 9.59759 4.25344C9.06272 4.73325 6.46099 6.25567 6.05616 6.60324C2.39559 10.7917 5.88527 17.0117 5.61672 22.0644C5.63383 23.8567 4.92637 25.4932 4.60118 27.2174C4.46388 28.121 4.49414 29.0556 4.93039 29.8669C5.69737 31.3165 7.31708 31.6103 8.63438 32.1948C9.28987 32.4995 9.9023 32.9315 10.4637 33.4042C14.2435 37.014 16.3475 39.4859 21.8628 38.6715C21.8909 38.9558 22.1242 39.2351 22.4134 39.108C23.0905 38.8104 23.7628 38.4946 24.4458 38.2124C24.5918 38.5922 25.0112 38.7006 25.2952 38.3652L25.2969 38.3676C26.5612 37.2604 27.3653 35.7465 27.9625 34.1258C28.3804 33.1908 28.7226 32.2152 28.9841 31.2105C29.0137 31.0968 29.0098 30.9953 28.9831 30.9078C30.1897 26.4191 30.6362 21.6882 30.3185 17.0277C30.2542 16.0662 30.086 15.0919 30.1273 14.1263C30.1647 13.2539 30.5128 12.4287 30.7782 11.6162C32.1467 8.16222 30.0548 5.04668 26.9858 3.95917Z" fill="white"/>
<path fill-rule="evenodd" clip-rule="evenodd" d="M27.4691 -1.6487L27.51 -1.68299C27.9532 -2.0583 28.371 -2.55018 28.9958 -2.36574C29.5083 -2.21441 29.7671 -1.75656 29.8771 -1.20327C30.0331 -1.37942 30.1847 -1.56179 30.3328 -1.75036C30.7354 -2.26253 31.6346 -1.99713 31.7546 -1.3445C31.9976 -0.0299332 32.0098 1.30792 31.7733 2.62481C31.7374 2.82425 31.695 3.02291 31.6454 3.21924C31.9149 2.85684 32.1658 2.47892 32.3908 2.08082C32.6345 1.64859 33.1851 1.86277 33.2232 2.32449C33.2332 2.444 33.239 2.56506 33.2404 2.68689C33.4122 2.75208 33.5308 2.94298 33.4855 3.17733C33.2354 4.46707 32.9184 5.73896 32.5374 6.98911C33.1499 6.63836 33.8363 6.43038 34.4825 6.67793C35.509 7.07215 35.7534 8.28118 35.5529 9.32181C35.3006 10.6302 34.507 11.7251 33.4834 12.4429C33.3619 12.64 33.2419 12.8387 33.1276 13.0412C33.1254 13.6132 33.0291 14.1835 32.835 14.7136C32.6165 15.3088 32.2312 15.8233 31.7568 16.2144C31.5901 16.6064 31.1484 16.8927 30.7607 16.8133L30.7404 16.8088L30.7397 16.8096C30.8389 17.1929 30.9244 17.5802 30.9984 17.9682C31.5717 20.9743 31.2815 24.1035 30.7586 27.0926L30.7418 27.188C30.2724 29.8482 29.7261 32.603 28.6644 35.0731C27.7041 37.3064 26.076 39.2705 23.7492 39.7579C21.0119 40.3313 17.9821 39.4226 15.628 37.9071C14.7748 37.3576 15.5568 35.9096 16.4065 36.4683C17.6328 37.2738 18.9647 37.8364 20.3736 38.1329C21.6905 38.4091 23.1633 38.503 24.4263 37.9303C26.1852 37.1326 27.2304 35.184 27.8917 33.3495C28.2813 32.267 28.5732 31.1495 28.8449 30.0274C29.1949 28.5848 29.5213 27.1329 29.7664 25.6647C30.2228 22.9261 30.3709 20.082 29.8879 17.3357C29.734 16.4596 29.5162 15.578 29.2323 14.7306C29.1877 14.6709 29.1453 14.6041 29.1072 14.5312C28.8104 13.9694 28.6055 13.3307 28.3848 12.7231C28.1915 12.3607 27.9801 12.0123 27.7559 11.6716C27.4205 11.3934 27.1012 11.0959 26.8086 10.7714C27.6583 10.1774 28.4081 9.43387 28.9476 8.48667C29.0366 8.33045 28.9801 8.18115 28.8746 8.09695C28.4438 8.67873 27.8862 9.17142 27.2996 9.60793C26.9992 9.88574 26.6756 10.1353 26.3364 10.3608C26.0941 10.4126 25.8491 10.4481 25.6116 10.4773C24.9352 10.5603 24.2552 10.5293 23.5824 10.4323C22.1275 10.2228 15.9746 8.39339 13.381 9.10453C12.8407 9.25267 12.586 9.77578 12.2999 10.267C12.0517 10.6943 11.7361 11.048 11.3574 11.3392L11.3151 11.3713C10.5747 11.9246 9.08612 13.6749 8.46039 15.2372C7.65244 17.2542 6.87641 23.2986 7.23366 23.3506C8.16812 23.4872 8.68567 24.018 9.4469 24.5876C9.49721 24.6248 9.46774 24.7257 9.40305 24.7001C8.9006 24.5045 8.35717 24.3889 7.83028 24.2942C7.3537 24.2081 6.85197 24.1926 6.39193 24.3765C5.68605 24.659 5.34174 25.2976 5.20013 26.0178C5.14478 26.2994 5.12034 26.5936 5.11747 26.8846L5.11706 26.969C5.11744 27.8865 5.27591 28.9036 5.89307 29.5804C6.15544 29.8683 6.51125 30.0623 6.8836 30.1159C7.29117 30.1749 7.54275 29.9762 7.91726 29.873C8.34855 29.7543 8.68495 30.0608 8.6447 30.4604C8.73599 30.5466 8.8244 30.6374 8.9121 30.7297L8.91219 30.7301L8.91282 30.7305C8.97032 30.7584 9.02495 30.7957 9.07455 30.8407C9.15578 30.9152 9.22406 30.9967 9.27869 31.0844C9.40017 31.11 9.51662 31.1829 9.61222 31.3164C9.80918 31.5903 9.99104 31.8674 10.16 32.1498C10.4626 32.4967 10.7638 32.8444 11.0606 33.1974C11.418 33.6218 11.7658 34.0559 12.116 34.4874L12.2913 34.7029C12.4803 34.9349 12.6686 35.167 12.857 35.3998L12.9131 35.4681C13.1026 35.6972 13.2478 35.8662 13.2681 36.196C13.2825 36.4404 13.0388 36.6065 12.8368 36.5506C12.5254 36.4639 12.3808 36.2 12.1943 35.9381L11.9124 35.5479L11.6472 35.1802C11.5156 34.997 11.3827 34.8147 11.2504 34.6323C11.2109 34.9683 10.8817 35.2391 10.5812 35.2539L10.5112 35.2568C9.80557 35.2821 8.94811 35.1747 8.41108 34.6377C8.16956 34.9008 7.8691 35.108 7.49891 35.2321C6.65789 35.5146 5.79819 35.0141 5.45819 34.2528C4.79903 34.5578 4.05434 34.6191 3.34199 34.3948C2.93112 34.2648 2.78903 33.712 3.07534 33.3736L3.08825 33.3588L3.09156 33.3548C3.03247 33.2719 2.99998 33.1704 2.99473 33.0598C2.98833 32.9255 3.07898 32.7832 3.06029 32.6579C2.98898 32.1799 2.267 32.534 2.03756 32.6375C1.99371 32.6573 1.95259 32.6666 1.91421 32.6681C1.55947 32.7796 1.17368 32.2765 1.3595 31.8611C1.77569 30.933 2.18182 29.9979 2.60305 29.0714C2.54986 29.0908 2.49523 29.1086 2.44132 29.1234C1.6844 29.3329 0.766474 28.9309 0.941146 27.9462C0.9814 27.7149 1.17548 27.5566 1.36812 27.4852C1.74335 27.3455 2.02512 27.4464 2.31409 27.316C2.63971 27.1701 2.97971 26.9024 3.2658 26.6502C3.57129 26.3817 3.8351 26.0798 4.06872 25.7524C4.16216 25.2767 4.32389 24.8219 4.58267 24.4308C4.59848 24.4075 4.6143 24.3842 4.63083 24.3617C2.97131 23.9346 3.18862 22.1726 2.4566 20.6112L2.39476 20.4817C1.89759 19.4373 1.46385 18.2597 1.71459 17.0703C1.75916 16.86 1.82385 16.659 1.90724 16.4712C1.77425 16.4891 1.64055 16.5054 1.50757 16.5217C1.20208 16.5589 0.891548 16.1337 1.01303 15.8209C1.077 15.6572 1.14745 15.4989 1.22364 15.3452C1.43497 14.9215 1.69447 14.5366 1.99996 14.189C1.48673 14.1742 0.972774 14.1742 0.46529 14.1106C-0.0141601 14.0508 -0.51805 13.7676 -0.503603 13.1708C-0.488435 12.6019 -0.0260205 12.1712 0.402753 11.8936C0.82477 11.2876 1.36007 10.784 1.96553 10.4097C1.84576 10.3806 1.7244 10.3591 1.60105 10.3459L1.5392 10.3399C1.19345 10.3105 0.882922 10.208 0.569519 10.052C0.28918 9.91236 0.293493 9.48866 0.476791 9.27525C1.06938 8.58367 1.95726 8.80887 2.64812 9.20518C2.60002 9.13928 2.54732 9.07581 2.48991 9.01508L2.4549 8.97897C2.11548 8.63776 2.6249 8.0902 2.96318 8.43025C3.07006 8.53773 3.16581 8.65452 3.25121 8.77829L3.25933 8.75998C3.70627 7.7813 4.35996 6.90529 5.13335 6.20335L5.31512 6.04019C6.70974 4.78254 7.14007 4.18645 8.99476 4.37162C8.91569 4.0079 8.92343 3.59875 8.94124 3.26232L8.94373 3.21691C9.01489 1.95201 9.4469 0.438003 10.5898 -0.130039C10.8867 -0.276706 11.2231 -0.0369173 11.144 0.330137C11.0887 0.590102 11.0211 0.843083 10.937 1.08908C11.1864 0.805834 11.4538 0.541213 11.737 0.297545C12.8915 -0.695753 14.434 -1.55014 15.9515 -1.27078C16.7853 -1.11635 17.4394 -0.551415 18.1374 -0.0795981C18.8389 0.395322 19.6225 0.677016 20.4441 0.778673C21.592 0.92146 22.7443 0.777897 23.8793 0.551301C24.6592 0.184247 25.4161 -0.245665 26.1551 -0.708946C26.6093 -0.993743 27.0514 -1.30492 27.4691 -1.6487ZM7.08778 25.8245C7.33074 25.757 7.60317 25.7578 7.84685 25.8237C8.47581 25.9945 9.06093 26.5625 9.09759 27.2788C9.11412 27.6024 8.8726 27.912 8.59226 27.995C8.27454 28.0897 8.00139 27.9221 7.81594 27.6536C7.61683 27.3665 7.56723 27.0553 7.32355 26.7945L7.26737 26.7355C7.06023 26.5216 6.747 26.2452 6.45953 26.2948C6.41712 26.3018 6.3855 26.2397 6.42862 26.2148C6.66296 26.0767 6.81678 25.899 7.08778 25.8245ZM10.3548 22.4512C10.4657 22.3534 10.6123 22.4681 10.5601 22.6087L10.556 22.6188C10.4245 22.9183 10.579 23.2699 10.7386 23.5205C10.8759 23.737 10.6164 23.9427 10.4338 23.8496C9.9206 23.5865 9.9472 22.8082 10.3548 22.4512ZM12.2309 13.4517C12.2215 13.3788 12.3114 13.3485 12.3344 13.4207C12.7175 14.6212 12.8275 15.6843 12.765 16.9539L12.7591 17.0665C12.6914 18.2894 12.493 19.5837 11.8075 20.588C11.6486 20.82 11.3237 20.6834 11.3762 20.3916C11.5868 19.2237 11.9915 18.1148 12.1489 16.9329C12.3135 15.6975 12.3876 14.6879 12.2309 13.4517ZM8.65263 17.8153C8.70869 17.4948 9.16514 17.165 9.39588 17.487C9.47352 17.5964 9.38223 17.7307 9.28878 17.771C9.20108 17.8083 9.12273 17.7571 9.03647 17.7757C8.9667 17.7909 8.91571 17.8379 8.88176 17.9021L8.87474 17.9162C8.80717 18.0558 8.62891 17.9519 8.65263 17.8153ZM8.46575 15.2622C8.62964 14.9347 9.00702 14.726 9.32977 14.9301C9.43615 14.9976 9.39446 15.1939 9.26507 15.1877L9.18842 15.1843C8.9583 15.1753 8.72819 15.1803 8.53476 15.3375C8.49163 15.3724 8.44418 15.3064 8.46575 15.2622ZM9.04199 6.31879C8.12269 5.87259 7.20843 6.27541 6.45777 6.90368C6.39567 6.95567 6.36555 7.01635 6.35894 7.07735C6.86009 6.86666 7.39367 6.72853 7.90374 6.61453C8.3208 6.52126 8.74181 6.45832 9.16332 6.43349C9.13975 6.38778 9.101 6.34743 9.04199 6.31879Z" fill="black"/>
</g>
<defs>
<clipPath id="clip0_5_266">
<rect width="34" height="44" fill="white"/>
</clipPath>
</defs>
</svg>
