<svg width="33" height="42" viewBox="0 0 33 42" fill="none" xmlns="http://www.w3.org/2000/svg">
<path fill-rule="evenodd" clip-rule="evenodd" d="M28.0513 16.6089C27.4199 13.7827 26.0394 11.1526 23.8293 9.02707C17.1785 2.04588 4.96477 5.83514 5.0201 16.3553C4.78156 17.584 4.68473 18.8474 4.7637 20.1005C4.79635 20.6352 5.01431 21.3814 4.72149 21.8625C4.061 22.7628 3.67714 23.4263 3.90193 24.6238C4.08975 25.6694 4.75993 26.4101 5.6644 26.8039C6.20684 26.9691 6.72152 27.3291 6.92245 27.8779C8.12984 30.2248 9.02433 32.177 10.9278 33.7765C11.419 34.1883 16.4566 36.658 18.1164 36.658C22.9758 36.658 29.1004 34.7891 29.202 29.0262C29.2196 27.7604 29.0104 26.4799 28.8792 25.2241C28.5597 22.3583 28.6724 19.3888 28.0513 16.6089Z" fill="white"/>
<path fill-rule="evenodd" clip-rule="evenodd" d="M27.9419 15.1954C27.9435 15.1605 27.9906 15.1526 27.9998 15.1871C28.1804 15.8675 28.2827 16.5606 28.424 17.2516C28.5601 17.9171 28.6885 18.5846 28.7954 19.256C28.9971 20.5232 29.1671 21.7936 29.3251 23.0674L29.3644 23.3859C29.6392 25.6271 30.0929 27.962 29.6962 30.2164C29.3576 32.14 28.2224 33.6904 26.7594 34.8271C25.3742 35.9033 23.6947 36.594 22.0271 36.9866C20.2373 37.4082 18.1158 37.534 16.6595 36.1405C16.0766 35.5825 16.8713 34.4754 17.5037 34.9789C18.9888 36.1611 20.878 35.8126 22.5537 35.3422L22.6044 35.3279C24.0752 34.912 25.5557 34.2815 26.7234 33.218C28.0143 32.042 28.6526 30.41 28.7263 28.6201C28.7677 27.6145 28.6794 26.61 28.5841 25.6103L28.5735 25.4992C28.4642 24.356 28.3495 23.2132 28.2437 22.0695C28.1471 21.0266 28.0638 19.9776 28.0197 18.93L27.9992 18.4017C27.9564 17.3364 27.8988 16.2556 27.9419 15.1954ZM10.525 6.34419C12.9416 5.00841 15.7189 4.53034 18.4083 4.97863C20.9937 5.4096 23.3665 6.82604 25.1401 8.85708C26.006 9.84871 26.7745 10.9957 27.2657 12.2489C27.5097 12.8714 27.7007 13.5208 27.8024 14.1877C27.8547 14.5306 27.9062 14.8859 27.916 15.2335C27.9251 15.5554 27.8361 15.8572 27.8466 16.1844C27.8482 16.2356 27.7743 16.2454 27.7631 16.1964C27.6791 15.8316 27.4767 15.5557 27.3497 15.2092C27.2548 14.9505 27.1471 14.6979 27.0375 14.4461L26.9434 14.2303C26.67 13.6031 26.3433 13.0017 26.0201 12.4024C25.3692 11.1954 24.5341 10.0986 23.5562 9.173C21.8393 7.54797 19.6367 6.499 17.3378 6.31012C14.9517 6.11397 12.5314 6.71782 10.4937 8.05545C8.45605 9.393 6.9153 11.4723 6.11535 13.8663C5.71175 15.0743 5.48884 16.3331 5.437 17.6129C5.41077 18.2608 5.43526 18.914 5.47803 19.5606L5.49927 19.869C5.52416 20.2387 5.54122 20.6071 5.48919 20.9679C5.85672 20.8462 6.24198 20.7957 6.62863 20.856C7.20317 20.9454 7.54642 21.1955 7.80414 21.7406C7.81761 21.769 7.79061 21.7974 7.76389 21.7833C7.42977 21.6063 6.88921 21.6994 6.53535 21.7923C6.16712 21.8889 5.83544 22.0569 5.52254 22.284C4.94368 22.7039 4.48991 23.3546 4.37856 24.1012C4.27091 24.8224 4.54977 25.5526 5.01819 26.0695C5.2593 26.3357 5.54751 26.5659 5.87019 26.7093C6.26179 26.8834 6.64942 26.878 6.99589 27.1655C7.21007 27.3432 7.1583 27.6473 7.01305 27.8446C7.744 28.6956 8.39221 29.6266 9.1231 30.4809C9.46189 30.8768 9.79798 31.2733 10.1226 31.682L10.2438 31.8359C10.5679 32.2512 11.0836 32.69 11.2317 33.2123C11.3239 33.5373 10.9961 33.9623 10.6648 33.8143C10.1566 33.5871 9.79378 32.9959 9.45035 32.5425L9.42798 32.5131C9.06784 32.0433 8.7481 31.5473 8.45577 31.0275L8.35965 30.8563C7.83105 29.9124 7.30699 28.9335 6.96993 27.8966C6.94768 27.9209 6.9241 27.943 6.89926 27.9617C6.41368 28.3283 5.70777 28.0465 5.22282 27.8084C4.765 27.5837 4.34528 27.2457 4.01814 26.8382C3.30665 25.9521 2.97868 24.8046 3.2163 23.6546C3.41758 22.6804 4.05351 21.7329 4.88723 21.2401C4.5024 20.7697 4.34305 20.1357 4.237 19.5157C4.10165 18.7244 4.07465 17.9134 4.11142 17.111C4.18475 15.5127 4.57217 13.9372 5.17105 12.4737C6.24254 9.85493 8.13686 7.66441 10.525 6.34419ZM5.43887 23.8191C5.94607 23.7182 6.41875 23.6938 6.90796 23.9217C7.43861 24.169 7.81207 24.5773 8.15924 25.0557C8.55425 25.5998 7.54188 26.1942 7.28662 25.4719L7.27912 25.4496C7.21075 25.2357 7.08831 25.029 6.93321 24.8387C6.88668 24.9144 6.82445 24.9811 6.75133 25.0192C6.6628 25.0654 6.52759 25.0334 6.50631 24.9134C6.48273 24.7801 6.50882 24.6186 6.58124 24.5058L6.59114 24.4904C6.23924 24.1897 5.81596 23.9701 5.43887 23.8994C5.40119 23.8923 5.40161 23.8265 5.43887 23.8191Z" fill="black"/>
</svg>
