<svg width="33" height="44" viewBox="0 0 33 44" fill="none" xmlns="http://www.w3.org/2000/svg">
<path fill-rule="evenodd" clip-rule="evenodd" d="M16.8867 5.84033C20.8481 5.84033 24.9456 9.25573 26.3977 11.4352C28.0767 13.9553 29.4013 26.0531 28.7799 30.1581C28.1585 34.2632 25.0721 38.7374 19.7141 38.7374C14.356 38.7374 11.0953 38.0034 10.9645 36.9371C10.8774 36.2263 9.69937 33.8926 7.43054 29.936C5.11007 29.21 3.94526 27.98 3.93613 26.246C3.92713 24.5119 4.54889 23.3294 5.80142 22.6985C5.35483 15.8551 5.6939 11.5426 6.81864 9.76091C8.50574 7.08838 12.9252 5.84033 16.8867 5.84033Z" fill="white"/>
<path fill-rule="evenodd" clip-rule="evenodd" d="M14.8696 4.81155L14.9403 4.81189C19.3234 4.84339 23.7812 7.08676 26.3889 11.0056L26.4673 11.1249C26.4716 11.1311 26.5496 11.2603 26.568 11.2971C26.6761 11.5129 26.8034 11.7147 26.9011 11.9341C26.9836 12.1204 27.0384 12.3284 27.099 12.5268L27.1174 12.586C27.2731 13.0811 27.4041 13.5809 27.52 14.0891C27.7446 15.0786 27.9197 16.0835 28.09 17.0861C28.6984 20.6763 29.0963 24.3177 29.2967 27.9639L29.3363 28.6971C29.3767 29.4575 29.4073 30.2212 29.3305 30.9791C29.2418 31.8614 29.0137 32.6894 28.6684 33.4887C28.3502 34.2259 27.94 34.9088 27.4705 35.5366C27.2193 35.8726 26.9528 36.1993 26.6249 36.4453C26.3639 36.6409 26.059 36.7697 25.7653 36.8939C25.2875 37.4247 24.6742 37.8259 24.0749 38.1464C23.087 38.6733 22.0161 38.9643 20.9326 39.1102C19.8247 39.2583 18.7056 39.2227 17.6068 39.0108C16.5568 38.8091 15.4314 38.293 14.7847 37.3098C14.7289 37.2252 14.8327 37.1453 14.9011 37.1802C16.7779 38.1464 18.8869 38.3986 20.9326 38.0936C21.8869 37.9516 22.826 37.6582 23.6975 37.2027C24.4328 36.8186 25.053 36.2599 25.713 35.7539C25.8414 35.5638 25.9711 35.3768 26.1191 35.2029L26.3499 34.9337C26.5225 34.7314 26.6919 34.5264 26.846 34.3051C27.3219 33.623 27.716 32.8493 27.9763 32.0352C28.4825 30.4507 28.3456 28.7306 28.2562 27.0792L28.2484 26.9337C28.1563 25.1675 28.0062 23.4075 27.7984 21.6537C27.5904 19.8976 27.326 18.1485 27.0135 16.4118C26.8593 15.5558 26.6862 14.7053 26.5335 13.8494C26.4546 13.4078 26.3996 12.96 26.3396 12.5138C26.3032 12.2422 26.3039 11.9807 26.3032 11.7153C26.2963 11.7277 26.2879 11.7394 26.2795 11.751C26.3047 11.817 26.2872 11.9016 26.2258 11.9404C25.9935 12.0878 25.7256 12.0381 25.464 12.0389C25.1862 12.0405 24.9086 12.0412 24.6309 12.042C24.3417 12.0432 24.0525 12.0432 23.7633 12.0427L22.8958 12.0405L19.4255 12.0288C17.1529 12.0212 14.8417 12.1218 12.5764 11.8835L12.4035 11.8645C12.2255 11.8417 10.2165 11.5684 9.67327 11.4978L9.65677 11.4957C8.66391 11.3684 7.68514 11.1799 6.72026 10.8974C7.03554 11.0379 7.3391 11.2272 7.65159 11.3708C8.05491 11.5555 8.46856 11.7169 8.88235 11.8713C9.73142 12.1887 10.5818 12.4968 11.4274 12.8242C11.6698 12.918 12.2207 15.228 12.3596 15.5934L12.3637 15.6039C12.4341 15.7801 12.5312 15.9733 12.4774 16.1735C12.3589 16.6158 11.7302 16.9433 11.4184 17.1932L11.0978 17.4505L10.6785 17.7879C10.5065 17.9249 10.3478 18.0298 10.1227 17.9514C10.1221 17.9506 10.1214 17.9506 10.1207 17.9506C10.3133 18.9447 10.4068 22.1597 10.4354 22.7238C10.4604 23.2151 10.5902 23.8444 10.3837 24.2922C10.3348 24.3985 10.2079 24.4823 10.0997 24.4738C9.6281 24.4342 9.15654 24.3954 8.68491 24.3566C8.55856 24.3457 8.44345 24.2658 8.40856 24.123L8.40717 24.1152C8.39189 24.1199 8.37445 24.1168 8.3598 24.0997C8.33398 24.071 8.30747 24.0431 8.28019 24.0159C7.65933 23.3998 6.68817 23.2477 5.92205 23.5682C5.52026 23.7358 5.06328 24.0182 4.77996 24.3845C4.46531 24.7911 4.3977 25.3592 4.39694 25.8783C4.39554 26.8794 4.72073 27.8929 5.38414 28.5874C5.99377 29.225 6.78036 29.4105 7.57174 29.593L7.65654 29.6125C7.83717 29.6544 7.89445 29.954 7.7584 30.0797C8.12049 30.4739 8.43305 30.9442 8.73794 31.378C9.14276 31.9534 9.52994 32.5517 9.90657 33.1513L10.0884 33.4414C10.7363 34.4699 11.6742 35.8866 11.2663 37.1725C11.2119 37.3455 10.9844 37.4076 10.8958 37.226C10.6048 36.6285 10.4423 35.9704 10.166 35.3659C9.89468 34.773 9.55701 34.2236 9.22205 33.6742L9.02886 33.3558C8.70722 32.824 8.38856 32.2865 8.09321 31.7388L7.88756 31.3595C7.69432 31.0014 7.50305 30.6314 7.36066 30.2465C6.40833 30.5018 5.37298 29.9338 4.70391 29.1772C3.86259 28.2242 3.467 26.8204 3.57577 25.5004C3.63305 24.8098 3.81654 24.1416 4.27135 23.645C4.3174 23.5953 4.36561 23.548 4.41514 23.5006C4.3977 23.4906 4.38305 23.475 4.376 23.4564C4.07112 22.6509 4.00624 21.691 3.98042 20.8234C3.95328 19.9263 3.97073 19.0269 4.03205 18.1314C4.14445 16.4894 4.41089 14.8558 4.83375 13.2774C5.45949 10.9447 6.53468 8.66092 8.25235 7.0957C10.084 5.42628 12.538 4.80722 14.8696 4.81155ZM5.75191 25.2149C6.01058 25.0843 6.41413 25.3169 6.64442 25.4651L6.65951 25.4748C7.33975 25.9148 7.824 26.6644 8.04789 27.4948C8.19161 28.0302 7.3844 28.2436 7.31603 27.7191C7.26028 27.2915 7.13184 26.891 6.92051 26.5333C6.87021 26.5519 6.82137 26.576 6.77749 26.607C6.60935 26.7281 6.51161 26.9361 6.27796 26.905C6.10486 26.8825 5.92765 26.749 5.93951 26.5286C5.95842 26.1647 6.22207 26.0196 6.5047 26.001C6.46436 25.9608 6.42366 25.9211 6.38199 25.8828L6.33638 25.842C6.28466 25.8005 5.73179 25.3763 5.71589 25.4854L5.71556 25.4919C5.71626 25.5353 5.66393 25.5602 5.63742 25.5276C5.53068 25.4003 5.62982 25.2769 5.75191 25.2149Z" fill="black"/>
</svg>
