<svg width="35" height="44" viewBox="0 0 35 44" fill="none" xmlns="http://www.w3.org/2000/svg">
<path fill-rule="evenodd" clip-rule="evenodd" d="M14.4587 6.4155C25.6742 5.83708 26.4576 9.25568 27.9977 11.4351C28.762 12.5167 30.7353 14.1185 31.0627 17.8175C31.2899 20.3851 29.8434 23.3446 29.8434 25.639C29.8434 26.8102 31.2107 29.3245 30.5741 31.0314C29.1574 34.8307 26.1576 39.0472 22.3349 39.0472C18.5123 39.0472 11.4559 36.8378 7.23205 30.4953C5.84854 28.4178 3.24317 6.99392 14.4587 6.4155Z" fill="white"/>
<path fill-rule="evenodd" clip-rule="evenodd" d="M30.7831 25.8682C30.5382 25.5849 30.348 25.3521 30.2844 24.9626C30.2577 24.8003 30.2459 24.6335 30.2407 24.4659C31.2241 23.0241 32.1802 19.6184 32.1802 17.7556C32.1802 15.1277 31.2559 12.5991 29.739 10.5077C26.7822 6.43436 21.86 4.34611 17.0428 4.50993C12.4299 4.66583 7.52343 6.44911 4.64588 10.261C-4.90135 22.9081 3.11151 36.7224 8.98026 39.5966C9.49113 39.8467 11.1411 39.7598 10.9112 39.2255C10.2508 37.6907 9.73058 34.8637 9.60922 34.2273C9.79717 34.3601 9.9866 34.4897 10.1768 34.6239C10.5135 34.8605 10.9648 35.1314 11.3881 35.053C11.4081 35.0492 11.4206 35.0267 11.4214 35.0073C11.4406 34.5905 11.1565 34.1621 10.9064 33.8649C10.5593 33.4521 10.2293 33.0291 9.85563 32.6419C9.69654 32.4766 9.53523 32.3129 9.37392 32.1491C9.3532 31.1667 9.41609 30.1797 9.58406 29.1918C9.87487 27.4792 10.3766 25.8107 10.953 24.1687C11.4347 23.7961 11.9024 23.4043 12.3352 22.9759C13.3778 21.9446 14.1733 20.6828 14.8555 19.3559C14.8637 19.3519 14.8725 19.3472 14.8807 19.3434C16.203 18.6985 17.5142 18.0289 18.815 17.3382C19.4862 16.9819 20.1529 16.6172 20.8196 16.2526C21.1822 16.0538 21.5558 15.873 21.9266 15.686C21.8267 16.223 21.692 16.7522 21.5285 17.273C21.3938 17.7006 21.8052 18.0164 22.1693 17.9458C23.4087 17.7053 24.6067 17.2218 25.6848 16.5374C26.2191 16.1983 26.7274 15.8064 27.1988 15.3764C27.6701 16.1128 28.2428 16.8035 28.8207 17.398C29.2107 17.7992 29.6184 18.1809 30.0417 18.5426C29.85 19.9262 29.6858 21.3129 29.4778 22.6935C29.3691 23.4152 29.2381 24.1368 29.1559 24.8624C29.0664 25.6531 29.3158 26.2165 29.8123 26.7946C30.5064 27.6026 30.5056 28.7712 30.24 29.7746C30.2074 29.8987 30.1667 30.0198 30.1245 30.14C30.1157 30.1649 30.0898 30.2324 30.0802 30.2588C30.0802 30.2596 30.0802 30.2604 30.0794 30.2619C30.0794 30.2627 30.0787 30.2635 30.0787 30.2642C30.0779 30.2642 30.0779 30.265 30.0772 30.2658V30.2673V30.2681L30.0765 30.2689C30.0454 30.3449 30.0121 30.4194 29.9788 30.4939C29.8271 30.8299 29.6576 31.1583 29.4815 31.4811C28.6158 33.0749 27.5221 34.5331 26.276 35.8197C25.6959 36.4188 25.0928 36.976 24.4113 37.4323C24.2678 37.5278 24.1213 37.62 23.9711 37.7046C23.8904 37.7504 23.8075 37.7932 23.7247 37.8366C23.6033 37.8994 23.6536 37.8746 23.5796 37.9056C23.4457 37.9608 23.3088 38.0088 23.1689 38.0469C23.0942 38.067 23.0187 38.0842 22.9425 38.0988C22.9418 38.0988 22.9403 38.0996 22.9381 38.0996C22.9373 38.0996 22.9366 38.1004 22.9359 38.0996C22.9351 38.1004 22.9336 38.1004 22.9322 38.1004C22.904 38.1027 22.8537 38.1074 22.8441 38.1074C21.7815 38.1113 20.7278 37.9616 19.6993 37.6845C19.1421 37.534 18.5856 37.3515 18.0618 37.101C17.7954 36.9729 17.5349 36.8309 17.2855 36.6702C17.1738 36.5981 17.068 36.5111 16.9503 36.4483C16.7742 36.3536 16.6018 36.3638 16.4117 36.3552C16.1216 36.3427 15.9159 36.661 15.9869 36.9403C16.0735 37.2809 16.2096 37.4819 16.4893 37.6845C16.7128 37.8459 16.9496 37.9887 17.1908 38.1182C17.7162 38.4016 18.2719 38.632 18.8343 38.8205C19.8872 39.1728 20.9957 39.3894 22.0982 39.4686C22.9011 39.526 23.5966 39.4134 24.3277 39.0588C25.0995 38.684 25.7914 38.1245 26.4314 37.544C27.8647 36.2449 29.1115 34.6689 30.1689 33.0245C31.1627 31.4787 31.9337 29.7955 31.6799 27.8764C31.5786 27.1066 31.2796 26.444 30.7831 25.8682Z" fill="black"/>
</svg>
