<svg width="36" height="43" viewBox="0 0 36 43" fill="none" xmlns="http://www.w3.org/2000/svg">
<path fill-rule="evenodd" clip-rule="evenodd" d="M18.422 5.70752C22.7436 5.70752 27.2135 9.04529 28.7976 11.1752C30.1295 12.9659 30.8466 21.0636 30.8466 26.536C30.8466 27.6805 31.4805 29.8381 31.2955 30.9328C30.6176 34.9446 27.6644 38.3091 21.8192 38.3091C15.9741 38.3091 11.7832 36.0005 7.4387 29.8021C5.33071 29.8021 4.3091 28.1914 4.29405 25.6494C4.2843 23.9547 4.96262 22.7991 6.32901 22.1825C5.84182 15.4947 6.21172 11.2802 7.4387 9.53899C9.27918 6.9272 14.1005 5.70752 18.422 5.70752Z" fill="white"/>
<path fill-rule="evenodd" clip-rule="evenodd" d="M16.6033 4.28893C19.3318 4.01364 22.0055 4.24494 24.6945 4.72356C24.9 4.76064 25.0165 4.89495 25.0598 5.05641C26.3263 5.11404 27.5943 5.20664 28.8592 5.27565C29.3182 5.30068 29.5784 5.7526 29.3691 6.16068C29.3273 6.24175 29.2839 6.32062 29.2397 6.39949L29.2952 6.38128C29.6757 6.25964 30.0867 6.19968 30.4575 6.39274C30.9294 6.63846 31.1144 7.18062 31.0101 7.67964C30.9834 7.80704 30.9386 7.92914 30.8876 8.04828C30.9911 8.04146 31.0954 8.04373 31.1989 8.05738C31.7499 8.13019 32.1594 8.55109 32.1883 9.11153C32.2309 9.9578 31.6837 10.8164 31.039 11.4222C31.1326 11.6142 31.1684 11.8402 31.1295 12.0692C31.0519 12.522 30.7172 12.7931 30.3292 12.9699C30.491 13.4819 30.5675 14.0172 30.5223 14.5642C30.5073 14.7468 30.347 14.8976 30.1778 14.9347C30.8084 16.6648 31.1276 18.5224 31.3572 20.3324C31.5208 21.6202 31.6015 22.9155 31.6113 24.213C31.6161 24.7988 31.6064 25.3853 31.5818 25.9712L31.5718 26.1909C31.5414 26.8242 31.5398 27.4892 31.4257 28.1157C31.8154 28.7762 31.9721 29.5961 32.0384 30.3362C32.1206 31.2523 31.9904 32.1972 31.7004 33.0687C30.6059 36.3615 27.3028 38.4394 23.9851 38.9795C20.9141 39.4792 17.3606 38.8066 15.5659 36.027C15.5377 35.983 15.5979 35.9467 15.6329 35.9755C16.9168 37.0159 18.4062 37.4801 20.0244 37.7061C22.8222 38.096 25.967 37.4346 28.2122 35.6813C29.29 34.8395 30.067 33.6139 30.4088 32.295C30.5831 31.6209 30.6433 30.9178 30.5747 30.224C30.5047 29.5202 30.1919 28.9196 29.9948 28.2545C29.9286 28.0299 29.9986 27.8214 30.1364 27.6728C30.1751 27.1328 30.2665 26.5883 30.3015 26.0499C30.3403 25.4378 30.3639 24.8258 30.3723 24.213C30.3883 22.942 30.335 21.6687 30.2277 20.403C30.0313 18.0853 29.51 15.8239 29.204 13.526C29.0907 13.6272 28.9283 13.6688 28.7581 13.5803L28.7405 13.5707L28.6477 13.5177C28.6423 13.5177 28.6362 13.5185 28.6308 13.5191C27.9954 13.5806 27.3363 13.4927 26.7274 13.3038C26.0903 13.1067 25.499 12.8033 24.9707 12.3991C24.8703 12.9064 24.8284 13.419 24.8277 13.9362C24.8269 14.2593 24.4837 14.427 24.2112 14.289C23.0033 13.6776 21.8495 12.9732 20.7543 12.1814C20.6264 12.8344 20.4986 13.4873 20.3699 14.141C20.3205 14.3929 19.9985 14.4945 19.7922 14.3747C18.9718 13.8991 18.2632 13.2765 17.6863 12.5363C17.5711 12.7558 17.4556 12.9752 17.3393 13.1942L17.1642 13.5222C16.9914 13.8445 16.7601 14.201 16.3818 14.3041C15.9814 14.4133 15.6472 14.1547 15.5126 13.7937C15.4715 13.6815 15.4335 13.5662 15.3984 13.4501C15.0574 14.226 14.6724 14.9844 14.237 15.7079C13.584 16.7931 12.8 17.76 12.0184 18.7519C11.7809 19.0531 11.3745 18.7656 11.3418 18.4729C11.3228 18.3008 11.3068 18.1279 11.293 17.9557C10.8376 18.8715 10.3623 19.7787 9.84455 20.6596L9.91868 20.9491C10.1323 21.8044 10.3097 22.6658 10.5026 23.5256C10.5649 23.803 10.4169 24.1997 10.0916 24.2469C9.70299 24.3033 9.3353 24.5012 8.93724 24.3651C8.50319 24.2166 8.41741 23.8428 8.21253 23.4885C8.17165 23.4179 8.12409 23.353 8.07294 23.2914L8.05993 23.3083C8.02796 23.3501 7.95185 23.3046 7.97088 23.2568L7.99318 23.2016C7.81713 23.0154 7.60646 22.8601 7.41276 22.693C6.95245 22.6157 6.43467 22.7004 6.11752 22.8867C5.39524 23.3113 5.06348 24.1865 5.05663 24.9912C5.04826 25.9331 5.3412 26.9918 5.83592 27.7972C6.05367 28.1514 6.35202 28.4713 6.74619 28.6284C7.13747 28.7845 7.56141 28.7361 7.95946 28.8831C8.2228 28.981 8.38491 29.2722 8.22584 29.5361C8.21519 29.5544 8.20301 29.571 8.19152 29.5885L8.30991 29.745C8.39134 29.8535 8.47625 29.9696 8.5554 30.0904C8.75785 30.3226 8.97096 30.5463 9.17722 30.7746C9.55845 31.1954 9.92842 31.6278 10.3036 32.0546C10.6576 32.4574 11.032 32.8358 11.4179 33.2081C11.7825 33.5609 12.2376 33.8573 12.5725 34.2335C12.8982 34.6006 12.9865 35.2413 12.4506 35.4538C11.8578 35.6893 11.333 35.1372 10.9339 34.7692L10.9171 34.7537C10.1855 34.0829 9.52489 33.3164 9.00026 32.4724C8.48058 32.8249 7.72892 32.8585 7.21145 32.5061C6.93913 32.3207 6.73021 32.0091 6.62868 31.6701C6.53293 31.6915 6.43726 31.704 6.34395 31.7025C6.29593 31.7303 6.24775 31.7573 6.19904 31.7825C5.81308 31.9826 5.339 31.8932 5.16242 31.4677C5.00163 31.0814 5.16732 30.6427 5.31215 30.2705L5.34204 30.1936C5.42424 29.9813 5.51481 29.75 5.62745 29.5324C5.31388 29.2973 5.0459 29.0052 4.81916 28.6731C4.0573 27.5545 3.67675 25.9186 3.84496 24.5839C3.94618 23.7785 4.3259 22.9443 4.94771 22.4013L4.92496 22.3421C4.75067 21.9016 4.59228 21.4594 4.48961 20.9938C4.36935 20.4493 4.31067 19.885 4.25747 19.3307C4.14483 18.1597 4.17527 16.9623 4.32521 15.7959C4.60682 13.6004 5.32073 11.4451 6.58796 9.61812C6.22864 9.18956 5.94407 8.68524 6.09241 8.10516C6.16022 7.83889 6.31465 7.58643 6.54762 7.43392C6.67617 7.34982 6.82923 7.33692 6.95785 7.26715L6.99653 7.24594C7.05303 7.21308 7.00981 7.21657 6.97612 7.06391C6.84293 6.4541 6.95329 5.86491 7.62686 5.66243C8.26086 5.47207 8.8606 5.87629 9.23582 6.35786C10.2176 5.66387 11.5115 5.30068 12.6494 4.99202C13.9432 4.64233 15.2705 4.424 16.6033 4.28893ZM5.99814 24.7424C5.99349 24.2457 6.46614 23.9393 6.93125 24.0205C7.24355 24.0746 7.50408 24.2604 7.74872 24.4523L7.868 24.5464C8.1659 24.7794 8.50791 25.0306 8.6855 25.3605C8.9458 25.8474 8.3956 26.5026 7.88186 26.1613C7.52944 25.926 7.30355 25.5489 7.07239 25.1987L7.04845 25.1625C6.94342 25.0055 6.85133 24.8387 6.70741 24.7128L6.67632 24.6857C6.62902 24.6455 6.57822 24.6088 6.51713 24.5915C6.39928 24.5577 6.181 24.605 6.12904 24.7448L6.1244 24.7591C6.10538 24.8297 5.9989 24.8144 5.99814 24.7424Z" fill="black"/>
</svg>
